<?xml version="1.0" encoding="utf-8"?>
<!-- Generator: Adobe Illustrator 19.0.0, SVG Export Plug-In . SVG Version: 6.00 Build 0)  -->
<svg version="1.1" id="Layer_1" xmlns="http://www.w3.org/2000/svg" xmlns:xlink="http://www.w3.org/1999/xlink" x="0px" y="0px"
	 viewBox="0 0 500 283.7" style="enable-background:new 0 0 500 283.7;" xml:space="preserve">
<style type="text/css">
	.st0{fill:#F8F9ED;}
	.st1{fill:#00ADBB;}
</style>
<g id="XMLID_2_">
	<g id="XMLID_21_">
		<path id="XMLID_24_" class="st0" d="M148.8,84.3l15.6-4.1l7.3,113.6l-15.6,4.1L148.8,84.3z"/>
		<path id="XMLID_26_" class="st0" d="M179,76.3l15.6-4.1l19,62l-4.2-65.9l14.4-3.8l7.3,113.6l-15.6,4.1l-18.3-60.1l4.1,63.8
			l-15,3.9L179,76.3z"/>
		<path id="XMLID_28_" class="st0" d="M238.4,83.2c-1-15.9,5.9-25.8,20.8-29.7c15-3.9,22.9,2.1,24,18l1,15.3l-15.6,4.1l-1-15.3
			c-0.3-5.1-2.7-7.1-7.3-5.9l-0.1,0c-4.5,1.2-6.6,4.3-6.2,9.5l0.7,10.3c0.3,5.1,5.6,10,15.8,14.8c10.2,4.7,15.7,12.2,16.3,22.4
			l0.9,14.4c1,15.9-5.9,25.9-20.8,29.8c-15,3.9-23-2.1-24-18.1l-1-15.3l15.6-4.1l1,15.3c0.3,5.1,2.8,7.1,7.3,5.9
			c4.5-1.2,6.6-4.3,6.3-9.5l-0.8-13c-0.4-5.5-5.7-10.6-15.9-15.4c-10.2-4.7-15.6-12.4-16.3-22.8L238.4,83.2z"/>
		<path id="XMLID_30_" class="st0" d="M295,46l22.7-5.9c13.9-3.6,21.3,2.6,22.3,18.5l1.1,17.1c0.8,11.7-3.7,20.6-13.5,26.6
			c-2.4,1.4-5.8,2.8-10.4,4l-2.5,0.7l3.1,48.7l-15.6,4.1L295,46z M311.7,58l2.1,32.6l3.6-0.9c2.2-0.6,3.6-1.1,4.4-1.6
			c2.8-1.9,4-4.7,3.8-8.4l-1.1-17.1c-0.3-5.2-2.8-7.2-7.3-6L311.7,58z"/>
		<path id="XMLID_33_" class="st0" d="M350.4,31.5l15.6-4.1l7.3,113.6l-15.6,4.1L350.4,31.5z"/>
		<path id="XMLID_35_" class="st0" d="M380.6,23.6l22.7-5.9c13.9-3.6,21.3,2.6,22.3,18.5l1.1,17.1c0.6,10-3.1,17.7-11.1,23
			l20.9,48.3l-17.1,4.5l-17.2-46.3l-2,0.8l3.2,49.7l-15.6,4.1L380.6,23.6z M397.2,35.6l2.1,32.5l3.6-0.9c2.2-0.6,3.6-1.1,4.4-1.6
			c2.8-1.9,4-4.7,3.8-8.4L410,40.2c-0.3-5.2-2.8-7.2-7.3-6L397.2,35.6z"/>
		<path id="XMLID_38_" class="st0" d="M486.3,70.5l7.7,39l-15.8,4.1l-4.6-23.3l-15.9,4.2l-1.6,24.9l-15.7,4.1L443,82l6.3-76.4
			L470.7,0L486.3,70.5z M470.6,74.6l-9-45.7l-2.9,48.8L470.6,74.6z"/>
	</g>
	<g id="XMLID_17_">
		<path id="XMLID_20_" class="st1" d="M126.1,32.6l13.2,188.8l28-8l2.8,39.1l-93.4,26.8L74,240.2l28-8L91.6,82.5l-28,8l-2.8-39.1
			L126.1,32.6z M68.7,57.1l1.7,23.4l28-8L110,237.9l-28,8l1.7,23.4l78.6-22.5l-1.7-23.4l-28,8L119.3,42.6L68.7,57.1z"/>
	</g>
	<g id="XMLID_11_">
		<path id="XMLID_13_" class="st0" d="M37.4,178.2c-3,7.7-8.1,21.3-16.4,24.8c-7.1,2.9-11.5-3.3-13.9-9c-4.2-10.2-4.4-22.9-1.3-33.3
			c4.1-14.1,9.6-27,12.7-28.2c1.6-0.7,3,1.5,3.4,2.8c3.1,9.5,4.2,19.1-8.4,48.2c-0.2,2,0.7,4.8,2.1,7c1.8,1.9,4,3.2,6.6,2.2
			c5.3-2.2,10.2-11.5,12.6-16.6L37.4,178.2z M11.9,173.6c4.2-9.3,6.4-21.1,5.8-27.3c-3.8,4.3-5.7,15.3-6.1,27.2L11.9,173.6z"/>
		<path id="XMLID_16_" class="st0" d="M54.6,180.1c-1.2,2.2-5.4,9.8-7.6,10.8c-2.7,1.1-11-2.9-13.3-7.9c-5.4-12,14.6-34.8,25.8-39.8
			c4.4-2,7.8,0.9,8.2,2c0.5,1.2-1.6,3.2-2.4,3.8c2.2,0,3.6,0.7,4.5,2.8c1.3,3.1-4.3,13.4-2.4,17.9c0.7,1.6,2.4,1.7,4,1.1
			c4.1-1.7,7.5-8.9,10.5-13.5l2.3,3.3c-2.2,6.5-10.9,22.3-15.6,24.2c-3.2,1.3-5.6-0.4-6.8-3.2c-1.3-3.1-1.1-9.2-0.9-12.4l-0.3-0.1
			L54.6,180.1z M41.9,182.5c0.3,0.4,1.4,2,2.7,1.1c1.8-1.2,4.9-2.1,16-29.5l-0.3-0.1C40.2,170.6,39.9,177.7,41.9,182.5z"/>
	</g>
	<g id="XMLID_6_">
		<path id="XMLID_5_" class="st0" d="M143.5,15.3l7.5-2.1c4.6-1.3,7.1,0.7,7.6,6l0.5,5.7c0.3,3.3-0.9,5.9-3.5,7.7l7.3,15.9l-5.6,1.6
			l-6.1-15.2l-0.6,0.3l1.4,16.5l-5.1,1.5L143.5,15.3z M149.1,19.2l0.9,10.8l1.2-0.3c0.7-0.2,1.2-0.4,1.5-0.6
			c0.9-0.7,1.3-1.6,1.2-2.8l-0.5-5.7c-0.2-1.7-1-2.4-2.5-1.9L149.1,19.2z"/>
		<path id="XMLID_9_" class="st0" d="M179,30.1l2.9,12.9l-5.2,1.5l-1.7-7.7l-5.3,1.5l-0.3,8.3l-5.2,1.5l0.5-13.8l1.5-25.4l7.1-2
			L179,30.1z M173.8,31.6l-3.3-15.1l-0.6,16.2L173.8,31.6z"/>
	</g>
	<g id="XMLID_3_">
		<polygon id="XMLID_1_" class="st0" points="201.5,52 147.8,66.7 147.8,57.8 203.1,41.9 		"/>
	</g>
</g>
</svg>
