<?xml version="1.0" encoding="utf-8"?>
<!-- Generator: Adobe Illustrator 19.0.0, SVG Export Plug-In . SVG Version: 6.00 Build 0)  -->
<svg version="1.1" id="Layer_1" xmlns="http://www.w3.org/2000/svg" xmlns:xlink="http://www.w3.org/1999/xlink" x="0px" y="0px"
	 viewBox="-37 109.3 423.3 283.7" style="enable-background:new -37 109.3 423.3 283.7;" xml:space="preserve">
<style type="text/css">
	.st0{enable-background:new    ;}
	.st1{fill:#F8F9ED;}
	.st2{fill:#FF6C0C;}
</style>
<g>
	<g>
		<g class="st0">
			<path class="st1" d="M155.3,197.7l23.6-6.4c14.4-3.9,22.2,2.4,23.4,19l1.3,17.8c0.9,12.2-3.7,21.5-13.7,27.9
				c-2.5,1.5-6,2.9-10.8,4.2l-2.6,0.7l3.8,50.7l-16.2,4.4L155.3,197.7z M172.8,210l2.5,33.9l3.7-1c2.2-0.6,3.8-1.2,4.6-1.7
				c2.8-2,4.1-5,3.9-8.7l-1.3-17.8c-0.4-5.4-3-7.4-7.6-6.2L172.8,210z"/>
			<path class="st1" d="M212.5,182.1l42-11.5l1.3,16.8l-25.8,7l2.5,33.9l22.2-6.1l1.2,16.9l-22.2,6.1l2.5,33.9l25.8-7l1.3,16.8
				l-42,11.5L212.5,182.1z"/>
			<path class="st1" d="M319,250.2c1.2,16.6-5.9,27-21.4,31.2c-15.5,4.2-23.9-2-25.1-18.5l-5.3-72.3c-1.2-16.6,5.9-26.9,21.4-31.2
				c15.5-4.2,23.9,1.9,25.1,18.5l1.1,15.9l-16.2,4.4l-1.1-15.9c-0.4-5.3-3-7.3-7.7-6.1l-0.1,0c-4.7,1.3-6.8,4.6-6.3,9.9l5.3,72.3
				c0.4,5.3,2.9,7.4,7.6,6.1c4.7-1.3,6.9-4.6,6.5-10l-2-27.7l-8.2,2.2l-1.3-16.9l24.4-6.7L319,250.2z"/>
			<path class="st1" d="M376.5,215.2l8.4,40.5l-16.4,4.5l-5-24.2l-16.5,4.5l-1.3,25.9l-16.3,4.5l2.2-43.2l5.7-79.6l22.2-6.1
				L376.5,215.2z M360.1,219.6l-9.8-47.5l-2.5,50.9L360.1,219.6z"/>
		</g>
	</g>
	<g class="st0">
		<path class="st2" d="M42.8,336.5c-1.7-23.4,7.8-46.4,28.3-69c18.4-20.4,27.4-35.3,26.8-44.7L94.5,175c-0.1-1.6-0.3-2.9-0.7-4.1
			c-1.4-5-4.9-6.7-10.3-5.1l-0.2,0.1c-6.9,2-10,7-9.4,15.1l2.6,36.9l-41.2,11.8l-2.6-36.9c-2.5-37,13.4-60.5,47.7-70.3
			c28.3-8.1,45.8-0.4,52.5,23.1c1.5,5.1,2.4,11,2.9,17.6l3.4,48.6c1.7,23.8-7.8,47.1-28.5,69.8c-18.4,20.4-27.2,35.7-26.5,46
			l0.7,10.3l61.9-17.8l3.1,43.2L46.7,393L42.8,336.5z M54.3,381.9l86.8-24.9l-1.9-25.9l-61.9,17.8L76,330c-1-13.3,8.9-31.3,29.5-54
			c18.5-20.5,27-41.1,25.5-61.9l-3.4-48.6c-0.4-5.6-1.3-10.5-2.5-14.8c-5.7-19.8-20.4-26.4-44.2-19.6c-28.9,8.3-42.2,28.1-40.1,59.3
			l2,28.2l24.9-7.1l-2-28.2c-1-13.9,4.7-22.6,17-26.1l0.2-0.1c10-2.9,16.2,0,18.7,8.7c0.6,2,0.9,4.3,1.1,6.9l3.4,47.7
			c0.8,12.4-9.2,30-29.9,52.7c-18.3,20.3-26.8,40.7-25.3,61.1L54.3,381.9z"/>
	</g>
	<g>
		<g class="st0">
			<path class="st1" d="M148.4,127l8.3-2.4c4.8-1.4,7.4,0.7,7.9,6.2l2,22.7c0.5,5.5-1.8,8.9-6.8,10.4l-7.9,2.3L148.4,127z
				 M154.3,131l2.5,28.1l2.3-0.7c1.6-0.4,2.3-1.6,2.1-3.3l-2-22.7c-0.2-1.8-1-2.5-2.6-2L154.3,131z"/>
			<path class="st1" d="M185.5,142.3l3,13.4l-5.4,1.6l-1.8-8l-5.5,1.6l-0.3,8.6l-5.4,1.5l0.5-14.4l1.5-26.4l7.3-2.1L185.5,142.3z
				 M180.1,143.8l-3.5-15.7L176,145L180.1,143.8z"/>
		</g>
	</g>
	<g>
		<g class="st0">
			<path class="st1" d="M0.4,284c-3.2,8.1-8.4,22.2-17.1,25.8c-7.4,3.1-12-3.4-14.4-9.4c-4.4-10.6-4.6-23.9-1.4-34.7
				c4.3-14.7,10-28.1,13.2-29.4c1.7-0.7,3.1,1.5,3.6,2.9c3.3,9.9,4.3,19.9-8.8,50.2c-0.2,2.1,0.7,5,2.2,7.3c1.9,1.9,4.1,3.4,6.9,2.2
				c5.6-2.3,10.6-12,13.2-17.3L0.4,284z M-26.1,279.2c4.4-9.6,6.6-21.9,6.1-28.4c-3.9,4.5-5.9,16-6.3,28.3L-26.1,279.2z"/>
			<path class="st1" d="M18.4,286c-1.3,2.3-5.6,10.2-7.9,11.2c-2.8,1.2-11.5-3.1-13.8-8.2c-5.6-12.5,15.2-36.3,26.8-41.4
				c4.6-2,8.1,0.9,8.6,2.1c0.5,1.2-1.7,3.3-2.5,4c2.3,0,3.7,0.7,4.6,2.9c1.3,3.2-4.5,13.9-2.5,18.7c0.7,1.7,2.5,1.8,4.1,1.1
				c4.2-1.8,7.9-9.3,11-14l2.4,3.4c-2.3,6.8-11.3,23.2-16.3,25.2c-3.3,1.4-5.9-0.4-7.1-3.3c-1.3-3.2-1.1-9.6-1-12.9l-0.3-0.1
				L18.4,286z M5.1,288.5c0.3,0.5,1.5,2.1,2.9,1.2c1.9-1.2,5.1-2.2,16.7-30.7l-0.3-0.1C3.4,276.2,3,283.5,5.1,288.5z"/>
		</g>
	</g>
	<g>
		<polygon class="st1" points="210,166.4 154,181.8 154,172.5 211.6,156 		"/>
	</g>
</g>
</svg>
