<?xml version="1.0" encoding="utf-8"?>
<!-- Generator: Adobe Illustrator 19.0.0, SVG Export Plug-In . SVG Version: 6.00 Build 0)  -->
<svg version="1.1" id="Layer_1" xmlns="http://www.w3.org/2000/svg" xmlns:xlink="http://www.w3.org/1999/xlink" x="0px" y="0px"
	 viewBox="0 169 423.3 224" style="enable-background:new 0 169 423.3 224;" xml:space="preserve">
<style type="text/css">
	.st0{fill:#F8F9ED;}
	.st1{fill:#95D600;}
</style>
<g>
	<g>
		<path class="st0" d="M142.4,244l33.2-9l1,13.3l-20.4,5.5l1.9,26.8l17.6-4.7l0.9,13.4L159,294l1.9,26.8l20.4-5.5l1,13.3l-33.2,9
			L142.4,244z"/>
		<path class="st0" d="M185.1,232.5l12.8-3.5l16.1,51l-3.9-54.2l11.9-3.2l6.8,93.5l-12.8,3.5l-15.5-49.4l3.8,52.5l-12.3,3.3
			L185.1,232.5z"/>
		<path class="st0" d="M275.1,285c0.9,13.1-4.7,21.3-17,24.7c-12.3,3.3-18.9-1.6-19.8-14.7l-4.1-57.2c-0.9-13.1,4.7-21.3,17-24.6
			c12.3-3.3,18.9,1.6,19.9,14.7l0.9,12.6l-12.8,3.5l-0.9-12.6c-0.3-4.2-2.3-5.8-6.1-4.8l-0.1,0c-3.7,1-5.4,3.6-5,7.8l4.1,57.2
			c0.3,4.2,2.3,5.8,6,4.8c3.7-1,5.5-3.6,5.2-7.9l-1.6-21.9l-6.5,1.8l-1-13.3l19.3-5.2L275.1,285z"/>
		<path class="st0" d="M320.6,257.4l6.6,32l-13,3.5l-3.9-19.2l-13.1,3.5l-1.1,20.5l-12.9,3.5l1.8-34.2l4.7-62.9l17.6-4.7
			L320.6,257.4z M307.6,260.9l-7.7-37.6l-2.1,40.2L307.6,260.9z"/>
		<path class="st0" d="M328.1,193.8l12.8-3.5l16.1,51l-3.9-54.2l11.9-3.2l6.8,93.5l-12.8,3.5l-15.5-49.4l3.8,52.5l-12.3,3.3
			L328.1,193.8z M335,189.8l-6.5-1.8l1.3-3.8c1.7-4.8,4.2-7.8,7.4-8.8l0.3-0.1c2-0.5,4.7-0.2,8.1,1c1.6,0.6,2.9,0.8,3.9,0.5
			c0.8-0.2,1.5-0.8,1.9-1.6l1.6-3.7l6.2,2.5l-1.6,3.7c-1.7,3.8-4,6.1-6.8,7l-0.3,0.1c-2,0.5-4.7,0.2-8-1.1c-2.1-0.8-3.3-1.1-3.7-1.1
			l-0.2,0c-0.8,0.2-1.6,1.3-2.3,3.2L335,189.8z"/>
		<path class="st0" d="M416.8,231.4l6.6,32l-13,3.5l-3.9-19.2l-13.1,3.5l-1.1,20.5l-12.9,3.5l1.8-34.2l4.7-62.9l17.6-4.7
			L416.8,231.4z M403.8,234.9l-7.7-37.6l-2.1,40.2L403.8,234.9z"/>
	</g>
	<g>
		<path class="st1" d="M102.2,312.5c-0.2-2.3-0.4-4.2-0.8-5.5c-0.5-1.6-1.1-2.5-1.9-2.7c-1-0.1-2.8,0.2-5.3,0.9l-11.4,3.3l-2.3-32.2
			l13.3-3.8c1.7-0.5,3-1.1,3.7-1.7c1.1-1,1.5-3.9,1.1-8.8l-1.9-27c-0.2-2.3-0.4-4.2-0.8-5.5c-0.5-1.6-1.1-2.5-1.9-2.7
			c-1-0.2-2.8,0.1-5.5,0.9c-0.8,0.2-1.5,0.5-2.3,0.8c-4,1.3-5.8,5-5.4,11.1l1.9,27.3l-30.5,8.7l-1.9-27.5
			c-1.4-18.8,3.1-32.6,13.4-41.5c6.8-6,13.9-10,21.5-12.2c6.9-2,14.1-2.3,21.5-1c9,1.4,15,7.7,18.2,18.7c1.1,4,1.9,8.7,2.3,13.9
			l1.9,27.3c0.9,13.2-1.8,22.5-8.2,28.1c4.7,1.2,8.1,5.2,10,11.8c0.8,3,1.4,6.5,1.7,10.5l2.3,33c1.1,16.9-2.3,29.8-10.4,38.7
			c-5.1,5.6-13.1,10-24,13.4l-2.1,0.6c-9.6,2.7-17.2,3.2-23,1.4c-7.4-2.2-12.4-8.2-15.2-17.9c-1.2-4.1-1.9-8.8-2.3-14.1l-2-27.5
			l30.5-8.7l1.9,27.6c0.1,1.2,0.3,2.2,0.5,3.1c1.1,3.9,3.8,5.2,8.1,4c5.3-1.5,7.8-5.4,7.3-11.7L102.2,312.5z M110.6,343.9
			c0.8,10.6-3.5,17.2-12.9,19.9c-7.7,2.2-12.4,0-14.4-6.7c-0.4-1.5-0.7-3.2-0.8-5.1L81,330.8L62.7,336l1.5,21
			c0.3,4.9,1,9.2,2.1,12.8c2.3,8,6.3,12.8,11.9,14.6c4.8,1.5,11.4,1,19.9-1.5l2.1-0.6c9.6-3,16.4-6.7,20.5-11.3
			c6.5-7.1,9.2-17.9,8.2-32.6l-2.3-33c-0.1-1.8-0.4-3.5-0.9-5.1c-2.2-7.7-8.2-12.7-17.9-15.2c10.9-9.5,16-19.5,15.3-30.1l-1.9-27.3
			c-0.4-4.8-1.1-9-2.1-12.5c-2.6-9.1-7.4-14.2-14.3-15.3c-6.6-1.2-13-0.9-19.1,0.9c-6.5,1.9-12.8,5.4-18.8,10.7
			c-8.2,7.1-11.6,18.7-10.4,34.8l1.4,21.1l18.3-5.2l-1.5-20.9c-0.7-10.2,2.8-16.6,10.6-19.2c1-0.3,1.9-0.6,2.8-0.9
			c3.5-1,6.1-1.4,8-1.1c2.7,0.5,4.6,2.6,5.7,6.5c0.5,1.9,0.9,4.1,1,6.6l1.9,27c0.5,7.3-0.7,12.4-3.7,15.2c-1.5,1.5-3.7,2.7-6.6,3.5
			l-7.2,2.1l1.3,19.3l5.3-1.5c3.3-0.9,5.9-1.3,7.7-1c2.7,0.5,4.6,2.7,5.8,6.6c0.5,1.8,0.9,3.9,1.1,6.4L110.6,343.9z"/>
	</g>
	<g>
		<path class="st0" d="M28.4,314c-2.5,6.4-6.7,17.6-13.5,20.4c-5.8,2.4-9.5-2.7-11.4-7.4c-3.5-8.4-3.6-18.9-1.1-27.4
			c3.4-11.6,7.9-22.2,10.5-23.3c1.4-0.6,2.5,1.2,2.8,2.3c2.6,7.8,3.4,15.7-6.9,39.7c-0.2,1.7,0.5,4,1.7,5.7c1.5,1.5,3.3,2.7,5.4,1.8
			c4.4-1.8,8.4-9.5,10.4-13.7L28.4,314z M7.5,310.2c3.5-7.6,5.2-17.3,4.8-22.5c-3.1,3.5-4.7,12.6-5,22.4L7.5,310.2z"/>
		<path class="st0" d="M42.7,315.6c-1,1.8-4.4,8.1-6.2,8.9c-2.2,0.9-9.1-2.4-10.9-6.5c-4.5-9.8,12-28.7,21.2-32.8
			c3.6-1.6,6.4,0.7,6.8,1.7c0.4,1-1.3,2.6-2,3.2c1.8,0,2.9,0.6,3.7,2.3c1.1,2.6-3.6,11-2,14.8c0.6,1.4,2,1.4,3.3,0.9
			c3.4-1.4,6.2-7.4,8.7-11.1l1.9,2.7c-1.8,5.3-9,18.3-12.9,19.9c-2.6,1.1-4.6-0.3-5.6-2.6c-1.1-2.6-0.9-7.6-0.8-10.2l-0.2-0.1
			L42.7,315.6z M32.1,317.6c0.2,0.4,1.2,1.7,2.3,0.9c1.5-1,4-1.8,13.2-24.3l-0.2-0.1C30.8,307.8,30.5,313.6,32.1,317.6z"/>
	</g>
	<g>
		<path class="st0" d="M135.2,191l6.2-1.8c3.8-1.1,5.8,0.6,6.2,4.9l0.4,4.7c0.2,2.7-0.7,4.8-2.9,6.3l6,13.1l-4.6,1.3l-5-12.5
			l-0.5,0.2l1.2,13.6l-4.2,1.2L135.2,191z M139.8,194.2l0.8,8.9l1-0.3c0.6-0.2,1-0.3,1.2-0.5c0.7-0.5,1.1-1.3,1-2.3l-0.4-4.7
			c-0.1-1.4-0.8-1.9-2-1.6L139.8,194.2z"/>
		<path class="st0" d="M164.4,203.1l2.3,10.6l-4.3,1.2l-1.4-6.3l-4.3,1.2l-0.3,6.8l-4.3,1.2l0.4-11.3l1.2-20.9l5.8-1.7L164.4,203.1z
			 M160.1,204.4l-2.7-12.4l-0.5,13.4L160.1,204.4z"/>
	</g>
	<g>
		<polygon class="st0" points="182.9,221.2 138.7,233.3 138.7,226 184.2,212.9 		"/>
	</g>
</g>
</svg>
