<?xml version="1.0" encoding="utf-8"?>
<!-- Generator: Adobe Illustrator 19.0.0, SVG Export Plug-In . SVG Version: 6.00 Build 0)  -->
<svg version="1.1" id="Layer_1" xmlns="http://www.w3.org/2000/svg" xmlns:xlink="http://www.w3.org/1999/xlink" x="0px" y="0px"
	 viewBox="0 0 627 346.5" style="enable-background:new 0 0 627 346.5;" xml:space="preserve">
<style type="text/css">
	.st0{fill:#2F1A45;}
	.st1{fill:#95D600;}
</style>
<g id="XMLID_1530_">
	<g id="XMLID_1524_">
		<g id="XMLID_3_">
			<g id="XMLID_4_">
				<path id="XMLID_90_" class="st0" d="M285.3,273.8c-1.1,0.3-1.6,0.4-2.7,0.6c-0.1-0.8-0.1-1.2-0.2-2c1.1-0.3,1.7-0.4,2.8-0.6
					C285.2,272.5,285.2,272.9,285.3,273.8z M283.4,284.7c-0.2-3.6-0.3-5.5-0.6-9.1c1-0.2,1.4-0.3,2.4-0.5c0.4,3.6,0.5,5.4,0.9,9
					C285,284.4,284.5,284.5,283.4,284.7z"/>
				<path id="XMLID_87_" class="st0" d="M294.4,276.3c0.4,1.7,0.7,2.6,1.1,4.3c-1,0.2-1.4,0.3-2.4,0.5c-0.3-1-0.4-1.6-0.7-2.6
					c-1,0.2-1.5,0.3-2.4,0.5c-0.1,1.1-0.2,1.7-0.3,2.8c-1,0.2-1.4,0.3-2.4,0.5c0.2-1.8,0.3-2.7,0.4-4.6c0.4-3.4,0.6-5.1,1.1-8.5
					c1.3-0.3,2-0.5,3.3-0.8C293.1,271.6,293.5,273.2,294.4,276.3z M292,276.8c-0.5-2-0.8-3-1.3-5c-0.2,2.2-0.3,3.3-0.5,5.4
					C290.9,277.1,291.3,277,292,276.8z"/>
				<path id="XMLID_85_" class="st0" d="M301.9,275.2c0.9-3.8,1.3-5.7,2.2-9.5c1-0.2,1.4-0.3,2.4-0.6c0.3,5.2,0.5,7.8,0.8,13
					c-0.9,0.2-1.4,0.3-2.3,0.5c-0.2-2.9-0.3-4.4-0.5-7.3c-0.6,3.1-0.9,4.6-1.6,7.7c-0.6,0.1-1,0.2-1.6,0.3c-1-2.7-1.6-4.1-2.6-6.8
					c0.2,2.9,0.3,4.3,0.5,7.2c-0.9,0.2-1.4,0.3-2.3,0.5c-0.4-5.1-0.5-7.7-0.9-12.7c1-0.2,1.4-0.3,2.4-0.6
					C299.8,270.3,300.5,271.9,301.9,275.2z"/>
				<path id="XMLID_81_" class="st0" d="M316.1,273.8c0.1,1.9-1,3-3.3,3.5c-2.3,0.5-3.5-0.2-3.6-2.1c-0.2-3.2-0.3-4.8-0.5-8
					c-0.1-1.8,1-3,3.3-3.5c2.3-0.5,3.5,0.1,3.6,2C315.8,268.9,315.9,270.6,316.1,273.8z M313.2,266.2c0-0.6-0.4-0.8-1.1-0.7
					c0,0,0,0,0,0c-0.7,0.2-1,0.5-1,1.1c0.2,3.2,0.3,4.8,0.5,8.1c0,0.6,0.4,0.8,1.1,0.7c0.7-0.1,1-0.5,1-1.1
					C313.5,271.1,313.4,269.5,313.2,266.2z"/>
				<path id="XMLID_78_" class="st0" d="M317.5,262.6c1.4-0.3,2.1-0.5,3.5-0.8c2.1-0.5,3.3,0.2,3.4,2.1c0,0.8,0.1,1.2,0.1,2
					c0.1,1.2-0.5,2.1-1.8,2.8c1.2,2.3,1.8,3.4,3,5.7c-1.1,0.2-1.6,0.3-2.6,0.5c-1-2.2-1.5-3.3-2.5-5.5c-0.1,0-0.2,0.1-0.3,0.1
					c0.1,2.3,0.2,3.5,0.3,5.9c-1,0.2-1.4,0.3-2.4,0.5C318,270.6,317.8,268,317.5,262.6z M320,264c0.1,1.5,0.1,2.3,0.2,3.8
					c0.2,0,0.3-0.1,0.6-0.1c0.3-0.1,0.6-0.1,0.7-0.2c0.4-0.2,0.6-0.6,0.6-1c0-0.8-0.1-1.2-0.1-2c0-0.6-0.4-0.8-1.1-0.7
					C320.5,263.9,320.4,263.9,320,264z"/>
				<path id="XMLID_75_" class="st0" d="M330.7,259.6c1.4-0.3,2.1-0.5,3.5-0.8c2.1-0.5,3.3,0.3,3.4,2.2c0,0.8,0.1,1.3,0.1,2.1
					c0.1,1.4-0.7,2.5-2.2,3.3c-0.4,0.2-0.9,0.3-1.6,0.5c-0.2,0-0.2,0-0.4,0.1c0.1,2.4,0.2,3.6,0.3,5.9c-1,0.2-1.4,0.3-2.4,0.5
					C331.2,267.9,331,265.1,330.7,259.6z M333.2,261c0.1,1.6,0.1,2.4,0.2,4c0.2,0,0.3-0.1,0.6-0.1c0.3-0.1,0.6-0.1,0.7-0.2
					c0.4-0.2,0.6-0.6,0.6-1c0-0.8-0.1-1.2-0.1-2.1c0-0.6-0.4-0.9-1.1-0.7C333.8,260.9,333.6,261,333.2,261z"/>
				<path id="XMLID_72_" class="st0" d="M345.7,265.5c0.4,1.9,0.6,2.9,1,4.9c-1,0.2-1.5,0.3-2.4,0.5c-0.2-1.2-0.4-1.7-0.6-2.9
					c-1,0.2-1.5,0.3-2.5,0.5c-0.1,1.2-0.2,1.8-0.3,3.1c-1,0.2-1.4,0.3-2.4,0.5c0.2-2,0.3-3,0.6-5.1c0.5-3.8,0.8-5.6,1.3-9.4
					c1.3-0.3,2-0.4,3.3-0.7C344.4,260.2,344.8,262,345.7,265.5z M343.2,266c-0.5-2.3-0.7-3.4-1.2-5.7c-0.3,2.4-0.4,3.6-0.7,6
					C342.1,266.2,342.5,266.2,343.2,266z"/>
				<path id="XMLID_70_" class="st0" d="M347.5,258.7c-0.1-2,1-3.2,3.4-3.7c2.3-0.5,3.5,0.2,3.6,2.3c0,0.8,0,1.2,0.1,1.9
					c-1,0.2-1.5,0.3-2.4,0.5c0-0.8,0-1.2-0.1-1.9c0-0.6-0.4-0.9-1.1-0.7c0,0,0,0,0,0c-0.7,0.2-1,0.5-1,1.2c0,0.5,0,0.8,0.1,1.3
					c0,0.6,0.8,1.3,2.4,1.9c1.5,0.6,2.3,1.6,2.4,2.9c0,0.7,0,1.1,0.1,1.8c0.1,2-1,3.3-3.3,3.7c-2.3,0.4-3.5-0.3-3.6-2.3
					c0-0.8,0-1.1-0.1-1.9c1-0.2,1.4-0.3,2.4-0.5c0,0.8,0,1.2,0.1,1.9c0,0.6,0.4,0.9,1.1,0.8c0.7-0.1,1-0.5,1-1.2c0-0.7,0-1-0.1-1.6
					c0-0.7-0.8-1.4-2.4-2c-1.5-0.6-2.3-1.6-2.4-2.9C347.5,259.5,347.5,259.2,347.5,258.7z"/>
				<path id="XMLID_67_" class="st0" d="M363.4,262c0.4,2,0.6,3,0.9,5.1c-1,0.2-1.5,0.3-2.4,0.5c-0.2-1.2-0.3-1.8-0.6-3
					c-1,0.2-1.5,0.3-2.5,0.5c-0.1,1.3-0.2,1.9-0.4,3.2c-1,0.2-1.5,0.3-2.4,0.5c0.2-2.1,0.4-3.2,0.6-5.3c0.5-3.9,0.8-5.8,1.4-9.7
					c1.3-0.3,2-0.4,3.3-0.7C362.2,256.5,362.6,258.3,363.4,262z M361,262.4c-0.5-2.4-0.7-3.5-1.1-5.9c-0.3,2.5-0.4,3.7-0.7,6.2
					C359.9,262.7,360.3,262.6,361,262.4z"/>
				<path id="XMLID_65_" class="st0" d="M364.9,263.2c1-0.2,1.4-0.3,2.4-0.5c0,0.3,0,0.5,0,0.9c0,0.7,0.4,0.9,1.1,0.8
					c0.7-0.1,1-0.5,1-1.2c-0.1-4.8-0.2-7.2-0.3-11.9c1-0.2,1.5-0.3,2.4-0.5c0.1,4.8,0.2,7.2,0.3,12c0.1,2.1-1.1,3.3-3.4,3.8
					c-2.3,0.4-3.5-0.4-3.6-2.5C364.9,263.7,364.9,263.5,364.9,263.2z"/>
				<path id="XMLID_63_" class="st0" d="M373.7,250.3c2.5-0.5,3.8-0.8,6.3-1.3c0,0.9,0,1.3,0,2.2c-1.6,0.3-2.3,0.5-3.9,0.8
					c0,1.7,0.1,2.6,0.1,4.3c1.3-0.3,2-0.4,3.3-0.7c0,0.9,0,1.3,0,2.2c-1.3,0.3-2,0.4-3.3,0.6c0,1.7,0.1,2.6,0.1,4.3
					c1.5-0.3,2.3-0.4,3.9-0.7c0,0.9,0,1.3,0,2.2c-2.5,0.5-3.8,0.7-6.3,1.1C374,259.2,373.9,256.2,373.7,250.3z"/>
				<path id="XMLID_60_" class="st0" d="M381.9,248.6c1.4-0.3,2.1-0.4,3.5-0.7c2.2-0.4,3.3,0.4,3.3,2.6c0,0.9,0,1.4,0,2.3
					c0,1.4-0.6,2.4-1.9,3c1.1,2.6,1.7,4,2.9,6.7c-1.1,0.2-1.6,0.3-2.7,0.5c-0.9-2.5-1.4-3.8-2.3-6.3c-0.1,0-0.2,0.1-0.3,0.1
					c0.1,2.7,0.1,4,0.1,6.7c-1,0.2-1.5,0.3-2.4,0.4C382.1,257.7,382,254.6,381.9,248.6z M384.3,250.2c0,1.7,0.1,2.6,0.1,4.4
					c0.2,0,0.3-0.1,0.6-0.1c0.3-0.1,0.6-0.1,0.7-0.2c0.4-0.2,0.7-0.6,0.6-1.1c0-0.9,0-1.4,0-2.3c0-0.7-0.4-1-1.1-0.8
					C384.9,250.1,384.7,250.2,384.3,250.2z"/>
				<path id="XMLID_57_" class="st0" d="M397.9,258c0,2.2-1.1,3.5-3.4,3.9c-2.3,0.4-3.5-0.5-3.5-2.6c-0.1-3.8-0.1-5.7-0.2-9.4
					c0-2.2,1.1-3.5,3.4-3.9c2.3-0.5,3.5,0.4,3.6,2.6C397.8,252.2,397.8,254.1,397.9,258z M395.3,248.9c0-0.7-0.4-1-1.1-0.8
					c0,0,0,0,0,0c-0.7,0.1-1.1,0.6-1,1.3c0.1,3.8,0.1,5.7,0.1,9.5c0,0.7,0.4,1,1.1,0.9c0.7-0.1,1.1-0.5,1-1.2
					C395.4,254.6,395.3,252.7,395.3,248.9z"/>
				<path id="XMLID_54_" class="st0" d="M411.1,255.7c0,2-2.3,3.3-2.6,3.8c-0.1,0.1,0.9,0.4,2.7,0.1c0,0.8,0,1.2,0,1.9
					c-1.4,0.2-2.4,0.3-3,0.1c-0.7-0.2-0.9-1.7-1.1-1.8c-0.4-0.3-3-0.7-3-2.8c0-3.9-0.1-5.8-0.1-9.7c0-2.2,1.1-3.5,3.5-4
					c2.3-0.5,3.5,0.4,3.5,2.7C411.1,249.8,411.1,251.8,411.1,255.7z M408.6,246.3c0-0.7-0.4-1-1.1-0.9c0,0,0,0,0,0
					c-0.7,0.1-1.1,0.6-1,1.3c0,3.9,0,5.8,0.1,9.7c0,0.7,0.4,1,1.1,0.9c0.7-0.1,1.1-0.5,1.1-1.3C408.6,252.2,408.6,250.2,408.6,246.3
					z"/>
				<path id="XMLID_52_" class="st0" d="M420.1,254.2c0,2.3-1.2,3.6-3.5,4c-2.3,0.4-3.5-0.6-3.5-2.8c0-5.2,0-7.8-0.1-12.9
					c1-0.2,1.5-0.3,2.4-0.5c0,5.2,0,7.8,0,13c0,0.7,0.4,1,1.1,0.9c0.7-0.1,1.1-0.5,1.1-1.3c0-5.2,0-7.8,0-13c1-0.2,1.5-0.3,2.5-0.5
					C420.1,246.3,420.1,248.9,420.1,254.2z"/>
				<path id="XMLID_50_" class="st0" d="M422.2,240.7c2.5-0.5,3.8-0.7,6.4-1.2c0,0.9,0,1.4,0,2.3c-1.6,0.3-2.3,0.4-3.9,0.7
					c0,1.9,0,2.8,0,4.7c1.3-0.2,2-0.3,3.4-0.6c0,0.9,0,1.4,0,2.3c-1.3,0.2-2,0.3-3.4,0.6c0,1.9,0,2.8,0,4.7c1.6-0.3,2.3-0.4,3.9-0.6
					c0,0.9,0,1.4,0,2.3c-2.5,0.4-3.8,0.6-6.3,1C422.2,250.4,422.2,247.2,422.2,240.7z"/>
				<path id="XMLID_48_" class="st0" d="M434.8,238.4c2.6-0.5,3.8-0.7,6.4-1.1c0,1,0,1.4,0,2.4c-1.6,0.3-2.4,0.4-3.9,0.7
					c0,1.9,0,2.9,0,4.8c1.3-0.2,2-0.3,3.4-0.6c0,1,0,1.4,0,2.4c-1.3,0.2-2,0.3-3.4,0.5c0,1.9,0,2.9,0,4.8c1.6-0.2,2.3-0.4,3.9-0.6
					c0,1,0,1.4,0,2.4c-2.5,0.4-3.8,0.6-6.3,0.9C434.8,248.4,434.8,245,434.8,238.4z"/>
				<path id="XMLID_46_" class="st0" d="M443,236.9c1-0.2,1.5-0.3,2.5-0.4c0.9,3.8,1.3,5.7,2.2,9.5c0.1-3.9,0.1-5.9,0.1-9.9
					c0.9-0.2,1.4-0.2,2.3-0.4c-0.1,6.8-0.1,10.2-0.2,17.1c-1,0.1-1.5,0.2-2.4,0.4c-0.8-3.7-1.3-5.5-2.1-9.2c0,3.8-0.1,5.7-0.1,9.5
					c-0.9,0.1-1.4,0.2-2.3,0.3C442.9,247.1,443,243.7,443,236.9z"/>
				<path id="XMLID_44_" class="st0" d="M457.2,251.8c-1.3,0.2-2,0.3-3.4,0.5c-0.6-4.3-0.9-6.5-1.6-10.8c-0.3-2.4-0.4-3.6-0.7-5.9
					c1-0.2,1.5-0.3,2.5-0.4c0.6,5.2,0.9,7.8,1.5,13c0.8-5.4,1.2-8.1,2-13.6c1-0.2,1.5-0.2,2.5-0.4c-0.4,2.5-0.6,3.8-0.9,6.3
					C458.4,244.9,458,247.2,457.2,251.8z"/>
				<path id="XMLID_42_" class="st0" d="M461.6,233.8c2.6-0.4,3.8-0.6,6.4-1c0,1,0,1.5-0.1,2.5c-1.6,0.2-2.4,0.4-3.9,0.6
					c0,2-0.1,3-0.1,5c1.4-0.2,2-0.3,3.4-0.5c0,1,0,1.5-0.1,2.5c-1.4,0.2-2,0.3-3.4,0.5c0,2-0.1,3-0.1,5c1.6-0.2,2.3-0.3,3.9-0.5
					c0,1,0,1.5-0.1,2.5c-2.5,0.3-3.8,0.5-6.4,0.8C461.4,244.3,461.4,240.8,461.6,233.8z"/>
				<path id="XMLID_40_" class="st0" d="M469.8,232.5c1-0.2,1.5-0.2,2.5-0.4c0.8,4,1.3,5.9,2.1,9.9c0.1-4.1,0.2-6.2,0.3-10.3
					c0.9-0.1,1.4-0.2,2.3-0.4c-0.2,7.1-0.3,10.7-0.5,17.8c-1,0.1-1.5,0.2-2.5,0.3c-0.8-3.9-1.2-5.8-2-9.6c-0.1,4-0.1,6-0.2,9.9
					c-0.9,0.1-1.4,0.2-2.4,0.3C469.6,243.1,469.6,239.6,469.8,232.5z"/>
				<path id="XMLID_38_" class="st0" d="M479.2,231.1c2.6-0.4,3.9-0.6,6.4-0.9c0,1,0,1.5-0.1,2.6c-1.6,0.2-2.4,0.3-4,0.6
					c-0.1,2.1-0.1,3.1-0.2,5.1c1.4-0.2,2-0.3,3.4-0.5c0,1,0,1.5-0.1,2.6c-1.4,0.2-2,0.3-3.4,0.4c-0.1,2.1-0.1,3.1-0.2,5.1
					c1.6-0.2,2.4-0.3,3.9-0.5c0,1,0,1.5-0.1,2.6c-2.6,0.3-3.8,0.5-6.4,0.8C478.9,241.8,479,238.2,479.2,231.1z"/>
				<path id="XMLID_36_" class="st0" d="M487.5,229.9c1-0.1,1.5-0.2,2.5-0.4c0.8,4.1,1.2,6.1,2,10.2c0.1-4.2,0.2-6.3,0.4-10.6
					c0.9-0.1,1.4-0.2,2.3-0.3c-0.3,7.3-0.4,11-0.7,18.3c-1,0.1-1.5,0.2-2.5,0.3c-0.8-4-1.1-6-1.9-9.9c-0.1,4.1-0.2,6.1-0.3,10.2
					c-0.9,0.1-1.4,0.2-2.4,0.3C487.1,240.7,487.3,237.1,487.5,229.9z"/>
				<path id="XMLID_33_" class="st0" d="M503.4,239.6c0.2,2.6,0.3,3.9,0.5,6.5c-1,0.1-1.5,0.2-2.5,0.3c-0.1-1.5-0.2-2.3-0.3-3.9
					c-1,0.1-1.5,0.2-2.5,0.3c-0.3,1.6-0.4,2.4-0.6,4c-1,0.1-1.5,0.2-2.5,0.3c0.4-2.6,0.6-3.9,1-6.6c0.9-4.8,1.3-7.3,2.2-12.1
					c1.4-0.2,2-0.3,3.4-0.5C502.6,232.5,502.9,234.9,503.4,239.6z M500.9,239.9c-0.3-3-0.4-4.5-0.6-7.6c-0.5,3.1-0.7,4.7-1.2,7.8
					C499.7,240,500.1,239.9,500.9,239.9z"/>
				<path id="XMLID_31_" class="st0" d="M510.7,226.7c2.6-0.3,3.9-0.5,6.5-0.8c-0.1,1.1-0.1,1.6-0.1,2.7c-1.6,0.2-2.4,0.3-4,0.5
					c-0.1,2.2-0.1,3.2-0.2,5.4c1.4-0.2,2-0.2,3.4-0.4c-0.1,1.1-0.1,1.6-0.1,2.7c-1.4,0.1-2,0.2-3.4,0.4c-0.1,2.2-0.1,3.2-0.2,5.4
					c1.6-0.2,2.4-0.2,3.9-0.4c-0.1,1.1-0.1,1.6-0.1,2.7c-2.6,0.2-3.8,0.4-6.4,0.6C510.2,238,510.3,234.2,510.7,226.7z"/>
				<path id="XMLID_29_" class="st0" d="M518.1,244.6c0.4-7.6,0.5-11.4,0.9-18.9c1-0.1,1.5-0.2,2.5-0.3c-0.3,6.5-0.5,9.8-0.8,16.3
					c1.6-0.2,2.4-0.2,4-0.4c-0.1,1.1-0.1,1.6-0.1,2.7C521.9,244.3,520.6,244.4,518.1,244.6z"/>
				<path id="XMLID_27_" class="st0" d="M537.6,239.2c-0.2,2.7-1.4,4.2-3.8,4.4c-2.4,0.2-3.5-1.1-3.3-3.8c0.3-4.7,0.4-7.1,0.6-11.8
					c0.1-2.7,1.4-4.2,3.8-4.4c2.4-0.3,3.5,1,3.4,3.7c-0.1,1-0.1,1.6-0.1,2.6c-1,0.1-1.5,0.1-2.5,0.2c0.1-1,0.1-1.6,0.1-2.6
					c0-0.9-0.3-1.3-1-1.2c0,0,0,0,0,0c-0.7,0.1-1.1,0.6-1.2,1.4c-0.3,4.7-0.4,7.1-0.7,11.8c0,0.9,0.3,1.3,1,1.2
					c0.7-0.1,1.1-0.5,1.2-1.4c0.1-1,0.1-1.6,0.1-2.6c1-0.1,1.5-0.1,2.5-0.2C537.7,237.6,537.7,238.2,537.6,239.2z"/>
				<path id="XMLID_24_" class="st0" d="M546.6,238.5c-0.2,2.8-1.4,4.2-3.8,4.4c-2.4,0.2-3.5-1.1-3.3-3.8c0.3-4.8,0.4-7.2,0.7-11.9
					c0.2-2.7,1.4-4.2,3.8-4.5c2.4-0.2,3.5,1,3.4,3.8C547,231.3,546.9,233.7,546.6,238.5z M544.8,226.7c0.1-0.9-0.3-1.3-1-1.2
					c0,0,0,0,0,0c-0.7,0.1-1.1,0.5-1.2,1.4c-0.3,4.8-0.4,7.2-0.7,12c-0.1,0.9,0.3,1.3,1,1.2c0.7-0.1,1.1-0.5,1.2-1.4
					C544.4,233.9,544.5,231.5,544.8,226.7z"/>
				<path id="XMLID_21_" class="st0" d="M549.7,222.4c1.5-0.1,2.2-0.2,3.7-0.3c2.2-0.2,3.3,1.1,3.1,3.9c-0.1,1.2-0.1,1.8-0.2,3
					c-0.1,1.8-0.8,3-2.2,3.6c0.9,3.6,1.3,5.4,2.2,9.1c-1.1,0.1-1.6,0.1-2.7,0.2c-0.7-3.4-1-5.1-1.7-8.6c-0.1,0-0.2,0-0.3,0.1
					c-0.2,3.5-0.3,5.2-0.6,8.7c-1,0.1-1.5,0.1-2.5,0.2C549,234.3,549.2,230.3,549.7,222.4z M552,225c-0.1,2.3-0.2,3.4-0.4,5.7
					c0.2,0,0.3,0,0.6,0c0.4,0,0.6-0.1,0.7-0.1c0.5-0.2,0.7-0.7,0.8-1.3c0.1-1.2,0.1-1.8,0.2-3c0.1-0.9-0.3-1.3-1-1.3
					C552.6,224.9,552.4,225,552,225z"/>
				<path id="XMLID_18_" class="st0" d="M565.1,234c0.1,2.8,0.2,4.3,0.3,7.1c-1,0.1-1.5,0.1-2.5,0.1c-0.1-1.7-0.1-2.5-0.2-4.2
					c-1,0.1-1.5,0.1-2.6,0.2c-0.3,1.7-0.5,2.6-0.8,4.3c-1,0.1-1.5,0.1-2.5,0.2c0.5-2.8,0.8-4.3,1.3-7.1c1.1-5.2,1.6-7.8,2.6-13.1
					c1.4-0.1,2.1-0.2,3.5-0.3C564.6,226.3,564.8,228.8,565.1,234z M562.6,234.2c-0.2-3.3-0.2-5-0.4-8.3c-0.6,3.4-0.9,5.1-1.5,8.4
					C561.4,234.2,561.8,234.2,562.6,234.2z"/>
				<path id="XMLID_16_" class="st0" d="M574,222.1c-1.8,6.4-2.7,9.6-4.6,15.9c1.4-0.1,2.1-0.1,3.5-0.2c-0.1,1.2-0.1,1.7-0.2,2.9
					c-2.5,0.1-3.8,0.2-6.3,0.3c0-0.7,0.1-1.1,0.1-1.8c1.8-6.3,2.7-9.5,4.5-15.8c-1.3,0.1-2,0.1-3.3,0.2c0.1-1.2,0.1-1.7,0.2-2.9
					c2.5-0.2,3.7-0.3,6.2-0.5C574.1,221.1,574.1,221.4,574,222.1z"/>
				<path id="XMLID_10_" class="st0" d="M582.1,236.3c-0.2,2.9-1.5,4.4-3.9,4.5c-2.4,0.1-3.5-1.3-3.3-4.1c0.4-5,0.6-7.5,0.9-12.5
					c0.2-2.9,1.5-4.4,3.9-4.5c2.4-0.2,3.5,1.2,3.3,4.1C582.6,228.8,582.4,231.3,582.1,236.3z M579.7,219.2c-0.6,0-0.8,0.1-1.4,0.1
					c0.6-1.1,0.9-1.6,1.5-2.7c0.8-0.1,1.2-0.1,2-0.1C580.9,217.5,580.5,218.1,579.7,219.2z M580.5,223.9c0.1-0.9-0.3-1.4-1-1.3
					c0,0,0,0,0,0c-0.7,0-1.1,0.5-1.2,1.5c-0.4,5-0.6,7.5-1,12.5c-0.1,0.9,0.3,1.4,1,1.3c0.7,0,1.1-0.5,1.2-1.4
					C579.9,231.4,580.1,228.9,580.5,223.9z"/>
				<path id="XMLID_8_" class="st0" d="M585.6,219.6c1-0.1,1.5-0.1,2.5-0.2c0.6,4.8,0.9,7.1,1.4,11.9c0.4-4.8,0.6-7.2,1-12.1
					c0.9-0.1,1.4-0.1,2.3-0.1c-0.7,8.4-1,12.5-1.7,20.9c-1,0-1.5,0-2.5,0.1c-0.5-4.6-0.8-6.9-1.3-11.6c-0.4,4.7-0.6,7-0.9,11.6
					c-1,0-1.4,0.1-2.4,0.1C584.6,232,584.9,227.9,585.6,219.6z"/>
				<path id="XMLID_5_" class="st0" d="M598,218.9c-0.6,6.1-0.9,9.2-1.5,15.3c-1,0-1.5,0-2.5,0.1c0.4-6.1,0.7-9.2,1.1-15.3
					C596.3,219,596.8,218.9,598,218.9z M593.6,236.5c1.2,0,1.7-0.1,2.9-0.1c-0.1,1.4-0.2,2.1-0.3,3.5c-1.1,0-1.7,0-2.9,0.1
					C593.5,238.6,593.5,237.9,593.6,236.5z"/>
			</g>
		</g>
	</g>
	<g id="XMLID_2_">
		<g id="XMLID_1499_">
			<path id="XMLID_1511_" class="st1" d="M257.1,192c-0.4-0.6-1.5,0.9-3.2,4.8c-1.3,3.1-5.4,9.6-8.6,12.5c-0.1,0.1-0.3,0.2-0.4,0.3
				c2.6-17.2,6.7-27.7,6.9-28.8c1-3.4-0.9-7.5-3.4-11.2c-0.5-0.7-2-3.6-2.4-4.3c-2.5-5.3-7.6-10.5-9.2-11.8
				c-3.6-3-12.7,1.1-21.2,10.6c1.5-2.7,3-5.5,4.6-8.5c15.2-28,32.7-51.1,28.4-58.5c-0.2-0.3-4-7-4.6-8c-0.2-0.3-0.4-0.6-0.6-0.8
				c-6.3-6.3-8.6-7.4-10.9-6.7c-5.7,1.8-12.2,5.4-19.3,16.1c-6.1-6-8.3-7.1-10.6-6.4c-11.2,3.6-25.3,13.8-42.1,72
				c-6.4,22.3-10.9,39.2-13.2,51.3c-0.2,0.5-0.5,1-0.8,1.6c-7.7,15.5-20.2,25.7-26.3,25.6c-0.6,0-1.2-0.1-1.7-0.3
				c-0.3-2.1-0.4-4.5-0.1-7.3c17-14,32.5-36.8,34-45.6c0.2-1.2,0.1-2.3-0.3-3.3c-0.8-2.1-4.4-7.8-5-8.9c-1.8-3.5-6.2-5.7-7.7-6.8
				c-4.1-3-13.9,5.5-22.6,19.1c1.9-7.8,1.3-13.8-1.1-18.1c-0.8-1.4-4.1-8.1-6.5-10.7c-5.1-5.7-14.5-7.4-25.7-5.5
				c-9.9,1.6-19.2,5-26.9,8.7c-8.3,4-14.8,8.3-17.4,11.2c-9.4,8.4-13.5,18.6-13,27.1C27,214.1,36,221.9,37,222.7
				c2.2,2,5.1,3.5,8.5,4.3c0.1,0,0.2,0,0.4,0.1c-2.4,8.6-4.3,16.1-5.4,20.9c-1.9,8.4-1.2,14.5,0.8,18.6c0.9,1.8,4.6,8.4,5.7,9.9
				c1.8,2.5,4.2,4,6.7,4.4c15.5,2.6,39.2-9.9,44.9-28.6c1.7-5.6,1.4-9.7-0.4-12.6c-0.8-1.3-3.7-6.6-4.5-7.9
				c-1.1-1.8-2.7-3.2-4.8-4.2c6.5-4.6,12.3-10.1,17-16.2c-0.6,1.8-1.2,3.6-1.7,5.4c-3.1,10.8-3.3,20.9-0.3,27
				c0.8,1.7,4.8,8.7,6.1,10.4c2.2,2.7,5.3,4.1,9.5,3.4c9.4-1.5,19.9-10.8,27.7-21.9c0.8,1.6,5.2,10.4,8.1,11c3.5,0.7,7.9-1.9,13-8.1
				c2.9-3.5,5.9-8,8.7-12.9c0.8,1.8,5.4,10.7,8.3,11.3c3.5,0.7,7.9-1.9,13-8.1c1.7-2,3.4-4.4,5-6.9c0.2-0.3,3.3,4.8,4.8,6.6
				c2.2,2.4,5.1,3.6,8.7,3c6.2-1,11.1-7.5,14.8-14.6c0.5,1.1,4.1,8,5.4,9.3c0.4,0.4,0.9,0.7,1.5,0.8c3.5,0.7,8.1-2.1,13.4-8
				c3.8-4.2,6.1-8.4,8.1-12.3c1.5-3.1,2-4.9,2-5.7c0-0.6-0.1-0.9-0.2-1.1L257.1,192z M175.2,207.5c-4.6,9.1-10.5,19-13.1,21.4
				c-0.1,0.1-0.2,0.2-0.4,0.3c0.8-4.1,3.4-13.5,6.5-24.2c2.7-4.5,8-13.9,16-28.4c-2.8,10.5-5,19.3-6.4,26.5
				C177.3,203.5,176.4,204.9,175.2,207.5z M234.3,98.7c-0.5,1.3-1,2.6-1.6,4.1c-1.3,3-8.8,18.6-17.1,35.7
				C221.8,120.9,227.6,106.9,234.3,98.7z M202.8,112.5c-1.3,3-8.8,18.6-17.1,35.7c6.2-17.5,12-31.6,18.7-39.8
				C203.9,109.7,203.4,111,202.8,112.5z M236.7,168.7l-5.5,20c-5.2,18.1-9.8,25.3-14.7,26.1c-0.3,0-0.6,0-0.8,0
				c-0.4-4.5,0.1-10.7,2.1-17.9c3.5-13.4,12.8-26.8,19.4-29.8C236.9,167.7,236.8,168.2,236.7,168.7z M201.1,190.8
				c-1.9,6.5-2.5,12.8-2,18.1c-2.9,4.9-5.5,8.8-7.1,10.2c-0.1,0.1-0.2,0.2-0.4,0.3c0.8-4.1,3.4-13.5,6.5-24.2c0.9-1.5,2-3.5,3.5-6
				C201.4,189.8,201.2,190.3,201.1,190.8z M124.9,210c3.6-9.3,8.4-18.9,12.5-24C135,193,130.6,201.9,124.9,210z M46.5,193.7
				c3.5-4.7,7.6-8.6,11.7-12c-2.5,9.5-5.8,21.3-8.9,32.5c-2.6-0.6-4.9-1.9-6.8-3.6C41.5,205.8,42.5,199.9,46.5,193.7z M85.4,168.2
				c6.3-1,11.7-0.5,15.3,2.2c0.7,3.9,0.3,9-1.6,15.5c-1.7,5.7-4.4,11.5-7.9,16.8c-0.5-2.7-2.4-7.4-2.4-7.4
				c-6.8-2.6-12.2,0.1-12.2,0.1c-1,2.1-2,4.1-3.1,5.8c4.2-12.1,7.7-21.1,8.1-22.5c0.2-0.6,0.2-1.1,0.1-1.5c-0.4-1.8-4.1-6.8-3.8-6.9
				C80.6,169.3,83.1,168.6,85.4,168.2z M56.4,259.5c0.9-4.9,2.1-9.9,4.1-16.8c7.9-2,16.7-4.1,21.9-2c-0.1,1.6-0.3,3.5-0.9,5.6
				c-4,14.3-18,21.7-26.4,22.8C55.3,266.2,55.8,262.9,56.4,259.5z"/>
			<path id="XMLID_1503_" class="st1" d="M597,175.4c-2-5.3-6.1-10.9-12.5-16.5c-2.1-1.8-3.9-3.5-5.4-5c3.4-5,5.6-10.1,4-13.8
				c-0.2-0.5-4-7.6-5.4-9.3c-0.9-1.1-2-1.7-3.2-1.8c4.4-5.7,7.4-10.7,8.2-14c0.4-1.6,0.2-3.1-0.4-4.4c-0.9-1.9-4.3-7.6-5-8.8
				c-1.8-3.1-5.3-5.3-6.6-6.4c-6.1-5.3-29.2,17.2-39.5,43.9c-2.3,6.1-3.6,12.1-3.9,17.3c-2.5,3.8-4.7,6.8-6.4,8.2c0,0,0,0,0,0
				c0.4-4,1.7-9.3,4-16.2c4.9-14.4,7.6-25.4,5.3-30.6c-0.7-1.6-4.3-8.3-5.6-9.7c-1.3-1.4-3.3-2-6.3-1.6c-4.3,0.6-8.9,4-13.4,9.4
				c0.4-1.2,1-3.2,2.6-7.6c12.8-5.2,25.2-12.1,35.3-19.5c17.7-12.9,28.4-32.6,23.7-42.9c-0.8-1.7-4.6-8.6-5.9-10.2
				c-2.9-3.6-8.6-5.4-17.7-4.3c-25.5,3.3-42.8,38.2-51.7,65.7c-17,3.6-35.3,3.4-51.7-3.9c-1.2-0.5-3.1,2.2-2.5,5.5
				c0.7,3.6,4.9,10.6,7.3,12.8c1.9,1.8,5.1,3.5,9.9,4.7c0.6,0.1,1.2,0.2,1.8,0.3c-6.9,4.3-14.4,12.7-19.9,24l0-0.2
				c0,0-2.6,5.9-7.4,11c0.4-7.4-0.4-14.4-3.1-18.7c-0.7-1.1-4.1-7.6-5.5-9.3c-1.8-2.2-4.2-3.5-7.5-3.3c-0.2,0-0.4,0-0.6,0
				c-4.9,0.3-11.1,3.8-14.1,11.1c-11,8.1-20.6,20.9-25.1,36.3c-2.8,9.5-2.5,18.3,0.2,24.4c0.9,2.1,5.5,10.2,7,12.1
				c2.6,3,6.1,4.5,10.5,3.8c9.8-1.6,21.4-9.8,29.5-24.9l1.8-3.6c1.4-3.1,2.6-6.3,3.7-9.9c1.3-0.6,2.6-1.4,3.7-2.3
				c-0.1,5.7,0.9,10.8,3,14.5c0.8,1.4,4.7,8.6,6.2,10.4c2.5,3,6,4.5,10.6,3.8c8.3-1.3,16-8,22.5-16.3c0.1-0.1,3.4,5.9,4.4,7.1
				c1.5,1.8,4.1,1.8,8,0.7c0.1,0,0.3-0.8,2.5-9.4c9.3-28.2,20.2-46.3,27.7-52.4c-1.4,4.2-3.4,9.7-5.8,16.6
				c-5.4,16.3-4.5,26.2-1.7,30.2c0.7,1,4.1,7.7,5.4,9c0.5,0.5,1.1,0.8,1.7,1c3.5,0.9,7.9-1.8,13.3-7.7c1.2-1.3,2.4-2.7,3.5-4.3
				c0.1-0.1,3.6,6.6,5.4,8.3c1.9,1.8,4.5,2.6,7.8,2.2c7.4-1,14.3-5.2,20.5-10.8l0.1,0c0,0,5.4-4.6,10.5-10.5c1,1.4,2.1,2.8,3.5,4.2
				c4.5,4.5,8.2,8.5,10.8,12c2.2,7.4-4.4,11.5-24,13c-39.4,3.1-257.9,24-459.4,91.7c0,0-15.4,13.6-5.9,32.5c0,0,2.9,4.6,4.6,8
				c0,0,13.2-21.8,214.6-69.1c105.2-24.7,217.7-39.6,267.2-44.9C603.2,205.1,608.4,190.8,597,175.4z M568.7,149
				c-2.7,3.5-6.5,7.4-11.6,11.7c-4.7,3.3-8.9,5.1-11.7,4.8c-0.3,0-0.6-0.1-0.9-0.2c-0.2-2.2-0.1-4.9,0.5-7.8
				c7.7-5.3,15.2-12.1,21.5-18.9C566.1,141.6,566.7,145.2,568.7,149z M554,132.7c4-7.9,8.7-15.6,12.8-20.3
				C563.9,118.5,559.4,125.9,554,132.7z M446.6,178.9c-1-5.2-0.7-12.3,1.5-20.2c3.4-13.2,11.5-25.4,18.1-29.4
				c-0.9,2.4-2.2,4.7-3.8,6.1c0,0,2.1,4,4.6,8c0,0,5.3,1.8,10.2-2.3c0,0,3.2-8.2,0.4-14.3c-0.2-0.4-5-9.3-4.8-9.3
				c4.2-0.3,8.5-1,12.8-2c-5,16.1-7.6,23.5-12,39.6c-0.3,1.1-0.6,2.1-0.8,3.1c-6.8,11.3-16.4,21.7-23.1,21.6
				C448.5,179.8,447.5,179.4,446.6,178.9z M534.3,78.2c-5.5,4.2-12.3,8.3-19.9,11.7c9.1-24.2,18.7-44.6,29.5-46
				c3.5-0.5,6.4,0.1,8.5,1.5C553.6,54.4,547.8,68,534.3,78.2z M389.5,173.7c1.7-6.3,4.3-12.8,6.6-17.2c0.7-1.2,1.7-2.9,2.8-4.6
				c0.9,1.8,2,3.5,3.3,5c1.2,3.7,3.3,7,6,9.4c-0.6,1.8-1.2,3.5-1.8,5.2L405,175c-4.7,11.1-11,20-16.6,20.9c-0.3,0.1-0.6,0-0.9,0
				C386.7,190.1,387.2,182,389.5,173.7z M406,142.8c0.8-5.6,4.4-9.1,7.4-9.5c0.4,6.6-1,16-2.9,24.3c-1.2-0.6-2.2-1.4-3.2-2.4
				C405.9,150.9,405.5,146.1,406,142.8z"/>
			<path id="XMLID_1502_" class="st1" d="M310.2,213c1,1.1,3.1,0.8,6.6-0.4c0,0-0.5-1.5,4.2-20.7c5.8-23.5,10.7-40.5,14.8-53
				c3.6,24.1,7.8,50.5,9.1,56.9c0.1,0.6,0.3,1.1,0.5,1.6c0.7,1.3,4.7,8.4,5.3,9c3,2.9,9.9-0.7,9.9-0.7
				C381.4,115.7,426,77.4,426,77.4c-1.1-1.6-4.6-8-4.6-8c-9.1-2.6-25.1,1.7-28.3,4.6c-3.1,2.9-13.5,21.6-25.4,52.2
				c-6.4,16.5-10.5,32.6-12.7,42.7c-2.5-20.2-3.9-39.6-4.5-62.8c0-0.6-0.2-1.2-0.5-1.6c-0.4-0.6-4.3-7.7-4.7-8.2
				c-0.4-0.5-0.9-0.8-1.5-1c-3.8-1.7-12.6-1.6-12.6-1.2c-3,14.2-7.6,32.7-21.9,88.2c-3.6,13.9-5.5,20.4-3.9,22.6
				C306.2,205.8,309.2,211.9,310.2,213z"/>
			<path id="XMLID_1500_" class="st1" d="M314.8,168.6c-0.2-0.3-3.4-4-3.6-4.4c-0.2-0.3-0.9,0.1-2.2,1.4c-2.3,2.4-4.5,4.4-6.7,6.1
				c0.2-0.5,0.3-1,0.3-1.5c-0.1-0.8-0.4-1.6-0.9-2.3c-0.2-0.2-3.1-3.7-3.6-4.4c-0.2-0.2-0.4-0.5-0.6-0.7c-0.4-0.4-0.9-0.8-1.4-1.1
				c-0.8-0.5-1.7-0.8-2.6-1.1c-0.9-0.2-1.7-0.3-2.4-0.2c-0.8,0.1-1.8,0.6-2.8,1.3c-1.1,0.7-2.1,1.7-3.1,2.8c-1,1.1-1.8,2.4-2.5,3.7
				c-0.1,0.3-0.2,0.5-0.3,0.8c0,0,0,0,0,0c-0.6,0.8-1.5,1.8-2.9,2.9c-1,0.8-2,1.6-3,2.4c4.6-7,8.6-13,11.9-17.9
				c4.2-6.3,7.5-11.4,9.9-15.3c2.4-3.9,4-6.9,4.8-8.9c0.8-2,1-3.6,0.7-4.7c-0.1-0.2-0.2-0.4-0.4-0.6c-0.2-0.4-4-4.9-4.6-5.6
				c-0.1-0.1-0.3-0.3-0.4-0.4c-0.6-0.5-1.3-1-2.1-1.4c-1-0.5-2.2-0.9-3.6-1c-1.3-0.2-2.7,0-4.2,0.4c-1.7,0.7-3.7,2.7-5.9,6.1
				c-2.2,3.4-4.4,7.5-6.6,12.3c-2.2,4.8-4.2,9.8-6.2,15.1s-3.5,10.1-4.7,14.4c-1.1-0.4-2.2-0.7-3.5-0.6c-1.3,0-2.4,0.2-3.3,0.5
				c-0.8,0.3-1.8,1-3.1,2.3c-1.3,1.2-2.5,2.7-3.7,4.4c-1.1,1.7-2.1,3.4-2.7,5.2c-0.7,1.8-0.7,3.3-0.2,4.6c0.3,0.8,0.7,1.5,1.2,2.1
				c0.2,0.2,3.2,4,3.8,4.6c0.2,0.2,0.3,0.3,0.5,0.5c0.9,0.7,1.8,1.3,2.9,1.7c1,0.4,2,0.6,3.1,0.6c1,0,2-0.1,2.8-0.4
				c0.6-0.3,1.5-1,2.7-2.3c1.1-1.3,2.3-2.8,3.4-4.5c1,1.3,2.1,2.4,3.3,3.3c1.2,0.9,2.4,1.1,3.7,0.7c0.9-0.4,2.3-1.6,4.2-3.8
				c1.4-1.6,3.2-3.9,5.3-6.8c0.1,0.1,0.3,0.2,0.4,0.3c0.3,0.8,0.8,1.5,1.4,2.3c1.2,1.4,2.7,2.6,4.3,3.6c1.6,1,3.3,1.6,5,2
				c1.7,0.4,3,0.4,3.9,0.1c1.4-0.4,2.8-1.3,4.3-2.6c1.5-1.3,2.9-2.8,4.1-4.3c1.3-1.6,2.4-3.2,3.4-4.9c1-1.7,1.7-3.2,2.2-4.4
				C314.9,169.7,315,169,314.8,168.6z"/>
		</g>
		<g id="XMLID_13_">
			<g id="XMLID_667_">
				<path id="XMLID_1496_" class="st0" d="M114,226.2c-0.8,9.7,1.8,15.7,6.4,15.6c6.1,0.1,18.5-10.1,26.3-25.6
					c2.4-5,3.3-5.5,3.4-3.2c0,0.8-0.3,2.7-2,5.7c-7.9,14.6-21.4,28.9-33.3,30.8c-12.8,2.1-16-14.4-10.7-32.7
					c7.9-27.5,29-51.9,35.5-47.1c2.1,1.5,9.4,5,8.4,11C146.5,189.4,131,212.2,114,226.2z M114.4,222.5c16.9-15.8,28.8-46.6,24.1-48
					c-6-1.8-18.2,24.4-22.5,40.4C115.3,217.6,114.8,220,114.4,222.5z"/>
				<path id="XMLID_1493_" class="st0" d="M257.3,193.1c0,0.8-0.4,2.6-2,5.7c-2,4-4.3,8.1-8.1,12.3c-5.3,5.9-9.9,8.7-13.4,8
					c-4.9-1-3.9-13-0.9-24.7c0.1-0.7,0-0.5-0.1,0c-3,9.5-10.1,27.4-20.7,29.2c-11.6,1.9-16.3-14.4-11-32.7
					c8-27.5,29.8-42.4,35.8-37.4c2.4,2,12.5,12.4,10.4,19.3c-0.3,1.1-4.5,12-7.1,29.8c-1.4,9.8,0.8,10.6,5.1,6.6
					c3.2-2.9,7.3-9.4,8.6-12.5C256.2,191.6,257.2,190.7,257.3,193.1z M235.9,158.6c-6.1-1.8-18.6,14.3-22.8,30.3
					c-4.4,16-1.9,26.8,3.3,25.9c4.9-0.8,9.5-8,14.7-26.1l5.5-20C238.3,162.8,237.4,159,235.9,158.6z"/>
				<path id="XMLID_1491_" class="st0" d="M356.2,197.6c0,0-9.8,5.1-11.2-1.9c-1.5-7.7-7.5-45-11.3-71.9
					c-4.6,12.9-10.2,31.8-17.2,60c-4.7,19.2-4.2,20.7-4.2,20.7c-10,3.2-8.7-0.2-2.9-22.5c14.3-55.5,18.9-73.9,21.9-88.2
					c0-0.4,8.8-0.5,12.6,1.2c1.3,0.4,2.1,1.4,2.1,2.8c0.7,30.1,2.9,53.9,7,81.1c0,0,4.3-26,14.8-53c11.9-30.7,22.3-49.4,25.4-52.2
					c3.1-2.9,19.1-7.2,28.3-4.6C421.5,69.4,376.9,107.7,356.2,197.6z"/>
				<path id="XMLID_1091_" class="st0" d="M472.6,133.2c-4.9,4.1-10.2,2.3-10.2,2.3c4.4-4.1,6.9-14.8,4.1-15.4
					c-6.5-1.5-18.6,13.8-22.9,30.6c-4.5,16.3-1.4,29,6.1,29.1c7.9,0.2,20.1-14.6,26.6-28c2.5-5,3-5.6,3.2-3.3c0,0.8-0.2,2.7-1.7,5.6
					c-7.3,14.7-19.6,31.5-33.3,33.7c-14.3,2.3-18.3-17-13-35.3c8-27.5,29.2-43.7,38-37.9C477.6,120.1,472.6,133.2,472.6,133.2z"/>
				<path id="XMLID_1088_" class="st0" d="M488.6,105.6c-13.8,4-27.5,5.5-39,2.8c-17.9-4.2-12.4-16-10.1-15
					c16.4,7.3,34.7,7.5,51.7,3.9c8.9-27.5,26.2-62.4,51.7-65.7c32.6-4.2,21.7,30.1-4.6,49.3c-10.1,7.4-22.5,14.4-35.3,19.5
					c-3.6,10.2-2.4,7.5-3.9,11.4c-4.2,11.7-7.9,22.9-10.7,32c8.9-19.8,20.2-36,30-37.2c11.7-1.5,9.4,12.4,2,33.9
					c-7.2,21-3.9,28,0.6,24.2c3.3-2.9,9.1-12,13.8-20.9c2.7-4.9,3.5-5.4,3.5-3.1c0,0.8-0.4,2.7-2.2,5.6c-4.3,7.5-8.9,15-13.7,20.1
					c-5.3,5.9-9.8,8.6-13.3,7.7c-4.5-1.1-7.6-11.5-0.9-32.1c6.5-19.3,10.7-27.6,5.6-26.9c-7.1,0.9-20.8,20.3-32.2,54.7
					c-2.2,8.6-2.3,9.4-2.5,9.4c-10.1,3-12-2.2-5.8-24.3C478.8,136.1,481.5,129.2,488.6,105.6z M505.6,93.4
					c11.2-3.9,21.2-9.4,28.7-15.1c23.1-17.6,23.9-44.8,5.1-42.4C526.8,37.5,516,64.4,505.6,93.4z"/>
				<path id="XMLID_669_" class="st0" d="M540.4,149.5c-1.7,9.6,0.4,15.8,5.1,16.1c6,0.6,19.4-8.4,28.4-23.2
					c2.9-4.7,4.7-4.9,3.6-2.9c-1.5,2.8-2.9,5.4-5.5,8.8c-8.7,11.6-20.1,22.7-32.9,24.4c-12.8,1.8-14.7-15.8-7.9-33.5
					c10.2-26.7,33.4-49.1,39.5-43.9c1.9,1.7,8.9,5.8,7.5,11.6C576,115.6,558.5,137,540.4,149.5z M541.1,145.8
					c18.2-14.3,32.7-43.9,28.2-45.8c-5.8-2.3-20.3,22.8-25.9,38.3C542.4,141,541.7,143.4,541.1,145.8z"/>
				<path id="XMLID_1478_" class="st0" d="M83.6,154.4c-9.9,1.6-19.2,5-26.9,8.7c-8.3,4-14.8,8.3-17.4,11.2
					C20.8,191,22.5,214.6,40.9,219c2.4,0.6,4.6,0.9,6.9,1c-3.2,11.6-6,22-7.4,28c-3.7,16.1,2.3,23.9,8.6,24.9
					c15.5,2.6,39.2-9.9,44.9-28.6c4.8-15.8-6.5-19.5-20.2-18.4c17.5-8.7,32.5-24.4,37.8-42C119,159.3,104.3,151,83.6,154.4z
					 M42,185.7c5.8-7.7,12.8-13.6,19.8-17.7c-2.2,9.4-7.5,28.5-12.4,46.2C39.2,211.7,32.8,199.8,42,185.7z M81.5,246.3
					c-4.2,14.8-19,22.3-27.3,22.9c-5.1,0.6-4-8.1-2.4-17.7c0.9-4.9,2.1-9.9,4.1-16.8C69.8,231,86.7,227.5,81.5,246.3z M99.1,185.9
					C93.5,205,75.9,224.3,59,228.4c-0.5,0.1-0.9,0.3-1.3,0.4c0.9-3.2,2-6.7,3.2-10.6c17.4-5.8,27.8-22.8,27.8-22.8
					c-6.8-2.6-12.2,0.1-12.2,0.1c-3.8,8.4-8.7,13.7-13.8,16.5c0,0,0-0.1,0-0.1c6.3-20.6,13.5-39,14.2-41.2c1.4-4.3-6.6-5.1-11.5-5
					c5.6-3,10.8-4.8,15.2-5.5C95.5,157.8,105.3,163.8,99.1,185.9z"/>
				<path id="XMLID_1477_" class="st0" d="M202.7,91.3c-11.2,3.6-25.3,13.8-42.1,72c-14.6,50.6-19.2,73.5-10.1,75.4
					c3.5,0.7,7.9-1.9,13-8.1c4.4-5.3,8.8-12.8,13-20.6c1.6-3,2-4.9,2-5.6c-0.1-2.5-0.9-1.9-3.4,3c-4.6,9.1-10.5,19-13.1,21.4
					c-4.3,4.1-6.5,3.2-5.1-6.6c1.3-9,20.2-70.6,20.2-70.6c8.4-24.8,15.8-44.6,24.9-53.7c2.9-2.9,8-2.6,0.8,14.5
					c-3,7-41.2,84.8-41.2,84.8l0.1,2.9c0,0,8.3-13.8,24.2-43s34.2-53,27.8-59.3C207.4,91.7,205.1,90.5,202.7,91.3z"/>
				<path id="XMLID_1476_" class="st0" d="M232.7,81.6c-11.2,3.6-25.3,13.8-42.1,72c-14.6,50.6-19.2,73.5-10.1,75.4
					c3.5,0.7,7.9-1.9,13-8.1c4.4-5.3,8.8-12.8,13-20.6c1.6-3,2-4.9,2-5.6c-0.1-2.5-0.9-1.9-3.4,3c-4.6,9.1-10.5,19-13.1,21.4
					c-4.3,4.1-6.5,3.2-5.1-6.6c1.3-9,20.2-70.6,20.2-70.6c8.4-24.8,15.8-44.6,24.9-53.7c2.9-2.9,8-2.6,0.8,14.5
					c-3,7-41.2,84.8-41.2,84.8l0.1,2.9c0,0,8.3-13.8,24.2-43s34.2-53,27.8-59.3C237.3,82,235,80.8,232.7,81.6z"/>
				<path id="XMLID_1472_" class="st0" d="M422.2,156.7c3.9-16.6,2.9-37.2-9.6-36.4c-0.2,0-0.4,0-0.6,0c-4.9,0.3-11.1,3.8-14.1,11.1
					c-11,8.1-20.6,20.9-25.1,36.3c-5.3,18.3,0.7,34.2,13.1,32.2c9.8-1.6,21.4-9.8,29.5-24.9l1.8-3.6c1.4-3.1,2.6-6.3,3.7-9.9
					c9.2-4.2,14.5-16.1,14.5-16.1l0.7-4.8C436.1,140.5,431.1,151.9,422.2,156.7z M401.4,134.8c1-6.4,5.5-10.2,8.7-9.4
					c0.1,0.1,0.3,0.1,0.4,0.2c0,0,0.1,0,0.1,0.1c4.6,3.3,2.8,19-0.2,32C403.1,153.9,400.4,141.6,401.4,134.8z M406.3,171.6L405,175
					c-4.7,11.1-11,20-16.6,20.9c-5.9,1-7.8-14.2-3.4-30.2c1.7-6.3,4.3-12.8,6.6-17.2c1.1-2.1,3.4-5.5,4.7-7.6c0,0.3,0,0.6,0,0.9
					c0.3,8.9,5.5,17.6,13.2,20.2c-0.1,0.3-0.2,0.6-0.2,0.9C408.4,165.9,407.4,168.8,406.3,171.6z"/>
			</g>
			<path id="XMLID_666_" class="st0" d="M559.8,162c0,0,25.5-21.9,18-31.2c-6-7.4-20,8.9-4,24.9c20.5,20.6,24.4,30.5-8.6,33
				c-39.4,3.1-257.9,24-459.4,91.7c0,0-15.4,13.6-5.9,32.5c0,0,13.2-21.8,214.6-69.1c105.2-24.7,217.7-39.6,267.2-44.9
				c20.2-2.2,23.9-21.8,3-40c-16.5-14.4-15.4-20.5-12.4-25.2c3.1-4.9,8.4,8.2-16.7,28.4L559.8,162z"/>
			<g id="XMLID_14_">
				<path id="XMLID_345_" class="st0" d="M258.3,166.8c0.9-0.3,2.1-0.5,3.3-0.5c1.3,0,2.4,0.2,3.5,0.6c1.2-4.3,2.8-9.2,4.7-14.4
					c1.9-5.3,4-10.3,6.2-15.1c2.2-4.8,4.4-8.9,6.6-12.3c2.2-3.4,4.2-5.5,5.9-6.1c1.5-0.5,2.9-0.6,4.2-0.4c1.3,0.2,2.5,0.5,3.6,1
					c1,0.5,1.9,1.1,2.5,1.8c0.6,0.7,1.1,1.3,1.3,1.8c0.3,1.1,0.1,2.6-0.7,4.7c-0.8,2-2.4,5-4.8,8.9c-2.4,3.9-5.7,9-9.9,15.3
					c-4.2,6.3-9.5,14.2-15.9,23.9c-0.4,1.4-0.4,2.2,0.1,2.5c0.3,0.3,1,0.2,2.2-0.5c1.2-0.7,2.5-1.5,4-2.7c1.5-1.1,2.9-2.3,4.3-3.4
					c1.4-1.2,2.4-2.2,2.9-2.9c0.6-0.8,1.1-1.2,1.5-1.3c0.4-0.1,0.6,0.1,0.8,0.4c0.2,0.3,0.2,0.8,0,1.4c-0.1,0.6-0.4,1.2-0.9,1.8
					c-3.2,4.5-5.7,7.8-7.6,10c-1.8,2.1-3.2,3.4-4.2,3.8c-1.2,0.4-2.5,0.2-3.7-0.7c-1.2-0.9-2.3-2-3.3-3.3c-1.1,1.7-2.2,3.2-3.4,4.5
					c-1.1,1.3-2,2.1-2.7,2.3c-0.8,0.3-1.7,0.4-2.8,0.4c-1,0-2.1-0.2-3.1-0.6c-1-0.4-2-0.9-2.9-1.7c-0.9-0.7-1.5-1.7-1.9-2.7
					c-0.5-1.3-0.4-2.8,0.2-4.6c0.7-1.8,1.6-3.5,2.7-5.2s2.4-3.1,3.7-4.4C256.5,167.8,257.5,167.1,258.3,166.8z M257.1,184.6
					c0.4,0.3,1.2,0,2.2-1c1.1-1,2.4-3,3.9-5.9c-0.2-1-0.2-2,0-3c0.1-1,0.4-2.3,0.8-3.7c-0.9,0.4-1.8,1.2-2.8,2.6
					c-1,1.4-1.9,2.8-2.6,4.3c-0.8,1.5-1.3,3-1.6,4.3C256.7,183.5,256.7,184.3,257.1,184.6z M294.9,124.4c-0.4-0.2-1,0.3-1.9,1.4
					c-0.9,1.1-1.9,2.6-3.1,4.5c-1.2,1.9-2.5,4.2-3.9,6.8c-1.4,2.6-2.9,5.4-4.3,8.3s-2.9,5.9-4.3,8.9c-1.4,3-2.7,5.9-3.9,8.6
					c1.7-2.6,3.4-5.3,5.2-8.1c1.8-2.8,3.6-5.6,5.3-8.4c1.7-2.8,3.3-5.4,4.8-8c1.5-2.6,2.8-4.9,3.8-6.9c1-2,1.8-3.7,2.2-5
					C295.3,125.4,295.3,124.6,294.9,124.4z"/>
				<path id="XMLID_139_" class="st0" d="M309,165.6c1.3-1.3,2-1.7,2.2-1.4s0.1,1.1-0.4,2.3c-0.5,1.2-1.2,2.7-2.2,4.4
					c-1,1.7-2.1,3.3-3.4,4.9c-1.3,1.6-2.7,3-4.1,4.3c-1.5,1.3-2.9,2.2-4.3,2.6c-0.9,0.3-2.3,0.3-3.9-0.1c-1.7-0.4-3.3-1.1-5-2
					c-1.6-1-3.1-2.2-4.3-3.6s-1.8-3-1.8-4.7c0-1.4,0.4-2.8,1.1-4.1c0.7-1.4,1.5-2.6,2.5-3.7c1-1.1,2-2,3.1-2.8s2-1.2,2.8-1.3
					c0.7-0.1,1.5,0,2.4,0.2c0.9,0.2,1.8,0.6,2.6,1.1c0.8,0.5,1.5,1.1,2,1.8c0.5,0.7,0.8,1.5,0.9,2.3c0,0.8-0.4,1.9-1.2,3.1
					c-0.8,1.2-1.7,2.5-2.7,3.7c-1.2,1.4-2.5,2.9-4.1,4.5c1.7,0.2,4.3-0.8,7.7-2.8C302,172.2,305.4,169.3,309,165.6z M295.4,165.6
					c-0.3-0.2-1,0.1-2,0.8c-1,0.7-1.9,1.6-2.8,2.7s-1.6,2.2-2.2,3.4c-0.5,1.2-0.6,2.1-0.1,2.8c0.4-0.3,1.1-0.9,1.9-1.9
					c0.9-1,1.7-2,2.6-3.2c0.9-1.1,1.6-2.1,2.1-3C295.5,166.3,295.7,165.8,295.4,165.6z"/>
			</g>
		</g>
	</g>
</g>
</svg>
