<?xml version="1.0" encoding="utf-8"?>
<!-- Generator: Adobe Illustrator 18.0.0, SVG Export Plug-In . SVG Version: 6.00 Build 0)  -->
<!DOCTYPE svg PUBLIC "-//W3C//DTD SVG 1.1//EN" "http://www.w3.org/Graphics/SVG/1.1/DTD/svg11.dtd">
<svg version="1.1" id="Layer_1" xmlns="http://www.w3.org/2000/svg" xmlns:xlink="http://www.w3.org/1999/xlink" x="0px" y="0px"
	 viewBox="614.5 -17.2 679.6 1101.5" enable-background="new 614.5 -17.2 679.6 1101.5" xml:space="preserve">
<g>
	<path fill="#FFDD00" d="M617.4,641.9l25.4,65.7l34,85.9l28.5,44.1l33.6,26.7l37.1-5.9l21.5,13.4l8.1,20.4l-3.1,42l2,63.3l13.1,52.1
		l27.9,27.1l256.2-23.9l62.9,7.9l9.3-40.2l14.7-116.6L1176.5,795l-24.6-74.7c0,0-14-56.4-13.9-59.3s12.2-52.9,12.2-52.9l28.3-60.6
		l14-95.3l7.5-42.4l3.9-52.5l-14.8-63.3l-19.9,1.6l-17.9-2.3l23.5-50.8l-2-20.2l5.5-25.8l-9.8,4.6l-7.9-5.3l0.8-5l-3.4-9.7l3.6-1
		l-8-13.1l0.8-3.9l-6.2-7l-8.7-3.1l-11.3-1.9l-2.9-6.8l-0.8-3.9l-3.1-3.9l-3.4-3.2l-9.5,0.8l-6.2-13.5l-12-13.2l-3.5-15.8l-13.9-9.6
		l-9.3-8l-5.6-10l-2.8-6.5l-10.2-4.7l-7.1-14.4l-11.8-6.9l-14.2-8.3l-11-9.3l-2.4-16.3l-16.5-13.6c0,0-20.5-0.5-25.2-1.1L928.7-7
		L909-1.4l-16.5,13.9l-12.6,7.3l-11.5,15.6l-3.1,8.1L855,52.3l-4.5,10.3l-4.6,4l-1.7,10.1l-2.5,9.9l2,4.6l-6.7,7.2l-0.4,5.9
		l-9.3,10.9l3.5,7.2l-1.4,8.6l1.5,10.8l-1.1,4.3l-6.2,0.6l-2.7,7l-5.2,17.7l-11.4,20.9l-0.8,12.5l0,23.5l2.4,9.8l6.9,12.9l-0.3,3.6
		L797,269.2l1.9,9.8l-1.6,9.6c0,0-5.7,16-5.5,21.7l-5.5,22.5l6.3,12.2l-2.9,21.9l9.7,7l8.2,10.6l-18.9,17.3l-49.3,67.8L677,552.5
		l-42,64.2L617.4,641.9z M796.6,355.3l0.3,12l-3-3.6L796.6,355.3z M815.4,180.1l-3.4,25.7l-1.1,7.6l-3.6-10.4l0.2-10.2L815.4,180.1z
		 M814,239.4l-0.6,7l-5-9.8l1.1-10.1L814,239.4z M834.9,130.3l-2.9,7.7l-0.6-3.8l2.2-7.6L834.9,130.3z M693.2,639.5L792,534.5
		l40.8-48.9l17.2-10.1l18.1,52.7l9.7,24.1l9.2,40.4l-2.9,53.5l-4.2,21.3c0,0-23.3,36.7-28.3,49.5l-20.5,44.1l-8.7,23.6
		c0,0,2.3-0.5-10.2,6.2c-12.5,6.7-45.8,18-45.8,18s-35.1-44.6-40.4-62.1C720.8,729.2,693.2,639.5,693.2,639.5z"/>
	<polygon fill="#FF6C0C" points="888,260.5 928.1,281.9 936.2,308 928.8,322.6 905.7,312.2 	"/>
	<polygon fill="#FF6C0C" points="912.3,206.5 921.5,190.2 926.1,205.1 929.9,232.4 922.6,237.5 	"/>
	<path fill="#FF6C0C" d="M974.3,114.2l-10.4,0.6l-9.3-1.4c0,0-2.3,3.9-3.9,5.5c0,0-5.6,6.4-6.3,11.9l-0.1,8l14-8.8l8.4-10
		L974.3,114.2z"/>
	<path fill="#FF6C0C" d="M1018.1,103.4l-3.3-5c0,0-2.4-5.8-2.5-8.8l1.4-5.9l10.1-10.2l-6.3,13.9c0,0-0.1,5.5,0.8,6.3
		c0,0,2-1.6,3.1-3.4c0,0,5.5-0.8,9.4-1c0,0-7.2,3.3-7.9,3.9c0,0-2.3,6.3-2.2,8.3L1018.1,103.4z"/>
	<path fill="#FF6C0C" d="M972.9,90.8l1.8-2.6l-5.9,1.1l9.2-2.1l14,8.3c0,0,10.2,8.7,12.7,11c2.5,2.3,6.3,6.5,6.3,6.5l0.8,6.4
		L972.9,90.8z"/>
	<path fill="#FF6C0C" d="M995.4,100.3l15.8,12.7c0,0,9.2,14,10.5,17.8l1.4,5.8l5.7,0.9l3-5.1l-5-6.2l7.3,5c0,0,4.1,2.4,4.3,5.3
		l-0.1,4.2l-3,1l-2.6-1.1c0,0,0.2,2.2-0.5,2.8l-4.3,1.7l-10-7L996,104.1L995.4,100.3z"/>
	<path fill="#FF6C0C" d="M1016.8,179.3c0,0,12.8,0,13.2-0.1c0.4-0.1,6.4,0.6,8.6-0.2c2.2-0.8,8.1-2.9,9.4-3.6s4-2.7,5.1-4.5l1.3-3.2
		l-2.4-3.9l-8.8,1.3c0,0,5.9,0.5,7,2c0,0,0.3,3.6-1,4.1l-13.1,3.8c0,0-5-1.8-6.3-3l4.3-4.5l-9.4,2.7L1016.8,179.3z"/>
	<path fill="#FF6C0C" d="M1037,166.8c0.8-0.1,11.4-2.9,11.4-2.9l5.6-4.2l-4.1-6.1c0,0-2.9-1.7-6.3-1.7c0,0-2.3,4.5-3.8,5.3l-6.4,0.7
		c0,0-3.3,2.6-3.7,2.7c-0.4,0.1-6.2,5.1-8,8.4c-1.8,3.2-3.9,7-3.9,7l10.6-7.4L1037,166.8z"/>
	<path fill="#FF6C0C" d="M989.5,110.2c0,0,12.7,12.8,15.2,17l2.2,8.9l-0.2,6l-2.9,8.9l1.9,4.6l9.4-5.3l1.7-15.9l-10.4-19.2
		L989.5,110.2z"/>
	<path fill="#FF6C0C" d="M930.3,38.3L926,67.5l5.7,4.2c0,0,2,11.5,3.8,15l13.8,8l11.4-1.2c0,0-10.3,8.6-13.5,13.6
		c-3.3,5-3.7,16.9-3.5,20.2s4.8,9.6,4.8,9.6l11.2,4.3c0,0,9,4.4,14.7,12.6c0,0,13.2,34.8,14.7,39.9c0,0,18,17.2,27.1,19.6l23.5,3.4
		l10.8-8.9l23.6-5.2l-15.5,12.5l-29.5,4.5l-57.4-18.7l-31.4-49.3l-16.8-41.2l-18-43.8L930.3,38.3z"/>
	<path fill="#FF6C0C" d="M1020.8,219.1l19.7,10.2l-14.2,37.8l1.1,25.2c0,0,2,37.8,8.3,45.6l12.6,33l74-29.9l-3.1,36.2l-51.9,22
		l-18.1,15.7l-46.4-18.5l-78.1,0.4l50.4-58.5l33.6-23.1L1020.8,219.1z"/>
	<path fill="#FF6C0C" d="M886.6,64.1l-12.6-13.4l-12.2,18.1l3.7,0.1l-1.9,8.2l-7,0.4l-12.4,19.5c0,0,8.1,6.1,8.4,16.8l6.4,23.2
		l-8.6,0.6l-16.8,25.5l-1.6,12.8l3.6,16.4l-7.2,4.2l-7.3,11.5l2.4,4.7l30.6-10.7l7.5,12.3l-15.6-2l-15.4,9l-11.2,3.4l2.7,15.4l16,6
		l-4.6,14.1l-12.3,3.2l-1.5,14.6l3.7,9.2l-13.3,3l-2.3-17.4l-4.9,3.4l-4.3,18.4l0.4,22.4l15.2,22.9l-3.7,8.9l28.8,13.3l33.1,23
		l23-16.2l6.3-11.7l-10.7-6.1l5.5-1.2l-5.4-30.8l-24.9,1.5l-3.5-21.2l39-28.4l-12.4-26.6l17.4,4.1l2.1-16.5l-3.1-20.9l-13.8-11.6
		l2.5-9.5l-9.5-0.6l21.7-24.9l-30.3-4.5l2.8-5.1l15.4-2.7l-5.7-6.8l-5.1-1.4l0.5-2.1l6.2,0.6l20.2,9.4l8-24.7l-5.5-20.6l-18-15.9
		l-3.1-21.8L886.6,64.1z"/>
	<path fill="#FFDD00" d="M1189.6,265.3l1.5,12l8.7,24.2l13.1,89.3l-14.3,177.7l34.1,68.4l23.8-16.2l7.4-12.7l3.1-13.1l7.2-4.1
		l7.6-26.2l0.9-43.5c-2.6-9.7-20.1-57.4-20.1-57.4l-4.4-28.1l1.6-79.1l-5.8-29.4l-8.1-19.3l15.5-26.9l26.8-24.6l1.3-11.8l-5.1-9.5
		l8.3-23.1c1.5-5.8,1.5-21.5,1.5-21.5l-17.5-13.5l-6.9-8l2.2-4.5l13.2-21l-1-4.9l6.2-8.7c2.6-3.4-0.8-13.1-0.8-13.1l-7.6,6
		l-14.7,22.9l-9.1,9.6l-4.7,6.1l-4.2-2.1l-9.6,0.1l-6.1,2.3l4.6,1.8l6.5,11.6l-5.6,12.9l-6.5,3.4l-13.2,2.5l-5.1,5l4.6,0.7l3.5,2.9
		l-6.5,5.9l-3,7.4l-2.5,2l0.3,2.1l-2.2,2.7l-2.9,4.9l-1.5,5.1l-9.2,14.3l-2.3,7.7L1189.6,265.3z M1221.3,242.5l2.4-14.8l12.2-4.9
		l10-4.4l9.1,6.7l-7.3,8.1l-9.4,8.6l-7.1,0.6L1221.3,242.5z"/>
	<path fill="#FF6C0C" d="M893.8,513.8l40.2-22.3c0,0,24.8-6.8,39-7c0,0,24.5,8.4,33.6,21.9l7.2,18.4l-48.4,50c0,0-66-15-68.8-17.6
		C893.9,554.6,893.8,513.8,893.8,513.8z"/>
	<path fill="#FF6C0C" d="M1183.6,522l-35.1,72.1l-6,27l-17.2-15.7l13.7,22.6l-9.7,33.9l5.4,13.8l-2.2,13.5l7.8,12.6l1.6,16.5
		l-21-14.9c0,0,22.3,20.5,34.5,39.4l13.1,51.6l-19.9-12.6l-2,3.5l18.5,21.2l14.3,90.6l-6.1-1.4l4,11.5l-3.4,26.4l-4.6-5.8l-8.5,44.3
		l5,11.9l-2.5,27.2l3.2,7.8l-6.6,43.2l-136.6,8.6l-70.9-143.6L960,978l24.3,63.5l-38.4-66.6l-30.2-50.2l28.5,134.3l-31.2-3.1
		l-20-65.2l-9.7,57.7l-31.9-35.8l15.9-129.4c0,0,4.7,1,7.2-3.4c0,0-5.3-17.6-7.4-34c-2-16.4-3.6-32-3.6-32l7,2.7
		c0,0,9.2,11.1,13.5,9.3c4.3-1.8,8.7-7.8,8.8-13.1l-15.8-16.3l-9.8-6.8l-8-0.3c0,0-0.7-32.7,7.6-47.1c8.3-14.4,23.6-41.8,23.6-41.8
		l4.1-38.8l7.4-29.6l29.4-43.3l-17.7,18.7l52.3-59.3l37.1,39.1l60.4-27.2L1183.6,522z"/>
	<path fill="#FF6C0C" d="M1031.6,503.2l5.9,23c0.4-0.1-2.1,20.1,5.1,13.1l60.3-49.8l56.1,2.5l-44.3,47.1l-43.4,5l-45.6,40l-24.1-3
		l22.3-47.4L1031.6,503.2z"/>
	<path fill="#FF6C0C" d="M1196.8,562.4l38.6-36.9l1-48.5l-12.7-4.6l5.3-51.7l-10.6-84.5l-1.7-30.7c0,0,4.6-17,11.4-25.6l20.7-17.8
		c0,0-16.1,2.3-27.7,13.2c-1.3,1.2-4.8,5.1-4.8,5.1l-8.1,2.1l-8.8,11.2l-1.5,3.9l-3-14.5c0,0-0.5-19.9,2-26.3l-3.8-0.2
		c0,0-6.9,12.9-4,31.2s6.4,32.7,6.4,32.7l5.9,37.5c0,0-4.3,70.6-6.9,83.1c-2.6,12.6-11,98.6-11.1,100.1S1196.8,562.4,1196.8,562.4z"
		/>
	<path fill="#FF6C0C" d="M1264.7,600c0,0,6-36.8,6-37.5c0-0.7,1.1-21-2.1-34.9c-3.3-14-12.7-49.5-12.7-49.5l-5.7-33.2
		c0,0-3.7-25.5-2.5-50.1c1.2-24.5-1.8-50.6-1.8-50.6l-0.5-33.2l6.1,16.3c0,0,2.7,29.2,3,47.9l-0.4,64.1l9,47.4
		c0,0,11.6,33.9,13.6,40.4c0,0,0.7,25.1-0.5,37c0,0-4.6,25.8-5.1,28.4C1271,592.6,1265.5,599.2,1264.7,600z"/>
	<path fill="#FF6C0C" d="M737.9,815.6c0,0-31.3-55.1-31.3-56.5c0-1.4-15.7-54.7-15.7-54.7l4.8-2.8l-10.6-60.1
		c0,0-17.6-44.6-18.9-47.8c0,0,15.3,17.2,21.2,30c5.9,12.8,11.7,29.9,11.7,29.9l22.6,74l9,25.4l17.8,32.2l16.5,27.1L737.9,815.6z"/>
	<path fill="#FF6C0C" d="M733,596.8l-41.6,44.7l-14.1-29.7c0,0,31.6-17.3,40.8-26.6l58-54.6l46.5-52.2l19-25.8
		c0,0,24.7-4.9,29.9-5.3c0,0,21.5,5,26.8,10.6c7.9,8.4-1.8,20.1-1.8,20.1l-20.7-3.3l-39.5,4.9l-62.2,75.8L733,596.8z"/>
	<path fill="#FF6C0C" d="M889.7,821.6l3.7-6.7l-3.5-0.8l-7.5,1l-10.9-5.9l-6.2-7.7l-7.4-2.9l-2.4-5.9l-2.8-3.7l-3,7.4l-6.4,2
		l-18.4-3.8l7.3,7.6c0,0,1.7,4.1,4.5,6c2.8,1.9,14.9,2,14.9,2l17,4.3l8,8.6l7.5,2.8L889.7,821.6z"/>
	<polygon fill="#FF6C0C" points="872.5,883.1 875.8,878.2 871.9,877.1 864.9,869.5 860.7,851.4 853.6,852.7 849.4,848 845.3,839.5 
		846.6,830.1 848.4,825.3 845,820.6 838.1,825.8 832.1,827 823.6,823.1 809.7,811.1 801.2,807.2 807.5,812.7 821.4,827.9 
		837.5,840.8 846,859.7 857.3,879 	"/>
	<polygon fill="#FF6C0C" points="864.1,890.6 859.4,898.1 847.4,893.7 836.9,884.6 828.6,873.2 821.1,860.3 817.3,853.5 
		826.6,849.5 829,855.8 835.5,865.5 842.4,878.9 858.4,891.4 	"/>
	<polygon fill="#FF6C0C" points="830.2,842.9 819.6,849.4 807.4,846.6 795.1,835.3 787.6,831.4 799.4,832.3 808.8,837.7 
		826.9,841.5 	"/>
	<path fill="#FF6C0C" d="M826.8,902.7l-4.1,5.1l-9.1-7.1l-3-15.4l-6.5,3.1L794,873.8c0,0-5.9-11.1-6.6-11.6
		c-0.7-0.4-11.9-6.4-11.9-6.4l-14.8,4.8l-22.4,4.7l-19.7-9.8l-11.3-13.5l-29.1-46.2l30.8,23.6l10.6,15.3l18.2,11.8
		c0,0,14.3-2.4,21.4-3.7l0.8-4l23.1,4.3c0,0,14.2,12.5,17,15.8l5.4,14.7l1.3,6.5l5.1-2l1.3,3.8l1.2,9.9l5.9,8.1
		C820.3,899.9,824.2,902.3,826.8,902.7z"/>
	<path fill="#FF6C0C" d="M910.4,434.5l49.3-38.8l-54.5,25.2l18.2-7.2l13.3-3.9l9.7-9.3l5.1-16.5l16.4-15.6l1.3-15.3l-15.8-16.7
		l-22.9,52.2l-23.1,17.1l-32.3,3.6l-31.9-2.4l-44.4,27.7l-48.5,55.2c0,0-32.2,46.2-44.9,64.4c-9.4,13.6-33.2,50.2-33.2,50.2
		l14.8,17.8l117.9-115l45.4-43.6L910.4,434.5z"/>
	<path fill="#FF6C0C" d="M1051.2,271.3l-0.5,25.6l7.1,23.6l24.4,12.6l13.4,8.7l7.9,8.7l36.3,2.5l-2.6-13.3l-30.2-6.6l-30.2-7.6
		c-0.8-6.4-23.8-4-23-36.1L1051.2,271.3z"/>
	<polygon fill="#FF6C0C" points="1175.3,457.5 1181.9,415.2 1180.7,381.1 1194.3,361.5 1184.4,452 	"/>
	<path fill="#FF6C0C" d="M1284.8,141.9l-6.6-5.9l5.5-9.7l6.5-5.5c0,0,2,4.8,0.9,7.4c-1.1,2.6-4.1,7.6-4.1,7.6L1284.8,141.9z"/>
	<polygon fill="#FF6C0C" points="1265.4,187.2 1255.5,186.9 1247.9,187 1261.1,166.7 1261.4,164.1 1264.9,165.9 1267.9,160.2 
		1267.9,158.8 1280.9,138.3 1283.4,139.5 1272.4,156.5 1270.7,159.8 1271.4,162.3 1268.1,169.5 1262.2,181.1 	"/>
	<polygon fill="#FF6C0C" points="1237.9,188.5 1243.2,187.2 1251.5,173.4 1258.1,165.1 1256.2,162.6 1262.3,154.5 1256.3,156.4 
		1248.2,170.1 	"/>
	<polygon fill="#FF6C0C" points="1227.9,225.4 1222.8,242 1229,244.3 1238.9,243 1243.8,238.8 1252.3,235.7 1255,243.6 
		1234.4,254.8 1223.6,249.5 1210.9,248.6 1213,237.1 	"/>
	<path fill="#FF6C0C" d="M1220.8,226l-10.8-4.8l0.1-3.8c0,0,8,3.6,14.1,3.1l22.4-6.1l3.7,4.9c0,0,7.6-0.1,12.8-1.1l-1.6,6.8
		c0,0,3.7,5.9,7,7l-17-0.5l0.7-8.6l-8.9-3.1l-17.2,5.2L1220.8,226z"/>
	<path fill="#FF6C0C" d="M1269.6,200.6l-2.4,3.5l-16.5-1.5l-11.4,2.4l-14.2-1.2l-6.1-5.2l-5.7,0l11.4-1.9l10.9,2
		c0,0,7.1-0.1,12.9-3.4l9.4,3.5C1257.8,198.8,1265.4,199.6,1269.6,200.6z"/>
	<path fill="#FF6C0C" d="M1266.4,175.3c-0.7-1.2-4.4,8.9-4.4,8.9l22.5,10.5C1284.4,194.7,1273.2,187.1,1266.4,175.3z"/>
	<path fill="#FF6C0C" d="M1237.7,163.4l8.3,9.8l2.2-3l-2.9-6.9C1245.3,163.3,1239.7,161.4,1237.7,163.4z"/>
	<path fill="#FF6C0C" d="M1239.2,205c0,0-9.1,5-12.3,6l-10.4,3.7l-2.1,0.9l4.8-7.9l5.9-3.9L1239.2,205z"/>
	<polygon fill="#FF6C0C" points="1212.8,221.8 1209.6,226.3 1205.9,230.9 1207.2,234.7 1215.5,230.5 1220.8,226 	"/>
	<path fill="#FF6C0C" d="M1192.3,320l-11,3.3l-7.1,1.4l-20.6-10.9l-13.8,2.8l-2.2,12.8l0.3,6.6c0,0-1.9,22.3-0.5,22.8
		c1.4,0.5,37.6-3.8,37.6-3.8l19.4-18.5L1192.3,320z"/>
	<path fill="#FF6C0C" d="M1266.7,206.1l13.3,21.7c0,0,0.3-9.5-0.7-12.3c-1.4-3.7-10.1-15.3-10.1-15.3L1266.7,206.1z"/>
	<polygon fill="#FF6C0C" points="1169.4,303.2 1160.3,322.3 1143.2,341 1132.9,346.5 1113.7,338.3 1090.1,318.4 1092.8,309.2 
		1090.2,285.6 1103.5,259.1 1124.3,242 1131.6,249 1130.8,260.4 1127.6,257 1127.3,273.8 1134.5,278.9 1148,278.8 1145.8,282.8 
		1134.7,285.2 1127.2,281.5 1128.1,286.9 1139.5,287.9 1155.5,282.5 1153.2,289.3 1138.1,294.9 1129.5,297.3 1130.4,302.2 
		1138.3,301.7 1150.4,296.5 1141.2,311.3 1130.3,315.2 1119.5,316.2 1122.8,319.2 1137,320.7 1154.4,313.1 1166.5,300.8 	"/>
	<polygon fill="#FF6C0C" points="1067.9,255.2 1050.6,265.2 1050.4,294.3 1056.8,311.8 1066.9,318.9 1069.8,315.7 1064.9,296.8 
		1066.3,262.7 	"/>
	<polygon fill="#FF6C0C" points="1071.7,276.3 1067.4,282.3 1069.3,307.6 1075.1,322.9 1078.2,326.1 1091.3,328.2 1079.1,316.5 
		1071.3,282.3 	"/>
	<polygon fill="#FF6C0C" points="1080.6,270.5 1080.5,275.5 1084.5,290 1095.8,293.6 1099.2,285.8 	"/>
	<polygon fill="#FF6C0C" points="1134.3,235.1 1145.7,233.2 1162.4,227.5 1166.1,234.2 1156.9,241.8 1142.1,244.1 	"/>
	<polygon fill="#FF6C0C" points="1115.6,231.8 1096.8,217 1094,194.1 1099.7,168.4 1123,194.1 1140,207.1 1138.2,212.6 
		1111.6,196.4 1112.4,203.8 1129.3,217.5 1146.2,223.4 1158.6,227 1161.7,236.9 1147.3,232.9 1133.3,227.6 1111.3,209.4 
		1103.4,205.1 1107.1,212.3 1119.8,228.9 	"/>
	<polygon fill="#FF6C0C" points="1087.1,286.6 1116.7,243.5 1126.6,244.8 1134.1,250.9 1147.4,259.4 1161.3,258 1151.5,253.4 
		1150.4,246.5 1153.3,241.7 1147.4,245 1137.3,239.4 1121.7,225.1 1114.2,224.3 1101.2,221.6 1080.1,232.9 1080.4,261.3 
		1080.1,280.5 	"/>
	<polygon fill="#FF6C0C" points="1161.2,211.3 1159.3,200.8 1148.5,179.2 1142.8,173.9 1134.8,170.6 1142.8,178.7 1147.9,187.3 
		1151.1,200.9 	"/>
	<polygon fill="#FF6C0C" points="1128.3,169 1140.7,182.2 1146.4,197.6 1133,187.1 1132.5,179.8 1127.3,171.7 1118.2,159 	"/>
	<polygon fill="#FF6C0C" points="1105.9,152.3 1106.2,168.2 1117.7,181.2 1121.3,187.2 1107.7,180.5 1090.6,161.2 1091.1,141.5 
		1089.8,120.6 1095.7,117.4 1097.8,141.7 	"/>
	<polygon fill="#FF6C0C" points="957.5,26.8 938.3,21 928.2,21 931,17.5 944.7,18.1 956.9,22.4 	"/>
	<polygon fill="#FF6C0C" points="930.3,38.3 916.7,35.6 911.1,36.5 913.2,40.1 901.4,34.1 897.9,37.1 906.8,43.3 912.9,53 
		922.6,47.8 	"/>
	<polygon fill="#FF6C0C" points="910.5,56.2 906.1,52.6 900.8,48 902.1,54.4 898.3,53.4 892.9,49.6 890.7,53.5 901.3,66.2 	"/>
	<path fill="#FF6C0C" d="M1066.1,123.3c-1.7-3.9-8.5-13.1-8.5-13.1s-11.6-9.1-11.8-9.5c-5.4-12.1-7.2-23.7-7.2-23.7L1020,56.2
		l-12.1-13.6c0,0-9.1-9.8-21-13.6c-5.3-1.7-13.6-4.2-13.6-4.2l13.2-9l8.3-9.8l-1.6,13.6l9,4l21.2,15.5l15.1,16.6l0.2,3.9L1028.8,49
		l1.1,4l13.3,13.8l4.6,11.4l10.5,10.5l-0.5-12.6l12.5,25.1l8.9,6.9l7.2,19.9l-8.6,77.2l-4.5-24.3l-2.5-22.4
		C1070.8,158.4,1068.9,129.6,1066.1,123.3z"/>
	<polygon fill="#FF6C0C" points="963.1,33.5 968.9,31.7 977.5,24.5 974.3,24.3 975.5,20.2 982.4,14.1 982,9 977.7,14.4 975.3,9.7 
		971.7,5.8 971.5,8.6 974.7,18.6 971.1,23.7 969.8,15.6 964,8.4 967.1,14.7 967.2,23.8 962.6,23 960.3,16.1 941.1,9.7 956.4,17.8 
		961,27.4 	"/>
	<path fill="#FF6C0C" d="M983.6-1.4L975.3-7l-10.2-2c0,0-13.5,1-17.6,2.5l5.1,0.9l11.8,0.4l3.8,2.6L962-3l-5.5,1l9.3,4.3l4.7,1.8
		l4.9,0.8l-4.9-4.5l2.5-1.5l5.4,1.9l4.1,6.5l0.6,5.4l0.3,3.2l2.5-1.7C985.9,14.1,986.3,8.7,983.6-1.4z"/>
	<polygon fill="#FF6C0C" points="828.1,172.2 836.8,144.4 843.6,131.5 852.4,127.6 845.5,135.1 839.2,154.6 833.9,164.8 	"/>
	<path fill="#FF6C0C" d="M833.7,163.3l-2.9-7.2l3.3-15.6l-2,1.6l-7.9,19.3c0,0-0.8,11.7,3.2,19.6c2.2,4.4,8.4,11.6,8.4,11.6
		L833.7,163.3z"/>
	<polygon fill="#FF6C0C" points="944.8,337 968.9,361.5 949.8,402.7 924.2,418.4 897.1,443.4 855.6,437.3 839,414 815.6,400.7 
		865.9,396.6 938.3,377.3 	"/>
	<path fill="#FF6C0C" d="M1131.5,313.2l-15.1,22.6c0,0-14.4,30.1-14.3,49.6l30.5-0.3l19.1,14.8l4.9,29.4l6.6-88.8l-9-23.9
		L1131.5,313.2z"/>
	<path fill="#FF6C0C" d="M1288.1,199.1c0,0,2.6,10.2,3,15.9c0,0,4-10.8,2.7-18.3l-2,3L1288.1,199.1z"/>
	<path fill="#FF6C0C" d="M1289.2,247.2c0,0-0.9,7.7-1.1,9.2l-19.5,17.8l-7.4,7l-15.1,26.5c0,0-0.9,2-0.8,5.9
		c0.1,3.9-0.7,8.4-0.7,8.4s-0.8-15.1-0.7-17.4c0-2.3,11-23.5,14.6-28.8c3.7-5.3,27.6-20.1,27.6-20.1L1289.2,247.2z"/>
	<polygon fill="#2F1A45" points="900.4,62.7 915.1,56.5 915.2,61.4 929.8,45.6 930.6,51.5 945.3,35.8 957,34.9 966.2,32.6 
		967.6,25.2 964.7,15.1 963.3,27.3 958,19.7 940.3,11.8 956.2,24.2 942.5,19.9 920.1,20.8 934,24.2 917,27 901.9,35 916.7,33.7 
		925.1,40 913.1,36.9 921.2,45.1 906,38.6 915.8,48 910.4,50.9 902.5,41.8 907.6,55.2 	"/>
	<path fill="#2F1A45" d="M1053.3,85.5l15.4,20.2l11.9,5.2c0,0,11.4,28.1,13.6,31.9l2.5,18l16.7,18.9l15.9,19.2l-22.1-15.4l-7.7-10
		l6.6,15.6l23.5,18.5l-17-6.8l-15.6-14.3l9.3,17l18.2,15.7l-21.9-11.5l-4.9-4.7l7.2,12.8l10.2,12.4l-19.4,5.3l-12.6,40.2l19.1-23.7
		l20.8-12.8l7,8.9l-1.4,7.5l-9.7-4.6l7.5,10.9l-0.2,5.8l-18.3-0.3l16.5,4.8l-15.1,3.2l4.3,7.5l11.2,1.9l-14.2,3.3l10,8.5l4,14.2
		l-14.2,3.3l-14.4-0.6l16.5,9.6l15.5,4.6l26.8-8.8l-15,12.2L1125,335l9,3.2l11.6,0.1l-17.3,4.7l-29.2-5.5l-8.3-7.1l-15.7-8.3
		l10.9,0.3l-5.8-9.7l-1.7-26.3l4.8,20.1l7.1,3.2l-19.2-30.3l0.9,25.2l2,14.8l-6-3.9l-2.5-16.8l5.4-37.6l-10.6,4.9l-4.9,15.5
		l0.3,23.2l5.3,12.5c0,0-7-8.8-10.2-17.1l-3.9-24.9l7.8-42l5.3-19.9l1.5-3.4c0,0,7.6-8.6,7.9-11.5c0.7-8.5-2.1-29.9-2.1-46.7
		c0-3.7,1-15.8-1.5-27.8c-0.6-2.7-8.3-13.4-8.3-13.4s-2.4-2.8-6.7-5.9l9.1,1.8l-8.7-15L1053.3,85.5z"/>
	<polygon fill="#2F1A45" points="1066.4,251.1 1060.8,290.6 1063.3,309.9 1075.4,320.6 1082.4,326.1 1062.1,319.3 1058.9,314.3 
		1057.9,282.7 	"/>
	<polygon fill="#2F1A45" points="1139.3,192.1 1165.7,210.1 1173.3,230.7 1158.3,213.7 1161.4,227.7 1166.7,240.1 1154.5,238 
		1164.6,245.6 1150.1,245.9 1160.8,255.5 1171.1,257.3 1155,260.3 1138.3,246.8 1149.1,241 1137.1,228.3 1159.3,233.1 1152.3,214.5 
		1144.6,204.5 1156.6,207.6 	"/>
	<polygon fill="#2F1A45" points="915.7,212.4 921.5,190.2 923,167.4 920.2,156.1 918.1,185.3 914.9,197.8 914.3,182.5 918.3,150.7 
		911.8,158.2 897.4,165.1 885.8,172.5 899.6,168.4 887.5,178.6 899,175.5 891.5,187.9 901.1,183.1 896.2,201 907.6,205.9 	"/>
	<polygon fill="#2F1A45" points="864.8,168.9 876.6,160.1 891,160.4 906.9,164.6 912.5,162 888.6,154.2 872.8,157.3 865.1,163.2 
		874.5,152.5 891.7,149.7 881.3,147.2 865.2,155.2 873.2,144.3 884.5,142 867.2,141.1 860.5,157.3 860.1,166.6 	"/>
	<polygon fill="#2F1A45" points="909.9,171.6 908.3,161.2 897.2,155 906.3,152.9 894.2,144.3 908.6,148.3 895.3,138.8 876.3,135.5 
		886.8,126.5 903.9,131.6 917.1,145.4 916.2,157.6 	"/>
	<polygon fill="#2F1A45" points="884.6,96.5 898.6,106.8 904,120 903.2,135.1 908.8,139.7 912.8,126.6 914.7,113.2 908.2,102 
		900.7,95.7 908,110.6 909.6,121 899.6,101.2 	"/>
	<polygon fill="#2F1A45" points="945.1,-4.2 961.5,-2.8 970.9,4.6 963.4,1.8 969.2,9.3 962.1,5.2 951.8,2 959.4,7.6 961.3,13 
		954.2,8.2 944.9,8 958.6,15.4 945.6,15.3 954.3,19 939.1,15 914.5,15 934.9,10.6 923.1,7.9 937.5,4.6 946.2,4.6 943,2.6 930,2.5 
		945.2,-1.3 958.7,0.3 	"/>
	<polygon fill="#2F1A45" points="914.5,7.8 898.1,17.2 885.9,25.7 894.8,23.2 883.7,31.7 879.9,41.7 871.9,50.9 868.1,60.4 
		875.8,57.4 878,64.8 879.9,72.5 889,75.2 894.4,73.7 898,66.3 884.9,51.8 890,47.6 900.3,58.1 897.9,48.3 910,56.9 897.4,39.5 
		910.7,31 914.8,24.5 906.4,19.4 928.5,13.8 	"/>
	<polygon fill="#2F1A45" points="856.6,266.9 861.8,286.1 872.3,296.8 883.8,289 884.8,279 897.1,269.8 918.2,279 931.4,296.1 
		931,315.3 937.1,296.8 928.1,281.9 910.6,266.9 888,260.5 893.1,253.4 908.8,254.1 922.9,259.1 924.1,270.5 938.7,284 949.2,296.1 
		950.3,308.9 948,320.3 927.7,335.2 891.9,345.2 875,338.8 856.1,322.4 878.7,333.8 899.3,333.1 878.8,328.8 854.8,315.3 
		840.3,294.7 840.2,268.3 846.7,294.7 858.7,301.8 847,283.3 847.3,267.6 	"/>
	<polygon fill="#2F1A45" points="840.1,235.6 852.2,234.9 860,238.4 862.6,248.4 869.6,253.4 869.1,244.1 864.4,233.5 853,229.9 	
		"/>
	<polygon fill="#2F1A45" points="843.7,206.4 861.8,206.6 874.4,212.4 874.5,230.5 881.8,237.5 891.9,234.2 889.6,220.1 
		881.5,209.3 861.7,199.4 883.2,204.6 891.8,216.2 889.2,233 892.5,238.7 903.9,243.5 909,232.1 901.3,212 892.1,199.6 864.9,194.2 
		837.3,198.1 850.8,199.7 834.6,204.8 828.5,213.9 	"/>
	<polygon fill="#2F1A45" points="906.5,259.8 894.1,276.2 887.6,279.7 877.8,273.3 876.9,281.9 884.4,294.7 879.4,296.1 
		872.5,286.1 871.5,267.6 869.2,276.9 869.6,291.1 875,302.5 867.4,295.4 865.6,277.6 865.8,266.9 859.6,258.4 867.6,248.4 
		886.2,243.4 	"/>
	<polygon fill="#2F1A45" points="897.6,160.1 891.1,171.3 880.4,178.1 887.3,183.6 877.4,200.7 861.6,196.5 854.1,197.4 
		845.4,186.5 839.2,173.8 851.6,150.7 844.8,174.8 852.1,185.5 861.1,187.7 852.9,177.6 851.9,168.1 858.6,177.9 866.6,177.9 
		868.6,163.8 878.7,156.8 	"/>
	<polygon fill="#2F1A45" points="864.1,244.9 869.6,253.4 855.2,261.2 848.3,250.5 850.2,263.4 831.6,266.9 822.5,262.6 
		817.8,250.5 826.8,259.1 834.6,259.8 827.7,252.7 832.1,243.4 852.1,240.6 	"/>
	<polygon fill="#2F1A45" points="903.2,135.1 901.2,119.6 895.3,108.4 887.6,107.1 891.3,114.2 892.1,132.4 888,120.2 880.9,108.1 
		883.4,117.9 884,133.2 	"/>
	<polygon fill="#2F1A45" points="865.4,106.1 873.4,124.2 867.7,146.3 879,121.5 873.4,113.3 	"/>
	<polygon fill="#2F1A45" points="889.8,100.3 879.5,97.1 879.7,103.6 867.6,95 867.8,101.5 852.7,97.1 858,81.1 863.3,85.1 
		867.9,80.1 866.6,69.2 877.9,83.1 886.2,85.2 	"/>
	<polygon fill="#2F1A45" points="924.3,330.2 929.1,339.5 936.8,344.5 932.4,352.3 924.7,344.5 918.5,332.4 919.7,345.9 928,357.3 
		922.1,365.8 913.7,359.4 909.6,349.5 905.6,338.8 895.6,340.9 899,349.5 905.9,359.4 896,354.4 887,340.9 890.4,353 897.3,361.6 
		905,368.7 891.6,363 884.6,354.4 880,338.8 874.9,343.1 883.7,363.7 898.4,375.8 891.2,379.3 876.5,368 868.9,356.6 873.6,372.2 
		882.6,385.7 867.7,382.2 854.5,365.8 850.7,343.8 848.2,361.6 855.6,384.3 849.1,387.9 838.5,382.2 828.5,385.7 816.5,381.5 
		813.1,371.5 815.5,358 818.8,370.1 829.4,375.1 835.9,369.4 834.7,362.3 822.1,352.3 818.8,339.5 821.2,326 823.7,339.5 
		834.9,349.5 830.2,339.5 832.4,331.7 839.4,340.2 847.2,338.8 846.8,324.6 837.8,312.5 833.2,296.8 842.1,311.7 859.5,330.2 
		892.8,336.6 	"/>
	<polygon fill="#2F1A45" points="989,2.6 991.9,8.6 989.7,15.8 981.8,20.9 982,18 977.4,23.4 971.1,27.7 973.2,22.3 973.3,14.7 
		976.2,18.1 980.8,13.1 981,4.5 984.2,9 984.6,14.2 988.6,10.2 	"/>
	<path fill="#2F1A45" d="M1164.6,245.6l6.4,11.7l8.8-0.4l7.2-7.4l-1.2,11.3l-6.6,14.3l-6.9,5.5l3.1,14l-4.9,25.2l-12.8,16.9l-26,4.7
		l14-8.4l16.8-16.5l2.7-23.6l-9.8,15.6l-19.2,9.2l-13.3-1.3l16-7.8l8.7-12.5c1.3-1.9,2.3-4.1,2.9-6.4l3.3-13.2l-14.6-4.5l-2.5-16.8
		l10.2,12.4l20.3-5.1l-12.8-8.9l-4.3-7.5L1164.6,245.6z"/>
	<path fill="#2F1A45" d="M959.5,795.9l-42-30.7l-20.7-29.6l42,32.1l82.8,48.7l139.7-6.2l-12.8-18.4l-15.4-10.1l7.3-9.1l17.4,7.5
		l-6.4-32.2c0,0-31-37.7-49.3-44.7l-59.4-15L929,688.8l86.9-10l76.5,10.8l-55-19.7l-57,9l-48.3-1.7l49.8-5.5l66.9-8.4l42.7-3.5
		l-62.4-7.7l-54.1,4.5l-48.5,8.3l48.6-15.4l74-4.7l55.2,8.3l-38-15.4l-35.4-4.2l49.7,0.2l46.6,16.1l2.7-30.5l-22.3-20.9l-53.3-31.2
		l31,10.3l50.5,31.4l21-56.9l18.9-23.6l5.1-9.2c0,0-0.4,0.2,1.6-28.5l-3.3-8.8L1149,467c0,0-11.7,16.2-58.6,18.6l-41.5,42.5
		l-19.3,41.4l5.4-29.1l-16.1-2.8l-3.8-21c4.6-2.4-1.4-10-26.9,2.5c0,0-19.7-13.4-27.9-16.9c-33.8-14.3-74.3-42.4-74.3-42.4
		l-31.1,12.5l18.1,34.6l9.4,33l11,17.3l-6,6.6l7.6,16.3l-0.5,31.2l7.9,7.2l33.7-30.2l38.4-13.6l-27.3,15.9l-36.2,32.9l-13.2,21
		l-6.2-8.3l-4.5,29.6l-11,26.7c0,0-11,22-23.6,44.1c-11.9,20.8-19.7,48-19.7,48l32.7,4.7l4-31.6l6.2-24.7l0.9,27l8.6,43.9l5.5,7.1
		l-4.2-50.4l-0.8-29.8l9.1,39.1l18.7,59.7c0,0,32.5,100.3,60.5,169.1l34.5,72.1l120.2-0.9c0,0-176.4-215.5-191.1-239.5l-19.2-32.6
		l-12-37.4c0,0,17.8,32.7,33.5,53.2l93.1,127.1l26.5,128.8l70.3,7.3l17.8-95.1l10-43l8.8-11.2l-4.4-15.8l12.1,9.4l-0.7-13.2
		l-12.8-21.7l15.1,2.6l0.5-22.8l-11.5-49.7c0,0-5.5-18.9-27.4-20c-29.8-1.5-115.8,11.4-115.8,11.4l-34-3.8L959.5,795.9z"/>
	<path fill="#2F1A45" d="M1175.3,458.1l6.7-60.5c0,0,5-18.4-21-34.1h-62.9c0,0-56.1,26.2-76,26.4l-49.4-1.7l-57.1,13.2l-36,21.5
		l-12.4,49.4l53.5,22.9l16.8-6.8c1.1-6.4-13.4-9.2,26.7-25.2l20.5,4.7c0,0,1.6-12.6,11,6.3c14.9,29.8,53,1,53,1l-34.9,54.7
		l21.4,48.9l6.7-44.2l21.5-64.7l28.3-0.5l17.3-12.6c0,0-14.7,13.9,1.6,9.4c23.1-6.3,4.7-10,17.3-7.9l26.8-20.8l7.9,38.7
		L1175.3,458.1z"/>
	<polygon fill="#2F1A45" points="1181.2,379.2 1179.3,402.1 1173.1,428.2 1162.2,471.8 1173.7,534.9 1187.7,475.4 1191.2,446.7 
		1179.8,446.2 1183.2,418.9 1185.2,390.2 	"/>
	<path fill="#2F1A45" d="M1167.5,562.5l4.9,38l20.7,31c0,0,29.7,8.9,39.6,8.1l24.6-21.9l6.5-37.5l7.4-35.7l-3.6-31
		c0,0-12.3-46-16.1-69.8l-10.3-7.5l1.1,51.1l-16.5,7.8l-8.4,41.5l-14.5,15.4l10.4-47.4c0,0,4.4-76.3,3.8-93.3l-4.8-42.3l-12.5,53.2
		l4.1-61.1l5.1-15.6l-1.4-25.5c0,0,0.5-22.8,3.5-29.7l12.7-17.2l-14.5,12.6c0,0-8.8,12.1-9,25.4l0.3,31.3l-3.2,65.7l-9.7,54.9
		l-15.3,74L1167.5,562.5z"/>
	<path fill="#2F1A45" d="M1193.9,253l-7.1,23.2c0,0,0.2,11.4,1.5,17.6c1.3,6.2,4.4,17.6,4.4,17.6l6,28.9l2.3,25.1l4.3-26.1
		l-1.4-25.6l-6.5-6.6c0,0-4.9-15.7-5.7-21.3l-0.7-11.9C1191.1,273.9,1191.4,260.6,1193.9,253z"/>
	<path fill="#2F1A45" d="M1245.1,310.8c0,0-1.7,36.2-2,49c-0.3,12.8,4.5,58,4.5,58l0.8-39.4l2.2-36.7
		C1250.6,341.7,1250,325.6,1245.1,310.8z"/>
	<polygon fill="#2F1A45" points="1211.8,360.7 1200.8,378.4 1185.3,394.3 1182.7,450.2 1153.7,441.8 1149.5,411.4 1136.9,395.7 
		1137.2,378.2 1145.5,348.5 1146.8,339.7 1154.7,327.4 1170.9,321.9 1189.2,327 1175.7,330.3 1165.1,345.2 1181.8,333.4 1193.1,323 
		1203.1,319.3 	"/>
	<path fill="#2F1A45" d="M1273.9,247.7l-16.6-0.5l-0.6,7.2l-7.2,3l-9.4-2.5l-5.3,3.8l-7-3.7l-12.2-3.3l-13.3,3l-11.6,9.5l2.1-10.6
		l6.3-6.7l7.6-3l-11.9,3.4l4-8.9l5.4-7.1l11.9-4.3l12.4-2l-6,15.7l-7.6,0.1l-2.5,4.5l12.3,0.9l9.8,5.8l9.6-5.1l6.3-4.8l-8.5-1.2
		l1.1-5.8l7.3-10.1c0,0-4.2-1.5-6.1-4.2l-6.2,2.4l-13.8,4.9l-9.9-2.5l-3.2-5l10.8,2.9l16.2-3.7l9.1-5l4.2,4.9c0,0,6.1,1.4,10.4,0.6
		l-0.1,5.7c0,0,4.2,5.4,8.9,5.9l-11.9,1l15.5,4.4l-14.7,1.2L1273.9,247.7z"/>
	<path fill="#2F1A45" d="M1272.1,205.9l-4,1l-17.5-1.4l-13.8,1.1c0,0-7.1-0.4-9.5-0.2c-2.4,0.2-6.1-2.8-7.9-5l-4.2-3l7.1-0.6
		c0,0,3.2,4,9.4,4.9l12.3-1l6.2-2.9c0,0,12,4.9,19.1,3.3L1272.1,205.9z"/>
	<path fill="#2F1A45" d="M1264.6,175.9c0,0,1.3,7.7,2,8.7c0.7,1,7,4.4,7,4.4l-8.9-0.7l-6.7-1.2L1264.6,175.9z"/>
	<path fill="#2F1A45" d="M899.7,456.4l-33.9-5.9l-26,16.5l-54.5,70l-69.7,71.2l-26.8,14.5l-6.4-9c0,0,7.1,21.2,13.4,39.7
		s28.6,106.3,28.6,106.3l28,52.5l15-6.2c0,0-18.5-21.2-28.5-40.3c-10-19.1-20.7-53.3-20.7-53.3s-11.3-48.4-19.4-69.6
		c0,0,30.1-34.7,51.4-57.4c0,0,44.6-49.2,51.4-57.4c6.8-8.1,46.8-49.1,46.8-49.1s10.5-3.1,19.9-1S899.7,456.4,899.7,456.4z"/>
	<path fill="#2F1A45" d="M669.7,769.5c2.2,5.1-12.3-17.8-33.6-72.2l-13.5-36.8l-8.2-16.4l6-15.7c0,0,12.8-25.7,24.5-38.1
		c11.6-12.3,42.8-52.9,42.8-52.9l-31.4,51.9l-20.7,38.7l1,45.5L669.7,769.5z"/>
	<path fill="#2F1A45" d="M737.5,815.6l24.3-8.4l27.9-8.7l23.7-10.5l15.8-7l21.9,3.9l19.8,2.6l11.1,13.3l-14-8.8l-11.4,0.9l-3.7,5.3
		l0.9-7.9l-12-4l-19.9,0.9l8.3,12.1l-12.6-7.5c0,0-8.6,1.4-13.6,3.3l-9.4,7.9l-7.9,2.1c0,0-8.7,9.3-10.2,14.4
		c-1.5,5.1-6.7,12.6-6.7,12.6l-3.4-8.3c0,0-1.2-9.9-9.1-7.8L737.5,815.6z"/>
	<path fill="#2F1A45" d="M823.2,904.9c0,0-4.3,4.2-7.6,3.5l-8.9-6.4l-13.2-23.6l-9.2-13.5l-7.5-5.6l-14.8,4.1l-9,1.2l-8.6,3.6
		l-18.9-1.8c0,0-9.8-8.7-13.9-14.5l-8.7-16.4c0,0,14.8,17.3,19,19.3l23.5,6.6l19.1-5.4l-4.7-3.9c0,0,7.6,1.3,10.9,1.5
		c3.3,0.2,13.7,3.6,13.7,3.6l11.2,9l4,12.5l5.1,7.2l8.1-4c0,0-1.1,6.3-0.2,10.5c0,0,3.6,7.8,6,9.9
		C820.9,904.6,823.2,904.9,823.2,904.9z"/>
	<path fill="#2F1A45" d="M874.9,879.7c0,0-1,3.9-4.4,6.5c0,0-10.5,2.3-11.9,0.5S849,871,849,871l-8.2-14.5l-3.6-11.1
		c0,0-15.3-15.8-17.1-18.5c-1.8-2.7-1.8-2.7-1.8-2.7l18.7,10.3c0,0,6.3-7.6,8.7-8.8l1.8,5.5l-5.9,9.5l10.4,23.8l8.2-4.9l1.2,8.9
		c0,0,0.8,6.1,3.1,8.8C866.8,879.9,874.9,879.7,874.9,879.7z"/>
	<path fill="#2F1A45" d="M892.8,814.2c0,0,0.3,8.5-4.1,13.6c0,0-10,0.8-12.3-0.9c-2.3-1.7-10.2-11-10.2-11l-12.7-5.1l-10.9-1
		l-3.3,1.2l-4.7-3.9l3-6.9l9.9,4.4l10.5-2.8l4.6,6.7l14.6,6.4l6,8C883.2,823.1,889.3,822.1,892.8,814.2z"/>
	<path fill="#2F1A45" d="M859.9,894.2c0,0-2.5,4.5-6.3,6.7c0,0-6.6-2.8-10.3-6.7c-3.7-4-9.7-11.5-9.7-11.5l-14.8-18.7l-8.7-13
		l-10.2-11l13.1,6.5l13.3-3l4.2,3.9c0,0-8.6,4.5-8.7,7.8L831,871l7.8,9.8l7.9,5.5C846.8,886.3,849,893.7,859.9,894.2z"/>
	<path fill="#2F1A45" d="M891.3,820.5l18.3,75.3l28.6,84.9l38.9,89.8l-52.2,3.3c0,0-22.4-107.3-27.5-135.3l-12.9-110.9L891.3,820.5z
		"/>
	<polygon fill="#2F1A45" points="865.9,812.2 867.3,835.8 870.5,865.9 865.2,845.4 858.9,830.8 839.4,811 839.5,804.8 853.6,810.8 	
		"/>
	<polygon fill="#2F1A45" points="870.5,886.3 874.7,933.8 885,1032.6 889.8,982.9 891.6,942.9 894.9,1010.9 904,1078.5 
		832.8,1084.3 813.7,1044.2 807,1005.8 806.6,977.4 821,1013.2 840.4,1038.2 821.4,994.2 813.7,955.9 809.1,901.2 823.2,904.9 
		826.2,897 819.9,884.3 814.5,868.6 809,859.5 810.1,850.9 843.3,894.2 854.6,897.5 859.9,894.2 864.4,884.4 	"/>
	<path fill="#2F1A45" d="M1272,170.1l-10.6,17.3c0,0-5-0.5-7.2-0.4l11.4-19.8l-1.6-1.7C1264.1,165.6,1268.4,167.7,1272,170.1z"/>
	<path fill="#2F1A45" d="M1251.1,159.8l0,1.6l-14.6,27.5l4.1-1l7.4-12.3l7.5-9.3l3.6-0.3l1.5-2.1
		C1260.4,163.8,1254.8,160.9,1251.1,159.8z"/>
	<path fill="#2F1A45" d="M1270.1,170l4.6-7.5c0,0-3.5-2.4-5.8-3.3l1.8,3l-3.5,6.7L1270.1,170z"/>
	<path fill="#2F1A45" d="M1252.1,161.1l4.4-7.5c0,0,2.3,0.5,4.8,1.9l-2.1,0.7l-4.4,6.4L1252.1,161.1z"/>
	<polygon fill="#2F1A45" points="1277.4,155.8 1286.2,141.8 1281.9,138.8 1284.8,142.4 1279.5,151 	"/>
	<path fill="#2F1A45" d="M1274.2,155.2l10.1-14.5c0,0-5.9-5.6-13.2-7.1l-12.6,21.2c0,0,2,0.4,5,2l12.3-20.6c0,0,3.9,1.3,6.8,3.9
		l-5.3,7.9L1274.2,155.2z"/>
	<path fill="#2F1A45" d="M1272.4,134.6l7.8-11.8l5.4-6l3.5-1.9l-0.1,4c0,0-5.7,4.7-6.8,6.3l-5.5,10.3L1272.4,134.6z"/>
	<path fill="#2F1A45" d="M1285.4,139.9l3.1-4.7l3.9-7.8l-0.3-2c0,0-3.5,6.5-4.3,7.9L1285.4,139.9z"/>
	<path fill="#2F1A45" d="M1288.4,115.7c0,0,0.4-1.5,1.6,0l1.7,4.5l0.7,4.5c0,0,0.3,1.9,0,2.7c-0.3,0.7-1-1.2-1-1.2l-1.5-2.8
		l-1.4-5.1L1288.4,115.7z"/>
	<path fill="#2F1A45" d="M1238.8,172.7c0,0-0.9-6.6-0.7-8.2l-2.6-2c0,0,4.2-0.7,6.5,1.1c0,0,0.7,6,3.5,8.3l-3.2,5.6l-3.3-4.4"/>
	<path fill="#2F1A45" d="M1264.7,188.4c0,0-11.4,0.2-15.6,0.6l-9.6,2.2c0,0-5.1,0.9-8.2,1.4c-3.1,0.5-9.3,0.8-9.3,0.8l16.5-6l12.6-2
		L1264.7,188.4z"/>
	<path fill="#2F1A45" d="M1270.1,170c0,0,4.1,3.9,6.7,6.1c2.6,2.2,11.6,9.5,11.6,9.5s-9.8-5.1-11-5.7c-1.2-0.6-6.1-4.1-6.1-4.1
		l-4.4-3.3L1270.1,170z"/>
	<polygon fill="#2F1A45" points="963.5,346.6 959.3,370.3 944.8,382.7 944.6,393.1 931.1,401.6 924.6,396.9 893.9,410.2 
		868.3,410.2 842.1,392.2 852.9,377 878.4,382.7 916.7,365.6 899.3,381.7 892.3,396.9 908.8,380.8 916.7,361.8 925.3,360.8 
		917.3,379.8 904.8,391.2 924,379.8 924.4,357 932.2,347.6 936.3,335.2 932.7,324.8 950,315.3 966.8,324.8 957.4,324.8 945,326.7 
		959.1,330.5 967.5,340 954.3,334.3 	"/>
	<polygon fill="#2F1A45" points="859.3,427.5 893.3,403.7 936.2,378.7 948.4,363.8 964.5,341.2 989.3,363.8 1042.5,376.1 
		1058.6,411.1 991.1,395 909.7,422.3 	"/>
	<path fill="#2F1A45" d="M1003.4,111.6c0,0,2.6-11.4-4.6-15.8l-16.6-8.7c0,0-24.5,0.3-29.5,1l-15,12.6c0,0-3.7,16.9-3.5,24.9
		c0,0,4.9-14.3,9.6-23.1l11.7-7.6l19.1,0.1l8.7,7.9c0,0,8.5,8.7,8.3,14.2L1003.4,111.6z"/>
	<path fill="#2F1A45" d="M1012.4,89.6l-3.4-9c0,0,7.9-7.8,11-10.2l4.3-2c0,0,6.3,3.1,9.8,5.9l0.8,2.4c0,0-3.3-1.7-6.3-2.8l-4.2-0.3
		l-7.4,8.8L1012.4,89.6z"/>
	<path fill="#2F1A45" d="M990.3,116.7c0,0-3.4-0.5-5.5-0.7l-10.8,1.7c0,0-7.6,3.9-10.5,6.7l-3.8,6.8L954,133c0,0-2.3,0-4.4,0
		c0,0,4.8-2.2,6-3.2c0,0-4.7-1.3-6.8-2.5c0,0,5,0.1,6.2-0.3l3-1.9l-4.6-1.7c0,0,7-3.3,8-3.8l-0.2-4.3c0,0,6.6,0.8,7.9,0.5l1.9-1.1
		l-2.3-2c0,0,5.8,1.3,7.3,1.3l7.8-0.2C983.8,114,987.8,115.7,990.3,116.7z"/>
	<path fill="#2F1A45" d="M974.2,116.7l-7.5,3.3l-5.9,4.9l2.2,2.9l2.5,1c2.1,0.3,4.5-0.2,4.5-0.2c1.6-0.3,4.5-3.2,4.5-3.2l1.2-4.3
		C975.6,119.4,974.4,117,974.2,116.7z M970.3,123.2l-1.4-0.3l-0.9-1.2l1.5-1.6l1.3,0.4l0.5,1.4L970.3,123.2z"/>
	<path fill="#2F1A45" d="M979.4,114.3c0,0-6.3,0.5-7.9,1.6c-1.5,1.1-2.7,2.5-2.7,2.5l-8.5,4.5l0.1-1.6l-2.1-1.6c0,0,3.5,0,5-0.7
		c1.4-0.7,3.2-2.9,3.2-2.9s8.3-2.8,10-3.3L979.4,114.3z"/>
	<path fill="#2F1A45" d="M960.3,127.7c0,0,1.2,2.5,3.8,3.3l5.2,0.5c0,0,6.3-1.6,8-3.1c0,0-3.6,3.6-5,4.5l-7.2,1c0,0-4.5-0.8-8.1-2.8
		L960.3,127.7z"/>
	<path fill="#2F1A45" d="M1040.5,98.7c0,0-2.5-1.4-5.7-2.6h-5.9l-5.7,2.4c0,0-3.6,3.9-5.7,4.8c0,0,2.6-2.8,3.2-4l2.4-3.3
		c0,0,4-2.7,4.7-3.6l2.4,0.3c0,0,1.2-1.2,1.5-2.5l1.2,2.9c0,0,1.4-0.7,1.8-1.7l0.1-1.3c0,0,1.3,1.4,1.3,2.4l0.2,1.6
		c0,0,1.2-0.9,1.6-1.9l0.3-1.8c0,0,1.5,3.4,1.5,4.2l-0.2,2.4L1040.5,98.7z"/>
	<path fill="#2F1A45" d="M1032.5,95.9c0,0-3.6-0.9-5.7-0.4c-2.8,0.6-5.7,4.5-5.7,4.5s1.5,2.5,2.6,2.8l2.9,0.8c0,0,3.1-0.5,4.2-1.2
		c0,0,1.5-1.9,2-3C1032.7,99.5,1032.7,97.2,1032.5,95.9z M1028.7,99.2l-1.1-0.3l-0.7-0.9l1.2-1.3l1,0.3l0.4,1.1L1028.7,99.2z"/>
	<path fill="#2F1A45" d="M1030.5,103.9c0,0,3.2-1.4,4.4-2.2c0,0,2-1.9,2.3-2.9l0.1-1.3l-0.5-1.8l2.8,1.8l-0.5,2.3l-2.8,2.4
		C1036.2,102.3,1032.6,103.8,1030.5,103.9z"/>
	<path fill="#2F1A45" d="M1020.1,101.3c0,0,0.8,1,1.7,2c0,0,1.7,0.9,2.8,1l2.6,0.3l-3.9,0.4c0,0-1.4-0.6-3-1.3l-1.4-1.6
		L1020.1,101.3z"/>
	<path fill="#2F1A45" d="M1031,138.6l1.1-1.8c0,0,2.5,0.1,3.6,0.6l-0.1,4.3l-2.8-0.5L1031,138.6z"/>
	<path fill="#2F1A45" d="M1007.9,182.8c0,0,5.5-4.7,7.7-8c0,0,5.7-8.7,5.9-9.1c0.2-0.4,8.7-8.5,8.7-8.5s4.9,0.1,6.3,0.4l-7.2,3.8
		l-7.8,9.6l9.4-4.9c0,0,6.1,0.1,9-1.2l10.2-2.7c0,0,2.4-1.9,2.1-3.8c-0.3-1.5-2.4-4.9-2.4-4.9s4.5,4.4,5.3,7.3l1.8,0.5l-1,3.4
		c0,0-1.9,3-2.1,4.1l-1.5-3.5c0,0-4.4-0.3-6-0.1c-1.6,0.2-14.7,3.5-14.7,3.5s-8.6,5.8-11.9,9c0,0,11.6-0.7,16-1.2l8.5-2l-5.9,4.9
		c0,0-13.1,2.3-19.5,3.2C1018.8,182.6,1010.4,183,1007.9,182.8z"/>
	<path fill="#2F1A45" d="M1018.7,144.2c-0.4,0.2,4.5,3.5,4.5,3.5s3.6-1.4,5.4-2.9c0,0-0.8-3.8-0.8-5c-1.1,0.5-5.4,0.1-7.1-3l0.7-7.2
		l-7.7-14.9c-3.4-4.9-15.2-18.2-12.5-16.1l-8.8,14.6c0,0,11.4,3.2,18.9,7.3l7.5,15.7C1018.9,136,1018,141.2,1018.7,144.2z"/>
	<path fill="#2F1A45" d="M1025.3,135.9l-3.2,5.6c0,0-0.1,1.6,0.4,3.3c0.5,1.7,2.7,2.7,2.7,2.7l-7,2.2c0,0-2.9-0.3-5.5-1.9l-0.6-7.9
		c0,0,1.3-3.8,2.5-6.5l-2.2-7.6l-6.3-8.4l-6.8-7.6l6.9,5.4l9.2,3.3L1025.3,135.9z"/>
	<path fill="#2F1A45" d="M940.8,102c0,0-4.7,13.6-3.9,27.3c0,0,2.7,2.9,8,4.6l14.8-2.6c0,0-4,4.5-7,8l-3.6,11.4
		c0,0,11.1,3.3,15.9,8.1c0,0,15.8,27.2,21.1,37.7c0,0,8.1,11.5,21.2,14.6l31,4.7c0,0,15.9-3.9,22-6.8c0.6-0.1,17.7-8.3,17.6-18.4
		l-9.5,27.1l-21.4,8.3c0,0-13.2,20.9-25.8,33.9l-6,49.9l6.3,44.1c0,0-23.6,25.2-36.2,11c-1.6-1.8-13.9-15.4-13.9-15.4l-47,37.6
		l-2.1-18.6l14.3-25.9l9.3-20.3l-4.6-7.1c0,0-2.6-12.9-1.2-15.9c1.3-3,78.2-70.9,78.2-70.9s-29.4-4.2-45.1-18.9l-40.9-53.5
		l-15.7-28.3l1.8-16.6l-4.1-8.7L896.9,88l-2.7-18.3l6.2-7.1l19-12.3c0,0,1.5,28.2,7.2,41.2l11.2,9.1"/>
	<path fill="#2F1A45" d="M1021.6,229.3c0,0-13.9,0.3-33.6-6.3c0,0-9.7-0.6-23.1-15.7c0,0-12.5-19.6-16.8-27.3
		c-4.9-8.8-16.8-25.2-16.8-25.2l-2.1-13.6l-7.4-12.9l-9-1.6l-10.4,12.6l10.4,13.8l8.3,21.4l10.1,24.9c0,0,3.4,17.4-0.3,19.9
		l-6.1,7.7l-6.6-12.3l-5.8-8.2l-5.8-3.4l8.4,20.6c0,0,1,12.9-0.5,16.7c-1.4,3.7-3.5,8-3.5,8l15.5,19.6l13.8,31.1l29.5-4.5
		L1021.6,229.3z"/>
	<path fill="#FF6C0C" d="M1006.5,80.4"/>
	<path fill="#FF6C0C" d="M1040.6,182.2l8.3-2.8l7.9,4.9c0,0-4.9-2.8-8.3-2.6c0.6-0.2-5.7,2.1-9.6,4.4l-6.5,5L1040.6,182.2z"/>
	<path fill="#FF6C0C" d="M931.1,249.7l10.2,15.7c0,0,5.5,10.2,3.9,21.2c0,0,3.1-14.2,0.8-25.2C946,261.5,939.7,254.5,931.1,249.7z"
		/>
	<path fill="#FFDD00" d="M950.3,309.2c0,0,2.8,3.6,1.2,11.6c0,0,7.1-4.5,7.1-8.5L950.3,309.2z"/>
	<path fill="#FFDD00" d="M950,336.3l-2.4,17.3l-8.7,11l14.2-10.2C953.1,354.4,954.7,343.4,950,336.3z"/>
	<path fill="#FFDD00" d="M942.1,243.4l11.8,11.4c0,0,0.8,7.5,1.6,13c0,0,8.1-12.6,4.2-19.7L942.1,243.4z"/>
	<polygon fill="#2F1A45" points="1160.6,184.1 1154.2,173.7 1139.3,160.4 1128.9,159.4 1147.9,157.5 1133.8,153.7 1119.9,154.5 
		1106.5,141.2 1098.4,120.5 1097.9,111.3 1086.1,98.7 1076.6,94 1063.3,85.3 1072.3,99.7 1080.5,112 1091.6,125.3 1081.2,124.3 
		1097.1,137.6 1088.5,139.5 1082.8,138.6 1087.5,143.3 1101.6,148 1113.7,159.4 1137.3,165.1 	"/>
	<path fill="#2F1A45" d="M923.6,74.3"/>
	<path fill="#2F1A45" d="M1170.5,441.8c0,0-17.8-12.6-38.8-13.6c0,0-60.8,10.5-95.5,68.2l-6.7,73.2l58.1-50.1l81.8-24.1
		L1170.5,441.8z"/>
	<path fill="#2F1A45" d="M1052,463.8c0,0-45.4-21-50.6-21c0,0-65.3-4.7-103.1,42.5l80.2,58.2l58.7-7.3L1052,463.8z"/>
	<path fill="#FF6C0C" d="M911.4,395.9l-23.6,32l-8.9,36.7l5.6,10.1l13-6.7l-12.6,28.3c0,0,42.5-43.7,83.4-48l59.5,11.3l4.3-20.5
		c0,0-34-31.7-92.2-19.1l-7.6-7.6c3.3-6.1,0.5-13.9,13.1-28.1C945.5,384.4,925.6,385.4,911.4,395.9z"/>
	<path fill="#FF6C0C" d="M1062.7,402c0,0,7.1,18.9,5.5,33l-5.5,3.9l-1.4,16c0,0,23.2-14,55.5-15.6l28.6,6.7l5.1-25.2
		c0,0-14.6-12.6-35-14.2l-21.6,0.4c0,0-9-10.2-17.7-11.4L1062.7,402z"/>
	<path fill="#FFDD00" d="M1015.8,428.2c0,0-10.5-5.8-23.1-8.4c-12.6-2.6-27.3-2.6-27.3-2.6l0.8,4.5c0,0,20.5,0.5,28.8,4.7
		c0,0-25.7,0.8-40.9,7.1l22.8,3.9c0,0-14.2,4.5-29.4,12.3l-0.5,4.2c0,0,14.7-5.2,21.2-5.5l46.9,8.7l1.6-8.9c0,0-5.2-3.7-11.5-7.3
		l18.4,2.6l3.1-8.4C1026.8,435,1023.7,432.4,1015.8,428.2z"/>
	<path fill="#FFDD00" d="M1150.5,420.8l-5.1,25.2l-28.6-6.7c0,0-12.3,0.9-17,2l22.8-13.4l1.6-7.1c0,0-9.2-0.3-18.1,0.8l0.8-8.7
		c0,0,13.9-5.2,26-2.6C1132.8,410.3,1147.2,417.2,1150.5,420.8z"/>
</g>
</svg>
