<?xml version="1.0" encoding="utf-8"?>
<!-- Generator: Adobe Illustrator 19.0.0, SVG Export Plug-In . SVG Version: 6.00 Build 0)  -->
<svg version="1.1" id="Layer_1" xmlns="http://www.w3.org/2000/svg" xmlns:xlink="http://www.w3.org/1999/xlink" x="0px" y="0px"
	 viewBox="0 0 1440 900" style="enable-background:new 0 0 1440 900;" xml:space="preserve">
<style type="text/css">
	.st0{fill:#F3E4B2;}
	.st1{opacity:0.13;}
	.st2{fill:#5D5D5D;}
</style>
<polygon id="XMLID_2388_" class="st0" points="1442.9,902 -2,899 -2,-1 1442.9,2 "/>
<g id="XMLID_1533_" class="st1">
	<path id="XMLID_1981_" class="st2" d="M1307.7,20.4l-86.8,5.3l-159.1,17.5L902.6,68.9L623,107.5l-44,29.4l12.5,24.9l16.7,4.8
		c2.2-4.9,3.5-7.7,5.2-11.8c10-1.5,20.5-3,31-4.5c-0.6-0.6-1.2-1.1-1.8-1.7c6.4-4.3,12.9-8.7,22.9-15.5l0.1,0
		c3.3,20.7,5.8,36.4,8.2,51.5c0.8-1.7,1.8-4.2,3.5-8c18.3,20.2-4.6,75.7,3.8,97.9c2.3-6.5,17.1-42.5,19.7-49.6
		c9,0.9,116.5,96.6,122.8,97.2c10.5-1.5,48.8-58.6,58-59.9l-14.3-50.7l-2.6-11.2l-3.9-10l6.4-5.6l14.8-1.2l6.4-6.9l5.2-1.2
		l16.1-26.2h3.2l14.8-21.2l8.4-3.1l7.1,11.9v11.9l-8.4,12.5l1.3,5l-16.1,24.4l1.3,3.7l3.3,1.3l-7.1,3.7l17.6,21.5l0.4,20.6L940,261
		l-14.8,28.6l4.1,24.6l-8.2,23L896.5,354L881,382.6l11.6,29.3c0,0-1.4,106,0.5,109.1c1.9,3.1,5.2,58.9,5.2,58.9l29.1,117.1
		c-0.9,0-1.7-0.1-2.6-0.1c-1.7,6.3-3.6,12.5-5.6,18.7c32.9,0.7,65.8,1.4,99,2.1c0.9,5,1.9,10.6,3.3,18.5
		c-37.6,2.9-74.6,5.7-108.8,8.3c-0.6,2.1-1.3,4.2-2,6.3l179.8-11.4c0.5-0.9,2-1.7,3.2-2c0.4-0.1,1.2,0.8,1.7,1.7l9-0.6
		c0.2-0.3,0.4-0.6,0.6-0.9c0.2,0.3,0.4,0.5,0.6,0.8l1.3-0.1l0.1,1.9c1.2,1.5,2.1,2.7,2.3,3.9c0.3,2.6-1.9,4.5-4.6,3.9
		c-1.3-0.3-2.9-1.8-3.5-3c-64.6,4.9-129.2,9.9-193.7,14.8c-2.1,5.5-4.4,10.9-7,16.2c-0.5,1.3-1,2.6-1.5,3.9
		c72-2,142.8-6.5,212.2-21.8c0.4-0.7,1.3-1.5,1.9-1.6c0.5-0.1,1,0.3,1.6,0.7c8.9-2,17.8-4.2,26.6-6.5c1.9,3,3,4,3.2,5.2
		c0.7,3.5,1.2,7.1,1.6,10c-3.5,5.1-6.7,9.6-10.4,15c-15.2,3.3-30.4,6.7-45.7,10.1c-0.1,0.2-0.3,0.3-0.4,0.5
		c-0.1-0.1-0.2-0.2-0.4-0.3c-38,8.4-77.4,10-115.8,18.5c-0.3-1-1.7-5.6-1.7-5.6l-75.1-8.9l-19.3,12.8l-20.3,12.8
		c0,0-29.2-6.3-38.6-5.9c0,0,0,3,0,3c-1.5,0.7-3.1,1.2-4.7,1.6c-3.1,1.8-6.7,4.7-11.9,7.8c-0.6,0-5.8,0.4-11.5,0.8v20.3
		c4.8,1.1,8.9,2.1,14.9,3.5l-16.5,9.4h4.1c-0.9-6.7,14.6,0.3,13.2-9.6c102.1-1.9,202.8-3.7,303.3-5.6c0.2-0.2,0.4-0.5,0.6-0.8
		c0.2,0.3,0.4,0.5,0.6,0.8c5.2-0.1,10.4-0.2,15.6-0.3l0.5,4.4c-1,0.2-2,0.4-3,0.7c-0.8,0.6-1.3,1.3-1.8,1.2c-0.3,0-0.7-0.3-1-0.6
		c-13,2.8-26.3,5.7-41.4,9c0,0-1.3,3.3-1.9,4.7c-4.8,4.1-7.4-1.1-10.8,1.7l86.5,1.4c-0.1-0.1-0.1-0.2-0.1-0.3c0.2-1,0.9-2.5,1.7-2.8
		c0.7-0.3,2,0.8,3.8,1.7c-0.6,0.5-1.1,1-1.5,1.3l33.3-1.4c-0.6-0.7-1-1.2-1.1-1.8c-0.1-0.6,1.3-2.2,1.7-2.1c1.1,0.3,2.5,1.1,2.8,1.9
		c0.1,0.5-0.3,1.1-0.9,2h9.7c0.4-0.3,0.8-0.7,1.2-1.1c0.3,0.4,0.6,0.8,0.9,1.1h25.8c-0.6-0.5-1-1-1-1.4c0-0.9,1.3-1.8,2-2.7
		c0.9,0.7,2.4,1.3,2.5,2.1c0.1,0.5-0.3,1.1-0.9,2h89.7c0.1-0.1,0.2-0.1,0.3-0.2c0.1,0,0.2,0,0.4,0.2h24.6c-0.8-1-1.4-1.8-1.3-2.5
		c0.2-1.3,2.2-2.3,3.5-3.4c1.1,1.2,3,2.3,3.1,3.6c0,0.7-0.5,1.4-1.4,2.3h9.3c0.4-0.4,0.8-0.7,1.2-0.9c0.3-0.1,0.7,0.3,1.3,0.9h2
		v-6.3c-1.7-0.5-3-2.1-5.7-4.1c2.7-1.7,4.3-3.5,5.7-3.6l1.3-25c-0.2,0.1-0.4,0.3-0.5,0.5c-0.6-0.6-1.7-1.2-1.8-1.9
		c-0.1-0.6,0.9-1.4,1.8-2.6c0.2,0.2,0.3,0.4,0.5,0.6V814c-28-2.9-64.3-5.5-99.1-4.3c-25.5,0.9-43.8-1.2-69.3-0.3
		c-0.4,0.5-1.1,1-1.8,1.7c-0.3-0.6-0.7-1.2-0.9-1.6c-46.8,1.7-41.1,0.1-87.9,1.6c-13.2,0.4-26.3,0.1-39.6-2.4
		c38.1-6.3,61.8-3.4,157-17.9c-1-0.4-2.9-1.3-8.4-3.8h19c-0.6-0.6-1.4-1.3-1.4-1.5c0.4-0.7,1.2-1.2,1.8-1.8c0.4,0.5,1.2,1.1,1.2,1.6
		c0,0.5-0.7,1-1.3,1.6h9.8c-4.5,1.3-7.7,2.2-10.8,3.2l-0.1,2.2c11.6,1.2,23.3,2.3,34.9,3.5c0.3-0.5,1-1,1.6-1.4
		c0.2-0.1,1.5,0.7,1.6,1.2c0,0.1,0,0.3,0,0.5c16,1.6,32,3.2,48.2,4.9c-0.3-0.3-0.4-0.6-0.5-0.9c-0.1-0.8,1.1-1.8,2.2-3.3
		c1.1,1.4,2.4,2.3,2.3,3.1c0,0.4-0.4,0.9-0.8,1.4c3.1,0.3,6.3,0.6,9.4,1c0.4-0.3,1-0.6,1.5-1c0.3,0.4,0.8,0.8,1.1,1.2
		c8.8,0.9,17.7,1.8,26.6,2.7c0.9-2,2.4-5.5,3.9-9V790c-0.2,0.1-0.4,0.1-0.6,0.1c-0.9-0.2-1.7-1.5-2.5-2.3c1-0.8,1.9-1.9,3-2.3V636.3
		c-0.6,0.4-1.2,0.7-1.7,0.7c-0.7,0.1-2.3-2-2.1-2.3c0.3-0.5,0.7-1,1.1-1.4c-2-0.7-3.9-1.4-5.9-2.1c-1-0.4-2-0.9-3-1.3
		c0.2,0.3,0.4,0.7,0.4,0.9c0,0.8-1.2,1.7-2.4,3.1c-1-1.5-2.2-2.5-2.1-3.3c0.1-0.6,0.8-1.4,1.6-1.8l-55.6-36.8l2.8,32.5
		c0.7-0.6,1.4-1,2.1-1.1c1.3-0.1,2.7,1.6,4.9,3.1c-2.1,1.7-3.2,3.3-4.6,3.5c-0.7,0.1-1.3,0.1-1.8-0.1l2.1,25l-0.2,9.5
		c0.1,0,0.2,0,0.3,0.1c0.5,0.3,0.6,1.1,0.9,2c-0.4,0.1-0.9,0.2-1.3,0.4l-2.2,121.1l-17.1-2.8l-0.2-21.1c-1.1-0.4-1.9-1.7-2.9-2.6
		c0.9-0.7,1.8-2,2.7-2.1c0,0,0.1,0,0.1,0l-0.4-56.3l9.5-73.4l-0.1-4.9c-0.7,0.6-1.3,1.1-1.9,1.1c-0.9,0-1.8-1.2-2.7-2
		c0.9-1,1.7-2.2,2.9-2.7c0.3-0.1,0.9,0.4,1.7,1.1l-0.5-35.3c-0.3-0.2-0.5-0.5-0.8-0.7c-0.5,0.2-0.9,0.3-1.2,0.2
		c-0.8-0.3-1.4-1.5-1.6-2.5c-0.2-0.2-0.4-0.3-0.6-0.5c-0.9-0.8-1.9-1.6-2.8-2.3c1.9,1.4,3,2.2,3.4,2.5l0,0c-0.6-0.4-2.8-2.1-6.8-5.1
		c-2-1.5-3.9-3-5.8-4.5l2.6,43.2c0.1,0,0.2,0,0.3,0c0.9,0.2,2.1,1.7,2,2.5c-0.1,0.7-1.1,1.6-2,1.9l0.3,4.1l-13.6,92.1l-3.3,62.5
		l-1.8-23c-0.2,0.2-0.4,0.4-0.6,0.5c-1.3-1.6-3.1-3.1-2.8-3.8c0.4-1.2,1.8-2,2.9-2.9l-3.8-48.1l4.2-24.9c-0.4,0.4-0.8,0.6-1.1,0.6
		c-0.5,0-1.4-0.9-1.4-1.3c0-0.5,0.9-1.3,1.4-1.4c0.4,0,0.8,0.4,1.3,0.8l8.6-50.7l0-10.4c-1.1,0.8-1.9,1.7-2.5,1.6
		c-0.7-0.1-1.3-1.2-2-1.8c0.7-0.6,1.3-1.7,2-1.7c0.6-0.1,1.4,0.8,2.5,1.7l0.1-47.9l-14.3-22.1l-2.4-20.3l16.7-27.6l0.2-7.2
		c-0.4-0.2-0.9-0.8-1.6-1.3c0.6-0.5,1.1-1,1.6-1.3l0-21.2l1.3,21.6c0.3,0.3,0.5,0.6,0.5,0.8c0,0.2-0.2,0.5-0.4,0.7l0.2,4.9
		l22.1-35.2l28.6-41l18.6-25c0.5,0.6,6.8-9.4,7.2-9c0.6-0.6,20.3-23.9,20.2-24.6v-42.9c-0.1,0-0.2,0.1-0.3,0.1
		c-0.4,0.1-1.8-1.4-1.7-2c0.1-0.9,0.9-1.6,1.9-2.9c0-24.2,0-48.4,0-72.6c-0.2,0.1-0.4,0.2-0.5,0.2c-0.5,0-1.4-0.9-1.4-1.4
		c0-0.5,0.9-1.4,1.4-1.4c0.2,0,0.3,0.1,0.5,0.2V116.9l-5.3-77.2 M1286.3,632.1c1.1,0.7,2.3,1.9,2.5,3.1c0.2,1-0.8,2.3-1.3,3.5
		c-0.7-0.4-1.4-0.8-2-1.1c-0.7-1.2-1.8-2.3-1.8-3.5C1283.6,633.3,1285.9,631.8,1286.3,632.1z M1327,317.3c-0.2,0.1-1.4-1-1.3-1.4
		c0.2-0.7,0.9-1.3,1.7-2.3c0.8,1,1.6,1.8,1.5,2.1C1328.5,316.4,1327.7,317,1327,317.3z M1325,238.8c1-0.8,1.5-1.5,2.3-1.8
		c0.3-0.1,1.5,1,1.5,1.2c-0.3,0.8-0.9,1.5-1.6,2C1327,240.3,1326.1,239.5,1325,238.8z M1331.8,382.2c-0.4,0-1-0.9-1.4-1.4
		c0.7-0.6,1.3-1.3,2.1-1.7c0.3-0.1,1,0.8,2,1.7C1333.3,381.5,1332.6,382.2,1331.8,382.2z M1330.4,342.4c-0.1-0.6,1-1.3,2.1-2.7
		c0.7,1.5,1.3,2.3,1.3,3.1c0,0.5-1.2,1.4-1.4,1.3C1331.5,343.7,1330.5,343,1330.4,342.4z M1336,370.8c-0.6-0.8-1.4-1.4-1.3-1.9
		c0-0.5,0.9-1.3,1.4-1.3c0.5,0,1.4,0.8,1.4,1.4C1337.5,369.4,1336.7,370,1336,370.8z M1339.3,320.5c-0.5-0.5-1.3-0.9-1.4-1.4
		c-0.1-0.5,0.5-1.1,1-1.9c0.8,0.5,1.4,0.9,1.9,1.3C1340.2,319.1,1339.7,319.8,1339.3,320.5z M1338.4,282.2c-0.5-0.4-0.6-1.6-0.5-2.5
		c0-0.3,1.5-0.8,1.9-0.5c0.7,0.4,1.1,1.3,2.1,2.7C1340.1,282.1,1338.9,282.6,1338.4,282.2z M1343.4,309.9c-0.6-0.8-1.4-1.4-1.4-1.9
		c0-0.5,0.9-1.3,1.4-1.3c0.5,0,1.3,0.8,1.4,1.3C1344.8,308.5,1344,309.1,1343.4,309.9z M1351.5,324.3c-0.5,0-1.4-0.8-1.4-1.3
		c0-0.5,0.8-1.1,1.4-1.9c0.6,0.8,1.4,1.4,1.4,1.9C1352.8,323.5,1351.9,324.3,1351.5,324.3z M1366,326.5c0.1,0.9-1.2,1.9-1.8,2.9
		c-1.1-0.8-2.5-1.5-3.1-2.6c-0.3-0.5,1.2-1.8,2.2-3.4C1364.5,324.7,1365.9,325.5,1366,326.5z M1361.8,171.5c0.5,0,1.1,0.7,1.9,1.3
		c-0.6,0.7-1.3,1.6-1.5,1.5c-0.7-0.3-1.3-1-1.9-1.5C1360.8,172.3,1361.3,171.5,1361.8,171.5z M1359.3,336.9c0.8,0.3,1.8,1,1.9,1.7
		c0.1,0.6-1,1.3-2.1,2.6c-0.7-1.5-1.3-2.3-1.2-3C1357.9,337.7,1359,336.8,1359.3,336.9z M1356,312.5c-0.8-0.3-1.5-0.9-2.2-1.4
		c0.5-0.5,0.9-1.3,1.4-1.4c0.5-0.1,1.2,0.6,2,1C1356.7,311.5,1356.1,312.5,1356,312.5z M1354.3,231.8c1.1,1.4,2.2,2.1,2.1,2.8
		c-0.1,0.7-1.2,1.4-2,1.7c-0.3,0.1-1.5-0.8-1.5-1.3C1352.9,234.2,1353.6,233.4,1354.3,231.8z M1350.2,244.7c0.8,0,1.6,0.6,3.2,1.4
		c-1.4,1.1-2.2,2.1-2.9,2c-0.7-0.1-1.4-1.2-1.7-1.9C1348.7,245.9,1349.7,244.7,1350.2,244.7z M1347.4,332.3c0.8,1.1,1.7,1.9,1.6,2.1
		c-0.4,0.7-1.3,1.2-2,1.8c-0.5-0.5-1.4-1.1-1.3-1.5C1345.9,333.9,1346.7,333.3,1347.4,332.3z M1343.7,270.4
		c-0.6-0.6-1.3-1.1-1.9-1.7c0.5-0.4,1-1.2,1.6-1.2c0.5,0,1.1,0.7,1.8,1.2C1344.6,269.4,1344.2,269.9,1343.7,270.4z M1342.5,229.3
		c0.5,0.5,1.4,1,1.4,1.5c0,0.5-0.8,1-1.5,1.8c-0.6-0.8-1.4-1.4-1.3-1.9C1341.2,230.3,1342,229.8,1342.5,229.3z M1338.6,241
		c0.5-0.1,1.1,0.7,1.9,1.3c-0.8,0.6-1.4,1.4-1.9,1.4c-0.5-0.1-1-0.9-1.5-1.4C1337.6,241.9,1338.1,241.1,1338.6,241z M1335.7,329.2
		c0.6-0.1,1.3,0.6,3,1.4c-2.2,1-3,1.7-3.8,1.7c-0.5,0-0.9-1-1.4-1.5C1334.2,330.2,1334.9,329.4,1335.7,329.2z M1331,268.1
		c-0.7-1.1-1.5-1.9-1.3-2.1c0.4-0.7,1.2-1.2,2-1.5c0.2-0.1,1.3,1.1,1.2,1.4C1332.6,266.6,1331.8,267.1,1331,268.1z M1330.6,187.2
		c0.5,0,1,0.8,1.8,1.4c-0.7,0.6-1.5,1.5-1.6,1.4c-0.7-0.4-1.2-1.1-1.8-1.7C1329.5,187.9,1330.1,187.2,1330.6,187.2z M1326,198.6
		c0.8,0,1.6,0.6,3.2,1.3c-1.4,1.1-2.2,2.1-2.8,2c-0.7-0.1-1.4-1.1-1.7-1.9C1324.6,199.8,1325.6,198.6,1326,198.6z M1324.1,402.7
		c0.5,0,1.1,0.7,1.8,1.3c-0.6,0.7-1.3,1.6-1.5,1.5c-0.7-0.4-1.3-1-1.9-1.6C1323,403.5,1323.5,402.7,1324.1,402.7z M1319.7,417.4
		c-0.4,0.1-1.5-1.3-1.4-1.4c0.5-0.7,1.2-1.4,1.9-1.7c0.3-0.1,1.1,0.8,2.1,1.6C1321.2,416.6,1320.5,417.3,1319.7,417.4z
		 M1319.9,378.2c-0.5-0.5-1.3-1-1.4-1.5c-0.1-0.5,0.7-1,1.4-1.8c0.7,0.8,1.5,1.4,1.4,1.9C1321.3,377.3,1320.4,377.7,1319.9,378.2z
		 M1320.6,299.8c-0.4,0.7-1,1.3-1.5,2c-0.5-0.5-1.3-0.9-1.3-1.5c-0.1-0.5,0.7-1.1,1.2-1.8C1319.7,299,1320.7,299.6,1320.6,299.8z
		 M1318.6,183.2c0.4,0.5,1.2,1,1.2,1.5c0,0.5-0.8,1.1-1.9,2.5c-0.5-1-1.2-1.7-1-2.2C1317.2,184.2,1318,183.7,1318.6,183.2z
		 M1316.1,310.3c0.2-0.1,1.5,0.7,1.5,1.2c0.1,0.8-0.4,1.6-1,3.1c-1.2-1.2-2.3-1.9-2.2-2.4C1314.4,311.5,1315.3,310.7,1316.1,310.3z
		 M1312.1,322.2c0.4,0.5,1.2,1,1.2,1.5c0,0.5-0.8,1.1-1.9,2.5c-0.5-1-1.2-1.7-1-2.2C1310.7,323.3,1311.6,322.8,1312.1,322.2z
		 M1088.9,753.1c-0.5-0.5-1.4-1-1.4-1.5c0-0.5,0.8-1,1.5-1.9c0.6,0.8,1.4,1.4,1.3,1.8C1090.2,752.2,1089.4,752.6,1088.9,753.1z
		 M1100.9,759.2c-1.2-1.6-2.7-2.7-2.5-3.3c0.4-1.1,1.7-2.2,2.9-2.7c0.4-0.2,2.4,1.6,2.2,2.2C1103.3,756.5,1102.1,757.5,1100.9,759.2
		z M1355.1,819.8c1.4,0.1,2.8,1.6,5.4,3.2c-2.7,1.4-4.2,2.8-5.6,2.7c-0.9,0-2.6-2-2.6-3C1352.4,821.6,1354.2,819.7,1355.1,819.8z
		 M1344.1,817.2c0.7,0.2,1,1.3,2,2.6c-1.6,0.3-2.7,0.9-3.3,0.6c-0.6-0.3-0.8-1.5-1.1-2.4C1342.4,817.8,1343.4,817,1344.1,817.2z
		 M1310.4,863.2c0.8,0.1,1.5,0.8,2.6,1.5c-1,0.8-1.7,1.7-2.1,1.6c-0.8-0.3-1.3-1-2-1.6C1309.4,864.1,1310,863.1,1310.4,863.2z
		 M1209.7,810.9c0.5,0,1.1,0.7,2.4,1.7c-1,0.5-1.8,1.2-2.2,1.1c-0.7-0.3-1.2-1.1-1.8-1.7C1208.6,811.6,1209.1,810.9,1209.7,810.9z
		 M1157,822.5c0.7,0.6,1.8,1.2,1.7,1.4c-0.3,0.7-1,1.3-1.5,2c-0.5-0.5-1.3-0.9-1.4-1.5C1155.7,823.9,1156.4,823.3,1157,822.5z
		 M1100.2,795.1c-0.5-0.3-0.4-1.3-0.6-2c0.7-0.2,1.5-0.6,2.1-0.4c0.5,0.2,0.6,1.2,1,2.1C1101.5,795,1100.6,795.4,1100.2,795.1z
		 M1254.9,690.8c-0.7-0.4-1.3-1.2-1.9-1.9c0.5-0.5,1.2-1.4,1.6-1.3c0.8,0.2,1.4,0.9,2.5,1.7C1256,690.1,1255.2,690.9,1254.9,690.8z
		 M1241.6,568.2c0.7,0.4,1.5,1,1.8,1.7c0.1,0.3-0.7,1-1.5,2.1c-0.7-1-1.5-1.6-1.6-2.4C1240.2,569.2,1241.4,568.1,1241.6,568.2z
		 M1240.3,493.3c0.2-0.8,0.9-1.4,1.7-2.4c0.8,1,1.6,1.8,1.5,2.1c-0.4,0.7-1.1,1.3-1.9,1.7C1241.4,494.8,1240.2,493.7,1240.3,493.3z
		 M1243.4,443.4c0.1-0.8,0.8-1.5,1.8-3c0.9,1.5,1.9,2.3,1.7,2.9c-0.1,0.6-1.3,1.2-2.1,1.5C1244.4,444.9,1243.3,443.8,1243.4,443.4z
		 M1249.4,467.6c0.8,0,1.7,1.3,3,2.6c-1.7,0.9-2.8,2-3.6,1.8c-0.9-0.2-1.5-1.6-2.2-2.5C1247.6,468.8,1248.5,467.6,1249.4,467.6z
		 M1247.5,431.3c0.5-0.5,0.9-1.3,1.4-1.3c0.5-0.1,1.2,0.6,1.9,1.1c-0.6,0.7-1.2,1.7-1.3,1.7C1248.8,432.4,1248.2,431.8,1247.5,431.3
		z M1251.7,457.9c0.5-0.5,1-1.3,1.5-1.3c0.5-0.1,1.1,0.7,1.9,1.3c-0.8,0.6-1.4,1.4-1.9,1.4C1252.7,459.3,1252.2,458.4,1251.7,457.9z
		 M1252.3,508.1c-1.1,0.8-1.9,1.6-2.2,1.5c-0.7-0.4-1.3-1.2-1.9-1.9c0.5-0.5,1.2-1.4,1.6-1.3
		C1250.6,506.6,1251.2,507.3,1252.3,508.1z M1245.8,554.6c1.2,1.5,2.5,2.4,2.4,3.2c-0.1,0.9-1.4,2.3-2.2,2.3c-0.8,0-2.3-1.3-2.4-2.2
		C1243.4,557.2,1244.7,556.2,1245.8,554.6z M1246.8,595.6c0.5,0,1.1,0.7,1.9,1.2c-0.7,0.7-1.1,1.2-1.6,1.7c-0.6-0.6-1.3-1.1-1.9-1.7
		C1245.7,596.4,1246.2,595.6,1246.8,595.6z M1247.4,710.1c0.6,0.8,1.4,1.4,1.4,1.9c0,0.5-0.9,1.3-1.4,1.3c-0.5,0-1.3-0.8-1.4-1.3
		C1246,711.4,1246.8,710.9,1247.4,710.1z M1248.4,585.2c0.5-0.5,1-1.2,1.5-1.3c0.5-0.1,1.1,0.7,1.9,1.2c-0.6,0.7-1.2,1.7-1.4,1.6
		C1249.7,586.4,1249.1,585.8,1248.4,585.2z M1249.5,549.4c-0.9,0-1.7-1.3-3.1-2.4c1.5-1.1,2.8-2.5,3.3-2.2c1.1,0.5,1.8,1.8,2.7,2.8
		C1251.5,548.3,1250.5,549.4,1249.5,549.4z M1254,571.3c0.8,1.1,1.7,1.9,1.6,2.1c-0.4,0.7-1.3,1.2-2,1.8c-0.5-0.5-1.4-1.1-1.3-1.5
		C1252.5,573,1253.2,572.3,1254,571.3z M1258.4,640.8c-0.5,0-1.4-1.1-1.3-1.4c0.3-0.8,1-1.8,1.7-1.9c0.6-0.1,1.4,0.9,2.8,2
		C1260,640.2,1259.2,640.8,1258.4,640.8z M1256.4,599.9c0.5-0.5,1.1-1.2,1.6-1.3c0.5,0,1.1,0.7,1.9,1.2c-0.7,0.7-1.1,1.2-1.6,1.7
		C1257.7,601.1,1257.1,600.5,1256.4,599.9z M1265.7,627.3c-1.4,1-2.2,2-2.8,1.9c-0.7-0.1-1.4-1.1-1.7-1.9c-0.1-0.3,0.9-1.4,1.4-1.4
		C1263.3,625.9,1264.1,626.5,1265.7,627.3z M1266.2,573.9c1.1,1.8,2.2,2.9,2.3,4.1c0,0.7-2.2,2.2-2.6,2c-1.1-0.6-2.2-1.8-2.5-3
		C1263.3,576.4,1264.9,575.3,1266.2,573.9z M1263.5,589.3c0,0.5-0.8,1.1-1.9,2.5c-0.5-1-1.2-1.8-1-2.3c0.2-0.7,1.1-1.2,1.7-1.8
		C1262.7,588.3,1263.5,588.8,1263.5,589.3z M1258.3,559.7c0.9,0,1.7,1.4,3.1,2.6c-1.7,0.9-2.9,2.1-3.7,1.9c-0.9-0.2-2.1-1.7-2-2.5
		C1255.8,560.9,1257.4,559.7,1258.3,559.7z M1257,448.6c-0.5-0.5-1.2-0.9-1.3-1.5c-0.1-0.5,0.6-1.1,1.1-1.8c0.8,0.6,1.3,1,1.8,1.4
		C1258.1,447.3,1257.5,447.9,1257,448.6z M1258.3,320.2c-0.3-0.7,0.7-2,1.5-3.8c1.4,1.4,2.5,2.1,2.8,3.1c0.2,0.6-1,2.2-1.4,2.2
		C1260.2,321.6,1258.6,321,1258.3,320.2z M1261.3,475.5c-0.6-0.8-1.4-1.4-1.4-1.9c0-0.5,0.9-1.3,1.4-1.3c0.5,0,1.3,0.8,1.4,1.3
		C1262.7,474.1,1261.9,474.7,1261.3,475.5z M1264.3,386.9c-0.5-0.5-1.3-1-1.4-1.5c0-0.5,0.7-1.1,1.3-1.9c0.7,0.6,1.7,1.3,1.6,1.5
		C1265.5,385.7,1264.8,386.3,1264.3,386.9z M1264.5,309.8c-0.7-0.1-1.5-1.2-1.8-2c-0.1-0.3,0.9-1.4,1.4-1.4c0.8,0,1.7,0.6,3.3,1.3
		C1265.9,308.8,1265.1,309.9,1264.5,309.8z M1273.7,479c-0.8-0.3-1.6-0.9-2-1.5c-0.2-0.2,0.7-1.1,1.4-2.1c0.8,0.9,1.6,1.5,1.9,2.2
		C1275,477.9,1273.9,479.1,1273.7,479z M1272.3,363.7c-0.7-0.2-1.6-1.3-1.5-1.9c0.1-0.6,1.3-1.5,2-1.5c0.7,0,1.3,1,2.5,2.1
		C1273.8,363.1,1272.9,363.9,1272.3,363.7z M1284.4,443.9c-0.5-0.5-1.3-0.9-1.4-1.4c-0.1-0.5,0.6-1.1,1-1.9c0.8,0.5,1.3,0.9,1.9,1.3
		C1285.5,442.6,1284.9,443.2,1284.4,443.9z M1284.5,367.1c-0.5,0-1.3-0.9-1.4-1.4c0-0.4,0.9-1.3,1.4-1.3c0.5,0,1.1,0.7,1.9,1.3
		C1285.6,366.4,1285,367.2,1284.5,367.1z M1288.2,434.2c-0.5-1.1-1.2-1.9-1-2.4c0.2-0.7,1.1-1.2,1.7-1.8c0.4,0.5,1.2,1,1.2,1.6
		C1290.1,432,1289.4,432.6,1288.2,434.2z M1287.2,354.2c0-0.5,0.8-1.1,1.4-1.9c0.6,0.8,1.4,1.4,1.4,1.9c0,0.5-0.9,1.4-1.4,1.3
		C1288.1,355.5,1287.3,354.7,1287.2,354.2z M1292.6,421.4c-0.5-0.7-1.3-1.3-1.5-2.1c-0.1-0.5,0.6-1.2,1.4-2.7c1,2,1.6,2.8,1.7,3.5
		C1294.1,420.6,1293.1,421,1292.6,421.4z M1296.7,447.7c-0.6,0-1.4-0.8-1.5-1.4c0-0.5,0.8-1.1,1.5-1.9c0.6,0.8,1.4,1.4,1.4,1.9
		C1298.1,446.9,1297.2,447.8,1296.7,447.7z M1294.2,331.4c0.5-0.5,0.9-1.3,1.4-1.4c0.5-0.1,1.2,0.6,2,1c-0.5,0.8-1.2,1.8-1.3,1.8
		C1295.6,332.5,1294.9,331.9,1294.2,331.4z M1300.6,436.3c-0.7-0.1-1.4-1.2-1.8-2c-0.1-0.3,0.9-1.4,1.4-1.4c0.8,0,1.7,0.6,3.3,1.3
		C1302.1,435.3,1301.3,436.4,1300.6,436.3z M1298.2,319.8c0.7-0.5,1.3-1.3,2.1-1.5c0.5-0.1,1.3,0.5,2.9,1.3c-2.2,1-2.9,1.6-3.7,1.6
		C1299.1,321.3,1298.6,320.3,1298.2,319.8z M1304.7,425.3c-0.7-0.1-1.4-1.1-1.8-1.9c-0.1-0.3,0.9-1.4,1.4-1.4c0.8,0,1.6,0.6,3.3,1.3
		C1306.2,424.4,1305.4,425.4,1304.7,425.3z M1308,333.2c0.5,0,1.4,0.9,1.4,1.4c0,0.5-0.9,1.4-1.4,1.4c-0.5,0-1.1-0.8-2-1.4
		C1306.8,333.9,1307.4,333.2,1308,333.2z M1303.8,385.9c-0.5,0-1.3-0.9-1.4-1.4c0-0.4,0.9-1.3,1.4-1.3c0.5,0,1.1,0.7,1.9,1.3
		C1304.9,385.2,1304.3,385.9,1303.8,385.9z M1299,241c0.5,0,1.1,0.7,1.9,1.3c-0.8,0.6-1.4,1.4-1.9,1.4c-0.5,0-1.3-0.9-1.4-1.4
		C1297.6,241.9,1298.5,241.1,1299,241z M1274.6,195.6c0.7,0.4,1.5,1,1.9,1.7c0.1,0.2-0.8,1-1.6,2.1c-0.7-1-1.4-1.6-1.6-2.3
		C1273.2,196.6,1274.4,195.5,1274.6,195.6z M1224.3,39.1l11.5,129.9l68.1,137.6c0.5,0,1.1,0.7,1.9,1.3c-0.8,0.6-1.4,1.4-1.9,1.3
		c-0.5,0-1.3-0.9-1.4-1.4c0-0.4,0.9-1.3,1.4-1.3l-31-58.7c-0.5,0.4-1,0.7-1.5,0.7c-0.4,0.1-1.4-1.2-1.3-1.4c0.4-0.6,1-1.2,1.7-1.6
		l-7-13.2c-0.5,0.4-0.8,0.7-1,0.6c-0.7-0.4-1.4-1.1-1.8-1.9c-0.1-0.2,0.9-1.2,1.4-1.3l-31-58.7c-0.4,0.4-0.8,0.7-1.1,0.6
		c-0.5,0-1.3-0.9-1.4-1.4c0-0.4,0.9-1.3,1.4-1.3l-18.6-129.9L1224.3,39.1z M1180.2,43.9l39.4,133.5l39,64.9c0.3-0.3,0.6-0.6,0.8-0.6
		c0.8,0.1,1.5,0.8,2.6,1.4c-1,0.8-1.6,1.6-2,1.6l7.3,12.1c0.1-0.1,0.3-0.2,0.4-0.2c0.5-0.1,1.1,0.7,1.9,1.3c-0.4,0.3-0.8,0.7-1.1,1
		l7.8,13l-56.1-65.9c-0.4,0.3-0.8,0.5-1.2,0.5c-0.4,0-1-0.9-1.5-1.4c0.4-0.4,0.8-0.8,1.2-1.1l-13.7-17.7l-46.4-139.6L1180.2,43.9z
		 M1216.4,724.3c1,1.3,2.5,2.5,2.7,3.9c0.1,0.8-1.8,1.9-3.3,3.3c-1.3-1.6-3.1-3.1-2.8-3.8C1213.5,726.3,1215.2,725.4,1216.4,724.3z
		 M1213.8,651.3c0.4-0.7,1.1-1.2,1.7-1.7c0.4,0.5,1.2,1.1,1.2,1.6c0,0.5-0.8,1-1.4,1.7C1214.6,652.2,1213.7,651.4,1213.8,651.3z
		 M1214.2,575.8c-0.9,0-1.7-1.4-3.1-2.6c1.7-0.9,2.9-2.1,3.7-1.9c0.9,0.2,1.5,1.7,2.2,2.6C1216.1,574.6,1215.1,575.8,1214.2,575.8z
		 M1198.1,501.5c1.3,1.3,2.9,2.5,2.7,3c-0.5,1.2-1.8,2-2.7,3c-0.8-0.8-2.2-1.7-2.2-2.5C1195.8,504,1197.1,503,1198.1,501.5z
		 M1194,466.3c1.7-0.9,2.9-2,3.7-1.9c0.9,0.2,2.1,1.7,2,2.5c-0.1,0.8-1.7,2-2.6,2C1196.3,468.9,1195.5,467.5,1194,466.3z
		 M1232,489.5c-0.2,0.9-1.7,1.7-2.8,1.9c-0.4,0.1-1.8-1.4-1.7-2.1c0.2-1,1.2-1.9,2.4-3.5C1230.9,487.6,1232.2,488.7,1232,489.5z
		 M1231.5,439.2c-0.1-0.5,0.8-1.1,1.4-1.9c0.7,0.8,1.5,1.4,1.5,1.9c-0.1,0.5-0.9,1-1.4,1.5C1232.4,440.2,1231.6,439.8,1231.5,439.2z
		 M1222.4,511.5c0.5,0.2,0.6,1.2,1,2.1c-1.1,0.1-2,0.6-2.4,0.3c-0.5-0.3-0.4-1.3-0.6-2C1221,511.7,1221.9,511.3,1222.4,511.5z
		 M1220.1,473.9c0.4-0.7,1-1.5,1.8-1.9c0.3-0.1,1.1,0.7,2.2,1.5c-1.1,0.8-1.7,1.5-2.5,1.7C1221.2,475.3,1220,474.1,1220.1,473.9z
		 M1222.6,549.4c0.2-0.1,1.1,0.7,2.2,1.4c-1,0.8-1.5,1.5-2.3,1.7c-0.4,0.1-1.6-1-1.5-1.1C1221.4,550.6,1221.9,549.9,1222.6,549.4z
		 M1224.3,501.3c0.2-0.7,1.1-1.2,1.7-1.8c0.4,0.5,1.2,1.1,1.2,1.6c0,0.5-0.7,1.1-2,2.6C1224.8,502.6,1224.1,501.8,1224.3,501.3z
		 M1226.8,574.2c1,1.8,2.2,3,1.9,3.7c-0.3,0.8-1.8,1.6-2.9,1.8c-0.4,0.1-1.8-1.5-1.6-2.2C1224.5,576.6,1225.6,575.8,1226.8,574.2z
		 M1225.9,541.9c-0.5-1.6-1.1-2.4-1-3.2c0.1-0.5,1.3-1.3,1.6-1.2c0.7,0.4,1.7,1.2,1.7,1.9C1228.2,540,1227.1,540.7,1225.9,541.9z
		 M1225.8,464.1c-0.6-0.1-1-0.9-1.5-1.4c0.5-0.5,1-1.3,1.6-1.4c0.5-0.1,1.1,0.7,1.9,1.4C1226.9,463.3,1226.3,464.1,1225.8,464.1z
		 M1224.9,387.3c-0.6-0.6-1.7-1.2-1.8-1.9c-0.1-0.6,0.9-1.4,1.8-2.6c0.9,1.2,1.9,2,1.8,2.7C1226.7,386.1,1225.5,386.7,1224.9,387.3z
		 M1223.6,435c-0.6,0.7-1.2,1.8-1.4,1.7c-0.8-0.3-1.4-0.9-2.1-1.4c0.5-0.5,0.9-1.3,1.5-1.4C1222.1,433.9,1222.8,434.5,1223.6,435z
		 M1221,360.2c-0.6,0-1.4-0.8-1.5-1.4c0-0.5,0.8-1.1,1.5-1.9c0.6,0.8,1.4,1.4,1.4,1.9C1222.4,359.4,1221.5,360.3,1221,360.2z
		 M1220.4,523.2c-0.5,0.8-1.2,1.8-1.3,1.8c-0.8-0.3-1.5-0.9-2.2-1.4c0.5-0.5,0.9-1.3,1.4-1.4
		C1218.9,522.1,1219.5,522.7,1220.4,523.2z M1204.9,597c0.5-0.5,1-1.3,1.6-1.4c0.5-0.1,1.1,0.7,1.9,1.3c-0.9,0.7-1.4,1.5-2,1.4
		C1205.9,598.3,1205.4,597.5,1204.9,597z M1205.2,685.3c-0.7,0.6-1.5,1.5-1.6,1.4c-0.7-0.4-1.2-1.1-1.8-1.7c0.5-0.4,1.1-1.1,1.6-1.1
		C1203.9,684,1204.4,684.7,1205.2,685.3z M1207.4,672c0.3-0.1,1.1,0.7,2.2,1.5c-1.1,0.8-1.7,1.5-2.6,1.7c-0.4,0.1-1.5-1.1-1.4-1.3
		C1206,673.1,1206.6,672.4,1207.4,672z M1208.7,585c0-0.5,1.2-1.4,1.5-1.3c0.8,0.4,1.9,1.1,2,1.7c0.1,0.6-1,1.4-2.1,2.7
		C1209.4,586.6,1208.7,585.8,1208.7,585z M1208.8,508.8c0.1-0.6,1.1-1.3,1.9-1.6c0.3-0.1,1.4,0.8,1.4,1.3c0,0.8-0.6,1.5-1.4,3
		C1209.7,510.1,1208.7,509.4,1208.8,508.8z M1211.9,497c0.7-0.5,1.4-1.3,2.2-1.5c0.6-0.1,1.3,0.6,3,1.4c-2.2,1-3,1.6-3.8,1.7
		C1212.8,498.6,1212.3,497.6,1211.9,497z M1218.3,488.1c-1.2-1.3-2.4-2-2.3-2.5c0.1-0.7,1-1.5,1.8-1.9c0.2-0.1,1.5,0.7,1.6,1.2
		C1219.5,485.6,1218.9,486.5,1218.3,488.1z M1216.8,333.4c-0.6-0.8-1.4-1.4-1.4-1.9c0-0.5,0.9-1.4,1.4-1.4c0.6,0,1.4,0.9,1.5,1.4
		C1218.3,332,1217.5,332.6,1216.8,333.4z M1215.4,459.1c-0.2,0.7-1.3,1.1-2.1,1.7c-0.6-0.7-1.5-1.4-1.5-2.1c0-0.6,1.1-1.3,2.2-2.5
		C1214.8,457.5,1215.6,458.4,1215.4,459.1z M1213,470.6c-1.5,1.1-2.4,2.3-3.3,2.2c-0.9,0-1.8-1.3-2.6-2c0.9-0.9,1.8-2.2,2.9-2.7
		C1210.4,468,1211.7,469.5,1213,470.6z M1208.1,202.5c-0.6-0.1-1-0.9-1.6-1.4c0.5-0.5,1-1.3,1.6-1.4c0.5,0,1.1,0.8,2,1.5
		C1209.2,201.8,1208.6,202.5,1208.1,202.5z M1208,558.4c-0.3,0.8-0.9,1.5-1.6,2c-0.2,0.1-1.1-0.6-2.2-1.3c1-0.8,1.5-1.5,2.3-1.8
		C1206.8,557.1,1208,558.2,1208,558.4z M1205.8,569.9c-1.5,1-2.9,2.4-3.4,2.1c-1.1-0.6-1.7-1.9-2.6-3c1-0.6,2-1.8,3-1.7
		C1203.8,567.4,1204.6,568.7,1205.8,569.9z M1198.1,579c0.9,0.7,2.4,1.3,2.6,2.2c0.2,0.8-1,1.9-2,3.6c-1.3-1.4-2.7-2.2-2.7-3
		C1196.1,580.8,1197.4,579.9,1198.1,579z M1200.7,723.4c0.2-1.2,2.4-3,3.6-2.9c1.2,0.1,3,2.2,3.1,3.4c0,1.2-1.9,2.5-3.7,4.6
		C1202.2,726.1,1200.5,724.6,1200.7,723.4z M1206.3,711.9c-0.1-0.2,0.7-1.5,1.2-1.5c0.8-0.1,1.6,0.4,3.3,1c-1.3,1.2-2,2.3-2.6,2.2
		C1207.5,713.5,1206.7,712.6,1206.3,711.9z M1209.7,662.1c0.2-0.8,1-1.4,1.7-2.5c0.8,1.1,1.6,1.9,1.5,2.1c-0.4,0.7-1.1,1.3-1.9,1.7
		C1210.8,663.5,1209.6,662.4,1209.7,662.1z M1216.3,562c-0.1-0.4,1.6-1.7,2.2-1.6c1,0.2,1.9,1.3,3.5,2.5c-1.8,1-3.1,2.1-3.9,1.9
		C1217.2,564.6,1216.5,563.1,1216.3,562z M1222.6,587.8c0.5,0,1.1,0.7,1.9,1.2c-0.7,0.7-1.1,1.2-1.6,1.7c-0.6-0.6-1.3-1.1-1.9-1.7
		C1221.5,588.6,1222,587.8,1222.6,587.8z M1224.2,741.8c0.5,0,1.1,0.8,1.9,1.4c-0.8,0.6-1.4,1.3-1.9,1.3c-0.6-0.1-1-0.9-1.5-1.4
		C1223.2,742.7,1223.7,741.9,1224.2,741.8z M1225.1,731.3c-0.1-0.8,1.2-1.8,2.4-3.2c1.1,1.5,2.3,2.5,2.2,3.4
		c-0.1,0.8-1.6,2.1-2.4,2.1C1226.5,733.5,1225.2,732.1,1225.1,731.3z M1228.3,527.6c0-0.5,0.8-1.1,1.4-1.9c0.7,0.8,1.5,1.4,1.4,1.9
		c0,0.5-0.9,1.3-1.5,1.4C1229.2,529,1228.3,528.1,1228.3,527.6z M1230.4,564.1c0.7-0.1,1.5,0.7,2.9,1.4c-1.2,1-1.9,2.1-2.5,2.1
		c-0.7,0-1.9-0.9-2-1.5C1228.8,565.4,1229.8,564.2,1230.4,564.1z M1233,555c0.2-0.8,0.9-1.4,1.7-2.4c0.8,1.1,1.7,1.9,1.6,2.1
		c-0.4,0.7-1.3,1.2-2,1.8C1233.8,556,1232.9,555.4,1233,555z M1237,390.9c-0.4,0.1-1.6-1-1.5-1.3c0.3-0.8,0.9-1.6,1.7-2
		c0.2-0.1,1.1,0.7,2.3,1.5C1238.4,389.9,1237.8,390.7,1237,390.9z M1239.5,504.7c-0.4,0.7-1.2,1.3-2,1.7c-0.2,0.1-1.4-1.1-1.3-1.5
		c0.2-0.8,1-1.4,1.7-2.4C1238.7,503.6,1239.6,504.5,1239.5,504.7z M1236.1,543.6c0-0.8,0.6-1.6,1.4-3.2c1.1,1.4,2.2,2.2,2.1,2.8
		c-0.1,0.7-1.2,1.4-2,1.7C1237.3,545,1236.1,544,1236.1,543.6z M1178.1,526.9c-0.8-0.8-2.2-1.7-2.2-2.6c-0.1-0.8,1.3-1.7,2.5-3.2
		c1.1,1.6,2.3,2.6,2.2,3.4C1180.4,525.4,1179,526.1,1178.1,526.9z M1181,562.4c-0.7,0.7-1.1,1.2-1.6,1.7c-0.6-0.6-1.3-1.1-1.9-1.7
		c0.5-0.5,1.1-1.2,1.6-1.3C1179.6,561.2,1180.2,561.9,1181,562.4z M1177.5,372.4c-0.6-0.8-1.4-1.4-1.4-1.9c0-0.5,0.9-1.3,1.4-1.3
		c0.5,0,1.3,0.8,1.4,1.3C1178.9,371,1178.1,371.6,1177.5,372.4z M1175.9,180.1c-0.7-0.1-1.4-1.2-1.8-1.9c-0.1-0.3,0.9-1.4,1.4-1.4
		c0.8,0,1.6,0.6,3.2,1.3C1177.3,179.1,1176.5,180.2,1175.9,180.1z M1175.5,190.1c-1.8,1.1-2.8,2.3-4,2.4c-0.7,0.1-2.4-2-2.2-2.3
		c0.6-1.1,1.8-2.2,3-2.6C1172.9,187.4,1174,188.9,1175.5,190.1z M1169.5,315.3c0.5,0.5,1.3,1,1.4,1.5c0.1,0.5-0.7,1-1.4,1.8
		c-0.7-0.8-1.5-1.4-1.4-1.9C1168.1,316.2,1169,315.7,1169.5,315.3z M1171.5,659.9c1.1,1.4,2.1,2.1,2,2.7c-0.1,0.7-1.2,1.3-2,1.7
		c-0.3,0.1-1.4-0.9-1.4-1.3C1170.1,662.2,1170.7,661.4,1171.5,659.9z M1172.5,534.7c1-0.6,2-1.8,3-1.7c0.9,0,1.7,1.4,3,2.6
		c-1.5,1-2.9,2.4-3.4,2.1C1174,537.1,1173.3,535.8,1172.5,534.7z M1175.9,687.8c0.5,0,1.4,0.9,1.4,1.3c0,0.5-0.9,1.3-1.4,1.4
		c-0.5,0-1.1-0.7-1.9-1.4C1174.8,688.6,1175.4,687.8,1175.9,687.8z M1174.4,682.6v-14.1c0.8-0.1,1.6-0.1,2.5-0.2
		c0.3,4.6,0.6,9.3,0.9,13.9L1174.4,682.6z M1177.7,639.2c0-0.5,0.8-1,1.5-1.8c0.6,0.8,1.4,1.4,1.3,1.8c-0.1,0.5-0.9,1-1.4,1.5
		C1178.6,640.1,1177.7,639.7,1177.7,639.2z M1179.8,676.2c0.5,0,1.1,0.8,1.9,1.4c-0.8,0.6-1.4,1.3-2,1.3c-0.5,0-1.4-0.9-1.3-1.3
		C1178.5,677.1,1179.3,676.2,1179.8,676.2z M1185.8,540.8c-0.4,0-0.9-1-1.3-1.6c0.7-0.5,1.4-1.3,2.2-1.5c0.6-0.1,1.3,0.6,3,1.4
		C1187.5,540.1,1186.7,540.7,1185.8,540.8z M1187.4,574.2c1,1.8,2.2,2.9,2,3.7c-0.3,0.8-1.8,1.6-2.9,1.8c-0.4,0.1-1.8-1.5-1.6-2.1
		C1185.1,576.6,1186.2,575.8,1187.4,574.2z M1189.1,501.6c-1.7,0.6-2.6,1.1-3.4,1c-0.5-0.1-1.4-1.3-1.3-1.6c0.4-0.7,1.3-1.7,2-1.7
		C1187.1,499.3,1187.8,500.4,1189.1,501.6z M1186.6,181.3c0-0.3,1.4-0.8,1.8-0.5c0.7,0.4,1.1,1.3,2.1,2.6c-1.7,0.2-2.9,0.7-3.4,0.3
		C1186.5,183.3,1186.5,182.1,1186.6,181.3z M1184,196.2c-0.8,0-2.3-1.3-2.4-2.2c-0.1-0.8,1.1-1.9,2.2-3.4c1.2,1.5,2.5,2.4,2.5,3.3
		C1186.2,194.7,1184.9,196.2,1184,196.2z M1184.4,551c0,0.5-0.9,1.3-1.4,1.3c-0.5,0-1.3-0.8-1.4-1.3c0-0.5,0.7-1.1,1.4-1.9
		C1183.6,550,1184.4,550.5,1184.4,551z M1181.6,589.1c0-0.4,0.9-1.3,1.4-1.3c0.5,0,1.1,0.7,1.9,1.3c-0.8,0.6-1.4,1.4-1.9,1.3
		C1182.5,590.5,1181.7,589.7,1181.6,589.1z M1183.8,664.2c0.9,1,1.8,1.8,1.7,2.1c-0.3,0.8-1.1,1.3-1.7,2c-0.5-0.5-1.6-1-1.5-1.4
		C1182.4,666.1,1183.1,665.4,1183.8,664.2z M1185.5,654.7c-0.1-0.3,1.1-1.5,1.3-1.4c0.8,0.4,1.5,1,1.9,1.7c0.1,0.3-0.7,1.1-1.5,2.1
		C1186.4,656.1,1185.7,655.5,1185.5,654.7z M1187.9,691.8c0.5,0,1.1,0.8,1.9,1.4c-0.8,0.6-1.4,1.3-2,1.3c-0.5,0-1.4-0.9-1.3-1.3
		C1186.5,692.7,1187.3,691.9,1187.9,691.8z M1188.8,566.7c0.1-0.9,1.4-2.2,2.2-2.3c0.8,0,2.2,1.3,2.3,2.1c0.1,0.8-1.1,1.8-2.2,3.3
		C1190,568.5,1188.7,567.5,1188.8,566.7z M1167.2,366.7c-0.8,0.6-1.4,1.3-2,1.3c-0.5,0-1.4-0.9-1.3-1.3c0-0.5,0.9-1.3,1.4-1.4
		C1165.8,365.3,1166.4,366.1,1167.2,366.7z M1158.7,186.3c0.1-0.8,0.9-1.5,1.8-3c0.9,1.5,1.8,2.4,1.7,3c-0.2,0.7-1.3,1.3-2.2,1.5
		C1159.7,187.9,1158.6,186.8,1158.7,186.3z M1159.7,312.7c-1.1,0.8-2,1.7-2.2,1.6c-0.8-0.4-1.4-1.1-1.8-1.9
		c-0.1-0.2,1.1-1.4,1.5-1.3C1157.9,311.3,1158.6,312,1159.7,312.7z M1152.9,367.3c7.4,0.9,12.1,1.5,17,2.2
		c-3.6,12.5-6.8,23.7-10.8,37.6c-2.1-5.7-3.3-8.7-4.7-12.6c-1.6,1.4-2.8,2.5-4,3.6C1151.1,388.4,1152,378.7,1152.9,367.3z
		 M1165.5,687.6c-0.2,1.1-0.3,2.2-0.5,3.3c-4.2-0.5-8.4-1-12.6-1.5l0.9-3.8C1157.3,686.2,1161.4,686.9,1165.5,687.6z M1162.3,685.4
		c0-0.5,0.7-1.1,1.4-1.9c0.6,0.8,1.4,1.4,1.4,1.9c0,0.5-0.9,1.3-1.4,1.3C1163.2,686.7,1162.3,685.9,1162.3,685.4z M1161.2,697
		c-0.1,0.5-0.9,1-1.4,1.5c-0.5-0.5-1.4-1-1.4-1.5c0-0.5,0.8-1,1.5-1.8C1160.4,695.9,1161.2,696.5,1161.2,697z M1143.4,626.7
		c0.8,0.1,1.5,0.8,2.7,1.5c-1.1,0.9-1.8,1.8-2.1,1.7c-0.8-0.4-1.4-1.1-2-1.7C1142.4,627.6,1142.9,626.7,1143.4,626.7z M1142.5,514.2
		c-0.4,0.1-1.4-1.2-1.3-1.4c0.5-0.7,1.1-1.4,1.9-1.7c0.3-0.1,1.1,0.8,2.1,1.6C1144,513.4,1143.3,514.1,1142.5,514.2z M1148.1,653.3
		c0.6-0.1,1.3,0.6,3,1.4c-2.2,1-3,1.6-3.8,1.7c-0.4,0-0.9-1-1.3-1.6C1146.6,654.3,1147.2,653.5,1148.1,653.3z M1155.9,630.7
		c0.5,0.5,1.3,1,1.3,1.6c0,0.5-0.8,1.1-2,2.6c-0.4-1-1.1-1.8-0.9-2.3C1154.5,631.9,1155.3,631.3,1155.9,630.7z M1153.5,554.8
		c0-0.5,0.8-1,1.5-1.9c0.6,0.8,1.4,1.4,1.3,1.8c-0.1,0.5-0.9,1-1.4,1.5C1154.4,555.8,1153.6,555.3,1153.5,554.8z M1154.7,518.2
		c-0.4,0.1-1-0.8-1.5-1.3c0.6-0.6,1.2-1.4,1.9-1.8c0.2-0.1,1.1,0.8,2.1,1.6C1156.2,517.3,1155.5,518,1154.7,518.2z M1154,479.7
		c-0.5-0.5-1.3-1-1.4-1.5c-0.1-0.5,0.7-1,1.4-1.8c0.7,0.8,1.5,1.4,1.4,1.9C1155.4,478.8,1154.5,479.2,1154,479.7z M1152.8,528.3
		c-0.8,0.6-1.4,1.4-2,1.4c-0.5,0-1.4-0.9-1.4-1.4c0-0.5,0.9-1.3,1.4-1.4C1151.4,526.9,1151.9,527.6,1152.8,528.3z M1151.8,565.5
		c0.4,0.1,0.5,1.2,1,2.4c-1.3,0-2.3,0.2-3-0.1c-0.4-0.2-0.4-1.2-0.5-1.9C1150.2,565.7,1151.1,565.3,1151.8,565.5z M1149.6,578.1
		c-0.7,0.7-1.4,1.7-1.5,1.6c-0.7-0.4-1.3-1-2-1.6c0.5-0.4,1-1.2,1.6-1.3C1148.2,576.8,1148.8,577.5,1149.6,578.1z M1149.9,643.1
		c-0.1-0.2,0.7-1.4,1.2-1.5c0.8-0.1,1.6,0.4,3.2,0.9c-1.3,1.2-1.9,2.2-2.5,2.2C1151.2,644.7,1150.4,643.8,1149.9,643.1z
		 M1159.4,583.6c-0.8-0.3-1.4-0.9-2-1.5c0.5-0.5,1-1.3,1.5-1.4c0.5-0.1,1.2,0.7,2,1.2C1160.2,582.7,1159.5,583.7,1159.4,583.6z
		 M1146.6,370.8c-3.4,13.8-6.9,27.5-11.1,44.2c5.7-6.4,10-11.2,14.3-16c-2.2,6.7-4.5,13.2-6.9,19.8c-0.8-0.3-1.6-0.5-2.3-0.8
		c-2.8,7.3-5.8,14.5-8.4,21.8c-2.6,7-5,14.1-7.4,21.2c-1.4-0.3-2.8-0.6-4.2-0.9c0.4-6.2,0.8-12.3,1.3-20.3c-2.6,3.5-4.3,5.6-7.4,9.7
		c-1.5-31.2-2.8-60.2-4.3-91.1c1.6,2.8,2.4,4.2,2.9,5.2c7-4.8,14.2-9.8,22.3-15.3c2.6,4.4,4.2,7.1,5.6,9.5
		c-3.3,8.6-6.3,16.6-9.3,24.6c0.5,0.3,1,0.7,1.4,1c3.5-4.5,7.1-9.1,10.6-13.6C1144.8,370.3,1145.7,370.5,1146.6,370.8z M1118.8,337
		c1.2,4.5,2.3,8.9,3.5,13.4c-1.7,0.4-3.5,0.8-5.2,1.3l-2.4-13.7C1116,337.6,1117.4,337.3,1118.8,337z M1115.3,274.3
		c-0.1-0.3,0.9-1.4,1.3-1.4c0.8,0,1.6,0.6,3.2,1.4c-1.4,1-2.2,2-2.8,1.9C1116.3,276.1,1115.6,275,1115.3,274.3z M1140.1,204
		c0.7,0.5,1.8,1.1,1.7,1.3c-0.3,0.7-0.9,1.3-1.4,2c-0.5-0.5-1.3-0.9-1.4-1.4C1138.9,205.4,1139.6,204.8,1140.1,204z M1133.1,265
		c0.7-0.1,1.4,1,2.9,2.1c-1.6,0.7-2.5,1.3-3.3,1.3c-0.5,0-1.5-1.2-1.4-1.4C1131.7,266.1,1132.4,265,1133.1,265z M1129.1,238.7
		c0.5-0.1,1.1,0.6,1.9,1.1c-0.5,0.7-1.2,1.7-1.3,1.7c-0.8-0.3-1.4-0.9-2.1-1.4C1128.1,239.6,1128.5,238.8,1129.1,238.7z
		 M1128.8,275.6c1.1,1.4,2.2,2.1,2.1,2.8c-0.1,0.7-1.2,1.4-2,1.7c-0.3,0.1-1.5-0.8-1.5-1.3C1127.4,277.9,1128.1,277.1,1128.8,275.6z
		 M1125.4,250.4c0.4,0.5,1.2,1.1,1.1,1.6c0,0.5-0.8,1-1.4,1.7c-0.6-0.7-1.6-1.4-1.5-1.6C1124,251.4,1124.7,250.9,1125.4,250.4z
		 M1126,262.9c-3,1.9-4.4,3.2-4.9,3c-1.1-0.6-1.7-2-2.6-3c1-0.6,2-1.7,3-1.7C1122.6,261.1,1123.8,262,1126,262.9z M1117.4,234.7
		c0.5-0.1,1.3,0.6,2.8,1.3c-2.1,1-2.8,1.6-3.7,1.6c-0.4,0-0.9-1-1.3-1.5C1116,235.6,1116.6,234.9,1117.4,234.7z M1112.9,246.5
		c0.5-0.1,1.1,0.6,1.9,1.1c-0.5,0.7-1.2,1.7-1.3,1.7c-0.8-0.3-1.4-0.9-2.1-1.4C1112,247.4,1112.4,246.6,1112.9,246.5z M1108.5,257.5
		c1,0.2,2.5,1,2.7,1.9c0.2,0.8-1,1.8-2.1,3.5c-1.1-1.6-2.2-2.4-2.3-3.4C1106.7,258.9,1108.1,257.4,1108.5,257.5z M1105,270
		c0.5,0,1.1,0.8,2,1.5c-0.9,0.6-1.5,1.4-2,1.3c-0.6-0.1-1-0.9-1.6-1.4C1104,270.9,1104.5,270,1105,270z M1100.7,245.6
		c-0.6-0.1-1.3-1.2-1.5-2c-0.1-0.3,1-1.3,1.5-1.3c0.8,0.1,1.5,0.8,3,1.6C1102.2,244.8,1101.4,245.7,1100.7,245.6z M1105.5,308.1
		c0.8,0.1,1.5,0.8,2.6,1.4c-1.1,0.9-1.8,1.8-2.1,1.7c-0.8-0.3-1.3-1.1-2-1.7C1104.5,309,1105.1,308,1105.5,308.1z M1104.6,228.9
		c1.3,1.6,2.4,2.4,2.6,3.3c0.1,0.6-1.2,2.2-1.6,2.2c-1.1-0.2-2.6-0.9-2.9-1.7C1102.5,232,1103.7,230.7,1104.6,228.9z M1100.9,204.3
		c0.5,0.5,1.4,1,1.4,1.5c0,0.5-0.8,1.1-1.5,1.9c-0.6-0.8-1.4-1.4-1.4-1.9C1099.5,205.3,1100.4,204.8,1100.9,204.3z M1097.1,215.9
		c0.3-0.1,1.1,0.7,2.2,1.5c-1.1,0.7-1.7,1.5-2.5,1.6c-0.4,0.1-1.5-1.1-1.5-1.3C1095.7,217,1096.4,216.2,1097.1,215.9z M1098.3,255.8
		c0.1,0.5-0.7,1-1.4,1.8c-0.6-0.8-1.5-1.4-1.4-1.9c0.1-0.5,0.9-1,1.4-1.4C1097.5,254.8,1098.3,255.3,1098.3,255.8z M1092.9,227.8
		c0.5,0,1.1,0.7,2.5,1.8c-1,0.5-1.8,1.1-2.3,1c-0.7-0.2-1.2-1-1.8-1.6C1091.9,228.5,1092.4,227.8,1092.9,227.8z M1026.9,734.1
		c-0.9-2.9-1.8-5.8-2.7-8.7c1-0.3,1.9-0.7,2.9-1l3.4,8.4C1029.3,733.2,1028.1,733.7,1026.9,734.1z M927.9,697l22-341.5l8.1-15.8
		l11.8-132.6l16.9-3.7l11.5,5.9l33.6,270.2l8.2,4l21.2,218.7C1016.2,700.4,971.8,698.7,927.9,697z M1082.3,324.7
		c2.2-6.6,4.5-13.1,6.7-19.7c1.1,0.3,2.2,0.7,3.3,1c-0.1,0-0.2-0.1-0.2-0.1c0.3-0.6,0.7-1.1,1.1-1.9c0.7,0.5,1.6,0.8,1.7,1.3
		c0.1,0.5-0.4,1.2-0.6,1.8c-0.5-0.3-1-0.5-1.5-0.8c1.3,5.3,2.6,10.7,4.6,19c0-0.3-0.5,2.6-1,5.4c1.2,1.2,2.5,2.3,3.7,3.5
		c4-5,8-10.1,12.6-15.9c5.7,10.6,0.8,17.8-27.5,40.9c-0.3-5.2-0.6-9.5-0.9-14.5c-2.1-1.1-5-2.5-9.1-4.6c3.8-5.1,7.3-9.7,10.8-14.3
		L1082.3,324.7z M1108.5,385.9c-0.7,0.7-1.1,1.2-1.6,1.7c-0.6-0.6-1.3-1.1-1.9-1.7c0.5-0.5,1.1-1.2,1.6-1.3
		C1107.2,384.6,1107.8,385.4,1108.5,385.9z M1104.1,398.3c0,0.4-1,0.9-1.6,1.3c-0.5-0.7-1.3-1.3-1.5-2.1c-0.1-0.5,0.6-1.3,1.4-2.8
		C1103.4,396.8,1104,397.5,1104.1,398.3z M1096.3,382.3c-0.8,0.6-1.4,1.3-1.9,1.3c-0.5,0-1.4-0.9-1.4-1.3c0-0.5,0.9-1.3,1.4-1.4
		C1094.9,380.9,1095.5,381.7,1096.3,382.3z M1088,637.4c-0.5,0-1.3-0.9-1.4-1.4c0-0.4,0.8-1.3,1.4-1.3c0.5,0,1.1,0.7,1.9,1.3
		C1089.1,636.7,1088.5,637.4,1088,637.4z M1087.9,581.2l2.3,3.7h-7.4v70.1c-1.4,0-2.8,0-4.2,0c0-25.9-2.1-52,1-77.6
		c1.3-10.2,14.1-19,24.6-26.5c0.6-7.7,1.2-15.4,1.8-23.1c0.8,0.5,1.6,0.9,2.4,1.4c14-30,28-60,41.6-89.1v29.8
		c-6.9,12-13.1,22.7-19.7,34.1c4,0.3,7.7,0.5,14.1,1c-5.5,4.4-9.3,7.6-14.6,11.9c-0.7,4.8-1.7,11.2-2.9,18.9
		c4,3.1,8.1,6.4,15.3,12.1c-5.7-1.2-7.5-1.6-10.8-2.4c0.8,4.3,1.5,8.1,2.1,11.8c-1.3,1.2-2.6,2.4-3.8,3.7
		c-2.2-5.7-4.3-11.4-6.5-17.2l-5,4.3c0.6,2.9,1.3,5.9,2.5,11.6c-1.7-1.2-3.2-2.2-4.5-3.1c-0.3,0.3-0.6,0.5-0.9,0.5
		c-0.5,0-1.4-0.9-1.4-1.4c0-0.2,0.1-0.3,0.2-0.5c-1.4-0.9-2.6-1.8-3.8-2.6c-0.7,1.7-1.9,4.4-3.2,7.5c2.8,1.5,5.8,3.2,6.2,3.4
		c-0.7,0.5-1.4,1-2.1,1.5c0.7,0.5,1.5,0.7,1.6,1.2c0.2,0.5-0.4,1.3-0.6,1.9c-0.8-0.4-1.6-0.8-2.3-1.2c0.3-0.5,0.6-1,0.9-1.5
		C1103.4,570.4,1095.7,575.8,1087.9,581.2z M1140.9,562.6c0,0.5-0.9,1-1.4,1.5c-0.5-0.5-1.3-1-1.4-1.5c-0.1-0.5,0.7-1,1.4-1.8
		C1140.1,561.6,1141,562.1,1140.9,562.6z M1129,597.9c0.1,0.5-0.8,1.1-1.4,1.9c-0.7-0.8-1.5-1.4-1.4-1.9c0.1-0.5,0.9-1,1.5-1.5
		C1128.1,596.9,1128.9,597.4,1129,597.9z M1124.3,646c0.6,0.8,1.4,1.4,1.4,1.9c0,0.5-0.9,1.4-1.4,1.3c-0.5,0-1.4-0.8-1.4-1.3
		C1122.9,647.4,1123.7,646.8,1124.3,646z M1122,608.9c0-0.5,0.9-1.3,1.4-1.4c0.5,0,1.1,0.7,1.9,1.4c-0.8,0.6-1.4,1.3-1.9,1.3
		C1122.9,610.1,1122,609.3,1122,608.9z M1111.6,607.3c-0.7,0-1.5-0.9-1.9-1.6c-0.1-0.2,0.7-1.4,1.2-1.5c0.8-0.1,1.6,0.4,3.2,0.9
		C1112.9,606.2,1112.2,607.3,1111.6,607.3z M1114,682.3c-0.8,0.6-1.4,1.3-1.9,1.3c-0.5,0-1.4-0.9-1.3-1.3c0-0.5,0.9-1.3,1.4-1.4
		C1112.7,680.9,1113.2,681.7,1114,682.3z M1108.3,654.3c0.5,0,1,0.8,1.8,1.4c-0.7,0.6-1.5,1.5-1.6,1.4c-0.7-0.4-1.2-1.1-1.8-1.7
		C1107.3,655,1107.8,654.2,1108.3,654.3z M1106.6,616.4c0.5-0.5,1-1.3,1.6-1.3c0.5,0,1.1,0.7,1.9,1.3c-0.6,0.7-1.4,1.7-1.5,1.6
		C1107.9,617.6,1107.3,617,1106.6,616.4z M1113.8,593.8c0.5-0.5,0.9-1.2,1.5-1.3c0.5,0,1.1,0.6,1.9,1.1c-0.6,0.7-1.2,1.7-1.4,1.6
		C1115.1,594.9,1114.5,594.3,1113.8,593.8z M1116.1,630.6c0.6-0.1,1.4,0.8,2.9,1.6c-1.5,0.8-2.2,1.5-3,1.6c-0.4,0.1-1.5-1-1.4-1.2
		C1114.9,631.8,1115.5,630.8,1116.1,630.6z M1117.9,621c-0.1-0.8,0.4-1.6,1-3.2c1.2,1.3,2.3,1.9,2.3,2.5c0,0.7-1,1.5-1.7,1.9
		C1119.2,622.3,1117.9,621.5,1117.9,621z M1120,656.5c0.9,1,1.7,1.6,1.9,2.3c0.1,0.3-1,1.6-1.3,1.5c-0.8-0.3-1.6-0.9-2.1-1.6
		C1118.4,658.5,1119.2,657.6,1120,656.5z M1106.5,628.2c-1.1,0.8-1.7,1.5-2.6,1.7c-0.4,0.1-1.5-1.1-1.4-1.3c0.4-0.8,1-1.5,1.8-1.9
		C1104.6,626.5,1105.4,627.4,1106.5,628.2z M1102,677.9c-0.6,0.7-1,1.3-1.4,1.8c-0.7-0.5-1.4-1-2.1-1.5c0.5-0.5,0.9-1.2,1.5-1.3
		C1100.6,676.8,1101.2,677.4,1102,677.9z M1098,651.4c-0.6,0.7-1.3,1.7-1.4,1.7c-0.8-0.3-1.4-1-2.1-1.5c0.5-0.5,1-1.3,1.5-1.3
		C1096.5,650.2,1097.2,650.9,1098,651.4z M1096.2,730.7c-0.7,0-2.1-2.2-1.9-2.6c0.7-1,2-2.1,3.3-2.3c0.7-0.1,1.6,1.5,3,2.9
		C1098.6,729.7,1097.4,730.7,1096.2,730.7z M1100.8,718c-0.5,0-1.4-0.9-1.4-1.4c0-0.5,0.9-1.4,1.4-1.4c0.5,0,1.1,0.8,1.9,1.4
		C1102,717.3,1101.4,718,1100.8,718z M1104.1,668c-0.5,0-1.4-0.8-1.4-1.4c0-0.5,0.8-1.1,1.4-1.9c0.7,0.8,1.5,1.4,1.4,1.9
		C1105.5,667.1,1104.6,668,1104.1,668z M1112,732.8c-1.2,0.6-2.4,1.7-3.6,1.7c-0.7,0-2.2-2.2-2-2.5c0.7-1.1,2-2.1,3.2-2.4
		c1.1-0.2,2.4,0.7,3.6,1.2C1112.8,731.5,1112.4,732.2,1112,732.8z M1116.6,752.6c-1.4-2.5-2.7-3.8-2.6-5.2c0-1,2.3-2.9,2.8-2.7
		c1.4,0.5,3.2,1.9,3.4,3.2C1120.3,749,1118.4,750.3,1116.6,752.6z M1121.4,738.3c-0.8,0.1-2.4-1.1-2.6-2c-0.2-0.8,1-1.9,1.9-3.6
		c1.3,1.4,2.7,2.2,2.7,3.1C1123.5,736.7,1122.2,738.2,1121.4,738.3z M1123.8,727.1c-0.5-1.1-1.2-1.9-1-2.4c0.2-0.7,1.1-1.2,1.7-1.8
		c0.4,0.5,1.2,1.1,1.2,1.6C1125.8,725,1125.1,725.6,1123.8,727.1z M1127.3,634.5c0.7,0.4,1.4,1.1,1.8,1.9c0.1,0.3-0.8,1-1.7,2
		c-0.7-1.1-1.4-1.8-1.5-2.6C1125.8,635.4,1127.2,634.4,1127.3,634.5z M1128.1,676.7c-0.6-1.1-1.3-1.8-1.4-2.5c0-0.4,0.9-0.9,1.4-1.4
		c0.6,0.6,1.3,1.2,1.7,2C1130,675,1129,675.7,1128.1,676.7z M1131.5,623.1c0.5,0,1.1,0.7,1.9,1.4c-0.8,0.6-1.4,1.4-1.9,1.3
		c-0.5,0-1.4-0.9-1.4-1.3C1130.1,624,1130.9,623.1,1131.5,623.1z M1132,742.7c-0.7-1.5-1.3-2.3-1.2-3c0-0.5,1.2-1.4,1.4-1.3
		c0.8,0.3,1.8,1,1.9,1.7C1134.1,740.7,1133.1,741.4,1132,742.7z M1135.7,731c-0.6-1.7-1.1-2.5-1-3.3c0.1-0.5,1.4-1.4,1.6-1.2
		c0.8,0.4,1.8,1.2,1.8,1.9C1138.1,729.1,1137,729.7,1135.7,731z M1137.1,665.7c-0.7-0.8-1.5-1.6-2.2-2.4c-1.1,0.8-1.9,1.6-2.6,1.5
		c-0.9-0.1-2.2-1.5-2.2-2.3c0-0.7,1.2-1.8,2-2.1c-0.2-0.3-0.5-0.5-0.7-0.8c1.1-0.8,2.2-1.6,3.3-2.4c1.6,2.1,3.2,4.2,4.8,6.2
		C1138.7,664.3,1137.9,665,1137.1,665.7z M1139.8,641.5c-0.8-0.3-1.3-1-2-1.6c0.5-0.5,1-1.5,1.4-1.4c0.8,0.1,1.5,0.8,2.6,1.5
		C1140.9,640.8,1140.2,641.7,1139.8,641.5z M1144.3,745.6c-0.8-0.8-2.1-1.6-2.2-2.5c-0.1-0.8,1.3-1.7,2.5-3.2c1,1.6,2.3,2.6,2.1,3.4
		C1146.5,744.1,1145.1,744.8,1144.3,745.6z M1148.2,734.8c-1-0.1-1.9-1.8-2.8-2.8c1-0.9,2.1-2.5,3.2-2.5c1,0,2.1,1.5,3.7,2.9
		C1150.5,733.5,1149.2,734.9,1148.2,734.8z M1152.9,721.8c-0.8-0.3-1.4-0.9-2.1-1.4c0.5-0.5,0.9-1.3,1.5-1.4c0.5-0.1,1.2,0.6,2,1.1
		C1153.8,720.8,1153.1,721.9,1152.9,721.8z M1156.6,786.7c-0.5,0-1.4-0.8-1.4-1.3c0-0.5,0.8-1.1,1.4-1.9c0.6,0.8,1.4,1.4,1.4,1.9
		C1157.9,785.9,1157,786.7,1156.6,786.7z M1156.9,748.6c-0.8-0.3-1.6-0.9-2.1-1.6c-0.1-0.2,0.7-1.1,1.5-2.2c0.8,1,1.6,1.6,1.9,2.3
		C1158.3,747.4,1157.1,748.6,1156.9,748.6z M1160.8,740.2c-1.8-2.4-3.4-3.6-3.5-4.9c-0.1-1,1.9-3.2,2.6-3c1.5,0.3,3.5,1.6,3.8,2.8
		C1164,736.1,1162.3,737.7,1160.8,740.2z M1164.2,726.9c-0.8-0.9-2.1-1.7-2.2-2.7c-0.1-0.9,1.2-1.8,2.3-3.3c1.3,1.4,2.9,2.5,2.7,3
		C1166.5,725.1,1165.2,726,1164.2,726.9z M1167.4,715.3c-0.5-1.1-1.2-1.9-1-2.4c0.2-0.7,1.1-1.2,1.7-1.8c0.4,0.5,1.2,1,1.2,1.6
		C1169.3,713.2,1168.6,713.8,1167.4,715.3z M1162.3,671.6c-0.2-1.2-0.4-2.5-0.6-3.7c2.7-0.2,5.3-0.4,8-0.7c0.2,1.1,0.3,2.2,0.5,3.3
		C1167.5,670.9,1164.9,671.3,1162.3,671.6z M1173.1,735.9c0.9,1.5,2.3,3,2,3.4c-0.7,1-2.1,1.6-3.3,2.4c-0.6-1-1.7-2.1-1.6-3
		C1170.3,737.8,1171.7,737.1,1173.1,735.9z M1172.9,779c-0.8-0.3-1.3-1-2-1.6c0.5-0.5,1-1.4,1.4-1.4c0.8,0.1,1.5,0.7,2.6,1.4
		C1173.9,778.2,1173.2,779.1,1172.9,779z M1176.5,768.3c-0.2,0.1-1.5-0.7-1.5-1.2c-0.1-0.8,0.5-1.6,1-3.1c1.2,1.3,2.3,1.9,2.2,2.5
		C1178.2,767.1,1177.3,767.9,1176.5,768.3z M1175.5,730.4c-1.1-0.1-2.9-2-2.8-2.8c0.2-1.4,1.8-2.5,3.7-4.9c1.3,2.7,2.5,4.2,2.4,5.5
		C1178.7,729.1,1176.6,730.6,1175.5,730.4z M1179.9,719c-0.4,0.2-2.6-1.3-2.6-2c0.1-1.2,1.2-2.3,2.3-4.1c1.4,1.4,3,2.4,2.8,3
		C1182.1,717.2,1181,718.4,1179.9,719z M1183.5,745.7c-0.5-1-1.3-1.8-1.1-2.2c0.3-0.7,1.2-1.2,1.8-1.8c0.4,0.5,1.2,1.1,1.2,1.6
		C1185.4,743.8,1184.6,744.3,1183.5,745.7z M1188.1,733.8c-1-0.1-1.8-1.3-2.8-2.1c1-0.9,1.8-2.2,3-2.7c0.5-0.2,1.7,1.3,3.1,2.5
		C1189.9,732.6,1189,733.9,1188.1,733.8z M1191.9,723.5c-1.3-1.8-2.9-3.1-2.8-4c0.2-1.1,1.9-2.2,3.1-2.6c0.5-0.2,2.4,1.6,2.3,2.4
		C1194.5,720.5,1193.2,721.6,1191.9,723.5z M1195.4,594.8c-0.7,0-1.5-0.9-1.9-1.6c-0.1-0.2,0.7-1.4,1.2-1.5c0.8-0.1,1.6,0.4,3.2,0.9
		C1196.6,593.7,1196,594.8,1195.4,594.8z M1197.8,735.4c0-0.8,1.3-2.2,2.2-2.3c0.8-0.1,1.9,1.1,3.4,2.1c-1.5,1.1-2.4,2.4-3.3,2.3
		C1199.2,737.5,1197.8,736.2,1197.8,735.4z M1204.5,763.2c-0.8-0.3-1.4-0.9-2.1-1.4c0.5-0.5,0.9-1.3,1.5-1.4c0.5-0.1,1.2,0.6,2,1.1
		C1205.3,762.3,1204.7,763.3,1204.5,763.2z M1208.4,790.6c-0.7-0.3-1.2-1.1-1.8-1.7c0.5-0.4,1.1-1.1,1.6-1.1c0.5,0,1.1,0.7,2.4,1.7
		C1209.6,790,1208.8,790.7,1208.4,790.6z M1211.9,740.9c-0.5-0.5-1.5-1-1.5-1.5c0.1-0.8,0.8-1.5,1.5-2.6c0.9,1,1.9,1.8,1.7,2.1
		C1213.3,739.7,1212.5,740.3,1211.9,740.9z M1216,768c-0.7-1.1-1.4-1.8-1.5-2.5c-0.1-0.4,1.2-1.4,1.4-1.3c0.7,0.4,1.4,1.1,1.7,1.8
		C1217.8,766.3,1216.9,767,1216,768z M1219.8,755.7c-0.2,0.1-1.4-1-1.3-1.4c0.2-0.8,0.9-1.4,1.7-2.5c0.8,1.1,1.8,1.9,1.6,2.2
		C1221.4,754.7,1220.6,755.3,1219.8,755.7z M1219.4,717.5c-0.7-0.1-1.3-1.2-2-1.8c0.7-0.6,1.3-1.7,2-1.8c0.7-0.1,1.5,0.9,2.7,1.8
		C1220.9,716.6,1220,717.6,1219.4,717.5z M1224.3,783c-0.8-0.4-1.4-1.2-1.8-2c-0.1-0.1,1.1-1.3,1.5-1.3c0.8,0.2,1.4,0.9,2.5,1.7
		C1225.4,782.3,1224.6,783.1,1224.3,783z M1228,771.2c-0.5-0.5-1.3-0.9-1.4-1.4c-0.1-0.5,0.6-1.1,1.1-1.9c0.7,0.5,1.8,1.2,1.7,1.3
		C1229.2,770,1228.6,770.6,1228,771.2z M1231,761.2c-1-1.6-2.1-2.7-2-3.5c0.2-0.9,1.7-1.5,2.6-2.2c0.7,0.9,2,1.8,2,2.7
		C1233.6,759,1232.3,759.9,1231,761.2z M1231.6,722c-1.1-0.5-1.8-1.9-2.7-2.9c1-0.7,2-1.8,2.9-1.8c0.9,0,1.7,1.3,3.1,2.4
		C1233.4,720.8,1232.1,722.2,1231.6,722z M1233.1,631.3c-0.1-0.5,0.8-1.1,1.4-1.9c0.7,0.8,1.5,1.4,1.5,1.9c-0.1,0.5-0.9,1-1.5,1.5
		C1234,632.4,1233.2,631.9,1233.1,631.3z M1235.8,710.7c-1.1-1.4-2.2-2.2-2.1-2.8c0.1-0.7,1.2-1.4,2-1.7c0.3-0.1,1.5,0.9,1.5,1.3
		C1237.1,708.4,1236.5,709.2,1235.8,710.7z M1234,594.8c-0.5-0.1-1.4-1.3-1.3-1.6c0.4-0.7,1.3-1.7,2-1.7c0.6,0,1.3,1.1,2.7,2.3
		C1235.7,594.3,1234.9,594.9,1234,594.8z M1236.8,581.1c0.7-0.5,1.4-1.5,2.1-1.5c0.7,0,1.3,1,2.5,2.1c-1.4,0.7-2.3,1.5-3,1.3
		C1237.8,582.9,1237.3,581.8,1236.8,581.1z M1241.3,696.2c-0.7,0.6-1.5,1.5-1.7,1.4c-0.7-0.4-1.2-1.1-1.7-1.7
		c0.5-0.4,1.1-1.1,1.6-1.1C1240.1,694.9,1240.6,695.7,1241.3,696.2z M1239.6,776.4c-1-1.7-1.6-2.3-1.7-3.1c0-0.4,0.9-1.2,1.4-1.3
		c0.5,0,1.6,0.7,1.6,1.1C1240.9,773.9,1240.4,774.6,1239.6,776.4z M1244,764.3c-1.2-0.3-2.5-1.4-3.1-2.5c-0.2-0.4,1.4-2.5,2.1-2.5
		c1.2,0.1,2.4,1.2,4.2,2.2C1245.7,762.9,1244.6,764.5,1244,764.3z M1247.1,752.9c-0.7-1.5-1.3-2.3-1.3-3.1c0-0.5,1.2-1.4,1.4-1.3
		c0.8,0.3,1.9,1,2,1.7C1249.3,750.8,1248.2,751.5,1247.1,752.9z M1250,700.1c0.5-0.5,0.9-1.2,1.5-1.4c0.5-0.1,1.1,0.5,2,0.9
		c-0.5,0.8-0.9,1.3-1.3,1.9C1251.4,701.1,1250.7,700.6,1250,700.1z M1255.5,768.2c-0.9-0.2-1.7-1.5-2.5-2.3c1-0.8,2-2,3.2-2.3
		c0.5-0.1,1.6,1.5,2.8,2.9C1257.4,767.2,1256.3,768.3,1255.5,768.2z M1259.7,794.2c-0.7-0.7-1.1-1.2-1.6-1.6
		c0.6-0.6,1.2-1.1,1.8-1.7c0.4,0.5,1.1,1,1.1,1.6C1261,792.9,1260.3,793.4,1259.7,794.2z M1275.8,744.9c0.5,0,1.1,0.8,1.9,1.4
		c-0.8,0.6-1.4,1.3-1.9,1.3c-0.6-0.1-1-0.9-1.5-1.3C1274.8,745.8,1275.2,745,1275.8,744.9z M1270.9,718.4c0.5,0,1.1,0.8,1.9,1.4
		c-0.8,0.6-1.4,1.3-1.9,1.3c-0.6-0.1-1-0.9-1.5-1.3C1269.9,719.3,1270.4,718.4,1270.9,718.4z M1267.5,771.2c-0.4,0.1-1-0.8-1.5-1.3
		c0.6-0.6,1.2-1.4,1.9-1.8c0.3-0.1,1.1,0.8,2.1,1.6C1268.9,770.4,1268.3,771.1,1267.5,771.2z M1272.1,760.5c-1.2-0.4-2.4-1.5-3-2.6
		c-0.2-0.4,1.5-2.4,2.2-2.4c1.2,0.1,2.3,1.3,4.1,2.4C1273.9,759.2,1272.7,760.7,1272.1,760.5z M1275.8,785.8c-0.5,0-1-0.9-1.5-1.4
		c0.5-0.5,1-1.3,1.5-1.3c0.5-0.1,1.1,0.7,1.9,1.3C1276.8,785.1,1276.3,785.8,1275.8,785.8z M1277.9,583.1c-0.7-0.1-1.3-1.3-1.6-2.1
		c-0.1-0.3,1.1-1.4,1.5-1.3c0.8,0.1,1.6,0.8,3.1,1.7C1279.5,582.3,1278.6,583.2,1277.9,583.1z M1329.8,621.2
		c0.3-0.1,1.1,0.8,2.2,1.6c-1.1,0.7-1.7,1.5-2.5,1.6c-0.4,0.1-1.6-1.1-1.5-1.3C1328.4,622.4,1329,621.6,1329.8,621.2z M1332.8,738.3
		c-1,0.8-1.6,1.6-2.4,1.8c-0.4,0.1-1.6-1-1.6-1.2c0.4-0.8,1-1.6,1.7-2.1C1330.8,736.7,1331.7,737.5,1332.8,738.3z M1317.2,616.2
		c1.1,1.4,2.1,2.1,2.1,2.7c-0.1,0.7-1.1,1.4-1.9,1.7c-0.3,0.1-1.4-0.8-1.4-1.3C1315.9,618.5,1316.5,617.7,1317.2,616.2z
		 M1314.4,626.8c1.2,1.9,2.7,3.1,2.5,4c-0.2,1-1.9,2-3.2,2.2c-0.5,0.1-2.2-1.7-2.1-2.5C1311.8,629.5,1313.1,628.6,1314.4,626.8z
		 M1316.8,746c-0.3,0.8-1.1,1.3-1.8,2c-0.5-0.5-1.5-1-1.5-1.5c0.1-0.8,0.8-1.5,1.5-2.6C1315.9,745,1316.9,745.7,1316.8,746z
		 M1313.5,757.9c-1.1,0.7-1.7,1.5-2.5,1.6c-0.4,0.1-1.5-1.1-1.5-1.3c0.4-0.7,1-1.5,1.8-1.8C1311.6,756.2,1312.4,757.1,1313.5,757.9z
		 M1311.7,642.3c0,0.5-0.9,1-1.4,1.5c-0.5-0.5-1.3-1-1.4-1.5c-0.1-0.5,0.7-1,1.4-1.8C1310.9,641.2,1311.7,641.8,1311.7,642.3z
		 M1306.1,617.5c-0.7-0.2-1.1-1.3-1.7-2c0.7-0.5,1.4-1.5,2.1-1.5c0.7,0,1.3,1,2.5,2.1C1307.7,616.8,1306.7,617.7,1306.1,617.5z
		 M1288.2,790c-0.8-0.3-1.6-0.9-2.1-1.6c-0.2-0.2,0.7-1.1,1.4-2.2c0.9,1,1.7,1.6,1.9,2.3C1289.6,788.8,1288.4,790.1,1288.2,790z
		 M1299.3,794.5c-0.9,0-1.8-1.2-2.8-1.9c0.7-0.9,1.3-2.3,2.2-2.5c0.8-0.2,2,1,3.6,1.9C1301,793.2,1300.2,794.5,1299.3,794.5z
		 M1302.6,782.7c-0.8-0.2-1.6-1.7-1.7-2.7c-0.1-0.4,1.5-1.7,2.1-1.5c1,0.2,1.8,1.2,3.3,2.4C1304.6,781.8,1303.5,782.9,1302.6,782.7z
		 M1305.2,768.6c0.7-0.5,1.4-1.5,2.1-1.5c0.7,0,1.3,1,2.5,2.1c-1.4,0.7-2.3,1.5-3,1.4C1306.2,770.4,1305.7,769.3,1305.2,768.6z
		 M1310.8,799.5c-1-1.7-2.1-2.9-1.9-3.6c0.3-0.8,1.7-1.6,2.8-1.8c0.4-0.1,1.7,1.5,1.6,2C1313.1,797.1,1312,797.9,1310.8,799.5z
		 M1315.3,786.2c-0.7,0-1.6-1-2-1.7c-0.1-0.2,0.7-1.5,1.3-1.6c0.8-0.1,1.7,0.4,3.4,1C1316.6,785.1,1316,786.2,1315.3,786.2z
		 M1319.5,775.1c-0.9,0-2.4-1.2-2.5-2c-0.1-0.8,1.1-2.3,2-2.4c0.8-0.2,2,0.9,3.6,1.9C1321.2,773.7,1320.3,775.1,1319.5,775.1z
		 M1323.7,762.3c-0.8-0.3-1.4-0.9-2.1-1.3c0.5-0.5,0.9-1.3,1.4-1.4c0.5-0.1,1.2,0.5,2,1C1324.5,761.4,1323.9,762.4,1323.7,762.3z
		 M1323.9,634.3c0-0.7,1.1-1.3,2.2-2.5c0.7,1.4,1.6,2.3,1.4,2.9c-0.2,0.7-1.4,1.6-2,1.5C1324.8,636.2,1323.9,635,1323.9,634.3z
		 M1327.4,790c-0.7-0.4-1.4-1.1-1.7-1.9c-0.1-0.2,1.1-1.4,1.5-1.3c0.8,0.2,1.4,0.9,2.4,1.7C1328.5,789.3,1327.7,790.2,1327.4,790z
		 M1331.5,779.4c-1.1-1.4-2.1-2.1-2-2.7c0.1-0.7,1.2-1.3,2-1.6c0.3-0.1,1.4,0.8,1.4,1.3C1332.9,777.1,1332.3,777.9,1331.5,779.4z
		 M1335.9,638.3c0.1-0.6,1.3-1.5,2-1.5c0.7,0,1.3,1.1,2.6,2.1c-1.4,0.7-2.4,1.5-3,1.4C1336.7,640.1,1335.8,638.9,1335.9,638.3z
		 M1342.6,740.7c0.4-0.1,1.6,1,1.5,1.2c-0.4,0.8-0.9,1.6-1.7,2c-0.2,0.1-1.1-0.7-2.2-1.4C1341.2,741.7,1341.8,741,1342.6,740.7z
		 M1338,751.6c0.8-0.1,1.7,0.5,3.4,1c-1.3,1.2-2,2.3-2.7,2.3c-0.7-0.1-1.6-1-2-1.8C1336.6,753,1337.5,751.7,1338,751.6z M1339.5,794
		c-0.6,0.1-1.8-0.9-2-1.5c-0.2-0.6,0.7-1.5,1.4-2.9c1.1,1.2,2.1,1.8,2.1,2.5C1341.1,792.8,1340.1,793.9,1339.5,794z M1342.3,782.3
		c-0.3,0.1-1.4-0.8-1.4-1.3c0-0.8,0.6-1.6,1.3-3.1c1.1,1.4,2.1,2.1,2.1,2.7C1344.2,781.3,1343.1,782,1342.3,782.3z M1341.2,628.8
		c-0.8-0.3-1.5-1.8-1.6-2.8c-0.1-0.4,1.6-1.6,2.2-1.4c1,0.3,1.8,1.3,3.3,2.7C1343.2,628.1,1342,629.1,1341.2,628.8z M1349.5,639.9
		c1,0.9,2.3,1.7,2.7,2.8c0.2,0.5-1.4,1.6-2.6,3c-1.1-1.4-2.3-2.3-2.2-3.2C1347.4,641.6,1348.7,640.8,1349.5,639.9z M1350.2,798.2
		c-0.7-1.5-1.3-2.3-1.3-3.1c0-0.5,1.2-1.4,1.4-1.3c0.8,0.3,1.9,1,2,1.7C1352.4,796.1,1351.3,796.8,1350.2,798.2z M1354.9,786.2
		c-0.7,0-1.9-0.9-2-1.5c-0.1-0.6,0.9-1.8,1.6-1.9c0.7-0.1,1.5,0.7,2.9,1.4C1356.2,785.2,1355.5,786.2,1354.9,786.2z M1359.7,645.6
		c-0.1-0.8,1.2-1.8,2.3-3.4c1,1.7,2,2.6,2,3.5c0,0.6-1.4,2-1.8,1.9C1361.2,647.3,1359.8,646.4,1359.7,645.6z M1364.7,799.5
		c-0.8,0.6-1.5,1.4-2,1.3c-0.6-0.1-1.1-0.9-1.6-1.4c0.5-0.5,1-1.4,1.6-1.4C1363.3,798,1363.8,798.8,1364.7,799.5z"/>
	<g id="XMLID_1532_">
		<path id="XMLID_1886_" class="st2" d="M161.1,575.1c6.9-7.8,13.8-15.6,22.4-25.3l17.6-2.3l20.5-73.1l8.6-30.3l-11.5-12.1
			l36.2-25.6l2.7-31l-22.9-76.5l5.8-45.3l88.2-116.8l-26-38.3l59.9-35L84.7,65.9v84.3c0.3,0.2,0.7,0.3,1.1,0.5
			c-0.4,0.3-0.7,0.6-1.1,0.9v390.5c1,0.6,2.1,1.8,2.2,2.7c0.1,0.9-1,1.9-2.2,3.3v43.8c26.3-3.5,52.6-7,78.8-10.4
			C162.7,579.4,161.9,577.2,161.1,575.1z M251.3,160.3c1.2,1,2.9,2.1,2.8,2.3c-0.6,1.2-1.6,2.2-2.5,3.3c-0.8-0.8-2.1-1.6-2.2-2.4
			C249.4,162.6,250.5,161.6,251.3,160.3z M160.5,436.3c1.3,0.9,2.2,1.6,3.1,2.3c-0.8,1.1-1.7,2.3-2.5,3.4c-0.8-0.8-2.1-1.5-2.3-2.5
			C158.6,438.6,159.7,437.6,160.5,436.3z M158.8,307.4c0-0.9,1.3-1.9,2.4-3.2c1.1,1.4,2.4,2.4,2.4,3.3c-0.1,0.9-1.5,2.3-2.4,2.3
			C160.3,309.8,158.8,308.3,158.8,307.4z M164.1,222.1c0.1-0.9,1.5-2.4,2.4-2.4c0.9-0.1,1.9,1.3,3.3,2.4c-1.4,1.1-2.4,2.4-3.3,2.3
			C165.6,224.4,164.1,222.9,164.1,222.1z M167.9,351.5c0.8-0.1,1.8,1,3.1,1.9c-1,1.2-1.7,2.1-2.4,3c-1.1-0.9-2.2-1.8-3.3-2.7
			C166.2,353,167,351.7,167.9,351.5z M169.1,552.5c-0.9,0-2.4-1.5-2.3-2.3c0.1-0.9,1.4-2.4,2.3-2.4c0.9-0.1,1.9,1.3,3.3,2.4
			C171,551.2,170.1,552.5,169.1,552.5z M176,533.8c-0.9-0.1-1.7-1.5-2.6-2.4c0.9-0.8,1.7-2.3,2.6-2.4c0.9-0.1,1.8,1.3,3.2,2.5
			C177.9,532.6,176.8,533.9,176,533.8z M174.3,467.6c-1.1-0.2-2.1-2.2-2.5-3.5c-0.1-0.5,1.7-2.3,2.5-2.2c1.4,0.2,2.6,1.4,5.1,2.9
			C176.8,466.3,175.3,467.8,174.3,467.6z M181,382c-0.7,0.1-1.7-1.4-2.6-2.2c1-1.1,1.9-2.4,3.2-3.1c0.4-0.2,1.8,1.3,3.6,2.7
			C183.4,380.6,182.3,381.8,181,382z M188.6,493.7c-1.3-0.5-2.3-1.6-3.4-2.5c0.8-0.8,1.6-2.2,2.5-2.3c0.9-0.1,1.9,1.1,3.3,2
			C190,492.1,188.9,493.9,188.6,493.7z M185.2,360.1c-0.1-0.5,1.6-2.2,2.3-2.1c1.3,0.2,2.5,1.4,4.9,2.8c-2.4,1.4-3.8,2.9-4.8,2.7
			C186.6,363.2,185.6,361.4,185.2,360.1z M211,347.4c-0.1-0.8,1.3-1.8,2.3-3.1c1,1.4,2.3,2.3,2.3,3.2c0,0.8-1.5,2.3-2.2,2.2
			C212.5,349.7,211.1,348.3,211,347.4z M232.1,153.8c0.4-0.3,1.9,1.2,3.8,2.5c-1.6,1.4-2.7,2.7-4,3.1c-0.6,0.2-2.7-1.8-2.6-2.2
			C229.9,155.9,230.9,154.6,232.1,153.8z M218.7,192.2c1,1.4,2.3,2.3,2.3,3.2c0,0.8-1.5,2.3-2.3,2.3c-0.9-0.1-2.3-1.4-2.4-2.3
			C216.3,194.6,217.6,193.6,218.7,192.2z M217.4,414.1c-1.6,0.4-3.5,1.1-3.6,0.9c-0.7-1.2-0.8-2.7-1.2-4c1.1-0.1,2.5-0.7,3.3-0.2
			C216.6,411.1,216.8,412.6,217.4,414.1z M213.4,278.2c0.8,0.9,2.2,1.7,2.3,2.6c0.1,0.8-1.3,1.8-2.3,3.2c-1.1-1.4-2.5-2.4-2.4-3.3
			C211.1,279.8,212.5,279.1,213.4,278.2z M206.4,232.3c1.1,1.4,2.4,2.3,2.3,3.2c-0.1,0.9-1.5,2.2-2.3,2.3c-0.7,0-2.2-1.4-2.2-2.3
			C204.1,234.6,205.4,233.6,206.4,232.3z M206.5,363.7c0.9-0.1,1.8,1.3,3.2,2.4c-1.4,1-2.4,2.3-3.3,2.3c-0.9-0.1-2.3-1.6-2.3-2.3
			C204.2,365.2,205.6,363.8,206.5,363.7z M201.1,382.8c1.1,1.4,2.4,2.3,2.4,3.2c-0.1,0.9-1.5,1.7-2.3,2.5c-0.8-0.8-2.2-1.6-2.3-2.5
			C198.7,385.1,200,384.1,201.1,382.8z M195.2,474.1c-1.3-0.4-3.1-1.4-3.4-2.5c-0.2-1,1.3-2.4,2.8-4.8c1.4,2.4,2.5,3.6,2.7,5
			C197.4,472.4,195.7,474.2,195.2,474.1z M193.2,273.1c0.9-0.1,1.9,1.3,3.2,2.4c-1.4,1.1-2.4,2.3-3.3,2.3c-0.9,0-2.3-1.6-2.3-2.4
			C190.9,274.5,192.3,273.1,193.2,273.1z M192.8,337.5c1.2,0.9,3,1.7,3.3,2.8c0.3,1.1-1.1,2.5-2.4,4.9c-1.8-2-3.5-3.1-3.5-4.2
			C190.3,339.8,191.9,338.7,192.8,337.5z M187.1,226.1c0.7,0.9,2,1.8,1.9,2.7c0,0.9-1.3,1.8-2.3,3.1c-1.1-1.2-2.8-2.5-2.6-2.8
			C184.9,228,186.1,227.1,187.1,226.1z M179.6,244.8c1.5,1.8,3.1,3,2.9,3.5c-0.5,1.3-1.9,2.2-2.9,3.3c-0.9-0.8-2.5-1.7-2.4-2.4
			C177.4,247.8,178.5,246.6,179.6,244.8z M173.5,134.3c0.9,0,1.7,1.3,3,2.4c-1.1,1.1-2.4,2.6-2.7,2.4c-1.1-0.7-2-1.9-3-2.9
			C171.7,135.5,172.6,134.3,173.5,134.3z M163,156.1c0.5-1.4,3-2.5,4.8-2.8c0.6-0.1,2.7,2.6,2.4,3.6c-0.4,1.6-2.2,3-4.3,5.5
			C164.5,159.3,162.6,157.3,163,156.1z M159.5,174.1c1.2,0.6,2.5,1.7,3.1,2.9c0.2,0.5-1.2,1.8-2.6,3.5c-1.2-1.7-2.5-2.8-2.7-4
			C157.2,175.8,159.2,174,159.5,174.1z M159.3,239.6c1.2,0.6,2.2,1.7,3.3,2.6c-0.9,0.8-1.7,2.2-2.6,2.3c-0.9,0.1-1.9-1.2-3.2-2.2
			C157.8,241.2,158.9,239.5,159.3,239.6z M156.9,456c0.8,0.4,1,1.9,1.7,3.5c-1.8,0.2-3.3,0.9-3.9,0.4c-0.7-0.5-0.7-2.1-1-3.3
			C154.8,456.4,156.1,455.6,156.9,456z M152.2,327.3c-0.1-0.8,1.1-1.8,2-3.1c1.2,1,2.8,2.1,2.7,2.3c-0.6,1.2-1.6,2.2-2.5,3.3
			C153.6,329,152.3,328.2,152.2,327.3z M156.9,261.3c-0.5,1.2-1.6,2.2-2.4,3.3c-0.8-0.8-2.2-1.6-2.3-2.5c-0.1-0.9,1.1-1.9,2-3.2
			C155.3,260,157,261,156.9,261.3z M153.2,128.1c1.1,1.4,2.4,2.4,2.4,3.3c-0.1,0.9-1.5,2.3-2.4,2.3c-0.8,0-2.2-1.5-2.3-2.4
			C150.8,130.5,152.1,129.5,153.2,128.1z M146.7,146.9c1,1.4,2.3,2.3,2.3,3.2c0,0.8-1.5,2.3-2.2,2.3c-0.9-0.1-2.3-1.4-2.4-2.3
			C144.3,149.2,145.6,148.3,146.7,146.9z M133.3,122.2c0.8,0,2.3,1.5,2.3,2.3c0,0.9-1.3,1.9-2.3,3.3c-1.1-1.4-2.5-2.4-2.4-3.3
			C131,123.7,132.4,122.3,133.3,122.2z M131.2,275.5c-1.4,1-2.3,2.3-3.1,2.2c-0.9-0.1-1.7-1.5-2.5-2.3c0.8-0.8,1.6-2.3,2.5-2.3
			C128.9,273.1,129.8,274.4,131.2,275.5z M125.6,140.2c2,2.2,3.7,3.3,3.7,4.3c-0.1,1.1-1.6,2.4-2.9,3.1c-0.4,0.2-2.4-1.2-2.5-2
			C123.8,144.2,124.6,142.9,125.6,140.2z M107.8,266.3c0.9,0,1.9,1.3,3.3,2.3c-1.4,1.1-2.4,2.5-3.3,2.4c-0.9-0.1-2.3-1.5-2.3-2.4
			C105.4,267.8,106.9,266.3,107.8,266.3z M101.2,286.3c0.8-0.1,1.8,1.1,3.1,2c-1,1.2-2.1,2.8-2.3,2.7c-1.2-0.6-2.2-1.6-3.3-2.5
			C99.6,287.7,100.3,286.4,101.2,286.3z M91.9,176c-0.1-0.4,2-2.3,2.5-2.1c1.3,0.5,2.3,1.8,4,3.2c-1.9,1.2-3.4,2.6-3.8,2.4
			C93.4,178.7,92.4,177.4,91.9,176z M93,393.8c-1.7,1.3-2.8,2.5-4.1,2.8c-0.6,0.2-2.4-1.9-2.3-2.2c0.6-1.2,1.6-2.5,2.8-3.1
			C89.9,391.1,91.3,392.6,93,393.8z M93.4,108.9c0.8-0.1,1.8,1.2,3.1,2.2c-1.4,1.1-2.3,2.4-3.2,2.4c-0.9-0.1-1.7-1.5-2.5-2.3
			C91.7,110.4,92.5,109,93.4,108.9z M85.3,262.5c0.2-1.3,1.4-2.5,2.5-4.3c1.4,1.7,2.9,2.9,2.7,3.4c-0.5,1.2-1.8,2.2-2.8,3.2
			C86.9,264,85.2,263.1,85.3,262.5z M89.8,528.9c-1.1,0.1-3.8-3.3-3.5-3.9c1-1.9,2.9-3.8,4.9-4.4c1-0.3,2.8,2.3,5.3,4.4
			C93.6,526.8,91.8,528.7,89.8,528.9z M96,310.9c-0.9-0.1-1.7-1.5-2.5-2.3c0.8-0.8,1.6-2.2,2.5-2.3c0.8-0.1,1.8,1.2,3.1,2.2
			C97.8,309.6,96.8,310.9,96,310.9z M102.4,421.8c-0.8,0-2.3-1.5-2.2-2.3c0.1-0.9,1.4-2.3,2.3-2.3c0.9-0.1,1.8,1.3,3.2,2.4
			C104.3,420.6,103.3,421.8,102.4,421.8z M105.5,334.1c0-0.9,1.3-1.9,2.4-3.2c1.1,1.4,2.4,2.4,2.4,3.3c-0.1,0.9-1.5,2.3-2.4,2.3
			C107,336.5,105.5,335,105.5,334.1z M110.5,534.3c-0.9-1.2-2.2-2.3-2.5-3.6c-0.2-0.9,1-2.2,2.3-4.8c1.7,3.5,2.8,4.8,2.8,6.2
			C113.1,532.8,111.4,533.6,110.5,534.3z M108.6,402.1c-0.8,0-2.4-2-2.2-2.4c0.6-1.3,1.8-3,2.9-3.2c1-0.1,2.3,1.6,4.6,3.5
			C111.3,401.1,109.9,402.1,108.6,402.1z M113.3,120.7c-1.2-0.8-2.2-2.1-2.7-3.4c-0.1-0.4,1.9-2.3,2.5-2.1c1.3,0.5,2.3,1.8,3.9,3.2
			C115.2,119.6,113.7,121,113.3,120.7z M118.8,361.3c0.4-1.2,1.8-2.1,2.8-3.1c0.7,0.9,2,1.7,2,2.6c0,0.9-1.3,1.8-3.3,4.3
			C119.6,363.5,118.5,362.2,118.8,361.3z M123.8,558.9c-0.9-0.1-2.2-1.5-2.3-2.3c-0.1-0.8,1.4-2.2,2.3-2.3c0.9,0,1.8,1.2,3.2,2.3
			C125.6,557.7,124.7,559,123.8,558.9z M129,408.7c-0.7,0.1-2.5-1.8-2.4-2.1c0.6-1.2,1.6-2.5,2.8-3.1c0.4-0.2,1.8,1.3,3.5,2.6
			C131.3,407.2,130.2,408.4,129,408.7z M134.5,388.3c-0.9-0.1-2.3-1.5-2.3-2.4c0-0.8,1.5-2.2,2.4-2.3c0.9,0,1.9,1.3,3.3,2.4
			C136.3,387,135.3,388.4,134.5,388.3z M138.7,367.8c0.6-1.2,1.7-2.5,2.9-3.1c0.5-0.2,1.8,1.2,3.5,2.6c-1.7,1.2-2.8,2.5-4,2.7
			C140.4,370.1,138.5,368.1,138.7,367.8z M145.6,432.9c-1.4,1-2.3,2.3-3.2,2.2c-0.8-0.1-2.3-1.5-2.2-2.3c0.1-0.9,1.4-2.3,2.3-2.3
			C143.4,430.4,144.3,431.8,145.6,432.9z M142.5,500.3c-0.9-0.1-2.3-1.5-2.3-2.4c0-0.8,1.5-2.2,2.4-2.3c0.9,0,1.9,1.3,3.2,2.4
			C144.3,499.1,143.3,500.4,142.5,500.3z M145.5,281.9c-0.1-0.8,1.2-1.8,2.3-3.2c1.1,1.4,2.5,2.4,2.4,3.2c-0.1,0.9-1.5,1.7-2.4,2.6
			C147,283.6,145.6,282.8,145.5,281.9z M146.7,477.7c0.9-0.8,1.8-2.1,2.7-2.1c0.9,0,1.8,1.3,4.4,3.4c-1.8,0.7-3.1,1.8-4,1.5
			C148.6,480.1,147.7,478.7,146.7,477.7z M153,524.6c1.2-0.9,2.2-2.2,3.5-2.5c0.9-0.2,2.1,1,4.7,2.3c-3.4,1.7-4.7,2.7-6,2.8
			C154.5,527.3,153.7,525.6,153,524.6z"/>
		<path id="XMLID_1885_" class="st2" d="M186,591.5c-33.8,4.7-67.5,9.3-101.3,14v10.1c33.3-4.6,66.6-9.2,99.9-13.8
			C184.9,598.4,185.4,594.9,186,591.5z"/>
		<path id="XMLID_1884_" class="st2" d="M92.1,746.3c-0.1-36.2,4.6-72.5,7.2-108.4c12.1-3.8,23.9-7.8,35.1-8.2
			c1.6,15.4,3.5,26,3.4,36.5c-0.6,45.4-2.1,90.7-2.6,136.1c0,3.6,1.3,7.3,2.8,10.9c1.5-1.8,3-3.5,4.4-5.3c0.9-7.5,1.9-15.6,3.1-25.5
			c4.9,3.9,8,6.4,10.9,8.7c6.2-7.4,12.3-14.9,18.3-22.5c3.2-4.1,6.5-8.1,9.7-12.2c1.4-1.8,2.3-3,2.9-3.7c0.4-0.6,1-1.3,1.6-2.1
			c2.2-3,4.5-5.9,6.7-8.9c-3.7-1.7-7.5-3.6-12-5.7c-10.6-1.4-24.3-3.3-39.8-5.4c0.9-16.8,1.7-31.9,2.9-54
			c6.6,10.1,9.1,13.8,11.6,17.6c7-3.9,13.7-7.5,20.6-11.4c-13.3-16.5-26.3-32.7-43-53.3c12-0.1,23.2,4.1,33.5,17
			c2.4,3.1,9.3,4,13.9,3.7c3.5-0.3,7-0.5,10.4-0.8c-6.1-12.5-9.5-26.3-9.4-40.8c-33.2,4.5-66.4,9-99.6,13.6v257.3
			c4.4-4.3,8.8-8.6,13.2-12.9C96.8,826.5,92.2,786.4,92.1,746.3z"/>
	</g>
	<g id="XMLID_1531_">
		<path id="XMLID_1952_" class="st2" d="M744.1,547.5c-4.6,4.3-9.1,8.7-13.7,13c3.5,0.2,6.9,0.4,10.3,0.6
			C742.3,556.7,743.4,552.1,744.1,547.5z"/>
		<path id="XMLID_1951_" class="st2" d="M847.8,505.6c0,0-0.1-0.1-0.1-0.1c0,0,0.1-0.1,0.1-0.1v-25.9c-4.6-6-8.8-12.2-12.8-18.5
			c-2.5,2.4-104.7-140.7-122.3-160.3c-0.5-0.5-1.3,0.1-1,0.7c15.9,27.6,129.2,197.6,136.1,212.2V505.6z"/>
		<path id="XMLID_1948_" class="st2" d="M797.5,557.3v-60.7c-5.5,5.3-11.1,10.6-16.6,15.8l3.8,0.4c-0.9,13.9-1.8,27.7-2.8,42.9
			C786.5,556.2,790.7,556.6,797.5,557.3z M791,504.7c0.8,0,1.6,1.2,2.7,2.1c-1.1,1-2.2,2.4-2.5,2.2c-1-0.6-1.8-1.7-2.6-2.6
			C789.4,505.8,790.2,504.6,791,504.7z"/>
		<path id="XMLID_1947_" class="st2" d="M770.1,556c2.7-13.6,5.4-27.3,8.1-40.9c-5.1,4.8-10.2,9.7-15.2,14.5v25.8
			C765.3,555.6,767.7,555.8,770.1,556z"/>
		<path id="XMLID_1883_" class="st2" d="M833.6,564.8c0-5.2,0-10.5,0-15.7c-0.7,0-1.4,0-2.1,0c-0.6,5.2-1.2,10.5-1.8,15.7
			C831.1,564.8,832.3,564.8,833.6,564.8z"/>
		<path id="XMLID_1566_" class="st2" d="M845.3,679.6l56.2-13.7l-9.1-28.8l-154.8,1.5l-6.4-8.5c5.9-0.3,11.7-0.5,17.6-0.8
			c0.8-0.3,1.6-0.6,2.1-0.3c0.1,0,0.2,0.1,0.2,0.2c35.5-1.6,70.9-3.2,106.4-4.8c7.5-0.3,15.1-0.7,22.7-1.1c-2-9.2-4.1-18.3-6.2-27.4
			c-8.2,0.4-16.1,0.7-25.5,1.1c-0.4-7.4-0.7-14.1-1.1-22c-8.7,0.8-16.6,1.5-25,2.3V598h-17.4c-0.5-2.5-1-5-1.5-7.5
			c-0.3,0.2-0.6,0.3-0.8,0.3c-0.7,0-2-1.3-2.1-2.1c0-0.8,1-1.6,2-2.8c-0.2-1-0.4-2-0.6-3.1c3.6-1.6,6.5-2.8,6.2-2.7h-33.4
			c-1.8,10.4-2.6,15.2-3.7,22c-6-1.8-10.4-3.1-20.4-6c8.1-5.9,13.3-9.7,22-16h-42.2c-6.4,7.4-13,14.7-19.6,21.9
			c-9.5,10.3-19.2,20.4-29,30.4c0.5,0,0.9,0,1.4-0.1l-50.5,51.9l-29.1,37.8c-1.4-3.3-4.5,10.3-5.8,7.3c-1.6,34.4-1.6,55.4-3.4,93.1
			c0,16.2,0.7,19.9,0.7,36.1c64.9,0,129.9,0,194.8,0c0.3-2.4,0.5-4.8,0.9-8.5l5.4-0.5c2.4,3.7,4.1,6.3,5.9,9c6.1,0,12.2,0,18.3,0
			l53.6,2l19.8-36.7l4.6-62.2l9.1-65.3l-78.9,7.6L845.3,679.6z M834.2,675.6c0.8,0,1.6,1.1,3.8,2.8c-1.5,0.7-2.6,1.7-3.4,1.5
			c-1.1-0.3-1.8-1.6-2.7-2.4C832.6,676.8,833.4,675.6,834.2,675.6z M798,604.5c0.8,0.1,2.1,1.3,2.2,2.1c0.1,0.8-1.2,1.7-2.2,3
			c-1-1.3-2.1-2.2-2.1-3C795.9,605.8,797.3,604.5,798,604.5z M779.6,598c1.1,0.9,2.6,1.8,2.5,2.1c-0.5,1.1-1.4,2-2.2,3
			c-0.7-0.7-2-1.4-2.1-2.2C777.7,600,778.8,599.1,779.6,598z M674.2,741.6c0.8-0.1,1.7,1.1,2.8,1.9c-1,1.1-1.7,1.9-2.4,2.7
			c-1-0.9-1.9-1.7-2.9-2.6C672.5,742.9,673.3,741.7,674.2,741.6z M668,759.8c0.8,0.8,2.1,1.5,2.1,2.3c0.1,0.8-1.2,1.7-2.3,2.9
			c-0.9-1.3-2.1-2.2-2-2.9C666,761.2,667.2,760.5,668,759.8z M663.3,777.5c0.4-0.2,1.7,1,3.4,2.1c-1.5,1.3-2.4,2.4-3.5,2.9
			c-0.5,0.2-2.4-1.5-2.2-1.9C661.3,779.4,662.2,778.2,663.3,777.5z M655.9,676.8c0.8,0,1.6,1.1,2.8,2.1c-1.2,0.9-2.1,2.1-2.9,2.1
			c-0.8-0.1-2-1.3-2-2.1C653.8,678.1,655.1,676.8,655.9,676.8z M659.7,797.9c-0.6,1.1-1.8,2.1-2.9,2.7c-0.3,0.1-2.2-1.6-2-2.2
			c0.3-1.2,1.4-2.2,2.6-3.8C658.6,796.2,659.9,797.4,659.7,797.9z M655.5,735.2c1.1,0.9,2.6,1.9,2.5,2.1c-0.5,1.1-1.5,2-2.2,3
			c-0.7-0.7-1.9-1.4-2-2.2C653.7,737.3,654.7,736.4,655.5,735.2z M657.7,812.8c-0.6,1.1-1.3,2.1-1.9,3.2c-1.8,1-3.6,2.6-5.4,2.6
			c-1,0-3.3-3.4-2.9-3.9c1-1.6,3-3.3,4.8-3.7C653.9,810.8,655.8,812.2,657.7,812.8z M644.7,771.6c1.2,0,2.4,1,4.7,2.1
			c-2.2,1.6-3.3,3.1-4.3,3c-1-0.2-2.1-1.7-2.5-2.9C642.5,773.3,644,771.6,644.7,771.6z M639.1,731.1c0.8-0.1,1.6,1.2,2.9,2.1
			c-1.2,0.9-2.1,2.1-2.9,2c-0.8,0-2.1-1.4-2-2C637.1,732.4,638.3,731.2,639.1,731.1z M638.4,789.3c1.2,0.8,2,1.4,2.9,1.9
			c-0.7,1.1-1.5,2.1-2.2,3.2c-0.7-0.7-1.9-1.3-2.1-2.2C636.8,791.5,637.7,790.5,638.4,789.3z M626.9,706.7c1.2,0.3,2.1,1.4,3.7,2.6
			c-1.6,1.1-2.8,2.4-3.2,2.2c-1.1-0.5-2-1.7-2.6-2.8C624.6,708.4,626.3,706.5,626.9,706.7z M601.9,781.8c-0.7-0.5-0.7-1.9-0.9-3
			c1-0.2,2.2-0.9,3-0.6c0.7,0.3,0.9,1.7,1.5,3.2C603.9,781.6,602.5,782.2,601.9,781.8z M614.9,806.4c-0.7-0.7-1.9-1.4-2-2.2
			c-0.1-0.7,0.9-1.7,1.5-2.9c1.2,0.8,2,1.4,2.8,2C616.4,804.4,615.7,805.4,614.9,806.4z M615.1,746.9c-1-1.1-2.4-2.3-2.3-2.6
			c0.6-1.1,1.7-1.8,2.7-2.7c0.6,0.8,1.8,1.7,1.8,2.5C617.2,744.9,616.1,745.7,615.1,746.9z M618.8,727.6c0.5-1.2,1.4-2.4,2.5-3.1
			c0.4-0.2,1.7,1.1,3.4,2.3c-1.5,1.2-2.4,2.4-3.6,2.8C620.5,729.7,618.6,727.9,618.8,727.6z M626.7,830c-0.8-1.1-2.3-2.2-2.3-3.3
			c0-1,1.6-2,3.3-3.8c1.1,2.2,2.4,3.6,2.1,4.5C629.5,828.5,627.7,829.1,626.7,830z M629.2,809.2c1.6-1.4,2.9-3.5,4.7-3.9
			c1.6-0.4,3.7,1.1,5.6,1.7c-0.7,1-1.4,2.1-2.1,3.1c-1.5,0.9-3.1,2.7-4.5,2.5C631.6,812.5,630.4,810.4,629.2,809.2z M639,853.3
			c-0.8,0-2.1-1.4-2.1-2.1c0.1-0.8,1.3-2.1,2.1-2.2c0.8-0.1,1.7,1.2,2.9,2.2C640.8,852.2,639.9,853.3,639,853.3z M645.8,837.6
			c-2.1-0.6-3.8-3-5.6-4.7c1.9-1.6,3.6-4,5.7-4.4c1.2-0.3,3.1,2.5,5.5,4.6C649,835.1,647,837.9,645.8,837.6z M657.3,859.2
			c-0.8-0.1-1.5-1.4-2.3-2.2c0.8-0.8,1.5-2,2.4-2.1c0.7-0.1,1.6,1.1,2.9,2.1C658.9,858,658,859.2,657.3,859.2z M667.7,840.1
			c-1.8,1-3.5,2.6-5.3,2.6c-1,0-3.2-3.3-2.9-3.9c1-1.6,2.9-3.2,4.7-3.6c1.6-0.3,3.6,1,5.4,1.6C669,837.9,668.3,839,667.7,840.1z
			 M668.9,825.5c-1.4-1.6-3.8-3.1-3.9-4.7c-0.1-1.5,2.4-3.1,4.4-5.6c1.8,2.7,4,4.6,3.8,6.1C673,822.9,670.4,824.1,668.9,825.5z
			 M679.7,804c-1.8,1-3.5,2.6-5.3,2.6c-1,0-3.2-3.3-2.9-3.9c1-1.6,2.9-3.2,4.7-3.6c1.6-0.3,3.6,1,5.4,1.6
			C681,801.8,680.4,802.9,679.7,804z M737,665.3c0-0.4,2.2-1.2,2.8-0.8c1,0.6,1.6,2,3.2,4.1c-2.7,0.3-4.5,1.1-5.2,0.5
			C737,668.4,736.9,666.6,737,665.3z M733,622.8c0.8-0.1,1.6,1.2,2.9,2.1c-1.2,0.9-2.1,2.1-2.9,2c-0.8,0-2.1-1.4-2-2
			C731,624.1,732.2,622.8,733,622.8z M720.6,657.5c1.2,1.4,2.4,2.3,2.8,3.5c0.2,0.5-1.5,2.3-1.8,2.2c-1.2-0.5-2.4-1.3-3-2.4
			C718.3,660.5,719.6,659.2,720.6,657.5z M720.5,715.5c1.6,2.1,3.2,3.3,3.1,4.3c-0.2,1.1-1.8,2.1-3,2.6c-0.4,0.2-2.2-1.4-2.2-2.1
			C718.5,719.1,719.4,717.9,720.5,715.5z M716.8,734.2c1.3,0,2.6,2,4.7,3.8c-2.3,1.7-4.3,3.9-5,3.5c-1.7-0.8-2.8-2.9-4.1-4.5
			C713.8,736,715.3,734.2,716.8,734.2z M704.1,771.8c0.8,0.8,2.1,1.5,2.1,2.3c0.1,0.8-1.2,1.7-2.3,2.9c-0.9-1.3-2.1-2.2-2-2.9
			C702.1,773.3,703.3,772.6,704.1,771.8z M699.7,730c0.5,0.1,0.7,1.9,1.4,3.8c-2,0-3.4,0.4-4.5-0.1c-0.6-0.3-0.6-1.9-0.9-3
			C697.1,730.4,698.5,729.9,699.7,730z M692.2,746.6c1.3-0.1,2.7,1.9,5,3.6c-2.4,1.6-4,3.5-5.2,3.3c-1.4-0.2-2.4-2.3-3.7-3.6
			C689.6,748.7,690.8,746.7,692.2,746.6z M686.3,765.9c0.7-0.1,1.6,1.1,2.8,2c-1.2,1-2.1,2.2-2.9,2.1c-0.8-0.1-1.5-1.4-2.2-2.1
			C684.7,767.2,685.4,765.9,686.3,765.9z M687.6,829.6c-1.2-0.5-2.8-1.6-3-2.6c-0.1-0.9,1.5-2.1,3.1-4.3c1.1,2.4,2,3.6,2.1,4.9
			C689.8,828.3,688,829.8,687.6,829.6z M692.7,812.3c-1.5-0.5-3.6-1.9-3.8-3.1c-0.2-1.2,1.7-2.8,3.5-5.2c1.5,2.5,2.9,3.9,3,5.4
			C695.5,810.4,693.3,812.5,692.7,812.3z M695.7,791.5c0-1.2,0.9-2.4,2-4.7c1.6,2.1,3.1,3.2,2.9,4.1c-0.1,1-1.7,2.1-2.8,2.5
			C697.4,793.6,695.7,792.2,695.7,791.5z M699.3,854c-1-1-2.3-2.2-2.2-2.4c0.6-1,1.7-1.8,2.6-2.7c0.6,0.8,1.8,1.6,1.7,2.4
			C701.4,852.1,700.3,852.9,699.3,854z M703.9,836.5c-1-1.7-2-2.8-2.1-4c-0.1-0.6,1.4-1.4,2.2-2.1c0.9,1,2.1,1.9,2.5,3
			C706.7,833.9,705.2,835,703.9,836.5z M709.8,817.4c-0.3,0.1-2.2-1.6-2-2.2c0.3-1.2,1.4-2.2,2.6-3.8c1.2,1.7,2.5,2.9,2.3,3.4
			C712.1,815.9,710.9,816.8,709.8,817.4z M710.9,761.5c-2.2-2-4.7-3.4-4.5-4.4c0.3-1.8,1.9-3.8,3.5-4.9c0.5-0.4,4,1.8,4,2.8
			C713.9,756.8,712.3,758.7,710.9,761.5z M715.9,799.2c-0.7-0.8-1.9-1.5-2-2.3c-0.1-0.8,0.9-1.7,1.7-2.8c1.1,0.9,1.9,1.5,2.7,2.2
			C717.5,797.2,716.7,798.2,715.9,799.2z M719.8,779.5c0.5-1.2,1.4-2.4,2.5-3.2c0.3-0.2,1.7,1.1,3.4,2.3c-1.5,1.2-2.4,2.4-3.6,2.8
			C721.6,781.5,719.7,779.8,719.8,779.5z M727.5,823.4c-0.4,0.1-2-1.6-1.9-2.2c0.2-1.2,1.3-2.3,2.6-4.5c1.3,2.3,2.6,3.6,2.4,4.5
			C730.4,822.2,728.8,823.1,727.5,823.4z M727.9,764.8c-1.1-0.3-2.5-2.1-2.4-3.1c0.1-0.9,2-2.4,3-2.3c1,0,2,1.6,3.8,3.3
			C730.2,763.7,728.8,765,727.9,764.8z M734.2,747.8c-1.9-0.3-3.8-1.9-4.9-3.5c-0.4-0.5,1.8-4,2.9-4c1.8,0,3.7,1.6,6.5,3
			C736.5,745.4,735.1,747.9,734.2,747.8z M734.9,725.5c0.2-1.5,2.8-3.8,4.4-3.8c1.5-0.1,3.1,2.4,5.5,4.5c-2.7,1.8-4.6,3.9-6.1,3.7
			C737.1,729.6,734.7,726.9,734.9,725.5z M745,769c-0.8,0-2.1-1.4-2-2c0.1-0.8,1.3-2.1,2.1-2.1c0.8-0.1,1.6,1.1,2.9,2.1
			C746.6,767.8,745.8,769,745,769z M751.3,755c-1.7-2.2-3.6-3.6-3.5-4.9c0.1-1.3,2.1-3.5,3.2-3.5c1.2,0,3.4,1.9,3.5,3.2
			C754.7,751.2,752.9,752.7,751.3,755z M757.3,735.9c-1.8-0.7-2.9-2.9-4.3-4.5c1.4-1.2,3-3.6,4.1-3.3c1.8,0.4,3.3,2.4,5.8,4.5
			C760.2,734.2,758.3,736.3,757.3,735.9z M769,817.1c-0.8,0-2.1-1.4-2.1-2.1c0.1-0.8,1.3-2.1,2.1-2.2c0.8-0.1,1.7,1.2,2.9,2.2
			C770.8,816,769.9,817.2,769,817.1z M774.9,740.4c-0.7,0.1-2.3-1.5-2.1-1.9c0.4-1.2,1.3-2.8,2.3-3c0.9-0.2,2.2,1.2,4.3,2.5
			C777.2,739.3,776.1,740.3,774.9,740.4z M780.6,723.8c-0.7-1.6-1.8-2.7-1.5-3.5c0.3-1.1,1.6-1.9,2.5-2.8c0.7,0.8,1.9,1.6,1.9,2.4
			C783.4,720.8,782.3,721.6,780.6,723.8z M785.6,705.3c-1.3-0.3-2.2-2.5-3.3-3.9c1.4-1.1,2.8-3,4.1-3c1.3,0,2.5,2.1,4.6,3.9
			C788.5,703.8,786.8,705.6,785.6,705.3z M792.4,686.3c-1.2-0.5-2.7-1.6-2.9-2.6c-0.1-0.9,1.4-2,3.1-4.1c1,2.3,1.9,3.5,1.9,4.7
			C794.5,685,792.8,686.4,792.4,686.3z M805.2,769c-0.8,0-2.1-1.4-2-2c0.1-0.8,1.3-2.1,2.1-2.1c0.8-0.1,1.6,1.1,2.9,2.1
			C806.8,767.9,806,769,805.2,769z M864.6,823.3c0.4-0.2,1.6,1.1,3.2,2.4c-1.6,1.1-2.6,2.3-3.7,2.5c-0.6,0.1-2.3-1.7-2.2-2
			C862.5,825,863.5,823.9,864.6,823.3z M858.3,841.7c0.8,0,1.6,1.1,3.8,2.8c-1.5,0.7-2.6,1.7-3.4,1.5c-1.1-0.3-1.8-1.6-2.7-2.4
			C856.7,842.9,857.5,841.7,858.3,841.7z M835.1,853.1c1,0.9,2.5,1.9,2.4,2.2c-0.5,1.1-1.5,1.9-2.3,2.9c-0.7-0.8-1.9-1.5-2-2.3
			C833.1,855.1,834.3,854.3,835.1,853.1z"/>
	</g>
	<polygon id="XMLID_1534_" class="st2" points="860.7,223.3 886.4,229.3 886.4,236.4 911.8,258.5 973.1,146.3 934.7,98.4 
		826.7,176.7 	"/>
	<polygon id="XMLID_1_" class="st2" points="978.8,540.7 900.6,250 941.5,178.2 1005.7,423.4 	"/>
</g>
</svg>
