<?xml version="1.0" encoding="utf-8"?>
<!-- Generator: Adobe Illustrator 19.0.0, SVG Export Plug-In . SVG Version: 6.00 Build 0)  -->
<svg version="1.1" id="Layer_1" xmlns="http://www.w3.org/2000/svg" xmlns:xlink="http://www.w3.org/1999/xlink" x="0px" y="0px"
	 viewBox="0 0 1440 900" style="enable-background:new 0 0 1440 900;" xml:space="preserve">
<style type="text/css">
	.st0{fill:#F3E4B2;}
	.st1{opacity:0.13;}
	.st2{fill:#5D5D5D;}
</style>
<polygon id="XMLID_1605_" class="st0" points="1441.8,901.7 -3.2,898.7 -3.2,-1.3 1441.8,1.7 "/>
<g id="XMLID_1470_" class="st1">
	<g id="XMLID_1574_">
		<path id="XMLID_1575_" class="st2" d="M77.1,827.6l-0.1,4.7c0.9,0.2,1.9,0.7,3.6,1.1c-1.7,1.7-2.6,3.3-3.4,3.3
			c-0.1,0-0.2-0.1-0.2-0.1l-0.9,43.2l34.7,64.1l23.1-1.4c-0.1-0.2-0.2-0.3-0.3-0.5c-0.1-0.8,1.1-2.5,2.1-2.8
			c0.9-0.2,2.2,0.9,4.1,1.8c-0.4,0.4-0.8,0.8-1.1,1.2L389.8,927c-0.6-0.9-1.1-1.6-1.2-2.4c-0.1-0.6,1.3-1.4,2-2.1
			c0.9,0.9,2,1.7,2.5,2.8c0.1,0.3-0.4,0.8-1.1,1.5l24.8-1.5l28.6-0.5c-0.9-0.5-1.7-1.3-2.6-2c0.7-0.7,1.4-1.8,2.1-1.9
			c0.7-0.1,1.6,1,2.7,1.8c-0.6,0.8-1.3,1.8-1.7,2.1l69.1-1.3c0.3-0.3,0.5-0.5,0.8-0.6c0.3,0,0.7,0.2,1.1,0.5l49.4-0.9
			c0.8-1.4,2.2-2.8,3.2-4.2c1.4,1.3,3.4,2.5,4.3,4l47.2-0.9c-0.2-0.4-0.4-0.8-0.4-1.1c0-1.8,2.4-4.8,4-5c1.6-0.2,4.7,2.2,5,3.9
			c0.1,0.6-0.1,1.3-0.5,2l7-0.1c1-1.3,2.7-2.1,4.8-1.8c1.1,0.1,2.2,0.8,3.4,1.7l32.4-0.6c-0.8-1-1.5-2.3-1.7-3.4
			c-0.2-0.9,2.8-3.8,4.2-3.6c1.9,0.2,3.7,2.3,7.1,4.7c-1.2,0.7-2.3,1.5-3.3,2.2l10.2-0.2c0.9-0.9,2-1.7,2.6-1.6
			c0.9,0.1,1.8,0.7,2.8,1.5l48.5-0.9c0.9-1.3,2.3-2.6,3.6-2.9c1.4-0.3,3.2,1.1,6.6,2.5c-0.1,0.1-0.2,0.1-0.3,0.2l21.5-0.4l23.1-0.9
			c0.8-0.9,1.6-2.3,2.5-2.4c0.9-0.1,1.9,1.1,3.5,2.2l32.9-1.3c-1.8-0.7-4.1-2.9-4.5-4.6c-0.9-3.5,1.6-6.6,5.5-6.3
			c2.3,0.2,4.4,2.3,8.6,4.7c-3.3,2.7-5.3,5.2-7.3,6.1l10.7-0.4c0-0.1,0-0.1,0-0.2c0-1.7,3.3-5,4.4-4.7c2.1,0.5,4.9,2.6,5.5,4.5
			l46.9-1.8c-0.1-0.1-0.1-0.2-0.1-0.3c0.2-1.1,1.2-2.1,2.2-3.6c1.2,1.5,2.5,2.6,2.4,3c-0.1,0.3-0.3,0.5-0.5,0.8l13.8-0.5
			c0.1-0.1,0.1-0.2,0.2-0.4c0.1,0.1,0.2,0.2,0.4,0.4l34.9-1.3c-0.2-0.3-0.3-0.7-0.3-1c0-1.2,1.8-2.5,3.4-4.4c1.6,2,3.7,3.8,3.4,4.5
			c-0.1,0.2-0.3,0.5-0.4,0.7l49.3-1.9c-0.1-1.1,1.5-3.2,2.6-3.5c1.1-0.3,2.7,1.2,5.1,2.5c-0.3,0.2-0.5,0.5-0.7,0.7l48.6-1.8
			c-0.4-0.5-0.7-1.1-0.7-1.5c0-0.8,1.2-2.1,1.8-2c1.1,0.1,2.1,1,4.4,2.3c-1,0.4-1.7,0.8-2.3,1.1l48.9-1.9c-0.3-0.6-0.6-1.2-0.6-1.8
			c-0.1-1.3,2.6-2.7,4.1-4.1c1.5,1.6,3.8,3.1,4.3,5c0,0.2,0,0.4-0.1,0.6l47.2-1.8c-0.3-0.3-0.4-0.7-0.5-1c-0.2-1.2,1.5-2.7,2.9-4.9
			c1.6,2,3.5,3.2,3.4,4.4c0,0.4-0.2,0.8-0.5,1.3l50.8-1.9c-0.7-0.5-1.4-1.5-1.7-2.2c-0.2-0.4,1.1-2.1,1.8-2.1
			c1.1-0.1,2.3,0.8,4.5,1.7c-1.3,1.1-2.1,2.1-2.8,2.6l53.5-2c-0.7-0.5-1.6-1-1.5-1.5c0.1-1.1,1-2.1,1.9-3.7c1.2,1.4,2.5,2.3,2.3,2.7
			c-0.3,0.9-1.1,1.6-1.8,2.3l123.7-4.7c0.6-0.4,1.1-0.7,1.7-0.8c0.9-0.2,2,0.2,3,0.7l18.9,1.5l-32.1-102l-30.6-1.3
			c1.1,0.7,2,1.6,2.3,2.5c1.2,3.2-1,5.8-4.3,5.7c-1.9-0.1-3.8-2.2-6.9-4.1c1.6-1.5,2.9-3,4-4l-11.7,0c-0.8,0.7-2.2,1.3-3.3,1.4
			c-0.4,0-1-0.7-1.6-1.4l-13.3,0c0,0,0,0,0,0.1c0,0,0,0-0.1-0.1l-34,0.1c0.2,0.2,0.4,0.4,0.6,0.5c-2.3,1.4-3.8,3.1-5,2.9
			c-1.2-0.2-3-2.3-2.9-3.4l-67.5,0.2c-0.1,0.1-0.1,0.2-0.2,0.2c-0.1-0.1-0.2-0.2-0.3-0.2l-51.7,0.2c-0.3,0.9-1.4,1.8-2.3,2.4
			c-0.3,0.2-2.2-1-2.3-1.7c0-0.2,0-0.4,0-0.7l-52.2,0.2c0.6,0.6,1.1,1.2,1.1,1.6c0,0.7-1.2,1.9-2,2c-0.6,0.1-1.9-1.2-2-1.9
			c0-0.5,0.5-1.1,1-1.7l-68,0.2c-0.3,0.6-1,1.3-1.6,2.1c-1-0.8-2.3-1.7-2.2-1.9c0-0.1,0.1-0.1,0.1-0.2l-49.8,0.2
			c0.4,0.2,0.8,0.5,1.3,0.7c-1.6,1.5-2.5,3-3.4,3.1c-1,0-2-1.3-3-2c0.4-0.5,0.7-1.1,1.1-1.7l-15.2,0c0,0-0.1,0.1-0.1,0.1
			c0,0-0.1-0.1-0.1-0.1l-51.7,0.2c-0.9,0.9-1.5,1.5-2.1,1.5c-0.6-0.1-1.3-0.7-1.8-1.5l-48.8,0.2c0.3,0.2,0.6,0.4,1,0.6
			c-2,1.7-3.2,3.5-4.4,3.5c-1.3-0.1-2.4-1.9-3.7-2.9c0.3-0.4,0.6-0.8,0.9-1.2l-55.5,0.2l7.3-10.8c-0.6-0.7-1.2-1.8-1.8-2.5
			c1.2-1,2.4-2.8,3.7-2.8c0.4,0,0.8,0.2,1.3,0.6l27.3-40.5l1.3-0.1c-0.7-0.3-1.9-1.4-1.9-1.6c0.5-1.1,1.2-2.3,2.2-3
			c0.3-0.2,1.6,0.9,3.2,2c-1.2,1.1-2,2.2-3,2.6l49.5-4c0-0.1,0-0.2,0-0.3c0-1.5,2.9-4.2,4.5-4.3c1.5,0,3,1.8,5.4,3.8l46.2-3.8
			c0.7-0.6,1.6-1.2,2.2-1.1l7.5-12.1c-0.9,0.8-1.6,1.5-2.3,1.4c-1-0.1-1.8-1.6-2.8-2.4c0.9-0.9,1.7-2.4,2.7-2.6
			c0.8-0.1,1.8,1,3.3,2.1l12.1-19.5l25.7-2.7c-0.4-0.4-0.8-0.9-0.9-1.4c-0.2-0.8,0.6-2,1.6-4.6c1.8,3.4,2.7,4.4,2.8,5.6
			c0,0,0,0.1-0.1,0.1l37.6-3.9l35.5-64.3c-0.6,0.5-1.2,0.8-1.8,0.9c-0.5,0.1-2.1-1.7-1.9-1.9c0.5-0.9,1.4-1.9,2.3-2.4l-14.7-0.4
			c-0.5,0.6-1,1-1.3,1c-0.9,0-1.8-0.5-2.8-1.1l-52-1.3c0.7,0.1,1.4,1,2.5,1.8c-1.1,0.9-1.9,2-2.6,2c-0.7,0-1.9-1.2-1.9-1.9
			c-0.1-0.6,1-1.7,1.7-1.9l-165.1-4l36.5-43.9l-302.1-16.6l24.7-32.9l-215-7.5L322,622l-25-15.4l-70.1,85.9l-21.5,23.1
			c-1.7,10.2-35.3,28-35.6,27.7l-65.6,43l-26.8-6L77.1,827.6z M1406.5,877.3c-0.7,0-2-1.2-1.9-1.8c0-0.7,1.1-1.9,1.8-2
			c0.7-0.1,1.5,1,2.7,1.8C1407.9,876.2,1407.2,877.3,1406.5,877.3z M1407.7,802c1,0.7,2.5,1.5,2.4,1.8c-0.4,1-1.2,1.9-1.9,2.9
			c-0.7-0.6-1.8-1.2-1.9-1.9C1406.2,804,1407.1,803.1,1407.7,802z M1404.4,893.8c-1.8,0.1-3.1,0.4-4.1,0c-0.6-0.2-0.6-1.8-0.9-2.7
			c1.2-0.3,2.4-0.9,3.6-0.8C1403.4,890.4,1403.7,892,1404.4,893.8z M1392,797.3c0.4-0.2,1.5,1.1,3,2.3c-1.5,1-2.5,2-3.6,2.2
			c-0.6,0.1-1.4-1.3-2.1-2C1390.1,798.9,1390.9,797.8,1392,797.3z M1050.5,687c-0.9,0.1-2.5-1.1-2.8-2c-0.3-0.9,0.8-2.2,1.7-4.1
			c1.6,1.6,3,2.4,3.1,3.4C1052.6,685.2,1051.4,686.9,1050.5,687z M1064.3,631.1c0.7-0.3,2.4,1.8,4.3,3.4c-1.9,1.5-3.2,3.2-4.4,3.2
			c-1.3-0.1-2.5-1.8-3.8-2.8C1061.7,633.5,1062.7,631.7,1064.3,631.1z M1058.7,648.9c1.1,0.2,2,1.2,3.5,2.3c-1.5,1.2-2.6,2.4-3,2.3
			c-1-0.5-2-1.6-2.5-2.6C1056.6,650.5,1058.2,648.8,1058.7,648.9z M1046.5,625.8c1.6,0.1,3.2,1.7,5.8,3.3c-2.4,1.9-4,4-5.3,3.8
			c-1.4-0.2-3.1-2.3-3.6-4C1043.2,628.2,1045.5,625.7,1046.5,625.8z M1042,643.4c0.9,0.9,2.5,1.6,2.6,2.6c0.1,0.9-1.2,2.1-2.4,3.8
			c-1.3-1.7-2.7-2.7-2.6-3.6C1039.7,645.2,1041.2,644.4,1042,643.4z M1037.1,680.9c-2.2,0.5-3.7,1.4-4.5,1c-0.9-0.4-1.1-2.1-1.6-3.2
			c1.1-0.5,2.4-1.6,3.3-1.4C1035.2,677.5,1035.8,679.1,1037.1,680.9z M1030.2,623c0.9,1.1,2,1.8,2,2.6c0,0.7-1.1,1.9-1.9,2
			c-0.6,0.1-1.9-1.1-1.9-1.8C1028.4,625,1029.4,624.2,1030.2,623z M1016,671c1.5,1.8,3,2.8,2.9,3.7c-0.1,0.9-1.5,1.9-2.6,2.4
			c-0.4,0.2-2-1.1-2-1.8C1014.4,674.2,1015.2,673.1,1016,671z M976.3,625c0.9,1.1,2,1.9,1.9,2.6c0,0.7-1.2,1.9-1.8,1.9
			c-0.7,0-1.9-1.1-2-1.8C974.4,626.9,975.4,626.1,976.3,625z M967.4,659.2c0.7-0.1,1.5,1,2.7,1.9c-1.1,0.9-1.9,2-2.6,1.9
			c-0.7,0-1.9-1.2-1.9-1.8C965.6,660.4,966.7,659.2,967.4,659.2z M962.2,673.3c1.3-0.2,2.7,1.4,7.4,4.2c-3.2,1.3-4.9,2.8-6.4,2.5
			c-1.6-0.3-2.9-2.2-4.3-3.4C960.1,675.4,961,673.5,962.2,673.3z M957.2,690.1c1.6,0.7,2.7,2.5,4.1,3.9c-1.3,1-2.5,2.8-3.8,2.9
			c-1.3,0-2.6-1.7-4.6-3.3C954.8,691.9,956.5,689.8,957.2,690.1z M947.7,724.6c0.3-0.2,1.6,0.9,3.2,1.9c-1.3,1.2-2.1,2.4-3.2,2.8
			c-0.5,0.2-2.3-1.4-2.2-1.7C946,726.4,946.8,725.3,947.7,724.6z M940.7,685.3c1.2,1.4,2.5,2.3,2.3,2.7c-0.4,1-1.4,1.9-2.2,2.8
			c-0.7-0.6-2.1-1.3-2-1.8C938.9,687.9,939.8,686.9,940.7,685.3z M935.2,702.7c1.1,0.8,1.9,1.3,2.7,1.8c-0.7,1-1.4,2-2.1,3
			c-0.7-0.7-1.8-1.2-2-2C933.7,704.7,934.6,703.8,935.2,702.7z M932.3,719.6c0.9,0,1.9,1.4,3.6,2.8c-1.9,1.1-3.1,2.3-4,2.1
			c-0.9-0.2-2.3-1.8-2.2-2.7C929.7,721,931.3,719.6,932.3,719.6z M917.2,644.2c0.6-0.1,1.9,1.1,2,1.9c0.1,0.8-1,1.6-1.8,2.8
			c-0.9-1.1-2.1-1.9-2.1-2.6C915.3,645.5,916.5,644.3,917.2,644.2z M914.8,714.8c1.1,0,2.2,0.8,4.3,1.7c-1.8,1.5-2.9,3-3.7,2.9
			c-0.9-0.1-1.9-1.5-2.4-2.6C912.9,716.4,914.2,714.8,914.8,714.8z M905.5,623.8c0.7-0.1,1.5,1,2.7,1.9c-1.1,0.9-1.9,2-2.5,1.9
			c-0.8-0.1-1.4-1.2-2.2-1.8C904.1,625,904.7,623.9,905.5,623.8z M119.8,939c-1.1-0.4-2.3-1.2-3-2.1c-0.2-0.3,0.9-1.6,1.9-3.2
			c1.2,1.3,2.4,2.1,2.8,3.2C121.6,937.3,120.1,939.1,119.8,939z M129.3,849c-0.7,1.6-2.6,2.6-4,3.8c-1-1.3-2.7-2.6-2.7-3.9
			c0-1.3,1.8-2.5,3.4-4.4C127.6,846.6,129.6,848.3,129.3,849z M141.5,927.1c-1.1-0.4-2.2-1.1-2.9-2.1c-0.2-0.3,0.9-1.6,1.8-3.1
			c1.2,1.3,2.3,2,2.7,3.1C143.2,925.5,141.8,927.2,141.5,927.1z M178.2,846.2c0.9-0.3,2.1-1,2.8-0.7c0.7,0.3,0.9,1.6,1.5,3
			c-1.5,0.3-2.8,0.9-3.3,0.5C178.5,848.5,178.5,847.2,178.2,846.2z M194.5,924.2c-0.7,0-2-1.5-1.9-1.9c0.4-1.1,1.4-2.5,2.3-2.6
			c0.8-0.1,1.9,1.3,3.8,2.7C196.7,923.3,195.6,924.2,194.5,924.2z M193,797.1c0.1-0.8,1.2-1.5,1.9-2.2c0.7,0.7,1.9,1.3,2,2.1
			c0.1,0.7-1,1.5-1.8,2.7C194.1,798.6,193,797.8,193,797.1z M212.1,929.2c-1.1-0.4-2.5-1.3-2.7-2.2c-0.1-0.8,1.2-1.9,2.6-3.9
			c1.1,2.1,1.9,3.1,2,4.2C214,928,212.5,929.3,212.1,929.2z M227.1,935c-1-1.5-2.2-2.7-2-3c0.6-1,1.7-1.8,2.7-2.3
			c0.3-0.1,1.9,1.5,1.8,2C229.3,932.8,228.2,933.6,227.1,935z M248.9,923.3c-0.9-1.5-1.9-2.5-2-3.6c-0.1-0.6,1.3-1.4,1.9-2
			c0.8,0.9,2,1.6,2.4,2.7C251.4,920.7,250.1,921.8,248.9,923.3z M260.7,817.8c-0.7-0.7-1.8-1.3-1.9-2.1c-0.1-0.7,0.8-1.6,1.5-2.7
			c1.1,0.8,1.9,1.4,2.6,1.9C262.1,815.9,261.4,816.9,260.7,817.8z M336.8,803.8c-0.8,0-1.5-1.2-2.2-1.9c0.7-0.7,1.3-1.9,2.1-2
			c0.7-0.1,1.5,1,2.7,1.8C338.3,802.7,337.5,803.8,336.8,803.8z M330.9,773.3c-3.4-3.9-6.3-5.8-6.9-8.3c-0.8-3.6,1.9-6.6,5.5-6.2
			c2.2,0.2,5.5,2.9,5.7,4.8C335.6,766,333.2,768.6,330.9,773.3z M320.1,800.5c-0.6,0.3-3.7-1.8-3.7-2.7c0.1-1.7,1.6-3.4,3-6
			c2,1.9,4.2,3.3,4,4.2C323.1,797.7,321.6,799.5,320.1,800.5z M322,812.7c-4.5,2.8-6.1,4.4-7.8,4.6c-0.9,0.1-3.2-2.8-2.9-3.4
			c0.8-1.6,2.5-3.3,4.1-3.7C316.9,809.9,318.7,811.3,322,812.7z M362.1,776.9c-1.4-0.1-3.3-2.3-3.8-3.9c-0.3-0.8,2-3.5,3.1-3.5
			c1.7,0,3.4,1.6,6.1,3.2C365.1,774.8,363.6,777,362.1,776.9z M379.7,784.3c-3.6,1.2-6.3-1.3-6.9-5.1c-0.5-3.8,1.7-6.9,5.3-6.8
			c2.6,0,5.2,2.4,9.6,4.7C384.1,780.5,382.3,783.4,379.7,784.3z M395.8,790.3c-4.4,0-7.5-2.7-7.1-6.7c0.3-2.9,3.2-5.6,6-10.2
			c3.6,4,6.7,6,7.8,8.9C404,786.3,400.1,790.3,395.8,790.3z M412.4,783.4c1.6,2,3.4,3.2,3.5,4.5c0,1.3-1.7,2.6-2.7,3.9
			c-1.4-1.2-3.3-2.3-4.1-3.8C408.8,787.2,410.8,785.4,412.4,783.4z M437.9,763.9c-0.9,0.4-4.1-2.1-4.2-3.5c-0.1-1.9,1.6-4,3.3-7.5
			c2.6,3,5.3,4.7,5.3,6.3C442.2,760.9,439.8,763.1,437.9,763.9z M438.3,776.4c-2.6,1.7-4,3.4-5.7,3.6c-1,0.1-3.4-2.3-3.2-3
			c0.5-1.7,2-3.9,3.4-4.1C434.1,772.6,435.8,774.7,438.3,776.4z M428.1,795.3c-0.7-0.6-1.8-1.1-2-1.9c-0.1-0.7,0.7-1.6,1.3-2.8
			c1.1,0.7,2.5,1.4,2.5,1.7C429.5,793.4,428.7,794.3,428.1,795.3z M446.4,782.1c0.4-1.7,1.8-3.4,3.3-4.3c0.5-0.3,3.5,1.7,3.5,2.6
			c0,1.7-1.5,3.3-2.8,5.8C448.5,784.3,446.2,782.9,446.4,782.1z M452.4,764.4c-0.2-0.3,0.9-1.6,2-3.2c1.2,1.3,2.3,2.1,2.7,3.2
			c0.2,0.5-1.4,2.3-1.6,2.2C454.3,766.2,453.1,765.4,452.4,764.4z M474,879.4c-0.5-0.2-0.6-1.8-0.8-2.7c1.2-0.3,2.4-0.9,3.5-0.7
			c0.5,0.1,0.8,1.7,1.5,3.4C476.4,879.5,475,879.8,474,879.4z M471.8,774.1c-1.7-2-3.5-3.2-3.4-4.4c0-1.2,1.8-3.2,2.9-3.3
			c1.1-0.1,3.1,1.7,3.3,2.9C474.7,770.4,473.1,771.9,471.8,774.1z M473,752.4c-0.2-0.4,1.1-2,1.7-2c1.1,0,2.2,0.7,4.4,1.6
			c-1.9,1.6-2.8,3-3.7,3C474.5,754.9,473.5,753.5,473,752.4z M477.9,735.7c-0.2-0.4,1.1-2.1,1.8-2.1c1.1-0.1,2.3,0.8,4.6,1.7
			c-1.9,1.6-3,3.2-3.8,3.1C479.5,738.3,478.4,736.8,477.9,735.7z M483.9,917.1c-1.1-0.4-2.2-1.1-2.9-2.1c-0.2-0.3,0.9-1.6,1.8-3.1
			c1.2,1.3,2.3,2,2.7,3.1C485.7,915.4,484.2,917.2,483.9,917.1z M487.2,901.3c-0.7,0-2-1.2-1.9-1.8c0-0.7,1.1-1.9,1.8-2
			c0.7-0.1,1.5,1,2.7,1.9C488.7,900.3,487.9,901.3,487.2,901.3z M485.1,773.4c0-0.8,1.1-2,1.9-2.1c0.7-0.1,1.6,1,2.8,1.9
			c-1.1,0.9-1.9,2-2.6,2C486.4,775.3,485.1,774.1,485.1,773.4z M492.6,885.1c-1-0.8-2.4-1.8-2.3-2c0.5-1,1.4-1.8,2.1-2.7
			c0.6,0.7,1.7,1.3,1.8,2C494.3,883.2,493.3,884,492.6,885.1z M492.6,760.3c-1-0.9-1.8-1.5-2.5-2.1c0.8-0.9,1.5-1.8,2.3-2.7
			c0.7,0.7,1.8,1.4,1.9,2.2C494.3,758.4,493.3,759.2,492.6,760.3z M490.1,707.2c-1.5-2.2-3.2-3.6-3.1-4.7c0.1-1.2,2.1-3.2,3.2-3.1
			c1.2,0,3.1,2,3.2,3.2C493.5,703.7,491.7,705.1,490.1,707.2z M485.2,647.4c-0.1-0.6,2.1-2.3,2.9-2.1c1.4,0.3,2.5,1.8,4.7,3.5
			c-2.5,1.3-4.2,2.8-5.2,2.5C486.5,650.9,485.5,648.9,485.2,647.4z M504.1,905.2c-0.8,0-2-1.1-2.1-1.9c-0.1-0.7,1-1.6,1.9-2.8
			c0.9,1.1,2,1.9,2,2.6C505.9,903.9,504.7,905.2,504.1,905.2z M495,740.8c0-0.7,1.2-2,1.9-2c0.8,0,2,1.2,2,1.9
			c0.1,0.7-1,1.6-1.9,2.8C496.1,742.4,495,741.6,495,740.8z M508.9,889.5c-0.7,0-2-1.2-2-1.9c0-0.8,1.2-2,1.9-2
			c0.7-0.1,1.6,1,2.7,1.9C510.4,888.4,509.6,889.5,508.9,889.5z M508.8,766.2c-1.6-2.2-3.3-3.5-3.2-4.7c0.1-1.2,2.1-3.1,3.2-3.1
			c1.1,0,3,2,3.2,3.2C512,762.8,510.3,764.1,508.8,766.2z M504.5,706.8c-0.1-0.4,1.4-2,2-1.9c1.2,0.1,2.2,1.1,4.4,2.3
			c-2.1,1.4-3.2,2.7-4.2,2.6C505.8,709.5,504.8,707.9,504.5,706.8z M514,748.5c-0.9-1.1-2.1-1.9-2-2.6c0-0.7,1.2-1.4,1.9-2.1
			c0.7,0.7,1.8,1.3,1.9,2C515.9,746.5,514.8,747.4,514,748.5z M522.2,766.5c-0.1-1.3,1.5-2.7,2.9-4.9c1.8,1.8,4.1,3.4,3.9,4.1
			c-0.6,1.7-2.3,2.9-3.6,4.4C524.2,768.9,522.3,767.8,522.2,766.5z M526.9,712c-0.7,1.6-2.6,2.6-4,3.8c-1-1.3-2.7-2.6-2.7-4
			c0-1.2,1.8-2.4,3.4-4.3C525.2,709.5,527.2,711.3,526.9,712z M530.8,745.7c1.1,2.2,2,3.3,2.1,4.4c0,0.6-1.6,2.1-2,1.9
			c-1.1-0.4-2.6-1.4-2.8-2.3C527.9,748.9,529.3,747.7,530.8,745.7z M527.7,822.5c-0.8-0.1-1.5-1.2-2.2-1.9c0.7-0.7,1.3-2,2.1-2
			c0.7-0.1,1.6,1.1,2.8,2C529.2,821.5,528.4,822.6,527.7,822.5z M532.7,809.5c-1.7-2-3.5-3.2-3.4-4.4c0-1.2,1.8-3.2,2.9-3.3
			c1.1-0.1,3.1,1.7,3.3,2.9C535.7,805.9,534.1,807.3,532.7,809.5z M537.9,790c-1-0.3-1.7-1.5-2.5-2.3c0.7-0.6,1.4-1.6,2.2-1.7
			c0.7,0,1.5,1,3.4,2.3C539.6,789.1,538.6,790.2,537.9,790z M543.6,774.1c-1.5-0.2-3.6-0.9-4.1-2c-0.5-1,0.9-2.8,1.9-5.4
			c2,2,3.5,2.9,4,4.3C545.7,771.7,544.1,774.1,543.6,774.1z M542.9,755.4c0.5-1.6,2.2-2.9,3.4-4.3c1.1,1.2,3,2.2,3.2,3.5
			c0.2,1.2-1.4,2.6-2.7,4.8C545,757.5,542.7,756.1,542.9,755.4z M553.9,920.3c-0.4,0.2-2-1.2-2-1.8c0-1.1,0.8-2.3,1.7-4.5
			c1.6,1.9,3.1,3,3,3.8C556.5,918.8,555,919.8,553.9,920.3z M555.7,775.8c0-0.7,1.5-2.1,1.9-1.9c1.1,0.4,2.6,1.3,2.8,2.3
			c0.1,0.9-1.3,2-2.7,3.9C556.6,778,555.7,776.9,555.7,775.8z M567.8,740.7c0.7-0.1,1.6,0.9,2.6,1.6c-0.8,1-1.8,2.4-2,2.3
			c-1-0.5-1.8-1.4-2.7-2.1C566.4,741.8,567,740.7,567.8,740.7z M562.8,689.1c-0.3-1.1,1.3-2.7,2.5-5c1.8,1.8,3.7,2.9,3.7,4.1
			c0.1,1.2-1.6,2.6-2.6,3.8C565.1,691.1,563.1,690.3,562.8,689.1z M575,784c-1-1.1-2.2-1.9-2.1-2.6c0-0.8,1.2-1.5,1.9-2.2
			c0.7,0.7,1.9,1.3,2,2.1C576.9,781.9,575.8,782.8,575,784z M581.6,820.6c-0.6,0.1-1.9-1.2-2-1.9c-0.1-0.7,1-1.6,1.9-2.8
			c0.9,1.1,2.1,1.9,2.1,2.7C583.5,819.3,582.3,820.5,581.6,820.6z M584.4,745.3c0.9-0.3,2.2,0.9,4.2,1.8c-1.6,1.6-2.5,3.1-3.5,3.1
			c-1,0-2.7-1.2-2.8-2.1C582.1,747.2,583.4,745.5,584.4,745.3z M579.6,693.7c0.2-1.4,1.6-2.5,3.2-4.7c1.4,2.4,3.1,3.9,2.8,5.1
			c-0.2,1.1-2.3,2.2-3.7,2.5C581.3,696.7,579.5,694.6,579.6,693.7z M650.5,821.7c-0.1-0.7,0.8-1.6,1.4-2.8c1.1,0.8,1.9,1.3,2.7,1.8
			c-0.7,1-1.4,2-2.1,3C651.8,823.1,650.6,822.5,650.5,821.7z M643.3,732.8c-0.7-1.5-1.7-2.6-1.5-3.3c0.3-1,1.5-1.8,2.2-2.7
			c0.6,0.7,1.7,1.4,1.8,2.1C645.8,729.7,644.8,730.5,643.3,732.8z M636.8,696.1c-1.7-0.1-4.5-2.8-4.5-4.4c0-1.6,2.7-4.3,4.4-4.6
			c1.6-0.2,3.6,2.1,6.7,4.2C640.4,693.7,638.6,696.2,636.8,696.1z M619.6,808c1.4-0.2,3.2,1.7,5.7,3.3c-2.2,2-3.6,4.3-5,4.3
			c-1.5,0-3.9-2.1-4.2-3.5C616.1,810.8,618.2,808.2,619.6,808z M613.1,776.7c-0.7-0.7-2.1-1.4-2.1-2c0.1-1.1,1-2.1,1.9-3.7
			c1.3,1.4,2.7,2.4,2.5,2.8C615,774.9,613.9,775.7,613.1,776.7z M640.7,801.7c-0.7,0-1.9-1.2-1.9-1.9c-0.1-0.6,1.1-1.8,1.8-1.9
			c0.7,0,1.5,1,2.7,1.8C642.1,800.6,641.4,801.7,640.7,801.7z M643.7,816.1c-3.1,2.5-4.8,4.7-6.7,5c-1.4,0.2-4.6-2.4-4.5-3.4
			c0.2-2,1.9-5,3.6-5.4C637.8,811.9,640.1,814.1,643.7,816.1z M637.9,748.9c-0.6,0.1-2.5-2.1-2.4-3c0.2-1.4,1.7-2.6,3.4-4.9
			c1.4,2.5,3.1,4.1,2.8,5.2C641.5,747.4,639.4,748.5,637.9,748.9z M638.6,762.4c-2,1.6-3.2,3.4-4.5,3.5c-1.3,0-2.6-1.7-3.9-2.7
			c1.3-1.4,2.3-3.3,3.9-4.1C634.8,758.8,636.6,760.9,638.6,762.4z M633.5,777.4c-1.9,1.8-3,3.8-4.2,3.8c-1.3,0.1-2.6-1.7-3.9-2.6
			c1-1.3,1.7-3.4,2.9-3.7C629.5,774.6,631.1,776.2,633.5,777.4z M628.8,795.6c-2.3,0.8-3.4,1.6-4.5,1.5c-0.7,0-1.9-1.7-1.7-2.1
			c0.5-1,1.6-2.4,2.6-2.5C626,792.6,627,794,628.8,795.6z M622,742.9c-0.7-0.6-1.8-1.2-2-2c-0.1-0.7,0.8-1.6,1.4-2.7
			c1,0.7,2.5,1.5,2.4,1.7C623.5,741,622.7,741.9,622,742.9z M634.5,706.7c-0.8,1.1-1.4,1.9-1.9,2.6c-1-0.7-1.9-1.4-2.9-2.2
			c0.7-0.7,1.3-1.8,2.1-1.9C632.5,705.1,633.4,706,634.5,706.7z M626,674.6c-2-1.6-4.4-2.9-4.2-3.6c0.3-1.6,1.9-3,3-4.5
			c1.2,1,3.2,1.9,3.5,3.2C628.6,670.8,627.1,672.4,626,674.6z M627.4,685.4c-3.8,3.2-5.6,5.7-6.7,5.4c-1.9-0.5-3.4-2.7-5.1-4.2
			c1.7-1.5,3.2-3.8,5.1-4.2C622.3,682.2,624.4,684,627.4,685.4z M617.7,702.8c-0.8,1.1-1.6,2.6-1.8,2.5c-1.1-0.4-2-1.2-3-1.9
			c0.6-0.7,1.2-1.9,2-2C615.6,701.3,616.5,702.2,617.7,702.8z M607.8,667.9c-1.1-0.2-2.3-2.2-2.6-3.7c-0.1-0.6,1.9-2.5,2.8-2.3
			c1.4,0.2,2.6,1.6,4.8,3.1C610.4,666.5,609,668.1,607.8,667.9z M614.9,821.7c2.4,3.1,4.9,4.9,4.8,6.7c-0.1,1.7-2.8,4.5-4.4,4.5
			c-1.6,0-4.3-2.7-4.6-4.4C610.4,826.8,612.8,824.8,614.9,821.7z M608.4,791.9c-0.7-0.7-1.9-1.3-2-2c-0.1-0.7,1-1.5,1.9-2.7
			c0.9,1.1,2,1.9,1.9,2.5C610.2,790.5,609.1,791.2,608.4,791.9z M605.2,738.1c-0.7-0.6-1.9-1.2-2-1.9c-0.1-0.7,0.7-1.7,1.3-2.8
			c1.1,0.7,2.6,1.5,2.5,1.7C606.7,736.2,605.9,737.1,605.2,738.1z M598.5,825.8c-1-0.1-2-1.5-2.5-2.6c-0.2-0.3,1.1-2,1.8-2
			c1.1,0,2.2,0.8,4.4,1.7C600.4,824.4,599.4,825.9,598.5,825.8z M589.5,732.7c-0.7,0-1.9-1.2-1.9-1.9c-0.1-0.6,1.1-1.8,1.8-1.9
			c0.7,0,1.5,1,2.7,1.8C591,731.7,590.2,732.8,589.5,732.7z M666.1,788.4c-1.9,1.1-3.1,2.2-4,2c-0.9-0.2-1.6-1.7-2.4-2.7
			c1-0.8,1.9-2.2,2.9-2.2C663.5,785.5,664.4,786.9,666.1,788.4z M664.9,771.5c0.9-0.9,1.7-2,2.8-2.5c0.4-0.2,1.5,1.1,2.9,2.4
			c-1.6,1-2.6,1.9-3.7,2.1C666.4,773.6,665.6,772.2,664.9,771.5z M655.8,752.9c-1-0.6-1.7-1.7-2.6-2.5c0.7-0.7,1.5-1.9,2.1-1.8
			c1,0.2,1.9,1.2,3.4,2.2C657.3,751.8,656.2,753,655.8,752.9z M672.2,809.6c-0.1-0.7,1-1.5,1.8-2.6c0.9,1.1,2.1,1.9,2,2.6
			c0,0.7-1.2,1.4-1.9,2.1C673.5,811,672.3,810.4,672.2,809.6z M672.2,756.4c-0.7,0-1.9-1.2-2-1.9c-0.1-0.6,1.2-1.9,1.9-2
			c0.7-0.1,1.6,1,2.8,1.9C673.7,755.3,673,756.4,672.2,756.4z M677.2,683.9c-0.2,1.2-2.3,3-3.4,2.8c-1.1-0.1-2.9-2.2-2.9-3.4
			c0-1.2,1.8-2.4,3.5-4.4C675.8,681.2,677.4,682.7,677.2,683.9z M681.1,793c0.1,0.7-0.9,1.5-1.7,2.7c-1-1.1-2.1-1.8-2.1-2.5
			c0-0.7,1.2-1.4,1.8-2.1C679.9,791.7,681,792.3,681.1,793z M684.4,778.2c-0.8-0.8-1.7-1.6-2.5-2.4c0.7-0.6,1.4-1.6,2.1-1.6
			c0.8,0,1.5,1,2.6,1.8C685.8,776.9,685.1,777.5,684.4,778.2z M685.9,759.6c0-0.7,1.1-1.9,1.8-2c0.7-0.1,1.5,1,2.7,1.8
			c-1.1,0.9-1.9,2-2.6,2C687.2,761.4,685.9,760.3,685.9,759.6z M692.6,740.3c1.1,0.1,2.1,1.1,4.2,2.3c-2,1.3-3.2,2.5-4.1,2.4
			c-0.9-0.2-1.8-1.7-2.1-2.8C690.4,741.8,691.9,740.3,692.6,740.3z M688.9,688.7c-0.1-0.7,0.9-1.6,1.7-2.6c1,0.8,2.4,1.7,2.2,2
			c-0.4,1-1.3,1.8-2,2.7C690.1,690,689,689.4,688.9,688.7z M700.5,710.7c0.1-1.1,1.1-2.1,2.2-4.2c1.2,1.9,2.5,3.1,2.4,3.9
			c-0.2,0.9-1.7,1.8-2.7,2.1C701.9,712.7,700.4,711.2,700.5,710.7z M698.2,729.1c-0.8-0.8-1.7-1.6-2.5-2.4c0.7-0.6,1.4-1.6,2.1-1.6
			c0.8,0,1.5,1,2.6,1.8C699.5,727.7,698.8,728.4,698.2,729.1z M695.8,800.9c-1.1,0-3.1-1.9-3.1-3.2c-0.1-1.2,1.7-2.5,3.2-4.6
			c1.5,2.1,3.2,3.5,3.1,4.7C698.9,799.1,696.9,801,695.8,800.9z M694.8,813.5c-2,1.2-3.2,2.5-4,2.3c-0.9-0.2-1.7-1.7-2.1-2.8
			c-0.1-0.4,1.3-1.8,2-1.8C691.8,811.4,692.8,812.3,694.8,813.5z M707.7,820.5c-0.6,0.1-1.9-1.1-2-1.9c-0.1-0.8,1-1.6,1.8-2.8
			c0.9,1.1,2.1,1.9,2.1,2.6C709.6,819.2,708.4,820.4,707.7,820.5z M709.2,745.3c1.2,0.1,2.2,1.1,4.3,2.3c-2,1.3-3.2,2.7-4.1,2.5
			c-0.9-0.2-1.8-1.7-2.2-2.8C707.1,746.8,708.6,745.2,709.2,745.3z M705.4,693.7c0.2-1.1,1.2-2,2.2-3.4c1.2,1.5,2.4,2.6,2.2,2.9
			c-0.6,1-1.7,1.8-2.6,2.6C706.6,695.1,705.3,694.3,705.4,693.7z M742.3,827.7c-0.4,1.1-1.2,2.3-2.1,3c-0.3,0.2-1.6-0.9-3.2-1.9
			c1.3-1.2,2.1-2.4,3.2-2.8C740.6,825.9,742.4,827.4,742.3,827.7z M735.2,721.7c-0.9-0.9-2.5-1.7-2.6-2.7c-0.1-0.9,1.2-2.1,2.4-3.9
			c1.3,1.7,2.7,2.8,2.6,3.7C737.5,719.9,736,720.8,735.2,721.7z M806,724c-0.7,0-2-1.2-1.9-1.8c0-0.7,1.1-1.9,1.8-2
			c0.7-0.1,1.5,1,2.7,1.9C807.5,723,806.7,724.1,806,724z M813,776.5c-2,1-3.2,2.3-4.1,2c-1-0.2-1.6-1.8-2.4-2.7
			c1-0.8,1.9-2.2,2.9-2.2C810.3,773.6,811.3,775,813,776.5z M804.1,795.2c-0.7-0.6-1.9-1.2-2-1.9c-0.1-0.7,0.7-1.7,1.3-2.8
			c1.1,0.7,2.6,1.5,2.5,1.7C805.6,793.2,804.8,794.2,804.1,795.2z M797.1,756.6c-0.5,0.1-2.1-1.5-2-1.7c0.5-1,1.3-2.1,2.3-2.6
			c0.4-0.2,1.5,1,3,2C799,755.3,798.2,756.4,797.1,756.6z M790.4,719.6c-1-0.1-1.9-1.6-2.8-2.5c0.9-0.9,1.7-2.5,2.7-2.6
			c0.9-0.1,2.1,1.2,3.8,2.5C792.4,718.2,791.3,719.7,790.4,719.6z M768,745.9c0.4,1.1-1.9,3.2-3.9,6.1c-2.1-2.7-4.3-4.3-4.6-6.2
			c-0.2-1.3,2.4-3,3.7-4.5C764.9,742.8,767.3,744,768,745.9z M765.3,729.4c0.6-1.6,2.5-2.8,3.8-4.1c1.1,1.3,2.9,2.5,3,3.8
			c0.1,1.2-1.7,2.6-3.2,4.6C767.2,731.8,765,730.1,765.3,729.4z M762.6,761.8c-1.9,1.6-2.9,3.1-3.8,3c-0.9-0.1-2-1.5-2.5-2.6
			c-0.2-0.4,1.1-2,1.8-2C759.3,760.1,760.4,760.9,762.6,761.8z M759.7,816.9c0.2-1.1,1.2-2,2.2-3.5c1.1,1.4,2.3,2.5,2.1,2.9
			c-0.5,1-1.5,1.9-2.5,2.4C761.3,818.8,759.6,817.3,759.7,816.9z M776.6,821.4c-0.1-0.7,1-1.5,1.8-2.6c0.9,1.1,2.1,1.9,2,2.6
			c0,0.7-1.2,1.4-1.9,2.1C777.9,822.8,776.7,822.2,776.6,821.4z M780.5,804.9c0.1-0.8,1.2-1.4,1.8-2.1c0.7,0.7,1.9,1.3,2,2
			c0.1,0.7-1,1.5-1.9,2.7C781.5,806.4,780.4,805.6,780.5,804.9z M785.2,788.7c-0.2-1,0.5-2.2,1.2-4.5c1.7,1.7,3.2,2.6,3.2,3.4
			c0,1-1.2,2.1-2.2,2.7C787.1,790.5,785.4,789.4,785.2,788.7z M793.8,829.1c-1.1-1.9-2.3-3.1-2.1-4c0.2-0.9,1.8-2.3,2.7-2.2
			c0.9,0.1,2.2,1.7,2.2,2.6C796.6,826.4,795.2,827.4,793.8,829.1z M790.3,771.4c0.1-0.8,1.2-1.5,1.9-2.2c0.7,0.7,2,1.3,2.1,2.1
			c0.1,0.7-1,1.6-2,2.8C791.3,772.9,790.2,772.1,790.3,771.4z M787.7,665.7c-1-0.9-1.7-1.5-2.4-2.1c0.8-0.9,1.6-1.7,2.3-2.6
			c0.6,0.7,1.7,1.4,1.7,2.2C789.4,663.8,788.4,664.6,787.7,665.7z M788.9,734.4c0.1,0.9-2.8,3.2-3.4,2.9c-1.5-0.8-3.1-2.5-3.6-4.1
			c-0.2-0.8,1.9-2.3,3.6-4.4C787.1,731.2,788.7,732.7,788.9,734.4z M785.1,749.9c-1.9,1.8-2.9,3.7-4.1,3.8c-1.3,0.1-2.6-1.7-3.9-2.6
			c1-1.3,1.7-3.4,2.9-3.7C781.1,747.1,782.7,748.7,785.1,749.9z M774,715.4c-1.6-0.7-2.7-2.5-4-3.8c1.2-1,2.5-2.8,3.7-2.8
			c1.3,0,2.5,1.7,4.5,3.2C776.3,713.6,774.6,715.7,774,715.4z M771.8,659.9c-0.7,0-1.4-1.2-2.1-1.9c0.7-0.7,1.3-1.8,2.1-2
			c0.7-0.1,1.5,1,2.6,1.8C773.3,658.8,772.5,659.9,771.8,659.9z M771.4,674.3c-1.8,1.7-3.4,4-4.1,3.7c-1.6-0.5-2.8-2.3-4.1-3.5
			c1.2-1.1,2.3-2.9,3.6-3.1C768,671.3,769.4,672.9,771.4,674.3z M768.9,690.5c-4.5,2.8-6.1,4.4-7.7,4.5c-0.9,0.1-3.1-2.8-2.9-3.3
			c0.8-1.6,2.5-3.3,4.1-3.6C763.7,687.8,765.5,689.2,768.9,690.5z M759.9,706.7c0.1,1.2-1.5,3.4-2.6,3.5c-1.1,0.2-3.3-1.5-3.6-2.6
			c-0.3-1.2,1.3-2.7,2.5-5C757.9,704.4,759.8,705.5,759.9,706.7z M755.4,723.4c-1.3,1.4-2.4,3.2-4,3.9c-0.7,0.3-2.4-1.8-4.4-3.5
			c2-1.5,3.3-3.3,4.5-3.3C752.9,720.7,754.1,722.4,755.4,723.4z M750.4,740.2c0.2,1.3-1.5,2.8-2.3,4.2c-1.5-1.1-3.5-2-4.4-3.5
			c-0.4-0.7,1.5-2.7,2.9-4.9C748.3,737.8,750.2,738.9,750.4,740.2z M743.5,759.8c-1.1-0.4-2.5-1.3-2.7-2.2c-0.1-0.8,1.2-1.9,2.6-3.9
			c1.1,2.1,1.9,3.1,2,4.2C745.4,758.6,743.9,759.9,743.5,759.8z M747.1,810.9c-0.7,1-1.4,1.9-2.2,2.9c-0.7-0.7-1.8-1.3-1.9-2.1
			c-0.1-0.7,0.8-1.6,1.5-2.7C745.6,809.8,746.3,810.4,747.1,810.9z M740.2,705.7c-0.9-0.1-1.9-1.5-2.4-2.6c-0.2-0.3,1.1-1.9,1.8-2
			c1.1,0,2.2,0.8,4.3,1.7C742.1,704.3,741,705.8,740.2,705.7z M726.5,806.8c-0.1-0.7,1-1.5,1.9-2.7c0.9,1.1,2,1.9,1.9,2.6
			c0,0.7-1.2,1.9-1.8,1.9C727.7,808.6,726.5,807.5,726.5,806.8z M727,755.9c-1.3,0.2-2.8-1.5-4.2-2.3c1.1-1.5,2-3.5,3.5-4.4
			c0.7-0.4,2.6,1.5,4.8,2.8C729.3,753.8,728.2,755.8,727,755.9z M719.5,717.1c-0.7,0-1.9-1.2-2-1.9c-0.1-0.6,1.2-1.9,1.9-2
			c0.8-0.1,1.6,1,2.8,1.9C721,716,720.2,717.1,719.5,717.1z M718.1,731.2c-1.4,0.8-2.4,1.8-3.1,1.6c-1-0.3-1.8-1.5-2.6-2.4
			c0.7-0.6,1.5-1.7,2.3-1.7C715.4,728.7,716.2,729.8,718.1,731.2z M710.9,797.9c1.5,1.6,3,2.5,3,3.4c0,1-1.2,2.6-2.1,2.8
			c-0.8,0.1-2.5-1.1-2.8-2.1C708.8,801.1,709.9,799.9,710.9,797.9z M1010.2,890.4c-1.2,0-3.2-1.8-3.3-2.9c-0.1-1.1,1.7-3.1,2.8-3.3
			c1.1-0.2,2.6,1.4,4.8,2.7C1012.5,888.7,1011.3,890.5,1010.2,890.4z M1025.8,895.5c-1.1-1.4-2.2-2.3-2.5-3.4
			c-0.1-0.5,1.5-2.1,1.8-2c1.1,0.5,2.2,1.3,2.7,2.3C1028,892.8,1026.8,893.9,1025.8,895.5z M1042.4,899.9c-0.9-0.9-2.2-1.9-2.1-2.1
			c0.5-1,1.5-1.7,2.3-2.5c0.6,0.7,1.7,1.4,1.7,2.2C1044.3,898.1,1043.2,898.8,1042.4,899.9z M1047.4,883c-0.9-1.1-2-1.9-2-2.6
			c0-0.7,1.1-1.9,1.9-1.9c0.6-0.1,1.9,1.1,1.9,1.8C1049.3,881,1048.2,881.8,1047.4,883z M1059.5,903.5c-1,0-2-1.3-3-2
			c0.7-1,1.3-2.5,2.3-2.8c0.9-0.3,2.1,0.9,4.1,1.8C1061.2,902,1060.4,903.5,1059.5,903.5z M1063.7,888.1c-0.8-1-2.2-1.9-2.2-2.9
			c0-0.9,1.4-1.9,2.9-3.6c1.1,2,2.3,3.2,2.1,4.1C1066.2,886.6,1064.7,887.3,1063.7,888.1z M1081.4,891.2c-1-0.5-1.9-1.4-2.8-2.2
			c0.7-0.7,1.4-1.8,2.1-1.9c0.7-0.1,1.6,1,2.7,1.8C1082.6,889.9,1081.6,891.3,1081.4,891.2z M1112.9,901.7c-1-0.2-2.3-1.8-2.3-2.7
			c0.1-0.9,1.7-2.2,2.7-2.2c0.9,0,1.9,1.4,3.6,2.9C1115,900.6,1113.8,901.9,1112.9,901.7z M1118.6,884.3c-1-0.3-1.8-1.5-2.6-2.4
			c0.7-0.6,1.5-1.7,2.3-1.7c0.7,0,1.5,1,3.5,2.4C1120.3,883.4,1119.2,884.5,1118.6,884.3z M1205.6,895.8c-1.7-2.4-3.7-4.1-3.6-5.5
			c0.2-1.5,2.5-3.7,3.9-3.6c1.3,0,3.6,2.5,3.6,3.9C1209.7,892,1207.5,893.5,1205.6,895.8z M1222,897.5c-1.2,0-2.5-1.8-4.4-3.4
			c2-1.6,3.8-3.7,4.5-3.4c1.6,0.7,2.7,2.6,3.9,4C1224.7,895.7,1223.4,897.5,1222,897.5z M1226.5,880.9c-1-0.1-2-1.6-2.6-2.7
			c-0.2-0.4,1.2-2.1,1.8-2.1c1.1,0,2.3,0.8,4.6,1.7C1228.4,879.4,1227.4,881,1226.5,880.9z M1243.3,884.5c-1.1-0.5-2-1.6-2.6-2.6
			c-0.1-0.2,1.4-2,2-1.9c1.1,0.2,2.1,1.2,3.6,2.2C1244.8,883.4,1243.7,884.7,1243.3,884.5z M1263,887.4c-0.3,1.3-2.2,2.5-3.7,2.9
			c-0.5,0.2-2.6-1.9-2.5-2.8c0.1-1.4,1.5-2.7,3-5.1C1261.4,884.8,1263.2,886.4,1263,887.4z M1275.8,896c-0.8-2.3-1.6-3.4-1.5-4.5
			c0-0.7,1.7-1.9,2.1-1.7c1,0.5,2.4,1.6,2.5,2.6C1278.9,893.1,1277.4,894.1,1275.8,896z M1283.5,881.1c-1-0.6-1.9-1.2-2.9-1.7
			c-0.9-1.4-2.6-2.8-2.5-4c0.1-1.2,2-2.4,3.1-3.6c1.3,1.4,3.3,2.6,3.8,4.2C1285.3,877.4,1284,879.4,1283.5,881.1z M1297.5,882.5
			c-1-0.6-1.7-1.7-2.6-2.5c0.7-0.7,1.5-1.9,2.1-1.8c1,0.2,1.9,1.2,3.4,2.2C1298.9,881.5,1297.8,882.7,1297.5,882.5z M1336.1,876.6
			c-1.3,0.1-2.6-1.6-3.9-2.6c0.9-1.3,1.7-3.3,2.9-3.6c1.1-0.3,2.7,1.2,5.1,2.4C1338.3,874.6,1337.3,876.6,1336.1,876.6z M1336.8,799
			c1.6-0.1,3.3,1.4,6.1,2.8c-2.3,2.1-3.6,4.3-5,4.3c-1.4,0-3.3-2-3.9-3.6C1333.7,801.7,1335.7,799,1336.8,799z M1320.7,794.7
			c1.4,0.3,2.5,1.8,4.7,3.5c-2.5,1.3-4.2,2.8-5.2,2.5c-1.2-0.4-2.1-2.4-2.4-3.9C1317.7,796.2,1319.9,794.5,1320.7,794.7z
			 M1283.9,799.9c1.4,2.3,3.1,3.8,2.8,5c-0.3,1.3-2.3,2.1-3.5,3.2c-1-1.3-2.8-2.5-2.9-3.8C1280.3,803.1,1282.2,801.9,1283.9,799.9z
			 M1266.3,797.4c1.1,0.2,2,1.2,3.5,2.1c-1.5,1.2-2.5,2.5-2.9,2.3c-1-0.5-1.9-1.5-2.5-2.6C1264.3,799,1265.8,797.3,1266.3,797.4z
			 M1250.1,793.5c1.1-0.2,2.3,0.5,4.7,1.2c-1.8,1.8-2.6,3.3-3.5,3.3c-1,0-2.2-1.3-2.8-2.3C1248.3,795.4,1249.5,793.6,1250.1,793.5z
			 M1246.2,808.2c1.2-0.1,2.5,1.7,4.6,3.2c-2.1,1.5-3.5,3.2-4.7,3.1c-1.2-0.1-3.1-2.1-3.1-3.2C1243,810.2,1244.9,808.3,1246.2,808.2
			z M1229.1,805.5c0.7-0.1,1.6,0.8,2.7,1.4c-0.7,1-1.5,2.5-1.8,2.4c-1-0.4-1.9-1.2-2.9-1.9C1227.8,806.8,1228.3,805.6,1229.1,805.5z
			 M1212.6,800c0.9,1.1,2,1.9,2,2.7c0,0.7-1.2,2-1.9,2c-0.8,0-2-1.2-2-1.9C1210.6,802,1211.7,801.2,1212.6,800z M1195.6,795.2
			c1.1,0.6,2.5,1.7,2.6,2.7c0.1,0.9-1.5,1.9-3.1,3.8c-0.9-2.3-1.7-3.5-1.6-4.6C1193.5,796.3,1195.2,795,1195.6,795.2z M1189.3,882.2
			c1.2,0,2.4,1.8,4.4,3.4c-2.3,1.4-3.7,3.1-4.9,2.9c-1.2-0.2-3-2.3-2.9-3.4C1186,884,1188.1,882.2,1189.3,882.2z M1174.9,807
			c0.9-0.3,2.2,0.8,4.1,1.7c-1.6,1.6-2.4,3-3.3,3.1c-1,0-2.7-1.1-2.8-2C1172.7,809,1173.9,807.3,1174.9,807z M1172.3,875.9
			c1.7-0.2,3.6,2.2,6.7,4.4c-3.2,2.3-5.1,4.8-6.8,4.7c-1.7-0.1-4.5-3-4.5-4.6C1167.7,878.7,1170.5,876.1,1172.3,875.9z
			 M1172.4,897.5c-0.3,1.9-3.4,4.3-5.6,4.7c-1.2,0.2-4.5-3-4.4-4.7c0-2.1,2.4-4.3,4.9-8.3C1170,893.3,1172.7,895.6,1172.4,897.5z
			 M1158.3,802.1c0.9-0.1,2.1,1.2,3.8,2.4c-1.7,1.3-2.7,2.7-3.6,2.6c-1-0.1-1.9-1.5-2.8-2.4C1156.6,803.8,1157.3,802.3,1158.3,802.1
			z M1151.7,888.5c1.2,1.1,3.5,2.4,3.4,3.3c-0.2,1.7-1.9,3.1-3.5,5.6c-1.7-2.2-3.8-3.8-3.5-4.6
			C1148.6,891.1,1150.4,889.9,1151.7,888.5z M1141.8,797.6c0.7,0,1.5,1,3.4,2.4c-1.3,0.8-2.4,1.8-3,1.6c-1-0.3-1.7-1.5-2.5-2.3
			C1140.4,798.7,1141.1,797.6,1141.8,797.6z M1136.1,814.2c1.1,0,2.2,0.8,4.3,1.7c-1.9,1.5-2.9,2.9-3.7,2.8
			c-0.9-0.1-1.9-1.5-2.4-2.5C1134.3,815.8,1135.5,814.2,1136.1,814.2z M1135.2,885.3c0.6,0.7,1.7,1.4,1.7,2.2c0,0.7-1,1.5-1.9,2.5
			c-0.9-0.9-2.2-1.9-2.1-2.1C1133.4,886.8,1134.3,886.1,1135.2,885.3z M1120.7,809.1c1.1,0.4,2.6,1.3,2.7,2.2
			c0.1,0.9-1.3,1.9-2.7,3.9c-1-2.1-1.9-3.1-1.9-4.2C1118.8,810.4,1120.3,809,1120.7,809.1z M1104.1,804.3c0.8-0.2,2,1,4.1,2.2
			c-2,1.2-2.9,2.2-4,2.4c-0.6,0.1-2.1-1.3-2-1.7C1102.4,806,1103.2,804.5,1104.1,804.3z M1087.6,798.4c1.6-0.1,3.5,2.4,6.6,4.8
			c-3.4,1.9-5.3,3.7-7.3,3.7c-1.3,0-4-3-3.7-3.9C1083.9,801.1,1086,798.5,1087.6,798.4z M1071.7,793.6c1.3,0.1,3.4,2.9,3.3,4.4
			c-0.1,1.5-2.7,4.1-3.9,3.9c-1.9-0.2-3.6-2.3-7-4.8C1067.8,795.3,1069.8,793.5,1071.7,793.6z M1066.2,810.5c1.1,2.2,2,3.3,2.1,4.5
			c0,0.7-1.6,2.1-2,2c-1.1-0.4-2.7-1.4-2.9-2.4C1063.2,813.8,1064.7,812.6,1066.2,810.5z M1050.2,807.3c0.3-0.2,1.6,0.9,3.1,1.8
			c-1.3,1.2-2,2.3-3.1,2.7c-0.4,0.2-2.2-1.3-2.1-1.6C1048.5,809.1,1049.3,808,1050.2,807.3z M1016.6,797.6c0.7-0.1,1.6,0.9,2.6,1.6
			c-0.8,1-1.8,2.4-2,2.3c-1-0.5-1.8-1.4-2.7-2.1C1015.2,798.8,1015.9,797.7,1016.6,797.6z M994.8,809.6c0.7-0.1,1.6,1,2.7,1.8
			c-1.1,0.9-1.9,2-2.6,2c-0.7,0-1.9-1.1-1.9-1.9C993,810.9,994.2,809.6,994.8,809.6z M979.2,804.5c0.7-0.1,1.6,0.9,2.8,1.6
			c-0.8,1-1.6,2.5-1.9,2.4c-1.1-0.4-1.9-1.3-2.9-2C977.8,805.8,978.4,804.6,979.2,804.5z M963,800.6c0.4-0.2,1.4,1.1,2.8,2.3
			c-1.5,0.9-2.5,1.9-3.5,2c-0.6,0.1-1.3-1.2-2-1.9C961.2,802.1,962,801.1,963,800.6z M957.3,816.3c0.8,0.4,1.7,0.9,2.9,1.5
			c-0.7,1.1-1.1,2.3-1.8,2.5c-0.7,0.2-1.8-0.5-2.7-0.8C956.2,818.4,956.8,817.3,957.3,816.3z M946,795.3c0.9,0,1.9,1.4,3.6,2.8
			c-1.9,1.1-3.1,2.3-4,2.1c-1-0.2-1.6-1.7-2.4-2.7C944.1,796.7,945.1,795.3,946,795.3z M941.4,812.2c0.6,0,2.1,1.6,1.9,2
			c-0.4,1.1-1.4,2.6-2.3,2.8c-0.9,0.2-2-1.3-4-2.7C939.2,813.2,940.3,812.3,941.4,812.2z M902.9,816.2c2,2.3,4.2,3.7,4.2,5.1
			c-0.1,1.4-2.1,3.2-3.7,3.9c-0.7,0.3-3.4-1.8-3.4-2.8C900,820.6,901.5,819,902.9,816.2z M891.7,797.7c0.7-0.1,1.6,0.8,2.6,1.4
			c-0.8,1.1-1.3,1.8-1.9,2.6c-0.9-0.7-1.9-1.4-2.8-2.1C890.3,798.9,890.9,797.8,891.7,797.7z M886.9,811.7c1.6,1.7,4.2,3.2,4.4,5.1
			c0.2,1.6-2.4,3.5-4.8,6.6c-2.1-3.3-4.5-5.3-4.3-7C882.5,814.7,885.3,813.3,886.9,811.7z M870.4,809.4c0.4-0.2,1.4,1,2.9,2.2
			c-1.5,1-2.4,2-3.5,2.1c-0.6,0.1-1.4-1.2-2.1-1.9C868.6,810.9,869.4,809.8,870.4,809.4z M852.6,802.8c1.6,1.9,3.1,2.9,3,3.8
			c-0.1,0.9-1.5,2-2.6,2.4c-0.4,0.2-2-1.1-2-1.8C850.9,806.1,851.7,805,852.6,802.8z M848.8,819.8c1.3-0.4,3.3,1.5,6,2.9
			c-2.3,2-3.5,3.9-5.1,4.3c-1.1,0.2-3.9-1.8-3.8-2.5C846.2,822.8,847.4,820.3,848.8,819.8z M832.2,814.9c1.7,0.2,3.2,1.9,5.6,3.4
			c-2.2,1.8-3.8,3.9-4.6,3.6c-1.6-0.5-3.2-2.2-4-3.8C828.8,817.6,831.2,814.8,832.2,814.9z M817.8,812.7c-0.7,1-1.3,1.9-2,2.9
			c-0.7-0.7-1.8-1.2-2-2c-0.1-0.7,0.7-1.6,1.3-2.7C816.3,811.7,817.1,812.2,817.8,812.7z M814.4,761.6c-1.1-0.4-1.9-1.5-2.9-2.3
			c0.6-0.8,1.4-2.2,1.9-2.1c1.1,0.1,2.2,1.1,3.8,2C815.9,760.4,814.9,761.8,814.4,761.6z M817.9,745c-0.9-0.1-1.9-1.5-2.4-2.5
			c-0.2-0.4,1.1-2,1.7-2c1.1,0,2.2,0.7,4.4,1.6C819.7,743.6,818.7,745,817.9,745z M823.1,730.1c-1.2,0-3.3-1.8-3.4-2.9
			c-0.1-1.1,1.7-3.2,2.9-3.4c1.2-0.2,2.6,1.5,4.9,2.9C825.5,728.3,824.3,730.1,823.1,730.1z M830,767.8c-1.3-0.1-2.6-1.8-3.9-2.8
			c1.3-1.4,2.4-3.2,4-3.9c0.7-0.3,2.4,1.8,4.4,3.5C832.5,766,831.2,767.8,830,767.8z M839.9,733.2c-1,0.1-2.7-1.2-2.8-2
			c-0.1-0.9,1.1-2.5,2-2.8c0.9-0.3,2.2,0.8,4.2,1.7C841.6,731.6,840.8,733.1,839.9,733.2z M837.9,680c-1.6-0.7-2.6-2.6-3.8-4
			c1.3-1,2.7-2.7,4-2.7c1.2,0,2.4,1.8,4.3,3.4C840.3,678.3,838.5,680.3,837.9,680z M853.2,684.7c-1.2-0.1-2.3-2-3.4-3.1
			c1.1-1.1,2.2-3,3.4-3.1c1.1-0.1,2.5,1.6,4.6,3.1C855.7,683.1,854.3,684.9,853.2,684.7z M860.5,722.4c-0.7,0-2-1.8-1.8-2.1
			c0.6-1.1,1.6-2.4,2.6-2.5c0.9-0.1,1.9,1.4,3.7,3.1C862.8,721.7,861.6,722.5,860.5,722.4z M876.2,727.1c-1.2-0.4-2.2-2.5-2.4-4
			c-0.1-0.6,2.2-2.4,3.1-2.2c1.4,0.3,2.5,1.8,4.7,3.6C879.1,725.8,877.3,727.4,876.2,727.1z M882,710.3c-0.7,0-1.9-1.1-2-1.8
			c-0.1-0.7,1-1.5,1.8-2.7c0.9,1.1,2,1.8,2,2.6C883.8,709,882.6,710.3,882,710.3z M886.8,693.7c-0.7-0.6-1.8-1.2-2-1.9
			c-0.2-0.7,0.7-1.6,1.2-2.7c1.1,0.7,1.9,1.2,2.7,1.7C888,691.7,887.4,692.7,886.8,693.7z M899.8,637.3c1.6,1.9,3.2,3,3.1,3.9
			c-0.1,1-1.6,2-2.7,2.5c-0.4,0.2-2.1-1.2-2.1-1.9C898,640.8,898.9,639.6,899.8,637.3z M896.5,655.7c0.8-0.1,1.9,1.2,3.9,2.6
			c-2.1,1.1-3.1,1.9-4.2,2c-0.6,0-2-1.5-1.8-1.9C894.7,657.3,895.6,655.8,896.5,655.7z M891.7,672.9c0.7-0.1,1.6,1,2.8,1.9
			c-1.1,0.9-1.9,2-2.6,2c-0.8-0.1-1.5-1.2-2.2-1.9C890.3,674.2,891,672.9,891.7,672.9z M893.9,726.5c0.4-0.2,2,1.1,2,1.8
			c0,1.1-0.7,2.2-1.6,4.4c-1.6-1.9-3.1-2.9-3-3.8C891.4,728,892.8,727,893.9,726.5z M884.3,634.3c1.2,1.3,2.3,2,2.7,3.1
			c0.2,0.4-1.3,2.2-1.6,2.1c-1.1-0.4-2.2-1.1-2.9-2.1C882.3,637.1,883.4,635.9,884.3,634.3z M880.4,650.9c0.7-0.2,1.8,0.7,4.1,1.7
			c-2.9,1.5-3.9,2.4-5,2.5c-0.6,0-1.3-1.3-1.9-2C878.5,652.4,879.3,651.3,880.4,650.9z M874.8,667.3c0.9-0.1,2,1.2,3.8,2.4
			c-1.7,1.3-2.7,2.7-3.7,2.6c-1-0.1-1.8-1.6-2.8-2.4C873.1,668.9,873.9,667.4,874.8,667.3z M868.1,630.5c0.7-0.1,1.5,1,2.6,1.8
			c-1.1,0.9-1.9,2.1-2.6,2c-0.7,0-1.4-1.2-2.1-1.9C866.8,631.7,867.4,630.6,868.1,630.5z M869.9,684.6c0.7-0.1,1.6,0.9,2.6,1.6
			c-0.8,1-1.6,2.4-1.8,2.3c-1-0.5-1.9-1.3-2.8-2C868.6,685.9,869.2,684.7,869.9,684.6z M865.2,706.4c-1.2,0.1-3.2-1.7-3.4-2.9
			c-0.2-1.2,1.5-2.7,2.9-4.9c1.7,2,3.5,3.3,3.5,4.5C868.1,704.3,866.3,706.4,865.2,706.4z M858.4,660.6c1.1-0.4,3.1,2.1,5.5,3.8
			c-2,2.1-3.6,4.8-4.7,4.6c-2-0.3-3.7-2.4-5.6-3.7C855.2,663.7,856.5,661.3,858.4,660.6z M851.2,625.7c0.7-0.1,1.5,1,2.7,1.9
			c-1.1,0.9-1.9,2-2.6,2c-0.7,0-2-1.2-1.9-1.8C849.4,627,850.4,625.8,851.2,625.7z M846,641.8c0.9-0.3,2.2,0.8,4.1,1.7
			c-1.6,1.6-2.4,3-3.3,3.1c-1,0-2.7-1.1-2.8-2C843.9,643.8,845.1,642.1,846,641.8z M845.7,661.1c0.4,1-1.9,3.2-3.5,5.6
			c-2.1-1.8-4.9-3.3-4.8-4.4c0.2-2,2.2-3.8,3.4-5.7C842.5,658.1,844.9,659.3,845.7,661.1z M834.6,620.6c0.7-0.1,1.5,0.9,2.6,1.7
			c-1.1,0.9-1.9,2.1-2.5,2c-0.7,0-1.4-1.2-2.1-1.8C833.2,621.9,833.8,620.8,834.6,620.6z M830.7,637.3c0.7-0.1,1.6,1,2.7,1.8
			c-0.8,1-1.8,2.4-2,2.3c-1-0.5-1.9-1.4-2.8-2.2C829.3,638.5,829.9,637.3,830.7,637.3z M834.2,745.5c1,0.5,2.1,1.3,2.6,2.3
			c0.2,0.4-1,1.5-2,3c-1.1-1.4-2.1-2.2-2.3-3.3C832.3,747,833.9,745.4,834.2,745.5z M826.6,654.4c0.6,0.3,0.9,1.6,1.5,2.9
			c-1.5,0.3-2.7,0.8-3.2,0.5c-0.6-0.4-0.7-1.8-1-2.7C824.8,654.8,825.9,654.1,826.6,654.4z M827.4,707.8c0.9,0.9,2,1.7,2.5,2.8
			c0.2,0.4-1.1,1.5-2.4,2.9c-1-1.6-1.9-2.6-2.1-3.7C825.4,709.3,826.7,708.5,827.4,707.8z M821,669.5c0.4-0.2,1.5,1,3,2
			c-1.4,1.1-2.2,2.1-3.3,2.3c-0.6,0.1-2.1-1.5-2-1.7C819.2,671.1,820,670.1,821,669.5z M815.2,686.3c1.1,0,2.3,0.8,4.5,1.7
			c-1.9,1.6-2.9,3.1-3.8,3c-1-0.1-2-1.5-2.5-2.6C813.3,688,814.6,686.3,815.2,686.3z M810.7,702.9c1.1,0.1,2.1,1.1,4.2,2.3
			c-2,1.3-3.2,2.5-4.1,2.4c-0.9-0.2-1.8-1.7-2.1-2.8C808.5,704.4,810,702.9,810.7,702.9z M801.8,610.5c1.1,0.2,2,1.2,3.5,2.1
			c-1.5,1.2-2.5,2.5-2.9,2.3c-1-0.5-1.9-1.5-2.5-2.6C799.7,612.1,801.2,610.4,801.8,610.5z M804.4,738.9c0.1,0.8-1.4,1.8-3,3.6
			c-0.8-2.2-1.6-3.3-1.5-4.4c0-0.7,1.7-1.9,2-1.7C803,736.9,804.4,738,804.4,738.9z M797.2,626.8c0.9,1.1,2,1.9,2,2.7
			c0,0.7-1.2,2-1.9,2c-0.8,0-2-1.2-2-1.9C795.2,628.9,796.3,628,797.2,626.8z M794.2,698.3c0.8,0,1.6,1,3.7,2.5
			c-1.4,0.7-2.4,1.7-3.2,1.5c-1-0.3-1.8-1.4-2.6-2.2C792.7,699.5,793.4,698.4,794.2,698.3z M785.4,606.8c0.7-0.1,1.5,0.9,2.6,1.6
			c-0.8,1-1.4,1.7-2,2.5c-0.9-0.7-1.8-1.5-2.7-2.2C784,608,784.7,606.9,785.4,606.8z M782.4,681.7c-0.7,0-1.9-1.2-2-1.9
			c-0.1-0.6,1.1-1.9,1.9-2c0.8-0.1,1.6,1,2.8,1.8C783.9,680.5,783.1,681.7,782.4,681.7z M780.3,620.5c1.3,2.1,2.6,3.3,2.4,4.2
			c-0.2,0.9-1.8,1.8-2.9,2.2c-0.4,0.1-2-1.4-1.9-2.1C778.1,623.7,779.1,622.6,780.3,620.5z M774.9,639.1c1.1-0.1,2.2,0.7,4.3,1.6
			c-1.8,1.6-2.8,3-3.7,2.9c-0.9-0.1-1.9-1.5-2.4-2.5C773,640.8,774.3,639.2,774.9,639.1z M768.9,601.9c0.7,0.7,1.8,1.4,1.8,2.2
			c0,0.7-1,1.5-2.7,3.8c-0.7-1.5-1.6-2.5-1.4-3.3C766.9,603.5,768.1,602.7,768.9,601.9z M763.8,617.5c1.2-0.1,2.5,1.6,4.6,3.2
			c-2.1,1.5-3.5,3.2-4.6,3.1c-1.2-0.1-3.1-2-3.1-3.1C760.7,619.5,762.6,617.6,763.8,617.5z M759.5,634.1c1,0.6,2,1.5,2.5,2.5
			c0.2,0.4-1,1.5-2.2,2.9c-1-1.5-2-2.5-2.2-3.6C757.5,635.5,759.3,634,759.5,634.1z M754.2,649.4c1.5,1.8,3,2.8,2.9,3.7
			c-0.1,0.9-1.5,1.9-2.6,2.4c-0.4,0.2-2-1.1-2-1.8C752.6,652.6,753.4,651.5,754.2,649.4z M749.9,666.6c0.6-0.4,2.6,1.5,4.7,2.8
			c-1.8,1.7-2.8,3.6-4.1,3.8c-1.2,0.2-2.7-1.4-4.1-2.3C747.6,669.4,748.4,667.5,749.9,666.6z M742.9,630.5c0.7-0.1,1.5,1,2.7,1.8
			c-1.1,0.9-1.9,2-2.6,2c-0.7,0-1.9-1.2-1.9-1.9C741.1,631.8,742.2,630.6,742.9,630.5z M745,683.6c1.2-0.1,2.5,1.6,4.6,3.1
			c-2.1,1.6-3.5,3.3-4.6,3.2c-1.2-0.1-2.3-2-3.4-3.2C742.7,685.6,743.8,683.7,745,683.6z M738.4,646c0.6,0.7,1.7,1.4,1.7,2.1
			c0,0.8-0.9,1.5-2.5,3.7c-0.7-1.5-1.7-2.5-1.5-3.2C736.5,647.7,737.7,646.9,738.4,646z M733.1,662.5c0.9-0.1,2.1,1.2,3.9,2.4
			c-1.7,1.3-2.8,2.7-3.7,2.7c-1-0.1-1.9-1.6-2.8-2.4C731.3,664.2,732.1,662.6,733.1,662.5z M727.8,679.6c1,0.5,2.1,1.3,2.7,2.3
			c0.2,0.4-0.9,1.5-1.9,3c-1.1-1.4-2.1-2.2-2.5-3.3C725.9,681.1,727.5,679.5,727.8,679.6z M731.6,732.4c1.2-0.1,2.5,1.6,4.4,3.1
			c-1.9,1.7-3.5,3.8-4.2,3.5c-1.6-0.6-2.7-2.4-4-3.7C729.1,734.3,730.3,732.5,731.6,732.4z M722.5,642.6c0.7,0.3,0.8,1.6,1.4,2.8
			c-1.3,0.4-2.9,1.1-3.1,0.9c-0.6-1-0.8-2.2-1.1-3.4C720.6,642.8,721.8,642.3,722.5,642.6z M715.6,657.7c1.1-0.1,2.4,0.6,4.7,1.3
			c-1.8,1.8-2.7,3.4-3.5,3.4c-1,0-2.2-1.3-2.9-2.4C713.7,659.7,714.9,657.8,715.6,657.7z M709.2,620.4c1.1,0.2,2.1,1.2,3.6,2.2
			c-1.5,1.2-2.6,2.5-3,2.4c-1.1-0.5-2-1.6-2.6-2.6C707.1,622.1,708.7,620.3,709.2,620.4z M704.6,637c0.9-0.1,2,1.2,3.8,2.4
			c-1.7,1.3-2.7,2.7-3.6,2.6c-1-0.1-1.9-1.5-2.8-2.4C702.9,638.6,703.6,637.1,704.6,637z M700.8,653.2c1.4,0.3,2.5,1.8,4.7,3.5
			c-2.5,1.3-4.2,2.8-5.2,2.5c-1.2-0.4-2.1-2.4-2.4-3.9C697.7,654.7,699.9,653,700.8,653.2z M699.3,671.9c0.2,0.9-2.3,3.5-2.8,3.4
			c-1.6-0.7-3.5-2-4.1-3.5c-0.4-0.8,1.5-2.6,3-4.9C697.2,669,699,670.3,699.3,671.9z M689.4,629.7c1.4,2.2,3.3,4.1,2.9,4.8
			c-0.9,1.5-2.9,2.4-4.4,3.5c-0.9-1.4-2.5-2.9-2.4-4.1C685.7,632.6,687.7,631.5,689.4,629.7z M683.2,646.2c2.1,1.8,4.4,3,4.3,3.9
			c-0.2,1.7-1.6,3.6-3.1,4.6c-0.5,0.4-3.7-1.5-3.8-2.5C680.6,650.5,682,648.8,683.2,646.2z M678.9,663.3c1.8,0.2,4.5,2.5,4.8,4.3
			c0.3,1.7-1.8,3.8-3.6,7.1c-2.6-2.6-5.1-3.9-5.6-5.7C673.4,665.7,675.5,663,678.9,663.3z M671.9,627.1c0.9,0.9,2,1.7,2.5,2.8
			c0.2,0.4-1.1,1.5-2.4,2.9c-1-1.6-1.9-2.6-2.1-3.7C669.9,628.6,671.2,627.8,671.9,627.1z M667.6,643c0.6-0.3,2.4,1.8,4.3,3.3
			c-2,1.6-3.2,3.3-4.5,3.3c-1.2,0-2.5-1.7-3.7-2.7C665,645.5,666,643.7,667.6,643z M662.1,657.8c1.9,2.1,4.1,3.6,3.8,4.5
			c-0.4,1.7-2,3.4-3.6,4.3c-0.5,0.3-3.6-2-3.5-2.9C658.9,662,660.6,660.4,662.1,657.8z M656.9,676.2c1.4-0.3,3.2,1.6,5.8,3.1
			c-2.1,2-3.5,4.3-4.8,4.3c-1.5,0-4-1.9-4.2-3.4C653.4,679.1,655.5,676.5,656.9,676.2z M657.1,694.7c-1.9,1.8-3,3.8-4.2,3.8
			c-1.3,0.1-2.6-1.7-3.9-2.6c1-1.3,1.7-3.4,2.9-3.7C653,691.9,654.7,693.5,657.1,694.7z M645.8,654.7c0.8-0.3,2.5,1.6,4.8,3.2
			c-2.2,1.7-3.6,3.4-5.2,3.7c-0.9,0.2-3.4-2.5-3.2-2.9C642.8,657.1,644.2,655.3,645.8,654.7z M639.7,619.1c0.6,0.3,0.8,1.6,1.3,2.8
			c-1.3,0.4-2.9,1-3,0.8c-0.6-1-0.8-2.2-1.1-3.3C637.9,619.2,639.1,618.7,639.7,619.1z M641.4,670.5c1.5-0.4,3.8,2,7.3,4.1
			c-3.4,2.4-5.2,4.5-7.1,4.7c-1.4,0.1-4.5-2.7-4.3-3.6C637.9,673.7,639.7,670.9,641.4,670.5z M633.8,634c0.3-0.2,2.1,0.9,2.2,1.5
			c0.1,1.1-0.5,2.2-1.2,4.5c-1.7-1.7-3.2-2.5-3.2-3.4C631.5,635.8,632.8,634.7,633.8,634z M630.4,650.9c0.6,0,2,1.5,1.8,1.9
			c-0.4,1.1-1.3,2.5-2.2,2.7c-0.8,0.1-1.9-1.2-3.9-2.6C628.2,651.9,629.3,651,630.4,650.9z M621.6,613.6c1.1,0.4,2.5,1.4,2.6,2.3
			c0.1,0.8-1.3,1.9-2.7,3.8c-1-2.1-1.8-3.2-1.8-4.2C619.7,614.8,621.3,613.4,621.6,613.6z M617.7,629.4c1.2-0.3,2.7,1.3,5,2.5
			c-1.8,1.8-2.9,3.6-4.1,3.7c-1.2,0.1-3.4-1.5-3.5-2.6C615,631.8,616.6,629.7,617.7,629.4z M613.2,646.2c0.8,0,1.5,1,2.6,1.8
			c-0.9,1-1.6,1.6-2.2,2.3c-0.8-0.8-1.7-1.6-2.5-2.4C611.7,647.2,612.5,646.2,613.2,646.2z M606.3,607.6c1.1,1.5,2.4,2.5,2.2,2.9
			c-0.5,1-1.5,1.9-2.6,2.5c-0.3,0.1-2-1.4-1.9-2C604.3,610,605.3,609.1,606.3,607.6z M601,625.4c1.1,0.2,2,1.2,3.6,2.3
			c-1.5,1.1-2.5,2.4-2.9,2.2c-1-0.5-1.9-1.5-2.5-2.5C599,627.1,600.5,625.3,601,625.4z M602.7,679.5c1.1,0,2.2,0.7,4.4,1.6
			c-1.9,1.6-2.9,3.1-3.8,3c-0.9-0.1-2-1.5-2.5-2.6C600.7,681.1,602,679.5,602.7,679.5z M600.8,748.6c1.6,1.9,3.1,3,3,3.8
			c-0.1,1-1.6,2-2.7,2.5c-0.4,0.2-2-1.2-2-1.8C599,752,599.9,750.9,600.8,748.6z M596,773.3c-0.7-1.5-1.7-2.6-1.5-3.4
			c0.3-1,1.5-1.8,2.3-2.7c0.6,0.7,1.7,1.4,1.8,2.2C598.6,770.2,597.6,771,596,773.3z M593.2,713.2c0.7-0.1,1.6,0.8,2.7,1.4
			c-0.7,1-1.5,2.5-1.8,2.4c-1-0.4-1.9-1.2-2.9-1.9C591.9,714.5,592.4,713.4,593.2,713.2z M584.3,619.4c1.3,1.4,2.6,2.3,2.4,2.8
			c-0.4,1.1-1.4,1.9-2.2,2.8c-0.7-0.7-2.1-1.3-2.1-1.9C582.5,622,583.5,621,584.3,619.4z M586.2,674.5c1.1,0.4,2.5,1.4,2.6,2.3
			c0.1,0.8-1.3,1.9-2.7,3.8c-1-2.1-1.8-3.2-1.8-4.2C584.3,675.8,585.9,674.4,586.2,674.5z M579.6,634.8c1.5,2.2,3.3,3.6,3.1,4.7
			c-0.1,1.2-2.1,2.3-3.2,3.4c-1.1-1.2-3-2.2-3.2-3.5C576.3,638.3,578.1,636.9,579.6,634.8z M579.3,761.1c1.6,0.7,2.7,2.5,4.1,3.9
			c-1.3,1-2.5,2.8-3.8,2.9c-1.3,0-2.6-1.7-4.6-3.3C576.9,762.9,578.6,760.8,579.3,761.1z M571.2,674.9c-1.2,0-3.3-1.8-3.3-2.9
			c-0.1-1.1,1.7-3.2,2.9-3.4c1.2-0.2,2.6,1.4,4.8,2.8C573.6,673.1,572.3,674.9,571.2,674.9z M568,615.5c0.4-0.2,2,1.2,2,1.8
			c0,1.1-0.8,2.2-1.7,4.4c-1.5-1.9-3-3-2.9-3.8C565.6,616.9,567,615.9,568,615.5z M562.7,631.4c1.2-0.2,2.6,1.4,4.8,2.8
			c-2,1.6-3.2,3.4-4.3,3.4c-1.2,0-3.3-1.8-3.3-2.9C559.8,633.6,561.5,631.5,562.7,631.4z M566.2,759.5c-0.1,1.2-2,2.3-3.2,3.4
			c-1.1-1.1-3-2.2-3.1-3.4c-0.1-1.2,1.6-2.5,3.1-4.6C564.5,757,566.3,758.4,566.2,759.5z M553.7,664.9c0.8,0.4,1.6,0.9,2.8,1.5
			c-0.7,1-1.1,2.2-1.7,2.4c-0.7,0.2-1.7-0.5-2.6-0.7C552.7,667,553.2,665.9,553.7,664.9z M550.9,735.6c1.1,0.2,2,1.2,3.5,2.3
			c-1.5,1.2-2.6,2.4-3,2.3c-1-0.5-2-1.6-2.5-2.6C548.8,737.2,550.3,735.5,550.9,735.6z M544.1,698.5c0.7-0.1,1.6,1,2.8,1.9
			c-1.1,0.9-1.9,2-2.7,2c-0.7,0-2-1.2-2-1.9C542.3,699.9,543.4,698.6,544.1,698.5z M537.4,660.5c0.9,1.1,2,1.9,2,2.7
			c0,0.7-1.2,2-1.9,2c-0.8,0-2-1.2-2-1.9C535.4,662.5,536.5,661.6,537.4,660.5z M539.4,713.9c1.2-0.1,2.6,1.7,4.7,3.3
			c-2.2,1.5-3.6,3.3-4.7,3.1c-1.2-0.1-3.2-2.1-3.2-3.2C536.2,716,538.2,714,539.4,713.9z M533.9,730.9c1.1-0.3,2.7,1.2,5.1,2.4
			c-1.9,1.8-3,3.7-4.1,3.8c-1.3,0-2.6-1.7-3.9-2.6C531.9,733.3,532.7,731.2,533.9,730.9z M530.7,694.9c-0.6,1.6-2.3,2.9-3.5,4.2
			c-1.1-1.1-3-2.2-3.1-3.4c-0.1-1.3,1.5-2.7,2.9-4.8C528.7,692.7,531,694.2,530.7,694.9z M520.8,654.9c1.2,0,2.4,1.8,4.4,3.5
			c-2.3,1.4-3.8,3-4.9,2.8c-1.2-0.2-2.1-2.2-3.2-3.4C518.4,656.8,519.6,655,520.8,654.9z M520.8,728.3c-0.5,1.1-1.2,2.2-2.2,3
			c-0.3,0.2-1.6-0.9-3.1-1.9c1.3-1.2,2.1-2.3,3.1-2.6C519.2,726.6,520.9,728.1,520.8,728.3z M512,692.5c-0.8-0.1-1.4-1.2-2.1-1.8
			c0.7-0.7,1.3-1.9,2-2c0.7-0.1,1.5,1,2.7,1.9C513.4,691.5,512.7,692.6,512,692.5z M509,634.2c0.4-0.2,2,1.1,2,1.7
			c0,1.1-0.8,2.2-1.7,4.3c-1.5-1.9-2.9-2.9-2.8-3.7C506.5,635.6,507.9,634.6,509,634.2z M501.9,597.1c0.7-0.1,1.6,1,2.7,1.8
			c-1.1,1-1.9,2.1-2.6,2.1c-0.8,0-1.5-1.2-2.2-1.9C500.5,598.4,501.2,597.2,501.9,597.1z M503.9,650.8c0.3-0.2,2.1,1,2.2,1.6
			c0.1,1.1-0.5,2.3-1.2,4.6c-1.7-1.7-3.3-2.6-3.3-3.4C501.6,652.6,502.9,651.5,503.9,650.8z M503.6,774.9c1.3,1.4,2.6,2.4,2.5,2.8
			c-0.4,1.1-1.5,1.9-2.3,2.9c-0.8-0.7-2.2-1.4-2.1-2C501.8,777.5,502.7,776.5,503.6,774.9z M494.9,689c-0.6,0.1-2.2-1.5-2.1-1.8
			c0.5-1.1,1.3-2.2,2.3-2.8c0.4-0.2,1.6,1,3.1,2.1C496.9,687.7,496,688.8,494.9,689z M494.4,631.2c-0.4,1.1-1.3,2.6-2.3,2.8
			c-0.8,0.2-2-1.2-3.9-2.6c2.1-1.1,3.2-2,4.3-2C493.1,629.2,494.5,630.8,494.4,631.2z M484.5,590.4c1.6,1.9,3.1,2.9,3,3.8
			c-0.1,0.9-1.5,2-2.6,2.4c-0.4,0.2-2-1.1-2-1.8C482.8,593.7,483.6,592.6,484.5,590.4z M489.9,719.8c-2.1,1.3-3.6,2.9-4.7,2.7
			c-1.3-0.2-2.3-2-3.5-3.1c1.4-1.2,2.6-3,4.2-3.4C486.7,715.7,488.1,718,489.9,719.8z M478.1,678.5c1.3,1.4,2.6,2.3,2.4,2.8
			c-0.4,1.1-1.4,1.9-2.2,2.8c-0.7-0.7-2.1-1.3-2.1-1.9C476.3,681.1,477.2,680.1,478.1,678.5z M473.1,695.5c1.1-0.2,2.6,1.4,4.9,2.8
			c-2,1.7-3.2,3.6-4.4,3.5c-1.3-0.1-2.4-1.9-3.7-2.9C471,697.7,471.9,695.7,473.1,695.5z M466.5,657.7c0.3-0.2,2.1,0.9,2.2,1.5
			c0.1,1.1-0.5,2.2-1.2,4.5c-1.7-1.7-3.2-2.5-3.2-3.4C464.3,659.5,465.5,658.3,466.5,657.7z M467.8,710.4c1.6,1.6,3.1,2.5,3.1,3.4
			c0,1-1.3,2-2,3.1c-1-0.7-2.6-1.3-2.9-2.3C465.8,713.8,466.9,712.5,467.8,710.4z M464.3,728.6c1.1,0.1,2.1,1.1,4.2,2.3
			c-2,1.3-3.2,2.5-4.1,2.4c-0.9-0.2-1.8-1.7-2.1-2.8C462.2,730,463.7,728.5,464.3,728.6z M454.7,636.9c0.9,1.1,2,1.9,2,2.7
			c0,0.7-1.2,2-1.8,2c-0.8,0-2-1.1-2.1-1.9C452.7,638.9,453.8,638,454.7,636.9z M449.7,652.1c1.4,0.3,2.5,1.7,4.8,3.3
			c-2.4,1.4-4,3-5,2.7c-1.2-0.4-2.2-2.3-2.6-3.8C446.7,653.8,448.8,651.9,449.7,652.1z M444.2,669.6c1.1,0,2.3,0.8,4.6,1.8
			c-1.9,1.6-3,3.1-3.9,3c-1-0.1-2-1.6-2.5-2.7C442.2,671.3,443.6,669.6,444.2,669.6z M446,798.9c-1.1-0.5-2.2-1.1-3.3-1.6
			c0.4-0.8,0.9-1.7,1.5-2.9c1.1,0.7,2.3,1.1,2.5,1.8C447,796.9,446.3,798,446,798.9z M440.5,686.2c1,0.8,2.4,1.6,2.3,1.9
			c-0.4,1-1.2,1.9-1.9,2.8c-0.7-0.6-1.8-1.2-2-2C438.9,688.2,439.8,687.3,440.5,686.2z M433,649.4c0.7-0.1,1.6,1,2.8,1.9
			c-1.1,0.9-1.9,2-2.6,2c-0.8-0.1-1.5-1.2-2.2-1.9C431.6,650.8,432.3,649.5,433,649.4z M429.5,664.9c0.6,0.7,1.7,1.4,1.8,2.2
			c0.1,0.7-1,1.5-2.6,3.8c-0.7-1.5-1.7-2.6-1.5-3.4C427.5,666.5,428.7,665.7,429.5,664.9z M431.1,720.3c0.7-0.1,1.6,1,2.8,2
			c-1.1,0.9-1.9,2-2.6,2c-0.8-0.1-1.5-1.2-2.2-1.9C429.7,721.6,430.4,720.4,431.1,720.3z M425.7,735.5c0.9-0.3,2.2,0.9,4.2,1.8
			c-1.6,1.6-2.5,3.1-3.4,3.1c-1,0-2-1.3-3.1-2C424.2,737.3,424.8,735.7,425.7,735.5z M421.8,749.6c1.4-0.4,3.6,2.5,7,5.1
			c-3.6,2.3-5.8,4.6-8,4.7c-1.6,0-3.2-3-4.8-4.7C418,752.9,419.6,750.2,421.8,749.6z M412.8,771.3c0.9-1.5,2.6-3.2,4.3-3.5
			c1.5-0.3,3.4,0.9,5.1,1.5c-0.6,1-1.1,2-1.7,3c-1.6,1-3.2,2.5-4.9,2.6C414.7,774.9,412.5,771.8,412.8,771.3z M409.4,731.4
			c0.9,1.1,2,1.9,2,2.6c0,0.7-1.2,2-1.8,2c-0.8,0-2-1.1-2.1-1.9C407.4,733.4,408.5,732.6,409.4,731.4z M400.1,639.3
			c1.1,0.1,2.1,1,3.7,1.9c-1.4,1.2-2.3,2.5-2.7,2.3c-1-0.4-1.9-1.4-2.8-2.2C398.9,640.7,399.6,639.3,400.1,639.3z M405.6,744.5
			c1.6,2.5,3.3,4,3.4,5.7c0.1,0.9-2.9,3.3-3.5,3c-1.6-0.8-3.2-2.5-3.7-4.2C401.7,748.1,403.8,746.6,405.6,744.5z M393.8,766.8
			c0.5-2.9,3.1-5.5,5.9-10.1c3.6,4,6.8,6,7.7,8.8c1.3,3.9-1.5,6.9-5.6,7.8C397.8,774.2,393.1,770.7,393.8,766.8z M388.6,741.1
			c1.7,1.8,3.5,2.9,3.6,4.1c0,1.3-1.5,2.7-2.4,4.1c-1.5-1.1-3.4-2-4.2-3.5C385.2,745.1,387.1,743.2,388.6,741.1z M389.7,761.4
			c0.6,3.6-2.3,6.6-6,5.9c-2.2-0.4-5.4-3.3-5.5-5.3c-0.1-2.4,2.5-5,5.1-9.5C386.4,756.8,389.3,758.9,389.7,761.4z M376.8,722.1
			c0.7,0.7,2,1.3,2,2.1c0.1,0.7-1,1.6-2,2.8c-0.9-1.1-2-1.9-2-2.6C375,723.5,376.2,722.8,376.8,722.1z M372,737.6
			c0.6-0.4,2.6,1.5,4.8,2.8c-1.8,1.8-2.8,3.7-4.1,3.8c-1.3,0.2-2.7-1.5-4.1-2.3C369.6,740.4,370.5,738.5,372,737.6z M363.7,758.1
			c0.5-1.6,2.2-3.2,3.8-4c0.5-0.2,3.3,2.1,3.2,3.1c-0.2,1.7-1.8,3.1-3.4,5.5C365.5,760.5,363.4,758.9,363.7,758.1z M355.6,608.9
			c0.6,0.7,1.7,1.5,1.7,2.2c0,0.8-1.1,1.5-1.9,2.6c-0.9-1-2.3-2-2.2-2.3C353.7,610.4,354.7,609.7,355.6,608.9z M353.2,679.9
			c0.7-0.1,1.5,1,2.7,1.8c-1.1,0.9-1.9,2-2.6,2c-0.7,0-1.9-1.2-1.9-1.9C351.3,681.2,352.5,679.9,353.2,679.9z M346.2,641.2
			c1.1,0.2,2,1.2,3.4,2.2c-1.5,1.1-2.5,2.4-2.9,2.2c-1-0.5-1.9-1.5-2.5-2.6C344.2,642.8,345.7,641.1,346.2,641.2z M350.4,748
			c1.6,2.1,3.3,3.5,3.2,4.7c-0.1,1.2-2,3.1-3.2,3.1c-1.1,0-3-1.9-3.1-3.1C347.2,751.5,348.9,750.1,350.4,748z M338.9,603.9
			c0.4-0.2,1.4,1.1,2.9,2.3c-1.5,0.9-2.5,1.9-3.6,2c-0.6,0.1-1.4-1.2-2.1-1.9C337,605.5,337.8,604.4,338.9,603.9z M343.8,660
			c-0.3,1.1-1.4,2-2.5,3.3c-1-1.5-2.2-2.7-2-3c0.6-1,1.7-1.8,2.7-2.3C342.3,657.9,343.9,659.5,343.8,660z M345.6,764
			c1.8,2.4,3.8,4.1,3.7,5.5c-0.1,1.4-2.5,3.7-3.9,3.6c-1.4-0.1-3.6-2.4-3.7-3.9C341.7,767.8,343.8,766.3,345.6,764z M345.3,785.6
			c-1.9,1.1-3.1,2.3-4,2.1c-1-0.2-2.3-1.8-2.2-2.7c0.1-0.9,1.7-2.2,2.7-2.2C342.7,782.7,343.6,784.1,345.3,785.6z M329.6,637.7
			c0.7-0.1,1.5,1,2.7,1.9c-1.1,0.9-1.9,2-2.6,1.9c-0.7,0-1.9-1.2-1.9-1.8C327.8,639,328.9,637.8,329.6,637.7z M334.7,744
			c1.6,0.4,2.9,2.2,5.3,4.2c-2.7,1.5-4.6,3.4-5.9,3c-1.4-0.4-2.7-2.8-3-4.6C330.9,746,333.7,743.8,334.7,744z M326.5,708.1
			c0.9,0.9,2,1.6,2.4,2.7c0.2,0.4-1.1,1.5-2.2,3c-1-1.5-2-2.5-2.1-3.5C324.5,709.6,325.8,708.8,326.5,708.1z M322.5,724
			c1.1,0.1,2,1,3.6,1.8c-1.4,1.2-2.3,2.5-2.7,2.4c-1.1-0.4-1.9-1.4-2.8-2.2C321.2,725.3,321.9,724,322.5,724z M324.2,776.6
			c1.7,0.1,3.3,1.8,6.1,3.4c-2.5,1.9-4.2,4.2-5.5,4c-1.5-0.2-3.2-2.4-3.8-4.1C320.7,779.2,323.1,776.5,324.2,776.6z M317.3,739
			c1.5,1.6,3,2.5,3,3.4c0,1-1.2,2.6-2.1,2.8c-0.8,0.1-2.5-1.1-2.8-2.1C315.2,742.2,316.3,741,317.3,739z M312.5,755.4
			c1.5-0.4,3.7,1.8,7.3,3.8c-3.2,2.4-4.8,4.6-6.6,4.8c-1.4,0.2-4.5-2.4-4.3-3.3C309.2,758.6,310.8,755.8,312.5,755.4z M307.7,772.9
			c1.6,0.2,3.1,1.9,5.5,3.5c-2.2,1.7-3.7,3.7-4.6,3.5c-1.6-0.5-2.9-2.3-4.3-3.6C305.5,775.1,306.7,772.8,307.7,772.9z M303.5,788.1
			c1,2.1,1.9,3.2,1.9,4.3c0,0.7-1.5,2.1-1.9,1.9c-1.1-0.5-2.6-1.4-2.8-2.3C300.6,791.2,302,790.1,303.5,788.1z M302.8,808.7
			c-2.2,1.5-3.7,3.3-4.7,3.1c-1.2-0.3-2.4-2.1-2.9-3.5c-0.2-0.5,1.8-2.6,2.7-2.5C299.2,805.9,300.5,807.2,302.8,808.7z M290.9,767.9
			c1.3,1.3,3.3,2.5,3.7,4.1c0.4,1.4-1,3.2-2.1,6.4c-3-4.5-4.7-5.8-4.6-7.1C288,770.1,289.9,769,290.9,767.9z M255.9,829.8
			c0.9,0.9,2.4,1.7,2.6,2.6c0.1,0.9-1.2,2-2.5,3.8c-1.3-1.7-2.7-2.7-2.6-3.7C253.5,831.6,255,830.7,255.9,829.8z M251.8,851
			c-1.1-0.4-2-1.2-3-1.8c0.6-0.7,1.2-1.9,1.9-2c0.7-0.1,1.7,0.7,2.8,1.3C252.7,849.6,252,851.1,251.8,851z M244.1,683
			c0.9,1.1,2,1.9,1.9,2.5c-0.1,0.8-1.2,1.4-1.8,2.2c-0.7-0.7-1.9-1.3-2-2C242.1,685,243.2,684.2,244.1,683z M243.7,808.6
			c1.2-0.3,2.8,1.3,5.2,2.6c-1.9,1.8-3,3.7-4.2,3.8c-1.2,0.1-3.5-1.6-3.6-2.7C240.9,811.1,242.5,808.8,243.7,808.6z M238.4,824
			c1.3-0.4,3.3,1.4,6,2.8c-2.2,2-3.4,3.9-5,4.3c-1.1,0.3-3.8-1.7-3.8-2.5C235.9,826.9,237.1,824.4,238.4,824z M235.1,842.2
			c0.7-0.1,1.6,0.9,2.7,1.5c-0.8,1-1.6,2.4-1.9,2.3c-1-0.4-1.9-1.2-2.8-1.9C233.8,843.5,234.4,842.4,235.1,842.2z M223.1,821.3
			c1.1,0.4,2.6,1.3,2.8,2.3c0.1,0.9-1.3,2-2.7,3.9c-1-2.1-1.9-3.2-1.9-4.3C221.1,822.5,222.7,821.1,223.1,821.3z M216.1,789.1
			c-0.7-1.5-1.7-2.6-1.5-3.4c0.3-1,1.5-1.8,2.3-2.7c0.6,0.7,1.7,1.4,1.8,2.2C218.7,786,217.7,786.8,216.1,789.1z M213.4,729.1
			c0.7,0,1.9,1.1,2,1.8c0.1,0.7-1,1.5-1.9,2.7c-0.9-1.1-2-1.9-2-2.6C211.6,730.3,212.8,729.1,213.4,729.1z M204.7,766.9
			c-0.9-0.2-1.8-1.8-2.2-2.9c-0.1-0.4,1.4-2,2.1-1.9c1.2,0.1,2.2,1.1,4.4,2.4C206.8,765.8,205.6,767.1,204.7,766.9z M199.7,782.6
			c-0.7-0.7-2.1-1.4-2-2c0.1-1.1,1-2.1,1.9-3.7c1.3,1.4,2.6,2.4,2.4,2.8C201.5,780.8,200.5,781.7,199.7,782.6z M193.5,739.5
			c1.5-0.4,3.4,0.9,5.1,1.4c-0.6,1-1.2,1.9-1.8,2.9c-1.3,0.9-2.7,2.6-4,2.5c-1.2-0.1-2.3-2-3.5-3.1
			C190.7,741.9,191.9,739.9,193.5,739.5z M188,755.2c1.7-0.1,3.6,2.4,6.7,4.7c-3.1,2.1-5.1,4.5-6.7,4.2c-1.7-0.2-4.4-2.9-4.4-4.5
			C183.6,758.1,186.4,755.3,188,755.2z M183,772.3c1.3,2.1,2.3,3.1,2.5,4.2c0.1,0.6-1.4,2.2-1.8,2.1c-1.2-0.3-2.8-1.1-3-2.1
			C180.5,775.8,181.8,774.5,183,772.3z M178,790.1c0.7,0,1.5,1,2.7,1.8c-1.1,0.9-1.9,2-2.6,2c-0.7,0-1.9-1.2-1.9-1.9
			C176.1,791.4,177.3,790.1,178,790.1z M171.3,752.7c0.7-0.1,1.5,1,2.7,1.8c-1.1,1-1.9,2.2-2.6,2.1c-0.8,0-1.5-1.2-2.2-1.9
			C169.9,754,170.5,752.8,171.3,752.7z M173.2,806.9c0.7-0.1,1.6,1.1,2.8,2c-1.1,0.9-1.9,2-2.6,2c-0.8-0.1-1.5-1.2-2.2-1.9
			C171.8,808.2,172.5,807,173.2,806.9z M146.3,781.1c0.8-0.2,1.9,0.6,4.6,1.6c-3.4,1.8-4.4,2.7-5.5,2.8c-0.6,0-1.3-1.3-2-2
			C144.3,782.6,145.2,781.4,146.3,781.1z M142.7,856.2c-0.7,0-2-1.2-2-1.8c0-0.8,1.1-2,1.9-2.1c0.7-0.1,1.6,1,2.8,1.9
			C144.3,855.1,143.5,856.2,142.7,856.2z M140.4,797.7c1.1,0.4,2.6,1.3,2.7,2.2c0.1,0.9-1.3,1.9-2.7,3.9c-1-2.1-1.9-3.1-1.9-4.2
			C138.5,799,140,797.6,140.4,797.7z M135.9,813.6c0.7-0.1,1.5,0.9,2.6,1.6c-0.8,1-1.4,1.7-2,2.5c-0.9-0.7-1.8-1.5-2.7-2.2
			C134.5,814.8,135.1,813.7,135.9,813.6z M135.2,832.4c0.2,1.5-2.3,3.5-4.7,6.8c-2-3.4-3.9-5.3-3.9-7.2c0-1.4,2.9-4.2,3.8-3.9
			C132.4,828.8,135,830.7,135.2,832.4z M128.8,776c1,0.5,2.4,1.6,2.4,2.5c0.1,0.8-1.4,1.8-3,3.6c-0.8-2.2-1.6-3.3-1.5-4.4
			C126.8,777,128.4,775.8,128.8,776z M123.6,790.1c1.8,2.2,3.5,3.5,3.8,5.1c0.2,0.9-2,2.3-3,3.5c-1.3-1.3-3.2-2.3-3.8-3.9
			C120.2,794,122.1,792.3,123.6,790.1z M119.1,807.2c1.6,2,3.3,3.2,3.3,4.5c0,1.2-1.7,2.5-2.7,3.7c-1.4-1.3-3.2-2.3-3.9-3.9
			C115.5,810.9,117.6,809.2,119.1,807.2z M113.9,825.2c1.1,0.1,2.1,1.1,4.1,2.2c-2,1.2-3.2,2.5-4,2.3c-0.9-0.2-1.7-1.7-2.1-2.8
			C111.8,826.6,113.3,825.1,113.9,825.2z M107.3,786.9c1.2,1.5,2.4,2.6,2.2,2.9c-0.6,1-1.7,1.8-2.6,2.6c-0.7-0.7-2-1.5-1.9-2.1
			C105.2,789.3,106.3,788.4,107.3,786.9z M102.8,803.5c1.6-0.1,3.3,1.1,6.3,2.2c-4.2,2.9-6,4.8-6.7,4.5c-1.5-0.8-2.5-2.7-3.7-4.2
			C100.1,805.2,101.4,803.6,102.8,803.5z M98.2,821.5c1,0.6,2,1.5,2.5,2.5c0.2,0.4-1,1.4-2.1,2.9c-1-1.5-2-2.4-2.2-3.5
			C96.3,822.8,98,821.3,98.2,821.5z M90.1,783.2c1,0.1,2,1,3.6,1.8c-1.4,1.2-2.3,2.5-2.7,2.4c-1.1-0.4-1.9-1.4-2.8-2.2
			C88.9,784.5,89.5,783.1,90.1,783.2z M86.3,799.5c0.9-0.1,2.5,1.1,2.8,2c0.3,0.9-0.8,2.2-1.7,4.1c-1.6-1.6-3-2.5-3.1-3.4
			C84.3,801.4,85.5,799.7,86.3,799.5z M82.4,815.1c0.9-0.2,2.4,1.9,4.5,3.7c-2.5,1.6-4,3.3-5.7,3.4c-0.9,0.1-3.3-2.9-3-3.5
			C79.1,817.2,80.8,815.6,82.4,815.1z"/>
	</g>
	<g id="XMLID_1471_">
		<polygon id="XMLID_106_" class="st2" points="456.6,466.1 444.9,480.8 418.9,498.1 1355.1,523.8 1332.9,473.6 		"/>
		<polygon id="XMLID_105_" class="st2" points="588.1,261.3 572.8,290.4 537.4,328.4 1326.9,308.4 1329.3,282.3 1332,288.5 
			1332.7,308 1351.2,315.8 1371.9,312.7 1369.9,257.9 1350.9,239 1350.7,232.9 1364.1,232.4 1371.8,243.1 1373.5,222.4 
			1344.4,227.1 1327.3,225.2 1327.1,243 		"/>
		<polygon id="XMLID_104_" class="st2" points="1346.7,407 1344.4,397.8 1351.8,398.8 1378,451.5 1433,554.4 1431.9,456.9 
			1374.9,379 1373.9,368.7 1363.3,345.9 1369.3,343.2 1381.9,355 1432.1,427.6 1430,335 1380.7,339 1380.1,331.5 1430.9,326.4 
			1429.1,309.4 1381.7,313.5 1377.1,326.3 1362.7,328.8 1347.9,325.7 1331.8,333.6 1331.8,330.7 519.6,343.4 502.6,382.8 
			1331.5,377.6 1331.7,346.7 1335.5,354.2 1336.3,399 1334.2,395.9 486.9,399.7 473.4,422.6 481.7,426.4 470.5,455.4 1342.5,458.9 
			1342.6,433.7 1351.2,450 1345.9,472.1 1374.9,534.5 1384.7,534.2 1393.6,535.7 1474.1,726.6 1487.6,713.2 1409.2,538.4 		"/>
		<polygon id="XMLID_103_" class="st2" points="1378.7,264.9 1378.9,303.9 1429.1,309.4 1428.8,302.1 		"/>
		<polygon id="XMLID_102_" class="st2" points="1430,233.7 1377.6,234.4 1376.7,244.2 1433.2,287.3 		"/>
		<polygon id="XMLID_101_" class="st2" points="1446.7,477.5 1444.1,555.2 1496.2,554.8 1551.1,626.6 1557.9,616.8 1509.1,554.7 		
			"/>
		<polygon id="XMLID_100_" class="st2" points="1416.3,686.2 1369.2,532.6 1362.1,534.7 1436.9,782.4 1447.3,764.3 1432.6,728 		"/>
		<path id="XMLID_99_" class="st2" d="M1473.1,45.1c-0.2,0.2-0.3,0.5-0.5,0.7c0.7,0.3,1.5,0.6,2.3,0.9
			C1474.3,46.2,1473.7,45.7,1473.1,45.1z"/>
		<path id="XMLID_1497_" class="st2" d="M700.4,50.2c0.1,0.1,0.3,0.2,0.4,0.3c0.2-0.2,0.4-0.4,0.6-0.5L700.4,50.2z M1066.3,10.9
			c-0.6,0.5-1.2,1.1-2,1.7c4.8-0.2,8.6-0.4,12.7-0.6c0.3-0.9,0.5-1.8,0.8-2.7L1066.3,10.9z M700.4,50.2c0.1,0.1,0.3,0.2,0.4,0.3
			c0.2-0.2,0.4-0.4,0.6-0.5L700.4,50.2z M1066.3,10.9c-0.6,0.5-1.2,1.1-2,1.7c4.8-0.2,8.6-0.4,12.7-0.6c0.3-0.9,0.5-1.8,0.8-2.7
			L1066.3,10.9z M1524.7-10.1l-94.5-3.2l-116.1,4.9c-0.1,0.4-0.2,0.7-0.3,1.1c-2.7,0.1-5.2,0.2-7.6,0.3c0.1-0.4,0.2-0.7,0.3-1.1
			l-134.9,7.8l-91.6,9.3c0.1,1,0.3,2,0.5,3.4c4.8-0.5,10.5-1.2,16.2-1.9c0,0.1,0,0.2-0.1,0.2l16.4-0.7c0,0.6,0,1.1,0,1.7
			c-16.8,1.3-33.6,2.7-51.1,4.1c0-1.6-23.9,1.9-23.9,0.4L928.3,32c-0.1-0.6-75.3,6.9-65.7,6.4l-7.9-23.1l-33.1,5.5l-34,7.1
			l-83.5,21.3c2.6,0.7,4.5,4.8,7.2,2.7c0,1.6-0.1,2.8-0.1,4c0.4,0.4,0.9,0.8,1.3,1.1c-2,1.5-3.9,3.1-5.5,4.4c-3.9-2.2-7-3.9-11-6.2
			c-0.1-0.9-0.3-2.2-0.4-3.9l-18.8,4.8c0.4,0.1,0.8,0.2,1.3,0.3c-0.6,2.3-1.1,4.5-1.8,7.2c1.3,0.1,2.9,0.2,4,0.3
			c1.4-2.5,2.5-4.4,3.6-6.2c0.4,0.2,0.7,0.3,1.1,0.5c-0.1,1.5-0.2,3.1-0.3,4.9c2.4,0.2,4.5,0.3,6.3,0.4c1.2-2.1,2.1-3.7,3-5.2
			c0.2,0.1,0.4,0.2,0.6,0.3c-0.3,2.4-0.5,4.9-0.8,7.3c0.8,1.2,1.6,2.5,2.6,4c1.1-0.9,2.3-1.8,3.2-2.5l-0.3-7.5
			c6.9,5.1,11.8,12.7,21.1,12.2c2-2,3.7-3.7,5.8-5.7c0.6,1,1,1.8,1,1.8c-6.2,6-12,11.6-17.7,17c0.8,3.7,1.6,7.1,2.3,10.5
			c-6.2,2.2-12.5,3.5-15.6,10.2c7.6,2.8,15.9,3.1,21.1,10.4c-1.2,0.6-2.4,1.1-3.5,1.5c4.9,1.3,9.8,2.6,14.6,3.8
			c-13.6,6-18.5,8.7-31.9,3.2c-6.6,3.6-13.2,7.2-19.7,10.8c0.6-0.9,1.2-1.8,1.7-2.6c-2.9-1.3-5.7-2.6-9.2-4.2
			c2.5-1.1,3.8-1.6,5.6-2.3c-1.6-5.7,0.2-10.3,5.4-14.3c-2.2-0.3-3.3-0.4-5.1-0.6c1.8-1.3,3-2.1,3.8-2.7c-0.5-1.9-0.8-3.5-1.2-5
			c0.3-0.1,0.7-0.3,1-0.4c2,1.9,4,3.9,6.2,6.1c2.2-0.7,4.3-1.4,5.6-1.8c1.1-4,2.7-7.2,2.7-10.4c-0.1-7.3,0.8-14.9-2.5-21.9
			c-0.2,1.1-0.5,2.3-0.7,3.5c-6.5-3.9-12.7-7.5-19-11.2c0.6-1,1.4-2.6,2.7-4.8c-3.8,0.2-6.5,0.3-10.2,0.5c0.9-1.7,1.3-3.5,2.1-3.7
			c3.4-0.9,6.9-1.3,10.6-1.9c0.1-0.3,0.3-0.9,0.5-1.6l-42.4,5.3c1.8,3,3.4,3,9.7,2.6c-1.6,1.5-2.2,2.7-3.2,3.1
			c-2.6,1-5.4,1.7-8.4,2.6c-0.8-0.5-2.4-1.4-4.8-2.8c-0.7-0.9-1.8-2.4-3.2-4.3l-9.3,1.2l-25.4-17.3l-2.8,15l-17.6,2.5
			c16.7,27.5,31.7,70,31.7,70l12.4,66.2c-0.2,2.3-0.2,4.6-0.6,6.8c-0.3,1.8-1.5,3.6-1.3,5.2c1.3,7.5,3,15,4.4,22.5
			c0.4,1.9,0.2,3.9,0.3,6.3c-6.1-1.2-10.9-2.2-14.2-2.9c-2.8,3.9-5.2,7.2-7.5,10.4c7.4-0.3,14.7-0.7,22.1-1c4-1.1,8.1-2.2,12.4-3.3
			c-0.7-2.6-1.6-5.8-2.5-9c0.7-1.1,1.3-2.3,1.9-3.2c-0.7-1.1-1.2-2-1.8-2.9c0.2-0.3,0.5-0.6,0.7-0.8c1.6,0.9,3.2,1.7,4.9,2.6
			c-0.7,2-1.2,3.4-2,5.8c2-0.3,3.3-0.5,4.1-0.7c1.5-5.5,2.8-10.3,4.1-15.1c-0.8-1.7-1.6-3.4-2.8-5.9c5.3-1.5,10-3.9,14.7-4
			c7.1-0.2,11.8,4.5,15.7,11.6c-3.6,1.6-7.3,3.5-11.2,4.7c-4.3,1.4-8.8,2.1-13.2,3.1c-0.1,0.4-0.1,0.8-0.2,1.3
			c3.1,1.6,6.3,3.3,9.8,5.1c3.3-2,6.5-4,10.3-6.4c1.1,2.8,2.3,5.6,3.8,9.3c-2.5,1.3-4.7,2.4-7.2,3.7c-0.1,0.4-0.2,1.4-0.3,2.4
			c25.1-1.1,50.2-2.2,75.3-3.3c-0.1-0.3-0.2-0.6-0.4-1l34.5-1.5c0,0.3,0,0.6,0,0.9c3.7-0.2,7.4-0.3,11-0.5l-0.1-1.8l11-0.5l0.1,1.8
			l11-0.5c-1.1-11-2.2-21.9-3.4-32.9c-0.1-1-0.3-2-0.7-2.9c-3.8-9.1-2.5-12.4,5.5-16.4c8.4,0.5,15.7,1,23.3,1.5
			c-0.9-5.1-5.1-6.7-11.1-6.2c-4.2,0.3-8.6,0.1-12.8-0.5c-1.5-0.2-2.7-2.5-4-3.8l1.2-1.3c1.5,0.5,2.9,1.1,4.3,1.6
			c3-2.1,5.9-4.1,8.9-6.2l-0.2-5.4c2.2-2.3,3.4-6.6,8.3-5.1c6.6,2,8.4,5.4,8.3,15.5c1.5,1.2,3.2,2.7,5.5,4.5
			c0.1,1.4,0.2,3.1,0.4,4.9c0.2,1.7,0.7,3.4,1.2,5.7c2-1.5,3.2-2.4,4.7-3.5c2.3,1.3,4.6,2.6,7.5,4.2c-4.2,14.8-8.5,29.8-12.8,44.7
			c25.1-1.1,50.2-2.2,75.3-3.3c-0.2-1-0.4-1.9-0.5-2.4c-2.6-1.1-4.9-2-7.5-3c1.3-3.8,2.2-6.7,3.2-9.6c3.9,2,7.3,3.7,10.7,5.4
			c3.4-2.2,6.4-4.1,9.4-5.9l-0.3-1.3c-4.5-0.6-9-0.9-13.4-1.9c-4-0.9-7.8-2.5-11.5-3.8c3.3-7.4,7.7-12.5,14.8-12.9
			c4.7-0.3,9.5,1.6,14.9,2.7c-1,2.6-1.7,4.4-2.3,6.1c1.7,4.7,3.3,9.4,5.1,14.7c0.8,0.1,2.1,0.2,4.1,0.3c-1-2.3-1.6-3.7-2.4-5.6
			c1.6-1,3.2-2,4.7-3c0.3,0.3,0.5,0.5,0.7,0.8c-0.5,0.9-1,1.9-1.6,3c0.6,0.9,1.3,1.9,2.1,3c-0.7,3.4-1.3,6.6-1.9,9.2
			c4.4,0.8,8.5,1.5,12.6,2.3c7.4-0.3,14.7-0.7,22.1-1c-2.6-3-5.1-6-8.2-9.7c-3.3,1-8,2.3-14,4.1c-0.1-2.3-0.4-4.3-0.2-6.3
			c0.8-7.6,2-15.2,2.7-22.8c0.1-1.6-1.2-3.3-1.6-5.1c-0.5-2.2-0.7-4.5-1-6.7l1.3-0.4c0.7,0.7,1.4,1.5,2.1,2.2
			c12.4-10.3,33.9-9.5,46.3,1c5.1,4.3,11.2,7.4,17.1,10.7c1.6,0.9,3.9,0.4,4.9,0.5c7.5-4.8,14.1-9.1,20.9-13.6
			c1.8,1.1,3.9,2.4,6.5,4c-1.6,5.7-3.2,11.6-5,18.1c-3.4-0.1-6.6-0.2-10.4-0.3c-0.9,2.2-1.9,4.5-2.8,6.8c0.3,0.2,0.7,0.3,1,0.5
			c0.8-1,1.5-2,2.7-3.5c0.6,1.4,1,2.5,1.3,3.3c-3,4.3-5.7,8.1-8.4,11.9c10-5.3,21.3-15.8,21.9-19.6c0.9-0.2,2-0.5,3.3-0.8
			c0.4-1.3,0.8-2.7,1.2-4.3c1.4-0.4,2.8-0.8,4.7-1.3l-0.5-14c4.5,4.3,6.6,10.5,13.5,7.4c0.2,1.5,0.3,2.4,0.4,3.4
			c1.1-2,2.2-3.7,3.2-5.5c0.7,0.5,1.5,0.9,2.3,1.4c-0.4,3.4-0.8,6.9-1.2,10.8c7.6,2.8,14.8,5.5,22.2,8c7.5,2.6,13.1,7.7,18.3,13.4
			c22.1-1,44.2-2,66.2-2.9c1.7-0.9,3.4-1.7,5.9-3.1c-2-3.1-4-6.1-6-9.3c-2.5-0.1-4.9-0.2-8-0.4c-0.6-1.7-1.1-3.4-2.1-6.6
			c7.7-2,14.7-3.8,22.4-5.7c0.9-1.4,2.2-3.3,3.4-5.2c-8.2,2.9-15.7,9.7-24.9,2.5c1-1.5,1.9-2.6,2.9-4.1c-0.2-1.2-0.3-2.6-0.6-4.6
			c3.8-0.4,7.4-0.8,11.3-1.1c0.5-1.6,1.1-3.3,1.8-5.6c-2.5-2.4-4.9-4.7-7.3-7c-0.5,0.3-0.9,0.6-1.4,1c0.5,1.7,1.1,3.4,1.6,5.1
			c-0.4,0.4-0.7,0.7-1.1,1.1c-1.3-1.3-2.6-2.6-4.5-4.4c-1.3-0.2-3.5-0.4-7.2-0.9c1.5-5.6,2.9-10.5,4.4-15.9c3.9,3.2,7,5.8,10,8.3
			c2.8-1.7,4.9-2.9,7-4.1c-1.4-2.1-2.7-3.9-4.3-6.2c-3.9-0.3-8.4-0.1-12.7-1c-2.2-0.4-3.9-2.7-6.8-4.9c2.3-2,3.4-3,4.7-4.1
			c0.4-6.2,3.1-9,9.6-10.5c2.7-0.6,5.4-1.5,8.1-2.5c3.8-1.4,8.4,0.1,10.3,4.6c2.2,5.2,3,10.9,5,16.1c1.9,4.9,4.6,9.6,7.4,15.3
			c1.2-5.5,2.1-9.7,3.2-13.8c1.1-4.1,2.4-8.1,4.2-11.9c0.3-4.8,0.7-9.6,1-14.4c1.6-0.7,3.2-1.3,4.9-2c2.8,3.7,5.7,7.7,8.9,12
			c-3.9,1.5-7.9,3.1-11.1,4.3c-0.1,6.1-0.2,11.1-0.2,17c6.9,2.8,10.6,8.4,11.3,16.6c0.3,4.2-1,6.8-4.2,9.5
			c-5.2,4.4-9.8,9.3-15.6,14.8c3.7,1.7,5.9,2.8,8.5,4.1c1.5-1.4,3.1-2.9,4.6-4.3c0.3,0.2,0.7,0.3,1,0.5c-0.7,2.2-1.4,4.4-2.4,7.7
			c1.1,3,2.7,7.2,4.2,11.3c15.4-0.7,30.8-1.3,46.2-2c0.2-4.4,0.5-8.7,0.8-13.4c-1.3-0.6-3-1.3-5.8-2.5c1.6-4.8,3.2-9.7,4.8-15
			c-1.5-1.1-2.9-2.2-5.5-4.2c1.1-5.2,2.4-11,3.8-17.4c9.4-0.4,17.6-0.8,26.2-1.2c-5.4-7.8-20.3-10.7-28.5-5.9
			c-12.7,7.5-18.8,19.2-21.9,34c0.1-0.1-0.5,0.4-1.3,0.6c-0.6,0.1-1.2-0.2-2.3-0.3c3.1-9.3,5.9-18.4,1.8-28.2
			c-0.8,0.1-1.6,0.1-2.3,0.3c-0.6,0.1-1.2,0.4-1.7,0.7c-0.3-0.5-0.7-0.9-1-1.4c2-1.5,3.9-3,6.4-4.8c-1.7-0.6-3.1-1.1-5.5-1.8
			c0.3-3.5,0.7-7.2,1-10.3c-1.4-3.2-2.6-5.9-4-9c0.7-1,1.6-2.2,2.7-3.8c-4.5-1.6-8.9-3-13.2-4.5c-1.5-3.3-2.9-6.5-4.3-9.6
			c0.3-0.2,0.6-0.5,0.8-0.7c-2.2-1.5-4.4-3-6.6-4.5c-13.4-10.4-25.1-23.8-44.8-23.4c1.3-4.5,2.7-7.5,6.9-7.8
			c7.1-0.4,14.2-0.6,21.9-1c4.3,4.9,8.9,10,13.5,15.2c0.4-0.2,0.9-0.3,1.3-0.5c0.2-1.9,0.4-3.7,0.5-4.9c0.8,2.7,1.8,6.1,2.9,9.8
			c1.5-0.9,2.3-1.3,2.7-1.6c6.1,3.5,12.1,6.8,18.1,10.2c0.5-8.7,0.9-16.7,1.4-24.7c0.5,0,1,0,1.4,0l-0.3-8.9c0.5,0,1.1-0.1,1.6-0.2
			c4,12.8,2.9,26.3,3.8,38.7c4.1,4.2,7.7,8,11.8,12.2c1.6-0.7,4.1-1.6,6.5-2.6c7.7-3.2,14.9-1.9,22.2,1.5
			c12.9,5.9,20.7,16.4,27.3,28.3c1.5,2.8,4.4,4.8,6.9,7.5c0.8-1,1.5-2,3-4c-0.8,4.5-1.4,7.7-2.1,11.4c1.9,1.2,3.8,2.4,5.6,3.5
			c0-0.2,0.2-1.4,0.5-3.2c1.1,1.9,1.8,3.2,2.8,5c1.2-0.5,2.4-1,4.4-1.7c0.7,2.4,1.5,5.1,2.2,7.8c-0.7,0.5-1.5,1-2.2,1.4l-3.1-4.9
			l-0.9,0.5c0.5,2.5,1,5,1.5,7.5c0.3,0,0.6-0.1,0.9-0.1c-0.3,1.3-0.7,2.6-1,4c0.8,2.1,1.6,4.2,2.4,6.2c0.6,0.1,1.1,0.3,1.2,0.1
			c10.6-8,22.4-5.5,34-5.1l-41.5,9.3c-4.9-0.5-9.6-1-14.2-1.5c-1.6,1.6-3.4,3.4-5.3,5.2c0.8,1.4,1.6,2.9,2.4,4.3
			c-0.9,2.6-1.7,5-2.5,7.3l14.4-0.6l-2,9.1l24.1-8.2l28.3,6.3l50-0.5l-0.6-17.1l9.7-0.3l5.7,90.1l30.3,18l11.6,7.7l33.9,20.2l-1.7,0
			l42,23.6l-4.4-229.4l-7.9-113.3c-0.7-2.8-1.4-5.4-2-8c0.6,0.3,1.2,0.6,1.8,0.8l-0.1-3.1c-1.1-0.3-2.1-0.6-3.2-0.9
			c0-2.6,0.1-5.1,0.1-8.4c1,0.5,1.9,0.9,2.8,1.4 M674.4,193.2c-9.8-8.1-20.7-7.3-31.6-5.4c-0.8-13.9-0.8-13.9-6.9-19.4
			c1.4-2.5,2.8-5.1,4.1-7.5c2.5-1.1,4.8-2.1,7.6-3.3c-1.6-13-3.1-25.5-4.8-38.7c-0.5-1.2-1.2-3.3-2-5.3l1.4-0.6
			c0.5,0.9,1.1,1.8,1.7,2.9c6.7-11.8,11.9-14.7,21.9-11.9c4.9,1.3,6.6,3.9,6.5,9.1c-3.1-1.5-6.4-3.1-10.7-5.3
			c-3.4,4.8-7.9,8.7-9.1,13.5c-3.1,12.3-1.8,24.8,0.8,37.4c6.2-0.5,12.6-4.7,19.7-0.6L674.4,193.2z M657.7,139.7
			c-1.9-2.8-3.2-4.8-5-7.4c3.9-1,6.3-1.6,9-2.3c0.9-1.7,1.5-3,2.8-5.5c1.3,3.8,2.3,6.6,2.9,8.2c-2.4,3.2-4,5.3-5.6,7.3
			c-0.3-0.2-0.5-0.3-0.8-0.5c0.3-1.7,0.6-3.3,1-6.3C660.4,135.7,659.5,137,657.7,139.7z M654.4,127.5c-1.6-6.4,1.3-12.2,7.6-15.5
			c1.3,0.3,2.9,0.8,4.8,1.3c0.4,3.2,0.7,6.3,1,9.3C662.7,124.4,658.6,126,654.4,127.5z M697.2,128.9c2.7,0.2,5,0.3,7.7,0.4
			c-0.6,2.4-1,3.8-1.4,5.3c2.5,1.6,4.4,2.9,6.4,4.2c-0.2,0.7-0.3,1.4-0.5,2.1c-3.8-0.2-7.6-0.4-11.7-0.7L697.2,128.9z M703.8,203.6
			c-0.4-0.1-0.9-0.2-1.3-0.4c0.4-1.2,0.8-2.4,1.5-4.3c-2.6-8.8,2.1-16,6.7-24.5C715.9,186.9,708.7,195,703.8,203.6z M759.9,94.5
			l-1,2.6c-0.4-2-0.9-4.1-1.3-6.1L759.9,94.5z M754.8,87l2.7,3.9c-2.3,0.4-3.5,0.5-4.8,0.7C753.5,90,754.2,88.5,754.8,87z
			 M768.7,205c-0.3,1-0.5,2-0.5,2.9c-0.3,8.8-0.6,17.6-0.8,26.3l-18-26.2l3-17.4c3.1-0.5,6.3-1,9.7-1.5
			C770.3,192.3,771.8,195.5,768.7,205z M842.5,23.9c4.3-1.2,8,1.3,9.3,5.5c1.2,3.7,3.2,8.2-1.3,10.4c-6-1.2-10.6-2-15.9-3
			C837.2,32.2,836.2,25.6,842.5,23.9z M799,89.1c-1,7.1-1.9,14.3-3.1,22.6c-1.9-4.7-3.4-8.3-4.4-10.8c-1-0.3-1.9-0.6-2.7-0.8
			l4.8-17.1c1.9,0.8,4.7-0.9,6.7,0.2c1,1.9,2.2,3.9,3.5,6.4C802.6,89.4,801.3,89.3,799,89.1z M828.4,91.4c-4.7-2.1-5.5-9.5-13.1-8.4
			c2.3,3.3,4,5.9,5.7,8.4c-1.4,2.2-2.8,4.2-4.1,6.4c-3.9-5.3-7.9-10.5-11.6-15.6c3-0.7,6.1-1.4,9.5-2.2l-0.3-9.3
			c-1.8-2.4-3.7-5-5.5-7.5c0.3-1.6,0.5-3.2,0.8-4.9c10.7-0.6,14.3,6.9,17.3,15.8c1.2-1.3,1.9-2,3.7-3.8l0.5,13.7
			c1.9,1.6,4,3.3,6.9,5.7C833.9,90.5,831,91,828.4,91.4z M841.3,51.3c0.4-0.4,0.8-0.8,1.2-1.3c-0.1-1.2-0.2-2.4-0.4-3.9
			c4,2.5,5.5-6.6,10.5-2.5c1.1-0.8,2.7-2,5.3-4c-0.2,4.1-0.3,6.7-0.3,8.4c-3.9,2.6-6.9,4.6-10.5,7.1
			C845.5,54.1,843.4,52.7,841.3,51.3z M860.7,196.7c-5.6-8.2-13.3-15.6-9-28.6c5.3,8.1,10.4,14.8,8.5,23.9c0.8,1.9,1.3,3,1.8,4.2
			C861.5,196.3,861.1,196.5,860.7,196.7z M862.3,132.9c-4.1,0.6-7.9,1.2-11.7,1.7c-0.2-0.7-0.4-1.3-0.7-2c1.9-1.4,3.7-2.9,6.1-4.7
			c-0.5-1.4-0.9-2.8-1.7-5.1c2.6-0.4,4.9-0.7,7.6-1.1L862.3,132.9z M920.3,175.5c-10.9-0.9-21.8-0.7-31.1,8.2l-1.3-35.2
			c6.8-4.7,13.5-1.1,19.7-1.1c1.7-12.8,2-25.4-1.9-37.4c-1.5-4.6-6.3-8.1-10-12.6c-4.2,2.5-7.4,4.5-10.3,6.2
			c-0.5-5.1,1.1-7.9,5.8-9.6c9.8-3.6,15.2-1.2,22.7,10c0.5-1.1,1-2.1,1.5-3c0.5,0.2,1,0.3,1.4,0.4c-0.6,2.1-1.2,4.2-1.6,5.5
			c-0.7,13.3-1.3,25.9-2,39c2.8,1,5.2,1.8,7.8,2.6c1.5,2.3,3.1,4.8,4.7,7.1C920.1,161.6,920.1,161.6,920.3,175.5z M898.8,129
			c-0.2,0.2-0.5,0.4-0.7,0.5c-1.7-1.9-3.4-3.8-6.1-6.8c0.4-1.7,1.2-4.6,2.3-8.4c1.5,2.4,2.2,3.6,3.2,5.2c2.7,0.4,5.1,0.8,9.1,1.5
			c-1.6,2.8-2.8,4.9-4.4,7.8c-2-2.5-3-3.7-4.8-6C898,125.8,898.4,127.4,898.8,129z M904.5,116.5c-4.3-1.2-8.6-2.4-13.8-3.8
			c0.1-3,0.2-6.1,0.4-9.3c1.9-0.7,3.4-1.2,4.7-1.7C902.3,104.5,905.6,110,904.5,116.5z M926.8,53.8c-2.4,1.6-3.9,2.6-4.6,3.2
			c-3.1-0.6-5.9-1.1-8.6-1.9c-1-0.3-1.8-1.4-3.5-2.8c8.4-0.3,8.4-0.3,11.3-7.9c-4.6-0.5-8.9-0.8-12.6-1.2
			c-2.9-2.1,12.5-3.6,12.5-3.6c1.1,2.3,2.1,4.4,3.2,6.6c1.6,0.4,3.5,0.9,6.1,1.5C928.9,50.4,927.5,52.6,926.8,53.8z M1001.3,126.8
			c-0.7,2.9-1.3,5.5-2.1,8.5c-1.1,0.1-2.6,0.1-4.3,0.2c-0.4,1.6-0.7,2.9-1,4.4c-2-0.8-3.8-1.6-6.5-2.7c-0.9-1.8-2.2-4.6-3.6-7.5
			c0.5-0.3,1-0.6,1.5-0.9c1.5,2,3,4,4.5,5.9c1.2-2.1,2.5-4.4,3.9-6.8c-0.2-0.2-0.6-0.6-1.1-1.1c1.1-0.8,2.2-1.6,3.6-2.7
			c-1.2-3-2.5-6-3.7-9.2c-0.5,0-1,0.1-1.5,0.1c-0.3,2.4-0.5,4.8-0.8,7.6c-0.9-0.7-1.8-1.3-2.9-2.2c-2.2,1.9-4.5,3.8-6.7,5.8
			c-0.5,2-1.1,4.1-1.6,6.1c-0.4-0.1-0.8-0.1-1.3-0.2c0.3-1.5,0.7-2.9,1-4.3c-3-5.1-6.1-10.3-9.3-15.6c-7.3,3.2-14,4.1-21,0.2
			c1.1-8.1,1.4-16.3,7.8-22.6c3-2.9,4.3-5.8,1.6-10.1c-2.3-3.7-0.3-7.7,2.9-10.6c3.6-3.2,4.8-6.2,0.4-9.8c-1.6-1.3-2.4-3.5-4.3-6.5
			c0.1-0.7,0.5-2.5,1-4.7c12.7,0.7,25.4,1.5,38.1,2.2c0.2,0.5,0.4,1.1,0.6,1.6c-4.9,3.2-9.8,6.3-15,9.7c2.1,7.8,6.7,15.3-0.3,22.3
			c7.3,7.8,14,15,21.1,22.7c-0.8,1.5-2,3.9-3.3,6.6c1.2,2.2,2.5,4.6,3.7,6.7c0.6,3,1.2,5.8,2,9.4
			C1003.1,128.2,1002.5,127.7,1001.3,126.8z M1117.5,9.8c9.7-0.4,19.5-0.9,28.1-1.2c2.8-2.5,4.6-4.1,7-6.3c0.2,2,0.3,3.3,0.4,4.8
			c5.5-0.2,10.8-0.5,16-0.7c-0.1-0.3-0.2-0.5-0.4-0.8c2.5-1.6,4.9-3.2,8.5-5.5c-0.3,2.9-0.4,4.1-0.5,5.6c1.3,0.1,2.7,0.2,4.2,0.2
			c0.9-1.4,1.7-2.7,2.7-4.2c1.9-0.3,3.9-0.6,5.9-1c0.3,0.5,0.6,0.9,0.9,1.4c-1,0.6-2,1.3-3.3,2.1c6.1,0.1,11.8,0.2,17.5,0.3
			c0,0.6,0.1,1.2,0.1,1.8c-29.1,2-58.2,3.9-87.3,5.9C1117.5,11.2,1117.5,10.5,1117.5,9.8z M1128.5,82.1c-4.4-0.3-6.9-2.3-8.8-5.9
			c5.5-3.7,16.5,2.2,20.2,10.6c-1.8,7.2-3.1,8.9-7.6,9.8c-0.6-0.6-1.3-1.3-2-2c-0.6-0.7-1.3-1.5-2.3-2.7c-0.5,1.2-0.8,2.1-1.2,3
			c-1.3-0.2-3-0.5-5.1-0.9c-0.9-1-1.7-2-2.6-3c1.7-2.2,3.5-4.6,5.6-7.4c1.2,1.9,1.9,3.1,2.9,4.8c3.3,0.2,6.8,0.4,11.5,0.7
			C1136.8,83.3,1132.4,82.4,1128.5,82.1z M1114.3,18.2c-0.1,1.4-0.2,2.6-0.3,3.4c-4.6,1.6-9,3.1-12,4.2c-3.3,0.3-5.2,0.5-7,0.7
			C1095.6,19.6,1101.8,16.6,1114.3,18.2z M1071.5,19.1c5.9-0.3,12.1-0.5,19.2-0.9c-1,1.8-1.7,3-2.5,4.4c4.9,5.3,6,13.5,13.3,16.7
			c1.2-2.5,2.1-4.6,3.1-6.7c0.6,0,1.2,0,1.8,0c1.1,3.7,2.2,7.4,3.5,11.5c-1.3,1-3.1,2.4-4.9,4c-0.2-0.7-0.5-1.6-0.7-2.4
			c-1.9-0.1-3.7-0.1-5.7-0.1c0.1-0.9,0.2-1.9,0.4-3.2c-1.9-0.2-3.5-0.3-6.1-0.5c-3.9-5.6-8.1-11.7-12.8-18.6
			c-2.6,1.7-5.8,3.9-9.4,6.3c-1-1.1-2-2.2-3.1-3.5C1068.9,23.6,1070,21.6,1071.5,19.1z M1031.3,17.7l1-1.5c1.3,1.9,2.7,3.8,3.5,4.9
			c3.3,0.1,5.8,0.2,8.3,0.3c0,0.4,0,0.7,0,1.1c2.2-0.5,4.4-1,7.2-1.6l0.6,17.2c-0.5,0.2-1,0.5-1.4,0.8c-2.6-4.8-5.2-9.7-8.2-15.3
			c-7.4,5.5-12.1-0.2-18.9-4.4C1027,18.6,1029.2,18.2,1031.3,17.7z M1034.8,167.8c-2-2.5-4.1-5.2-5.7-7.1c-4,0.2-7.1,0.3-10.4,0.4
			c-3.3-5.7,3.1-9.6,2.6-15c-0.8-1.5-1.8-3.3-2.8-5.3c2-1.5,3.8-2.7,5.9-4.3c-1.7-1.7-2.9-2.9-4.4-4.4c6.3-3,11,0.8,15.6,3.5
			c3,1.8,5.3,4.9,7.7,7.5C1051.4,152.2,1047.7,163.5,1034.8,167.8z M1043,111.8c-4.7-0.1-8.1-0.2-13.4-0.3c2.9-4.8,5.1-8.5,7.2-12
			c3,1.2,5.4,2.1,7.7,3.1c0.6,0,1.2-0.1,1.8-0.1C1045.3,105.6,1044.1,108.7,1043,111.8z M1052.2,118c1.4-0.8,2.3-1.3,3.1-1.8
			c0.1-1.5,0.2-3,0.3-4.5l1.2-0.3c1,1.6,2,3.1,3.1,5c1.6,0.2,3.3,0.5,4.8,0.7c1.3-5.7-7.8-6.6-5.8-13.3c2.8,1.8,5.2,3.3,7.6,4.9
			c0.1-0.2,0.2-0.3,0.4-0.5c-5.7-7.3-11.5-14.7-17.2-22c0.5-0.6,1.1-1.3,1.6-1.9c5.3,2.3,10.6,4.5,16,6.8
			c-8.5-9.1-20.5-7.8-31.3-10.5l-0.2-5.5c-1.7-1.2-3.4-2.4-6.1-4.2c1.5-1,2.9-2,4.9-3.3c2.5,4,5.1,8.1,7.4,11.9
			c4.5-0.5,8.4-0.8,13.5-1.4c0,0,0.6-1.2,1.2-2.3c9.5,6.4,19,12.9,28.8,19.4c0.5-0.7,0.9-1.3,1.4-2c3.7,5.5,0.3,9.5-3,13.6
			c1.1,1.6,2.1,3,3.2,4.7c-0.3,1.5-0.6,3.1-0.9,4.5c-4.9,3.8-9.4,7.4-14.9,11.7c-0.1,0-1.3-0.1-3-0.2c0.6,2.4,1.1,4.5,1.7,7.1
			c1-0.9,1.7-1.5,3.8-3.3c0.6,7.1,1.1,13.1,1.6,19.3c-4.4-0.3-7.4-0.5-11.6-0.7c-0.3-1-1.2-2.7-1.3-4.5
			C1061.7,135.2,1061,125.3,1052.2,118z M1062.6,170.3c-0.6-0.1-1.2-0.1-1.9-0.1c-1-1.9-1.9-3.8-2.4-4.7c4.2-5.3,7.6-9.5,10.9-13.6
			c0.6,0.3,1.1,0.6,1.7,0.9c0.2,1.6,0.4,3.2,0.6,4.5C1068.4,161.8,1065.5,166,1062.6,170.3z M1105.2,183.9c-4-0.3-7.5-0.5-11.2-0.7
			c-0.8,1.3-1.5,2.6-2.6,4.6c-1.4-1.7-2.4-3-4-5c1-0.9,1.8-1.6,3.3-2.8c-2.6-0.1-4.8-0.2-7.8-0.3c0.6,3.4,1,6.2,1.7,10.3
			c-5.8-2.9-10.7-4.8-13.4-10.4c3.5-0.7,6.2-1.2,9.8-2c-2-1.3-3.1-2-3.7-2.4c-2.9-4.7,4.1-14.7,15.3-17.2c6.9,4.4,8,10.8,3.3,20.2
			c2.1-0.4,4.1-0.8,6.9-1.4c0.4-1.8,0.8-4.2,1.3-6.6l0.8,0L1105.2,183.9z M1090,70.1c-3.5,0.1-7-2-11-3.3c1.2-1.7,1.7-2.4,2.1-3
			c-0.2-0.4-0.3-0.8-0.5-1.2c-2.7,0.7-5.4,1.4-8.4,2.1c0.1-2.5,0.2-4.7,0.3-7.7c-2.5,0.8-4,1.2-5.6,1.8c-0.2,2.2-0.3,4.1-0.5,6.4
			c-1.2-0.1-2.4-0.1-4.5-0.2c2-3.1,3.6-5.5,5.3-8.2c-1.6-0.5-3.7-1.2-6.2-2c-0.1,1.9-0.2,3.3-0.3,4.7c-0.2,0-0.4,0.1-0.6,0.1
			c-0.6-2-1.2-4-1.9-6.3c0.9-0.7,2-1.4,3.2-2.2c-0.6-1.6-1.1-3.2-1.7-4.8c1.7-6.2,7.4-7.3,12.4-8.8c1.6-0.5,3.8,1.5,5.8,2.4
			c-2.2,6.1-4.6,11.4-2,18.1c2-3.7,0.1-8.3,5.8-9.2c-0.2,3.3-0.4,6.1-0.6,9.4c1.8,0.2,3.7,0.4,6.6,0.6c-0.9-2.9-1.7-5.1-2.6-7.8
			c1.2,0.5,2.2,1,3.3,1.4l0.3,7.3c5.4-2.5,10.1-4.6,14.8-6.8c2.8,0.9,5.5,1.7,8.1,2.6c-2.4,4.4-4.6,8.5-6.4,11.8
			C1100,68.3,1095,69.9,1090,70.1z M1140.1,178.4c-3.1,1.1-6.8,2.5-10.6,3.9c-0.2-0.3-0.4-0.6-0.5-0.8c-5.8,0.3-11.6,0.5-18.4,0.8
			c5.5-8.7,15.7-9.7,22.1-16.4c0.1-1.1,0.1-2.6,0.2-4.3c-0.9,0-1.6,0.1-3.5,0.1c4.9-6.2,9.2-11.7,14.4-18.2
			C1148.2,156.6,1145.8,167.4,1140.1,178.4z M1188.6,113.5c-11.1-0.2-14.2,10-21,14.6c-0.6,2.9-1.1,5.4-1.8,8.6
			c-9.3-2.3-17.7-4.3-27.2-6.6c2.3-2.1,3.5-3.2,5.8-5.3c-4.2-1.2-7.5-2.1-10.9-3.1c-0.3-2.2-0.6-4.5-0.8-6.8
			c4.2-5.1,8.9-2.6,17.5,9.7c5.5-1.5,0.4-7.1,4-9.6c0,2.1-0.1,4-0.1,5.8c0.5,0.1,1,0.1,1.6,0.1c2.8-3.3,0.4-7-0.1-10.6
			C1165,103.8,1185,105.2,1188.6,113.5z M1176.5,47.1c-0.5,0.8-1.5,2.2-2.6,3.8c-1.1-0.1-2.4-0.1-3.8-0.2l-0.2-4.6
			c-0.9-0.7-2.1-1.5-3.9-2.8c0.3,1.8,0.5,2.8,0.7,3.9c-2.1-0.9-3.9-1.6-6.6-2.7c0.5-1.7,1.1-3.9,1.9-6.6c2.2,1.4,3.8,2.5,5.5,3.6
			c1.5-1,2.9-2,4.2-2.9c0.1-0.5,0.2-1,0.3-1.6c-3.7-0.9-7.5-1.7-11.6-2.7c-0.3-3.5,7.8-10.1,13.4-10c1,5.5,2.1,11.4,3.3,17.8
			c1.1-1,1.8-1.7,2.5-2.3c1,1.4,2.1,2.9,3.7,5.2C1181.1,45.6,1179.1,46.3,1176.5,47.1z M1216.6,53.9c-1.9,1.8-4.5,4.2-7.4,6.9
			c-1.1-2.3-2-4.3-3.1-6.8c-1.1,1.5-2.1,2.9-3.8,5.1c-1.8-1.4-3.6-2.8-5.9-4.6c-1.9-0.5-5-1.2-9-2.2c5.9-12.1,11.3-23.3,16.9-34.7
			c-0.7-0.1-2.1-0.2-3.9-0.4c-0.1-1.5-0.3-2.8-0.4-4.4c-3,6.3-6.9,7.1-12.2,2.4c1.3-1.4,2.6-2.8,3.8-4c12.1-0.5,17.7-3.1,23.6,1.2
			c0.9,2.2,1.8,3.9,2.3,5.7c0.6,2,1,4.1,1.7,6.8c1.4,1.9,3.2,4.3,5,6.7c-1.6,5.5-1.6,5.5-13.9,10.2c0.2,1.2,0.5,2.4,0.8,4.2
			c3.1-0.5,6.3-1,9.7-1.6c0.7,1.2,1.4,2.5,2.2,3.9c1.4,0.6,2.8,1.2,4.3,1.8c0,0.4,0.1,0.9,0.1,1.3
			C1224,52.4,1220.8,53.1,1216.6,53.9z M1506.7,31.9c2,0.8,3.6,1.5,5.5,2.3c2.9-1,6-2.1,10.3-3.6c-0.4,4-0.7,7.1-0.9,10.2
			c-1.4,1.2-2.5,2.2-3.6,3.2c-1.4,7.4-4.5,9.9-10.2,7.9c1.4-1,2.6-1.9,4.4-3.3c-1.7-0.8-2.7-1.2-3.7-1.6c0-0.3,0.1-0.6,0.1-0.9
			c2.3,0.1,4.5,0.2,6.8,0.4c0.1-0.4,0.2-0.9,0.4-1.3c-2.2-0.7-4.4-1.4-7-2.2c0.8-1.2,1.5-2.2,2.4-3.4c-1.7-0.4-3.2-0.8-5.1-1.2
			C1506.2,36.2,1506.4,34.3,1506.7,31.9z M1429,7.2c5.4,0.7,9.5,1.3,14.2,1.9c-1.2,3.2-1.8,5.1-2.5,6.9c-3.9,1.8-7.5,3.6-12.6,5.9
			C1428.4,17,1428.7,12.7,1429,7.2z M1388.6-1.5c3.1,1.8,7.2,4.2,12.1,7.1c-6.8,2.9-11.6,4.9-15.7,6.7
			C1386.1,8.2,1387.3,3.6,1388.6-1.5z M1373.8-4.3c3.1,0.3,5.4,0.6,7.9,0.8c-0.7,4.8-1.4,9.1-2,13.5c-0.5-0.4-1-0.8-1.5-1.2
			c-1.8,2.4-3.6,4.9-5.9,8C1372.8,9.6,1373.3,2.8,1373.8-4.3z M1332.3,23.9c0.7-1.8,1.5-3.8,2.2-5.6c7-2.4,11.4-1.6,13.6,1.3
			c0.7,6,1.4,10.9,2,16.2c0.9,0.6,2.1,1.3,3.6,2.2l-0.1-3.5c5.6,6.8-2,8.3-4,13c-0.2-2-0.4-2.9-0.5-4.1c-2.1,0.1-4,0.2-5.9,0.3
			c-1.1-2.7-2.2-5.2-3.3-7.8c-2.5,0.4-4.6,0.6-8.2,1.1c1.3-3.5,2.2-5.9,3.3-9.2c2,2.4,3.4,4,5,6c2.1-0.4,4.4-0.8,7.2-1.3
			C1345,24.3,1336.3,28.4,1332.3,23.9z M1244,24c-0.3-0.6-0.6-1.1-0.9-1.6c0.9-1.1,1.8-2.1,2.9-3.3c-0.5-0.8-1.1-1.7-1.6-2.6
			c5.5-4.6,11.9-2.8,15.5,4.9C1254.4,22.2,1249.2,23.1,1244,24z M1338.2,81.1c3.6-0.9,6.9-1.7,10.1-2.4c-7.2-6-14.1,0-21,1.1
			c-1.1,1.4-2.3,2.8-3.6,4.5c0,1.3,0,3.1-0.1,6c-1-1.3-1.4-1.8-2-2.6c-2.3,2.3-4.5,4.7-7.3,7.5c-1.8-2.2-3.4-4-5.5-6.5
			c5.6-4.3,10.9-8.3,16.4-12.4c-8.5-5.3-17.4-6.5-28.2-3.3c1.1-4.5,1.9-8,2.6-11.2c-1.8,0.9-4.4,2.1-7.9,3.7c0.7-1.9,1-2.7,1-2.8
			c-3.4-4.1-6.6-7.9-9.7-11.6c-0.3,0.2-0.7,0.4-1,0.6c1.3,2.5,2.6,5.1,3.9,7.6c-2,1.4-3.7,2.5-5.8,3.9c2.4-0.1,4.2-0.2,5.8-0.3
			c-4.2,5.5-8.3,10.8-13,17c0.8-3.4,1.6-6.1,2-8.8c1.2-7.2,0.9-15,3.5-21.7c4.2-10.6-2-17-7-24.1c-1.6-2.3-4.4-3.8-6.8-5.7
			c0.4-8.8-2.4-15.7-11.1-19.7c2.4-0.1,4.8-0.2,6.8-0.3c3.1,3.2,5.8,6,8.6,8.9c0.6-1,1.2-2.1,1.9-3.2c2.1,1,3.6,1.6,5.3,2.4
			c-0.1,1.8,0,3.4-0.3,5c-1.1,6.6,0.2,8.4,6.6,10.4c5.3,1.7,10.6,3.7,17.3,6.1c-5-5-12.1-6.4-10.6-14c-2.2-0.1-4.3-0.3-6.4-0.4
			c0.1-1.4,0.1-2.4,0.2-3.2c2.7-0.1,5.3-0.2,8.1-0.4l-0.1-3.4c2.7-2.3,4.9-4.2,7.2-6.2c0.3,0.2,0.6,0.4,0.8,0.5
			c-1.3,2.5-2.7,5-4,7.5l0.5,0.8c6.8-3.9,13.5-7.8,20.1-11.5c0.7,4.7,1.5,9.5,2.2,14.4c-1.3,0.6-2.4,1.2-3.8,1.8
			c1,0.7,1.9,1.3,3.9,2.6c-3.6,0.8-6.2,1.4-9.9,2.3c2.1,0.6,3.2,0.9,4.5,1.3c-0.8,2.3-1.6,4.6-2.7,7.7c-0.4,0.4-1.5,1.3-4.1,3.6
			c3.3,2.9,6.3,5.6,9.4,8.4c0.8-0.3,1.5-0.7,2.3-1c0.8-3.3,1.5-6.6,2.1-9.4c-0.9-2.7-1.7-4.8-2.4-6.9c0.8-0.3,1.5-0.7,2.3-1
			c1.4,3,2.7,5.9,3.9,8.5c-0.7,2.6-1.2,4.7-2,7.5c2.2-0.1,3.6-0.2,3.9-0.2c4.8,2.3,8.6,4.2,13.1,6.4c4.7,7.1,4.2,15.6,2.4,24.6
			c6-0.3,11.6-0.5,18.3-0.8c8.3,7.6,17.3,15.1,25.3,23.6c2.7,2.8,2.9,7.9,4.5,12.3c-2.3,0.4-4,0.7-5.5,0.9
			c-3.8,4.2-2.6,11.1-8.8,13.9c-1.4-2.7-2.7-5.1-4.1-7.9c0.4-1.6,0.8-3.6,1.3-5.8c1.1-0.5,2.2-1,3.7-1.7c-0.7-1.1-1.4-2.1-2.5-3.7
			c-1.7,1.9-3,3.5-4.7,5.4c-1.1-0.3-2.6-0.8-4.3-1.4c-1,0.9-1.9,1.7-3.1,2.7c-1-1.2-1.8-2.4-2.2-2.8c-4.7-0.5-8.8-1-12.9-1.4
			c0-0.4,0.1-0.9,0.1-1.3c-1,0.4-2,0.8-4.6,1.9c0.3-2.9,0.4-4.9,0.6-6.9c0.3,0.1,0.6,0.1,0.9,0.2
			C1341.3,91.8,1339.9,87.1,1338.2,81.1z M1410,184.5l-18.1,4.1c-15.4-0.5-30.8,0.7-46.5,3.5c0.1-5.1,3.4-7,6.3-7.4
			c8.3-1.2,16.8-1.7,25.2-2.4c4-0.3,8.1-0.9,12.1-0.6c8.6,0.8,17.1,1.8,25.7,2.9L1410,184.5z M1421.8,177c-0.8-0.2-1.6-0.4-2.3-0.5
			c-2.5-4.7,2.1-11.9-4.7-14.6c-2.7-1-6.4,0.6-9.6,1.1c0,0.5,0,1-0.1,1.5c-1.4-1.2-2.9-2.3-4.8-3.8c1.7-1.4,3.1-2.7,4.7-4.1
			c-0.4-0.8-0.9-1.6-1.4-2.5c2-0.1,3.9-0.2,7.8-0.4c-2.8-3.5-4.7-5.9-6.6-8.3c-0.3,0.2-0.5,0.4-0.8,0.6c-0.2-1.1-0.4-2.2-0.7-3.4
			c-1.6-0.2-3-0.4-4.3-0.6c-0.4-0.4-0.9-0.7-0.9-0.9c-0.1-6-1.6-10.9-5.8-15.9c-3.7-4.4,0-9.8,4.5-13.3c-0.4-1.1-0.7-2-1-2.8
			c1.3-1,2.4-1.9,3.5-2.7c1.9,0.6,3.5,1.3,5.3,1.6c5.2,0.9,8.1,4.1,9.7,8.9c1.6,5.3,3,10.7,5.2,15.8c1.4,3.3,4.2,6,6.4,9
			c0.4-0.3,0.9-0.5,1.3-0.8c-0.6-1.7-1.2-3.4-1.8-5.1c5-1.3,5.3,0.9,1.8,13.8c-1,0.5-2.2,1-2.7,1.2
			C1418.7,159.6,1423.1,168.5,1421.8,177z M1440.5,185.1c1.2-0.1,2.4-0.2,3.5,0.1L1440.5,185.1z M1456.2,182.7c-8,0.4-16,0.7-24,1.1
			c0.5,0.6,1.1,0.9,1.6,1.2l-4.9-0.1c-1.2-1.8-2.2-3.2-3.2-4.6c1.3-3,2.4-5.6,3.2-7.6c3.5,0.2,6.2,0.3,9.1,0.5l0.2,5.5
			c3.4,0.2,7.1,0.1,10.7,0.5c2.6,0.3,5.1,0.9,7.6,1.4C1456.4,181.2,1456.3,182,1456.2,182.7z M1446.8,171.7c-0.6,1.7-1,3-1.5,4.4
			c0.1-4.7-6.3-8.7-1.5-13.8c0.3-0.3-0.9-2.2-1.6-3.5c1.9-1,4-2.1,6.2-3.3c-0.2-0.2-0.3-0.3-0.5-0.5c2.8-2.4,5.7-4.8,8.5-7.2
			c0.5,0.3,1,0.7,1.5,1c0.4,3.2,0.8,6.5,1.1,8.7c-2.7,2.7-4.8,5-7.4,7.6c2.7,1.1,4.4,1.8,6.5,2.7c0.7,1.9,1.4,4,2,5.8
			C1454.5,180,1451.3,172.6,1446.8,171.7z M1470.5,118c-3-0.6-5.9-2.1-8.7-3.4c-3-1.4-5.9-2.9-9.4-4.6c-1.7,2-3.2,3.7-5.2,6.1
			c-1-3-1.9-5.6-3-9c-6,2.1-11.2,8.1-18.3,4.5c2.4-1.5,4.8-3,7-4.3c-0.6-7-6.8-4.6-11.8-8.2c1.9-1.5,3.5-2.7,4.9-3.9
			c-1.1-0.2-3-0.6-6.1-1.3c0.9-3.8,1.7-7.4,2.9-12.3c3.1,5.5,5.4,9.6,8.3,14.9c4.7-10.1,12.2-14.1,22.5-15.9
			c-4.2-1.3-4.2-1.3-14.8,3.8c-3.6-5.1-9-6.1-15.2-5.7c-2.1,0.1-4.2-2.1-7.1-3.7c2.5-1.7,3.8-2.6,5.4-3.7c-0.7-1.5-1.4-2.9-2.1-4.3
			c0.8-3.3,1.6-6.4,2.4-9.9c-1.5-0.2-2.5-0.3-3.5-0.4c-0.1-0.5-0.2-1.1-0.3-1.6c6.3-1.4,12.5-2.8,18.7-4.2c0.1,0.4,0.2,0.8,0.3,1.2
			c1.6-1.4,3.1-2.9,4.8-4.4l-0.4-11.8c6-1.6,11.7,0.5,15.3,5.9c5.3,8.2,7.3,9.7,11.7,10.4c1.5-2.3,2.7-4.2,3.9-6.1
			c-1-0.4-1.9-0.7-2.5-0.9c-1.3-4-2.2-6.9-3.3-10.4c0.9-0.6,2.5-1.6,3.8-2.4c5.3,1,4,4.8,4.2,8.2c1.2,0.4,2.4,0.9,3.7,1.4
			c0.7,1.7,1.3,3.4,1.6,4.3c2.9,1.6,5.2,2.9,9,5c-2.9,1.6-4.7,2.2-5.9,3.4c-1.3,1.3-2,3.3-3.5,5.8c-5-2.4-9.6-4.6-14.9-7.2
			c2.8,6.2,5.3,11.9,7.8,17.6c0.2-0.1,0.4-0.2,0.6-0.3c2.6,5.4,5.2,10.9,7.9,16.2c1.2,2.3,2.5,4.7,4.2,6.7c1,1.2,2.9,1.6,4.3,2.4
			c0.5-0.3,1-0.6,1.5-1c-1.1-4.8-2.1-9.7-3.1-14.5c0.3-0.1,0.7-0.2,1-0.3c1.2,4.8,2.4,9.6,3.9,15.5c8.9-0.5,18.5-2,25.9,6.3
			c0.2-0.5,0.4-1,0.7-1.5c-0.3-1.5-0.7-3-1.1-5.1c1.8-0.3,3.3-0.6,5.5-0.9c0.9,4.3,1.8,8.3,2.7,12.4c-0.7,1.4-1.5,3.1-2.4,4.9
			c1.1,1.6,2.2,3,3.6,4.9c-0.3,4.1-0.7,8.4-1,12.8c-0.4,0.1-0.9,0.3-1.3,0.4c-0.9-1-2-1.9-2.6-3c-2.7-4.8-6.5-5.5-11.8-4.7
			c-5.5,0.8-11.2,0.2-16.7-0.4C1486.3,120.7,1478.3,119.5,1470.5,118z M1517.6,177c0,0-0.7,0.9-1.5,2c-2.1-0.1-4.1-0.3-6.3-0.4
			c-0.1-1.6-0.3-3.1-0.4-4.6c1.4-0.7,2.5-1.3,3.8-2c0.8-2.4,1.7-4.9,2.9-8.3c-1.8,1.1-3,1.7-4.7,2.7c-0.9-1-1.7-2-2.8-3.3
			c-0.1,4.8-0.1,9.3-0.2,13.9c-0.2,0-0.4,0-0.6,0l-0.6-16.3c-4.7-3.5-4.7-3.5-13.2-1c-0.3,1.8-0.7,3.8-1.2,6.3
			c1.8,0.3,3.2,0.5,4.8,0.7c0.5-2.1,0.9-3.9,1.3-5.7c0.6,0.1,1.1,0.2,1.7,0.3c0.1,1.2,0.3,2.5,0.5,4.4c-3.6,1.2-7,2.4-10.9,3.7
			l-0.6-16.4c-2.2-0.1-3.8-0.2-5.7-0.3c-0.1,1.6-0.2,2.9-0.3,4.2c-0.4,0-0.8-0.1-1.2-0.2c0.3-2.3,0.6-4.7,0.9-7.5
			c3-0.1,6-0.3,9.6-0.4c0.3-1.2,0.6-2.8,1.4-5.8c4.1-1.6,8.9-3.8,13.9-5c1.3-0.3,3.6,2.1,5,3.6c1.3,1.4,2.1,3.3,3.4,5.6
			c1.7-2,2.7-3.3,3.8-4.5c5.5,0.6,8.3,3.8,9.3,8.8c-2.5-0.1-5.2-0.2-8.4-0.3C1513.1,158.7,1518.8,167.6,1517.6,177z M1534.2,185.4
			c-0.3,0.6-0.7,1.2-1,1.8l-3.7-0.1c1.4-2.1,2.8-4.3,4.2-6.5c0.4,0.1,0.7,0.1,1.1,0.2C1534.7,182.4,1534.9,184.1,1534.2,185.4z
			 M1066.3,10.9c-0.6,0.5-1.2,1.1-2,1.7c4.8-0.2,8.6-0.4,12.7-0.6c0.3-0.9,0.5-1.8,0.8-2.7L1066.3,10.9z M700.4,50.2
			c0.1,0.1,0.3,0.2,0.4,0.3c0.2-0.2,0.4-0.4,0.6-0.5L700.4,50.2z M1066.3,10.9c-0.6,0.5-1.2,1.1-2,1.7c4.8-0.2,8.6-0.4,12.7-0.6
			c0.3-0.9,0.5-1.8,0.8-2.7L1066.3,10.9z M700.4,50.2c0.1,0.1,0.3,0.2,0.4,0.3c0.2-0.2,0.4-0.4,0.6-0.5L700.4,50.2z M1066.3,10.9
			c-0.6,0.5-1.2,1.1-2,1.7c4.8-0.2,8.6-0.4,12.7-0.6c0.3-0.9,0.5-1.8,0.8-2.7L1066.3,10.9z M700.4,50.2c0.1,0.1,0.3,0.2,0.4,0.3
			c0.2-0.2,0.4-0.4,0.6-0.5L700.4,50.2z"/>
		<polygon id="XMLID_29_" class="st2" points="1443.6,341.8 1446.5,456.3 1541.5,554.2 1563.5,551.4 1561.2,385.4 1496.8,342.4 		
			"/>
		<path id="XMLID_25_" class="st2" d="M485.4,34.4l-2.6,0.1C483.8,34.4,484.6,34.4,485.4,34.4z"/>
		<path id="XMLID_23_" class="st2" d="M485.4,34.4l3.9-0.2C488.1,34.3,486.9,34.3,485.4,34.4z"/>
		<path id="XMLID_22_" class="st2" d="M1079.9,217.7c-0.5,1.8-0.9,3.2-1.5,5c-3.7,1.6-7.5,3.3-11.3,5c6.4-0.3,12.7-0.6,19.1-0.8
			c1.1-3.5,2.3-6.9,3.7-11.4C1086.1,216.3,1083,217,1079.9,217.7z"/>
		<path id="XMLID_20_" class="st2" d="M1296,149.6c0.1-0.5,0.3-1,0.4-1.5c-8.5-3.7-17.1-7.5-26.8-11.8c-2.6,4.5-5.1,8.8-7.8,13.7
			c5.8-0.3,10.1-0.7,14.3-0.6c4.2,0.1,8.4,0.6,12.6,1c0,0.3,0,0.6-0.1,0.9C1291.1,150.8,1293.5,150.2,1296,149.6z"/>
		<path id="XMLID_19_" class="st2" d="M1335,192.4c-3.8-3.8-7.5-7.5-11.7-11.8c-2.3,2-3.5,3.1-4.7,4.1c0.3,3.1,0.6,5.9,1,9.7
			c4.9,0.1,9.6,0.1,14.3,0.2C1334.3,193.9,1334.6,193.2,1335,192.4z"/>
		<path id="XMLID_18_" class="st2" d="M1293.1,194.3c-1.9-5.6-6.7-7.5-13.8-6.2c0.2,2.1,0.5,4.3,0.7,6.5c3,1.5,5.6,2.7,9.1,4.5
			C1290.4,197.4,1291.8,195.8,1293.1,194.3z"/>
		<path id="XMLID_12_" class="st2" d="M1202.6,179c0.3,7.8,0.5,14.2,0.8,21.1c2.9,0.4,6.2,0.8,9.5,1.3c7.8-10.1,16.1-19.7,15.2-34.4
			c-1.9-1.1-4.2-2.4-6.6-3.8c-0.5,0.4-0.9,0.9-1.4,1.3c1,2.6,1.9,5.1,2.9,7.7c-0.3,0-0.7-0.1-1-0.1c-1,3-1.9,6-2.9,9
			c0.1,0,0.1,0.1,0.2,0.1c-0.7,2.3-1.3,4.5-2.3,8c-2.9-0.3-6.1-0.7-9.8-1.1c1.2-2.5,1.9-3.8,2.8-5.6
			C1207.9,181.5,1206.1,180.6,1202.6,179z"/>
		<path id="XMLID_11_" class="st2" d="M1456.3,92.4c-2.5,2.2-4.7,4.1-7.7,6.7c1.4,2,3.1,4.4,4.7,6.8c0.2-0.5,0.4-1,0.6-1.4
			c3.7,0.4,7.4,0.9,11.4,1.3c-0.8-1.9-1.6-4.2-2.2-5.7C1460.5,97,1458.3,94.5,1456.3,92.4z"/>
		<path id="XMLID_10_" class="st2" d="M1408,130.6c1.5-1.8,2.4-2.9,3.3-4c-0.2-0.3-0.3-0.7-0.5-1c-4,1-8,2-12.1,3.1
			c1.2,2.5,2.2,4.5,3.5,7.2c2.4,0.4,5.4,0.9,8.9,1.4c1.7-2,3.5-3.9,5.2-5.8c-0.3-0.4-0.5-0.8-0.8-1.2
			C1413.2,130.4,1411,130.5,1408,130.6z"/>
		<line id="XMLID_7_" class="st2" x1="634.5" y1="61.4" x2="624.5" y2="62.7"/>
		<line id="XMLID_6_" class="st2" x1="700.4" y1="50.2" x2="695.7" y2="51.4"/>
		<path id="XMLID_5_" class="st2" d="M704.3,49.2l-2.9,0.7C702.5,49.1,703.4,49,704.3,49.2z"/>
		<line id="XMLID_4_" class="st2" x1="955.3" y1="21.1" x2="954" y2="19.3"/>
		<path id="XMLID_3_" class="st2" d="M1080.1,9.1l-2.4,0.3c0.2-0.7,0.4-1.5,0.6-2.2c0.5,0,1-0.1,1.5-0.1
			C1079.9,7.7,1080,8.4,1080.1,9.1z"/>
		<line id="XMLID_8_" class="st2" x1="1314.1" y1="-8.4" x2="1306.6" y2="-8.1"/>
	</g>
</g>
<g id="XMLID_1437_" class="st1">
	<path id="XMLID_1508_" class="st2" d="M198.1,273.5l30.9,5.9l0,24.4l-2.3,23.8l-99.8,57.7c0.1,0.1,78.2,0.2,78.3,0.3
		c-0.1,0.2-33.3,0.3-33.4,0.4L52.6,420.2l143.9,25.9l-0.6,33.7l20-39.3l27.1-10.2c0,0,0,0,0,0c0-0.2,0.6-0.7,0.8-0.7
		c0.2,0,0.3,0.1,0.5,0.2l2.7-1l52.9-14.6l26.5-7.7l25.6-7.8l19.9-12.5l11-21.8l-8.1-7.5l-4.3-14.4l0-5.4l-68.5,5.1l-16-2.3
		l83.8-11.1l-56.1-12.7c0.1,0.1-0.1-0.1,0,0c-0.9,0.3,8.1-14.9,13.3-19.3c0.2-0.1-17.6,19.4-17.8,19.2l16.3-18.9
		c-0.4,0.3-28.7,3.6-29,3.6c-0.2,0,27.7-3.2,27.5-3.4l-34.6,3.8l-4.8-0.8l1.1-9.8l15.4-3.1c0,0-0.1-0.1-0.1-0.1
		c0.3-0.2,0.5-0.7,0.8-0.7c0.2,0,0.5,0.2,0.8,0.5l66.6-13.4l7.2-35.1l23.3-33.6L317,217l1.4-20.3l82.5-11.9l196-7l1-14.5l-61-106.4
		L204.8,94.6c-0.2,0.2-0.4,0.3-0.6,0.5c-0.2-0.2,13.7-24.9,13.5-25.1L63.1,47.5L52.6,167.8l146.1,98.5c0.5-0.4,1-0.8,1.5-0.9
		c0.4-0.1,1.1,1,1.8,1.8c-0.9,0.7-1.7,1.6-2.1,1.5c-0.5-0.2-0.9-0.7-1.3-1.2l-0.4,5.9 M198,456.2c-0.3,0-0.7-0.5-0.7-0.8
		c0-0.2,0.5-0.7,0.8-0.7c0.3,0,0.6,0.4,1,0.8C198.6,455.9,198.3,456.3,198,456.2z M309.3,303c0.6,0.8,1.1,1.3,1,1.6
		c-0.1,0.4-0.7,0.7-1.1,0.9c-0.2,0.1-0.8-0.5-0.7-0.8C308.5,304.3,308.9,303.9,309.3,303z M302.9,301.1c0.4,0,0.8,0.4,1.6,0.9
		c-0.8,0.5-1.3,1-1.6,1c-0.4-0.1-0.7-0.7-0.8-1.1C302.1,301.7,302.7,301.1,302.9,301.1z M293.4,364.1c-0.3-0.3-0.6-0.7-1-1
		c0.3-0.2,0.6-0.6,0.9-0.6c0.3,0,0.6,0.4,1,0.7C293.9,363.6,293.6,363.8,293.4,364.1z M295.6,320.1c0.4,0.1,0.8,0.5,1.4,0.9
		c-0.6,0.4-1,0.9-1.2,0.8c-0.4-0.2-0.7-0.6-1-1C295.1,320.6,295.4,320.1,295.6,320.1z M290.7,367.8c0.5,1.2,0.8,1.6,0.8,2.1
		c0,0.2-0.6,0.4-0.9,0.6c-0.3-0.4-0.7-0.8-0.7-1.2C289.8,369,290.2,368.6,290.7,367.8z M286.8,361.4c-0.3,0-0.7-0.5-0.7-0.8
		c0-0.3,0.5-0.7,0.8-0.7c0.3,0,0.6,0.5,1,0.8C287.4,361.1,287.1,361.5,286.8,361.4z M289.2,317.4c0.4,0.3,0.8,0.5,0.9,0.8
		c0.1,0.3-0.2,0.7-0.4,1c-0.4-0.2-0.8-0.5-1.2-0.7C288.8,318.1,289,317.8,289.2,317.4z M276.1,149.9c0.3,0,0.5,0.5,0.9,0.8
		c-0.4,0.3-0.9,0.8-1,0.7c-0.4-0.2-0.6-0.6-0.9-1C275.5,150.3,275.8,149.9,276.1,149.9z M272.9,217.4c0,0.3-0.7,0.7-0.8,0.7
		c-0.4-0.2-0.9-0.6-1-1c0-0.3,0.6-0.7,1.2-1.4C272.7,216.5,273,216.9,272.9,217.4z M269.7,222.2c0.5,0,0.9,0.8,1.6,1.5
		c-0.9,0.5-1.6,1-2,0.9c-0.5-0.1-0.7-1-1.1-1.5C268.6,222.9,269.2,222.2,269.7,222.2z M260.1,357.1c0,0.3-0.5,0.7-0.8,0.7
		c-0.2,0-0.7-0.5-0.7-0.8c0-0.3,0.4-0.6,0.8-1C259.8,356.5,260.2,356.9,260.1,357.1z M268.1,229.9c0,0.3-0.5,0.6-1.1,1.3
		c-0.2-0.6-0.6-1-0.5-1.3c0.1-0.4,0.6-0.6,1-0.9C267.7,229.3,268.1,229.6,268.1,229.9z M201.7,138.1c0.4,0.3,0.9,0.7,0.8,0.8
		c-0.2,0.4-0.6,0.7-0.9,1c-0.2-0.3-0.7-0.6-0.7-0.8C201,138.8,201.4,138.5,201.7,138.1z M201,99.5c0-0.2,0.8-0.4,1.1-0.2
		c0.4,0.2,0.5,0.8,1.1,1.6c-1,0.1-1.7,0.3-1.9,0.1C200.9,100.6,200.9,99.9,201,99.5z M260.7,262.8c0.3,0,0.6,0.5,1,0.9
		c-0.5,0.3-0.8,0.7-1.1,0.7c-0.3,0-0.7-0.6-0.7-0.8C259.9,263.2,260.4,262.8,260.7,262.8z M253.4,353.6c0.2,0.3,0.6,0.6,0.6,0.9
		c0,0.3-0.5,0.6-0.8,1c-0.3-0.4-0.8-0.9-0.8-1C252.6,354.2,253,353.9,253.4,353.6z M258.5,232.1c0.6,0.2,1.1,0.9,2,1.7
		c-1,0.5-1.7,1.2-2.1,1.1c-0.6-0.3-1-1.1-1.4-1.7C257.4,232.8,258.1,232,258.5,232.1z M190.7,148.5c0.2,0.1,68.3,48.6,68.5,49.2
		c-0.6,0-1.1,0.2-1.3,0c-0.2-0.2-68.2-48.7-68.3-49.1C189.9,148.6,190.4,148.3,190.7,148.5z M255.8,238.6c0.4,0,1.2,0.8,1.2,1.2
		c0,0.5-0.7,1-1.3,1.8c-0.6-0.8-1.2-1.4-1.1-1.8C254.6,239.4,255.4,238.6,255.8,238.6z M244,357.4c0.4,0.2,0.7,0.6,1,0.9
		c-0.3,0.2-0.6,0.7-0.9,0.7c-0.3,0-0.6-0.4-1-0.8C243.5,357.9,243.9,357.3,244,357.4z M244.8,336.9c0-0.2,0.7-0.8,0.8-0.7
		c0.4,0.2,0.8,0.6,0.9,1c0.1,0.2-0.4,0.5-0.9,1.1C245.2,337.7,244.9,337.3,244.8,336.9z M243.2,378.3c0.3,0.5,0.7,0.8,0.7,1.1
		c0,0.3-0.5,0.7-0.8,0.7c-0.2,0-0.7-0.5-0.7-0.8C242.4,379,242.8,378.7,243.2,378.3z M247.1,330.5c0.2-0.4,1-0.7,1.6-0.8
		c0.2,0,0.8,0.9,0.7,1.2c-0.2,0.5-0.8,0.9-1.5,1.7C247.5,331.5,246.9,330.8,247.1,330.5z M254.2,245.8c-0.5,0.3-0.8,0.7-1.1,0.7
		c-0.3,0-0.7-0.5-0.7-0.8c0-0.3,0.5-0.7,0.8-0.7C253.5,245,253.8,245.5,254.2,245.8z M252.8,209.1c0-0.1,0.8-0.4,1-0.2
		c0.4,0.2,0.5,0.8,1,1.6c-1,0.1-1.6,0.3-1.9,0.1C252.7,210.3,252.7,209.6,252.8,209.1z M252.2,229.4c0.5,0,1,0.9,1.8,1.7
		c-1,0.6-1.7,1.3-2.3,1.2c-0.5-0.1-1.3-1.2-1.2-1.6C250.7,230.1,251.7,229.4,252.2,229.4z M184.4,145.8c0.3,0,0.6,0.5,1,0.8
		c-0.5,0.3-0.8,0.7-1.1,0.7c-0.3,0-0.7-0.5-0.7-0.8C183.7,146.2,184.1,145.8,184.4,145.8z M249.2,235.9c0.7,0,1.3,0.7,2.2,1.2
		c-0.8,0.7-1.4,1.6-1.7,1.5c-0.7-0.2-1.3-0.8-1.7-1.4C248,237,248.8,235.9,249.2,235.9z M247.5,242.6c0.4,0,0.7,0.6,1.3,1.3
		c-0.8,0.3-1.3,0.8-1.7,0.7c-0.4-0.1-0.8-0.8-0.8-1.2C246.4,243.1,247.1,242.6,247.5,242.6z M242,327.1c0.3,0.5,0.7,0.8,0.7,1.1
		c0,0.3-0.5,0.7-0.8,0.7c-0.3,0-0.7-0.5-0.7-0.8C241.2,327.8,241.6,327.6,242,327.1z M244.9,264.7c0.1-0.4,0.5-0.8,1.1-1.5
		c0.4,0.8,0.9,1.4,0.8,1.7c-0.1,0.4-0.7,0.6-1.2,0.7C245.4,265.6,244.8,265,244.9,264.7z M247.1,206c0.4,0.5,0.8,0.9,0.9,1.3
		c0.1,0.2-0.6,0.8-0.7,0.7c-0.4-0.2-0.8-0.5-1-0.9C246.2,207,246.7,206.5,247.1,206z M245.7,226.7c0.5,0.8,1.1,1.3,1,1.6
		c-0.1,0.4-0.7,0.7-1.1,0.9c-0.1,0.1-0.7-0.5-0.7-0.8C244.8,228,245.2,227.6,245.7,226.7z M243.9,233.3c0.5,0,0.9,0.8,1.6,1.5
		c-0.9,0.5-1.6,1.3-1.9,1.1c-0.6-0.3-0.9-1.1-1.4-1.7C242.8,233.9,243.3,233.3,243.9,233.3z M238.3,318.9c0.3,0,0.7,0.5,0.7,0.8
		c0,0.3-0.5,0.6-0.8,1c-0.3-0.5-0.7-0.8-0.7-1.1C237.5,319.3,238,318.9,238.3,318.9z M241.3,255.7c0-0.3,0.4-0.6,0.7-1
		c0.4,0.3,0.6,0.6,0.9,0.8c-0.3,0.3-0.6,0.7-0.9,1C241.7,256.3,241.3,256,241.3,255.7z M240.9,239.6c0.2-0.1,1.4,0.7,1.4,1.1
		c0,0.7-0.7,1.3-1.2,2.2c-0.7-0.8-1.6-1.3-1.5-1.7C239.7,240.6,240.3,240,240.9,239.6z M240.4,262.1c-0.2,0.4-0.7,0.7-1.1,0.9
		c-0.1,0-0.7-0.6-0.7-0.8c0.1-0.4,0.6-0.8,1-1.3C240.1,261.5,240.5,261.9,240.4,262.1z M238.4,246.5c0.3,0.3,0.7,0.6,0.7,0.9
		c0,0.3-0.5,0.6-0.9,1c-0.3-0.5-0.7-0.8-0.7-1.1C237.6,247,238.1,246.8,238.4,246.5z M216.8,353.8c0.3,0,0.6,0.4,1,0.8
		c-0.5,0.3-0.8,0.7-1.1,0.7c-0.3-0.1-0.5-0.5-0.8-0.8C216.2,354.2,216.5,353.8,216.8,353.8z M217.5,332.9c0-0.3,0.5-0.7,0.8-0.7
		c0.2,0,0.7,0.5,0.7,0.8c0,0.3-0.4,0.6-0.8,1C217.8,333.5,217.4,333.2,217.5,332.9z M221,305.9c0-0.3,0.5-0.6,0.9-1
		c0.3,0.5,0.7,0.8,0.7,1.1c0,0.3-0.6,0.7-0.8,0.7C221.5,306.7,221,306.2,221,305.9z M226,256.8c0.4-0.5,1.1-1.1,1.8-1.2
		c0.6-0.1,1.3,0.5,1.9,0.7c-0.3,0.4-0.5,0.7-0.8,1.1c-0.7,0.3-1.3,0.8-2,0.8C226.6,258.2,225.8,257,226,256.8z M226.1,263.5
		c-0.1,0.6-17.1,0.9-17.7,1.4c-0.5-0.6-1.3-1.2-1.3-1.8c0-0.5,0.9-1.1,1.7-1.9C209.5,262.2,226.2,262.9,226.1,263.5z M227.5,235.6
		c0.3-0.2,0.6-0.6,0.9-0.6c0.3,0,0.6,0.4,1,0.7c-0.4,0.4-0.6,0.6-0.9,0.9C228.1,236.3,227.8,235.9,227.5,235.6z M225.6,313.7
		c0.3,0,0.5,0.4,1,0.8c-0.5,0.3-0.8,0.7-1.1,0.7c-0.3,0-0.5-0.5-0.8-0.8C225.1,314.1,225.3,313.7,225.6,313.7z M224.5,334.7
		c0.4,0.2,0.7,0.6,1.2,1.1c-0.6,0.3-1.2,0.8-1.3,0.7c-0.4-0.3-0.7-0.7-0.8-1.2C223.6,335.2,224.4,334.6,224.5,334.7z M230.1,265.8
		c0-0.3,0.6-0.7,1.2-1.5c0.3,0.9,0.6,1.4,0.6,1.8c0,0.3-0.7,0.7-0.8,0.7C230.6,266.6,230.1,266.2,230.1,265.8z M224.2,371.2
		c0.3,0,0.6,0.4,1,0.7c-0.3,0.4-0.7,0.9-0.8,0.8c-0.4-0.2-0.7-0.6-1-0.9C223.7,371.6,223.9,371.2,224.2,371.2z M232,259.5
		c0-0.4,0.7-0.9,1.4-1.8c0.5,1,1,1.5,1,2c0,0.3-0.8,1-1.1,1C232.8,260.5,232.1,260,232,259.5z M226.8,364.9c0.3,0,0.6,0.5,1,0.8
		c-0.5,0.3-0.8,0.7-1.1,0.7c-0.3,0-0.7-0.5-0.7-0.8C226,365.3,226.5,364.9,226.8,364.9z M234.9,253.3c0-0.4,0.4-0.8,0.8-1.6
		c0.5,0.8,1,1.2,1,1.5c-0.1,0.4-0.6,0.7-1.1,0.8C235.5,254.1,234.9,253.6,234.9,253.3z M234.9,274c0.2,0.3,0.6,0.6,0.6,0.9
		c0,0.3-0.5,0.5-0.8,0.9c-0.3-0.4-0.8-0.8-0.7-0.9C234.2,274.6,234.6,274.3,234.9,274z M238.3,232.8c-0.7,0-1.2,0-1.6-0.2
		c-0.2-0.1-0.2-0.7-0.2-1.1c0.5-0.1,1-0.2,1.4-0.2C238,231.5,238.1,232.1,238.3,232.8z M173.4,116.2c0.3,0.8,0.7,1.3,0.6,1.6
		c-0.1,0.4-0.7,0.6-1.1,0.8c-0.3-0.4-0.8-0.8-0.7-1.2C172.2,117.1,172.8,116.8,173.4,116.2z M170.8,122.7c0.1-0.1,0.5,0.5,1,1
		c-0.6,0.3-1,3.6-1.5,3.6c-0.2,0-0.5-3.5-0.7-3.8C170.1,123.2,170.4,122.9,170.8,122.7z M234.8,237.2c0.5,0,0.9,0.7,1.7,1.4
		c-0.9,0.5-1.5,1.2-2,1.1c-0.5-0.1-0.8-0.9-1.2-1.4C233.8,237.9,234.3,237.2,234.8,237.2z M232.2,243.9c0.3,0,0.5,0.4,1,0.8
		c-0.5,0.3-0.8,0.7-1.1,0.7c-0.3,0-0.5-0.5-0.7-0.8C231.6,244.4,231.9,243.9,232.2,243.9z M166.8,114.1c0.4,0.1,0.8,0.5,1.5,1
		c-0.8,0.4-1.3,0.8-1.6,0.7c-0.3-0.1-0.6-0.7-0.7-1.2C166,114.6,166.6,114.1,166.8,114.1z M164.4,119.8c0.3,1,0.6,1.5,0.6,1.9
		c0,0.2-0.6,0.6-0.9,0.5c-0.3,0-0.8-0.5-0.7-0.8C163.5,121,163.9,120.7,164.4,119.8z M209.8,241.3c0.3,0.3,16.7,0.6,16.7,0.9
		c0,0.3-16.5,0.6-16.9,1c-0.3-0.5-0.7-0.8-0.7-1.1C209,241.8,209.5,241.6,209.8,241.3z M207.6,247.6c0.1-0.1,0.6,0.4,1.2,0.8
		c-0.6,0.4-0.9,0.8-1.3,0.9c-0.2,0.1-0.8-0.6-0.8-0.7C206.9,248.2,207.2,247.8,207.6,247.6z M206.6,268.2c0.6-0.1,1.3,0.5,1.9,0.7
		c-0.3,0.4-0.5,0.7-0.8,1.1c-0.7,0.3-1.3,0.8-2,0.8c-0.4,0-1.1-1.3-0.9-1.5C205.2,268.9,205.9,268.3,206.6,268.2z M204.7,255.6
		c-0.1,0-0.7-0.6-0.7-0.8c0.1-0.4,0.6-0.8,1-1.3c0.4,0.6,0.8,1.1,0.7,1.3C205.6,255.1,205.2,255.5,204.7,255.6z M223.5,211.3
		c0.3,0,0.6,0.4,1,0.8c-0.5,0.3-0.8,0.7-1.1,0.7c-0.3,0-0.7-0.5-0.7-0.8C222.7,211.7,223.2,211.3,223.5,211.3z M221.9,232.2
		c0.4,0.3,0.9,0.7,0.8,0.8c-0.2,0.4-0.6,0.7-0.9,1c-0.2-0.3-0.6-0.6-0.7-0.8C221.2,232.9,221.6,232.6,221.9,232.2z M201.2,246.8
		c-0.4-0.1-0.7-0.7-0.8-1.1c0-0.2,0.5-0.7,0.8-0.7c0.4,0,0.8,0.4,1.6,0.9C202,246.3,201.5,246.9,201.2,246.8z M202,262
		c-0.4,0-1.1-1.3-0.9-1.5c0.4-0.6,1.1-1.1,1.8-1.2c0.6-0.1,1.3,0.5,1.9,0.8c-0.3,0.4-0.5,0.7-0.8,1.1C203.3,261.5,202.6,262,202,262
		z M206.7,380.2c-0.3,0-0.7-0.5-0.7-0.8c0-0.3,0.5-0.7,0.8-0.7c0.3,0,0.6,0.5,1,0.8C207.3,379.9,207,380.2,206.7,380.2z
		 M210.8,352.8c-0.3,0-0.7-0.5-0.7-0.8c0-0.3,0.5-0.6,0.9-1c0.3,0.5,0.7,0.8,0.7,1.1C211.6,352.4,211,352.8,210.8,352.8z
		 M213.7,324.5c0.3-0.2,0.6-0.7,0.9-0.7c0.3,0,0.5,0.5,1,0.8c-0.5,0.3-0.8,0.7-1.1,0.6C214.1,325.2,213.9,324.8,213.7,324.5z
		 M206.5,452.8c-0.3-0.5-0.7-0.8-0.7-1.1c0-0.3,0.5-0.7,0.8-0.7c0.3,0,0.7,0.5,0.7,0.8C207.4,452.1,206.9,452.4,206.5,452.8z
		 M202.7,275.8c0.3-0.3,0.6-0.7,0.9-0.7c0.3,0,0.6,0.4,1,0.8c-0.5,0.3-0.8,0.8-1.1,0.7C203.2,276.6,203,276.1,202.7,275.8z
		 M214.7,359.7c0.3,0,0.6,0.4,1,0.8c-0.5,0.3-0.8,0.7-1.1,0.7c-0.3-0.1-0.5-0.5-0.8-0.8C214.1,360.1,214.4,359.7,214.7,359.7z
		 M208.6,446.1c-0.2-0.1-0.1-0.7-0.2-1.1c0.5-0.1,1-0.2,1.4-0.1c0.2,0,0.2,0.7,0.5,1.4C209.5,446.2,209,446.3,208.6,446.1z
		 M212.7,418.7c-0.3,0-0.7-0.5-0.7-0.8c0-0.3,0.5-0.7,0.8-0.7c0.3,0,0.6,0.5,1,0.8C213.3,418.4,213,418.8,212.7,418.7z M219.9,326.9
		c-0.1-0.1,0.5-0.7,0.8-0.7c0.4,0,0.8,0.4,1.6,0.8c-0.8,0.5-1.2,1.1-1.6,1C220.3,327.9,220,327.3,219.9,326.9z M219.6,363.2
		c0.1-0.4,0.5-0.8,0.9-1.3c0.4,0.6,0.9,1,0.8,1.2c-0.2,0.4-0.6,0.7-1,1C220.1,363.7,219.6,363.3,219.6,363.2z M217.8,406.6
		c-0.2,0-0.8-0.7-0.7-0.8c0.2-0.4,0.6-0.8,1-0.9c0.2-0.1,0.6,0.4,1.1,0.9C218.6,406.2,218.2,406.5,217.8,406.6z M222,379
		c-0.3,0-0.5-0.5-0.8-0.8c0.3-0.2,0.6-0.7,0.9-0.7c0.3,0,0.5,0.4,1,0.8C222.6,378.7,222.3,379.1,222,379z M221.6,415
		c-0.3,0-0.7-0.5-0.7-0.8c0-0.3,0.5-0.7,0.8-0.7c0.3,0,0.6,0.5,1,0.8C222.2,414.7,221.9,415.1,221.6,415z M224.5,386.7
		c0-0.3,0.5-0.6,0.8-1c0.3,0.5,0.7,0.8,0.7,1.1c0,0.3-0.5,0.7-0.8,0.7C225,387.6,224.5,387,224.5,386.7z M224.1,408.8
		c-0.3,0-0.7-0.7-0.7-0.8c0.2-0.4,0.6-0.9,1-1c0.3,0,0.7,0.6,1.4,1.2C224.9,408.5,224.5,408.8,224.1,408.8z M231.8,317.9
		c-0.4-0.3-0.6-0.7-0.8-1.2c0-0.1,0.7-0.7,0.8-0.6c0.4,0.2,0.7,0.6,1.2,1.1C232.4,317.6,231.9,318,231.8,317.9z M236.1,268.2
		c0-0.2,0.5-0.5,0.8-0.7c0.3,0.4,0.7,0.7,0.8,1.1c0.1,0.2-0.5,0.5-1,1C236.4,269.1,236.1,268.6,236.1,268.2z M228.7,397.1
		c-0.2-0.6-0.5-1-0.4-1.3c0.2-0.4,0.6-0.6,1-0.9c0.2,0.3,0.6,0.6,0.6,0.9C229.8,396.1,229.4,396.4,228.7,397.1z M234.7,326.2
		c0-0.4,0.3-0.8,0.7-1.7c0.6,0.7,1.1,1.1,1.1,1.5c0,0.4-0.6,0.7-1,0.9C235.3,327,234.7,326.4,234.7,326.2z M233.2,367.5
		c0.3,0,0.5,0.5,1,0.8c-0.5,0.3-0.8,0.7-1.1,0.6c-0.3-0.1-0.5-0.5-0.8-0.8C232.6,368,232.9,367.5,233.2,367.5z M230.5,411.4
		c-0.2,0-0.8-0.6-0.7-0.7c0.2-0.4,0.6-0.8,1-0.9c0.1-0.1,0.5,0.4,1.1,0.9C231.3,411,230.9,411.3,230.5,411.4z M232.7,404.9
		c-0.3,0-0.7-0.5-0.7-0.8c0-0.3,0.5-0.7,0.8-0.7c0.3,0,0.6,0.5,1,0.8C233.4,404.6,233,405,232.7,404.9z M243.9,249.7
		c0.2-0.4,0.6-0.8,1-1.1c0.1-0.1,0.6,0.4,1.2,0.9c-0.6,0.4-0.9,0.8-1.3,0.9C244.4,250.4,243.8,249.7,243.9,249.7z M234.5,398.4
		c0.2-0.4,0.6-0.8,1-0.9c0.2-0.1,0.5,0.4,1.1,0.9c-0.6,0.4-1,0.7-1.4,0.8C235,399.2,234.5,398.5,234.5,398.4z M234.3,420.2
		c-0.3,0-0.7-0.5-0.7-0.8c0-0.3,0.5-0.7,0.8-0.7c0.3,0,0.6,0.5,1,0.8C234.9,419.9,234.5,420.3,234.3,420.2z M239.3,371.6
		c-0.2-0.3-0.7-0.6-0.7-0.9c0-0.3,0.4-0.6,0.8-1c0.3,0.5,0.8,0.8,0.7,1.1C240.1,371.2,239.6,371.4,239.3,371.6z M243.7,322.2
		c0-0.3,0.5-0.6,0.8-1c0.3,0.5,0.7,0.8,0.7,1.1c0,0.3-0.5,0.7-0.8,0.7C244.1,323,243.7,322.5,243.7,322.2z M242,363.5
		c0.4,0.3,0.9,0.7,0.8,0.8c-0.2,0.4-0.6,0.7-0.9,1c-0.2-0.3-0.7-0.6-0.7-0.8C241.2,364.2,241.6,363.9,242,363.5z M239.8,385.6
		c0-0.3,0.4-0.6,0.7-1c0.4,0.3,0.9,0.7,0.8,0.8c-0.2,0.4-0.6,0.7-0.9,1C240.2,386.2,239.8,385.9,239.8,385.6z M237.7,428.5
		c-0.2-0.2-0.2-0.7-0.3-1.1c0.4-0.1,0.8-0.3,1.1-0.1c0.2,0.1,0.3,0.6,0.5,1.2C238.4,428.5,237.9,428.7,237.7,428.5z M240.1,422.8
		c-0.2-0.3-0.6-0.5-0.7-0.8c0-0.3,0.4-0.6,0.6-1c0.4,0.3,0.7,0.6,1,0.8C240.7,422.2,240.4,422.5,240.1,422.8z M246,351.8
		c0-0.3,0.5-0.7,0.8-0.7c0.3,0,0.6,0.5,1,0.9c-0.5,0.3-0.8,0.7-1.1,0.7C246.4,352.6,246,352.1,246,351.8z M244.5,395.4
		c-0.3-0.3-0.7-0.6-1-0.9c0.3-0.2,0.6-0.6,0.9-0.7c0.3,0,0.6,0.4,1,0.7C245,394.8,244.7,395.1,244.5,395.4z M251,325.2
		c-0.4-0.3-0.6-0.7-0.9-1c0.3-0.2,0.6-0.6,0.9-0.6c0.3,0,0.5,0.5,0.9,0.8C251.5,324.8,251,325.3,251,325.2z M249.6,360.9
		c0.1-0.4,0.5-0.8,0.9-1.4c0.4,0.6,0.9,1,0.8,1.2c-0.2,0.4-0.6,0.7-1,1C250.1,361.4,249.6,361.1,249.6,360.9z M247.9,403.9
		c-0.2,0-0.5-0.5-0.8-0.8c0.4-0.3,0.7-0.7,1.1-0.9c0.1-0.1,0.5,0.5,1.1,0.9C248.7,403.5,248.3,403.9,247.9,403.9z M250.5,398.1
		c-0.3-0.1-0.6-0.7-0.7-1.1c0-0.2,0.6-0.7,0.8-0.6c0.4,0.1,0.8,0.5,1.5,1C251.3,397.7,250.8,398.2,250.5,398.1z M252.9,392.3
		c-0.5-0.7-1.1-1.1-1-1.4c0-0.4,0.6-0.7,0.9-1.1c0.4,0.3,0.9,0.6,1,1C253.8,391.1,253.3,391.6,252.9,392.3z M254.1,370.5
		c-0.3,0-0.7-0.6-0.7-0.8c0-0.3,0.5-0.7,0.8-0.7c0.3,0,0.6,0.5,1,0.9C254.8,370.1,254.4,370.5,254.1,370.5z M263.8,236.3
		c0.2-0.4,0.5-1,0.9-1c0.3-0.1,0.7,0.5,1.5,1c-0.8,0.4-1.2,0.7-1.7,0.8C264.3,237,263.8,236.4,263.8,236.3z M254.3,406.4
		c-0.2-0.3-0.7-0.6-0.7-0.9c0-0.3,0.4-0.5,0.8-1c0.3,0.5,0.7,0.8,0.7,1.1C255,406,254.6,406.2,254.3,406.4z M256.4,400.1
		c-0.3,0-0.7-0.6-0.7-0.8c0-0.3,0.5-0.7,0.8-0.7c0.3,0,0.6,0.5,1,0.9C257.1,399.7,256.7,400.1,256.4,400.1z M264.8,287.3
		c0-0.3,0.5-0.6,0.8-1c0.3,0.5,0.7,0.8,0.7,1.1c0,0.3-0.5,0.7-0.8,0.7C265.2,288,264.8,287.6,264.8,287.3z M260.7,371.1
		c0.2,0.3,0.7,0.6,0.7,0.9c0,0.3-0.4,0.6-0.8,1c-0.3-0.5-0.7-0.8-0.7-1.1C259.9,371.5,260.4,371.3,260.7,371.1z M258.4,393.4
		c0-0.3,0.5-0.6,0.8-1c0.3,0.5,0.7,0.8,0.7,1.1c0,0.3-0.5,0.7-0.8,0.7C258.8,394.2,258.4,393.7,258.4,393.4z M257.8,415.3
		c-0.2-0.4-0.2-0.9-0.3-1.3c0.4,0,0.8-0.2,1.1,0c0.2,0.2,0.3,0.6,0.4,1.1C258.4,415.2,257.8,415.4,257.8,415.3z M264.2,345.2
		c-0.3,0-0.7-0.5-0.7-0.8c0-0.3,0.5-0.6,0.8-1c0.3,0.5,0.7,0.8,0.7,1.1C264.9,344.8,264.4,345.2,264.2,345.2z M276,190.7
		c-0.3-0.5-0.7-0.8-0.7-1.1c0-0.3,0.6-0.7,0.8-0.7c0.3,0,0.7,0.5,0.7,0.8C276.9,190,276.4,190.3,276,190.7z M277.5,183.3
		c0-0.3,0.4-0.6,0.8-1c0.3,0.5,0.7,0.8,0.7,1.1c0,0.3-0.5,0.7-0.8,0.7C277.9,184.1,277.5,183.6,277.5,183.3z M274,247.2
		c0-0.3,0.5-0.7,0.8-0.7c0.3,0,0.6,0.5,1,0.8c-0.5,0.3-0.8,0.7-1.1,0.7C274.4,247.9,274,247.4,274,247.2z M269.3,333.1
		c-0.2,0-0.8-0.6-0.8-0.8c0.2-0.4,0.6-0.8,1-1c0.1-0.1,0.6,0.4,1.2,0.9C270.1,332.6,269.7,333,269.3,333.1z M275.9,313.2
		c0.3-0.3,0.6-0.7,0.9-0.7c0.3,0,0.6,0.5,1,0.9c-0.5,0.3-0.8,0.7-1.1,0.7C276.4,313.9,276.2,313.4,275.9,313.2z M274.9,334.8
		c0-0.3,0.4-0.6,0.7-1c0.4,0.3,0.9,0.7,0.8,0.8c-0.2,0.4-0.6,0.7-0.9,1C275.3,335.3,274.9,335.1,274.9,334.8z M270.3,420.1
		c-0.3,0-0.7-0.5-0.7-0.8c0-0.3,0.5-0.6,0.9-1c0.3,0.5,0.7,0.8,0.7,1.1C271.1,419.7,270.6,420.1,270.3,420.1z M286.5,215.8
		c0.3-0.2,0.6-0.6,0.9-0.6c0.3,0,0.6,0.4,1.3,1.1c-0.6,0.2-1,0.6-1.3,0.5C287,216.6,286.8,216.2,286.5,215.8z M282.6,279.8
		c0-0.3,0.4-0.6,0.8-1c0.3,0.4,0.8,0.8,0.8,0.9c-0.2,0.4-0.6,0.7-0.9,1C283,280.4,282.6,280.1,282.6,279.8z M276.4,386.7
		c-0.2,0-0.7-0.5-0.7-0.8c0-0.3,0.4-0.6,0.8-1c0.3,0.5,0.7,0.8,0.7,1.1C277.2,386.3,276.7,386.7,276.4,386.7z M318.1,263.9
		c0.4,0.3,0.9,0.7,0.9,0.8c-0.2,0.4-0.5,0.7-0.8,1c-0.3-0.3-0.7-0.5-0.7-0.8C317.4,264.7,317.8,264.3,318.1,263.9z M325.6,172.6
		c0.4,0.3,0.9,0.7,0.9,0.8c-0.2,0.4-0.6,0.7-0.9,1c-0.2-0.3-0.7-0.5-0.7-0.8C324.9,173.3,325.3,173,325.6,172.6z M297.1,262.7
		c0.3,0.3,0.7,0.6,0.7,0.9c0,0.3-0.5,0.6-0.9,1c-0.3-0.5-0.7-0.8-0.7-1.1C296.3,263.1,296.8,262.9,297.1,262.7z M297.1,155.4
		c-0.3,0-0.5-0.5-0.8-0.8c0.3-0.2,0.6-0.7,0.9-0.7c0.3,0,0.5,0.4,1,0.8C297.7,155.1,297.4,155.5,297.1,155.4z M291.9,276.9
		c-0.4-0.1-0.6-0.6-0.9-0.9c0.3-0.2,0.6-0.6,0.9-0.6c0.3,0,0.6,0.4,1.3,1.1C292.6,276.6,292.2,277,291.9,276.9z M293.6,269.9
		c0.2-0.4,0.6-0.8,1-0.9c0.2-0.1,0.6,0.4,1.1,0.9c-0.6,0.4-1,0.7-1.4,0.8C294.1,270.7,293.5,269.9,293.6,269.9z M295.4,285.5
		c-0.3-0.1-0.6-0.7-0.7-1.2c0-0.2,0.6-0.7,0.8-0.6c0.4,0.1,0.8,0.5,1.6,1C296.3,285.1,295.8,285.6,295.4,285.5z M298.5,279.5
		c-0.6-0.1-1.4-0.6-1.5-1.1c-0.1-0.4,0.6-1.1,1.2-2c0.6,0.9,1.2,1.4,1.3,1.9C299.5,278.7,298.7,279.5,298.5,279.5z M304.8,209.3
		c-0.4-0.3-0.6-0.7-0.9-1c0.3-0.2,0.6-0.6,0.9-0.6c0.3,0,0.5,0.5,0.9,0.8C305.4,208.9,304.9,209.4,304.8,209.3z M307.6,181
		c0-0.3,0.5-0.6,0.9-1c0.3,0.5,0.7,0.8,0.7,1.1c0,0.3-0.6,0.7-0.8,0.7C308,181.8,307.6,181.3,307.6,181z M305.8,224.1
		c-0.3,0-0.7-0.5-0.7-0.8c0-0.3,0.5-0.7,0.8-0.7c0.3,0,0.6,0.5,1,0.8C306.4,223.7,306.1,224.1,305.8,224.1z M307.6,217.3
		c-0.1-0.1,0.5-0.7,0.8-0.7c0.4,0,0.8,0.4,1.6,0.8c-0.8,0.5-1.2,1-1.5,1C308,218.3,307.7,217.7,307.6,217.3z M304.2,281.7
		c-0.2,0-0.4-0.6-0.6-0.9c0.4-0.3,0.8-0.6,1.2-0.7c0.3,0,0.7,0.4,1.5,0.8C305.1,281.4,304.7,281.7,304.2,281.7z M312.3,226.7
		c-0.3-0.3-0.6-0.7-0.9-1c0.3-0.2,0.6-0.6,0.9-0.6c0.3,0,0.6,0.4,0.9,0.7C312.9,226.2,312.6,226.5,312.3,226.7z M313.8,220.3
		c0-0.4,0.3-0.9,0.7-1.8c0.6,0.8,1.2,1.2,1.2,1.5c-0.1,0.4-0.6,0.8-1,1C314.5,221.1,313.8,220.5,313.8,220.3z M311.1,284.2
		c-0.4-0.2-0.7-0.5-1.1-0.8c0.3-0.2,0.5-0.7,0.8-0.7c0.3,0,0.6,0.4,1,0.7C311.5,283.7,311.2,284.3,311.1,284.2z M319.9,171.9
		c-0.4-0.2-0.7-0.7-0.9-1.1c0-0.1,0.6-0.7,0.8-0.7c0.4,0.1,0.7,0.5,1.3,1C320.5,171.5,320,172,319.9,171.9z"/>
</g>
</svg>
