<?xml version="1.0" encoding="utf-8"?>
<!-- Generator: Adobe Illustrator 18.0.0, SVG Export Plug-In . SVG Version: 6.00 Build 0)  -->
<!DOCTYPE svg PUBLIC "-//W3C//DTD SVG 1.1//EN" "http://www.w3.org/Graphics/SVG/1.1/DTD/svg11.dtd">
<svg version="1.1" id="Layer_1" xmlns="http://www.w3.org/2000/svg" xmlns:xlink="http://www.w3.org/1999/xlink" x="0px" y="0px"
	 viewBox="521 -0.5 877.3 1081.1" enable-background="new 521 -0.5 877.3 1081.1" xml:space="preserve">
<g>
	<g>
		<path fill="#FFDD00" d="M735.7,362.4c0,0,15.5-1.4,21.3-4l39-17.9l33.1-7.5l51.9-11.7l16-10l20.7-57.7l-13.7-16.9l-9.5-50.1
			l4.8-8.5l-1.6-36.1l1.3-51.5l23.4-34.8l40.6-19.5l88.2-26l52.7,11.1l31.5,20.5l17.4,39.5l5.7,24.4l4,12.6l-3.5,21.3l-1.3,6l1,2.2
			l-1.5,6.1l0.5,5l-0.6,16.9l0.9,6.3l-3.1,10.4l-2.2,4.6l2.5,5c0,0,5.2,11,5.3,18.8l-4.3,16.7c0,0-6.9,25.6-7.1,33.8l3.2,16.6
			l0.5,15.2c0,0-4,8.8-4.7,11.7s-4.9,22.3-4.9,22.3s-4.8,12.6-10.5,15.8c-5.7,3.2-55.3,11.5-55.3,11.5l-9.2,5.2c0,0-6,20.4-7.1,25.7
			c-1.1,5.4-4.7,13-4.7,13l28.4,15.8c0,0,18,15.9,24,30.7l14.3,29.2l5,17.8c0,0,10.9-0.2,15.4,1.5c4.5,1.7,21.6,7.7,21.6,7.7
			l-8.5-41.5l14.8-54.4c0,0,3-8.5,13.1-11c10.1-2.4,21.8-3.2,21.8-3.2l6.2,0c0,0,5.4-8.4,8-13.1c2.6-4.7,2.7-10.4,2.7-10.4
			s6.7-6.2,11.1-8.3c4.4-2.1,13.1-1.5,13.1-1.5l19,3.4c0,0,44.5,28.1,60.6,44.3l44.6,44.7l23.1,34.1l3.7,15.1l-2.1,15L1370,563
			l-23.8,22l-2,5.5l-40.2,56.2l4.3,3.6l2,7.3l-18.8,20.3l-24.1,16.8l-42.2,48.9l-16.6-3.3l-92.9,78.2l-34.1,20.2l-1.9,32.6l0.1,13.3
			l-5.5,27.4l5.5,11.5l7.3,30.3l27.8,40.5l-422,62.1l9.6-96.4l18.4-120.4l-4.6-57.2l-30.5-52.5l-110.9-17.9l-42.1-60.3l11.5-25
			l59.4-89.9l46.7-47.2l5.2-64.9l23.6-39.6L735.7,362.4z"/>
	</g>
	<g>
		<polygon fill="#FFDD00" points="777.6,859.9 791.7,904.9 811.2,928.1 851.7,933.3 903.2,929.4 1006.2,921.7 1038.2,903.3 
			1074,843.5 1059.9,832 878.8,864.8 		"/>
	</g>
	<g>
		<g>
			<path fill="#00ADBB" d="M899.4,427.2l-46.8-14.9L838,390.6L804,378.5l-21.4,3.1l30,16.5l5.9,46.6c0,0-13.3,25.7-31.6,36.9
				l-14.4,11.6l37.1,6.9l25.1-10.3l0.2,46.5l44.5,18.1l12.7-3.8l11.6-11.2l32.9-15.3c0,0-20.2-8.4-34.8-30L891,447.4L899.4,427.2z"
				/>
		</g>
		<g>
			<path fill="#00ADBB" d="M1055.5,216.6l-4.6,7.8l9.1,10.5c0,0,4.3,6.5,4.6,21.6l0.6,13.7l-9.3,15.4l-1.7-9.4l-1-4.1
				c0,0-3.8,3.1-5.3,9.7l-1.7,12.4l11.2,27.6l7.5,2.5c0,0,5,12.1,9.2,14.3l16.1,2.6l6.3-0.6l7,6.4l-47.2,20.5l-29.9-16.6l-22-66.9
				l8.1-66l19.7-13.9L1055.5,216.6z"/>
		</g>
		<g>
			<polygon fill="#00ADBB" points="1027.9,209.3 1040.7,219.3 1061.2,219 1070.6,208 1069.6,203.2 1062.8,208 1052.9,206 			"/>
		</g>
		<g>
			<polygon fill="#00ADBB" points="1037.2,191.8 1034.4,202.2 1048.4,206.8 1051,205 1054.5,193.5 			"/>
		</g>
		<g>
			<polygon fill="#00ADBB" points="1096.1,166.5 1093.5,145.5 1108,169 1107.3,181.3 1104.1,186 1104.9,194.1 1114.4,213.2 
				1116.4,228.6 1112.9,234.1 1105.1,223.1 1103.8,225.2 1108.8,236.8 1099.6,248.1 1094.3,248 1099.9,237.2 1095.3,218.9 
				1086.3,222.6 1087.6,202 			"/>
		</g>
		<g>
			<polygon fill="#00ADBB" points="1144,195.3 1135.9,197.9 1127.6,193.5 1122.9,188.9 1119,191.6 1117.5,194.5 1117.6,198 
				1126.1,213.9 1131.5,223.3 1130.8,218.4 1126.7,206.6 1132.8,209.1 1130.7,205.1 1124.7,196.5 1137.8,204.5 			"/>
		</g>
		<g>
			<polygon fill="#00ADBB" points="1041.3,145 1062.6,131.7 1094.3,125.8 1106.1,126.2 1093.3,122.2 1078.9,122.6 1060.6,125.5 
				1051,119.2 1057.4,115.6 1050.3,109.5 1071.7,103.9 1060.1,90.6 1050.9,72 1054.2,46.4 1025.7,63.8 1008.1,93.7 1007.8,125.9 
				1016.4,151.4 1033.1,152.5 			"/>
		</g>
		<g>
			<path fill="#00ADBB" d="M1066.5,105c1-0.5,5.9,11.2,5.9,11.2l7.7-1.1l11.8-9.6l4.4-8.8l22.2-1.5l10.6,4.5l4.8,1.1l-1.1-2.7
				l-7.8-2.4l-20.4-3.1l-14.6-2.5l-19.1,5.7l-14.9-6.7L1066.5,105z"/>
		</g>
		<g>
			<polygon fill="#00ADBB" points="1106.1,139.4 1112.7,142.7 1116.3,152.9 1115.5,166.5 			"/>
		</g>
		<g>
			<polygon fill="#00ADBB" points="1097.7,132.8 1074,136.7 1061.2,141.7 1060.9,144.3 1051.4,152.1 1040.2,143.8 1051.6,136.7 
				1070.3,133.3 			"/>
		</g>
		<g>
			<polygon fill="#00ADBB" points="1123,135.8 1139.7,140.2 1146.5,147.7 1144.7,152.2 1131.5,149.6 1129.7,140.2 			"/>
		</g>
		<g>
			<path fill="#00ADBB" d="M1135.4,130.5c0,0,7.9-0.6,11.7-3.7l-3.6-1.8l-17-2.7l-17.7-0.4l11.6,4L1135.4,130.5z"/>
		</g>
		<g>
			<path fill="#00ADBB" d="M1133.8,233.3c0,0,8.3,16.7,11.9,28.5l4,24.1c0,0-6,10.9-5.1,23.4l-4.2-11.5l-6.3-8.7l-6.1-9.8l-4-3.3
				l7.5,2.5l3.3-1.9l-5.8-5.6l-6.3,0.6l-4.4-13.2l9.2-2.8l4.9-12.5L1133.8,233.3z"/>
		</g>
		<g>
			<path fill="#00ADBB" d="M1098.9,250.1l4.8,10.7l6.8,9.7l2.6,2.8l-11.5,2l-15.7,4.8l-13.6,6.6l-2.3,6.4l16.7-2.8l6.9,3.6
				c0,0,7.4,4.3,13.8,4l-8.2,2.6c0,0-12,0.7-18.6-0.8l-12.2-2.8l-3.8-4.1l-3.4,3.7l-1.9-15.4l7-15.3l-0.4,18.9l3.9-2.4l4.5-12.8
				l8.6-7L1098.9,250.1z"/>
		</g>
		<g>
			<polygon fill="#00ADBB" points="933.1,184.5 923.3,178.6 908.3,174.6 898.6,186.1 896.8,196.9 899.9,216.6 902.3,222.8 
				902.1,230.3 908.7,245.2 921.8,255.4 934.1,247 939.2,239.2 936.3,222.8 938.2,212.8 943.7,210.3 			"/>
		</g>
		<g>
			<polygon fill="#00ADBB" points="1110.2,89.4 1113.7,84.4 1105.1,63.4 1095.2,57.2 1097.7,61.4 1088.9,56.5 1086.9,60.3 
				1079.6,47.9 1065.4,64.7 1061.9,64.7 1060.9,51.8 1057.6,48.7 1051.7,53.2 1048,41.4 1075.5,40.9 1088.2,46.8 1107.8,52.7 
				1118.7,68.2 1131.1,83.5 1122.8,85.2 			"/>
		</g>
		<g>
			<polygon fill="#00ADBB" points="1141.1,157.2 1151.9,155.1 1155.5,159.2 1157.4,152.9 1158.9,163.1 1153,168.8 1144.3,161.4 			
				"/>
		</g>
		<g>
			<polygon fill="#00ADBB" points="1121.9,181.2 1120.8,187.4 1125.4,185.7 1129.3,180.9 			"/>
		</g>
		<g>
			<path fill="#00ADBB" d="M1145.7,179.3l2.1,7.3l-1.5,7c0,0,0.7,2.4,1.2,2c0.5-0.4,7.1-8.4,7.1-8.4l2.4-10l-2.9-1.7L1145.7,179.3z"
				/>
		</g>
		<g>
			<polygon fill="#00ADBB" points="1056.1,179.2 1048.6,186.7 1045,193.3 1036.3,190.3 1041.7,178.4 			"/>
		</g>
		<g>
			<polygon fill="#00ADBB" points="1133.4,182 1128.1,189.2 1127.6,193.5 1120.7,190.3 1129.3,180.9 			"/>
		</g>
		<g>
			<path fill="#00ADBB" d="M1078.9,312.6l-5.3,7.5l-5,2.2c0,0,10.3,1.1,16,6.2l4.7-3.8c0,0,20.8-5.4,34.2-0.2l5-9.4l7.5,0.4l-8-6.5
				l-9.3-3.8l-18.6,0.7l-2.5,2.6l-7.6,1.6l-4.2,1.8L1078.9,312.6z"/>
		</g>
		<g>
			<path fill="#00ADBB" d="M683.2,497.9c0,0,23.4,1.9,39.4,10.9c15.9,9.1,32.7,18.7,32.7,18.7l-11.6-28.2c0,0-7.4-53,4.6-90l39.1-25
				l22.9-4.1l-45.5-9.3l-34.1,7.5l-34.2,17.1l-19.2,41.6L683.2,497.9z"/>
		</g>
		<g>
			<polygon fill="#00ADBB" points="942.1,839.6 923.2,801.6 938.5,776.6 959.9,773.4 955.7,744.6 965.8,716.5 904,729.4 
				826.7,784.5 842.1,837.3 877.2,843.5 			"/>
		</g>
		<g>
			<polygon fill="#00ADBB" points="976.5,705.4 984.4,727.1 970,784.3 975.6,802.4 967.2,836 988.7,833.7 995.5,795.7 1006.7,775.1 
				1008.4,748.2 1018.3,757.2 1042.9,744.1 1020.7,709.4 			"/>
		</g>
		<g>
			<path fill="#00ADBB" d="M1054.4,497.1l31.9-1.1l12.4,1.7c0,0-0.6-18.4-8.6-34.3l-29.3-22.4l-15.8-5.5l-12.2,16l9.4,22.8
				L1054.4,497.1z"/>
		</g>
		<g>
			<path fill="#00ADBB" d="M663.7,512.7l-17.2,24.9l-0.1,31.4l19.1,20c0,0,8,2.6,18,5.9c10,3.3,39.1,1.4,39.1,1.4l11.3-4l8.7-8.4
				L718.5,562c0,0-7.7-29.7,0.3-49.9l-37.2-4.5L663.7,512.7z"/>
		</g>
		<g>
			<path fill="#00ADBB" d="M722.7,643.4l3.8-18l3.2-14.4l-13.8,8.1l-43.6,3.9c0,0-14.9-4.6-27.8-10.1c-12.9-5.6-23-11.2-31.3-12.1
				l-45,18.7l0.7,7.4l17.8,2.4l12.9,20.2l76.6,24.3L722.7,643.4z"/>
		</g>
		<g>
			<path fill="#00ADBB" d="M599.5,621.3l-40.4,64.3l-31.3,0.3c0,0-6.4-8.5-6.8-11.5l2.3-9.9l14.4-29l4.6,3.6l25.9-19.7L599.5,621.3z
				"/>
		</g>
		<g>
			<polygon fill="#00ADBB" points="1085.3,801.2 1081.3,769.1 1078.4,749.6 1111.7,738.9 1149.5,709.9 1176.5,685.3 1179.3,709.1 
				1187.8,728.5 1193.3,736.9 1105.9,786.1 			"/>
		</g>
		<g>
			<polygon fill="#00ADBB" points="722,660.3 735.7,661.1 734.9,627 736.7,595.5 743.3,601.6 750.5,577.8 779.7,563.5 773.5,584.3 
				776.9,612.3 801,606.6 809,579.1 817.3,577.2 811.1,603 814.2,623.9 825.7,702 750,724.5 723.1,706.4 			"/>
		</g>
		<g>
			<path fill="#00ADBB" d="M818.3,636.9l11.3-5.2l-1.2-17.6l3-28.2l6.5-13.8l28-8.4l-5.7,19.4l3,15.2l12-1c0,0,9.8-15.7,32.1-33.2
				l10.2-22.9l21.5-13.8l67.9-17.8l76.9-9.9l47.8,5.1l45.3,17.5l-21.5,81.5l-35-34.7l-39.7,1.6c0,0-10.8,8.7-12.3,23.2l3.7,20.1
				l-33.2,11.3L929,649l-80.3,49.6l-33.6-25L818.3,636.9z"/>
		</g>
		<g>
			<path fill="#00ADBB" d="M1118.7,555.4l29,48.9c0,0,13.5,39.8,1.1,65.4l-15.4,5.1l-50.3,6.5l-43.9-7.8l-17.8,40.6l32.9,17l79.7-7
				l43-43.4l19.5-60.8L1118.7,555.4z"/>
		</g>
		<g>
			<polygon fill="#00ADBB" points="1080.5,642.4 995.2,629.3 966.9,640.6 992.5,663.9 1041.3,676.7 1072.8,677.7 			"/>
		</g>
		<g>
			<path fill="#00ADBB" d="M1156.7,497.6l-6-14.8c0,0-2.9-16.2-2.6-23.8l2.4-16l18.9-29.4l20.8-7.3c0,0,13-1.9,18.1,0.7l-12.9,9
				l-4.7,6.9l10.8-1.1l17.1-19.6l20.4-16.3l-17.6,28.7l-11.8,52.1l-20.9,13L1156.7,497.6z"/>
		</g>
		<g>
			<path fill="#00ADBB" d="M1212,402.1l16.2-12.8l13-15.2l10.5-3c0,0-9.2-1-15.7-0.5l-13.4,5.8l-9.6,15.7L1212,402.1z"/>
		</g>
		<g>
			<path fill="#00ADBB" d="M1231.4,398.7l-10,15.7l-4.7,25.9l42.5,53.6l48.9,32.2l30.2-1.6l57-6c0,0,0.9-10.1-0.3-18
				c-1.2-7.9-13.3-22.7-13.3-22.7l-16-18.1c0,0,0.8,11.8-4.4,15.4l-18.5-9.6l-41.1-37.6l-17.7-38.2c0,0-16-16.9-35.5-18.6
				L1231.4,398.7z"/>
		</g>
		<g>
			<polygon fill="#00ADBB" points="1365.1,532.9 1336.2,568.5 1336.3,582.2 1319.1,588.1 1288.1,642 1273.4,639 1287.4,598.4 
				1300.3,576.1 1332.3,535.8 			"/>
		</g>
		<g>
			<polygon fill="#00ADBB" points="1225.5,677.8 1202.1,683.6 1193.3,704.4 1178.6,720.3 1172.5,704.6 1184,692.9 1184,679.7 
				1205.1,649 			"/>
		</g>
		<g>
			<polygon fill="#00ADBB" points="874.9,837.9 804.7,825.4 744.1,834.4 740.9,861.2 793.8,862.7 865.9,863.5 803.5,846.3 
				804.8,835.4 			"/>
		</g>
		<g>
			<polygon fill="#00ADBB" points="838.6,944.4 874.6,961.9 895.7,921 909.5,913.3 867.4,917.4 845.3,927 			"/>
		</g>
		<g>
			<polygon fill="#00ADBB" points="775.5,939.7 769.3,978.1 770.5,1048.2 797.1,1022.4 792.7,937.6 			"/>
		</g>
		<g>
			<path fill="#00ADBB" d="M801.2,934l1.2,21.2c0,0,14.9,33.4,15.6,34.7c0.7,1.3,28,13,27.8,11.6c-0.2-1.4-4.5-43.5-4.5-43.5
				l-23.1-24.6L801.2,934z"/>
		</g>
		<g>
			<path fill="#00ADBB" d="M893.6,923.2l16.3-7.1l13.4,11.8c0,0,7,25.1,7.2,26.5c0.2,1.4-14.8,41.6-16,42.7
				c-1.3,1.1-18.7-1.1-18.9-2.9c-0.3-1.9-3.3-35.1-3.3-35.1L893.6,923.2z"/>
		</g>
		<g>
			<polygon fill="#00ADBB" points="948.4,933.7 947.4,995.1 977.9,1030.9 1068.6,1021.4 1040.1,950.6 1024.6,935.8 1023.5,915 			
				"/>
		</g>
	</g>
	<g>
		<g>
			<path fill="#2F1A45" d="M1072.3,271c0.4-0.1,0.8-0.1,1.1-0.2l0-0.1C1073.1,270.8,1072.7,270.8,1072.3,271L1072.3,271z"/>
		</g>
		<g>
			<polygon fill="#2F1A45" points="767.5,727.7 737.8,700 723.5,646.5 724.7,633.3 676,644.3 637,637.7 605.6,630.9 609.8,607.5 
				567.8,618.9 534.6,650.1 566.4,634 582.1,632.4 566.3,647.6 547.5,669.6 523.3,679.6 535.3,698.4 565.8,721.7 597.1,740.6 
				654.8,750.6 			"/>
		</g>
		<g>
			<path fill="#2F1A45" d="M738.9,605.8c0,0-1.2,40.1,3,59.4l4.7,32.1l11.7,26.1l12.1,9.6l8.9-2.7l-24-37.1L738.9,605.8z"/>
		</g>
		<g>
			<polygon fill="#2F1A45" points="753.6,589.4 747.3,609.6 750.4,630.5 742.7,641.6 750,691.1 764.3,715.3 773.6,730.3 
				807.5,728.2 860.8,713.2 828.9,665.9 817.3,615.6 761.4,628.1 755.5,609.4 			"/>
		</g>
		<g>
			<polygon fill="#2F1A45" points="814.9,621.3 813.7,601.2 817.1,578.3 807.3,603.2 808.9,624.3 			"/>
		</g>
		<g>
			<path fill="#2F1A45" d="M885.1,553.7l-41.3,10l-2.5-4.6l-41.6,5.4l-44.3,13.6L732,592.9l11.6-13.1l13.3-11.1
				c0,0,9-13.2,11.6-37.3l-5.6-28.6c0,0,6-4.2,8.5-13.1l44.9-1.4l26.5-23.4l2.2,58.3C845,523.3,857.2,543.5,885.1,553.7z"/>
		</g>
		<g>
			<path fill="#2F1A45" d="M705.1,501.8l-29.6-2.8l-19.4,3.6l-2.5-50.9c0,0,11-31.5,23.4-49l30.2-22.2l56.2-10.4l16.5,5.4l-55.8,8.2
				c0,0-25.7,18.7-32,29.6C692.1,413.3,688.1,468.7,705.1,501.8z"/>
		</g>
		<g>
			<path fill="#2F1A45" d="M672.4,591.1l-28.3-5.3l-29.3-2.3l-37.6,21.7l27.5-25.9l23.8-6.3l0.2-11.4l-14-11.2l-19.4,6.7l25.2-28.9
				l25.4-14.7l28-3.6c0,0-13.2,16.7-17.8,24c0,0-5.2,29.3,1.5,45.8L672.4,591.1z"/>
		</g>
		<g>
			<path fill="#2F1A45" d="M824,659.5l22.6-8.1l-7.9-27.8l-1.7-24.4l17.1-3.5l1.9,22.5l5.8,30l-2.1-40l4.2-3.9l8.5,41.9l44.8-14.7
				l52.2-3.4l-4.6-6.8l-36.8-3.1l-20.9,3.4l-13.6-12.2l55.5-17.4l25.6-0.2l6.9,10.7l0.4-16.4l8.8-15.2l-0.7,14.4l1.3,18.3l4.3-19.5
				l7.6-6.5l-3.1,10.1l3.5,16.2l25.9,6.9c0,0,24.7,3.5,39.3,0.6c0,0,40.8,11.1,55,25.4l-37.8-3.5l-9.2,27.9l-56.5-19.7l-38.1,1.1
				l66.2,23.7l-29.8,20.1l-34.5-7l-29.9,5.1l-44,30l-54.5,7.3l-34.5-12L824,659.5z"/>
		</g>
		<g>
			<polygon fill="#2F1A45" points="1069.8,691 1076.4,728.8 1082.6,720.1 1083.2,692.2 1090.7,726.4 1099.9,723.6 1092.7,689.1 
				1104.6,721.8 1114.6,717.5 1106.2,691.7 1111.5,693.8 1122.7,706.7 1131.4,698.3 1139.5,670.8 1133.4,651.4 1126.2,629.3 
				1120.9,634.3 1083.2,627.5 1075.3,657.2 1062,666.8 1025.1,664.6 1010.8,682.2 1034.4,709.4 1045.1,680.7 1054.3,685.1 
				1060.3,720.9 1065.8,690.5 			"/>
		</g>
		<g>
			<path fill="#2F1A45" d="M1159.9,509.3l-8.1-23.4l5.4-33.2l34-37.4l13.4-5.9l-12.8,14.7l-5.7,19.4l3.1,25.9l11.2-28l21.3-36.6
				l25.5-32.6l3.1,3.8l-24.2,34.2l-3.3,20.8l16,21.9l65.9,58l26.7,7.5l30.6-12l14.7-6.4l-1.6-8.3l5.8,5.2l-0.3-13.8l5.2,13.8
				l5.6-0.8l4,22.6c0,0-14,21.3-13,20.8c1-0.5-50.2-2.6-50.2-2.6l-34.4,27.8l-25.8,10.9l-51-34.5l-22.9-41.9l6.1,31.9l-24.5-13.8
				L1159.9,509.3z"/>
		</g>
		<g>
			<polygon fill="#2F1A45" points="1332.9,533.3 1299.8,570 1270.3,579.1 1226.1,550 1219.1,531.1 1208,527 1192.6,493.2 1195,519 
				1216,545.3 1229.1,579.5 1220.7,615.7 1251.3,637 1278.7,642.9 1310.5,590.8 1301.2,582.6 1334.5,544.5 1338.9,529.1 			"/>
		</g>
		<g>
			<path fill="#2F1A45" d="M1171,701l43.7-48.2l14.9-71.5l-18.8-34.5l-34.1-26.6l-34.1-12.1l5.7,22.9l-2.5,60.2l24,50.1
				c0,0,1.1,14.1-15.2,41.6l-32.1,20.4l-0.7,14.8L1171,701z"/>
		</g>
		<g>
			<polygon fill="#2F1A45" points="1381.9,530.9 1383,545 1365.9,570.7 1344.4,592.4 1304.7,593.5 1299.7,588.6 1310,581.3 
				1341.9,578.5 			"/>
		</g>
		<g>
			<polygon fill="#2F1A45" points="1327.1,590.8 1295,639 1275.8,639 1270.3,640.5 1297.8,648.2 1344.5,585.8 			"/>
		</g>
		<g>
			<path fill="#2F1A45" d="M798.9,340.8l2.7,2l22.1-4.7l11.6,1.1c0,0,25.8-5.7,38.4-7.1l26.7,13.6c0,0,13.9,26.4,14.5,50.1
				l20.2,27.4l10.6,26.9c0,0,21,33,25.4,62.7l40.3-9.7l13.3-51.8l21.3-42.5l11.4-32.1l41.6-10.9l16-0.9l7.1-3.4l11.5-9.3l3.3-10
				l-9.9,0.5l-8.4-2.1l-8.2,2.2l-22,7l-17.9,2.9l-18.1-9.9l-3.4-5.2l-14.8-3.5l2.7,7l7.7,9.1l19.3,8.3l-4.7,0.5l-72.1-35l-34.6-31.7
				l-7.1-51.4l-4.5-4.6l-4.2-9.3l0.8,13.6l2.3,2.7l-4.7,22.8l-6.1-2.7l-5.7,3c0,0-9.8,25.2-11.1,39.1l2.1,21l-9.5-9.8l-4-20.5
				l-5,9.3l-25,17l-39.6,11.5l-10.3-0.6L798.9,340.8z"/>
		</g>
		<g>
			<polygon fill="#2F1A45" points="1000.9,505.3 1061.4,497.1 1056.8,475.5 1037.4,445.3 1027.4,456 1010.3,501.3 			"/>
		</g>
		<g>
			<path fill="#2F1A45" d="M1037.3,352.7l-16-53.7c0,0-2.6-7.9-0.9-10.8l8-13.3l6.1,2.9l7-16.9c0,0-0.5-10.1-9.6-23.5l-9.4-9.3
				l-1.3-4.3c0,0,1.5-4.5,11.2-12.6l-4.4-62.5c0,0,3.4-9,3.3-16.9l-11.9-10.7c0,0,0.1-45.2,22.7-68.5l-93.7,57.6l6.2,97.7l6.7,47.8
				l-0.7,24.3c0,0,2.3,20.7,16.3,37.8C990.7,335.2,1037.3,352.7,1037.3,352.7z"/>
		</g>
		<g>
			<polygon fill="#2F1A45" points="934.3,238.3 929.9,218 934,207 926.8,193.3 923.6,204 921.1,219.1 926.2,233.3 			"/>
		</g>
		<g>
			<polygon fill="#2F1A45" points="925.2,210 914.7,193.7 906.1,199.5 904,214.5 900.3,210.3 899,196.5 907.4,181 926.5,191.7 
				930.2,204 			"/>
		</g>
		<g>
			<polygon fill="#2F1A45" points="924.1,210.8 915.9,219.9 920.7,227.7 925.3,230.1 932.9,236.4 918.9,232.2 916.8,235.4 
				913.9,231.8 914.5,227.9 908.7,220.5 911.6,206.3 915.5,202.1 919.1,207.3 924.2,202 			"/>
		</g>
		<g>
			<polygon fill="#2F1A45" points="933.7,240.5 935.3,249.8 932.9,257.7 924.3,262.1 910.7,251.7 906,245.8 901.1,233.2 
				899.9,225.5 903.3,229.3 905.5,234.5 917.2,247.7 925.3,247.7 			"/>
		</g>
		<g>
			<path fill="#2F1A45" d="M1141.4,298.7l-6.3-4.1l-29.8-3.9l-18.3,1.7l-6.1,2.3l8.3,6.1l-19.4-1.2l-4.3,8l1.7-9.7l-3.4-3.8l4.1-4.2
				l8.9-1.1c0,0,8.6-5.8,14.8-7.6l14.1-5.6l-7.7,5.9l7.9,0.3l9.9,3l12.6-1.6c0,0-1.7-3.5-5.6-6.1l-7,0.8c0,0,5.9-2.1,8-3.8l5.6,4.2
				l4.6,5.7L1141.4,298.7z"/>
		</g>
		<g>
			<polygon fill="#2F1A45" points="1060.2,292.2 1060.5,298.5 1070.5,286.4 1074,284 1075.2,272.9 1068.2,282 1064.8,282.9 			"/>
		</g>
		<g>
			<polygon fill="#2F1A45" points="1080.9,268.2 1077.1,271.2 1075.8,278.2 1076.5,283.1 1080.5,280.1 1087.7,270.6 1093.5,268 
				1082.7,280.5 1093.4,275.6 1106.8,273.2 1114.4,274.9 1118.1,273.7 1127.7,273.2 1135.8,281.5 1138.7,288.2 1137.4,277.9 
				1134.5,271.3 1134.2,265.4 1130.7,260.9 1131.1,270.3 1127.6,256.1 1123.4,256.8 1124.1,266.4 1122.6,270.6 1120.3,258.2 
				1114.3,259.5 1101.1,256.7 1093.4,262.6 			"/>
		</g>
		<g>
			<path fill="#2F1A45" d="M1054.9,296l3.1,8.1l0-16.7c0,0,6.8-14.4,16.8-24.7l24.4-7.3l3,2.2l10.4,3.8l6.8-1.9l6.3-5.4l-10.9,4.3
				l-5.5-0.8l-9.1-13.4l-16.1,1.8l-3.5-2l-1.5-13.8c0,0,5.4-5.4,14.1-9.7l7.6,0.5l-4.2-4.2l-6.9,2.8l1.1-8.2l5.3-2.4l10.4,7.6
				l0.9-8.7l-7.4-18.7l-30.2,9.1l6.6,15.8l-7.8,28l-5.2,7.3l-1.8,15.9l-7.6,10.4L1054.9,296z"/>
		</g>
		<g>
			<polygon fill="#2F1A45" points="1128.9,219 1134.6,225.7 1134.7,243 1140.3,261.9 1141.4,270.2 1139.7,282.4 1135.5,261 
				1129.1,254.7 1128.6,256.6 1120.7,257.7 1123.6,255.4 1127.1,254.2 1132.4,238.3 1133,227.6 			"/>
		</g>
		<g>
			<polygon fill="#2F1A45" points="1027,211.6 1049,211.2 1057.4,208.3 1072.4,199.2 1101.1,194 1100.7,183.2 1102.9,175.5 
				1094.8,154.4 1094.5,167.2 1088.6,172.1 1080.8,188 1051.4,202.8 1029.7,195.8 			"/>
		</g>
		<g>
			<polygon fill="#2F1A45" points="1038.4,200.7 1040.8,196.2 1051.7,195.5 1069.6,191.6 1071.5,193.3 1085.2,189.5 1093.8,169.4 
				1088.4,168.9 1071.8,185.1 1058.5,191.8 1049.8,192.1 1043.9,189.4 1047.3,184.6 1059.7,180.4 1052.1,151.2 1022.1,154.1 
				1018.2,191.8 1026.6,204 			"/>
		</g>
		<g>
			<path fill="#2F1A45" d="M1070.1,181.3l-3.6-3l-14.5,3.4l0.4,4.4c0,0,3.2,4.2,8.1,6l9.2-4.9
				C1069.8,187.2,1070.8,183.9,1070.1,181.3z M1059.3,185.9c-2,0.2-3-2.2-3-2.2l0.4-2.1l3.2-0.7l1.5,2.2L1059.3,185.9z"/>
		</g>
		<g>
			<path fill="#2F1A45" d="M1089.1,161.6l-9.2-6.7l1.7,2.7l-6.2-3.2l-2.6-4.2l-9.9-3.5l1.7,2.8l-1.1,1.5l1,4.6l-17.1-13.5l-1.7,1.2
				l-6.6-4.8l-7.7,3.4l-0.7,3.2l-3,1.4l-1.2,14.3l26.6,6.5l5.6,13.3l7.8-1.6l3.1,2.6l2.4,4.5l2.1,1.1l-0.9-2.2l15.3-14.8
				L1089.1,161.6z M1073.3,184.8l-2.6-6.5l2.4,3.1L1073.3,184.8z M1065.1,168.7l-5.1-5.7l11.8,6.9L1065.1,168.7z"/>
		</g>
		<g>
			<polygon fill="#2F1A45" points="1089.2,149 1090.2,158 1091.5,162.6 1092.5,158.1 			"/>
		</g>
		<g>
			<polygon fill="#2F1A45" points="1086.4,155.1 1079.5,149.9 1075.4,141.3 1083.9,149.4 			"/>
		</g>
		<g>
			<path fill="#2F1A45" d="M1118.8,198.2l7.6,14l1,4.7l-12.2-21.7c0,0,0.9-7,3.2-12.7l-0.7-3.9l-2.3,2l-4-3.9l6.5-10.8l0.3-8.7
				l3.1,8.7l9.1-2.8l-8,23l-3.8,7.8L1118.8,198.2z"/>
		</g>
		<g>
			<polygon fill="#2F1A45" points="1117.6,194.1 1122.4,191.9 1125.1,191.6 1126.7,193.3 1129.2,194.6 1128.8,193.6 1125.5,190.8 
				1124.2,189.4 1127.8,186.3 1130.6,185.1 1139.9,183.7 1148.9,181.5 1149.3,180.4 1129.4,183.6 1119.1,188.7 			"/>
		</g>
		<g>
			<polygon fill="#2F1A45" points="1128.4,164.6 1132.7,161 1136.1,157.9 1144.3,155.1 1142.7,157.1 1150,157.2 1151.8,159.7 
				1150.3,160.6 1153.3,162.8 1155.8,162.6 1158.9,161.4 1159.6,168.3 1158.2,177.9 1152.2,180 1145.6,181.5 1129.3,184.5 
				1120.9,189.3 1121.2,186.3 1124.5,184.1 1122.7,182.4 1125.9,167.3 			"/>
		</g>
		<g>
			<polygon fill="#2F1A45" points="1122.3,156.8 1124,164.2 1124.5,158.7 1125.8,157.3 1126.5,152.5 			"/>
		</g>
		<g>
			<path fill="#2F1A45" d="M1147.8,180.4l-17.3,4.3l-0.1,3c1.3,2.2,3.1,3.9,3.1,3.9l2.6,1.5c2.6,0.6,4.2-0.6,4.2-0.6l1.7,2.4
				l6.1-0.8l-0.3-2.1l1.8-6.6l1.1-1.6L1147.8,180.4z M1136.3,188.1c-1.8,0.2-2.7-1.9-2.7-1.9l0.3-1.4l2.8-0.4l1.4,2.2L1136.3,188.1z
				"/>
		</g>
		<g>
			<polygon fill="#2F1A45" points="1155.7,177.8 1154.9,183.1 1151.3,191.1 1147.6,193.6 1141.9,194 1136.1,196.9 1130.8,195.2 
				1131.1,196.1 1134.2,198.1 1144.5,196.9 1149.7,197.8 1149.7,196.2 1153,192.6 1158.6,181.1 1159.1,169.4 			"/>
		</g>
		<g>
			<polygon fill="#2F1A45" points="1081.3,309.5 1099.1,304.6 1115.3,304.4 1126.5,305.4 1137.1,315.7 1125.1,311.6 1101.9,310.6 
				1071.2,318 			"/>
		</g>
		<g>
			<polygon fill="#2F1A45" points="960.3,212.9 952.1,215.8 952,219.4 942.4,224.7 940.4,213.6 933.6,189.4 924.8,177.5 
				908.8,170.2 900.2,175.1 899.5,160.6 900.3,144.1 925.2,158.6 957.7,154.1 944.5,171 956.8,165.3 942,183.1 959.9,172 			"/>
		</g>
		<g>
			<polygon fill="#2F1A45" points="954.7,158.5 938.9,152.3 922.3,160.8 910.4,155 923.3,152.8 916.3,149.2 927.3,143.7 
				911.8,142.4 925.3,139.7 924.7,135.5 914.2,137.4 920.6,131.8 915.7,127.6 938.2,113.6 928.7,128.8 938.7,124.5 943.5,111 
				976.9,98.6 			"/>
		</g>
		<g>
			<path fill="#2F1A45" d="M902.3,150.5l-5-9.6l1.8-4.9l0.4-4.7l-1.4-4.4l-2.8,2.6L894,135l-2-6.1l2.8-7.5l7.2-6.4l-0.1-5.7l5.4-6.8
				l-3.8-4.1l-0.3-9.2l-3.4-8.4l3.2-9.4l5.2-3.6l-2.3,6.4l4.3,7.6l1-8l7.5-9.3l-2.7,10.4l1.4,11.9l8.9,0.1l-2.9-5.3l8,1l4.9-2.9
				l-4.6-4.7l4.9-12.5l12.4-10.4l-18.2,7.3l-8.2-2.4l10.2-0.8l8.3-6.2l-15.8,3.8l-2.9-2.8l29.8-12.6l17.4-2.6l-9.3-2.6l10.9-3
				l8.4-0.9l14-1.4L979.7,38l29.5,21.6l-0.8,30.7c0,0-49.5,36.5-48.9,35.3c0.5-1.1-12.7-13.8-12.7-13.8l-14.1,6l-9,11.6l-8.1-2
				l-5.3,12.2l5.3-0.4l-6.1,4.8l6.7,1.9L902.3,150.5z"/>
		</g>
		<g>
			<polygon fill="#2F1A45" points="1084.5,43.6 1069.1,76.8 1050.3,89.2 1030,84.4 1051.8,82.2 1066.1,65.5 1069.5,43.3 			"/>
		</g>
		<g>
			<polygon fill="#2F1A45" points="1077.8,41 1066.8,70.4 1040.9,78.9 1026.5,75.3 1030.8,68.2 1042.3,70.8 1062.5,60.7 
				1067.1,38.7 			"/>
		</g>
		<g>
			<polygon fill="#2F1A45" points="1078.2,46.3 1056.3,47.7 1036,57.1 1027.4,67 1001.6,82.2 997.1,63.9 975.3,49 1026.7,37.5 
				1049.3,38.8 1055.2,37.6 1070.4,39.6 			"/>
		</g>
		<g>
			<polygon fill="#2F1A45" points="980.2,41.1 998,33.5 1007.1,35.4 1013.8,27.6 994.2,32.3 982.9,20.8 993.8,9.9 1002.1,13.3 
				993.1,15 994.2,19.9 1004.5,22.6 1024,21.9 1017.6,19.3 1009.2,20.5 1019.5,15.4 1031.7,15.8 1024.3,11.9 1035.2,11 1048.6,2.9 
				1064.5,-0.5 1052.2,7.8 1050.5,17.6 1056.7,31 1029.6,25.7 1039.4,29.9 1020.9,29.8 1029.7,31.7 1014.4,34 1023.2,35.5 
				1003.8,44.4 988.5,51.3 			"/>
		</g>
		<g>
			<polygon fill="#2F1A45" points="1070.7,40.4 1069.8,18.2 1054,11.1 1028.9,6.9 1060.4,4.9 1082.5,17.3 1082.4,46 			"/>
		</g>
		<g>
			<polygon fill="#2F1A45" points="1057.5,10.8 1067.1,24.3 1071.5,42.9 1058.1,40.8 1059.3,29.5 1050,8.1 1060,22.8 1062.4,31.2 
				1062.6,23.1 1053.5,9 			"/>
		</g>
		<g>
			<polygon fill="#2F1A45" points="1060,40.8 1057.7,29.7 1046.8,18.5 1035.7,23.7 1048.7,31.8 1035.3,32.6 1041.8,34.9 
				1026.9,34.8 1045.4,41.1 			"/>
		</g>
		<g>
			<polygon fill="#2F1A45" points="1099.2,48.9 1099.3,57.1 1111.5,74.2 1115.7,76.4 1116.7,85.2 1110.5,87.1 1092.6,74.1 
				1096,80.4 1108.8,94.5 1123.5,90.2 1125.9,58.5 			"/>
		</g>
		<g>
			<polygon fill="#2F1A45" points="1119.4,76.9 1128.6,84.1 1131.6,99.3 1126.2,111.2 1133.6,105.8 1140.6,95.5 1133.1,71 
				1135.8,94.4 1130.9,77.7 1137.7,70.7 1122.9,59.7 			"/>
		</g>
		<g>
			<polygon fill="#2F1A45" points="1133.1,71 1135.7,80.7 1143.6,87.6 1149.2,89.9 1148,91.9 1153.1,94 1151.2,123 1155.8,112.4 
				1158.4,131.9 1156.7,144.3 1160.2,140.5 1166.6,108.7 1164.3,100.7 1163.5,106.7 1161.8,109.4 1161.2,92.8 1155.1,65.5 
				1146.6,56.5 1145,42.5 1140,34.2 1135.8,36.5 1133.4,26.7 1113.6,27 1115.5,30.7 1128.6,30.9 1129.9,54.2 1121,61.5 			"/>
		</g>
		<g>
			<polygon fill="#2F1A45" points="1129.5,57.8 1125.4,36.7 1110.3,17.5 1091.7,18.3 1093.3,20.9 1107.9,21.8 1118.9,38.9 
				1119.8,50 1113.8,32.2 1112.2,32.9 1114.8,57.1 1126,63.8 			"/>
		</g>
		<g>
			<polygon fill="#2F1A45" points="1117.4,56.4 1115,43.6 1098.5,12.7 1087.9,10.7 1088.5,13.6 1097.2,16.8 1104.5,37.5 
				1099.5,29.1 1097.2,19.8 1095.6,18.6 1097.3,32.3 1102.8,45.5 1100.3,45.4 1095,31.4 1094.7,23.2 1092.3,32.5 1101.6,58.2 			"/>
		</g>
		<g>
			<polygon fill="#2F1A45" points="1063.6,9.3 1080,3.3 1092.3,9.3 1093.9,22.5 1090.3,30.6 1094,41.3 1100.2,49.3 1100.9,57 
				1090.6,53.2 1086.8,55.5 1081.2,42.7 1089.7,38.9 1084.3,27.6 1085.6,16.7 1082.7,27.7 1086.2,42.6 1078.8,47.1 1077.8,19.8 
				1082.5,11.8 1078.8,8.3 1067.4,11.6 			"/>
		</g>
		<g>
			<polygon fill="#2F1A45" points="1153.9,76.8 1159.4,53.6 1153.1,25.7 1135.9,19.2 1127.6,22.9 1134.8,21.2 1147.5,33.3 
				1148.7,53.7 1143.3,62.7 			"/>
		</g>
		<g>
			<polygon fill="#2F1A45" points="1159.4,64.4 1160.5,74.9 1157.3,82.5 1159.3,92.9 1163,84 1162.8,71.5 			"/>
		</g>
		<g>
			<polygon fill="#2F1A45" points="995.4,30.6 983.4,33.3 968.6,26.2 951.4,31.8 947.5,37.2 950.2,25.1 973.2,18.7 992.8,25.8 			
				"/>
		</g>
		<g>
			<polygon fill="#2F1A45" points="719.5,727.1 725.1,771.9 727.1,791.5 717.8,792.9 716.7,824.4 717.7,844.2 725.2,843.1 
				718.1,879.3 721.4,920.6 709.2,967 697.6,1017.1 707.3,1069.8 743.8,1066.3 721.4,1010.8 729.7,977.3 735.6,1010.6 745.7,1047.1 
				761.2,1068.5 775.1,1066.5 760.7,981.2 768.4,943.1 778.7,942.5 773.6,985 769.8,1062.5 807,1057 815.6,967.5 802.5,942.8 
				815.7,941.8 817.3,920.7 789.3,923.9 779.8,911 775.7,922.1 760.1,906.3 752.4,873.3 757,865.9 799.1,868.3 812.3,892.9 
				814,866.1 837.1,868.4 855.6,864.7 855.7,852.4 800.5,851.9 751.1,851.6 751.9,843.9 800.5,838.6 871.5,850 967.8,839.7 
				957.2,826 886.2,833.6 875.3,811.5 893.5,780.3 930.5,760.6 945.7,734.7 967.6,716.2 837.3,727.8 801.3,740.7 784.1,740.4 
				771.7,746 758.3,723.3 			"/>
		</g>
		<g>
			<polygon fill="#2F1A45" points="807.1,935.5 831.8,986.9 808.8,959.9 800.2,1056.1 987,1028.6 973.7,983.1 953,952 955.2,941.2 
				929.7,942.1 907.5,985.3 901.2,961.5 911.2,939.2 902.1,922.5 908.3,919.6 922,941.4 925.3,919 914.6,911.1 867.9,922.7 
				861.6,931.3 869.1,943.5 862.2,954.9 845.9,934.5 855.6,922.6 817.3,920.7 802.2,927.7 			"/>
		</g>
		<g>
			<path fill="#2F1A45" d="M1174.5,696.2"/>
		</g>
		<g>
			<polygon fill="#2F1A45" points="1152.1,698.6 1106.5,717.6 1091.2,717 1069.8,720.2 1061.6,703.4 1052.3,717.1 1047.9,700.6 
				1034.4,709.4 1025.1,693.5 984.3,687.2 957.2,690.2 942.3,705.7 970.8,705.3 1009.5,716.7 1043.1,751.7 1081.5,754.6 
				1125.6,737.6 1173.9,698.2 			"/>
		</g>
		<g>
			<path fill="#2F1A45" d="M1077.8,780.7l4.8,25.9l-5.4,15l-55.5,10.1l-43.5,7.4l-34,1.2l10.3-7.2l43.7-6.4l47.5-12.7
				C1045.6,814,1072.3,801.5,1077.8,780.7z"/>
		</g>
		<g>
			<polygon fill="#2F1A45" points="1078.6,825.2 1075.6,869.4 1065.5,839.5 1029.3,851.5 996.4,853.5 986.9,866.3 968.9,860.4 
				912.3,888.7 866.6,881.2 868.5,894.2 829.5,861.9 838.8,853.9 934.5,852.2 983.6,844 1034.2,832.7 			"/>
		</g>
		<g>
			<polygon fill="#2F1A45" points="915.2,914.8 941.7,920.4 980.8,902.3 1034.7,894.4 1061.8,904.6 1075,878 1073.7,914.3 
				1090.6,951.7 1129,1005.9 1125.4,1014 1140.9,1028.8 1145.1,1044.3 1059.9,975.2 1080.1,958 1060.3,920.1 1016.9,921.7 
				1000.6,933.6 1013.9,940.2 1039.5,1011 1027.8,1002.7 1018.5,1023.1 994.3,1026.6 987.1,1009.6 989.8,982.7 964.6,947.4 
				949.5,947.8 929.9,976.3 			"/>
		</g>
		<g>
			<polygon fill="#2F1A45" points="1033.8,933.5 1075,974.9 1115.4,1004.1 1050.3,1013.6 1029.9,958.7 			"/>
		</g>
		<g>
			<polygon fill="#2F1A45" points="933.7,866.5 929.1,925.1 938.2,929.5 958.4,860 			"/>
		</g>
		<g>
			<polygon fill="#2F1A45" points="915.2,914.8 900.8,881.8 890.3,881.4 907.8,915.9 			"/>
		</g>
		<g>
			<polygon fill="#2F1A45" points="1035.8,837.3 1023,905.6 1039.1,905.1 1046.7,840.4 			"/>
		</g>
		<g>
			<polygon fill="#2F1A45" points="1171.7,686.7 1179.3,709.1 1189.3,699.8 1186.2,668.9 			"/>
		</g>
		<g>
			<polygon fill="#2F1A45" points="1184.2,723.3 1191.1,735.8 1226.9,751.9 1268.5,691 1283.3,680.2 1308.2,655.9 1298.5,653.1 
				1247,641.4 1223,614.3 1210.4,615.5 1201,658.2 1220.5,679.5 1236,682.9 1206.6,686.5 			"/>
		</g>
		<g>
			<polygon fill="#2F1A45" points="1218.1,740.4 1147.1,814.9 1099.7,846.1 1070.1,843.4 1076.4,827.5 1081.9,808.6 1080,760 
				1098.2,777.3 1191.6,725.1 			"/>
		</g>
		<g>
			<path fill="#2F1A45" d="M1098.8,220l-5.7,1.8c0,0-4.6,4-5.1,7.2l0.7,10.8c0,0,4.2,4.9,8.4,6.2l-12.8,3.1l-3.1-3.3
				c0,0,3-3.9,3.1-6.5l-1.4-9.6c0,0-4-0.7-6,0.1l9.4-7.1l9-3.7L1098.8,220z"/>
		</g>
		<g>
			<path fill="#2F1A45" d="M1129.3,120.4l-8.5-10.3l-29.6-2.8c0,0-7.3,5.3-10.9,9.7l-35.5,4.3l-7.1-9.9l16.6,2.8l26.9-1.1l11.5-9.3
				l29.9,4.1l6.5,7.8l6.1,3l12.3,8l-13.4-5.7L1129.3,120.4z"/>
		</g>
		<g>
			<path fill="#2F1A45" d="M1050.4,102.5l-14.7-1.2l-2.6-8.2c0.4-7.2,4.3-20.6,4.3-20.6l-10.5,15.6l-1.2,19.2l14.6,5.9l37-8.3
				l17.1-11.3l22.5,1.4l8.2,2.8l-6.5-3.8l-24.3-3.6l-17,8.4L1050.4,102.5z"/>
		</g>
		<g>
			<path fill="#2F1A45" d="M1018.1,87.9l5.9,23.3l21.2,15.8c0,0,22.8-4.4,34.3-4.3l-24.4,5.7l-14.2,5.3l-23.2-17.2L1018.1,87.9z"/>
		</g>
		<g>
			<path fill="#2F1A45" d="M1095,120.6c0,0,20.5,0.8,29.9,3l2.4,1.8l16.9,6.5l2.8,5.6l-17.7-6.5l-15-3.6l-1.3-3.2L1095,120.6z"/>
		</g>
		<g>
			<path fill="#2F1A45" d="M933,245.7l4.5,15.7l14.2,13.9l14.1-0.7l-1.7-16.1c0,0-7.9,1.9-10.5,1.5c-2.5-0.3-8.7-8.3-8.7-8.3
				l-4.7-20l0-31.7l-5.3-14.5l3.4,23l-8,20.4L933,245.7z"/>
		</g>
	</g>
	<g>
		<polygon fill="#00ADBB" points="1030.2,904.8 1029.9,958.7 1041.4,980.7 1025.9,994.7 1006,1018.1 965.9,984.5 881.2,1035 
			769.3,1050 740.8,1045.4 719.4,1019.3 694.4,1047.9 689.8,1036.8 684,1007 678.8,1041.4 679.1,1063.3 690.4,1080.6 794.9,1065.3 
			1051.2,1027.5 1054,907.2 		"/>
	</g>
	<g>
		<polygon fill="#00ADBB" points="738,890.1 755.7,923.1 784.7,931.7 825.3,926.4 813.8,896.8 811,911.4 797.5,877.8 801.1,858.7 
			758.1,857.2 745.8,865.5 		"/>
	</g>
	<g>
		<polygon fill="#00ADBB" points="830.8,862.2 844,908.7 849.3,895.8 861.1,918.3 855.7,867.1 		"/>
	</g>
	<g>
		<polygon fill="#00ADBB" points="828.3,927.4 829.6,907.2 845.3,927 		"/>
	</g>
	<g>
		<polygon fill="#00ADBB" points="911.9,876.6 922.3,922.8 909.9,916.1 893.2,875.1 		"/>
	</g>
	<g>
		<polygon fill="#00ADBB" points="949.1,862.6 931.8,929.2 945.8,927.9 968.4,873.3 980.6,883.6 997.5,848.3 954.9,853.9 		"/>
	</g>
	<g>
		<polygon fill="#00ADBB" points="1042.4,838.9 1036.3,903.9 1060.9,911 1047.6,878.7 		"/>
	</g>
</g>
</svg>
