<?xml version="1.0" encoding="utf-8"?>
<!-- Generator: Adobe Illustrator 18.0.0, SVG Export Plug-In . SVG Version: 6.00 Build 0)  -->
<!DOCTYPE svg PUBLIC "-//W3C//DTD SVG 1.1//EN" "http://www.w3.org/Graphics/SVG/1.1/DTD/svg11.dtd">
<svg version="1.1" xmlns="http://www.w3.org/2000/svg" xmlns:xlink="http://www.w3.org/1999/xlink" x="0px" y="0px"
	 viewBox="0 0 50 50" enable-background="new 0 0 50 50" xml:space="preserve">
<g id="Layer_1">
	<g>
		<g>
			<path fill="#F2EBD1" d="M25,26.5c-0.4,0-0.8-0.2-1.1-0.5L12.8,14.1c-0.6-0.6-0.5-1.6,0.1-2.1c0.6-0.6,1.6-0.5,2.1,0.1l10,10.7
				l10-11c0.6-0.6,1.5-0.7,2.1-0.1c0.6,0.6,0.7,1.5,0.1,2.1L26.1,26C25.8,26.3,25.4,26.5,25,26.5C25,26.5,25,26.5,25,26.5z"/>
		</g>
		<g>
			<path fill="#F2EBD1" d="M13.9,38.8c-0.4,0-0.7-0.1-1-0.4c-0.6-0.6-0.7-1.5-0.1-2.1L23.9,24c0.3-0.3,0.7-0.5,1.1-0.5
				c0.4,0,0.8,0.2,1.1,0.5l11.1,11.9c0.6,0.6,0.5,1.6-0.1,2.1c-0.6,0.6-1.6,0.5-2.1-0.1L25,27.2l-10,11
				C14.7,38.6,14.3,38.8,13.9,38.8z"/>
		</g>
	</g>
</g>
<g id="Layer_2">
</g>
</svg>
