<?xml version="1.0" encoding="utf-8"?>
<!-- Generator: Adobe Illustrator 18.0.0, SVG Export Plug-In . SVG Version: 6.00 Build 0)  -->
<!DOCTYPE svg PUBLIC "-//W3C//DTD SVG 1.1//EN" "http://www.w3.org/Graphics/SVG/1.1/DTD/svg11.dtd">
<svg version="1.1" id="Layer_1" xmlns="http://www.w3.org/2000/svg" xmlns:xlink="http://www.w3.org/1999/xlink" x="0px" y="0px"
	 viewBox="0 0 50 50" enable-background="new 0 0 50 50" xml:space="preserve">
<circle fill="none" stroke="#F2EBD1" stroke-width="3" stroke-miterlimit="10" cx="95.5" cy="423" r="29.5"/>
<polyline fill="none" stroke="#F2EBD1" stroke-width="3" stroke-linecap="round" stroke-linejoin="round" stroke-miterlimit="10" points="
	100.7,411.3 88.8,423.2 101.1,433.5 "/>
<g>
	<path fill="#F2EBD1" d="M25,49.7C11.4,49.7,0.3,38.6,0.3,25C0.3,11.4,11.4,0.3,25,0.3S49.7,11.4,49.7,25
		C49.7,38.6,38.6,49.7,25,49.7z M25,2.6C12.7,2.6,2.6,12.7,2.6,25s10,22.4,22.4,22.4c12.3,0,22.4-10,22.4-22.4S37.3,2.6,25,2.6z"/>
</g>
<g>
	<path fill="#F2EBD1" d="M20.2,14.5c0.3,0,0.5,0.1,0.8,0.3l9.8,8.2c0.3,0.2,0.4,0.5,0.4,0.9c0,0.3-0.1,0.7-0.3,0.9l-9.5,9.5
		c-0.5,0.5-1.2,0.5-1.7,0c-0.5-0.5-0.5-1.2,0-1.7l8.6-8.6l-8.8-7.3c-0.5-0.4-0.6-1.2-0.2-1.7C19.5,14.6,19.8,14.5,20.2,14.5z"/>
</g>
</svg>
