<?xml version="1.0" encoding="utf-8"?>
<!-- Generator: Adobe Illustrator 19.0.0, SVG Export Plug-In . SVG Version: 6.00 Build 0)  -->
<svg version="1.1" id="Layer_1" xmlns="http://www.w3.org/2000/svg" xmlns:xlink="http://www.w3.org/1999/xlink" x="0px" y="0px"
	 viewBox="0 0 465 301.5" style="enable-background:new 0 0 465 301.5;" xml:space="preserve">
<style type="text/css">
	.st0{fill:#00ADBB;}
	.st1{fill:#2F1A45;}
	.st2{fill:#E8701F;}
</style>
<g id="XMLID_619_">
	<g id="XMLID_704_">
		<path id="XMLID_726_" class="st0" d="M14.7,185.5c15-2.1,22.5-3.6,37.5-7.4c0,12.1,0,18.2,0,30.4c-1.1,0.2-2,0.4-3,0.5
			c0-21.7-8.2-25.3-11.5-24.6c-2.2,0.4-3.3,0.7-5.5,1.1c0,19,0,28.5,0,47.6c7-0.6,9.7-1.6,11-15.4c1.3-0.2,0.7-0.1,2-0.3
			c0,12.9,0,19.3,0,32.2c-1.3,0.1-0.7,0-2,0.1c-0.9-11.7-4.4-13.7-11-13.7c0,18.9,0,29.2,0,46.5c0,3.1,2.6,6.7,4.4,6.8
			c0,1.2,0,0.9,0,2.1c-8.8-0.6-13.2-1-21.9-2.2c0-1.1,0-0.8,0-1.9c1.8,0.2,4.4-3.3,4.4-6c0-29.4,0-58.8,0-88.2
			c0-3.5-2.6-5.7-4.4-5.5C14.7,186.4,14.7,186.6,14.7,185.5z"/>
		<path id="XMLID_724_" class="st0" d="M55.9,177.1c8.8-2.3,13.2-3.6,21.9-6.4c0,1.3,0,0.9,0,2.2c-1.8,0.5-4.4,4.8-4.4,7.9
			c0,35.9,0,71.9,0,107.8c2.5-0.1,3.8-0.2,6.4-0.3c3.3-0.2,11.1-13.3,11.1-40.6c1.2-0.1,2.1-0.4,3.4-0.6c0,17.4,0,26.1,0,43.5
			c-15.3,1.3-23,1.6-38.4,1.4c0-0.5,0-1.3,0-2.2c1.8,0,4.4-3.5,4.4-7.4c0-32.5,0-63.9,0-96.6c0-4.4-2.6-7.3-4.4-6.8
			C55.9,177.9,55.9,178.3,55.9,177.1z"/>
		<path id="XMLID_722_" class="st0" d="M166.5,144.1c0,42.7,0,81.9,0,124.7c0,5.3,3.3,7.3,6.6,6.7c10.2-2,12-13,12.2-32.5
			c1.8-0.5,2.6-0.8,4.4-1.4c1.3,15.6,2.3,21.5,3.3,32.1c-1.8,0.4-2.6,0.6-4.4,1c-1.2-1.9-2.7-2.7-3.3-2.5c-2.3,0.7-7.7,6.2-12.3,7.1
			c-10.1,2-19.7-1.3-19.7-11.1c0-37.9,0-75.8,0-113.7c0-10.4,8.2-19.8,18.5-23.5c5.5-2,8.6,0,10-0.3c0.7-0.1,2.1-2.3,2.4-4.1
			c1.2,0.3,2.3,0.8,3.3,1.1c-1.3,10.8-1.9,15.4-2.9,26.5c-1.4-0.6-2.6-1.2-4.2-1.7c0.9-11,2.9-21.5-7.3-18.2
			C169.3,135.5,166.5,139.8,166.5,144.1z"/>
		<path id="XMLID_719_" class="st0" d="M235.7,248.5c0,11.2-10.1,19.7-20.2,22c-9.6,2.2-19.3-1.2-19.3-11.8c0-41.2,0-82.4,0-123.6
			c0-10.6,9.9-21.1,19.7-26.1c9.9-5,19.7-4.2,19.7,7.2C235.7,160.3,235.7,204.4,235.7,248.5z M209.4,261.7c0,4.2,3.1,5.3,6.4,4.6
			c3.3-0.8,6.8-3.8,6.8-7.8c0-47.4,0-94.8,0-142.2c0-4.1-3.3-4.6-6.6-2.9c-3.3,1.7-6.6,5.4-6.6,9.4
			C209.4,169,209.4,215.3,209.4,261.7z"/>
		<g id="XMLID_709_">
			<path id="XMLID_716_" class="st0" d="M353.2,220.6c0,13.5-10.1,22.1-20.2,23.6c-9.6,1.5-19.3-3.5-19.3-16.5
				c0-50.4,0-100.7,0-151.1c0-13,9.9-24.3,19.7-28.5c9.9-4.2,19.7-1,19.7,12.7C353.2,114.1,353.2,167.4,353.2,220.6z M326.8,232.7
				c0,5.1,3.1,6.9,6.4,6.3c3.3-0.5,6.8-3.6,6.8-8.6c0-57.5,0-115,0-172.5c0-4.9-3.3-6.2-6.6-4.8c-3.3,1.4-6.6,5.4-6.6,10.2
				C326.8,119.9,326.8,176.3,326.8,232.7z"/>
			<path id="XMLID_713_" class="st0" d="M411,236.7v2c-7.1,1.3-20-1.9-20.7-24.5c-1.1-34.6,2.4-53.8-4.9-73.4
				c-2.6-7.1-7.7-7.9-9-7.6c0,29.7,0,55.1,0,84.8c0,12.4,4.3,16.4,6.1,16.3c0,2.2,0,1.2,0,3.3c-8.8,0.5-15.9,1.4-24.7,2.3
				c0-2.1,0-1.1,0-3.2c1.8-0.2,5.5-5.1,5.5-16.8c0-57.4,0-106.3,0-163.9c0-12.4-2.6-13.8-4.4-13.1c0-1.1,0-1.4,0-3.6
				c8.8-3.4,13.2-5,21.9-7.9c9.9-3.3,19.7,1.4,19.7,16.1c0,23.7,0,42.2,0,65.9c0,13.5-18,17.2-18,17.2s9.4,2.3,14.8,15
				c8.2,19.2,5.1,37.7,5.1,75.2C402.4,233.6,411,236.7,411,236.7z M380.6,126.8c4.6-1.8,6.8-5,6.8-9.1c0-24.9,0-49.9,0-74.8
				c0-5.3-3.3-7-6.6-5.9c-1.8,0.6-2.6,0.9-4.4,1.5c0,29.8,0,59.5,0,89.3C378.1,127.3,378.9,127.1,380.6,126.8z"/>
			<path id="XMLID_710_" class="st0" d="M451.2,217.7c0,15.3-10.1,22.3-20.2,21.6c-9.6-0.7-19.3-8.6-19.3-23.5
				c0-57.6,0-115.2,0-172.7c0-14.9,9.9-25.2,19.7-27.2c9.9-2,19.7,4.7,19.7,20.3C451.2,96.7,451.2,157.2,451.2,217.7z M424.9,224.6
				c0,5.8,3.1,8.6,6.4,8.8c3.3,0.2,6.8-2.4,6.8-8c0-65.4,0-130.9,0-196.3c0-5.6-3.3-8-6.6-7.4c-3.3,0.6-6.6,4.3-6.6,9.8
				C424.9,95.9,424.9,160.3,424.9,224.6z"/>
		</g>
		<g id="XMLID_705_">
			<path id="XMLID_706_" class="st0" d="M111.4,288.8c0,0-2.6,0.5-7.1,1c-4.4,0.5-7.3,0.7-7.3,0.7l0-1.6c0,0,3.2-1.8,4.4-8.1
				l0.2-1.2l16.8-108.1l0.2-1.2l1.5-9.2l0.2-1v-1.3c0-0.3-0.1-0.6-0.3-1.1c0,0,3-1.2,5.4-2.3c3.6-1.7,6.7-3.5,6.7-3.5l16,118.8
				c0,0,0.9,5.4,2.6,7.4c2.3,2.8,4.2,3.4,4.2,3.4v1.8c0,0-4.1,0.9-10.4,1.9c-8.1,1.3-11.7,1.5-11.7,1.5v-1.7c0,0,1.9-1.3,2.6-4.5
				c0.5-2-0.2-7.6-0.2-7.6l-2.8-20.2l-20.6,2.3l-3.2,21.1c0,0-0.9,5.3-0.2,7.4c0.8,2.5,3.1,3.8,3.1,3.8L111.4,288.8z M113,247.3
				l18.3-2l-8.4-62.6L113,247.3z"/>
		</g>
	</g>
	<g id="XMLID_680_">
		<path id="XMLID_702_" class="st1" d="M9.8,180.5c15-2.1,22.5-3.6,37.5-7.4c0,12.1,0,18.2,0,30.4c-1.1,0.2-2,0.4-3,0.5
			c0-21.7-8.2-25.3-11.5-24.6c-2.2,0.4-3.3,0.7-5.5,1.1c0,19,0,28.5,0,47.6c7-0.6,9.7-1.6,11-15.4c1.3-0.2,0.7-0.1,2-0.3
			c0,12.9,0,19.3,0,32.2c-1.3,0.1-0.7,0-2,0.1c-0.9-11.7-4.4-13.7-11-13.7c0,18.9,0,29.2,0,46.5c0,3.1,2.6,6.7,4.4,6.8
			c0,1.2,0,0.9,0,2.1c-8.8-0.6-13.2-1-21.9-2.2c0-1.1,0-0.8,0-1.9c1.8,0.2,4.4-3.3,4.4-6c0-29.4,0-58.8,0-88.2
			c0-3.5-2.6-5.7-4.4-5.5C9.8,181.5,9.8,181.6,9.8,180.5z"/>
		<path id="XMLID_700_" class="st1" d="M51,172.2c8.8-2.3,13.2-3.6,21.9-6.4c0,1.3,0,0.9,0,2.2c-1.8,0.5-4.4,4.8-4.4,7.9
			c0,35.9,0,71.9,0,107.8c2.5-0.1,3.8-0.2,6.4-0.3c3.3-0.2,11.1-13.3,11.1-40.6c1.2-0.1,2.1-0.4,3.4-0.6c0,17.4,0,26.1,0,43.5
			c-15.3,1.3-23,1.6-38.4,1.4c0-0.5,0-1.3,0-2.2c1.8,0,4.4-3.5,4.4-7.4c0-32.5,0-63.9,0-96.6c0-4.4-2.6-7.3-4.4-6.8
			C51,172.9,51,173.4,51,172.2z"/>
		<path id="XMLID_698_" class="st1" d="M161.5,139.1c0,42.7,0,81.9,0,124.7c0,5.3,3.3,7.3,6.6,6.7c10.2-2,12-13,12.2-32.5
			c1.8-0.5,2.6-0.8,4.4-1.4c1.3,15.6,2.3,21.5,3.3,32.1c-1.8,0.4-2.6,0.6-4.4,1c-1.2-1.9-2.7-2.7-3.3-2.5c-2.3,0.7-7.7,6.2-12.3,7.1
			c-10.1,2-19.7-1.3-19.7-11.1c0-37.9,0-75.8,0-113.7c0-10.4,8.2-19.8,18.5-23.5c5.5-2,8.6,0,10-0.3c0.7-0.1,2.1-2.3,2.4-4.1
			c1.2,0.3,2.3,0.8,3.3,1.1c-1.3,10.8-1.9,15.4-2.9,26.5c-1.4-0.6-2.6-1.2-4.2-1.7c0.9-11,2.9-21.5-7.3-18.2
			C164.3,130.6,161.5,134.8,161.5,139.1z"/>
		<path id="XMLID_695_" class="st1" d="M230.8,243.6c0,11.2-10.1,19.7-20.2,22c-9.6,2.2-19.3-1.2-19.3-11.8c0-41.2,0-82.4,0-123.6
			c0-10.6,9.9-21.1,19.7-26.1c9.9-5,19.7-4.2,19.7,7.2C230.8,155.4,230.8,199.5,230.8,243.6z M204.5,256.7c0,4.2,3.1,5.3,6.4,4.6
			c3.3-0.8,6.8-3.8,6.8-7.8c0-47.4,0-94.8,0-142.2c0-4.1-3.3-4.6-6.6-2.9c-3.3,1.7-6.6,5.4-6.6,9.4
			C204.5,164,204.5,210.4,204.5,256.7z"/>
		<g id="XMLID_685_">
			<path id="XMLID_692_" class="st1" d="M348.2,215.7c0,13.5-10.1,22.1-20.2,23.6c-9.6,1.5-19.3-3.5-19.3-16.5
				c0-50.4,0-100.7,0-151.1c0-13,9.9-24.3,19.7-28.5c9.9-4.2,19.7-1,19.7,12.7C348.2,109.2,348.2,162.4,348.2,215.7z M321.9,227.8
				c0,5.1,3.1,6.9,6.4,6.3c3.3-0.5,6.8-3.6,6.8-8.6c0-57.5,0-115,0-172.5c0-4.9-3.3-6.2-6.6-4.8c-3.3,1.4-6.6,5.4-6.6,10.2
				C321.9,115,321.9,171.4,321.9,227.8z"/>
			<path id="XMLID_689_" class="st1" d="M406,231.7v2c-7.1,1.3-20-1.9-20.7-24.5c-1.1-34.6,2.4-53.8-4.9-73.4
				c-2.6-7.1-7.7-7.9-9-7.6c0,29.7,0,55.1,0,84.8c0,12.4,4.3,16.4,6.1,16.3c0,2.2,0,1.2,0,3.3c-8.8,0.5-15.9,1.4-24.7,2.3
				c0-2.1,0-1.1,0-3.2c1.8-0.2,5.5-5.1,5.5-16.8c0-57.4,0-106.3,0-163.9c0-12.4-2.6-13.8-4.4-13.1c0-1.1,0-1.4,0-3.6
				c8.8-3.4,13.2-5,21.9-7.9c9.9-3.3,19.7,1.4,19.7,16.1c0,23.7,0,42.2,0,65.9c0,13.5-18,17.2-18,17.2s9.4,2.3,14.8,15
				c8.2,19.2,5.1,37.7,5.1,75.2C397.4,228.6,406,231.7,406,231.7z M375.6,121.8c4.6-1.8,6.8-5,6.8-9.1c0-24.9,0-49.9,0-74.8
				c0-5.3-3.3-7-6.6-5.9c-1.8,0.6-2.6,0.9-4.4,1.5c0,29.8,0,59.5,0,89.3C373.1,122.4,374,122.2,375.6,121.8z"/>
			<path id="XMLID_686_" class="st1" d="M446.2,212.8c0,15.3-10.1,22.3-20.2,21.6c-9.6-0.7-19.3-8.6-19.3-23.5
				c0-57.6,0-115.2,0-172.7c0-14.9,9.9-25.2,19.7-27.2c9.9-2,19.7,4.7,19.7,20.3C446.2,91.8,446.2,152.3,446.2,212.8z M419.9,219.7
				c0,5.8,3.1,8.6,6.4,8.8c3.3,0.2,6.8-2.4,6.8-8c0-65.4,0-130.9,0-196.3c0-5.6-3.3-8-6.6-7.4c-3.3,0.6-6.6,4.3-6.6,9.8
				C419.9,91,419.9,155.3,419.9,219.7z"/>
		</g>
		<g id="XMLID_681_">
			<path id="XMLID_682_" class="st1" d="M106.4,283.9c0,0-2.6,0.5-7.1,1c-4.4,0.5-7.3,0.7-7.3,0.7l0-1.6c0,0,3.2-1.8,4.4-8.1
				l0.2-1.2l16.8-108.1l0.2-1.2l1.5-9.2l0.2-1v-1.3c0-0.3-0.1-0.6-0.3-1.1c0,0,3-1.2,5.4-2.3c3.6-1.7,6.7-3.5,6.7-3.5l16,118.8
				c0,0,0.9,5.4,2.6,7.4c2.3,2.8,4.2,3.4,4.2,3.4v1.8c0,0-4.1,0.9-10.4,1.9c-8.1,1.3-11.7,1.5-11.7,1.5v-1.7c0,0,1.9-1.3,2.6-4.5
				c0.5-2-0.2-7.6-0.2-7.6l-2.8-20.2l-20.6,2.3l-3.2,21.1c0,0-0.9,5.3-0.2,7.4c0.8,2.5,3.1,3.8,3.1,3.8L106.4,283.9z M108,242.4
				l18.3-2l-8.4-62.6L108,242.4z"/>
		</g>
	</g>
	<g id="XMLID_663_">
		<g id="XMLID_60_">
			<path id="XMLID_64_" class="st0" d="M244,167c1.4-0.4,3-0.5,4.8-0.4c1.8,0.1,3.4,0.5,4.8,1.2c2.7-6.1,6-12.8,9.8-20.2
				c3.9-7.4,7.9-14.4,12-21c4.1-6.6,8.1-12.3,12-17c3.9-4.7,7.1-7.5,9.7-8.3c2.1-0.6,4.1-0.7,6-0.3c1.8,0.3,3.4,0.9,4.8,1.8
				c1.3,0.8,2.4,1.8,3.1,2.8c0.8,1,1.2,1.9,1.5,2.7c0.2,1.6-0.5,3.8-2,6.6c-1.6,2.8-4.5,6.9-8.7,12.3c-4.2,5.4-10,12.4-17.3,21
				c-7.3,8.6-16.5,19.6-27.6,32.9c-0.9,1.9-1,3.1-0.5,3.6c0.3,0.5,1.4,0.3,3.2-0.5c1.8-0.8,3.9-2,6.2-3.5c2.3-1.5,4.6-3,6.8-4.6
				c2.2-1.6,3.8-2.9,4.8-4c1.1-1.1,1.9-1.7,2.4-1.7c0.5-0.1,0.9,0.1,1,0.6c0.2,0.5,0.1,1.1-0.2,2c-0.3,0.8-0.9,1.7-1.6,2.5
				c-5.5,6.2-9.8,10.7-12.8,13.6c-3.1,2.9-5.3,4.6-6.7,5.1c-1.8,0.5-3.5,0.1-5-1.2c-1.5-1.3-2.8-3-3.9-4.9c-1.9,2.4-3.8,4.4-5.7,6.2
				c-1.9,1.8-3.3,2.8-4.3,3.1c-1.2,0.3-2.5,0.5-4,0.3c-1.5-0.1-2.8-0.5-4.2-1.1c-1.3-0.6-2.6-1.5-3.6-2.6c-1.1-1.1-1.8-2.5-2.1-4.1
				c-0.4-1.9,0-4.1,1.4-6.6c1.3-2.5,3-4.9,5-7.2c2-2.3,4-4.3,6.1-6C241.2,168.4,242.8,167.4,244,167z M238.4,192.3
				c0.5,0.5,1.7,0,3.4-1.3c1.7-1.4,4-4.1,6.8-8.1c0-1.4,0.2-2.8,0.6-4.3c0.4-1.4,1.1-3.2,1.9-5.2c-1.3,0.5-2.8,1.6-4.5,3.5
				c-1.7,1.8-3.3,3.8-4.7,6c-1.4,2.1-2.5,4.2-3.2,6.1C237.9,190.8,237.8,191.9,238.4,192.3z M304.8,109.3c-0.5-0.3-1.5,0.4-3,1.8
				c-1.5,1.5-3.2,3.6-5.3,6.2c-2.1,2.6-4.4,5.8-7,9.4s-5.2,7.5-7.9,11.6c-2.7,4-5.3,8.2-8,12.4c-2.6,4.2-5.1,8.2-7.3,12
				c2.9-3.5,5.9-7.2,9.1-11.1c3.2-3.9,6.3-7.7,9.3-11.5c3-3.8,5.9-7.5,8.5-11.1c2.7-3.6,5-6.7,6.8-9.5c1.9-2.8,3.3-5.1,4.2-6.9
				C305.1,110.8,305.3,109.7,304.8,109.3z"/>
			<path id="XMLID_61_" class="st0" d="M315.2,169.1c2-1.7,3.2-2.3,3.4-1.8c0.2,0.5-0.2,1.6-1.1,3.2c-1,1.7-2.3,3.7-4.1,6.1
				c-1.8,2.3-3.7,4.6-5.9,6.7c-2.1,2.2-4.4,4.1-6.8,5.9c-2.4,1.8-4.6,2.9-6.6,3.4c-1.4,0.4-3.2,0.2-5.5-0.5
				c-2.3-0.7-4.4-1.8-6.5-3.3c-2.1-1.5-3.8-3.3-5.2-5.4c-1.4-2.1-1.9-4.4-1.4-6.8c0.3-2,1.1-3.9,2.4-5.8c1.3-1.9,2.7-3.6,4.4-5.1
				c1.6-1.5,3.3-2.8,4.9-3.7c1.7-1,3.1-1.5,4.3-1.7c1-0.1,2.1,0,3.3,0.5c1.2,0.4,2.4,1,3.4,1.7c1,0.8,1.8,1.7,2.4,2.7
				c0.6,1.1,0.8,2.2,0.7,3.4c-0.2,1.2-1,2.7-2.4,4.4c-1.4,1.7-3,3.4-4.7,5.1c-1.9,1.9-4.2,3.9-6.8,6c2.4,0.4,6.2-0.8,11.4-3.5
				C303.9,178,309.4,174.2,315.2,169.1z M296.2,168.1c-0.4-0.3-1.4,0.1-3,1c-1.6,1-3.1,2.2-4.6,3.6c-1.5,1.4-2.8,3-3.8,4.7
				c-1,1.7-1.3,3-0.7,4c0.6-0.4,1.7-1.3,3.1-2.6c1.5-1.3,2.9-2.8,4.4-4.3c1.5-1.5,2.7-2.9,3.6-4.2
				C296.2,169.1,296.5,168.4,296.2,168.1z"/>
		</g>
	</g>
	<g id="XMLID_620_">
		<g id="XMLID_621_">
			<path id="XMLID_660_" class="st2" d="M311.8,261.1c-1.1,0.2-1.7,0.3-2.8,0.5c0-1.2-0.1-1.9-0.1-3.1c1.1-0.2,1.7-0.3,2.8-0.5
				C311.8,259.2,311.8,259.8,311.8,261.1z M309.6,277.1c-0.1-5.5-0.2-8.2-0.3-13.7c1-0.2,1.5-0.3,2.4-0.5c0.3,5.4,0.4,8.1,0.7,13.5
				C311.3,276.8,310.7,276.9,309.6,277.1z"/>
			<path id="XMLID_657_" class="st2" d="M313.8,255.4c1.4-0.2,2.1-0.3,3.5-0.6c2.2-0.3,3.3,0.8,3.4,3.3c0,1.1,0.1,1.6,0.1,2.7
				c0.1,1.9-0.7,3.2-2.2,4c-0.4,0.2-0.9,0.4-1.6,0.5c-0.2,0-0.2,0-0.4,0.1c0.1,3.1,0.2,4.7,0.3,7.9c-1,0.2-1.4,0.3-2.4,0.5
				C314.2,266.5,314,262.8,313.8,255.4z M316.3,257.6c0.1,2.1,0.1,3.2,0.2,5.3c0.2,0,0.3-0.1,0.6-0.1c0.3-0.1,0.6-0.1,0.7-0.2
				c0.4-0.3,0.6-0.7,0.6-1.3c0-1.1-0.1-1.6-0.1-2.7c0-0.8-0.4-1.2-1.1-1.1C316.8,257.6,316.6,257.6,316.3,257.6z"/>
			<path id="XMLID_654_" class="st2" d="M329.6,267.4c0.1,2.5-1.1,3.9-3.4,4.4c-2.3,0.4-3.5-0.6-3.6-3.1c-0.1-4.4-0.2-6.6-0.3-11.1
				c-0.1-2.5,1.1-4,3.4-4.3c2.3-0.3,3.5,0.8,3.6,3.2C329.4,260.9,329.5,263.1,329.6,267.4z M326.9,256.9c0-0.8-0.4-1.2-1.1-1.1
				c0,0,0,0,0,0c-0.7,0.1-1,0.6-1,1.4c0.1,4.4,0.2,6.6,0.3,11c0,0.8,0.4,1.2,1.1,1c0.7-0.1,1.1-0.6,1-1.4
				C327,263.5,327,261.3,326.9,256.9z"/>
			<path id="XMLID_651_" class="st2" d="M331.3,252.8c1.4-0.2,2.1-0.3,3.6-0.5c2.2-0.3,3.3,0.8,3.3,3.3c0,1,0,1.6,0.1,2.6
				c0,1.5-0.6,2.6-1.8,3.3c1.2,3.1,1.8,4.6,2.9,7.7c-1.1,0.2-1.6,0.3-2.7,0.4c-0.9-2.9-1.4-4.4-2.4-7.4c-0.1,0-0.2,0.1-0.3,0.1
				c0.1,3.1,0.1,4.6,0.2,7.7c-1,0.2-1.5,0.3-2.4,0.4C331.6,263.4,331.5,259.9,331.3,252.8z M333.8,255c0.1,2,0.1,3,0.1,5
				c0.2,0,0.3,0,0.6-0.1c0.3,0,0.6-0.1,0.7-0.2c0.4-0.2,0.7-0.7,0.6-1.2c0-1.1,0-1.6-0.1-2.6c0-0.8-0.4-1.1-1.1-1.1
				C334.3,254.9,334.1,255,333.8,255z"/>
			<path id="XMLID_648_" class="st2" d="M351.7,261.3c0.4,2.3,0.5,3.5,0.9,5.8c-1,0.1-1.5,0.2-2.5,0.4c-0.2-1.4-0.3-2.1-0.5-3.5
				c-1,0.1-1.5,0.2-2.5,0.3c-0.2,1.5-0.3,2.2-0.4,3.7c-1,0.1-1.5,0.2-2.4,0.4c0.3-2.5,0.4-3.7,0.7-6.2c0.6-4.5,0.9-6.8,1.5-11.2
				c1.3-0.1,2-0.2,3.4-0.3C350.6,255,350.9,257.1,351.7,261.3z M349.2,261.7c-0.4-2.8-0.6-4.1-1.1-6.9c-0.3,2.9-0.5,4.3-0.8,7.2
				C348.1,261.8,348.5,261.8,349.2,261.7z"/>
			<path id="XMLID_646_" class="st2" d="M359.3,261.1c1.1-4.6,1.6-6.9,2.7-11.5c1-0.1,1.5-0.1,2.5-0.2c0.1,6.5,0.1,9.7,0.2,16.2
				c-0.9,0.1-1.4,0.2-2.3,0.3c0-3.7-0.1-5.5-0.1-9.2c-0.8,3.8-1.2,5.6-2,9.4c-0.7,0.1-1,0.1-1.6,0.2c-0.9-3.6-1.4-5.4-2.3-9
				c0.1,3.7,0.1,5.6,0.1,9.3c-0.9,0.1-1.4,0.2-2.4,0.3c-0.1-6.7-0.2-10-0.3-16.7c1-0.1,1.5-0.1,2.5-0.2
				C357.5,254.5,358.1,256.7,359.3,261.1z"/>
			<path id="XMLID_643_" class="st2" d="M373.7,261.5c0,2.2-1.2,3.5-3.5,3.7c-2.3,0.3-3.5-0.7-3.5-3c0-4-0.1-5.9-0.1-9.9
				c0-2.3,1.1-3.5,3.5-3.6c2.4-0.2,3.5,0.9,3.6,3.1C373.6,255.7,373.6,257.7,373.7,261.5z M371.1,252c0-0.7-0.4-1-1.1-1c0,0,0,0,0,0
				c-0.7,0.1-1.1,0.4-1,1.2c0,3.9,0,5.9,0.1,9.8c0,0.7,0.4,1.1,1.1,1c0.7-0.1,1.1-0.5,1.1-1.2C371.2,257.9,371.2,255.9,371.1,252z"
				/>
			<path id="XMLID_640_" class="st2" d="M375.7,248.6c1.4-0.1,2.1-0.1,3.6-0.2c2.2-0.1,3.3,0.9,3.3,3.1c0,0.9,0,1.4,0,2.3
				c0,1.4-0.6,2.3-1.9,2.8c1.1,2.8,1.7,4.2,2.8,7c-1.1,0.1-1.6,0.1-2.7,0.2c-0.9-2.7-1.3-4-2.2-6.7c-0.1,0-0.2,0-0.3,0.1
				c0,2.7,0,4.1,0,6.8c-1,0.1-1.5,0.1-2.4,0.2C375.7,258.1,375.7,254.9,375.7,248.6z M378.1,250.7c0,1.8,0,2.7,0,4.5
				c0.2,0,0.3,0,0.6,0c0.3,0,0.6-0.1,0.7-0.1c0.4-0.2,0.7-0.5,0.7-1c0-0.9,0-1.4,0-2.3c0-0.7-0.4-1-1.1-1
				C378.7,250.7,378.5,250.7,378.1,250.7z"/>
			<path id="XMLID_637_" class="st2" d="M396,257.5c0.3,2.1,0.5,3.1,0.8,5.2c-1,0.1-1.5,0.1-2.5,0.2c-0.2-1.3-0.3-1.9-0.5-3.1
				c-1,0.1-1.5,0.1-2.5,0.2c-0.2,1.3-0.3,1.9-0.5,3.2c-1,0.1-1.5,0.1-2.5,0.2c0.3-2.2,0.5-3.3,0.8-5.4c0.7-4,1-5.9,1.7-9.9
				c1.4,0,2-0.1,3.4-0.1C395,251.7,395.3,253.7,396,257.5z M393.5,257.6c-0.4-2.5-0.6-3.7-0.9-6.2c-0.4,2.5-0.6,3.8-0.9,6.3
				C392.4,257.6,392.8,257.6,393.5,257.6z"/>
			<path id="XMLID_635_" class="st2" d="M398.3,262.6c0-5.9,0-8.9,0.1-14.8c1,0,1.5,0,2.5,0c0,5,0,7.5-0.1,12.6
				c1.6-0.1,2.3-0.1,3.9-0.2c0,0.8,0,1.2,0,2.1C402.1,262.4,400.8,262.4,398.3,262.6z"/>
			<path id="XMLID_632_" class="st2" d="M417.4,256.8c0.3,2,0.4,3,0.7,4.9c-1,0-1.5,0-2.5,0.1c-0.2-1.2-0.3-1.8-0.4-3
				c-1,0-1.5,0-2.5,0.1c-0.2,1.2-0.3,1.8-0.5,3c-1,0-1.5,0.1-2.5,0.1c0.3-2,0.5-3,0.8-5.1c0.7-3.7,1.1-5.5,1.8-9.2c1.4,0,2,0,3.4,0
				C416.4,251.4,416.7,253.2,417.4,256.8z M414.9,256.8c-0.3-2.3-0.5-3.5-0.9-5.8c-0.4,2.3-0.6,3.5-1,5.9
				C413.8,256.9,414.2,256.8,414.9,256.8z"/>
			<path id="XMLID_629_" class="st2" d="M419.8,247.8c1.4,0,2.2,0,3.6,0.1c2.2,0.1,3.3,1,3.2,2.9c0,0.8,0,1.2,0,2c0,1.2-0.7,2-2,2.3
				c1.1,2.5,1.6,3.8,2.7,6.3c-1.1,0-1.6,0-2.7,0c-0.8-2.4-1.3-3.6-2.1-6c-0.1,0-0.2,0-0.3,0c0,2.4-0.1,3.6-0.1,6c-1,0-1.5,0-2.5,0.1
				C419.7,256.2,419.7,253.4,419.8,247.8z M422.2,249.9c0,1.6,0,2.4-0.1,3.9c0.2,0,0.3,0,0.6,0c0.3,0,0.6,0,0.7-0.1
				c0.4-0.1,0.7-0.4,0.7-0.9c0-0.8,0-1.2,0-2.1c0-0.6-0.3-0.9-1.1-1C422.8,249.9,422.6,249.9,422.2,249.9z"/>
			<path id="XMLID_627_" class="st2" d="M435.1,248.3c0,0.8,0,1.1,0,1.9c-0.9,0-1.4-0.1-2.3-0.1c-0.1,4.6-0.1,6.8-0.2,11.4
				c-1,0-1.5,0-2.5,0c0.1-4.6,0.1-6.9,0.2-11.5c-0.9,0-1.4,0-2.3-0.1c0-0.8,0-1.2,0-1.9C430.8,248.2,432.3,248.2,435.1,248.3z"/>
			<path id="XMLID_625_" class="st2" d="M436.7,248.4c2.6,0.1,3.8,0.2,6.4,0.3c0,0.7,0,1.1,0,1.8c-1.6-0.1-2.4-0.1-3.9-0.2
				c0,1.5,0,2.2-0.1,3.7c1.4,0,2,0.1,3.4,0.1c0,0.7,0,1.1,0,1.8c-1.4,0-2-0.1-3.4-0.1c0,1.5,0,2.2-0.1,3.7c1.6,0,2.4,0,3.9,0.1
				c0,0.7,0,1.1,0,1.8c-2.6,0-3.8-0.1-6.4-0.1C436.5,256.3,436.6,253.7,436.7,248.4z"/>
			<path id="XMLID_622_" class="st2" d="M447.6,249c-0.2,3.7-0.2,5.5-0.4,9.2c-1,0-1.5-0.1-2.5-0.1c0-3.7,0-5.6,0-9.3
				C445.9,248.9,446.5,249,447.6,249z M444.6,259.5c1.1,0,1.7,0,2.8,0.1c0,0.8,0,1.3,0,2.1c-1.1,0-1.7,0-2.8-0.1
				C444.5,260.8,444.5,260.4,444.6,259.5z"/>
		</g>
	</g>
</g>
</svg>
