<?xml version="1.0" encoding="utf-8"?>
<!-- Generator: Adobe Illustrator 19.0.0, SVG Export Plug-In . SVG Version: 6.00 Build 0)  -->
<svg version="1.1" id="Layer_1" xmlns="http://www.w3.org/2000/svg" xmlns:xlink="http://www.w3.org/1999/xlink" x="0px" y="0px"
	 viewBox="0 0 1440 900" style="enable-background:new 0 0 1440 900;" xml:space="preserve">
<style type="text/css">
	.st0{fill:#F3E4B2;}
	.st1{opacity:0.13;fill:#5D5D5D;}
</style>
<rect id="XMLID_17_" x="0" y="0.7" class="st0" width="1440" height="900"/>
<path id="XMLID_923_" class="st1" d="M62.4,112.7c1.7,0.8,3.8,1.5,5.5,1.3c12.8-1.9,25.6-4,38.4-6.3c7.4-1.4,14.7-3.4,22.2-4.9
	c10.9-2.3,22.4-7.5,32.7-5.8c15.8,2.5,33.2-10.4,47.4,4.7c1.1,1.2,2.5,2.1,3.3,3.5c1.2,1.9,2,4,2.9,6c1.3-2.4,2.7-4.8,3.8-7.2
	c1.7-3.7,3.2-7.4,4.8-11.1c1.1,3.7,2.9,7.4,3,11.2c2.7,73.2,5.2,146.5,7.7,219.7c0.1,1.9-0.8,3.8-4.1,5.7c-1.7-18.6-3.3-37.2-5-55.9
	c-0.9-0.1-1.9-0.2-2.8-0.3c-1.3,4.9-2.9,9.8-4,14.8c-2.2,9.8-3.6,19.9-6.6,29.5c-1.1,3.6-5.1,7.1-8.7,9.1c-5.9,3.3-16.1,3.8-18,8.3
	c-4.2,9.7-5.1,21.1-5.8,32c-0.3,4.9,2.9,10.1,5.1,16.7c5.8,0.3,13.2,0.2,20.4,1.1c8.1,1,12.7,11.2,8.9,19.9
	c-2.7-16.1-16.6-14.3-27.1-18c-6.4-2.3-12.8-4.6-19.7-7c-0.6,2.7-1.6,7.2-2.7,12.5c-0.7-0.6-1.4-1-2-1.5c-1.9,11.4-3.2,18.7-4,26
	c-0.1,0.9,2,2.9,3.4,3.2c8.7,1.7,16.1,12.6,13.3,20.2c-0.2,0.7-0.5,1.9-0.9,1.9c-9.5,1.2-19.1,2.3-28.6,3.5
	c-0.1-0.8-0.2-1.5-0.3-2.3c3.8-1.5,7.6-2.9,11.4-4.4c-21.6-3.1-17.5-16.2-12.2-29.3c0.7-1.7,4.8-2.1,8.6-3.6
	c-0.9-1.4-2.4-3.8-4.3-6.7c2.3,0.3,4.4,0.5,6.8,0.8c1.2-1.8,2.8-4.1,6.4-9.5c-0.9-0.7-1.8-1.4-2.7-2c-1.2,0.6-2.4,1.2-4.2,2.1
	c-0.9-3.6-1.6-6.7-2.4-10.2c2.6-1.6,5.2-3.2,8.2-5c-3.2-1.7-5.7-3-10.2-5.4c3.8-0.2,5.3-0.3,8.4-0.4c-0.6-3.9-1.2-7.6-2.1-13
	c0.3-0.3,1-0.9,1.7-1.7c-1.5-0.7-2.7-1.3-3.8-1.9c-1.1-0.6-2.3-1.1-7.3-3.5c-3.2,7-6.6,13.7-9.3,20.6c-0.5,1.2,2,3.6,3.2,5.4
	c2.9,4.1,5.9,8.2,8.9,12.3c-3.9,1.5-7.9,2.9-11.8,4.4c-2.4-5.2-4.6-10-6.1-13.3c-13.1,5.5-27.9,11.5-42.6,17.8
	c-1.3,0.5-2.5,2.2-2.9,3.6c-2.3,6.8-4.3,13.8-6.9,22.3c-0.7-6.2-1.1-10.6-1.8-16.4c-0.2,0.2,1.2-1,2.2-1.9c-2.6-0.9-5.2-1.8-8.1-2.8
	c0.3,0.8,0.6,1.6,0.9,2.4c1.7,0.3,3.4,0.8,5.1,1c-0.9,1.7-1.9,3.5-2.8,5.2c3.7,10.6,6.8,21.3,8.2,32.2c4.4,2.4,7.2,7.2,5.3,13.5
	c-0.6,1.9-1.2,3.8-1.9,5.6c5.4,2,9.3,7.2,6.9,14.2c-1.3,3.8-2.7,7.5-4.2,11.1c0.8,0.4,1.6,0.8,2.4,1.2c1.4,0.7,3.6,2.8,3.3,3.4
	c-0.8,1.9-2.3,3.8-4,4.9c-1.6,1-3.9,1.4-5.9,1.4c-0.2,0-0.3,0-0.5,0c-7.4,16-16.4,31-26.5,45.4c-1.2,6.3-2.4,12.7-3.5,19
	c7.3,11.8,10.9,24.5,13.7,37.7c0.2,0.3,0.3,0.6,0.4,1c5.8,14.2,10.6,28.5,14.3,43c3.1,6,5.9,12.1,8.3,18.4
	c9.5,14.3,18.6,28.8,25.4,44.2c4.7,10.7,8.7,21.7,12.5,32.7c0.3-1.3,0.7-2.6,1-3.9c0.8,0.2,1.5,0.3,2.3,0.5l-1.6,8.3
	c2.6,7.5,5.1,15.1,7.8,22.6c1.9,5.3,3.8,11,6,16.7c0-1.9,0.1-3.7,0.1-5.6c0.1-2.7,7.5-5.3,7.4-7.9c-0.1-6.6-2-13.4-4.2-19.8
	c-2-5.6-3.2-8.9,4.9-9.2c3.3-0.1,6.5-3.2,11.3-5.7v31.1c0.8-0.1,1.7-0.1,2.5-0.2c0-7.7-0.3-15.5,0.2-23.2c0.1-2.1,2.4-5.1,4.3-5.7
	c16.7-5,33.5-9.6,52.6-15c-7.2-3-12.3-5.1-18.4-7.6c15-1,28.8-1.3,42.5-2.9c25.8-2.9,51.6-6.5,77.3-9.7c1-0.1,2.2,1.4,3.4,2.1
	c-1.4,1.9-2.5,5-4.3,5.5c-3.6,1-7.7,0.7-11.4,0.9c-0.4,2.8-0.7,5.1-1.1,8c-6.2-2.5-12.1-5.3-18.2-7.1c-1.3-0.4-5.5,2.9-5.4,4.3
	c1.5,26.5,3.4,53,5.4,79.4c0.4,4.8,1.7,9.4,3,16.1c-0.1,0.1-35.8,51.9-35.8,52c9.5,18.9,43.5-2.8,59.6,8.3
	c19.4,13.3,59.4,13.1,79.5,18.2c27,6.9,55.4-0.1,82.8,5c28.1,5.2,56.1-4.1,84.2,1.5c2.9,0.6,5.5,2.5,8.2,3.8
	c221.3,0,442.6,0,663.9-0.1c-3.5-8.7-17.9-17.8-20.3-26.8c-10.3-11.5-3.9-27.6,1.7-42.4c6.9-18.1,10.3-36.6,17.1-56.1
	c-7.7-3.4-10.9-4.7-18.6-8.1c8.7,1,17.5,1.9,26.5,2.9c4.8-10.4,10.1-20.6,15.9-30.5c-0.1-0.1-0.2-0.2-0.3-0.4
	c-20.3-30.7-49.4-50-82.3-64.9c-7.3-3.3-13.5-9.2-20.2-13.9c0.8-1.4,1.6-2.8,2.4-4.2c53.2,4.3,109.6,9.9,164.4,14.9
	c0.6-0.7,1.3-1.3,1.9-2c-55.7-5.4-113.1-11.6-167.2-16.4c0.1-1.4,0.2-2.9,0.3-4.3c55.6,4.4,114.5,10.3,171.6,15.3
	c0.1-0.2,0.3-0.3,0.4-0.5c0.8-1,1.4-1.7,1.8-2.3c-33.1-3.2-67.3-6.9-98.7-9.5c-24.1-2-48.2-4.5-72.3-6.8c-1.7-0.2-3.3-0.6-4.9-2.6
	h56.3c0.1-1.4,0.3-2.7,0.4-4.1c-6.1-0.8-12.1-1.6-18.5-2.4c-0.1-0.4-0.9-2.4-2-5.5c12.8,0.8,29.3-3.2,38,3.3
	c23.6,17.6,51.1,8,75.5,15.9c1.1,0.4,2.5-0.2,6.3-0.6c-6.6-2.9-11.9-5.2-17-7.4l50,1.5c3.5-5.1,7-10.2,10.6-15.3
	c6.3-8.9,12.9-17.5,19.6-26.1l-4.3-95.1c-2-0.5-3.9-0.9-6.9-1.6c1,8.9,2,17.1,3.1,27c-4.2-3.2-6.1-4.6-10.6-8
	c0-10.8-0.1-24,0.2-37.2c0-1.1,3-3.1,4.3-2.9c1.4,0.2,2.8,2.4,3.6,4c2.2,4.1,4.1,8.3,6.2,12.5v-34.6c-9.7,1.7-19.4,3.9-29.1,5.1
	c-4.4,0.5-8.9-1.2-13.4-1.3c-4.9-0.1-9.8,0.5-14.6,0.8c-0.1,1.3-0.2,2.7-0.3,4c1.7,0.3,3.4,0.6,5.1,0.8l0.8,3.8
	c-4.8,1-9.7,2.8-14.5,2.7c-3.4-0.1-6.8-2.8-10.2-4.3c1.4,2.8,2.8,5.5,4.3,8.6c-3.5,0.7-7.1,1.5-10.7,2.2c0-0.4,0-0.8,0-1.1
	c-4.9,0-10.6,1.5-14.5-0.5c-3-1.5-4.3-7.1-5.4-11.2c-0.3-1.1,2.9-4.2,4.7-4.5c7.2-1.2,14.5-1.6,21.5-2.3c-3.1-12.7-5.2-21.4-7.1-29
	c9.1-3.2,18.3-6.3,27.4-9.5c1.1,3.3,2.3,6.7,3.5,10.3c1.4,1.3,3.4,3.2,7.4,7c-1.4-24.7-2.7-47.6-4.2-73.5c-10.3,0-21.7,0.3-33.1-0.1
	c-11.3-0.3-22.6-1-33.8-2.4c-1.8-0.2-3.1-4.8-5.2-8.3c4,0.8,6,1.2,8.1,1.7c-0.7-2.6-0.9-5.3-2.1-7.7c-1.8-3.6-4.4-6.8-6.5-10.3
	c-0.8-1.3-1-2.9-1.5-4.3c1.6,0.4,3.2,1,4.8,1.1c3.4,0.2,6.9,0.1,10.5-2.5c-2.4-1.2-4.7-2.4-7.1-3.7c-0.7,0.7-1.4,1.5-2.2,2.2
	c-3.4-3.2-6.8-6.4-9.8-9.3c0.1-0.5-0.1,0.4-0.6,4.6c-3.4-13.6-6.1-24.4-9.3-37c-0.1,0.3,0.6-1.9,1.5-4.4c1.5,0.4,3.2,1,4.9,1.5
	c0.4-0.8,0.7-1.5,1.1-2.3c-3.4-1.5-6.9-3-10.2-4.4c-1-3-2.1-6.5-4.1-12.9c2.9,3.6,4.5,5.6,6.2,7.6c0.9,1.1,1.9,2.1,2.9,3.2
	c0.3-1.5,0.7-3.1,0.7-4.6c0.1-2.5,0-4.9,0-5.4c-2.7-4.8-4.8-8.7-7-12.6c0.8-0.6,1.6-1.2,2.3-1.8c2.7,1.9,5.4,3.8,8.2,5.6
	c0.8,0.5,1.8,0.6,2.8,0.6c4.8,0.1,9.7,0,13.6,0c2.3,11,4,19.1,5.4,26c1.8-4.1,4.2-9.6,6.8-15.4c-0.2-0.1-1.7-1-4.2-2.6
	c10.7-0.9,19.6-1.6,28.4-2.4c0.3,0,0.8,0.2,0.8,0.3c1.4,10.9,3.8,21.8,3.6,32.7c-0.1,7.3-3.9,14.6-5.7,21.9
	c-0.1,0.3,2.5,1.9,3.8,1.9c11.7,0.3,23.4-0.1,35,0.6c11.7,0.7,23.4,2,34.9,3.9c2.2,0.4,9.3,12.9,11.2,15.6l-5.6-277.8
	c-3.8-2.9-7.6-5.8-10.4-7.8c-4.3,5.6-9,11.3-13.2,17.4c-0.6,0.9,0.8,3.8,1.9,5.3c3.3,4.6,10.4,9.5,9.8,13.5
	c-2,15.2-13.1,5.5-20.7,6.3c-5.8,0.6-11.4,3.2-17.1,5c-7.2,2.3-14.4,4.7-21.6,7.1c-0.4-1.1-0.7-2.3-1.1-3.4
	c-2.6,3.1-5.2,6.1-7.8,9.2c-1.2-0.1-2.3-0.2-3.5-0.4V98.1c3,2.5,5.7,4.8,8.4,7c1.3-3.9,2.6-7.7,3-8.8c4.2,2.5,8.7,5.1,13.2,7.8
	c2.1-4.1,5.6-8.1,5.7-12.2c0.1-2.3-5.5-4.8-7.5-6.4c-2.5,1.1-4.4,2-6.4,2.7c-7.2,2.6-15.8,3.6-21.3,8.3c-4.5,3.8-5.3,11.8-7.8,18
	c-0.5,1.2-0.9,2.4-1.4,3.6c-1.1-0.7-2.4-1.2-3.4-2.1c-14.7-12.2,2.3-19.3,4.8-28.6c0.7-2.8,2.2-5.4,4.3-10.4
	c-7.1,8.4-12.3,14.5-17.6,20.8c-2.1-1.6-3-2.3-4.4-3.4c-1.1,1.3-2.1,2.5-3.1,3.7c-17.5,14.5-35,29.1-53.9,44.7
	c-0.4-1.4,0.2,0.6,1,3.2c6.9-6.1,13-11.9,19.6-17c5.8-4.4,12.2-8.1,18.4-11.9c0.5-0.3,2.4,0.6,2.8,1.4c0.4,0.7-0.2,2.3-0.9,3
	c-3.1,2.9-6.3,5.6-9,7.9c12.7,22.3,44.3,11.4,58.2,33.4c0.3-0.3,1.6-1.3,2.6-2.5c1-1.2,1.7-2.6,2.2-3.3
	c9.6,32.4-23.2,46.9-30.4,71.7c-3,1-5.1,1.7-5.4,1.8c-2.9-7.3-5.8-14.5-10-25c-2.5,7.5-3.7,11.3-4.6,14h-9.6
	c1.3-0.8,2.6-1.5,3.8-2.3c-1.9-5.4-3.8-10.8-5.7-16.2c-0.6,0.2-1.3,0.3-1.9,0.5c-0.1,2.1-0.3,4.1-0.6,9.2c-2.5-4-4.6-6-4.2-7.2
	c0.9-2.5,3-4.5,4.6-6.7c-0.9-1-1.7-2-2.6-3c2.4-0.5,5-1.6,7.3-1.2c1.7,0.3,3,2.8,4.8,3.6c3.1,1.4,6.5,2.2,9.8,3.3
	c0.4-1.2,0.9-2.4,1.3-3.6c-3.3-1.8-6.6-3.6-11.1-6.1c14.8-3.1,28.8-6,42.9-8.9l-0.7-4.3c-13.2,2.1-26.5,4.1-39.5,6.2
	c0.1-1,0.3-3.6,0.4-6.1l0.1,0.1c-0.2-3.1-0.3-6.1-0.5-8.5c-1.5,0.7-4.1,2-8.6,4.2c0.4,2.6,1.4,9.2,2.5,16.1c-2.2,0.4-4.5,0.8-5.7,1
	c-7.5-13.8-14.7-27-21-38.8c-3.8,3.2-6.5,5.5-9.9,8.3c-1.9-6.6-3.4-11.9-4.5-15.7c-6.6-4.6-12.3-8.4-14.6-10
	c-2.4-15.9-4.4-29.3-6.4-42.7c-1.2,0.2-2.5,0.5-3.7,0.7c1.5,6.7,4.5,13.6,4,20.1c-0.5,7.3-4.3,14.3-6.5,21.1
	c-6.6-6.7-11.9-12-17.2-17.3l-3.5,2.9v-5.1c-3.2-2.1-5.9-3.8-11.2-7.4c-3.4,1.3-9.9,3.8-16.9,6.5c1.7,3.8,2.3,4.9,2.8,6
	c-0.6,0.6-1.3,1.3-1.9,1.9c-2-2.1-4-4.3-6-6.4c-0.4,0.8-1.1,2.3-1.3,2.6c-8,2-13.8,3.4-19.9,5c-0.1-2.3-0.2-3.9-0.4-6.9
	c-3.7,1.9-6.7,3.5-10.2,5.3c-1.2-0.6-3.2-1.7-3.2-1.7c-6.1,5.1-11.3,9.4-16.2,13.5c2,2.7,3.9,5.3,5.8,8c-2.8-2.4-5.5-4.8-8.4-7
	c-2.1-1.6-4.3-3-6.4-4.4c-3.3,5.5-6.6,10.9-10.1,16.8c5.2-3.1,9.9-5.8,14.6-8.6c0.6,1,1.1,1.9,1.7,2.9c-2.6,1.3-5.2,2.7-7.8,4
	c-0.8,0.4-1.8,0.3-2.4,0.8c-2.9,2.4-5.8,5-8.7,7.6c-1.5-5.2-2.9-10.5-4.4-15.7c-0.7-2.5-1.6-4.9-3-9.2c-4.2,8.4-7.4,14.6-10.5,20.8
	c-2.6-8.1-5-15.7-7.5-23.8c0.5-0.4,1.5-1.2,5.7-4.6c-5.5,1.4-7.4,1.8-10.3,2.5c-1.1-0.5-3.4-1.7-6-3.1c1.2-1.1,2.2-2.1,3.3-3
	c-0.8-0.9-1.6-1.7-2.4-2.6c2.9-2.7,5.8-5.3,6.8-6.2c9.9-4.9,16.9-8.4,27.5-13.6c2.5,10.3,4.5,18.8,6.3,26.4c3.5-8.1,7-16,10.4-23.6
	c-3.7-0.8-9.7-2.1-19.7-4.2c5.8-2,7.2-2.4,8.5-2.9c-0.5-0.9-1-1.9-1.5-2.8c-3.2,1.7-6.5,3.3-9.6,5.2c-11.8,6.9-23.5,13.8-35.3,20.8
	c-1.6-1-6-3.6-10.4-6.3c-1.9,4.7-3.9,9.5-6.9,16.8c-2.3-3.8-4.6-7.6-7.1-11.8c-5,4.9,5,22-11.7,19c-9-1.6-17.4-6.6-27.9-10.8
	c-3.5,3.5-9.8,8.9-14.8,15.2c-6.2,7.9-16.5,9.7-24.5,3.2c-1.1-0.9-2.9-1-4.3-1.6c-2.1-0.9-4.8-1.5-5.8-3.2c-0.6-1.1,1.3-3.7,1-7.3
	c3.1-2.9,6.1-5.8,9.2-8.7c-11.9,5.2-22.9,17-36.7,7c0.1,0,1.4-0.1,3-0.3c-11.3-7.9-24.7-4.7-36.8,10.2c10.2,2.6,20.3,3.3,28.2,7.8
	c5.8,3.4,8.6,11.8,12.8,17.9h7.7c-2.2,4.6-4.5,9.2-6.7,13.8c-1.5,3-2.8,6.1-4.2,9.2c2.3-1,4.9-1.5,6.8-2.9
	c11.1-8,21.8-16.6,33.2-24.2c3.8-2.6,9.2-2.9,15.1-1.4c-24,17.8-48.1,35.6-72.1,53.5c0.4,0.6,0.7,1.1,1.1,1.7c1.7-0.6,3.3-1.2,5.3-2
	c0.1,0.1,0.1,0.3,0.2,0.4c7.2,0.9,12.6,1.5,18,2.2c-3.4,5.8-6.8,11.5-11,18.6c-2.7-4.7-4.3-7.6-5.3-9.5c2.1-2.2,3.9-4.2,5.7-6.2
	c-1.2-0.8-2.4-1.7-3.6-2.5c-2.3,4.2-6.4,8.2-6.6,12.5c-0.5,9.3-7.7,18.3-15.7,17.3c-1.1-4.3-2.2-8.6-3.2-12.9
	c-2.1,1.4-4.5,2.5-6.3,4.3c-2.4,2.3-5.1,4.6-6.2,7.5c-2.2,5.7-3.7,11.7-5,17.7c-1.3,6.2-1.8,12.5-4.8,18.8
	c-1.1-4.1-2.3-8.2-3.5-12.7c-1.6,3.5-2.8,6.2-4.1,9c-0.2-3.8-0.5-7.5-0.6-11.3c-0.2-7.8-1.3-15.7,0-23.2c0.4-2.8,6.1-4.9,9.7-6.9
	c1.3-0.7,3.4-0.1,5.1-0.1l-0.6-3.8c-7.1,1.5-14.6,2.2-21.2,5c-1.8,0.8-0.8,8-1.1,12.8c-1.5-0.9-2.4-1.4-4.8-2.7
	c-6.2,7.2-12.4,14.5-18.8,22c-0.7-1-1.5-2.1-3.6-5c-1.5,8.4-2.7,15.4-3.9,22.6c-1.3-0.3-2.7-0.5-4.1-0.8c-1,0.9-2,1.8-3,2.7
	c2.8,3,5.6,6,8.4,9c1.1,1.1,3.1,2.5,2.9,3.4c-0.6,3-1.6,6-3.1,8.7c-0.7,1.3-2.8,1.9-5.2,3.5c0.1,0-1.2-0.2-2.4-0.5
	c0.3-0.7,0.5-1.4,0.8-2.1l-8.9-3.6c-14.4-9.9-37.1-1.5-46.9,6.1c-1.5,1.2-5.2-0.1-6.3,1.2c-3,3.2-5.1,7.1-8.1,11.5
	c-1.1-0.7-4-1.9-5.7-4c-0.8-1,0.9-3.8,1.7-6.8h-5.5c-1.1-1.5-2.3-3-3.7-4.8c2.7-4.3,5.7-8.9,8.7-13.6c1.1,0.7,2.3,1.4,3.4,2
	c1-5.8,2.1-11.6,2.7-15c3.5-2.6,5.5-4,8.9-6.5c-0.1,0-0.1,0-0.1,0c0.4,0.1,1.5,0.4,2.9,0.9c-0.7-3.9-1.2-7.1-1.9-10.7
	c-0.6-0.1-1.8-0.4-3.4-0.8c3.9-2.9,7.2-6.4,11.2-7.9c2.8-1,6.6,0.7,11.4,1.3c0,0,0,0,0,0c0,0.4,0.2,2,0.4,3.6
	c6.8-4.2,13.5-8.4,19.8-12.4c-2.9-2.5-4.9-4.1-6.9-5.8c3.3-0.9,6.6-1.5,9.9-2.6c6-2,12.9-3.1,17.8-6.8c8.6-6.3,17.9-13,23-21.8
	c3-5.1-1.2-14.6-2.5-22.1c-0.1-0.8-1.8-1.6-2.8-2c-20.6-6.1-27.6-19.5-25.3-40.7c1.8-16.6-0.6-33.6-0.5-50.5c0-2.1,3.7-5.9,5.9-6
	c44.3-2.4,88.6-4.3,132.9-6.3c1.8-0.1,3.5,0.6,5.7,1.1c1.6-13.9,14.1-7.8,22.2-9.5c1.6-0.3,4.3,8,7.6,11.4c1.7,1.8,5.6,1.7,8.5,1.8
	c2,0.1,4-1.1,5.6-4.5c4.2-1.2,8.5-3.2,12.8-3.4c24.2-1.3,48.4-2,72.6-3.7c2.7-0.2,7.5-6.3,7.2-9.1c-1.3-10.1,1-16.2,12.1-17.1
	c3.3-0.3,6.6-1.7,9.9-2.4c2.4-0.5,6.7-1.6,7.1-0.9c1.6,3.2,2.2,6.9,3.1,10.5c1.1,4.6,2.1,9.2,3.4,15.1c2.9-2.7,5.1-4.7,8.1-7.5
	c1,3.2,1.7,5.6,2.2,7.4h75.7c9-0.2,9-0.2,5.2-18.2c-4.6-21.9-3.7-22.7,19.1-23.7c9.6-0.4,14,3.6,14.7,12.8c0.2,2.3,0.9,4.5,1.5,7.4
	c1.2-1.1,1.8-1.5,2.2-2c2.4-2.5,4.8-5,7.2-7.5c0.8,0.9,2.4,2,2.2,2.7c-1.2,4.8-1.5,10.8-4.6,14c-4.4,4.7-10.5,8.3-16.5,10.7
	c-12.9,5-26.2,8.8-39.2,13.2c-1.2,0.4-2.4,0.8-3.6,1.2c7.2,2.3,11.5,4.2,16,5c8.9,1.6,13.8-0.6,8.6-10.7c0.2-0.2,0.4-0.4,0.6-0.6
	c5.8,7.3,8.8,2.1,15.3-0.1c9-3.1,21.9,2.8,32.1,7.2c3.4,1.5,3.1,10.4,5.6,15.4c1.1,2.2,4.9,3.1,6.2,3.8c2.9-3.9,4.3-6.1,6.2-7.8
	c0.5-0.4,3.9,1.3,3.8,1.6c-1.1,4.8-2.2,9.7-4,14.3c-0.3,0.9-3.8,0.4-5.4,0.6c-2.3,2.3-4.9,4.9-7.5,7.5c-1-0.8-2-1.5-3-2.3
	c-0.2,0.9-0.3,1.7-0.4,2c0,0,0,0,0,0c-4.4,2.8-7.7,5-11.5,7.4c1.3,0.4,3.1,0.9,6.3,1.8c-3.8,3.3-7,6.2-10.2,9
	c0.5,0.7,1.1,1.4,1.6,2.1c10.1-8.1,20.3-16.1,30.4-24.2c3.4-2.8,6.7-5.7,10-8.7c4-3.7,8.1-7.4-0.5-10.5c-1-0.3-2.1-1.5-2.3-2.4
	c-1.7-8.2-3.2-16.4-4.4-22.9c10.8,12.7,19.4,14.6,24.9,4c1.1,0.3,2.3,0.6,3.7,1c0.9-1.2,1.9-2.4,2.9-3.7c0.7,0.4,1.4,0.8,2.1,1.3
	c-2,3.5-4,7-6,10.5c0.7,0.4,1.4,0.7,2.1,1.1c2.4-4.3,4.9-8.6,8.3-14.7c4.1,0.2,10.2,0.6,16.4,1c-0.1,1.1-0.2,2.2-0.3,3.3
	c-5.4,0.6-10.9,1.2-17.9,1.9c5.4,2.1,10.2,4,14.8,5.7c3-1.1,6.2-2.4,12.8-4.9c2.9-2.2,9.1-6.8,13.3-10c-1.2-10.4-2.4-20.9-3.7-32.5
	c-0.2,0-1.5-0.8-1.6-1.6c-0.1-1.3,1.2-2.7,2-4c0.9-1.5,2-2.9,3-4.4c-1.8-0.7-3.6-2-5.5-2c-10.5-0.2-21-0.1-32.8-0.1
	c3.3-4.9-4-5.3-9-6.3c-1.4,3.8-6.3,8.3-10,8.8c-15.9,2.2-32.1,3.2-48.1,3.9c-2.3,0.1-5.3-3-7.2-5.3c-6.2-7.4-11.7-10.5-16.5,1
	c-0.4,0.8-1.6,1.3-4.2,0.7c1.8-3,3.7-5.9,7-11.3c-6.9,3.9-11.6,6.5-17.1,9.5c0.7-2.4,1.1-3.8,1.9-6.4c-5.2,4.3-9.5,7.9-14,11.4
	c-1.8,1.4-3.8,3.3-5.8,3.5c-26.5,2.2-53,4.5-79.6,5.9c-6.6,0.3-14.6-5.4-20-3.3c-33,12.7-67.7,9-101.6,11.3
	c-118,8.1-208.6,38.6-354.2,21.6c-21.4-2.5-43,2.4-64.5,3.3c-2.4,0.1-6.6-1.6-6.9-3.1c-0.7-3.3-1-6.7-1.2-10.2
	c-5.8,1.1-11.7,1.9-17.6,2.5c0.5,2.8,0.9,5.7,1.4,8.5c0.1,0.6-1.8,2-2.7,2c-11.4,0.1-22.7,0.1-34.4,0.1c-0.1-2.1-0.2-3.4-0.3-6.1
	c-2.6,1.5-4.5,2.6-6.2,3.6c-1.2-1.8-2.8-4-4.3-6.2c-34.3-0.1-69.7,8-103.9,10.6c-50.7,3.9-100.1,0.5-150.9,1.6 M1363.5,469.3
	c1.1,3.1,2.3,6.3,3.4,9.4c-1.2,0.5-2.3,1-3.5,1.5c-1.3-3.1-2.6-6.2-4-9.3C1360.8,470.4,1362.1,469.9,1363.5,469.3z M1249.4,116.8
	l-1.3-1.1c2.8-5.8,5.6-11.7,8.3-17.5c1.4,0.2,2.8,0.3,6.4,0.7C1257.7,105.7,1253.5,111.3,1249.4,116.8z M904.6,147.1
	c-3.8-0.3-7.6-0.6-11.3-0.9l0-2.3c-3.8,1.2-7.6,2.3-12.1,3.7c0.2-1.7,0.4-4,0.5-5.2c3.3-2.1,5.9-3.7,7.2-4.5
	c6.2,2.4,11.2,4.3,16.1,6.2L904.6,147.1z M197.2,342.2l2.1-6.3c1.8,1.2,3.7,2.4,8.3,5.5C202.4,341.8,199.8,342,197.2,342.2z
	 M1231.2,444.2c0.7,4.3-0.1,8.9,0.2,13.3c0.1,1.2,1.7,2.3,4.6,5.9c1.7,12.6,3.9,28.5,6.3,45.8c-5.2-2.3-8.7-3.9-16.6-7.4
	c7.4,8.4,12.1,13.7,18.5,20.9c-1.5,2.6-4.9,8.6-10.3,18.1c-4.2-14.1-7.4-25.1-10.7-36c0.4-0.1,0.8-0.2,1.2-0.3
	c-1-3.7-2-7.3-2.8-10.2c-0.4-0.2,0.8,0.4,3.9,2c-5.7-30.5-11.2-59.6-17-90.7c1.9-0.5,8.1-2.2,14.2-3.9c0.7,3.5,1.3,7,2,10.4
	C1226.9,422.7,1229.4,433.4,1231.2,444.2z M1204.4,581.3c0,0.5,0,0.9,0,1.4h-13.6c0-0.7,0-1.5,0-2.2
	C1195.4,580.8,1199.9,581.1,1204.4,581.3z M1191.9,563.6l2-0.6c2.3,3.6,4.7,7.2,8,12.3c-3.6-0.5-7.1-0.2-7.6-1.2
	C1192.9,570.9,1192.7,567.2,1191.9,563.6z M1202.7,547.1c4.9,4.2,9.3,8,13.7,11.9c2.9-3.4,5.9-6.9,7.1-8.3v29.5
	c-7.4-4.4-14.5-6.4-17.4-11C1201.8,562.4,1193,553.9,1202.7,547.1z M1208.9,472c-0.1-0.2,3.1-2.3,6.5-4.9c1.9,4.9,3.5,8.3,4.3,11.9
	c0.2,0.9-2.5,2.4-3.8,3.7C1213.4,479.1,1211,475.6,1208.9,472z M1229.8,214.9c-1.7,10.4-3.3,20.9-5,31.4c-0.8,0.3-1.5,0.6-2.3,0.9
	c-2.2-7.2-4.4-14.4-7.5-24.4c3.8,2.8,4.9,3.6,5.3,4C1223.8,222.5,1226.9,218.5,1229.8,214.9z M1226.5,195.2
	c-3.4,9.8-5.8,16.6-8.9,25.2c-5.7-6.9-10.4-12.7-15.9-19.4c0.2,0-0.9,0.2-1.9,0.4c-0.4-0.8-0.9-1.6-1.3-2.4c3.1-1.9,6.2-3.7,9.4-5.6
	c0,2.2-0.3,4.4,0.1,6.5c0.5,2.6,1.5,5.2,2.8,9.4C1215.8,204.9,1219.8,201.3,1226.5,195.2z M1185.6,134.9l0.3,1
	c-3.2,3.5-6.4,6.9-9.5,10.4c0.7,0.8,1.4,1.5,2.1,2.3c-1.6,2.1-3.3,4.2-5.5,7c-0.7-1.5-1.8-3.7-3.9-8.1
	C1174.3,143.4,1180,139.1,1185.6,134.9z M1185.2,158.9c-2,1.3-4,2.7-6,4c-0.6-0.8-1.2-1.7-1.8-2.5c1.7-1.1,3.4-2.3,5.3-3.1
	C1183.2,157,1184.4,158.3,1185.2,158.9z M1173.6,161.9c-3.4,0.8-6.8,1.7-10.2,2.5c-0.2-1.2-0.5-2.4-0.7-3.6
	c3.4-0.4,6.9-0.7,10.3-1.1C1173.2,160.4,1173.4,161.1,1173.6,161.9z M1167.8,133.8c-1.1,2.8-1.9,5.6-3.4,8.1
	c-0.2,0.3-3.4-1.1-9.4-3.1C1161.9,136.1,1164.8,135,1167.8,133.8z M1092.9,182.2c1.5-5.5,8.5-9.4,13-14.1c0.8,0.8,1.7,1.6,2.5,2.4
	l-2.4,3.8c1.1,1.1,2.1,2.3,3.2,3.4c1.6-1.8,3.1-3.6,4.9-5.7c0.4,0.7,2,3.4,3.3,5.6c2.4,0.9,4.6,1.7,6.8,2.6c-1,2-1.4,4.5-3,5.9
	c-8.2,7.7-16.7,15.1-28.8,26.1C1092.3,199.8,1090.7,190.5,1092.9,182.2z M1075.6,228.2c6.3,8.1,10.2,13.1,14.1,18.1
	c2-1.9,5-3.5,5.7-5.8c1.4-4.6,0.5-10,2.3-14.3c2.5-6.4,6.3-12.5,10-18.4c2.8-4.5,6.2-8.6,9.8-12.5c1.2-1.3,3.9-1.2,8.3-2.5
	c0,0,0.4-2.5,0.9-5.6c4.4-4.1,9.3-8.8,14.3-13.5c-0.4-0.4-0.8-0.9-1.2-1.3l-8.3,6.5c-1-1.2-2.1-2.4-3.1-3.5
	c5.9-4.9,11.7-10.1,17.9-14.5c2.1-1.5,5.7-0.9,8.5-1.3c-0.1,3.4-0.3,6.8-0.2,10.2c0.2,6.5,0.6,13,3.8,19.9c0.4-2.7,1.2-5.4,1-8
	c-0.2-3.5-1.3-6.9-2.5-12.7c12.3,12.7,17,1.3,26.7-5c-0.3,0.7-0.5,1.3-0.7,1.9c9.5-1.7,13.6-2.4,18-3.1c-0.1,1.6-0.2,3.1-0.3,5.3
	c1.9-1.2,3.3-2.2,4.8-3.2c1.1,0.9,2.2,1.8,3.3,2.7c-5.4,6.4-10.7,12.7-16.1,19.1c-1.3-0.4-2.7-0.9-4-1.3c0.3-5.6,0.5-11.2,0.8-15.6
	c-1.4-0.8-3.2-1.9-6.5-3.8c-1.9,5-3.2,8.4-4.6,12.1c0.5,0.3,1.6,0.9,2.7,1.5c1.1-1.5,1.9-2.7,3.2-4.5c-8.5,21.7-16.8,42.6-25.1,63.6
	c-1.4-0.3-2.9-0.7-4.3-1v-12.1c-3.5,10.9-7,21.5-11.4,35.2c-4.1-5.5-5.2-6.8-6.2-8.2c-0.6,1.3-1.3,2.6-1.9,3.9c-3.2-1.6-6.7-3-9.7-5
	c-2.5-1.6-4.4-4.1-9.3-5.2c2.1,5.6,4.8,11.2,6.2,17c0.9,3.7,0.3,7.9-0.5,11.7c-0.2,0.8-4.4,0.8-6.7,1.1c-0.9,0.1-1.8,0-2.7-0.2
	c-5.9-1.2-16.2-1.4-16.8-3.8c-1.9-7.9-3.8-17.9,6.8-22.9c6.9-3.3,13.9-6.6,20.8-9.8l-6.4-7.1c0.3,0.9,0.7,1.7,1,2.6
	c-1.3-1.4-2.6-2.9-3.9-4.3c-4.2,6.1-9.6,11.4-16.4,16c1.3-0.5,2.6-1,3.9-1.4c0.2,0.7,0.4,1.4,0.7,2.1c-3.8,1.2-7.6,3.5-11.3,3.3
	c-4.1-0.3-8-2.9-13.1-5c-1.7-4.8-3.9-10.6-6.9-19C1073.2,227.2,1074.6,227.8,1075.6,228.2z M1191.3,268.2c1.8,7.6,3.4,14,5,21
	c-3.9-2.8-7.4-5.3-10.8-7.8c-0.2,0.5-0.4,1-0.5,1.4c-6-2.7-12.1-5.4-20.3-9.1c8.4-3.8,15-6.8,22.8-10.4c-0.6,5.1-1,8.4-1.8,15.5
	C1188.6,273.4,1189.7,271.3,1191.3,268.2z M1120.9,285.3c-0.5,8.8-0.9,17.6-1.4,26.5c-0.3,0-0.6,0-0.9-0.1v-26.5
	C1119.3,285.3,1120.1,285.3,1120.9,285.3z M1055,210.6c-0.5,1.1-1,2.1-1.6,3.2c-8.2-2.9-16.5-5.9-24.4-8.7c1.1-2.1,2.3-4.5,4.1-8.1
	C1040.1,201.3,1047.6,206,1055,210.6z M1012.7,250.2c-0.5,4.9-0.7,9.9,1.3,14.8c2.6-3.7,5.2-7.4,9.8-13.7
	c-2.9,11.7-4.9,19.8-7.1,27.9c-0.2,0.7-3,1.6-3.3,1.3c-2.8-3.3-6.1-6.5-7.8-10.3c-2.8-6.3-4.5-13.1-6.6-19.7
	c2.4,1.9,4.7,3.7,7.1,5.6C1008.3,254.1,1010.5,252.1,1012.7,250.2z M1007.1,241.3c2.1,0.2,5.4-0.3,6,0.8c0.9,1.4,0.1,3.9-0.2,6
	C1011,245.8,1009.1,243.5,1007.1,241.3z M1020.2,229.4c2.8,1,5.7,2,8.5,3.1c2,0.8,5.8,1.8,5.7,2.4c-0.4,3-1.7,5.9-4.5,8.3
	c0.3-1.4,0.5-2.8,0.5-2.7c-5.3-2.3-10.1-4.4-14.9-6.5c1.5-1.5,3.1-3,4.6-4.5C1020.2,229.5,1020.2,229.5,1020.2,229.4z M1037.8,325.9
	c-0.4,1.7-0.8,2.9-0.8,3.2c-5.7-0.9-10.9-1.7-20-3.2H1037.8z M1045.4,392l0.7,2.1c-1.5,1.2-2.9,2.5-5.2,4.4c-0.6-0.1-2.5-0.3-8.1-1
	C1039.2,394.8,1042.3,393.4,1045.4,392z M1050.3,292l-3.4,1.1c-1-3.1-2.2-6.2-2.7-9.4c-0.1-0.9,2.2-2.1,3.4-3.1
	C1048.5,284.4,1049.4,288.2,1050.3,292z M1026.2,188.4h14.6c-1.8,2.8-2.9,4.3-3.8,5.8C1033.9,192.5,1031.1,191.1,1026.2,188.4z
	 M1046.5,156.5c0.5,0.8,1,1.6,1.5,2.4c-3.8,2.8-7.7,5.7-11.5,8.5c-0.5-0.7-0.9-1.3-1.4-2C1038.9,162.4,1042.7,159.5,1046.5,156.5z
	 M926.2,231c0.5,2.5,1.1,4.9,1.6,7.4c-0.8,0.1-2.2,0.3-2.3,0.2c-0.8-2.3-1.4-4.6-2-6.9C924.4,231.4,925.3,231.2,926.2,231z
	 M889.7,199.3l18.5,7.2c-0.3,0.7-0.7,1.4-1,2.1c-6.2-2.1-12.3-4.3-18.5-6.4C889,201.2,889.3,200.3,889.7,199.3z M870.5,196.4
	c-0.2-0.1,0.5-2.6,0.8-4.2c5.4,2.2,10.1,4.1,14.7,6c-0.4,1-0.7,1.9-1.1,2.9C880.2,199.5,875.3,198.1,870.5,196.4z M888.6,244.7
	c3.9-6.3,12.6-9.8,19.3-14.3c1-0.7,2.9-0.1,4.8-0.1c-8.7,7.2-16.3,13.7-24.2,20c-6.4,5.1-13.4,9.6-19.6,15c-1.3,1.1-1.3,6.6-0.3,7.1
	c5.5,2.9,13.6,8.4,17,6.5c10.8-6.4,20.5-15.2,29.5-24.1c3.4-3.4,3.7-9.8,5.5-14.9c1.3,0.6,2.6,1.2,3.9,1.7
	c-1.8,3.6-3.6,7.1-6.3,12.3c8-3.9,15.3-7.5,22.6-11.1c-0.5-0.9-0.9-1.8-1.4-2.7c-3.1,2.2-6.3,4.4-9.4,6.5c-0.2-0.4-0.5-0.8-0.7-1.2
	c1.3-1.5,2.4-3.3,3.9-4.5c5.6-4.8,6-8.1,0.1-14.2c-10.5-10.7,5.7-12.7,8.2-19.4c0.7-2,4.1-3,6.1-4.3c3.2,5,6.7,10.3,10.1,15.6
	c1-0.7,2-1.3,3-2c-0.5-1.4-1.8-3.8-1.5-4c2.4-1.8,5.2-3.1,8.9-5.2c-0.9,3.7-1.3,5.7-1.8,7.7c0.9,0.8,1.7,1.5,2.6,2.3
	c0.6-2.9,1.2-5.9,1.1-5.6c9.3-1.2-3.9,18.3,11.2,8.2c-0.9-3.2-1.7-5.8-2.4-8.4c2-0.2,5,0.3,5.9-0.8c2.8-3.6,7.7-9,6.6-11.6
	c-2.2-5.4-7.7-9.4-11.9-13.9c-3.2,3.5-6.5,6.8-9.4,10.4c-10.7,13.2,8.5,3.5,6.9,11.1c-2.8-0.1-6.9,0.9-8.9-0.7
	c-2.4-1.9-5.2-7.1-4.2-9.1c3-6.2,7.7-11.5,11.5-16.8c-3.3,1.2-9.3,3.2-15.2,5.3c-1.9,0.7-3.6,1.7-5.4,2.4c-0.3,0.1-1.5-1.1-1.4-1.4
	c0.8-2,1.8-3.8,2.8-5.7c0.1-0.1,0.2-0.2,0.4-0.2c15.5-2.4,11.4-14.3,11.8-24.2c0.2-5.5,0.2-11.8,2.8-16.2c2-3.4,8-4.6,12.4-6.5
	c0.7-0.3,2,0.9,2.9,0.8c11.6-1.6,19,2.1,22.1,14.5c2.5,9.9,7.4,12.8,13-1.8c2.1,5.8,3.3,9.2,4.8,13.4c4.6-3.1,9.2-6.2,13.7-9.3
	c0.3,0.4,0.6,0.8,0.9,1.2c-14.7,10-29.3,19.9-44,29.9c0.3,0.5,0.6,1,0.9,1.5c2.4-0.9,4.7-1.9,10.6-4.2c-5.6,4.6-8.4,6.8-11,9
	c-1.8-1.7-3.1-3-6.2-5.9c2,5.4,3,8.2,4.3,11.9c10.8-8,21.3-15.8,31.9-23.7c0.5,0.6,1.1,1.2,1.6,1.8c-3.5,3.2-7,6.4-11.3,10.3
	c2.7,4.2,5.5,8.6,8.8,13.7h-9.6c2.1,5.5,4,11,6.2,16.3c0.3,0.8,2.2,1.4,3.3,1.3c2.1,0,4.2-0.6,6.3-0.9c-1,2.4-2,4.8-2.3,5.7
	c-4.1,4.2-7,7.2-9.9,10.1c-2.6-4.6-5.2-9.2-7.8-13.9c-0.4-0.7-0.8-1.7-0.6-2.4c0.5-1.9,1.4-3.6,2.1-5.5c-2.9-0.3-5.9-0.4-8.7-1.1
	c-2.3-0.6-4.4-1.9-4.3-1.8c-3.9,6.5-8.1,13.1-11.7,19.9c-0.7,1.4,0.2,3.8,0.7,5.6c0.7,2.7,3,7.3,2.4,7.7c-3.8,2.6-8.2,4.1-14.8,7.1
	c3.8-7.5,6.3-12.5,9.4-18.7c-3.6,1.4-5.6,2.2-7.3,2.8c-1.3-1.8-2.3-3.2-3.3-4.6c-0.2,1.8-0.4,3.5-0.6,5.3c-0.6,4.8-1.2,9.6-4.6,14.2
	v-15.6c-2.9,6.5-6.4,14.1-9.8,21.7l-5-2.1c2.2-7.2,4.4-14.4,7.2-23.5c-4.2-0.3-8.5-0.5-12.9-0.8c0.1,1.5,0.3,2.9,0.5,5.4
	c-0.7,0.7-2.2,2.3-5.3,5.5c-0.4-5.7-0.6-9.8-0.9-13.8c-0.6,0-1.2,0-1.7,0v18c0.8-0.1,2.8-0.5,3.5-0.6c0.7,4.9,1.6,10.4,2.3,15.9
	c0.1,0.6-0.9,2.1-1.2,2c-3.3-0.6-7.2-0.4-9.6-2.2c-7.8-5.7-13.3-1.6-18.8,3.3c-2.8,2.5-5.6,5.2-8.1,8.1c-0.8,0.9-0.7,2.5-1.7,7.2
	c2.9-4.4,3.7-5.7,5.5-8.5c-0.7,6.4-1.2,11-2.2,19.9c-3.6-6.5-5.5-10-7.6-13.8c-7.3,5.2-16.3,11.5-25.4,17.8c-1.1,0.7-2.5,1-3.8,1.4
	c0.3-1.4,0.6-2.8,0.9-4.7c-2.6-1.6-5.7-3.6-10.9-6.8C853.8,254.8,881.6,256,888.6,244.7z M956.7,208.4c0-0.9,0-1.7,0-2.6h6.7
	c0,0.9,0,1.7,0,2.6H956.7z M968.2,339.2c2.9,16.8,5.8,33.6,8.7,50.4c-0.8,0.2-1.7,0.3-2.5,0.5c-3-16.8-6.1-33.5-9.1-50.3
	C966.3,339.5,967.3,339.4,968.2,339.2z M964,330.6c-1.4-4.2-2.8-8.4-5.2-15.5c-0.3-0.2-2-1.4-3.4-3c-0.5-0.5,0.3-2.5,1-3.5
	c0.2-0.3,2.5,0.1,2.8,0.6c3.1,6.5,6,13.2,9,19.8C966.8,329.5,965.4,330.1,964,330.6z M932.8,329.4c-5,2-6.4,3.1-7.9,3.1
	c-1.7,0-3.3-1-5-1.6c0.2-0.5,0.4-1,0.6-1.5H932.8z M917.7,327.5c0,0.5,0,1.1,0,1.6c-10.5,0-21,0-31.5-0.1c-0.1,0-0.3-1.3-0.3-1.5
	H917.7z M901.9,275.6c1.1-0.1,2.1-0.3,3.2-0.4c0.4,4,0.8,8.1,1.2,12.1c-0.7,0.1-1.4,0.2-2.2,0.4
	C903.4,283.7,902.7,279.7,901.9,275.6z M862,287.7c-1.1,0.5-2.2,1-3.2,1.4c-2.8-7.2-5.6-14.4-8.5-21.7
	C854.3,274.3,858.1,281,862,287.7z M831.9,244.2c0.9-2,3.6-3.1,5.5-4.7c4.3,9.2,8.5,18.4,12.8,27.6c-1.9,0.5-3.9,1-6.2,1.5
	c-1.7-5.5-3.4-11.1-5.5-18.2c-6.4,9.3-11.8,17-17.1,24.7c-0.8-0.5-1.6-1-2.4-1.5C823.2,263.9,827.3,253.9,831.9,244.2z M789.4,306.9
	c8.1,3.6,15.4,6.5,22.2,10.1c2.1,1.1,3.1,4.4,4.7,6.6c-1.9,0.7-3.9,1.3-5.8,2.1c-0.9,0.3-1.7,0.7-2.6,1.1c1.4,1.7,2.7,3.4,5.5,6.7
	c-4.9,16.8-9.9,35.7-16.2,54.2c-0.9,2.8-8.3,4.6-12.5,4.4c-2.2-0.1-6.2-6-5.9-8.8C782.1,356.5,786.1,329.8,789.4,306.9z M762.1,336
	c4,5.5,7.3,10.2,10.7,14.9c-1.1,0.2-2.2,0.5-3.3,0.7c1.2,7.4,2.5,14.9,3.7,22.4C759,370.9,755.5,359.7,762.1,336z M745.6,330.6
	c0.7,1.5,2.2,3.2,1.8,4.2c-1.5,4.1-3.6,8-5.4,11.9c-0.5-0.4-1-0.9-1.6-1.3C742,340.9,743.6,336.3,745.6,330.6z M744.4,419.5
	c-4.4,2.8-8.7,5.6-13.1,8.5c-0.8-1.2-1.5-2.4-2.3-3.6c3.9-3.3,7.8-6.6,11.8-9.9C742.1,416.2,743.2,417.9,744.4,419.5z M738.5,364.4
	c-7.5,12.8-14.5,24.5-21.6,36.6C713.3,389,718.2,372.3,738.5,364.4z M705.6,310.9c0.1-0.8,2.9-2.1,4-1.7c5.2,1.4,10.3,3.4,15.5,5
	c1.7,0.5,4.9,0.2,5.2,1c0.6,1.8-0.5,4.1-0.4,6.2c0.2,2.9,0.6,5.8,1.3,8.6c0.6,2.6,2.7,5.3,2.3,7.5c-0.3,1.4-4,2.7-6.3,3.1
	c-3.2,0.5-6.6,0.1-9.5,0.1c4-3.4,7.8-6.6,11.5-9.8c-4.5-1.2-9.6-4.2-13.5-3.1c-3.1,0.9-4.9,6.7-8.7,12.5h-1.2
	c1.5,2.4,2.6,4.3,3.4,5.7c-1.2,3.1-2.3,5.8-3.1,7.8c0.7,2.5,1.4,4.4,1.5,6.4c0,0.4-3.3,1.6-3.6,1.2c-1.3-1.6-3-3.7-2.9-5.5
	C702.4,340.9,703.9,325.9,705.6,310.9z M676,240.4c3.3-0.7,7.2-1.3,10.8-2.5c5.2-1.7,10.4-3.4,15.3-5.8c10.3-5.1,11,1.6,11.7,9.5
	C700.8,240.4,688,257.8,676,240.4z M759.8,197.4c0.9-1,6.3,0.6,8.1,2.4c1.4,1.4,1.4,7.1,0.4,7.5c-4.2,2-9.1,2.8-17.4,5.1
	C755,205.2,756.7,200.7,759.8,197.4z M676,82.2c17.7-0.9,35.4-2,53.2-2.6c1.8-0.1,5.1,2.2,5.3,3.7c1,8.1,1.3,16.4,1.8,24.5
	c-19.7,4.4-28.8,15.7-24.1,24.7c4.3-4,8.6-11.4,14.1-12.5c23.3-4.5,19.9,13.4,20.1,28.5c-5.1,1.3-10.9,2.9-18.5,4.9
	c3.5,1.9,4.9,2.6,7.6,4c-4.1,1.4-7.1,2.4-10.4,3.5c2.7,3.1,5.1,5.8,8,9.2c3.5-2.5,7-5,14.3-10.2c-3.4,18.9-6.3,35-9.6,53.4
	c7.6,1.4,16.6,3.1,21.6,4.1c-20.3,1.2-44.6,2.6-67.6,4c12.5-3.1,26.3-6.6,41.2-10.3c-0.9-1.9-0.3-0.6,0.4,0.7c0.8,0,1.6,0,2.3,0
	c0-6,0.3-12.1-0.1-18c-0.3-5.3-1.2-10.6-2.4-15.7c-0.4-1.7-2.6-3-4-4.4c-0.7,1.5-1.8,3-2.1,4.6c-1.3,7.8-2.5,15.7-3.9,25.2
	c-2.1-9.1-4-16.8-5.8-24.6c-0.5,0.1-1,0.2-1.5,0.3c-0.3,3.1-0.5,6.2-0.8,9.4c-19.3-8.1-19.3-8.1-22.1,9.2c-1.8-2.8-2.9-4.6-4-6.4
	c-1.1-1.8-2.2-3.7-7.2-5.4c-1.6,9.3-3.1,18.6-5,29.4c-3.1-7.8-6.4-14.7-8.3-21.9c-2-7.5-1.2-16-4.1-23.1c-8-19.9-17.4-39.3-25.8-59
	c-1-2.4,1-5.8,0.9-8.8c-0.1-4.5-0.6-9-1.3-13.5c-0.2-1.4-1.7-2.5-3.4-4.8C649.4,83.6,662.7,82.9,676,82.2z M666,295.3
	c2.1,0.5,4.2,1.3,6.3,2c-2.3,0.3-4.6,1.1-6.7,0.8c-5.6-0.8-11.2-2.1-16.8-3.3c0.2-1.4,0.5-2.8,0.7-4.2c7.9-0.5,15.7-1.1,23.6-1.6
	c0.1,0.9,0.3,1.8,0.4,2.6c-5.3,0.7-10.5,1.4-16.1,2.1C660.3,294.4,663.2,294.7,666,295.3z M601.4,239.5c0.1-1.1,0.1-2.3,0.2-3.4
	c16.1,1,32.1,2.5,48.2,2.6c5,0,10.1-3.6,15.2-5.6c0.4,1.6,1.3,5.6,2.5,10.5c-5.5-0.4-11.8-0.9-18-1.4c-0.1,0.4-0.2,0.8-0.3,1.2
	c1.7,0.6,3.5,1.3,5.2,1.9c-0.1,0.4-0.2,0.7-0.3,1.1c-6-1.4-12.1-2.8-17-4c-4.9,0.8-9.3,1.6-13.7,2.3l0.2-3.5
	C616.2,240.7,608.8,240.1,601.4,239.5z M582.6,87.5c12,0.1,24.1-1.4,31.7-1.9c4.5,12.8,8.3,23.9,12.3,34.9
	c3.4,9.3,6.5,18.7,10.8,27.5c2.1,4.3,9.1,7,9.7,11.1c1.9,12.2,1.8,24.6,2.7,39.7c-3.6-2.7-4.2-2.9-4.2-3.2
	c-3-15.1-12.8-23.9-28.9-26.2c-12-1.7-20.5,12.9-16.1,26.2c0.8,2.4-1.1,6.2-2.7,8.7c-5,7.7-10.5,15-14.8,21.1
	c-11.8-13-14.9-29.8-14.3-48.6c0.8-24-0.4-48.1-1.5-72.1C566.8,93.2,570,87.4,582.6,87.5z M512.5,84c0.8-0.1,1.6-0.1,2.4-0.2v15.8
	c1,0.5,2,0.9,3,1.4c3.1-5.1,6.2-10.1,9.9-16.2c0.4,0.6,2,2.3,2.2,4c1.5,13.4,2.5,26.9,4.1,40.3c0.3,2.7,3.2,5,4.1,7.8
	c0.9,2.8,0.9,5.9,1.3,8.9c-4-0.2-8.1-0.2-12-0.9c-0.8-0.2-1.1-3.6-1.2-5.5c-0.5-7.3-0.7-14.6-1.6-21.9c-0.1-1.1-3.1-2.1-4.8-2.6
	c-2.7-0.7-5.6-1-8.4-1.4c0.8-3.6,1.7-7.1,2.2-9.4C513.3,96.8,512.9,90.4,512.5,84z M518,119.8v80.8c-0.9-17.4-2.6-49-4.2-80.7
	C515.1,119.9,516.5,119.9,518,119.8z M586.4,239.8c-30.5,3.3-60.2,6.4-92.5,9.9C509.7,239.3,579.9,231.9,586.4,239.8z M489,220.5
	c-1.4-0.7-2.8-1.4-4.2-2.2c0.3,1.2,0.6,2.4,1,4.2h-13.1c-0.7,1.5-1.7,3.7-2.7,5.9c1.1-5.8-13.5-14.4,2.8-17.4
	c4.2-0.8,7.8-5.4,11.8-5.5c4.1-0.1,8.3,3,12.5,4.7C494.4,213.7,491.7,217.1,489,220.5z M480.4,180c3.1-5.6,7-10.7,10.6-16l3.3,2.5
	c-3.3,6.5-6.6,13.1-11.2,22.4C481.5,184.3,479.6,181.4,480.4,180z M439.2,116.5c-0.5-16.2,11.3-14.4,21.4-14.5
	c6.4-0.1,15.8,17.2,11.3,22.3c-7.1,8.1-4.5,16.7-4.6,25.3c0,2.7-0.6,5.4-1,9.3c-2.3-4.4-3.8-7.2-5.2-9.9c-0.8,0.2-1.5,0.4-2.3,0.5
	V170c-0.8,0.2-1.6,0.4-2.4,0.5c-5.8-10.4-11.6-20.8-17.2-31.3c-0.3-0.6,0.8-2.3,1.7-3c0.3-0.3,1.9,0.7,2.7,1.3
	c4.4,3.3,8.7,6.6,13.2,10.1c2.6-3.8,4-5.8,6-8.7c-4.5-0.6-8.5-1.2-15.2-2.1c5.8-2.1,9-3.2,12.7-4.5c-3.9-2.2-6.7-3.8-10.5-6
	c-0.2,0.3-0.5,0.6-0.9,1c-2,1.7-4,3.2-6,4.7c-1.9-3.3-4.2-6.4-5.4-9.9C436.8,120.7,439.2,118.4,439.2,116.5z M434.9,273.2l0.8-5
	c-5.8-1.3-11.7-2.5-17.5-4.1c-2-0.5-3.6-2.2-5.4-3.3c2.1-3,3.7-7.8,6.4-8.5c6.8-1.7,14.1-1.5,22.1-2.2c-1.2-2.4-1.6-3.2-2.6-5.1
	c3.8,2,6.8,3.5,10.8,5.6c-2.9,1.4-4.8,2.3-5.3,2.6c0.5,6.9,0.9,13,1.2,18.2c3,0.3,5.1,0.6,7.2,0.8c-1.5,3.9-2.9,7.9-4.3,11.8
	c-0.9,2.6-1.8,5.3-2.7,8c-2.7,8.2-5.2,16.5-8.6,24.4c-0.5,1-5.7,0-8.8,0c0.1-4.2-0.5-8.7,0.6-12.7c0.7-2.6,3.6-4.6,4.6-5.7
	c-3.8-1.9-7.2-3.6-10.5-5.3c0.6-1.3,1.2-2.6,1.8-3.9h-6.9c0.9,2,1.5,3.4,2.1,4.7c-0.8,0.3-1.6,0.5-2.3,0.8
	c-2.6-7.6-5.1-15.3-7.4-21.9c5.1-1,7.9-1.5,10.7-2c-0.2,0.5-0.3,1-0.5,1.5C425.3,272.3,430.1,272.8,434.9,273.2z M425,303.1
	c0.1,0.1-1.4,1.1-2.2,1.6c-1.2-2.1-2.4-4.2-3.6-6.2l2.1-1.3C422.6,299.2,423.9,301.1,425,303.1z M314,101.6c11-3.8,22-15.6,33.7-1.7
	c1.9,2.2,3.3,5.1,4,8c2.6,10.8,11.9,15.9,21.2,11.1c17.2,14.9,14.5,35.8,14.6,54.8c0.1,17.6-3.3,35.2-5.8,52.8
	c-2.8,19.6-6.2,39.1-9.5,58.7c-0.2,1.4-0.7,3.3-1.7,3.9c-12.5,7.5-1.5,16.8-4.3,27.3c0.3-0.2-2,1.2-3.8,2.3
	c-2.5-14.5-4-29.1-7.7-43.1c-3.7-14-3.6-32.2-25.7-31.6c0.2-3.5-0.4-7.4,0.8-10.5c2.5-6.5,5.9-12.6,9.1-18.8
	c1.1-2.1,2.4-4.7,4.3-5.8c2.1-1.3,5.1-1.1,7.7-1.6c-2.6-1.6-5.1-3.1-8.7-5.3c2.2-5.3,5-11.7,6.7-15.8c4.5,0,7.3,0.2,10.1-0.2
	c0.6-0.1,1.1-2.2,1.1-3.4c0-0.5-1.8-0.8-2.3-1.5c-1.4-2.4-4.2-5.5-3.6-7.4c5.7-15.8,3.9-28.7-6.9-31.3c-5.2-1.2-13.7,3.9-18,8.6
	c-4.6,4.9-6.3,12.7,2.5,17.6c1.3,0.7,2.2,4.2,1.7,5.9c-6.5,20.2-13.2,40.2-19.9,60.3c-0.5,1.6-1.1,3.2-4.3,4.4
	c0-5.3,0.1-10.6,0-15.9c-0.8-38.3-1.8-76.5-2.3-114.8C307.3,106.2,311.2,102.6,314,101.6z M324.3,356.5c2.8,1.9,6.4,4.3,11,7.3
	c0.3-4,0.4-7,0.8-12.4c2.6,4.4,4.1,6.9,5.7,9.5c0.5-0.1,1-0.3,1.6-0.4c-1.8-5.1-3.7-10.2-6.1-16.9c-2.9-1.7-7.5-4.2-12.5-7
	c1.1-2.1,4-7.2,6.8-12.4c-3.6-0.2-7.4-0.8-10.9-0.2c-1.3,0.2-3.1,3.6-2.9,5.2c0.4,3,2.2,5.8,3.4,8.7c-2.1,0.5-4.3,1-6.4,1.6
	c0.3-3.9,0.5-7.8,0.8-11.7c0.4-4.7-0.4-9.9,1.5-13.8c1.7-3.5,6.5-5.5,9.7-8.1c11.7,1.9,27,1.2,26.6,21.6c2.6-2.4,3.7-3.4,4.8-4.3
	c0.9,0.3,1.9,0.7,2.8,1c-1.6,4.6-3.4,9.2-4.8,13.9c-0.9,3.2-2.5,7-1.5,9.7c1.2,3.2,4.4,6.5,7.5,7.8c3.6,1.5,8,1,12.4-0.9
	c-1.8-1-3.6-1.9-5.7-3.1c2.5-4.3,14.2-6.9,2.3-14.9c-0.7,4.4-1.1,7.4-1.6,10.4c-0.7,0-1.5,0-2.2,0c-0.2-2.6-1.4-6-0.3-7.6
	c2.8-3.9,6.3-8.2,10.4-10c10.6-4.6,20.6-2.1,30.9,3.2c7.1,3.6,15.7,4.2,23.6,6.5c1.1,0.3,0.3-0.1,1.6,2.4c2.9-3.2,10.3-5.9,16-5.8
	c16.9,0.3,21.4,9.5,22.2,14.6c0.6,4.1,7.7,5.1,8.8,6.2c0.2,0.2,2.5,9,2.7,9c1.8-0.8,3.8-0.4,6.2-1.3c-0.8,5.4-2,11.1-1.5,16.4
	c0.2,2.1,0.9,4.1,2.2,6c3.7-4.7,9.8-12.1,13.6-17c-1.4-1.1-3-2.4-3.3-2.6c3.3-5.6,6-10.8,9.4-15.6c1.4-2,4.2-3.1,7.1-5.2
	c-4.6,11.9-8.6,22-11.6,29.6c9.4-6.5,19.6-13.6,26.9-18.6c8,0,12.9,0.2,17.8-0.2c0.9-0.1,1.7-2.3,2.6-3.5c-1.4-0.2-2.7-0.7-4.1-0.7
	c-3.8,0.1-7.6,0.5-11.3,0.7c-0.2-1.2-0.3-2.5-0.5-3.7c3.6-0.8,7.2-1.5,13.2-2.8c-4.3-2.1-7.4-4.1-10.8-5.1c-1.2-0.4-3.2,1.6-6.2,3.4
	c-1.3-2.2-3.3-5.4-5.3-8.7c-4.9,1.5-10.2,3.2-16,5c0,0-0.5-1.2-1-2.6h-3.8c-0.1,0.9-0.2,1.8-0.3,2.7c-1.6-0.3-3.2-0.6-6.8-1.3
	c-0.2,0.4-1.1,1.7-2.4,3.6c1.7-3.4-0.1-12.7-5-16.4c-4-3-7.9-4.2-7.9-4.2s4.6-0.3,11.1,1.7c0.5,0.2,5.4,3.5,6.1,4.3h3.6
	c0.7-1.4,1.3-3.9,1.9-3.9c3.5,0,7.1,0.7,10.6,1.1c-1.2,2.7-2.4,5.4-3.8,8.6c0.5,0.1,1.8,0.5,3.1,0.8c1.3-3.3,2.5-6.2,3.7-9.2
	c0.5,0.1,1,0.3,1.5,0.4l-1,6.6c0.9,0.2,1.9,0.3,2.8,0.5c0.7-4.9,2.3-10,1.8-14.8c-0.6-5.1,8.2-14.5-5.6-14.7c-0.4,0-1.1-1.2-1-1.6
	c0.1-0.7,0.7-1.6,1.4-2c22.9-14.8,48.8-12.2,74.1-13c12.4-0.4,24.8-0.1,37.4,1.1l-11.7,1.7c-0.4,1.4-0.7,2.7-1.1,4.1
	c13.4,3.2,26.9,6.4,40.3,9.7c0,0.9,0,1.9-0.1,2.8h-23.7c-2.9-3.6-3.9-5.3-5.3-6.5c-0.5-0.5-1.8-0.1-2.7-0.1v3.6
	c-11.5,2.9-23.2,5.8-35.3,8.8v-3.9c-9.2,10.3-18.4,20.6-27.3,31c-1.1,1.3-0.6,3.9-0.5,2.8c10.3-7.1,21.4-14.9,32.7-22.5
	c0.3-0.2,2,1.8,2,1.9c6.5,0,12.6,0.6,18.5-0.2c3.9-0.5,7.5-2.9,13.3-5.3c2.4,1.7,7.3,14.6,15.4-3.3c12.1,6.2,24.8,12.8,37.6,19.4
	c1.5-1.1,3-2.3,4.5-3.4c-4-1.2-8.3-1.8-11.8-3.7c-3.5-1.9-6.4-5.1-10.5-8.6h7.4c-5.2-2.3-9.1-4-13-5.7c1.1-1.5,2.1-3,3.2-4.6
	c10.7,8.4,21.5,16.7,33.3,25.9c-4.2,2.9-5.4,3.7-6.8,4.8c2.5,2.3,4.7,4.4,7,6.5l-0.9,1c-2.6-1.6-5.1-3.2-8.1-5
	c2.9,5.8,5.4,11.5,8.4,16.8c4.4,7.7-0.3,8.9-6.4,10.6c-3.8,1-7.7,3.4-10.4,6.3c-1.5,1.6-0.7,5.5-0.9,8.3c5.2,0.2,11.2,2.2,15.3,0.2
	c7.2-3.5,13.2-9.5,20.6-15.1c0.4,1.2,1.3,4.4,1.6,5.2c-6,3.9-10.5,7.2-15.3,9.7c-3.4,1.8-7.3,2.5-11.1,3.6
	c-4.3,1.2-9.5,1.1-12.9,3.5c-6.7,4.7-12.4,10.7-19.6,17.2c0.8,0.4,1.2,0.6,1.3,0.7c-3.1,2.4-5.9,4.6-8.2,6.4c-3.4-1.7-6-3-10-4.9
	c1,5.7,1.8,9.7,2.6,14.2c-3.6,0-7.1-0.4-10.5,0.1c-6.1,0.9-12,2.5-18,3.5c-2.4,0.4-4.9,0-7.4-0.1c1-1.3,1.9-2.8,3.1-3.8
	c0.3-0.3,0.8-0.3,1.1-0.2c0-11.1,0.2-21.9-0.1-32.7c-0.2-9.6-4.1-13.2-8.6-9.9c-8.3-1.3-15.2-4.3-17.1-2.4
	c-6.8,6.8-11.8,15.2-18.8,21.6c-2.5,2.1-4.9,4.3-8.2,7.1h17.4c-4.8,5.2-7.6,8.2-10.9,11.8c0.9,2.2,2.5,6.2,4.2,10.3
	c-0.8,0.5-1.6,0.9-2.3,1.4c-1.8-2.7-5-5.3-5.1-8c-0.1-10.4-7.6-10.5-14.7-12c-10.9-2.3-21.8-4.7-32.7-7.2
	c-6.6-1.5-13.2-3.2-21.2-5.2c0,17.4,0.2,37.2-0.3,57c0,1.9-3.7,3.8-5.6,5.7c-2.1-2.4-4.2-4.8-6.2-7.2l2.9-0.8V439
	c-4.8,2.9-7.5,4.6-12,7.4c-0.1,0.5-0.6,2.3-1.4,5.2c-6-14.1-11.3-26.6-17.6-41.5c6.2,1.6,10.5,2.7,16.2,4.1c-2.2-3.3-3.8-5.6-5-7.4
	c2-2.5,3.7-4.6,4.9-6.1c-8.4,0-16.3,0.1-24.2-0.1c-2.5,4-2.9,5.2-3.8,5.9c-15.5,11.4-31,22.8-46.7,34.1c-0.8,0.6-4.1-0.5-4.1-1
	c-0.9-13.7-7.7-5.9-13-3.7c-0.5,0.2-1,0.3-1.4,0.3c-2.9,5.2-5,9.1-8.5,15.4c-0.8-8.6-1.3-14.4-1.9-20.5c-8.3,13.2-19.1,0.7-26.5,3.8
	c-1-3.1-1.9-6-3-9.6c1.8-0.5,5.4-1.5,10.2-2.8h-14.4v-14c2.9,1.1,5.4,2.1,8,3.1c0.3-5.1,0.5-10.3,0.9-16.7c-0.1,0.1,0.9-1,1.9-2.1
	c-0.9-0.3-1.7-0.7-2.6-1c-1.2,4.1-2.4,8.1-3.6,12.2c-0.5-0.1-1.1-0.2-1.6-0.3c1-7.6,2-15.2,3.1-23c-1.4,0.3-3.1,0.7-5.4,1.1
	c0.3,2.2,0.6,4.4,0.9,6.6l-1.3,0v14.2c-2.1-3.8-3.4-5.2-3.7-6.8c-1.5-10-2.8-20-5.5-29.7v37.7c-1.4,0.8-2.7,1.6-4.1,2.5
	c-7.7-7.2-15.4-14.3-22.2-20.7c-0.8,2.1-2.3,6.2-3.6,9.6c-3.4-4.6-6.7-9-10-13.5c-1.3,6.3-2.5,12.5-4,19.9c-0.9-0.9-4.6-2.9-4.7-5
	c-0.4-11.7,3.5-20.5,16-24.8C302.4,367.6,313.1,361.6,324.3,356.5z M678.6,391.1c-1.3,9.3-2.5,18.4-3.9,27.5
	c-0.1,0.3-2.2,0.9-2.7,0.6C666.7,414.5,671.5,393.3,678.6,391.1z M586.1,402.8c-1.4,3.8-2.7,7.6-4.1,11.4c-0.8-0.3-1.6-0.6-2.4-0.9
	c1.4-3.8,2.8-7.5,4.2-11.3C584.6,402.2,585.4,402.5,586.1,402.8z M492.3,462.1v10.4c-2.1-1.5-4.6-2.7-4.5-3.4
	C488.2,467.5,489.7,466,492.3,462.1z M349.7,449c-0.3,3.2-0.7,7.5-2.9,9.3c-6.1,5.2-22.9,2.1-26.5-5c-1.3-2.6-0.3-8,1.7-10.1
	c3.1-3.4,8.1-5.1,9.8-6.2c5.2,3.5,9.1,6.2,13,8.8C346.6,447,349.8,448.2,349.7,449z M286.4,427.4c-5.9,3.2-8.2,4.4-11,5.9
	c-0.4-1.6-0.8-2.8-1.3-4.7C277.2,428.3,279.7,428.1,286.4,427.4z M295.6,248.3c0,0.8-2.6,2.4-2.9,2.2c-1.2-1-3.1-2.6-2.9-3.7
	c1-6.1,2.6-12.2,3.9-18.3c0.6,0.1,1.3,0.2,1.9,0.2C295.7,235.2,295.8,241.7,295.6,248.3z M259.9,114.4c9.2-0.6,18.2-2.9,27.4-4
	c1.2-0.1,3.9,2.1,3.9,3.2c1.4,31.6,2.5,63.2,3.6,94.8c0,0.5-0.4,1-0.4,1c-20.4-13.5-33-0.4-46.9,13.2c-0.5-9.1-1.2-17.2-1.3-25.3
	c-0.4-21.9-0.6-43.7-0.7-65.6C245.4,122.1,248.4,115.2,259.9,114.4z M232.3,382.9c0.9,0,1.7,0,2.6-0.1c0.4,6.4,0.8,12.7,1.2,19.1
	c1.2,18.1,2.5,36.3,3.5,54.4c0.1,1.7-1.1,4.7-2.2,5c-4.1,1.1-8.5,1.4-9.3,1.5C229.5,435.2,230.9,409,232.3,382.9z M223.3,434.6
	l2.2,11.2c-0.6,0.1-1.3,0.2-1.9,0.4c-0.6-3.8-1.1-7.6-1.7-11.4C222.3,434.8,222.8,434.7,223.3,434.6z M217.2,406.9
	c1.3,5.3,2.7,10.5,4,15.8c-0.5,0.2-1,0.4-1.5,0.6l-4.9-15.7C215.6,407.3,216.4,407.1,217.2,406.9z M187.6,415.6
	c3.4-0.3,6.1-0.5,8.8-0.8c0.4,0.9,0.9,1.8,1.3,2.6c-3.8,1.8-7.6,3.7-11.4,5.5c-0.5-0.8-1-1.7-1.5-2.5
	C185.8,418.7,186.9,416.8,187.6,415.6z M129.4,441c4.5,2.4,8.9,5,13.5,7.3c3.1,1.6,6.4,2.8,11.9,5.3c0-0.4,0.9,3.8,0.3,4.1
	c-4.3,1.7-9.1,4.1-13.3,3.3c-5.7-1.1-11.7-3.9-16-7.7C124.5,452.1,128.1,445.3,129.4,441z M107.3,553.1c-0.4,7.6-0.7,15.2-1.1,22.7
	H91.6C84.6,563.3,89.5,554.9,107.3,553.1z M97.8,614.7c-2.6-2.6-6.4-4.8-7.4-7.9c-1.4-4.3-1-9.4-0.6-14c1.1-12.7,1.3-12.9,16.4-16.6
	c-0.4,7.5-0.7,14.9-1.2,22.4c-0.2,3.1-0.7,6.3-1.9,9.1C102,610.2,99.7,612.3,97.8,614.7z M102.4,635.8l-3,3.6
	c-3.3-0.8-6.5-1.5-9.8-2.3c1.3-3.9,2.6-7.8,3.9-11.8C96.5,628.8,99.5,632.3,102.4,635.8z M95.6,648.9c-1.8,0-3.6-3.8-7.5-8
	c9.5,0.7,15.8,1.2,22.1,1.9c0.5,0.1,0.8,2.5,1.2,3.8C106.2,647.5,100.9,649,95.6,648.9z M120.6,548.4c-1.2-0.4-2.6-1.7-3-3
	c-0.2-0.7,1.2-2,2.5-3.9c1.6,2.1,2.8,3.3,3.3,4.7C123.5,546.6,121.3,548.6,120.6,548.4z M130.7,537.8c-0.9-0.4-1.8-0.7-2.6-1.1
	c1.4-4,2.8-8,4.2-12c0.7,0.3,1.3,0.7,2,1.1C133.1,529.8,131.9,533.8,130.7,537.8z M125.9,520.3c6-1.6,8.4-2.3,14.7-3.9
	c-3.9,3.7-5,5.5-6.5,5.9C132.7,522.7,130.9,521.6,125.9,520.3z M136.2,538.8c-0.1-0.9-0.1-1.8-0.2-2.7c6-0.4,12-0.7,18-1.1
	c0,0.9,0.1,1.8,0.1,2.8L136.2,538.8z M134,514c-0.2-0.9-0.4-1.8-0.5-2.6l20.2-3.8l0.6,3.8C147.5,512.2,140.8,513.1,134,514z
	 M170,689.9c-0.5,0.1-2.1-2.3-2.2-3.5c-0.2-4.5,0.1-9,0.2-13.5c5.3,1.1,15.1-7.9,14.8,6.8c0,1.7,6.3,3.6,9.6,5.4
	C185.1,686.7,177.6,688.5,170,689.9z M195.3,600.4c-3.4-3.7-6.8-7.3-10.2-11c-0.8-0.8-1.1-2-1.7-3c-0.5,1.2-1.9,2.9-1.5,3.4
	c2.8,4.3,5.9,8.3,9.1,12.4c0.9,1.1,2.1,2,3.2,3c-1.4,0.8-2.7,2-4.2,2.4c-4.8,1-9.6,1.7-14.2,4.5c5.3,0.3,10.7,0.5,16.6,0.8
	c-0.5,6-1,11.9-1.4,16.9c-3,0.8-5.3,1.4-7.6,2c2.1,1.9,4.1,3.8,7.5,7c-7.4,16-18.3-6.2-25.8,3.1c-0.9-0.7-1.9-1.5-2.8-2.2
	c2.1-10.2,4.2-20.5,6.5-30.7c3.3-15,6.5-30,10.5-44.8c0.6-2,5.6-3.3,8.8-3.9c1.2-0.2,4.1,2.3,4.3,3.9
	C194.3,575.5,195.8,586.9,195.3,600.4z M180.4,551.3c2.4-0.5,4.8-1.3,7.3-1.4c1.3,0,2.6,1.3,6.6,3.6h-13.4
	C180.7,552.8,180.5,552.1,180.4,551.3z M197,637.8c1.4-2.7,2.3-4.5,3.5-6.7c-1.8-0.7-3-1.3-4.6-1.9c0.7-5.1,1.4-10.2,2-15.3
	c0.7,0,1.4,0,2.2,0c1,7.6,2.1,15.1,2.8,22.7C202.9,636.7,199.4,637.3,197,637.8z M211,630.7c-0.3-5.2-0.6-10.4-1-15.6
	c0.8,0,1.5-0.1,2.3-0.1c0.2,5.2,0.5,10.4,0.7,15.7L211,630.7z M209,604.3v-10c0.6,0,1.1,0.1,1.7,0.1v9.8L209,604.3z M207.6,471.9
	c-9.6,0.1-19.2,1.1-28.7,1.8c-0.9,0.1-1.8,0.7-5.3,2c4,0.5,5.3,0.6,6.7,0.8c2.8,0.5,5.7,1,8.5,1.5c-2.6,1-5.1,2.6-7.8,2.9
	c-25.8,3.4-51.7,6.7-77.6,9.8c-1.6,0.2-3.3-0.9-1.7-0.4c1.8-5.4,3.8-9.2,4-13c0.5-10,6.8-14.8,16.4-11.1c1.3,0.5,1.7,3.6,3.2,7.1
	c-4.6-1.2-7.2-1.9-12-3.1c2.1,2.8,3.6,4.9,5.2,7.2c3-1.5,7.5-4.1,14.7-8.2c0.2,3.7,0.3,7.1,0.4,10c10.9-1.8,20.4-3.7,30-5
	c16.8-2.3,33.6-4.6,50.5-6.2c16.8-1.6,33.6-2.5,50.4-3.1c6.7-0.3,13.4,1.1,20.2,1.4c2,0.1,4-1,6-1.6c-0.3-0.7-0.5-1.4-0.8-2.1
	c-1.9,0.1-3.9,0.3-6.6,0.4c2-4.3,3.7-7.9,6.2-13.2c-4.3,2.2-6.9,3.5-11.1,5.6c3.8-3.6,6.3-6,9.1-8.6c1.6,1.2,3.5,2.5,5.6,4
	c-0.6,1.3-1.2,2.6-1.4,3c8.5,2.5,16.9,6.5,25.5,7.1c19.8,1.5,39.8,1.2,59.7,2c3.2,0.1,6.2,2.5,9.2,4.1c0.2,0.1-0.3,2.6-0.6,2.6
	c-1.6,0.1-3.4,0.1-5-0.3c-2.8-0.8-5.5-2.6-8.2-2.7c-25.9-0.2-51.7-0.1-77.1,2.1c-4.3,0.9-8.5,2.6-12.8,2.6
	C257.4,471.8,232.5,471.6,207.6,471.9z M295.7,544.5c9.8,2.4,19.6,4.8,29.4,7.3c-0.4,1.4-0.8,2.7-1.1,4.1
	c-9.8-2.3-19.6-4.6-29.4-6.8C294.9,547.5,295.3,546,295.7,544.5z M257.7,546.8c1.6,14.5,3.2,29.1,4.8,43.6c-0.7,0.1-1.3,0.2-2,0.3
	c-1.6-14.5-3.2-29.1-4.9-43.6L257.7,546.8z M257.8,621.2c9.8,0.9,18.9,1.8,28,2.7c0,0-0.1,1.3-0.1,1.5c-5.6,0.4-11,0.8-16.3,1.1
	c0,0.7-0.1,1.3-0.1,2c5.3,0.7,10.6,1.4,18.6,2.4c-1.3,5.9-2.7,12.8-4.5,19.7c-0.2,0.6-3.9,1.3-4.4,0.7c-7.4-9.2-14.6-18.6-21.6-28
	C256.9,622.7,257.9,620.9,257.8,621.2z M265.4,680.4c1.2-6.6,0.4-15.2,3.4-16.8c12-6.5,25.4-4,37.8,0.1c1.6,0.5,0.8,8.9,1.1,15
	c0.5,0.2,2.3,0.9,4.4,1.7H265.4z M324.4,626.2c-2.9-1.1-5.8-2.3-8.7-3.4c0.4-0.9,0.8-1.8,1.2-2.7c2.9,1.2,5.7,2.4,8.6,3.6
	L324.4,626.2z M338.9,715.1c-3.3-0.8-6.7-1.7-10-2.5c0.4-1.3,0.7-2.5,1.1-3.8c3.2,1.2,6.5,2.4,9.7,3.6
	C339.5,713.4,339.2,714.2,338.9,715.1z M362.7,717.9c-0.4,0-0.9,0-1.3,0v-17.1c0.4,0,0.9,0,1.3,0V717.9z M346.2,560.5
	c0.1-0.4,0.2-0.9,0.3-1.3c5.3,1.3,10.6,2.7,16,4c-0.1,0.3-0.2,0.6-0.3,1L346.2,560.5z M397.1,635.5c-1.9-2.2-3.9-4.4-5.8-6.5
	l2.9-2.5c1.9,2.2,3.8,4.4,5.7,6.6C398.9,633.8,398,634.6,397.1,635.5z M384.3,617.6c-0.6-0.2-0.8-1.9-1.1-2.9
	c0.8-0.2,1.7-0.8,2.4-0.6c6.8,2.1,13.6,4.2,20.3,6.5c1.2,0.4,2,1.8,6,5.4C400,622.5,392.1,620.2,384.3,617.6z M415.8,705.2
	c0-1.4,2.9-4,4.5-4c15.1-0.1,30.2-0.8,45.1,1c3.8,0.5,8.1,9.1,9.4,14.6c2,8.5,2.3,17.6,1.7,26.4c-0.2,3-4.9,6.1-8.1,8.4
	c-2.3,1.6-5.5,1.7-8.3,2.5l0.9,2.6c4-1.5,7.9-3.2,12-4.4c1.3-0.4,3,0.5,4.5,0.8c-0.7,1.5-1.1,3.8-2.3,4.4c-4.2,2.1-8.6,4.1-13.2,5.1
	c-2.4,0.5-5.3-1-7.7-4.3c-5.6,0.7-11.2,1.4-17.6,2.2c9.9,5.4,19.2,10.5,28.4,15.5c0,1.4,0,2.9,0,4.3c-8.5,1.7-16.9,4.3-25.5,5
	c-21.6,1.7-21.9,1.4-22.7-20.2C416.1,745,415.8,725.1,415.8,705.2z M415.2,670.6c2.3-4.9,5.1-9.5,7.8-14.2c2.6,1.6,7.2,3,7.4,4.9
	c0.8,7.6-0.8,14.4-13.6,12C416.9,673.5,414.8,671.5,415.2,670.6z M436.9,690.8c0-0.6,0.1-1.2,0.1-1.8l15.6,1c0,0.7-0.1,1.3-0.1,2
	C447.3,691.6,442.1,691.2,436.9,690.8z M512,822.4c-26.9,4.7-53.7,9.9-80.7,13.5c-3.8,0.5-9.9-6-12.6-10.7
	c-2.1-3.6-0.4-9.4-0.4-14.6c12.2,2,24,5.3,35.9,5.5c11.7,0.2,23.4-3,35.1-4.1c8.5-0.8,17.1-1.3,25.5-0.6c2.7,0.2,4.9,5,8.3,8.6
	C519,820.9,515.6,821.7,512,822.4z M516.5,658c1.1,2.2,3.7,4.8,5.9,5c1.7,0.2,4.5-2.7,5.4-4.8c3.5-7.6,11.9-9.5,19.3-2.5h-13
	c3.3,1.9,4.6,2.6,5.5,3.1c-4.2,12.9-14.2,9.6-23.3,7.7c-1.7-0.4-2.2-5.2-4.2-6.2c-6-2.8-12.5-4.5-18.5-7.2c-1.9-0.9-2.9-3.8-4.4-5.8
	c1.9-0.7,3.7-1.9,5.6-2c6.9-0.4,13.8-0.7,20.7-0.6c2,0,3.9,1.6,7,3c0.5-0.2,2-0.6,3.5-1.1c0.3,0.6,0.7,1.1,1,1.7
	c-2.2,1.4-4.5,2.6-6.4,4.4C518.8,654.3,516.1,657.1,516.5,658z M539.1,757.7c-14.1-2.1-27-4-39.9-6c-0.1,0.5-0.2,1-0.3,1.6
	c1.8,0.5,3.6,1.1,5.4,1.6c0,0.5-0.1,1.1-0.1,1.6c-3.1-0.2-8.9,0.2-9-0.5c-1.6-9.1-2.4-18.3-3.5-28c6.3,1.9,10.8,3.3,12.8,3.9
	c-3.7-5.1-8.4-11.4-12.7-18c-0.2-0.3,3-4.3,4.4-4.2c13.3,1,26.6,2.4,36.3,3.4c5.9,11.9,10.8,21.8,15.7,31.5h-18.4
	C533.1,749.4,535.8,753.1,539.1,757.7z M516.8,672.7c13.4-0.8,14.2,11.4,18.2,20.5c0.2,0.4-1.7,2.3-2.5,2.3
	c-12.1-0.2-24.2-0.5-36.3-1.3c-2-0.1-3.9-2.4-6-3.8c10.9-3.4,19.6-6,28-9.2C518.6,680.9,517.2,675.5,516.8,672.7z M540.6,814.4
	c-0.6-2.1-1.2-4.3-1.8-6.4c4.6-0.4,9.3-0.9,13.9-1.3c0.2,1.3,0.5,2.6,0.7,4C549.1,811.9,544.9,813.1,540.6,814.4z M589.9,725.7
	c-0.1,0.9-3.7,1.4-7.3,2.6c0.9-5.9,1.5-10.2,2.3-14.4c0-0.1,4.1,0.2,4.2,0.6C589.8,718.3,590.3,722.1,589.9,725.7z M595.6,726.6
	c-1.3-0.3-2.6-0.5-4-0.8l2-11.9c1.1,1.1,3,2.2,3.1,3.3C596.7,720.3,596,723.5,595.6,726.6z M815.3,775.2c-19.8,0.8-39.7,2-59.5,2.1
	c-16.8,0.1-33.5-1-50.3-1.4c-1.4,0-2.9,1.1-4.7,4.5c10,1.9,19.9,3.7,29.9,5.6c0.1,0.7,0.1,1.4,0.2,2.1c-8.9,1.6-17.8,3.4-26.7,4.8
	c-26.4,4.3-52.8,8.6-79.2,12.8c-1.8,0.3-3.8-0.1-5.7-0.2c0.4-3.9,0.2-7.9,1.3-11.5c0.6-2,3-3.5,5.4-6c-6.4-2.5-11.9-4.7-18-7.1
	c1.3-0.9,1.8-1.4,2.5-1.5c5.1-1.5,14.5-3.2,14.5-4.4c-0.4-8-2.8-15.8-4.5-23.7c-2.4-11.2-4.8-22.5-7-33.7c-0.1-0.4,2.5-1.9,3.8-1.9
	c12.8,0.2,25.7,0.8,38.5,1.1c1.5,0,2.9-0.7,5-1.2c-10.2-8.6-19.9-16.7-31.9-26.9c6.8-0.8,10-1.1,13.2-1.5c0.1,0.4,0.2,0.8,0.3,1.2
	c-1.9,0.6-3.7,1.1-5.6,1.7c-0.2,1.5-0.3,2.9-0.5,4.4c20,3.8,40.2,7.2,60.1,11.7c4,0.9,6.9,7.4,10.9,8.2c12.1,2.4,14.8,9.2,14.7,20.5
	c0,4.2,5.7,10.2,10.2,12.4c8.2,3.8,17.4,5.2,26.2,7.8c1.3,0.4,2.3,2,3.1,2.7c2.9,0.3,5.7,0.3,8.3,1c0.8,0.2,1.2,2.3,1.4,2.8
	c14.9,3.3,29.6,6.5,44.3,9.8C815.3,772.5,815.3,773.9,815.3,775.2z M624.5,641.3c3.6,2.4,5.5,3.7,9.8,6.6c-4.2,0.5-6.8,1.5-8.3,0.6
	C624.9,648,625.1,644.9,624.5,641.3z M645.8,644.9c-3.9-1.9-7.2-3.5-10.5-5.1c1.5-1.2,3.3-3.8,4.4-3.5c3.8,0.9,7.4,2.8,11.1,4.3
	C649.3,641.8,647.8,643.1,645.8,644.9z M665.2,688.2c-0.1,0.9-0.3,1.7-0.4,2.6c-5.1-0.5-10.2-1-15.3-1.6c0.1-0.8,0.2-1.6,0.2-2.3
	C654.9,687.3,660,687.8,665.2,688.2z M713.8,633.7c0-0.5,2-1.5,3.2-1.6c0.6-0.1,2.1,1.1,2.1,1.7c0.2,6.7,0.1,13.3,0.1,20
	c-1.2,0.1-2.3,0.2-3.5,0.3C715,647.3,714.3,640.5,713.8,633.7z M785.5,719.8v12.1c-10.2-2.9-19.7-5.7-33.1-9.6
	C766,721.3,775.6,720.6,785.5,719.8z M753.2,641.4c0-1.1,2.3-3.3,3.4-3.2c8.4,0.6,16.7,1.6,25.1,2.6c0.9,0.1,2.4,1.3,2.5,2
	c0.6,14.9,1.6,29.8,0.8,44.6c-0.2,2.9-7.9,6.1-12.6,7.6c-5,1.6-10.6,1.5-19.2,2.4C753,677.8,753,659.6,753.2,641.4z M823.4,761.4
	c-2.9-0.6-4.1-11.6-4.9-18c-1-7.4-0.2-15.1-1-22.6c-0.7-6.7,0.4-10.2,8.2-8.2c3.4,0.9,7,0.7,10.2,0.9c1-1.8,1.8-3.3,2.6-4.9
	c0.2,0.1,0-0.2-0.2-0.2c-21.8-1.4-21.7-1.4-21.5-23.3c0.1-13.9,0-27.7,0-41.6c8.4-0.2,22.4,12.9,22.3,20.4
	c-0.1,11.5-0.1,23-0.1,34.5c0,0.4-0.1,1.2,0.1,1.3c14.2,7.3,0.2,17.9,3.2,26.5c0.6,1.6,1.4,3.1,2.3,4.9c-0.5,0.5-1.3,1.3-1.9,1.8
	c6.9,4.4,13.6,8.8,18.6,12c-6.2,3.6-12.8,7.3-19.4,11.1c3.4,2.3,6.7,4.6,10.1,6.9c0.4-0.5,0.9-1.1,1.3-1.6c-0.7-0.8-1.5-1.7-3.4-3.8
	h24.6c-0.9,1.8-1.7,3.5-3,6.1c5.2-0.3,9.7-0.6,15-0.9c0.2,2.6,0.4,5.9,0.6,8.5C865.2,768.3,844,765.9,823.4,761.4z M868.9,707.4
	c1.7,0.5,6,1.8,13.9,4c-11.2,1.2-18.5,2-29,3.1C859.9,711.7,863.2,710.1,868.9,707.4z M860,688c2.3-6.2,3.6-14,5.5-14.1
	c15.9-1.2,17.2,9.7,14.4,21.2c-0.7,2.8-9.4,6.4-12.3,5.1C863.9,698.4,862.3,692,860,688z M946.7,669.7c3.8-0.6,7.5-1.2,11.3-1.8
	c0.1,0.3,0.3,0.6,0.4,1c-0.9,0.3-1.8,0.6,0.4-0.1c-11.3,20.8,1.1,31.8,14.1,44.8c-14.6-2.7-29.3-5-43.7-8.4
	c-1.7-0.4-2.4-7.3-2.5-11.2C926.2,672.8,926.3,672.8,946.7,669.7z M993.9,714.7c-4.2-0.8-8.2-1.6-13.1-2.6c0.4-4,0.8-7.4,1.2-10.9
	c1.5-0.3,2.9-0.7,4.4-1c-3.6-4.3-7.1-8.5-10.7-12.8l-3.3,1.5c1-7.7,0.2-16.5,3.8-22.8c2-3.6,11.1-3.2,17.7-4.8V714.7z M994.9,728.1
	c0.7,2-0.1,4.6-0.1,4.2c-15.6-0.7-26.8-0.4-37.8-2c-6.4-0.9-12.6-4.2-18.2-7.5c-1.4-0.9-0.3-6.1-0.3-9.4c2.4,0.7,4.8,1.4,7.2,2
	c8.5,2.1,17,4.5,25.6,6.2c6.3,1.2,12.8,1.2,19.2,2.3C992.3,724.1,994.3,726.3,994.9,728.1z M976.3,798.4
	c-14.8-3.9-29.7-7.8-44.2-12.9c-2.3-0.8-2.6-7.6-3.4-10.5h18.1c0.9-2,1.8-3.9,2.6-5.8c2.3,1.1,4.5,3.1,6.9,3.3
	c4.5,0.3,9.1-0.6,13.6-0.6c4.9,0,9.7,0.6,14.6,0.4c7.6-0.3,11.2,1.5,11.1,10.6C995.2,803.2,995.8,803.4,976.3,798.4z M902.8,468.5
	c-27.5-3.2-55.1-6.3-82.6-9.2c-1.6-0.2-4.9,1.6-4.8,2.2c0.6,4.4,1.1,12.3,3,12.7c25.5,5.3,51.2,9.1,76.8,14
	c31.2,6,62.2,12.6,93.3,18.9c1.6,0.3,3.1,1.1,4.7,1.6c-0.2,0.9-0.4,1.8-0.7,2.7c-11.3-2.6-22.6-5.1-34-7.7l-0.3,1.1
	c4.3,1.8,8.6,3.6,12.9,5.4c-0.3,1.2-0.7,2.4-1,3.6c-14.4-4-28.8-7.9-44.3-12.1c2,3.5,3.4,6.1,5.7,10.2c0.2-3,0.3-4.3,0.5-6.1
	c3.8,2.1,7.3,4.1,13.6,7.6c-15.3-0.8-27.6,4.6-39.7-6c-5.7-4.9-16.5-3.9-25-5.6l-1.1,4.4c11.1,2.7,22.3,5.4,37.4,9.2
	c-7.5,1.4-11,2.6-14.4,2.6c-44.6,0.1-89.3,2.2-133.8-0.4c-49.6-2.9-98.8-11.8-148.4-14.7c-59.1-3.4-118.4-1.8-177.5-5
	c-33.9-1.8-67.6-8.9-101.4-13.7c-8-1.2-15.9-3-23.6-7c10.2,1,20.5,2.8,30.7,3c20.8,0.3,41.7-0.1,62.5-0.4
	c15.9-0.3,31.7-0.5,47.6-1.5c22.6-1.4,45.2-3.3,67.8-5.4c2.1-0.2,3.9-3.2,5.8-4.9c1.5-1.4,3-2.7,4.5-4.1c0.7,2.2,1.3,4.4,2.4,7.8
	c14.1-1,29.3-2.1,45.7-3.3c-2.4-3.4-4.5-6.3-6.7-9.5c8.7,0,17.1,1,24.9-0.5c3.1-0.6,5.8-6.8,7.3-10.9c1.4-3.8,0.8-8.3,1.4-12.5
	c0.1-0.7,2.2-1,3.3-1.5c0.6,1.5,1.9,3.2,1.7,4.6c-1.1,6.7-2.5,13.4-4,21c11.6,0,22.7,0,33.9-0.1c0.4,0,1-1.1,1-1.7
	c0-0.6-0.5-1.4-1-1.8c-4.4-3.2-8.9-6.3-14-9.8c7.8-5.5,21.8,5,19.1-10.7c3,2.7,6.2,5.7,9.5,8.7c3.3-3.8,6.7-7.7,11.1-12.7
	c-4.2,14.4,6,10.6,12,10.9c25.4,1.1,50.8,1.3,76.2,2.6c9.2,0.5,18.3,3.1,26.7,4.6c-2.2-19.2-4.2-36.4-6.1-53.1
	c21.8,0,15.3,13.6,14.7,23.9c-0.4,7.7-2.7,15.3-2.3,22.9c0.2,4,4.4,7.7,6.8,11.6c1.3-1,2.6-1.9,3.8-2.9c-1.1-0.8-2.2-1.5-5-3.4
	c3.1-1.2,5.2-2,7.3-2.8c0.1,0,0.3,0.1,0.4,0.1c22.1,2.5,22.9,1.8,21.2-20.5c-0.3-4-0.4-8.1,0.8-12.2c0.5,6.3,0.4,12.7,1.6,18.9
	c0.6,3.3,3.3,6.2,5.1,9.3c3.2-2.4,6.4-4.7,8.4-6.2c1.6,14.1,15.1,4.3,23.4,6.2c14.6,3.5,20.1-2.9,19.2-18.2c-0.7-11.9,2.6-24,3-36.1
	c0.3-6.9-1.5-14-2.4-21.2c9.3,0,18.4,0.8,27.2-0.4c3.5-0.5,7.5-4.9,9.4-8.5c1.9-3.6,1.4-8.3,1.9-12.6c1.1-10.1,8.4-13.1,16.8-13.6
	c1.2-0.1,2.8,6.8,3.7,9.2c2-1.5,5.5-4.2,9.1-6.8c1,0.9,2,1.8,3,2.7c0.1-2,0.3-3.9,0.5-8c1.3,2.9,2.8,4.6,2.4,5.9
	c-4.6,18.7-8.5,37.7-14.6,55.9c-1.7,5.1-10.1,7.9-15.5,11.8c-1.1,0.8-3.1,1-3.4,1.9c-0.4,1.1,0.4,3.7,1.1,3.8
	c15,3.5,6.4,15.4,8.1,23.4c0.9,4.1-0.3,8.6-0.7,14.6c-2.2-4-3.6-6.5-6.7-12.2c-0.4,5.8-1.1,8.6-0.4,11.1c0.2,1,3.6,1.7,5.4,1.6
	c12.3-1.1,23.6-0.9,25.8,15.1c2.1,15,14,12.2,24,13.4c-1.7-15-3.4-29.5-5.1-44c1.4-0.2,2.9-0.3,4.3-0.5c2.7,14.5,5.4,29,8.1,43.6
	c1.2-0.1,2.5-0.1,3.7-0.2c0.9-13.3,1.7-26.7,2.6-40c0.7-0.1,1.4-0.1,2.2-0.2c2.4,14.5,4.9,29.1,7.5,44.6c2.5-1.6,3.5-2.2,4.8-3
	c0.7,1.4,1.3,2.5,2,4c0.4-0.5,0.8-0.9,1.1-1.2c14.6,2.7,27.9,5.3,41.2,7.8c-0.1,0.8-0.2,1.6-0.3,2.4c-8.3-1.1-16.7-2.3-25-3.3
	C989,478.4,945.9,473.4,902.8,468.5z M1049.7,730.9c-0.1,0.7-0.1,1.4-0.2,2.1l-12.4-0.6l0.1-2.1
	C1041.4,730.5,1045.6,730.7,1049.7,730.9z M1037.1,778.1c7.4,0.9,13.6,1.6,19.8,2.3l0.1,1.8c-6.1,0.5-12.3,1-19.5,1.6
	C1037.5,783.9,1037.3,781.2,1037.1,778.1z M1059.2,791.6c-2.6-1-5.2-2-7.9-3.1c0.3-0.6,0.6-1.2,0.8-1.8c2.6,0.8,5.2,1.6,7.9,2.3
	C1059.7,790,1059.4,790.8,1059.2,791.6z M1080.8,744.8L1038,740c0.1-0.9,0.2-1.9,0.3-2.8c14.3,1,28.7,2,43,3
	C1081.1,741.7,1081,743.3,1080.8,744.8z M1083.9,531.5c-0.5,0.2-1,0.3-1.5,0.5l-6.1-15.2c0.3-0.1,0.6-0.2,0.9-0.4
	C1079.4,521.4,1081.6,526.4,1083.9,531.5z M1077.7,496.9c0.5-0.2,1-0.4,1.5-0.6c4.1,9.5,8.1,19.1,12.2,28.6c-0.5,0.2-1,0.4-1.5,0.6
	C1085.8,516,1081.7,506.5,1077.7,496.9z M1078.2,618.4c5.4-0.5,10.9-0.2,12.1-0.2c10.7,0.5,17.2,1.3,23.7,1c7.7-0.4,9.5,3.8,7.7,9.8
	c-0.4,1.5-5.5,2.3-8.3,2.2c-11.9-0.5-23.8-1.3-35.7-2.6c-1.9-0.2-3.3-4.2-4.9-6.4C1074.6,620.8,1076.3,618.6,1078.2,618.4z
	 M1094.5,551.1c1-0.3,2-0.6,3.1-0.9c1.3,3.3,2.5,6.7,3.8,10c-0.9,0.4-1.8,0.7-2.8,1.1C1097.2,557.9,1095.8,554.5,1094.5,551.1z
	 M1106.2,547.9c-0.9-4.8-1.5-7.8-2.2-11.6c2.5,0.2,4.5,0.4,7.2,0.6C1109.6,540.4,1108.3,543.4,1106.2,547.9z M1115.2,537.7
	c0.6,6.7,1.3,10.1,1,13.3c-0.1,0.6-4.2,0.8-8,1.4C1110.5,547.5,1112.1,544.3,1115.2,537.7z M1122,645.1c-0.3,0.9-0.6,2.6-0.8,2.6
	c-4.5-0.4-8.9-1-13.4-1.6c0.2-1.1,0.3-2.2,0.5-3.3C1112.9,643.6,1117.5,644.4,1122,645.1z M1121.3,638.4c-0.1,0.8-0.1,1.5-0.2,2.3
	c-16.2-1.7-32.4-3.4-48.6-5c0.1-0.6,0.1-1.2,0.2-1.9L1121.3,638.4z M1105.4,757.8h12.8c0,0.5,0,0.9,0,1.4h-12.8
	C1105.4,758.7,1105.4,758.2,1105.4,757.8z M1217.7,855.2c-4.2,0.6-8.5,1.4-12.7,1.1c-2.3-0.2-4.5-2.2-9.3-4.9
	c8.5-0.7,15.1-1.2,21.6-1.8C1217.5,851.5,1217.9,855.2,1217.7,855.2z M1160.6,828.8c6.9-0.4,13.7-0.8,20.6-1.2
	c0,0.8,0.1,1.7,0.1,2.5h-20.7C1160.6,829.7,1160.6,829.3,1160.6,828.8z M1201.4,844.3c-18.7,14.1-36.5,4.8-54.1,1.3
	c-10.3-2.1-20.2-6-32.1-9.7C1145.1,838.8,1172.9,841.5,1201.4,844.3z M1123.8,524.4c2.1-1.9,3.1-3.7,4-3.6c3.5,0.2,7,0.9,10.4,3.6
	H1123.8z M1129.2,700.6v29.1c-0.4,0-0.8,0-1.2-0.1c0-4.8-0.1-9.7,0-14.5C1128.2,710.3,1128.6,705.5,1129.2,700.6z M1124.4,703.1
	v28.8c-0.3,0.1-0.7,0.3-1,0.4v-29.2C1123.8,703.1,1124.1,703.1,1124.4,703.1z M1178.9,634.3h-32.8l-0.1-1.4h32.9
	C1178.9,633.3,1178.9,633.8,1178.9,634.3z M1148.9,564.2c-0.4,0-0.8,0-1.2,0c-0.5-8.3-1-16.5-1.5-24.8c0.9,0,1.8,0,2.7,0V564.2z
	 M1157.3,604.9c-0.2,0.9-0.4,1.8-0.6,2.7c-2.9-0.2-5.7-0.3-8.5-1c-0.3-0.1,0.2-3.5,0.4-5.1C1152,602.8,1154.6,603.9,1157.3,604.9z
	 M1174.7,457.7c-5.5-4.3-14.2-5.9-21.6-6.1c-27-0.7-54-0.3-82.4-0.3c0,0,0,0,0,0c-0.3,0.5-1.4,1.9-2.9,4.1c9,21.7,18.7,44.8,28.3,68
	l-1.3,0.6c-10.3-23.6-20.6-47.2-31-70.8c-0.7,0.3-1.4,0.6-2.1,0.9c4.5,11.3,9.1,22.5,13.6,33.8c-0.5,0.2-0.9,0.4-1.4,0.6
	c-5.3-11.7-10.6-23.5-15.9-35.2c-0.6,0.3-1.2,0.5-1.8,0.8c4.2,10.3,8.5,20.7,12.7,31c-0.5,0.2-1,0.4-1.5,0.6c-5-11-10-22-15-33
	c-0.5,0.2-1.1,0.4-1.6,0.6c4.1,10.2,8.2,20.4,12.3,30.5l-2,0.8c-2.8-6.4-5.2-13-8.4-19.2c-2.6-5-6.1-9.6-9.1-14.4
	c-0.4-0.6-0.8-1.8-0.7-1.9c1-0.7,2.2-1.6,3.3-1.6c6.1-0.2,12.1-0.1,20.2-0.1c-4.9-3.7-8.5-5.9-11.3-8.8c-8.3-8.5-9.1-28.8-5.6-40
	c2.5-8.2-0.1-17.9-0.5-27c-0.1-1.4-0.6-2.8-1.2-5.2c15.5,0,30.4-0.1,45.2,0.4c0.6,0,0,6.6,1.6,9c5.4,8.2,11.5,15.9,17.3,23.7
	c-0.7-1.4-1.4-2.8-4-7.7c5.2,4.6,7.4,6.6,9.7,8.7c-0.4,0.6-0.8,1.2-1.2,1.7c-1.5-0.9-3-1.8-4.5-2.6c-2.7,8.4,4.7,22.1-13,22.3
	c7.2,6.6,2,10.6-9.2,8.5c-3.4-0.6-6.5-2.9-9.3-4.2c-1.2,3.4-2.1,6.3-3.3,9.1c-2.2,5.1-4,8.9,4.9,8.6c11.9-0.3,23.9,1.2,35.8,1.4
	c4.1,0.1,8.3-1.4,13.7-2.4c1-1.3,3-4,5-6.7c-4.5,0.3-8.9,0.6-14.2,0.9c0.5-4.3,1.1-10,2.1-15.6c0.1-0.4,2.6-0.4,4-0.6
	c1-3,2.2-6.4,3.4-9.9c-0.3-1-0.5-2.1-0.8-3.1c3.6-1.7,7.2-3.5,13.4-6.5c-1.4-10.2-3.1-23.4-4.8-36.5c-1.7,0.3-3.4,0.5-5.2,0.8
	c0.3,1.3,0.7,2.6,0.9,3.9c0.3,1.6,1.1,4.2,0.4,4.7c-1.7,1.3-4.1,1.7-6.2,2.4c-4.8,1.6-9.5,3.5-14.3,4.7c-1.3,0.4-4-0.5-4.5-1.6
	c-0.8-1.7-0.2-4-0.2-9.4c-1.8,5.4-2.6,7.6-3.4,9.9c-0.8-0.3-1.6-0.5-2.4-0.8c2.1-5.6,3.6-11.6,6.6-16.7c1.7-2.8,5.8-4.1,10.1-4.2
	c-0.7,1.3-1.4,2.6-2.4,4.3c4.2-1.2,7.8-2.2,11.5-3.2c-0.2-0.4-0.6-1-1-1.8c2.6-0.7,5.1-1.4,7.6-2l-0.1-3.2c-6.9,0.5-13.9,1-20.8,1.5
	c-0.2-0.8-0.4-1.7-0.6-2.5c4-0.8,8-2.2,12.1-2.4c4.7-0.2,9.4,0.5,16.3,1c-2.1-4.8-2.9-10.5-5.4-11.4c-4.4-1.5-9.7,0-18.1,0.3
	c4.1,3.8,5,4.6,6.5,6c-5.3,2-9.9,3.8-16.1,6.1c1.9-2.6,3-4,4.5-6.1c-2.5-0.5-4.7-0.8-8.1-1.5c5.4-2.8,9.8-5.1,16.8-8.7
	c-5.2-0.6-7.7-1-10.2-1.1c-21.6-0.9-43.1-1.6-64.7-2.6c-1.6-0.1-3.1-1.5-4.6-2.3c1.7-0.5,3.4-1.5,5.1-1.5
	c22.3,0.8,44.6,1.5,66.9,2.8c6.3,0.4,12.5,3.4,18.8,3.6c2.6,0.1,7.2-3.7,7.6-6.2c2.9-17.3,5-34.7,7.3-52c0.2-1.2,0.8-2.3,1.3-3.9
	c5.3,17.7,10.5,34.7,16.4,54c4.4-6.2,8.1-11.4,11.9-16.8c0.1,0.8,0.7,2,0.6,3.3c-1.4,15.9-2.8,31.7-4.4,47.5
	c-1.1,10.5-4.8,18.3-17.6,17.2c-3.4-0.3-7,0.9-14.2,2.1c10.7,1.9,21.4,1,23.9,5.1c3.1,5.1-0.5,14.4-1.3,23
	c-0.8-3.2-1.5-5.6-3.2-11.9c-0.7,7.3-1.1,10.7-1.3,14c-0.4,7.4-1,14.9-0.8,22.3c0.1,2.3,2.6,4.6,4.2,7.1c-1.4,0.8-3.6,2-9.1,5.1
	c-0.8,0.3-2.3,0.8-4.5,1.6c19,3.8,34.6,6.9,52.5,10.4c-3.7,1.3-5.2,1.8-7,2.4c0.9,3.9,1.8,7.8,3.5,15.7c-4-7.9-6.2-12.2-8.4-16.6
	c-0.5,0.1-0.9,0.3-1.4,0.4l3.2,11.9c-0.4,0.2-0.8,0.3-1.2,0.5c-2.2-4.3-4.3-8.7-6.5-13c-0.6,0.2-1.1,0.5-1.7,0.7
	c4.1,12.3,8.2,24.5,12.2,36.8c-0.1,0.1-0.3,0.1-0.4,0.2l-15.9-38.1c-0.8,0.3-1.6,0.6-2.3,0.9c6.5,18,13.1,36,19.6,54.1
	c-0.4,0.2-0.8,0.3-1.2,0.5c-4.6-12.1-9-24.2-13.8-36.2C1181.5,469.8,1179.7,461.5,1174.7,457.7z M1122,415.7
	c-0.1,11.4,1.6,23.5-14.4,21.1c1.1-4.4,2.2-8.7,4-16C1113,420.1,1117.5,418,1122,415.7z M1244.5,616.8c-3.3-0.7-5.8-5.7-8.2-9.1
	c-0.8-1.1-0.3-3.1-0.4-5.1c-14.7-1.7-29.3-3.4-43.9-5.1c0-0.5,0.1-1.1,0.1-1.6h25.5c-10.6-1.8-18.7-3.1-26.7-4.4
	c0.2-1.1,0.5-2.2,0.7-3.3c14.6,3.2,29.2,6.4,45.1,9.9c-1.5-16.4-3.2-34.3-4.8-52.1c1.5-1.4,3.2-3,5.2-4.9c1.5,1.7,3.1,3.5,3.3,3.7
	c1.6,7.7,2.9,13.7,4.5,21.4c4,9.7,7.8,21.4,4.5,34.6c-0.4,1.7,1.5,3.8,1.5,5.7C1250.6,611,1253.7,618.6,1244.5,616.8z M1253.2,494.5
	c-1.4-3.4-2.8-6.9-4.1-10.3c0.6-0.3,1.2-0.6,1.9-0.9l4.7,10C1254.8,493.7,1254,494.1,1253.2,494.5z M1301,385.2
	c-2,7-3,10.7-4.3,15.3c-1.3-3.1-2.1-5-2.8-6.7C1295.5,391.8,1297,390.1,1301,385.2z M1291.4,423.9c7.9-2.2,16.1-3.3,24.3-4.5
	c1.1-0.2,3.5,1.7,3.7,2.8c0.2,1.5-1,4-2.2,4.5c-7.4,3.2-15,5.9-22.6,8.8c-3.9-2-6.7-3.4-9.4-4.8
	C1287.2,428.4,1288.9,424.6,1291.4,423.9z M1271.4,376.6c4.3,2.3,8.6,4.6,13,6.9c-4,2.6-8,5.3-11.9,7.9l-3.5-2.7
	C1269.8,384.7,1270.6,380.6,1271.4,376.6z M1273.6,513.9c0.8-0.6,1.5-1.3,2.3-1.9c3.8,7.6,9.2,14.8,11.1,22.8
	c1.7,7.5,0,15.8-0.9,23.7c-0.2,2.3-2.7,4.3-4.1,6.4c-2.8-2.2-7.8-4.2-7.9-6.5C1273.2,543.6,1273.6,528.8,1273.6,513.9z
	 M1279.4,622.8c-2.8-4.1-4-5.9-5.2-7.7c2.2-1.3,4.3-3.2,6.6-3.7c0.9-0.2,3.8,2.5,3.6,3.5C1284,616.9,1282.2,618.6,1279.4,622.8z
	 M1275.1,605.8c0.1-0.7,0.2-1.4,0.3-2.1c3,0.4,5.9,0.8,8.9,1.1c-0.1,0.7-0.1,1.5-0.2,2.2C1281.1,606.6,1278.1,606.2,1275.1,605.8z
	 M1280.7,598.7c-9.5,1.9-8.4-5.7-9.3-11.7c-1.1-7.7,3-10,8.9-7.9c3.1,1.1,5,5.8,8.7,10.4C1285.3,593.8,1283.4,598.2,1280.7,598.7z
	 M1293,520.4c-0.7-4.9-1.4-9.8-2.1-14.7c1.3-0.2,2.6-0.4,3.8-0.6c0.8,4.9,1.5,9.8,2.3,14.7C1295.6,520,1294.3,520.2,1293,520.4z
	 M1312.2,516.1c0,0.7,0,1.4,0,2.2c-2.5,0.3-4.9,0.5-7.4,0.8c0-0.9,0-1.7-0.1-2.6C1307.3,516.3,1309.8,516.2,1312.2,516.1z
	 M1305.1,621.6c-0.2-0.8-0.4-1.5-0.6-2.3l12.5-3.5l0.6,2.1C1313.4,619.1,1309.2,620.3,1305.1,621.6z M1355.1,516.6
	c-0.1,1.2-3.1,3-4.6,2.9c-1.4-0.1-3.4-2.1-3.9-3.7c-1.3-4.7-2-9.5-2.5-12.4c-5.4-1.9-9.6-3.4-13.8-4.8c3.7-1.5,7.4-2.9,11.9-4.6
	v-2.2c1.2-0.2,2.4-0.4,3.5-0.7c-0.5-4.1-0.9-8.3-1.4-13h13.7C1357.1,490.9,1356.3,503.8,1355.1,516.6z"/>
</svg>
