<?xml version="1.0" encoding="utf-8"?>
<!-- Generator: Adobe Illustrator 18.0.0, SVG Export Plug-In . SVG Version: 6.00 Build 0)  -->
<!DOCTYPE svg PUBLIC "-//W3C//DTD SVG 1.1//EN" "http://www.w3.org/Graphics/SVG/1.1/DTD/svg11.dtd">
<svg version="1.1" id="Layer_1" xmlns="http://www.w3.org/2000/svg" xmlns:xlink="http://www.w3.org/1999/xlink" x="0px" y="0px"
	 viewBox="0 0 595.3 841.9" enable-background="new 0 0 595.3 841.9" xml:space="preserve">
<g>
	<polygon fill="#FFDD00" points="370.5,21.6 372.4,14.9 379.6,13.1 380.9,8.3 403.8,8.3 409.5,19.7 380,34.9 	"/>
	<path fill="#FFDD00" d="M250.4,206.2l-3.4,16.3L236.5,242l-10.5,13.3l-20.2,10.9l-4.7,16.4l-53.3,30.8l-58.3,98.3l5.5,132.1
		l-12.3,35.6l5.5,134.1l7.1,78.1l7.3,41l252.9-1.5l20.1-279.7l-6.5-58L334.3,413l-13.1-15.9l5.6-18.7l-0.9-15.4l1.4,2.9
		c0,0-6.7-22.5,4-31l-1,20.4l10.1,21l5.9-5l-6.7-18.5l-3.4-20.2l13.4-26l21.8-10.9l27.3,0.6l8.8-3.2l5-12.6l5-5.9l1.2-15.2l4-5.7
		l10.9-19.5c0,0,10.7-14.1,14.1-23.4l-2.8-15l8.6-13.3l3.5-7.1l7.1-9.8l-1.3-19.5c0,0,3.4-13.4,5.9-25.2l1.5-20l-7.4-15.8l2.6-24.6
		L451.5,43l-47.4-22.9l-14.6-2.3l-37.4-1.9l-9.2,3.4c0,0-21.8,0-33.6,7.6l-10.1,9.2l-10.1,5l-17.6,21.8l-11.8,10.9l-2.5,18.5
		l-3.6,16.5l-0.6,21.3l-2.1,1.8l-5.1,9.8l-1.7,11.5l4.7,14.2l-0.8,15.8l1.4,6.5l-0.2,12.6L250.4,206.2z"/>
	<polygon fill="#95D600" points="461.3,58.7 460.8,69.1 456.5,75.3 461.3,85.3 470.3,83.9 466.1,75.8 468,69.6 	"/>
	<polygon fill="#95D600" points="284.9,86.7 291.5,78.2 283.9,77.2 289.2,64.8 314.4,62.9 338.6,61 339.6,71 330.1,76.3 322,86.2 	
		"/>
	<polygon fill="#95D600" points="341.5,71.5 335.8,86.6 342.2,83.1 345.3,87.7 336.2,89.6 336.7,96.7 351.9,91.5 355.7,98.1 
		368.1,94.3 366.4,88 360,65.3 	"/>
	<polygon fill="#95D600" points="443.5,117.6 453.7,125.2 459.4,126.2 453.2,128.1 445.6,122.6 	"/>
	<polygon fill="#95D600" points="387.6,62.5 388.5,71.5 402.8,64.8 408,64.8 407.1,68.6 417.5,65.8 427.5,65.3 421.8,68.6 
		439.4,70.5 453.2,82.4 435.1,60.6 403,57.4 	"/>
	<polygon fill="#95D600" points="400.9,118.1 379.5,124.3 368.6,133.8 358.9,135 359.5,125.2 372.8,122.4 385.2,118.1 395.7,115.7 	
		"/>
	<path fill="#95D600" d="M385.2,99.6l5.7,8.1l6.7,1.9l0.5,7.1l-27.6,6.7l-5.2-11.9l5.2-17.6l-4-5.8l-9.4-6.4l-5.4-11.9l23.2-11.1
		l19.5,4.3c0,0-7.1,7.1-8.6,11.9l1.4,15.2l15.2,6.2l15.7,0.5l-5.7,3.8L385.2,99.6z"/>
	<polygon fill="#95D600" points="389.5,209.4 383.8,218 384.7,230.3 406.6,240.3 406.6,252.7 411.8,253.1 415.2,238.4 417.1,228.4 
		395.2,227.9 	"/>
	<path fill="#95D600" d="M376.9,219.8l-4.7,10.7c0,0-0.5,6.5,2.3,10.7l8.9,2.8l13.1-0.5l7.2,0.9l0.1,6.3l-21.1,1.8l-13.2-6.5
		l-17.5,4.7l3.3-5.7l7.2-2.4l3.3-11.2L376.9,219.8z"/>
	<path fill="#95D600" d="M402.8,261.7l13.8-1.4l6.2-6.7L419,265l-4.3,6.2l-1.4-5.7l-3.8,0.5l-0.5,7.6c0,0-0.5-2.9-5.7-4.8l-8.1-0.5
		c0,0-12.4,3.8-13.8,5.2c0,0,0-5.7,2.9-8.1c2.9-2.4,10.5-3.8,10.5-3.8H402.8z"/>
	<polygon fill="#95D600" points="398.5,260.8 388.5,257 382.7,252.6 373.8,249.8 379,257.4 392.3,261.7 	"/>
	<polygon fill="#95D600" points="431.3,227.5 436.1,222.7 433.7,228.9 433.7,234.1 427.9,239.5 424.5,231.2 	"/>
	<polygon fill="#95D600" points="449.5,150.5 458.9,151.8 461.8,151.1 462.9,149.7 465.4,159.7 462.2,170.9 456.4,161.4 
		441.5,160.9 	"/>
	<polygon fill="#95D600" points="439,215.5 435.9,190 434.4,180.9 433.2,173.4 438.7,182 442.3,185.9 439.1,190.3 445.4,192.2 
		441.5,195.6 442.1,203 439.7,200.5 	"/>
	<polygon fill="#95D600" points="415.4,135.3 424.1,131 422.9,144 420.4,154.6 422.3,159.5 427.2,141.5 429.1,157.7 424.7,165.1 
		426.6,172.6 427.9,188.7 428.5,207.4 422.9,209.2 418.5,205.5 419.2,216.1 410.8,221.7 396.2,221.7 393.7,216.7 400.5,216.7 
		408,211.7 409.2,199.3 	"/>
	<path fill="#95D600" d="M372.9,146.8c0,0,9.6-9,17.1-9.6l9.5,2.3l11.7,14.4l1.8-10.5l-23.2-11.5l-17.8,7.2L372.9,146.8z"/>
	<path fill="#95D600" d="M381.9,135.3l-5.6,3.7v9.3l4.7-1.8c0,0,11.2-7.2,15.4-2.1l-10.8,2.7l-3.7,3.7l8.7,2.5l4.3,6.8l-13-5
		l-12.1,2.5l5.9-24.3L381.9,135.3z"/>
	<polygon fill="#95D600" points="386.9,172.6 383.1,169.5 374.4,166.4 373.8,160.2 369.8,157.7 366.3,161.4 375,170.7 	"/>
	<polygon fill="#95D600" points="357.6,249.8 362,266.4 370.1,266.4 377.5,285.7 387.5,292.5 394.9,291.9 398.7,296.2 384.4,298.1 
		345.8,286.3 322.9,233.5 	"/>
	<path fill="#95D600" d="M399.5,133.8c0,0-11.4-3.3-19.5-1.4l-9,8.6l0.5-4.8l-7.6,2.4l-4.8,4.6l-0.7,8.3l-10.2,7.3
		c0,0,18.5,11.7,28.8,35c0,0-4,3.3-8.8,7.6l-10.5,20.9c0,0-1.2,25-0.8,28.3l-14.3-6l-35.8-112.7l16.2-16.6l22.8-14.3l17.6-4.8v14.3
		l9.5,8.6l-6.6,4.6l-3.4,7.8l26.2-8.1L399.5,133.8z"/>
	<polygon fill="#95D600" points="289.6,138.5 274.9,127.6 259.7,129.5 249.7,140.9 247.3,151.4 254.4,180.4 265.9,210.8 282,207.5 
		289.6,166.1 	"/>
	<g>
		<polygon fill="#FFDD00" points="430.2,466.7 428.9,472.2 422.5,479.4 397,492.5 387.2,494.1 379.4,490.3 374.3,480.9 391.1,485.5 
			408.6,480 422.5,472.7 427,469.8 		"/>
		<polygon fill="#95D600" points="356.1,360.8 341.7,372.4 332.8,384.3 332.5,393.5 336.1,400.9 359.5,434.8 380,467.8 389.5,476.1 
			406.1,476.6 423.6,470.1 431.2,465.3 440,456.6 447.3,447 448.9,438.2 446.2,429.6 443.2,424.9 437.4,426.2 436.8,424.9 
			439.8,422.7 440.2,419.4 437.9,416.9 431.1,418.5 430.7,417.1 434.7,414.9 434.6,411.8 432.8,409.6 426.8,410.1 429.8,406.3 
			428.2,401.7 421.8,402.4 424.8,397.8 422.7,393.6 417.2,394.3 419.9,390.2 417.6,385.8 412.6,385.9 414.8,382.5 412.5,378.1 
			408.1,377.8 410,374.1 407.1,370.1 403.6,370.3 404.9,367.1 401.8,362.6 396.1,357.2 389.7,354.8 386.7,354.3 381.5,353.5 
			377.9,354.2 372.3,354.7 369.7,355.9 365.1,355.9 361,358.4 		"/>
		<polygon fill="#95D600" points="434.8,458.6 434.6,469.2 430.9,479 408.5,498.5 395.2,500.9 383.2,497.1 373.6,491.4 362.3,471.6 
			345.4,425.5 349.6,422.5 358.3,422.9 360.7,428.3 372.3,466.9 376.4,479 388.3,483.6 401.9,481.5 419.7,475.2 428.1,470.9 
			431.2,465.3 		"/>
		<polygon fill="#FFDD00" points="387.6,354.5 390.8,355.8 393.6,358.8 395.6,360.2 393.5,359.5 390.5,356 		"/>
		<polygon fill="#FFDD00" points="377.9,354.2 381.7,355 383.2,356.2 386.4,359.9 388.3,361.3 385.6,360.2 382.5,356.7 380.4,355.3 
			378.2,354.7 375.8,354.4 		"/>
		<polygon fill="#FFDD00" points="381,363 378.3,360 374.6,357 371.4,355.6 367.5,355.9 372.1,356.5 375.8,359 379.2,361.7 		"/>
		<polygon fill="#FFDD00" points="371.2,363.1 365.4,359.5 361.2,358.7 365.2,360 370.3,363.4 373.6,365.8 		"/>
		<polygon fill="#FFDD00" points="350.4,422.6 356.7,422.8 359.1,424.9 371.4,471.1 363.8,452.6 356.2,426.7 353.6,423.6 		"/>
		<polygon fill="#FFDD00" points="411.3,396.8 400.5,392.1 391.8,381 398.9,394.3 407.8,398.9 409,401.4 408.4,408.6 412.7,398.1 		
			"/>
	</g>
	<path fill="#FFDD00" d="M427.4,416.5l26,9.6l15.9,7.9l1.9,10.3l-3.4,17.7l6.5,7.9l4.2,15.9l7.9,7.9l2.8,12.6c0,0-4.7,17.8-8.4,25.7
		l-9.8,15l42.5,97.7l-2.8,9.3l8.4,20.1l-19.6,1.4l-36-84.1l-19.2,39.7l-34.6,15l-22.9-1.4l-8.9-105.2l14.5-9.3v-14.5l-9.3-11.2
		l25.7-6.1l-6.2-5.2l-0.5-5.8l9.1-8.5l-19.3-16.2l53.5-26.4l-54.9-14.6l0.7-3.9l20.7-2.5L427.4,416.5z"/>
	<polygon fill="#95D600" points="380.9,485.2 395.8,485.7 421.2,473.5 428.8,470 431.2,465.3 404.4,472.8 381.2,468.6 365.4,444.8 
		372.8,471.4 	"/>
	<polygon fill="#95D600" points="352.9,451.8 327.8,413.1 325.2,403.2 326.6,392.6 335.6,380.2 334.3,393.6 349.3,418.9 
		351.9,424.3 	"/>
	<path fill="#95D600" d="M150.6,353.6c0,0-9,55.2-6,57.9l32.6,26.3l-6.9,13.7l39.2,34l-61.7-9.8L84,439.8L97,381l31.2-33
		L150.6,353.6z"/>
	<polygon fill="#95D600" points="196.8,422.3 215.1,458.8 238.9,470 254.3,503.7 250.1,514.9 240.3,506.5 230.5,513.5 255.7,558.3 
		265.5,516.3 247.3,464.4 222.1,449 210.9,430.7 	"/>
	<path fill="#95D600" d="M94.2,524c0,0,21.8,80.1,25.9,80.5c8,0.8,15.4,6.9,24.8,8.5l50.5-7l23.8,15.4l-23.8,22.4
		c0,0-46.3,5.6-50.5,4.2c-4.2-1.4-65.2-31.8-65.2-31.8L94.2,524z"/>
	<path fill="#95D600" d="M295,524.7l-14.9,68l15.2,16.6v30.4c0,0,19,13.3,55.2,28.5l-3.2,163.5l-42.1,1.9h-87.9l26.2-127.1l1.9-69.2
		l5.2-20.4l4.2-35.7l15.9-63.6L295,524.7z"/>
	<polygon fill="#95D600" points="322.3,624.2 327.5,624.2 329.1,631 322.1,640.4 317.2,636.2 	"/>
	<polygon fill="#95D600" points="136.5,646 113.4,654.4 103.7,652.6 106,716 87.4,702.6 83.3,611.6 	"/>
	<polygon fill="#95D600" points="147.8,711.9 173.1,732.5 127.4,749 92.2,757.3 90.1,723.1 	"/>
	<polygon fill="#95D600" points="132.3,760.3 164.6,723.1 195.4,704.2 178.6,746.9 185.6,744.1 204.6,707.7 200.3,733.6 
		191.2,759.6 171.6,782 185.6,798.8 161.8,817.7 	"/>
	<path fill="#95D600" d="M138.9,471.9l-10,13.8v14.3l31.5,13.1l11.2,28l16.8,12.2l4.7,11.2L152,548.5l-65.9-40
		c0,0,1.4-62.8-1.4-65.6S138.9,471.9,138.9,471.9z"/>
	<path fill="#95D600" d="M233.3,266.7l-9.8,8.4l9.8,15.4l8.4,21l8.4,54.7l-23.8-63.1l-26.6-26.6l14-15.4
		C213.7,261.1,222.1,248.5,233.3,266.7z"/>
	<polygon fill="#95D600" points="208.1,286.3 178.6,307.3 173,335.4 184.2,359.2 168.8,373.3 141.7,361.6 133.7,345.2 164.6,301.7 
		199.6,276.5 	"/>
	<polygon fill="#95D600" points="275.4,280 288.3,310.2 289,325.3 303.4,342.9 314.6,357.8 313.6,370.1 325.1,374 319.2,362.7 
		319.5,352.9 314.3,335.4 	"/>
	<polygon fill="#95D600" points="311.1,496.6 302.7,496.6 297.1,504.4 292.2,523.3 270.7,517.7 286.6,498.7 299.2,485.4 	"/>
	<path fill="#95D600" d="M381.2,498l12.6,2.1l3.7,6l9.6,8c0,0,4.9,6.3,20,7.4l-11.2,1.1l-18.6-1.4l13.3,14.7l7,7l19.6,7l-6.3,17.5
		l-17.9-10.9l-1.1,5.6l9.8,23.5l-6.3,0.4l-19.3-34l-4.2-21.7l-0.4-13.7l-8.8-8.4L381.2,498z"/>
	<polygon fill="#95D600" points="252.5,255.9 244.5,265.7 253.4,277.9 266.5,300.3 228.6,265.3 245,249.9 	"/>
	<polygon fill="#95D600" points="349.7,468.6 354.6,485.4 356.7,534.5 351.1,543.8 324.9,492.4 285.9,448.3 309,482.6 323.7,498.7 
		342,552 356.7,615.1 371.4,583.6 362.3,507.9 	"/>
	<polygon fill="#95D600" points="400.9,551.3 391.7,565.4 398.1,593.6 394.5,599.9 405.3,626.1 407.9,643.9 373.5,648.1 
		374.2,541.5 384.7,537.3 391.7,525.4 	"/>
	<polygon fill="#95D600" points="447.4,508.3 492.7,627 494.1,659.8 438.5,510.7 	"/>
	<polygon fill="#95D600" points="455.3,506.9 461.9,528.4 472.6,518.6 478.7,506.9 475.9,499.9 461.9,495.2 449.2,495.7 
		433.3,503.7 436.6,508.8 	"/>
	<path fill="#95D600" d="M475.9,485.4v-10.8l-18.7-1.9l-20.6,5.1l-22,12.6c0,0-7,2.3-12.2,2.8c0,0,4.7,5.6,11.2,7.5l35.1-19.2H467
		L475.9,485.4z"/>
	<path fill="#95D600" d="M465.6,447.1l3.7,13.1l-7.9,4.2l-21.5-0.9l-21,6.5c0,0-10.8-9.8-12.2-14.5l9.8-1.4c0,0,8.4,2.8,10.8,2.8
		c2.3,0,15-5.6,15-5.6l14-0.9l6.5,1.9L465.6,447.1z"/>
	<path fill="#95D600" d="M459,442c0,0-5.1-5.1-15.4-7.9l-17.3-3.7l-19.6-0.9l-15-3.7l-0.9-5.6c0,0,7,3.5,11.6,2.6l18.5-2.9l9.1,5.9
		l20.1,5.1c0,0,13.6,6.5,16.4,8.4l1.9,10.8L459,442z"/>
	<polygon fill="#95D600" points="434.2,630.2 407.9,643.9 382.4,640.6 399.7,622.8 417,596.2 421.2,603.7 414.6,621.4 	"/>
	<polygon fill="#95D600" points="275.4,314.4 285.2,352.9 307.6,383.8 317.4,397.1 326.5,425.1 304.8,392.2 281.7,364.1 274,346.6 
		266.5,300.3 	"/>
	<path fill="#95D600" d="M456.6,441.3l-6-1.4l-4.9,0.4l-5.6,2.1l-6.7,2.5l-7.7,4.2l-8.4,2.8l-9.5,2.5l0.7,4.2l7,11.9l-7.7,4.9
		l-17.9-1.4l-10.5-3.2l-11.6-20c0,0,7.4,4.9,11.9,6.3c0,0,10.9-0.4,14.4-1.8l27.3-8.8l27.3-12.6l10.2,5.3l1.1,4.9L456.6,441.3"/>
	<polygon fill="#95D600" points="259.9,399.9 294.3,407.6 307.6,437 326.5,457.4 347.6,547.8 317.4,488.9 265.5,428.6 259.2,413.9 
		253.6,379.6 	"/>
	<polygon fill="#95D600" points="282.4,537.3 309,549.9 330,549.9 330,558.3 304.8,562.5 268.4,556.9 	"/>
	<polygon fill="#2F1A45" points="299.7,146.9 301.5,169.4 296.8,166.6 294.6,146.4 288.2,150.3 283.1,157.6 287.8,172.5 
		288.5,184.4 283,193.9 275.4,203.1 285.4,219.9 299.1,217.1 293.6,176.5 310.7,185.5 312.2,149 	"/>
	<path fill="#2F1A45" d="M261.2,168.1c-2-0.3-3.9-0.5-5.9-0.7c2.8,8.3,10.7,24.6,10.7,24.6l14.1,16.1l10.1-28.7l-4.6-23.4l9.8-9.5
		l17.8,4.1l-0.2-17.5l-28.8-6.6l-4.5-21.3c-0.2,0-0.4-0.1-0.5-0.1c-6.6,2.4-17.3,4.2-25.5,3.6l-3.8,15.4l0.2,10.2l8.4-7l8.3-2.1
		l15.1,4.4c2.1,3.9,5.8,13.3,5.8,13.3l-5.3,6.6l-4.6-10.6l-8-0.8L269,134c-10.5,5.5-13,15.6-14.5,18.8c1.8,1.6,4,1.5,6.4,2.5
		l5.4-7.4l8,5.1l1.8,6.8l-5.1-0.6l-2.6,9.7l3.8,5.8l-1.6,7.4l-9.5-9.8L261.2,168.1z M278.6,187.1l1.6-11.6l-4.4-9.2l8.9,6.3
		l-2.3,11.8L278.6,187.1z"/>
	<polygon fill="#2F1A45" points="235.4,266.7 248,255.5 262.7,266.7 297.8,311.6 272.6,266 252.2,249.2 236.5,241.9 222.5,257.1 	
		"/>
	<polygon fill="#2F1A45" points="282.4,342.4 271.2,308 234,270.2 222.1,261.1 210.9,273 232.6,295.4 244.5,335.4 257.8,370.4 
		255,375.4 269.8,402.7 260.6,400.6 243.8,366.9 221.4,308.7 175.6,288.5 208.8,257.7 224.2,255.3 232.6,259.7 266.9,296.1 
		277.5,313 	"/>
	<polygon fill="#2F1A45" points="203.9,284.9 173,302.4 153.4,336.1 168.1,356.4 152.7,366.2 142.9,363.4 123.2,374.7 119,409.7 
		100.8,423.7 89.6,490.3 75.9,474.8 78.3,449.9 90.2,378.2 134.1,321.7 167.3,296.8 196.9,280.2 	"/>
	<path fill="#2F1A45" d="M454.1,545l7,17.5l7.7,30.8l-14,12.6c0,0-18.9-0.7-27.3-4.9l-22.4-25.9l-13.3-27.3l-1.4-18.2l6.3,9.1
		l5.6,18.9l16.8,27.3c0,0,16.1-8.4,23.8-16.1l2.1-23.1L454.1,545z"/>
	<polygon fill="#2F1A45" points="438,541.5 426.8,561.1 407.9,553.4 394.5,529.6 393.8,521.9 390.3,515.6 389.6,524.7 391.7,537.3 
		412.8,582.9 438.7,587.1 448.5,549.2 457.6,552 452.7,539.4 448.5,530.3 	"/>
	<path fill="#2F1A45" d="M468.4,466.7l-24.8,0.9l-11.7,5.1c0,0-7,1.9-13.1,1.4l-10.8-5.1l-0.5-11.2c0,0,7,4.2,8.9,4.7l12.6-0.5
		l18.2-6.5l17.3,1.9l1.9-5.6l-9.3-6.5l-3.3-5.1l7.9,1.9l9.3,7.9l-0.5,12.2L468.4,466.7z"/>
	<path fill="#2F1A45" d="M444.7,440.6l-16.5-6.6c0,0-7,0-10.3,0.9l-14,0.9l-11.2-1.4c0,0-3.3-4.2-4.7-7.5l2.3-6.1l5.1,4.7l18.7,0.5
		l6.5-5.6l5.6,4.7l4.2,3.3l18.8,7.2l1.2,4.5L444.7,440.6z"/>
	<path fill="#2F1A45" d="M473.5,468.6l3.7,3.7l1.9,13.1l2.3,3.3l-9.8-3.3l-22.9,1.9l-15.4,9.3l-8.9,4.2l1.9,3.7
		c0,0-6.5,0.9-10.3-0.5l-7.5-6.1l15.4-7l25.2-12.6l24.8,2.3L473.5,468.6z"/>
	<path fill="#2F1A45" d="M468.9,506.5l-6.5-1.4l-7.9-7.5l-17.3,7l-3.3-1.9l-9.3,5.1c0,0,4.2,4.7,12.2,6.1l12.2-3.3l12.6-0.9
		L468.9,506.5z"/>
	<polygon fill="#2F1A45" points="408.1,522.3 394.1,514.4 386.1,504.6 384.7,499 377.7,497.1 381.9,511.1 408.1,533.1 400.2,521.9 	
		"/>
	<polygon fill="#2F1A45" points="458.1,596.2 446,626.6 440.4,627 441.8,617.2 429.6,624.2 427.3,628.9 410.4,640.6 391.3,643.4 
		382.9,638.3 382.9,649.9 405.3,651.8 445.5,633.6 458.6,611.2 468.9,593.4 460.5,584 	"/>
	<polygon fill="#2F1A45" points="370,500.8 383.3,572.4 385.7,725.3 394.2,831.8 338,831.8 356.7,663.5 353.9,603.9 363.7,578 
		356.7,496.6 324.4,419.5 330.8,417.2 336.4,426.5 362.3,494.5 	"/>
	<path fill="#2F1A45" d="M75.9,618.3c5.6,39.3,10.7,111.5,10.7,111.5l64.7-11.6l9.1-37.9c24.5-18.2,53.3-54,53.3-54l-11.2-3.5
		l-61,9.8c-16.1-7-50.5-29.4-50.5-29.4l8.4-11.9l-9.8-25.9l6.3-4.2l13.3,8.4c17.5,4.2,59.6,11.2,59.6,11.2l61,3.5l-58.2-23.8
		l-29.4-49.8L100.1,498l-18.2-18.2l-4.3-7.7L89,543.6l-11.9,20.2L75.9,618.3z M90.2,627.8c31.5,14,55.5,32.2,55.5,32.2l-20.3,15.4
		l-2.8,14.7L89,689.5L90.2,627.8z"/>
	<polygon fill="#2F1A45" points="330,526.8 302.7,522.6 264.8,509.3 251.5,558.3 241.1,630.2 252.7,663.4 262.1,563.7 278.9,524.7 
		307.6,532.4 334.3,532.4 	"/>
	<polygon fill="#2F1A45" points="299.2,489.6 287,501.8 278.6,517.7 269.8,514.2 299.2,481.2 309.7,490.3 320.2,509.3 309,496.6 	
		"/>
	<polygon fill="#2F1A45" points="350.1,587.3 321.2,503.2 300.6,476.1 258.5,418.6 257.6,407.8 302,465.8 329.6,490.6 345,539.6 	
		"/>
	<polygon fill="#2F1A45" points="253.6,581.1 246.6,548.9 227,512.4 247.7,494.2 248.4,499.4 238.2,515.2 249.8,536.3 256.8,562.2 	
		"/>
	<polygon fill="#2F1A45" points="254.4,590.3 208.1,571.3 199.6,556.6 255,577.3 	"/>
	<polygon fill="#2F1A45" points="216.5,484.7 211.6,492.4 159,486.8 88.2,455.3 94.5,420.2 171.6,473.5 	"/>
	<polygon fill="#2F1A45" points="319.2,404.1 334,379.8 331.1,373.7 316.7,365.5 317.3,356.6 301.7,338 297.3,343.1 308,363.6 
		301.1,374.8 	"/>
	<polygon fill="#2F1A45" points="324.3,374.3 324.1,363.6 317.3,350.5 318.5,348.9 327.9,363.8 331.5,378.7 	"/>
	<polygon fill="#2F1A45" points="256.2,591 231.9,643.2 230.5,656.5 175.1,686.6 159,721 165.3,764.5 177.9,727.3 203.9,703.5 
		189.8,735 198.9,737.8 227.7,693.7 252.7,684.7 	"/>
	<polygon fill="#2F1A45" points="153.8,665.4 108.5,666.8 90.7,658.2 92.5,674.1 114.1,684.5 143.1,690.6 	"/>
	<g>
		<path fill="#2F1A45" d="M378.6,455.1l5.8-6.3l6.4-5.5l10.3-6.6l9.8-4.8c2.5,0.3,5,0.5,7.5,0.5c0.6,0,1.1-0.2,1.5-0.6l0.1,0.1
			l0.5,1.4l-12.3,5.8l-9.7,5.4l-6.6,4.9l-6.6,5.9l-4,4l-2,0.6l-2-1.9L378.6,455.1z"/>
		<path fill="#2F1A45" d="M372.4,447l4.3-4.6l7.5-6.7l8.8-6.1l1.7-0.9c0.1,1.3,1,2.4,2.6,2.3c1.3,0,2.6,0,4,0.1l-1.9,0.8l-8.9,5.4
			l-7,5.6l-5.4,5.1l-2.3,2.5l-1.8,0.7l-1.8-1.2L372.4,447z"/>
		<path fill="#2F1A45" d="M367.8,438.1l5.8-6.6l5.9-4.6l8.8-5.7l2.7-1.7c-1.1,1.9-1.6,4.5-0.9,7l-2.9,1.5l-8.4,6.2l-6.2,6.4
			l-1.8,1.8l-1.9,0.5l-1.3-1.9L367.8,438.1z"/>
		<polygon fill="#2F1A45" points="394.9,407.1 401.6,409 400.7,410 389.6,415.2 381.1,419.9 373.8,425.5 368.2,431 364.9,434.5 
			363.5,434.9 361.8,432.2 362.1,430 367.6,423.6 377.2,415.8 387.9,409.8 		"/>
		<path fill="#2F1A45" d="M394.1,397.1l-1.3,6.6l-10.2,4.5l-6.6,3.7c0,0-6.9,4.4-8.3,6.3l-4.5,4.6l-4,4.3l-0.6-2.4l-1.4-1.7
			l-1.3-0.4l8.1-8.8l6.1-5.3l10.9-6.3L394.1,397.1z"/>
		<polygon fill="#2F1A45" points="391.1,387.8 393.1,391.7 392.1,393.7 379.6,399 370.3,404.1 362.8,409.9 356.1,417 354.4,418.8 
			352.6,418.7 351,416.9 351.1,414.8 356,408.6 361.5,402.7 369.4,397.3 380.3,392 		"/>
		<polygon fill="#2F1A45" points="387.9,384.6 373.1,390.6 363.5,396.3 356.8,401.8 350.4,409.1 348.6,410.7 346.8,410 346.2,406.2 
			354.3,396.4 361.6,390.7 370.9,385.3 384.4,380.1 386.3,380.8 		"/>
		<polygon fill="#2F1A45" points="381.9,374 382.5,377 367.7,382.6 357.8,388.7 349.6,395.9 344.7,401.8 342.6,402.7 341.2,401 
			341.1,397.8 348.4,388.9 353.6,383.9 360.9,379.3 371.9,374.5 380,371.8 		"/>
		<polygon fill="#2F1A45" points="421.8,402.4 417.4,403.8 414.1,405.1 413.1,403.3 414.2,399.3 419.4,397.7 		"/>
		<polygon fill="#2F1A45" points="417.2,394.3 412.5,396 405.6,393.4 410.4,391.1 414.3,390.1 		"/>
		<path fill="#2F1A45" d="M411.9,386.3L406,388l-5.2,2.1l-3.3-4l0.5-0.8c0,0,6.2-2.2,6.6-2.3c0.3-0.1,4.9-1,4.9-1L411.9,386.3z"/>
		<polygon fill="#2F1A45" points="407.5,378.5 400.8,380.2 396.1,382.2 392.9,378.5 392.9,377.2 399.9,375.1 405,374 		"/>
		<polygon fill="#2F1A45" points="402.5,370.7 395.5,372.7 390.8,374.5 387.8,371.2 387.6,369.4 393.9,367.1 400.1,366 		"/>
		<polygon fill="#2F1A45" points="331.6,412 334.6,415.8 337.6,411.1 337.1,407.7 335.2,406.2 		"/>
		<path fill="#2F1A45" d="M336.5,419.8l3.1,3.7l2.9-4.6l-0.6-3.9l-1.9-1.1C339.9,414,336.2,420,336.5,419.8z"/>
		<polygon fill="#2F1A45" points="341.5,427.9 344.3,431.6 345.6,429.9 345.1,427.5 345.4,425.5 347,424 346,422.6 344.6,422.5 		
			"/>
		<polygon fill="#2F1A45" points="371,469.6 373.6,466.7 373.4,463.9 371.1,461.9 369.5,463.6 		"/>
		<path fill="#2F1A45" d="M408.8,465l-2.4,4.3l-1.2,0.9c0.9,0.3,1.5,1.1,1.7,2l1-0.9l5.1-6.3L408.8,465z"/>
		<polygon fill="#2F1A45" points="413.7,452.6 412,447.3 409.1,446.8 407.3,450.4 408.4,454.2 		"/>
		<polygon fill="#2F1A45" points="417.3,451.6 416.5,447.5 416.2,443.2 419.3,442.6 420.8,444.8 422.2,450.2 		"/>
		<polygon fill="#2F1A45" points="425.7,448.6 425.3,445.9 423.2,440.9 424.3,439.2 426.8,438.7 428.6,443 429.4,446.7 		"/>
		<polygon fill="#2F1A45" points="433.1,445.3 431.2,440.1 430.4,436.7 432.9,435.9 436.6,443.5 		"/>
		<polygon fill="#2F1A45" points="439.9,442.1 439.4,440.3 436.9,435.5 438,432.9 440.2,434 442.7,439 443.3,440.7 		"/>
		<polygon fill="#2F1A45" points="442.6,434 445.5,440.4 447.5,440.3 446.3,434.9 445.1,434.7 444,434.1 		"/>
		<polygon fill="#2F1A45" points="350.5,368.4 354.8,370.3 357.8,372.6 360.1,372.9 360.9,371.8 357.5,368.8 353.8,367.9 		"/>
		<polygon fill="#2F1A45" points="358.2,363 362,365.2 365.5,368.4 368.5,369.2 369.3,368.1 365.7,364.8 361,362.9 		"/>
		<polygon fill="#2F1A45" points="366.5,360.2 371,363.1 373.6,365.8 376.4,366.3 376.6,365 372.4,361.3 368.1,359.8 		"/>
		<polygon fill="#2F1A45" points="374.8,357.2 378.3,360 381,363 383.4,364 384.2,363.4 382.5,361 379.1,358.3 		"/>
		<polygon fill="#2F1A45" points="383.2,356.2 386.4,359.9 388.3,361.3 390.2,361.7 391.3,360.9 388,357.8 384.5,356 		"/>
		<polygon fill="#2F1A45" points="391.1,356.2 394,359.2 395.6,360.2 397.3,360 395.6,358.5 		"/>
		<polygon fill="#2F1A45" points="358.6,424.4 366.4,453.1 374.3,480.9 377.5,485 383.6,487.6 394.9,486.6 408.8,481.4 420.6,473.7 
			405.2,479.9 390.8,482.7 382,479.9 376.4,475.1 368.6,452.7 360.3,425 		"/>
	</g>
	<polygon fill="#2F1A45" points="354.4,428 364.3,463.7 368.8,479 374.6,490.7 383.2,497.1 392.3,499.8 377.8,499.2 367.6,494.2 
		359.3,478.4 345.7,430.7 344.5,426.7 346.2,424.1 351.2,424 	"/>
	<polygon fill="#2F1A45" points="435.9,511.4 476.6,648.1 479.4,642.5 491.3,662.8 494.8,660.2 488.5,632 442.9,509.3 	"/>
	<polygon fill="#2F1A45" points="451.6,507.2 463.3,535.9 464.7,532.4 456.7,507.9 	"/>
	<polygon fill="#2F1A45" points="370.2,521.9 379.1,531.7 381,535.9 385.2,533.6 392.2,524.2 385.7,542.9 382.4,543.4 375.9,564.9 	
		"/>
	<polygon fill="#2F1A45" points="376.3,557.6 386.1,550.6 388.9,556.2 377.7,603.2 	"/>
	<polygon fill="#2F1A45" points="85.4,684.7 85.4,760.7 90.2,774.9 94.9,833 240.8,833 241.8,764.5 253,710.2 255.7,665.4 
		229.6,687.8 210.9,766.3 192.2,770.1 169.7,796.2 147.3,775.7 134.2,738.3 96.1,741.7 95.2,717.8 	"/>
	<polygon fill="#2F1A45" points="327.7,624.2 322.1,628.9 322.1,640.1 316.5,641.1 313.7,631.7 319.3,623.3 	"/>
	<path fill="#2F1A45" d="M344.6,240.4l6.5-17.6l-7.5,14.9l2,13.8C347.5,252,342.5,240.3,344.6,240.4z"/>
	<path fill="#2F1A45" d="M388.2,296.2l-15.3-5l-10.5-15.7l-5.4,2l-3-14.8l-2-11.9c-1.8,0-4.5,1.2-6.2,0.8l6.8,41.9l3.2,1.9l2.6,1.9
		l34.1,2.1l10-3.8L388.2,296.2z"/>
	<path fill="#2F1A45" d="M420.8,136.9l-0.2,11.7l-3.1,10.7l4.3,10l-1.3,23.8l-4.1-2l-3.9,9.2l3.2,9.9l-6.9-4.9c0,0-7.7,0.1-10.9,3.3
		l-2.2,10.8l-4.8-1.9l-0.5-5.2l4.3-11.9c0,0,7.4-7.6,11.9-10.5l1.9-12.6l1.6-16.1c0,0,1.2-12.1,0-14.5l-20.4-14.9l-29.2,5.7
		l-12.3,14.3l10.7-16.9l7.3-5.7l-0.6,3.8l26.7-8.9L420.8,136.9z"/>
	<path fill="#2F1A45" d="M396.4,144.5l3.5,2c-0.7-0.4,6.6,17.6,10,32.1l1.3-24.6l-10.8-10.8l-11.6-0.8L396.4,144.5z"/>
	<path fill="#2F1A45" d="M432.9,164.8l2.4-5.9l3.1-3.5v2.7l10.4-7.9c0,0,10.1,1.9,15.2,3.8l1.4,5.6l-1.2,5.9l-5.1-6.3l-8.2-1.2
		l-11.8,5.5l-6.7,4.7L432.9,164.8z"/>
	<polygon fill="#2F1A45" points="439.5,192.2 439.5,195.7 437.1,198.1 436.8,193.8 434.4,180.9 437.9,186.3 445.4,192.2 	"/>
	<path fill="#2F1A45" d="M434,225.1c0,0-7.8,3.5-10.6,2l-12.7-5.4l-9.2,1.9c0,0,4.7,4.7,8.8,7l16.7,2.7L434,225.1z"/>
	<polygon fill="#2F1A45" points="424.5,231.2 420.8,223.1 414.8,219.6 406.1,224 	"/>
	<path fill="#2F1A45" d="M425,251.2c-3.6,1-6,2.7-10.7-1.7c0,0-3.5,1.4-6.3,0.7l-4.3-5.7c0,0-4.3-0.7-8.7,0.7
		c-2.8,0.9-6.7,1.3-9.3,1.3c-12.8,0-16.1-0.4-16.1-0.4s10.3,4.7,13.2,6.5l16.3,1.6c0,0,12.6,1.8,19.1,1.1L425,251.2z"/>
	<path fill="#2F1A45" d="M401.8,166c0,0-2.8,0.8-11.7-6.9c0,0-7-1.3-11.6-0.8l-18.1,3.3l6.7-9.4c0,0-0.2-2.8,5.9-6.1l-0.9,6.3
		l8.6-0.7l14.9,4.3C395.6,156.1,399.6,162.1,401.8,166z"/>
	<path fill="#2F1A45" d="M371.9,157.3l3.5,5.6l6.6,2.3c4.4-0.2,6.2-2.6,6.2-2.6l1.8-6.3l2.9,0.4l-13.4-2.7L371.9,157.3z
		 M382.1,158.5l3.1-0.4l-0.3,2.1l-1.1,1.2l-1.3-1.2L382.1,158.5z"/>
	<path fill="#2F1A45" d="M409.9,261.8c0,0-8.7-2.3-16.3-2.9l-10,7.2l13.3-3.3l10.5,1.3l2.9,5.7L409.9,261.8z"/>
	<path fill="#2F1A45" d="M447.7,175.4c0,0-1.7,4.2-3.5,5.5l-3.9,0.8c0,0-3-1.6-3.5-2c-0.5-0.4-2.2-3.2-2.2-3.2l0.7-2.4l4.3-1l1,3.6
		c0,0,0.9,0.2,1.6-0.2l0.9-2.1L447.7,175.4z"/>
	<path fill="#2F1A45" d="M370,153.8l11-7.2l11.8-3.5l6.2,5.2l7.2,15.7l-2.1-4.9l-3.4-17.9c0,0-11,0.6-11.7,0.7c-0.7,0.1-9,1-9,1
		l-9.5,7.1L370,153.8z"/>
	<path fill="#2F1A45" d="M356.8,213.9c0,0-5.7,12.5-7.3,25l-16.4-5.7l10.1-19.6l7.1-6.4L356.8,213.9z"/>
	<polygon fill="#2F1A45" points="402.3,166.3 396.7,167.8 388.3,168.8 394.4,166.3 398.4,163.8 	"/>
	<polygon fill="#2F1A45" points="385.4,167.9 376,163.2 373.5,157.9 371.1,157.5 374.2,164.5 378.5,167 	"/>
	<polygon fill="#2F1A45" points="425.7,146.9 422.8,154.9 415.8,165.2 426.2,158.7 	"/>
	<path fill="#2F1A45" d="M424.3,251.5l-5.5,7.8c0,0-5.9,1.7-9.5,1.4c0,0,5-1.4,6.7-2.5c0,0,2.2-2.8,1.6-4.7L424.3,251.5z"/>
	<path fill="#2F1A45" d="M231.4,252l17.6-28l3.6-17.5l-1.3-4.7l0.2-12.7l-1.5-6l0.4-12.5l6.5,15.2l10.2,14c0,0,5.7,5.7,13.3,6.4
		l12.3-15.9l4.9,19.3l22.3,56.4c0,0,8.1,39.3,12.6,55.2l-8.3,36.8l-27.3-33l-5.7-23.5l-20.3-32.4l-18.3-13.3l-8.3-2.6L231.4,252z"/>
	<path fill="#2F1A45" d="M363.5,160.1l4.7-11.4c0,0,3.9-6.7,10.2-8.6l-5.5,6.7l-2,8.6L363.5,160.1z"/>
	<path fill="#2F1A45" d="M385.4,137.7c0,0,5.9,0,11,1.6l11.8,5.1l-4.7-7.1l-6.7-2.4C396.8,135,391.3,135.4,385.4,137.7z"/>
	<path fill="#2F1A45" d="M369.8,157.7l1.6,7.4l9.8,5.9l10.2,1.2c0,0-8.8,1.3-12.4,0.5l-11.9-6.4l-3.5-6.3L369.8,157.7z"/>
	<path fill="#2F1A45" d="M456.4,179.3c0,0-4-5.5-6.4-7.1l-10.1-0.8l-6.7,2l1.4,3.1l5.1-3.1l7.7,2.9c0,0,2.7,2.6,2.7,7.7l3.5-1.6
		l2,4.3L456.4,179.3z"/>
	<path fill="#2F1A45" d="M461.5,170.7l-4.3,4.7l-0.8-6.5c0,0-3.3-6.4-6.3-7c0,0-12.1,3.7-17.2,8.1c0,0-1.2,0.4-0.4-1.6
		c0.8-2,9-7.4,9-7.4l11.2-1l6.1,8.8l4.3-1.2L461.5,170.7z"/>
	<path fill="#2F1A45" d="M438.7,182c0,0,4.7,2.7,6.7,2.7l4.7-0.8l4.7-3.9l-2.7,6.3c0,0-6.7,0.8-9.8-0.4L438.7,182z"/>
	<path fill="#2F1A45" d="M439.1,190.3l5.9,5.5l1.3,1.8c0,0-0.1-2.2,0.6-4.1l3.1-3.9l-2.7,0.4l-5.5,1.6L439.1,190.3z"/>
	<polygon fill="#2F1A45" points="435.6,173 439.5,170.3 450.1,172.2 	"/>
	<path fill="#2F1A45" d="M425,230.2c-0.4-1.2-4.2-7.1-4.2-7.1l-7.5-5.1c0,0-9,1.6-12.1,2.7c0,0-5.9-5.9-5.9-8.2s-3.4,3.3-3.4,3.3
		c-0.4,0.1-2.3,5-1.7,7.3l5.1,4.7l10.2,4.3l3.9,4.7c0,0,5.5,0.4,7.1-0.4l5.8-4.4L425,230.2z"/>
	<polygon fill="#2F1A45" points="412.8,164.2 409.3,165.8 404.7,183.8 410.3,181.7 	"/>
	<path fill="#2F1A45" d="M340.1,249.2c-2.8,5.1-4.3,10.3-4.3,10.3l5.3,30.4l-15.4-22.9c-9.5-17.6-20.7-57.2-20.7-57.2l-4-67.8
		l-1.9-34.8l17.5,33.4l-0.4,18.5c20.2,9.3,28.8,27.1,28.8,27.1c-3.6,5.7-5.9,23.1-5.9,23.1l5.1,21.2l3.8,19.4l-5.4,0.5l-11.2-0.5
		l-4.6-14.9l7.6,9.1L340.1,249.2z"/>
	<path fill="#2F1A45" d="M367.6,293.6l-20,9.5c0,0-8.2,12.1-16.2,27.6l2.9,17.1l-2.9,30.9l-5.6-15.7l-6-21.7L296.6,231l31.7,22.8
		l8.9-4.9l11.4,3.5l5.9,29.2l8.4,7.9L367.6,293.6z"/>
	<path fill="#2F1A45" d="M333.7,351.2l9.4,19.8c0,0-11.4,13.9-14.3,17.3c0,0-3.5,12.1-3.5,15l-6.1,0.9l-1.3-18.8l10.4-10.9
		l-9.4-28.7l4.5-2L333.7,351.2z"/>
	<path fill="#2F1A45" d="M323.3,123.6c0,0,0.3,5.6,0.3,7.6l-2.1,14.3l-9.6-2L291.2,132l-14.3-4.9l-24.3-4.7l3.5-17.3l20.3-6.2
		l22.3,0.5l6.9,18.3l10.4,4.9L323.3,123.6z"/>
	<path fill="#2F1A45" d="M464.8,101.3c0,0-9.4-15.3-14.3-21.3l-16.8-15.3l-22.3-4l-37.6,7.4l-4.9-1.4l-13.4,7.9l1.5,2l9.8-3l2,3.5
		l-6.4,3.5l1.5,4l6.8-0.4l4.3,15l-22.8,15c0,0-16.3,4.9-24.3,6.4l-7.1,17.8l-8.4-10.2l12.9-20.8l30.8-3.4l9.8-13.9l-9.3-0.9
		L349,69.2l23.3-13.4l6.9,4.5l26.2-6.9l35.6,3.5l20.4,20.3l8.4,16.8C469.8,94,466.8,98.4,464.8,101.3z"/>
	<polygon fill="#2F1A45" points="465.4,95.5 467.8,102.9 470.3,100.9 467.8,94.5 471.3,89.5 470.3,84.1 473.3,78.6 472.3,74.7 
		462.9,85.1 	"/>
	<path fill="#2F1A45" d="M279.4,100.9l4-7.4c0,0-8.4,1-10.9,1.5l-11,3.6l0.8-2.7l14.6-5.8l4-0.5l0.5-4l-5.9,1L269,89l1-3.5l8.4-4
		l34.1,3l29.7-1.5l-6.4,3.5l-7.9,1.5l-0.5,3l5.9-0.5v4l-7.9,2l-9.4,0.5v3.5l16.8,1l14.8-0.5l-19.3,6.9l-3.5,4.9l-28.2-3l4.9,3.5
		l20.8,3l-3.5,8.4l-13.4,0.5l-19.3-11.9L279.4,100.9z"/>
	<path fill="#2F1A45" d="M379.6,13.1l6.6-2v-2l10.9-0.5H409c0,0,2,2.5,3.5,3.5l6.4-2.5l5.4,2.5l9.9,6.4l2,4.9
		c0,0,17.8,15.9,25.2,22.9l4.8,10.8l-0.3,6.6l4.9,5.4l-2,4.9l2,4.5l-2,3l-4.9-7.4l2-4.5l-6.9-10.9l-0.5-4.5L442.6,41l-3-6.4
		l-17.3-6.4l2,6.9l-17.8,2.5l3,20.3l-6.4-0.5L396.1,43l-3.5,2.5l6.4,13.9l-4.5,0.5l-4.9-9.4l-2.5,4l3.5,6.4l-12.9,4.9L362,42
		l21.3-12.4L379.6,13.1z"/>
	<path fill="#2F1A45" d="M383.9,14.3c0,0-7.2,4-15.1,3.5l-13.8,0.9l-2.2,2.6l-7.8,0.9l-14.7,0.4l-16,4.3l-4.3,6.9l10.4-3l6.9,0.4
		l-0.4,3.9L316.4,36L300.1,41l-2,4.5l9.9-1.5l4,0.5l-2,3.5h-6.9l-15.3,4.5l-1.5,3l14.8-3.5l23.7,0.5l-2.5,2.5l-21.3,0.5
		c0,0-13.9,3.5-20.3,7.4l-7.4,10.4l23.3-5.4l17.8,2l19.8-2l-1.5,3.5l-20.3,2l-14.8-2l-2,3.5l15.3,2l13.4-1l-1,3.5l-20.8,1.5l-14.8-1
		l-4.5,6.4l28.2,4l18.8-4.9l3-5.9l19.3-3.5l-1-5.9l14.3-8.9l11.4-5.9L383.9,14.3z"/>
	<polygon fill="#2F1A45" points="345.2,72.7 349.6,80.1 339.2,82.6 335.8,86.6 347.6,84.1 357,81.6 358.5,86.6 338.7,91 339.2,95.5 
		366.4,88 369.4,92 332.8,101.4 313.5,103.4 328.3,107.8 334.3,106.8 357.7,105 370.4,88 361,84.1 349,69.2 	"/>
	<polygon fill="#2F1A45" points="406.5,34.1 411,47 410.5,40 413.4,39.1 414.9,47.5 413.4,56.9 417.9,58.4 416.9,42.5 412.9,31.6 	
		"/>
	<polygon fill="#2F1A45" points="410,28.2 419.4,43 420.4,50.9 419.9,58.4 423.3,57.4 422.3,46.5 419.9,39.6 421.8,39.6 416.4,30.2 
			"/>
	<polygon fill="#2F1A45" points="418.9,26.7 428.3,44 430.7,59.3 437.7,60.8 438.2,48 427.8,26.2 	"/>
	<polygon fill="#2F1A45" points="432.2,30.6 441.1,49.9 441.1,53.9 443.6,55.9 443.1,47 445.6,48 446.6,56.4 442.6,67.8 448.5,68.2 
		452,55.9 451.5,43 441.6,33.6 	"/>
	<polygon fill="#2F1A45" points="390.7,60.8 390.2,67.3 401.6,62.3 411.4,60.8 411,62.8 430.7,62.8 433.7,63.8 426.8,66.8 
		444.1,69.2 438.2,63.3 409.5,57.9 	"/>
	<path fill="#2F1A45" d="M250.7,141.7l9.2-10.5l7.7-2.1l6.9-0.5l4,4.9l-4.5,2.5l-9.4,1.5l-4.9,1l-6.4,10.4l-1,8.9l-1.3-0.8
		c0,0,0.3-8.9,0.8-11.9L250.7,141.7z"/>
	<path fill="#2F1A45" d="M367.4,41c2.7-1.8,24.9-12,24.9-12l-9.8-8L371,26.3l-9.3,14.2L367.4,41z"/>
	<polygon fill="#2F1A45" points="459.9,57 459.9,66.4 454.6,74.8 456.4,77.9 462.6,68.6 462.6,61.5 	"/>
	<path fill="#2F1A45" d="M360,105.5l10.7-5.7c0,0-0.7,6.4-2.1,14.3l5.7,6.4c0,0,17.8-5.7,21.4-6.4c0,0,9.3,2.9,16.4,7.1l-20.7-5
		L370,127.6l-12.1-11.4L360,105.5z"/>
	<path fill="#2F1A45" d="M369.3,247.1c0,0,4.1,2.9,6.1,3.5c3.6,1,5.7,3.1,9.3,3.2l5.4,0.3c0,0,2.3-1.4,11.1-0.1
		C406.4,254.7,369.3,247.1,369.3,247.1z"/>
	<polygon fill="#95D600" points="431.8,143.3 431.3,155.7 429.4,162.3 435.6,154.2 	"/>
	<polygon fill="#95D600" points="442.8,148.1 452.3,147.6 451.8,143.8 439.9,133.8 	"/>
	<path fill="#95D600" d="M435.6,122.9c0,0-10.5-4.8-16.6-5.7l-6.7,2.4l-9.5-1.9l-7.1-1.9l-0.5,3.8l20.4,3.3l4.8-2.9
		C420.4,120,432.3,121.9,435.6,122.9z"/>
	<polygon fill="#2F1A45" points="393.4,209.1 383.8,218 391.4,203.3 397.2,198.1 	"/>
	<path fill="#95D600" d="M363.8,246.4l0.9,17.3l8.4,16.8l6.5-0.5c0,0-6.5-9.8-8.4-19.6l-0.5-15.9L363.8,246.4z"/>
	<path fill="#2F1A45" d="M377.4,248c0,0-12.8,2.2-22.2,3.7l-11.9,1c0,0-11.9-7.6-14.3-12.8l12.4,4.1l14.4,3.6l7-1.6l6.8-8l1.1,4.5
		L377.4,248z"/>
</g>
</svg>
