<?xml version="1.0" encoding="utf-8"?>
<!-- Generator: Adobe Illustrator 18.0.0, SVG Export Plug-In . SVG Version: 6.00 Build 0)  -->
<!DOCTYPE svg PUBLIC "-//W3C//DTD SVG 1.1//EN" "http://www.w3.org/Graphics/SVG/1.1/DTD/svg11.dtd">
<svg version="1.1" id="Layer_1" xmlns="http://www.w3.org/2000/svg" xmlns:xlink="http://www.w3.org/1999/xlink" x="0px" y="0px"
	 viewBox="0 0 19.9 16.2" enable-background="new 0 0 19.9 16.2" xml:space="preserve">
<path fill="#FF6C0C" d="M4,0.1h11.9C17,0.1,18,1,18,2.1V14c0,1.1-0.9,2.1-2.1,2.1H4c-1.1,0-2.1-0.9-2.1-2.1V2.1C1.9,1,2.9,0.1,4,0.1
	z M13.6,1.9c-0.4,0-0.7,0.3-0.7,0.7v1.7c0,0.4,0.3,0.7,0.7,0.7h1.8c0.4,0,0.7-0.3,0.7-0.7V2.6c0-0.4-0.3-0.7-0.7-0.7H13.6z
	 M16.1,6.8h-1.4c0.1,0.4,0.2,0.9,0.2,1.4c0,2.7-2.2,4.8-5,4.8c-2.7,0-5-2.2-5-4.8c0-0.5,0.1-0.9,0.2-1.4H3.7v6.8
	c0,0.4,0.3,0.6,0.6,0.6h11.2c0.4,0,0.6-0.3,0.6-0.6V6.8z M10,4.9C8.2,4.9,6.7,6.3,6.7,8c0,1.7,1.4,3.1,3.2,3.1
	c1.8,0,3.2-1.4,3.2-3.1C13.2,6.3,11.7,4.9,10,4.9z"/>
</svg>
