<?xml version="1.0" encoding="utf-8"?>
<!-- Generator: Adobe Illustrator 19.0.0, SVG Export Plug-In . SVG Version: 6.00 Build 0)  -->
<svg version="1.1" id="Layer_1" xmlns="http://www.w3.org/2000/svg" xmlns:xlink="http://www.w3.org/1999/xlink" x="0px" y="0px"
	 viewBox="0 0 612 562" style="enable-background:new 0 0 612 562;" xml:space="preserve">
<style type="text/css">
	.st0{fill:#EB6625;}
	.st1{fill:#33719B;}
	.st2{fill:#FCCB68;}
	.st3{fill:#E95A0C;}
	.st4{opacity:0.5;fill:none;stroke:#E95A0C;stroke-width:0.25;stroke-miterlimit:10;}
	.st5{opacity:0.42;fill:none;stroke:#E95A0C;stroke-width:0.25;stroke-miterlimit:10;}
</style>
<g>
	<g>
		<path id="XMLID_344_" class="st0" d="M83.7,162.7l-14.8-12.5v-35.9l-17.9,4.3V202l17.9-2.5l35.4,29.9v109.2l-30,32.3h-17
			l-13.9-13.8l-18.2-17.7l0.9-57.5l16.6-1.6l8.3,13.8v50.1h26.2V235.7l-24,3.3l-29.4-25.2l0.4-115.8l11-18.6l37.5-8.9l31.5,29.5
			v58.7L83.7,162.7z"/>
		<path id="XMLID_341_" class="st0" d="M239.6,370.9h-23.3l-14.1-13.8l-11.1-76l-21.3,2l-12.2,87.8h-20.7l-14.2-13.8l39.6-307.4
			l26.8-6.3l11.6,11.2L239.6,370.9z M185.5,239.8l-5-56.4l-5,57.8L185.5,239.8z"/>
		<path id="XMLID_333_" class="st0" d="M269.7,370.9l-14.2-13.8V27.7l26.5-6.3l8.3,8.1v301.3l59.6-0.5l8.3,8.1v32.5H269.7z"/>
		<path id="XMLID_330_" class="st0" d="M464.4,89.8v254.3l-26.7,26.7h-28.4l-31.9-32.2V74.4l26.6-22.2l34.9,5.8L464.4,89.8z
			 M437.7,344.1V90.1l-33.7-6v260H437.7z"/>
		<path id="XMLID_328_" class="st0" d="M597,92.5v278.4h-20.3l-14.2-13.8l-42.4-156.3v170h-23.1l-14.5-13.8L490.8,61l18.4,4.3
			l10,9.9L577,269.4L570.9,92l17.8-7.7L597,92.5z"/>
		<polygon id="XMLID_14_" class="st0" points="428.3,38.5 410.8,34.4 407,27.7 445.3,10.2 463.1,14.5 468,18.9 		"/>
	</g>
	<g id="XMLID_306_">
		<path id="XMLID_326_" class="st0" d="M46.7,417.9c-0.4,0.8-1.1,2-2.7,3.4c-2.2,1.9-5.6,3.9-12.1,3.9c-1.5,0-6.7,0-10.8-3.1
			c-4.8-3.5-5-9.1-5-11c0-2.7,0.6-5.5,2.1-7.7c0.5-0.8,1-1.3,1.7-2c0.9-0.9,1.3-1.2,1.9-1.5c1.7-1.2,5.3-2.8,10.5-2.8
			c1.5,0,6.5,0.1,10.6,2.9c2.2,1.5,3.5,3.4,4,4.2c0.2,0.4,0.4,0.7,0.5,1.1l-6.5,0.8c-0.4-0.6-1.2-1.8-2.6-2.8
			c-0.9-0.6-3.4-1.4-6-1.4c-0.7,0-3.1,0.1-4.8,0.8c-3.4,1.4-5.3,4.7-5.3,8.4c0,1.8,0.6,3.8,1.6,5.4c0.2,0.3,0.8,1,1.6,1.7
			c1,0.8,3.8,2.1,7,2.1c3.8,0,6.6-1.7,7.7-2.9c0.4-0.5,0.7-1,1.3-2.1l6.2,0C47.3,416.7,47.1,417.2,46.7,417.9z"/>
		<path id="XMLID_324_" class="st0" d="M86.9,424.4v-26.3h24.5v4.7h-19v5.9h16v4.7h-16v6.3h19.8v4.7H86.9z"/>
		<path id="XMLID_321_" class="st0" d="M175.1,424.4l-7-10.6h-9.6v10.6h-5.6v-26.3H171c2.3,0,3.3,0.1,4.4,0.5c3.4,1,5.3,3.9,5.3,7.4
			c0,0.7,0,2-0.7,3.5c-1.2,2.7-3.5,3.5-6.2,4l8,11H175.1z M174.6,404c-0.8-1.3-2.3-1.3-3.6-1.3h-12.5v6.5h12.7c0,0,1.1,0,1.6-0.1
			c0.8-0.2,2.3-0.9,2.3-3C175.1,405.7,175,404.8,174.6,404z"/>
		<path id="XMLID_319_" class="st0" d="M238.3,424.4h-6.4L220,398.1h6.6l8.6,19.4l8.8-19.4h6.2L238.3,424.4z"/>
		<path id="XMLID_316_" class="st0" d="M589.5,414.3c-0.3,1.8-1.4,5.6-5.4,8.2c-1.8,1.2-5.2,2.7-10.4,2.7c-7.8,0-12-3.2-13.9-6
			c-0.9-1.3-2.3-4-2.3-8.1c0-6.1,2.9-9.2,4.9-10.7c2.9-2.2,6.7-3.1,10.3-3.2c3.3-0.1,7.2,0.4,10.2,1.9c0.4,0.2,1.2,0.6,2.1,1.3
			c0.7,0.6,1.5,1.2,2.1,2c1.1,1.3,2.8,4.2,2.8,8.6C589.8,411.5,589.8,412.8,589.5,414.3z M581.6,404.8c-1.8-2-4.7-2.9-8.3-2.9
			c-1.2,0-2.8,0.1-4.5,0.9c-4.9,2.2-5.3,6.8-5.3,8.6c0,0.5,0,2.2,0.7,3.8c0.2,0.5,0.4,1,1,1.8c0.2,0.2,0.7,0.9,1.3,1.5
			c1,0.9,3.3,2,7,2c1.2,0,3.1,0,4.7-0.6c5.2-1.9,5.6-7,5.6-8.6C584,410.1,583.8,407.3,581.6,404.8z"/>
		<path id="XMLID_314_" class="st0" d="M290.1,424.4v-26.3h24.5v4.7h-19v5.9h16v4.7h-16v6.3h19.8v4.7H290.1z"/>
		<path id="XMLID_312_" class="st0" d="M425.5,424.4v-26.3h24.5v4.7h-19v5.9h16v4.7h-16v6.3h19.8v4.7H425.5z"/>
		<path id="XMLID_310_" class="st0" d="M385.3,417.9c-0.4,0.8-1.1,2-2.7,3.4c-2.2,1.9-5.6,3.9-12.1,3.9c-1.5,0-6.7,0-10.8-3.1
			c-4.8-3.5-5-9.1-5-11c0-2.7,0.6-5.5,2.1-7.7c0.5-0.8,1-1.3,1.7-2c0.9-0.9,1.3-1.2,1.9-1.5c1.7-1.2,5.3-2.8,10.5-2.8
			c1.5,0,6.5,0.1,10.6,2.9c2.2,1.5,3.5,3.4,4,4.2c0.2,0.4,0.4,0.7,0.5,1.1l-6.5,0.8c-0.4-0.6-1.2-1.8-2.6-2.8
			c-0.9-0.6-3.4-1.4-6-1.4c-0.7,0-3.1,0.1-4.8,0.8c-3.4,1.4-5.3,4.7-5.3,8.4c0,1.8,0.6,3.8,1.6,5.4c0.2,0.3,0.8,1,1.6,1.7
			c1,0.8,3.8,2.1,7,2.1c3.8,0,6.6-1.7,7.7-2.9c0.4-0.5,0.7-1,1.3-2.1l6.2,0C385.9,416.7,385.6,417.2,385.3,417.9z"/>
		<path id="XMLID_307_" class="st0" d="M513.7,424.4l-7-10.6h-9.6v10.6h-5.6v-26.3h18.1c2.3,0,3.3,0.1,4.4,0.5
			c3.4,1,5.3,3.9,5.3,7.4c0,0.7,0,2-0.7,3.5c-1.2,2.7-3.5,3.5-6.2,4l8,11H513.7z M513.1,404c-0.8-1.3-2.3-1.3-3.6-1.3h-12.5v6.5
			h12.7c0,0,1.1,0,1.6-0.1c0.8-0.2,2.3-0.9,2.3-3C513.7,405.7,513.6,404.8,513.1,404z"/>
	</g>
	<g>
		<circle id="XMLID_305_" class="st1" cx="496" cy="475.1" r="5.8"/>
		<circle id="XMLID_304_" class="st1" cx="107.8" cy="475.1" r="5.8"/>
		<g>
			<g id="XMLID_161_">
				<path id="XMLID_178_" class="st1" d="M138,464.7l9.8,3.8c6,2.3,7.7,6.8,5.2,13.3l-2.7,7c-1.9,4.8-5.2,7.1-10.1,6.8
					c-1.2-0.1-2.7-0.5-4.7-1.2l-1.1-0.4l-7.8,20.1l-6.8-2.6L138,464.7z M142.2,473.9l-5.2,13.4l1.5,0.6c0.9,0.4,1.6,0.5,2,0.6
					c1.4,0,2.4-0.8,3-2.3l2.7-7c0.8-2.1,0.3-3.6-1.7-4.3L142.2,473.9z"/>
				<path id="XMLID_175_" class="st1" d="M180.8,479.8l10.2,2.7c6.2,1.7,8.4,5.9,6.6,12.7l-2,7.3c-1.1,4.3-3.7,6.6-7.8,6.9l1.8,24.7
					l-7.7-2.1l-0.6-23l-0.9-0.1l-5.7,21.2l-7-1.9L180.8,479.8z M186,488.5l-3.7,13.9l1.6,0.4c1,0.3,1.7,0.4,2.1,0.3
					c1.4-0.2,2.3-1,2.7-2.6l2-7.3c0.6-2.2-0.1-3.6-2.2-4.1L186,488.5z"/>
				<path id="XMLID_173_" class="st1" d="M226.3,490.4l18.6,2.9l-1.1,7.1l-11.4-1.8l-2.2,14.2l9.8,1.5l-1.1,7.1l-9.8-1.5l-2.2,14.2
					l11.4,1.8l-1.1,7.1l-18.6-2.9L226.3,490.4z"/>
				<path id="XMLID_171_" class="st1" d="M269.2,505.6c0.3-7,4-10.4,10.9-10c6.9,0.3,10.2,4,9.9,11l-0.3,6.7l-7.2-0.3l0.3-6.7
					c0.1-2.2-0.9-3.4-3-3.5l0,0c-2.1-0.1-3.2,1-3.3,3.3l-0.2,4.6c-0.1,2.2,2,5.1,6.4,8.5c4.4,3.4,6.4,7.4,6.2,11.9l-0.3,6.3
					c-0.3,7-4,10.4-10.9,10.1c-6.9-0.3-10.2-4-9.9-11l0.3-6.8l7.2,0.3l-0.3,6.8c-0.1,2.3,0.9,3.5,3,3.5c2.1,0.1,3.2-1,3.3-3.3
					l0.3-5.7c0.1-2.4-2-5.4-6.4-8.8c-4.4-3.4-6.4-7.5-6.2-12.1L269.2,505.6z"/>
				<path id="XMLID_169_" class="st1" d="M316.5,496.6l18.7-1.1l0.4,7.1l-11.5,0.7l0.9,14.4l9.9-0.6l0.4,7.2l-9.9,0.6l0.9,14.4
					l11.5-0.7l0.4,7.1l-18.8,1.1L316.5,496.6z"/>
				<path id="XMLID_167_" class="st1" d="M360.4,492.5l7.1-1.2l11.7,27.5l-4.9-28.7l6.6-1.1l8.5,49.5l-7.1,1.2L371,513l4.8,27.8
					l-6.9,1.2L360.4,492.5z"/>
				<path id="XMLID_165_" class="st1" d="M424.9,477.9l2,6.9l-6.5,1.9l11.8,41.4l-7,2l-11.8-41.4l-6.5,1.9l-2-6.9L424.9,477.9z"/>
				<path id="XMLID_162_" class="st1" d="M477.8,492.9l8.8,15.7l-6.8,2.7l-5.3-9.4l-6.9,2.7l2.6,10.4l-6.8,2.7l-4.4-17.3l-7.3-32.1
					l9.2-3.7L477.8,492.9z M471,495.6l-10.3-18.4l5.2,20.4L471,495.6z"/>
			</g>
		</g>
	</g>
	<g>
		<path id="XMLID_302_" class="st2" d="M68.8,150.2V98.5l-26.2,6.3v98.4l26.2-3.7l27.1,23v107.9l-25.5,26.7h-27l-27.5-26.7v-47.5
			l26.8-2.5v50.1h26.2V226.5l-26.2,3.7l-26.8-23.1v-96.3l19.3-31.3l37.5-8.9l23.2,21.5V145L68.8,150.2z"/>
		<path id="XMLID_299_" class="st2" d="M228.8,357.1h-26.6L189,266.7l-27.5,2.6l-12.2,87.8h-26.6l39.6-307.4l26.8-6.3L228.8,357.1z
			 M185.5,239.8l-9.7-108.9l-10.4,111.7L185.5,239.8z"/>
		<path id="XMLID_297_" class="st2" d="M255.5,357.1V27.7l26.5-6.3v308.9h67.9v26.8H255.5z"/>
		<path id="XMLID_294_" class="st2" d="M456.1,79.4v251l-26.7,26.7h-33.7l-26.6-26.7V60.6l26.6-22.2l33.7,8L456.1,79.4z
			 M429.4,330.4v-257l-33.7-6.5v263.5H429.4z"/>
		<path id="XMLID_292_" class="st2" d="M588.7,84.3v272.8h-26.2l-50.7-170v170h-29.3v-298l26.6,6.2l53.4,186.2V78.2L588.7,84.3z"/>
		<polygon id="XMLID_2_" class="st2" points="425,32 407,27.7 437,8.3 463.1,14.5 		"/>
	</g>
</g>
<line id="XMLID_1_" class="st3" x1="99.3" y1="327.3" x2="67.4" y2="360.9"/>
<polyline id="XMLID_346_" class="st4" points="82.5,135.8 82.5,95.6 68.4,83.9 41.2,89.4 29.7,111 29.4,205.2 43.7,216.3 69,212.3 
	83,224.6 82.2,330.5 70.2,343.1 43.5,343.1 28.5,330.1 28.5,294 "/>
<polyline id="XMLID_86_" class="st4" points="137.3,344.1 171.5,59.2 183.2,56 213.8,344.1 "/>
<line id="XMLID_85_" class="st4" x1="146.7" y1="258.6" x2="204" y2="252.2"/>
<polyline id="XMLID_121_" class="st5" points="268.2,36.3 268.2,343.2 334.7,343.2 "/>
<polygon id="XMLID_122_" class="st4" points="381.5,63.9 382.2,330.4 395.7,343.2 428.7,343.2 442.3,330.8 442.3,79.6 429.7,60.3 
	395.7,52.3 "/>
<polyline id="XMLID_229_" class="st5" points="496.7,344.2 496.7,76 503,78.3 571,343.1 577.9,343.1 576.5,92.8 "/>
</svg>
