<?xml version="1.0" encoding="utf-8"?>
<!-- Generator: Adobe Illustrator 19.0.0, SVG Export Plug-In . SVG Version: 6.00 Build 0)  -->
<svg version="1.1" id="Layer_1" xmlns="http://www.w3.org/2000/svg" xmlns:xlink="http://www.w3.org/1999/xlink" x="0px" y="0px"
	 viewBox="0 0 251.2 228" style="enable-background:new 0 0 251.2 228;" xml:space="preserve">
<style type="text/css">
	.st0{fill:#F2EBD1;}
	.st1{fill:#494949;}
	.st2{fill:#F7F0DC;}
	.st3{fill:none;}
	.st4{fill:#161616;}
</style>
<g id="XMLID_2_">
	<g id="XMLID_59_">
		<path id="XMLID_60_" class="st0" d="M7.3,197.1l5.6-1.1c3.2-0.6,4.7,0.8,4.5,4.4l-0.3,3.8c-0.1,1.7-0.9,3-2.2,3.9
			c1.3,0.4,1.9,1.5,1.7,3.2l-0.3,3.9c-0.2,3.6-2,5.7-5.4,6.4l-5.4,1.1L7.3,197.1z M9.9,211l-0.5,7.3L11,218c1.1-0.2,1.6-0.9,1.7-2
			l0.3-3.9c0.1-0.8-0.2-1.3-0.9-1.4c-0.2,0-0.5,0-1,0.1L9.9,211z M10.6,200l-0.5,7.3l1.1-0.2c0.5-0.1,0.9-0.2,1-0.3
			c0.7-0.4,1-1,1.1-1.8l0.3-3.8c0.1-1.2-0.4-1.6-1.5-1.4L10.6,200z"/>
		<path id="XMLID_64_" class="st0" d="M24.1,219l1.7-25.5l3.6-0.7L28,214.7l5.8-1.1l-0.2,3.6L24.1,219z"/>
		<path id="XMLID_66_" class="st0" d="M51.7,204.6l0.6,8.8l-3.7,0.7l-0.3-5.3l-3.7,0.7l-1.1,5.6l-3.6,0.7l1.8-9.3l3.7-17l5-1
			L51.7,204.6z M48,205.4L47.4,195l-2.1,10.9L48,205.4z"/>
		<path id="XMLID_69_" class="st0" d="M61.4,186.5l3.6-0.7l2.4,14.1l1-14.8l3.4-0.7L70.1,210l-3.6,0.7L64.1,197l-1,14.3l-3.5,0.7
			L61.4,186.5z"/>
		<path id="XMLID_71_" class="st0" d="M89.1,201.3c-0.2,3.6-2.1,5.7-5.6,6.4c-3.5,0.7-5.1-0.8-4.8-4.4l1.1-15.6
			c0.2-3.6,2.1-5.7,5.6-6.4c3.5-0.7,5.1,0.8,4.8,4.3l-0.2,3.4l-3.6,0.7l0.2-3.4c0.1-1.1-0.4-1.6-1.5-1.4l0,0c-1,0.2-1.6,0.9-1.7,2
			l-1.1,15.6c-0.1,1.2,0.4,1.6,1.5,1.4c1.1-0.2,1.6-0.9,1.7-2l0.2-3.4l3.6-0.7L89.1,201.3z"/>
		<path id="XMLID_73_" class="st0" d="M107.5,197.7c-0.2,3.6-2.1,5.7-5.6,6.4c-3.5,0.7-5.1-0.8-4.8-4.4l1.1-15.6
			c0.2-3.6,2.1-5.7,5.6-6.4c3.5-0.7,5.1,0.8,4.8,4.3L107.5,197.7z M104.9,182.8c0.1-1.1-0.4-1.6-1.5-1.4l0,0c-1,0.2-1.6,0.9-1.7,2
			l-1.1,15.6c-0.1,1.2,0.4,1.6,1.5,1.4c1.1-0.2,1.6-0.9,1.7-2L104.9,182.8z"/>
		<path id="XMLID_76_" class="st0" d="M152.4,168.6l3.6-0.7l2.4,14.1l1-14.8l3.4-0.7l-1.7,25.5l-3.6,0.7l-2.3-13.7l-1,14.3l-3.5,0.7
			L152.4,168.6z"/>
		<path id="XMLID_78_" class="st0" d="M171.4,164.8l9.4-1.8l-0.2,3.6l-5.8,1.1l-0.5,7.3l5-1l-0.2,3.6l-5,1l-0.5,7.3l5.8-1.1
			l-0.2,3.6l-9.4,1.8L171.4,164.8z"/>
		<path id="XMLID_80_" class="st0" d="M197.5,180c-0.2,3.6-2.1,5.7-5.6,6.4c-3.5,0.7-5.1-0.8-4.8-4.4l1.1-15.6
			c0.2-3.6,2.1-5.7,5.6-6.4c3.5-0.7,5.1,0.8,4.8,4.3l-0.2,3.4l-3.6,0.7l0.2-3.4c0.1-1.1-0.4-1.6-1.5-1.4l0,0c-1,0.2-1.6,0.9-1.7,2
			l-1.1,15.6c-0.1,1.2,0.4,1.6,1.5,1.4c1.1-0.2,1.6-0.9,1.7-2l0.4-6l-1.8,0.4l0.2-3.6l5.5-1.1L197.5,180z"/>
		<path id="XMLID_82_" class="st0" d="M207.2,157.8l5.3-1c3.2-0.6,4.7,0.8,4.5,4.4l-0.3,3.8c-0.2,2.2-1.2,3.9-3.2,5l3.3,11.1l-4,0.8
			l-2.5-10.6l-0.5,0.2l-0.8,11.2l-3.6,0.7L207.2,157.8z M210.6,160.7l-0.5,7.3l0.8-0.2c0.5-0.1,0.9-0.2,1-0.3c0.7-0.4,1-1,1.1-1.8
			l0.3-3.8c0.1-1.2-0.4-1.6-1.5-1.4L210.6,160.7z"/>
		<path id="XMLID_85_" class="st0" d="M234.6,172.7c-0.2,3.6-2.1,5.7-5.6,6.4c-3.5,0.7-5.1-0.8-4.8-4.4l1.1-15.6
			c0.2-3.6,2.1-5.7,5.6-6.4c3.5-0.7,5.1,0.8,4.8,4.3L234.6,172.7z M232,157.8c0.1-1.1-0.4-1.6-1.5-1.4l0,0c-1,0.2-1.6,0.9-1.7,2
			l-1.1,15.6c-0.1,1.2,0.4,1.6,1.5,1.4c1.1-0.2,1.6-0.9,1.7-2L232,157.8z"/>
	</g>
	<g id="XMLID_6_">
		<path id="XMLID_7_" class="st0" d="M8.6,45.2l2.9-0.6c1.8-0.3,2.6,0.5,2.5,2.5l-0.2,2.1c-0.1,1.5-0.8,2.5-2.2,3.2
			c-0.3,0.2-0.8,0.3-1.4,0.4L10,53l-0.5,6.1l-2,0.4L8.6,45.2z M10.4,46.9l-0.3,4.1l0.5-0.1c0.3-0.1,0.5-0.1,0.6-0.2
			c0.4-0.2,0.6-0.6,0.6-1l0.2-2.1c0-0.6-0.2-0.9-0.8-0.8L10.4,46.9z"/>
		<path id="XMLID_10_" class="st0" d="M22.9,51.6l0.3,4.9l-2,0.4L21,53.9l-2.1,0.4l-0.6,3.1l-2,0.4l1-5.1l2.1-9.5l2.8-0.5L22.9,51.6
			z M20.9,51.9l-0.3-5.8l-1.2,6.1L20.9,51.9z"/>
		<path id="XMLID_13_" class="st0" d="M28.5,41.5l2.9-0.6c1.8-0.3,2.6,0.5,2.5,2.5l-0.2,2.1c-0.1,1.3-0.7,2.2-1.8,2.8l1.8,6.2
			l-2.2,0.4L30.1,49l-0.3,0.1l-0.5,6.2l-2,0.4L28.5,41.5z M30.3,43.1L30,47.2l0.5-0.1c0.3-0.1,0.5-0.1,0.6-0.2
			c0.4-0.2,0.6-0.6,0.6-1l0.2-2.1c0-0.6-0.2-0.9-0.8-0.8L30.3,43.1z"/>
		<path id="XMLID_16_" class="st0" d="M43.8,47.7l0.3,4.9L42,53L41.8,50l-2.1,0.4l-0.6,3.1l-2,0.4l1-5.1l2.1-9.5l2.8-0.5L43.8,47.7z
			 M41.7,48l-0.3-5.8l-1.2,6.1L41.7,48z"/>
		<path id="XMLID_19_" class="st0" d="M55.8,36.4l2.9-0.6c1.8-0.3,2.6,0.5,2.5,2.5l-0.2,2.1c-0.1,1.3-0.7,2.2-1.8,2.8l1.8,6.2
			l-2.2,0.4l-1.3-5.9L57.2,44l-0.5,6.2l-2,0.4L55.8,36.4z M57.7,38l-0.3,4.1l0.5-0.1c0.3-0.1,0.5-0.1,0.6-0.2c0.4-0.2,0.6-0.6,0.6-1
			l0.2-2.1c0-0.6-0.2-0.9-0.8-0.8L57.7,38z"/>
		<path id="XMLID_22_" class="st0" d="M66.2,34.4l5.2-1l-0.2,2L68.1,36l-0.3,4.1l2.8-0.5l-0.2,2l-2.8,0.5l-0.3,4.1l3.2-0.6l-0.2,2
			l-5.2,1L66.2,34.4z"/>
		<path id="XMLID_24_" class="st0" d="M79,46l-2.8,0.5l-0.7-8.9l-0.3-4.9l2-0.4L77.9,43l2.3-11.2l2-0.4l-1,5.2L79,46z"/>
		<path id="XMLID_26_" class="st0" d="M86.4,30.6l2-0.4l-1.1,14.2l-2,0.4L86.4,30.6z"/>
		<path id="XMLID_28_" class="st0" d="M96.3,42.8l-2.8,0.5l-0.7-8.9l-0.3-4.9l2-0.4l0.6,10.7l2.3-11.2l2-0.4l-1,5.2L96.3,42.8z"/>
		<path id="XMLID_30_" class="st0" d="M103.7,27.4l2-0.4l-1.1,14.2l-2,0.4L103.7,27.4z"/>
		<path id="XMLID_32_" class="st0" d="M110.5,26.1l2.9-0.6c1.8-0.3,2.6,0.5,2.5,2.5l-0.2,2.1c-0.1,1.3-0.7,2.2-1.8,2.8l1.8,6.2
			l-2.2,0.4l-1.3-5.9l-0.3,0.1l-0.5,6.2l-2,0.4L110.5,26.1z M112.4,27.7l-0.3,4.1l0.5-0.1c0.3-0.1,0.5-0.1,0.6-0.2
			c0.4-0.2,0.6-0.6,0.6-1l0.2-2.1c0-0.6-0.2-0.9-0.8-0.8L112.4,27.7z"/>
		<path id="XMLID_35_" class="st0" d="M127.5,22.9l5.2-1l-0.2,2l-3.2,0.6l-0.3,4.1l2.8-0.5l-0.2,2l-2.8,0.5l-0.3,4.1l3.2-0.6l-0.2,2
			l-5.2,1L127.5,22.9z"/>
		<path id="XMLID_37_" class="st0" d="M136,35.3l1.1-14.2l2-0.4l-0.9,12.2l3.2-0.6l-0.2,2L136,35.3z"/>
		<path id="XMLID_39_" class="st0" d="M157.9,28.5c-0.2,2-1.2,3.2-3.1,3.5c-1.9,0.4-2.8-0.5-2.7-2.4l0.7-8.7c0.2-2,1.2-3.2,3.1-3.5
			c1.9-0.4,2.8,0.5,2.7,2.4l-0.1,1.9l-2,0.4l0.1-1.9c0-0.6-0.2-0.9-0.8-0.8l0,0c-0.6,0.1-0.9,0.5-0.9,1.1l-0.7,8.7
			c0,0.6,0.2,0.9,0.8,0.8c0.6-0.1,0.9-0.5,1-1.1L156,27l2-0.4L157.9,28.5z"/>
		<path id="XMLID_41_" class="st0" d="M168.1,26.6c-0.2,2-1.2,3.2-3.1,3.5c-1.9,0.4-2.8-0.5-2.7-2.4L163,19c0.2-2,1.2-3.2,3.1-3.5
			c1.9-0.4,2.8,0.5,2.7,2.4L168.1,26.6z M166.7,18.3c0-0.6-0.2-0.9-0.8-0.8l0,0c-0.6,0.1-0.9,0.5-0.9,1.1l-0.7,8.7
			c0,0.6,0.2,0.9,0.8,0.8c0.6-0.1,0.9-0.5,1-1.1L166.7,18.3z"/>
		<path id="XMLID_44_" class="st0" d="M172.5,28.5l1.1-14.2l2-0.4l-0.9,12.2l3.2-0.6l-0.2,2L172.5,28.5z"/>
		<path id="XMLID_46_" class="st0" d="M187.8,22.9c-0.2,2-1.2,3.2-3.1,3.5c-1.9,0.4-2.8-0.5-2.7-2.4l0.7-8.7c0.2-2,1.2-3.2,3.1-3.5
			c1.9-0.4,2.8,0.5,2.7,2.4L187.8,22.9z M186.4,14.6c0-0.6-0.2-0.9-0.8-0.8l0,0c-0.6,0.1-0.9,0.5-0.9,1.1l-0.7,8.7
			c0,0.6,0.2,0.9,0.8,0.8c0.6-0.1,0.9-0.5,1-1.1L186.4,14.6z"/>
		<path id="XMLID_49_" class="st0" d="M193.3,10.6l2.9-0.6c1.8-0.3,2.6,0.5,2.5,2.5l-0.2,2.1c-0.1,1.3-0.7,2.2-1.8,2.8l1.8,6.2
			l-2.2,0.4l-1.3-5.9l-0.3,0.1l-0.5,6.2l-2,0.4L193.3,10.6z M195.2,12.2l-0.3,4.1l0.5-0.1c0.3-0.1,0.5-0.1,0.6-0.2
			c0.4-0.2,0.6-0.6,0.6-1l0.2-2.1c0-0.6-0.2-0.9-0.8-0.8L195.2,12.2z"/>
		<path id="XMLID_52_" class="st0" d="M210.3,7.4l3.1-0.6c1.8-0.3,2.6,0.5,2.5,2.5l-0.6,8.2c-0.2,2-1.2,3.2-3.1,3.5l-3,0.6
			L210.3,7.4z M212.1,9.1l-0.8,10.2l0.9-0.2c0.6-0.1,0.9-0.5,1-1.1l0.6-8.2c0-0.6-0.2-0.9-0.8-0.8L212.1,9.1z"/>
		<path id="XMLID_55_" class="st0" d="M220.7,5.5l5.2-1l-0.2,2l-3.2,0.6l-0.3,4.1l2.8-0.5l-0.2,2l-2.8,0.5l-0.3,4.1l3.2-0.6l-0.2,2
			l-5.2,1L220.7,5.5z"/>
		<path id="XMLID_57_" class="st0" d="M229.3,17.9l1.1-14.2l2-0.4l-0.9,12.2l3.2-0.6l-0.2,2L229.3,17.9z"/>
	</g>
	<g id="XMLID_3_">
		<path id="XMLID_4_" class="st0" d="M130.1,195.4c-0.3,0.5-1.1,2-1.7,2.1c-0.8,0.1-1.3-1.6-1.4-2.2c-0.1-0.6,0.4-1.8,0.7-2.3
			l3.7-8.9l-0.1-0.1c-2.6,2.9-5,5.3-5.4,5.3c-1,0.1-3-1.2-3.5-3.9c-0.8-4.3,4.7-9.8,5.8-10c0.5-0.1,1.7,0.9,1.8,1.4
			c0.2,1.4-3.3,5.7-4.4,6.9c-0.3,0.7-0.5,1.4-0.4,2.2c1.9-0.5,3.4-2.3,4.7-3.9c3.2-4,5.2-6.8,5.9-7c0.6-0.2,1.2,1.2,1.2,1.7
			c0.1,0.9-0.6,2.6-1,3.4l-4.2,8.8l0.1,0.1l7-8.3l0.5,1.3L130.1,195.4z"/>
	</g>
	<g id="XMLID_88_">
		<path id="XMLID_89_" class="st0" d="M237.6,134.7c-1.5,2.4-4.3,5.6-7.2,6c-2.1,0.3-3.4-1.4-3.8-3.4c-0.7-3.8,3-8.4,6.8-8.9
			c0.9-0.1,2.1-0.1,2.3,1.1c0.2,1.4-0.9,3.8-6.3,6.5l0,0.7c0.1,1.1,1.1,1.4,2,1.2c2.1-0.3,4.2-2.8,5.6-4.3L237.6,134.7z
			 M233.3,130.5c0-0.2-0.2-0.4-0.4-0.3c-1.4,0.6-2.9,2.3-3.4,4.3C231.9,133.3,233.4,131,233.3,130.5z"/>
		<path id="XMLID_92_" class="st0" d="M250.8,131.3l0.4,1.3c-1.4,1.6-3.8,5.7-6,6c-1.1,0.2-1.8-0.7-1.9-1.7c-0.3-1.8,1-3.9,1.8-5.4
			l-0.1,0c-1.5,1.5-2.8,3.3-3.9,5.2c-0.4,0.6-1.2,2.2-2,2.3c-1.3,0.2-1.9-1.6-2.1-2.6c-0.4-2,1-5.3,2.5-6.9c0.3-0.4,0.6-0.4,1.1-0.5
			c1.8-0.2,1.7,0.2,1.7,0.4c0.2,1.1-3.1,4.7-3,5.4c0,0.2,0.2,0.3,0.4,0.3c0.2,0,0.4-0.3,0.5-0.5c1.9-3.3,6.8-7.8,7.6-7.9
			c0.1,0,0.3,0.1,0.6,0.5c0.2,0.4,0.5,0.9,0.7,1.5c0.2,1.1-3.1,3.9-2.8,5.9c0,0.3,0.3,0.5,0.6,0.5c0.7-0.1,1.8-1.3,2.3-1.8
			L250.8,131.3z"/>
	</g>
	<g id="XMLID_94_">
		<path id="XMLID_95_" class="st1" d="M18.8,127.1l7.8,55.6l-7.4,1.4l-6.7-54.5l-3,0.5l-0.6,55.9l-6.6,1.2L3.6,68.9l11.3-2.1
			c5.6-1,8.9,1,9.8,6c0.2,1.1,0.3,2.4,0.3,3.7l-0.4,39C24.6,120.5,22.7,124.3,18.8,127.1z M10.2,74.3l-0.5,49l2.7-0.5
			c1.3-0.2,2.2-0.5,2.7-0.8c1.9-1.1,2.9-2.8,2.9-5.2l0.4-39c0.1-3.3-1.4-4.7-4.4-4.2L10.2,74.3z"/>
		<path id="XMLID_98_" class="st1" d="M33.7,63.4l19.9-3.7l0,6.6l-13.3,2.4l-0.5,49l11.5-2.1l-0.1,6.8l-11.5,2.1l-0.5,49.1l13.3-2.4
			l-0.1,6.7l-19.9,3.7L33.7,63.4z"/>
		<path id="XMLID_100_" class="st1" d="M75.9,93.2L76.1,66c0-3.3-1.4-4.7-4.4-4.1l-0.1,0c-3,0.5-4.5,2.5-4.5,5.8l-1,97.2
			c0,3.3,1.5,4.7,4.4,4.2c3-0.6,4.6-2.5,4.6-5.8l0.2-27.1l6.6-1.2L81.8,162c-0.1,7.8-3.9,12.4-11.3,13.8c-6.2,1.1-9.7-0.9-10.7-6.2
			c-0.2-1-0.3-2.2-0.3-3.5l1-97.2c0.1-7.8,3.8-12.4,11.3-13.8c6.2-1.1,9.8,0.9,10.8,6.1c0.2,1,0.3,2.2,0.3,3.5L82.5,92L75.9,93.2z"
			/>
		<path id="XMLID_102_" class="st1" d="M112.8,156.3c-0.1,7.8-3.9,12.4-11.3,13.8c-6.2,1.1-9.7-0.9-10.7-6.2c-0.2-1-0.3-2.2-0.3-3.5
			l1.1-107.8l6.6-1.2l-1.1,107.8c0,3.3,1.5,4.7,4.4,4.2c3-0.6,4.6-2.5,4.6-5.8l1.1-107.8l6.6-1.2L112.8,156.3z"/>
		<path id="XMLID_104_" class="st1" d="M123.2,46.9l19.9-3.7l0,6.6l-13.3,2.4l-0.5,49l11.5-2.1l-0.1,6.8l-11.5,2.1l-0.5,49.1
			l13.3-2.4l-0.1,6.7l-19.9,3.7L123.2,46.9z"/>
		<path id="XMLID_106_" class="st1" d="M165.4,100.1l7.8,55.6l-7.4,1.4l-6.7-54.5l-3,0.5l-0.6,55.9l-6.6,1.2L150.1,42l11.3-2.1
			c5.6-1,8.9,1,9.8,6c0.2,1.1,0.3,2.4,0.3,3.7l-0.4,39C171.1,93.5,169.2,97.4,165.4,100.1z M156.7,47.4l-0.5,49l2.7-0.5
			c1.3-0.2,2.2-0.5,2.7-0.8c1.9-1.1,2.9-2.8,2.9-5.2l0.4-39c0.1-3.3-1.4-4.7-4.4-4.2L156.7,47.4z"/>
		<path id="XMLID_109_" class="st1" d="M180.2,36.4l12-2.2c5.7-1,9,1,9.9,6.1c0.2,1.1,0.3,2.3,0.3,3.7l-0.9,94.9
			c-0.1,7.8-3.8,12.3-11,13.6l-11.5,2.1L180.2,36.4z M186.8,41.8l-1.1,104.9l4.5-0.8c3-0.5,4.5-2.5,4.5-5.8l0.9-94.9
			c0.1-3.3-1.4-4.7-4.4-4.2L186.8,41.8z"/>
		<g id="XMLID_112_">
			<path id="XMLID_113_" class="st1" d="M216.2,137.3c0,0.6,0,1.1,0.1,1.5c-0.1-0.6-0.1-1.2-0.1-1.9L216.2,137.3z"/>
			<path id="XMLID_114_" class="st1" d="M216.2,137.3l0-0.4c0,0,0-0.1,0-0.1c0,0,0-0.1,0-0.1l1-96.6c0-3.3,1.5-5.2,4.5-5.8l0.1,0
				c3-0.5,4.5,0.8,4.4,4.1l-1,84.6c2-1,4.2-1.8,6.8-2.7l0.8-83.1c0-1.3-0.1-2.5-0.3-3.5c-1-5.2-4.6-7.3-10.8-6.1
				c-7.4,1.4-11.2,5.9-11.3,13.7l-1,97.2c0,1.3,0.1,2.5,0.3,3.5c1,5.3,4.5,7.4,10.7,6.2c0.1,0,0.2,0,0.3-0.1
				c-2.4-2.5-4.1-5.7-4.5-9.4C216.2,138.4,216.2,137.9,216.2,137.3z"/>
			<path id="XMLID_115_" class="st1" d="M216.2,136.9C216.2,136.9,216.2,136.9,216.2,136.9l0-0.1
				C216.2,136.8,216.2,136.8,216.2,136.9z"/>
		</g>
	</g>
	<g id="XMLID_116_">
		<path id="XMLID_117_" class="st2" d="M22.8,126.1l7.8,55.6l-7.4,1.4l-6.7-54.5l-3,0.5l-0.6,55.9l-6.6,1.2L7.6,67.9l11.3-2.1
			c5.6-1,8.9,1,9.8,6c0.2,1.1,0.3,2.4,0.3,3.7l-0.4,39C28.6,119.5,26.7,123.3,22.8,126.1z M14.2,73.3l-0.5,49l2.7-0.5
			c1.3-0.2,2.2-0.5,2.7-0.8c1.9-1.1,2.9-2.8,2.9-5.2l0.4-39c0.1-3.3-1.4-4.7-4.4-4.2L14.2,73.3z"/>
		<path id="XMLID_120_" class="st2" d="M37.7,62.4l19.9-3.7l0,6.6l-13.3,2.4l-0.5,49l11.5-2.1l-0.1,6.8l-11.5,2.1l-0.5,49.1
			l13.3-2.4l-0.1,6.7l-19.9,3.7L37.7,62.4z"/>
		<path id="XMLID_122_" class="st2" d="M79.9,92.2L80.1,65c0-3.3-1.4-4.7-4.4-4.1l-0.1,0c-3,0.5-4.5,2.5-4.5,5.8l-1,97.2
			c0,3.3,1.5,4.7,4.4,4.2c3-0.6,4.6-2.5,4.6-5.8l0.2-27.1l6.6-1.2L85.8,161c-0.1,7.8-3.9,12.4-11.3,13.8c-6.2,1.1-9.7-0.9-10.7-6.2
			c-0.2-1-0.3-2.2-0.3-3.5l1-97.2c0.1-7.8,3.8-12.4,11.3-13.8c6.2-1.1,9.8,0.9,10.8,6.1c0.2,1,0.3,2.2,0.3,3.5L86.5,91L79.9,92.2z"
			/>
		<path id="XMLID_124_" class="st2" d="M116.8,155.3c-0.1,7.8-3.9,12.4-11.3,13.8c-6.2,1.1-9.7-0.9-10.7-6.2c-0.2-1-0.3-2.2-0.3-3.5
			l1.1-107.8l6.6-1.2l-1.1,107.8c0,3.3,1.5,4.7,4.4,4.2c3-0.6,4.6-2.5,4.6-5.8l1.1-107.8l6.6-1.2L116.8,155.3z"/>
		<path id="XMLID_126_" class="st2" d="M127.2,45.9l19.9-3.7l0,6.6l-13.3,2.4l-0.5,49l11.5-2.1l-0.1,6.8l-11.5,2.1l-0.5,49.1
			l13.3-2.4l-0.1,6.7l-19.9,3.7L127.2,45.9z"/>
		<path id="XMLID_128_" class="st2" d="M169.4,99.1l7.8,55.6l-7.4,1.4l-6.7-54.5l-3,0.5l-0.6,55.9l-6.6,1.2L154.1,41l11.3-2.1
			c5.6-1,8.9,1,9.8,6c0.2,1.1,0.3,2.4,0.3,3.7l-0.4,39C175.1,92.5,173.2,96.4,169.4,99.1z M160.7,46.4l-0.5,49l2.7-0.5
			c1.3-0.2,2.2-0.5,2.7-0.8c1.9-1.1,2.9-2.8,2.9-5.2l0.4-39c0.1-3.3-1.4-4.7-4.4-4.2L160.7,46.4z"/>
		<path id="XMLID_131_" class="st2" d="M184.2,35.4l12-2.2c5.7-1,9,1,9.9,6.1c0.2,1.1,0.3,2.3,0.3,3.7l-0.9,94.9
			c-0.1,7.8-3.8,12.3-11,13.6l-11.5,2.1L184.2,35.4z M190.8,40.8l-1.1,104.9l4.5-0.8c3-0.5,4.5-2.5,4.5-5.8l0.9-94.9
			c0.1-3.3-1.4-4.7-4.4-4.2L190.8,40.8z"/>
		<g id="XMLID_134_">
			<path id="XMLID_135_" class="st3" d="M220.2,136.3c0,0.6,0,1.1,0.1,1.5c-0.1-0.6-0.1-1.2-0.1-1.9L220.2,136.3z"/>
			<path id="XMLID_136_" class="st2" d="M220.2,136.3l0-0.4c0,0,0-0.1,0-0.1c0,0,0-0.1,0-0.1l1-96.6c0-3.3,1.5-5.2,4.5-5.8l0.1,0
				c3-0.5,4.5,0.8,4.4,4.1l-0.8,83.9c2-1,4.3-1.5,6.6-1.6l0.8-83.5c0-1.3-0.1-2.5-0.3-3.5c-1-5.2-4.6-7.3-10.8-6.1
				c-7.4,1.4-11.2,5.9-11.3,13.7l-1,97.2c0,1.3,0.1,2.5,0.3,3.5c1,5.3,4.5,7.4,10.7,6.2c0.1,0,0.2,0,0.3-0.1
				c-2.4-2.5-4.1-5.7-4.5-9.4C220.2,137.4,220.2,136.9,220.2,136.3z"/>
			<path id="XMLID_137_" class="st4" d="M220.2,135.9C220.2,135.9,220.2,135.9,220.2,135.9l0-0.1
				C220.2,135.8,220.2,135.8,220.2,135.9z"/>
		</g>
	</g>
</g>
</svg>
