<?xml version="1.0" encoding="utf-8"?>
<!-- Generator: Adobe Illustrator 18.0.0, SVG Export Plug-In . SVG Version: 6.00 Build 0)  -->
<!DOCTYPE svg PUBLIC "-//W3C//DTD SVG 1.1//EN" "http://www.w3.org/Graphics/SVG/1.1/DTD/svg11.dtd">
<svg version="1.1" id="Layer_1" xmlns="http://www.w3.org/2000/svg" xmlns:xlink="http://www.w3.org/1999/xlink" x="0px" y="0px"
	 viewBox="0 0 146.9 170.8" enable-background="new 0 0 146.9 170.8" xml:space="preserve">
<g>
	<g>
		<g>
			<path fill="#2F1A45" d="M94.5,165.3c0.1-1,0.1-1.5,0.2-2.6c0.3,0,0.4-0.1,0.7-0.1c0,1,0,1.6,0,2.6
				C95,165.2,94.8,165.2,94.5,165.3z M95.4,162.2c-0.3,0-0.5,0.1-0.8,0.1c0-0.2,0-0.4,0-0.6c0.3,0,0.5-0.1,0.8-0.1
				C95.5,161.8,95.4,162,95.4,162.2z"/>
			<path fill="#2F1A45" d="M96.1,161.5c0.7-0.1,1.1-0.2,1.8-0.3c0,0.2,0,0.3,0,0.5c-0.5,0.1-0.7,0.1-1.1,0.1c0,0.4,0,0.6,0,0.9
				c0.4,0,0.6-0.1,1-0.1c0,0.2,0,0.3,0,0.5c-0.4,0-0.6,0.1-1,0.1c0,0.4,0,0.6,0,0.9c0.5,0,0.7-0.1,1.1-0.1c0,0.2,0,0.3,0,0.5
				c-0.7,0.1-1.1,0.1-1.8,0.1C96,163.4,96,162.8,96.1,161.5z"/>
			<path fill="#2F1A45" d="M98.3,164.6c0-1.4,0.1-2,0.1-3.4c0.3,0,0.4-0.1,0.7-0.1c0,1.2-0.1,1.8-0.1,2.9c0.5,0,0.7-0.1,1.1-0.1
				c0,0.2,0,0.3,0,0.5C99.4,164.5,99.1,164.5,98.3,164.6z"/>
			<path fill="#2F1A45" d="M103.9,163.5c0,0.5-0.4,0.8-1,0.9c-0.7,0-1-0.2-1-0.7c0-0.9,0-1.3,0.1-2.2c0-0.5,0.4-0.8,1-0.9
				c0.7-0.1,1,0.1,1,0.7c0,0.2,0,0.3,0,0.5c-0.3,0-0.4,0-0.7,0.1c0-0.2,0-0.3,0-0.5c0-0.2-0.1-0.2-0.3-0.2c0,0,0,0,0,0
				c-0.2,0-0.3,0.1-0.3,0.3c0,0.9,0,1.3-0.1,2.2c0,0.2,0.1,0.2,0.3,0.2c0.2,0,0.3-0.1,0.3-0.3c0-0.2,0-0.3,0-0.5
				c0.3,0,0.4,0,0.7-0.1C103.9,163.2,103.9,163.3,103.9,163.5z"/>
			<path fill="#2F1A45" d="M106.5,162.6c0.1,0.5,0.1,0.8,0.2,1.4c-0.3,0-0.4,0-0.7,0c0-0.3-0.1-0.5-0.1-0.8c-0.3,0-0.4,0-0.7,0.1
				c-0.1,0.3-0.1,0.5-0.2,0.8c-0.3,0-0.4,0-0.7,0c0.1-0.5,0.2-0.8,0.3-1.4c0.2-1,0.3-1.5,0.6-2.5c0.4-0.1,0.6-0.1,1-0.1
				C106.2,161.1,106.3,161.6,106.5,162.6z M105.7,162.7c-0.1-0.6-0.1-1-0.2-1.6c-0.1,0.7-0.2,1-0.3,1.6
				C105.4,162.7,105.5,162.7,105.7,162.7z"/>
			<path fill="#2F1A45" d="M108.7,162.6c0.4-1.1,0.5-1.7,0.9-2.9c0.3,0,0.4-0.1,0.7-0.1c0,1.7,0,2.5-0.1,4.2c-0.3,0-0.4,0-0.7,0
				c0-0.9,0-1.4,0-2.3c-0.3,1-0.4,1.4-0.6,2.4c-0.2,0-0.3,0-0.5,0c-0.2-0.9-0.3-1.3-0.6-2.2c0,0.9,0,1.4,0,2.3c-0.3,0-0.4,0-0.7,0
				c0-1.6,0-2.4,0.1-4c0.3,0,0.4-0.1,0.7-0.1C108.2,161,108.3,161.5,108.7,162.6z"/>
			<path fill="#2F1A45" d="M110.9,159.5c0.4-0.1,0.6-0.1,1-0.1c0.6-0.1,0.9,0.2,0.9,0.8c0,0.3,0,0.4,0,0.7c0,0.5-0.2,0.8-0.7,0.9
				c-0.1,0-0.3,0.1-0.5,0.1c0,0-0.1,0-0.1,0c0,0.7,0,1.1,0,1.8c-0.3,0-0.4,0-0.7,0C110.8,162.1,110.9,161.2,110.9,159.5z
				 M111.6,160.1c0,0.5,0,0.7,0,1.2c0.1,0,0.1,0,0.2,0c0.1,0,0.2,0,0.2,0c0.1-0.1,0.2-0.2,0.2-0.3c0-0.3,0-0.4,0-0.6
				c0-0.2-0.1-0.3-0.3-0.3C111.7,160.1,111.7,160.1,111.6,160.1z"/>
			<path fill="#2F1A45" d="M113.4,159.2c0.7-0.1,1.1-0.1,1.8-0.2c0,0.3,0,0.4,0,0.6c-0.5,0-0.7,0.1-1.1,0.1c0,0.5,0,0.8,0,1.3
				c0.4,0,0.6-0.1,1-0.1c0,0.3,0,0.4,0,0.6c-0.4,0-0.6,0-1,0.1c0,0.5,0,0.8,0,1.3c0.5,0,0.7,0,1.1-0.1c0,0.3,0,0.4,0,0.6
				c-0.7,0-1.1,0.1-1.8,0.1C113.4,161.9,113.4,161,113.4,159.2z"/>
			<path fill="#2F1A45" d="M117.7,162.5c0,0.7-0.4,1-1,1c-0.7,0-1-0.3-1-0.9c0-1.1,0-1.7,0-2.8c0-0.6,0.4-1,1-1.1
				c0.7-0.1,1,0.2,1,0.9C117.7,160.8,117.7,161.4,117.7,162.5z M116.7,158.7c-0.2,0-0.2,0-0.4,0c0.1-0.3,0.2-0.4,0.4-0.7
				c0.2,0,0.3,0,0.6-0.1C117.1,158.2,117,158.4,116.7,158.7z M117.1,159.7c0-0.2-0.1-0.3-0.3-0.3c0,0,0,0,0,0
				c-0.2,0-0.3,0.1-0.3,0.3c0,1.1,0,1.7,0,2.8c0,0.2,0.1,0.3,0.3,0.3c0.2,0,0.3-0.1,0.3-0.3C117,161.4,117,160.9,117.1,159.7z"/>
			<path fill="#2F1A45" d="M118.4,158.7c0.3,0,0.4,0,0.7-0.1c0.3,1.1,0.4,1.6,0.6,2.7c0-1.1,0-1.7,0-2.8c0.3,0,0.4,0,0.7-0.1
				c0,1.9-0.1,2.9-0.1,4.9c-0.3,0-0.4,0-0.7,0c-0.2-1.1-0.4-1.6-0.6-2.7c0,1.1,0,1.6,0,2.7c-0.3,0-0.4,0-0.7,0
				C118.4,161.5,118.4,160.6,118.4,158.7z"/>
			<path fill="#2F1A45" d="M122.3,159.2c0-0.7,0.4-1.1,1-1.2c0.7-0.1,1,0.3,1,1c0,0.3,0,0.4,0,0.7c-0.3,0-0.4,0-0.7,0.1
				c0-0.3,0-0.4,0-0.7c0-0.2-0.1-0.3-0.3-0.3c0,0,0,0,0,0c-0.2,0-0.3,0.1-0.3,0.4c0,0.2,0,0.3,0,0.5c0,0.2,0.2,0.5,0.6,0.8
				c0.4,0.3,0.7,0.7,0.6,1.1c0,0.3,0,0.4,0,0.6c0,0.7-0.4,1.1-1,1.1c-0.7,0-1-0.3-1-1c0-0.3,0-0.4,0-0.7c0.3,0,0.4,0,0.7,0
				c0,0.3,0,0.4,0,0.7c0,0.2,0.1,0.3,0.3,0.3c0.2,0,0.3-0.1,0.3-0.4c0-0.2,0-0.3,0-0.6c0-0.2-0.2-0.5-0.6-0.8
				c-0.4-0.3-0.7-0.7-0.6-1.1C122.3,159.5,122.3,159.4,122.3,159.2z"/>
			<path fill="#2F1A45" d="M125,158c0.3,0,0.4,0,0.7-0.1c0,2.1-0.1,3.1-0.1,5.2c-0.3,0-0.4,0-0.7,0C124.9,161.1,124.9,160,125,158z"
				/>
			<path fill="#2F1A45" d="M126.4,157.8c0.3,0,0.4,0,0.7-0.1c0.2,1.2,0.4,1.8,0.6,3c0-1.2,0-1.9,0.1-3.1c0.3,0,0.4,0,0.7-0.1
				c0,2.2-0.1,3.2-0.1,5.4c-0.3,0-0.4,0-0.7,0c-0.2-1.2-0.4-1.8-0.6-3c0,1.2,0,1.8-0.1,3c-0.3,0-0.4,0-0.7,0
				C126.3,161,126.3,159.9,126.4,157.8z"/>
			<path fill="#2F1A45" d="M132.2,161.8c0,0.8-0.4,1.2-1,1.2c-0.7,0-1-0.4-1-1.1c0-1.4,0-2,0.1-3.4c0-0.8,0.4-1.2,1.1-1.3
				c0.7-0.1,1,0.3,1,1.1c0,0.3,0,0.5,0,0.8c-0.3,0-0.4,0-0.7,0.1c0-0.3,0-0.5,0-0.8c0-0.3-0.1-0.4-0.3-0.4c0,0,0,0,0,0
				c-0.2,0-0.3,0.2-0.3,0.4c0,1.4,0,2-0.1,3.4c0,0.3,0.1,0.4,0.3,0.4c0.2,0,0.3-0.1,0.3-0.4c0-0.3,0-0.5,0-0.8c0.3,0,0.4,0,0.7,0
				C132.2,161.4,132.2,161.5,132.2,161.8z"/>
			<path fill="#2F1A45" d="M134.8,161.7c0,0.8-0.4,1.2-1.1,1.3c-0.7,0-1-0.4-1-1.2c0-1.4,0.1-2.1,0.1-3.5c0-0.8,0.4-1.2,1.1-1.3
				c0.7-0.1,1,0.3,1,1.1C134.8,159.6,134.8,160.3,134.8,161.7z M134.2,158.2c0-0.3-0.1-0.4-0.3-0.4c0,0,0,0,0,0
				c-0.2,0-0.3,0.2-0.3,0.4c0,1.4-0.1,2.1-0.1,3.5c0,0.3,0.1,0.4,0.3,0.4c0.2,0,0.3-0.1,0.3-0.4
				C134.1,160.3,134.1,159.6,134.2,158.2z"/>
			<path fill="#2F1A45" d="M135.5,157c0.4,0,0.6-0.1,1-0.1c0.6-0.1,0.9,0.3,0.9,1.2c0,0.4,0,0.5,0,0.9c0,0.5-0.2,0.9-0.6,1.1
				c0.3,1.1,0.4,1.6,0.7,2.8c-0.3,0-0.5,0-0.8,0c-0.2-1-0.3-1.6-0.6-2.6c0,0-0.1,0-0.1,0c0,1,0,1.6-0.1,2.6c-0.3,0-0.4,0-0.7,0
				C135.4,160.5,135.5,159.3,135.5,157z M136.2,157.7c0,0.7,0,1,0,1.7c0.1,0,0.1,0,0.2,0c0.1,0,0.2,0,0.2,0c0.1-0.1,0.2-0.2,0.2-0.4
				c0-0.4,0-0.5,0-0.9c0-0.3-0.1-0.4-0.3-0.4C136.4,157.7,136.3,157.7,136.2,157.7z"/>
			<path fill="#2F1A45" d="M139.9,161.6c0,0.9-0.4,1.3-1.1,1.3c-0.7,0-1-0.4-1-1.3c0-1.5,0.1-2.2,0.1-3.7c0-0.8,0.4-1.3,1.1-1.4
				c0.7-0.1,1,0.3,1,1.2C140,159.3,139.9,160.1,139.9,161.6z M139.3,157.8c0-0.3-0.1-0.4-0.3-0.4c0,0,0,0,0,0
				c-0.2,0-0.3,0.2-0.3,0.4c0,1.5-0.1,2.2-0.1,3.7c0,0.3,0.1,0.4,0.3,0.4c0.2,0,0.3-0.1,0.3-0.4
				C139.2,160.1,139.2,159.3,139.3,157.8z"/>
			<path fill="#2F1A45" d="M140.7,156.5c0.3,0,0.4,0,0.7-0.1c0.2,1.4,0.3,2.2,0.6,3.6c0.1-1.5,0.1-2.2,0.1-3.7c0.3,0,0.4,0,0.7-0.1
				c-0.1,2.5-0.1,3.8-0.2,6.4c-0.3,0-0.4,0-0.7,0c-0.2-1.4-0.3-2.1-0.5-3.5c0,1.4-0.1,2.1-0.1,3.5c-0.3,0-0.4,0-0.7,0
				C140.5,160.3,140.6,159,140.7,156.5z"/>
			<path fill="#2F1A45" d="M145.2,160.4c0.1,0.9,0.1,1.4,0.1,2.3c-0.3,0-0.4,0-0.7,0c0-0.6-0.1-0.8-0.1-1.4c-0.3,0-0.4,0-0.7,0
				c-0.1,0.5-0.1,0.8-0.2,1.4c-0.3,0-0.4,0-0.7,0c0.1-0.9,0.2-1.4,0.3-2.3c0.3-1.7,0.4-2.5,0.7-4.2c0.4,0,0.6,0,1-0.1
				C145,157.9,145.1,158.7,145.2,160.4z M144.5,160.4c-0.1-1.1-0.1-1.6-0.2-2.7c-0.2,1.1-0.2,1.6-0.4,2.7
				C144.2,160.4,144.3,160.4,144.5,160.4z"/>
			<path fill="#2F1A45" d="M145.8,161.5c0.3,0,0.5,0,0.8,0c0,0.5,0,0.7-0.1,1.2c-0.3,0-0.5,0-0.8,0
				C145.8,162.2,145.8,162,145.8,161.5z M146.9,155.2c-0.1,2.2-0.2,3.3-0.3,5.5c-0.3,0-0.4,0-0.7,0c0.1-2.2,0.1-3.3,0.2-5.4
				C146.4,155.2,146.5,155.2,146.9,155.2z"/>
		</g>
	</g>
	<g>
		<polygon fill="none" points="89.1,1.3 87.9,1.6 89.3,2.4 89.6,1.8 		"/>
		<polygon fill="none" points="90.1,2.5 90.1,2.7 90.1,2.7 		"/>
		<polygon fill="none" points="96.5,5.6 96.5,4.6 95.3,4.6 95.7,5.1 		"/>
		<polygon fill="none" points="91.8,2.6 91.2,2.3 91.2,2.8 91.9,2.7 		"/>
		<polygon fill="none" points="93.4,3.3 92.9,3.3 93.7,3.8 		"/>
		<polygon fill="#FFDD00" points="92.9,5.6 92,3.2 91.9,3.2 92.2,4.4 		"/>
		<path fill="#FFDD00" d="M88.7,31.7l-0.8-2l-1.7,1l0.5,0.1l1-0.7l0.2,0.7l-1.4,1.6l-1.1,0L85,33.3l1.4,1.6c0,0,0.4,0.6,0.6,2l0.7-1
			L88.7,31.7z"/>
		<polygon fill="#FFDD00" points="91.4,3.5 91.5,4.7 92.3,6.8 92.6,6.8 91.8,4.8 91.6,3.2 91.3,3.2 91.3,3.4 90.8,4.6 91.3,6.2 
			91.8,6.7 91.1,4.9 		"/>
		<path fill="#FFDD00" d="M85.7,17l2.3-0.1c-0.1-0.3-0.3-0.7-0.5-1l-2.4,0.5L85.7,17z"/>
		<path fill="#FFDD00" d="M85.8,27l-0.1,0.3c0,0,0.2,0.3,0.5,0.3l0.3-0.4l-0.2-0.3L85.8,27z"/>
		<path fill="#FFDD00" d="M87.8,27.6l0.2-0.1l-0.2-0.4C87.8,27.3,87.8,27.5,87.8,27.6z"/>
		<polygon fill="#FFDD00" points="95.7,13.4 94.1,13.9 95,14 95.2,14.1 95.9,14.2 96.9,14.5 96.5,12.5 96.4,12.5 95.8,12.6 		"/>
		<polygon fill="#FFDD00" points="86.4,7.7 86,7.3 85.3,7.7 85.1,9.9 86.5,9.1 		"/>
		<polygon fill="#FFDD00" points="86.3,10.8 85.2,11.2 85.5,11.8 		"/>
		<polygon fill="#FFDD00" points="93.2,13.7 91.6,12 91.1,11 93.8,13 94,12.9 94.3,12.6 93.3,10.1 92.6,9.2 91.5,8.5 91.9,9.2 
			90.6,8.4 90.3,9 89.5,7.6 87.7,11.4 85.9,12.6 86.3,13.5 86.4,13.6 87.9,14.3 90.7,13.4 91.3,13.5 91.4,13.5 		"/>
		<polygon fill="#FFDD00" points="87,43.5 87,43.5 87,43.5 		"/>
		<polygon fill="#FFDD00" points="90.1,6.1 90.7,5.8 89.9,4.2 90.1,2.7 90.1,2.7 89.7,4.2 		"/>
		<polygon fill="#FFDD00" points="82.8,5.7 81.4,5.2 83.6,5.2 82.7,4.9 84.6,4.8 83.8,4.3 81.8,3.9 83.3,4.5 80.5,4.5 81.8,4.8 
			79.6,5.1 80.9,5.3 79.1,6.1 81.4,5.6 		"/>
		<polygon fill="#FFDD00" points="86.1,5.2 86.2,4.4 85.1,1.8 84.9,2.7 85.5,4 86,4.5 		"/>
		<polygon fill="#FFDD00" points="68.4,18.5 68.9,16.9 68,17.3 66.9,19.1 		"/>
		<path fill="#FFDD00" d="M71.6,40.8l-1.3,0.1L70,40.6l0.4,2.8l2.7,2.5c-1.3-2.2-1.5-4.3-1.5-4.3L71.6,40.8z"/>
		<polygon fill="#FFDD00" points="66.1,22.7 65,22.2 66.7,21.3 64.4,21.1 66.4,20.7 66.3,20.1 64.7,20.4 65.7,19.6 64.9,19 
			64.2,20.8 64.9,20.7 64,21.4 65,21.7 63.8,22.1 65.2,22.8 		"/>
		<polygon fill="#FFDD00" points="85.1,1.7 86.3,3.4 86.7,4.7 86.7,3.5 85.6,1.8 85.4,1.7 		"/>
		<polygon fill="#FFDD00" points="96,5.5 96.5,8.2 96.7,8.1 96.5,5.6 95.7,5.1 		"/>
		<path fill="#FFDD00" d="M85.2,27.6l0-0.4l-0.5,0.5l-0.3,0.6l0.5,0.2l1.3,0l0.1,0C85.6,28.1,85.2,27.6,85.2,27.6z"/>
		<polygon fill="#FFDD00" points="87.1,25 88.1,25.2 86.3,24.2 		"/>
		<path fill="#FFDD00" d="M87.5,41.8l0.5-0.7l0.4-1.1l1.3-1l0.8-0.6l-2,0.6c-0.5,0.5-0.9,1.1-1.3,1.6l0,1.3L87.5,41.8z M88.3,40.1
			L88.3,40.1c-0.1,0-0.1,0-0.2,0l0,0C88.2,40.2,88.2,40.1,88.3,40.1z"/>
		<path fill="#FFDD00" d="M94.9,40.6l-0.5,0.2l-0.7-0.2l-1.2,0.2l-2.3,0.7l-2,1L88,42.9l0.8-0.1c0,0,1.3-0.9,2.2-1.1l2.1-0.8
			l-1.1,0.9l1.2,0l1.5,0.5l1.9-0.2c0,0-0.3-0.5-0.8-0.9l-1,0.1c0,0,0.9-0.3,1.2-0.6l0.6,0.4l0.6,0.2l0.1-0.1l-0.7-0.7L94.9,40.6z"/>
		<polygon fill="#FFDD00" points="94.1,5.9 94,4.9 94.3,4.8 95.2,7.5 95,5.8 93.7,3.8 92.9,3.3 92.7,3.3 		"/>
		<polygon fill="#FFDD00" points="97.5,14 97.2,11.2 96.8,11.6 		"/>
		<path fill="#FFDD00" d="M121.5,96l-2.8-0.8l0,0l-4.1-0.9l-3.2-2.2L114,95l7.6,1.7l1.4,0.4l-3.7,3.6l-1.6,1.1
			c0.3,0,0.6-0.1,0.8-0.1l2-1.4l2.8-3l-0.3-1.1l-0.6-0.5l5.7-8l-0.5,0L121.5,96z"/>
		<polygon fill="#FFDD00" points="114.1,55.2 114,55.2 114.1,55.2 		"/>
		<polygon fill="#FFDD00" points="78.5,5.3 79.5,4.2 76.6,4.9 76.4,4.7 75.6,4.8 74.4,5.7 74.9,6 77.1,5 		"/>
		<path fill="#FFDD00" d="M108.3,60.3l-0.6,0.4l-1.7,1.9l1.2-0.1l2.5-2.9l2.1-1.7l2.1-2.7l-0.9,0.3l-1.9,2.2l-2.4,1.9l0-0.1l-0.9,0
			c0,0-1.7,0.1-3.2,0.5c-0.9,0.2-1.5,0.8-1.7,1.2l2.6-0.9C105.6,60.2,107.5,59.9,108.3,60.3z"/>
		<path fill="#FFDD00" d="M114.7,55l-0.1,0c2.7,0.4,4.9,2.7,4.9,2.7l2.6,5.7l6.1,5.6l2.7,1.4c0.8-0.5,0.6-2.3,0.6-2.3l2.4,2.7
			c0,0,1.8,2.2,2,3.4c0.1,1,0.1,2.1,0.1,2.5l0,0.1c0,0-1.8,2.7-1.9,3l0.1,0.7l2-2.9l0.3-2.2l-0.5-2.2l-3.4-5l-6.6-6.6
			c-2.4-2.4-9-6.6-9-6.6l-2.8-0.5c0,0-1.3-0.1-1.9,0.2c-0.3,0.2-0.8,0.5-1.1,0.7l1.3-0.6C113.3,54.8,114.7,55,114.7,55z"/>
		<polygon fill="#FFDD00" points="117.4,85.8 121.8,84.4 125.3,80.6 121.5,83.6 117.7,85.2 110.5,80.4 110.9,81.5 		"/>
		<polygon fill="#FFDD00" points="109.2,78.5 106.8,73.9 107.1,75.6 108.2,78.1 		"/>
		<path fill="#FFDD00" d="M127.2,85.8l0.8-0.1l5-5.9c-0.6,0-1.3-0.1-2.1-0.1l-3.7,4.5L127.2,85.8z"/>
		<path fill="#FFDD00" d="M96.1,93.2l1.1,3.3l0.9,2.9L98,99.7l1.5-0.5c1.8-3.8-0.2-9.7-0.2-9.7l-1.7-2.9l-2.3-2.3l-5.9,0.2
			c0,0-1.6,1.3-1.8,3.4l0.5,2.7c1.3,0.4,5.3,1.7,7.3,3.3L96.1,93.2z"/>
		<polygon fill="#FFDD00" points="70.9,110.5 71.4,110.4 74.1,111.7 75.1,107.7 74,104.8 73.1,104.5 68.9,104.5 71.1,102.2 
			75.1,101.8 80.4,102.6 79.4,101.5 75.1,100.6 70.6,101.4 64.1,105.8 56.1,106.9 54.4,106.3 48.9,107.9 44.7,108.1 44.8,108.2 
			43.4,108.6 42.6,107.9 42.1,108 43.6,110.5 45.5,109.7 48,109.7 53.3,107.8 72.6,106.1 72.3,106.4 70.9,110.3 		"/>
		<polygon fill="#FFDD00" points="121.1,94.7 125.6,87.8 124.2,87.9 120.3,94.7 		"/>
		<polygon fill="#FFDD00" points="112.4,101.2 110.1,100.7 110,100.6 107.3,101.3 106,104.3 105.3,105.1 105.9,105.2 108,101.7 		
			"/>
		<polygon fill="#FFDD00" points="66.6,23.5 69.6,23.1 68.4,22.6 		"/>
		<polygon fill="#FFDD00" points="97.5,29.4 97.5,29.4 97.5,29.4 		"/>
		<polygon fill="#FFDD00" points="88.2,26.9 87.9,26.5 88.2,27.3 88.3,27.3 		"/>
		<polygon fill="#FFDD00" points="86.2,2.1 87.4,3.7 87.9,5.9 87.8,2.8 		"/>
		<polygon fill="#FFDD00" points="87.9,28.6 87.7,28.4 85.4,28.9 85.1,30.1 		"/>
		<path fill="#FFDD00" d="M90.4,34l0.1,1.6c0,0,0.4,0.5,0.9,0.7l0.2,0l0.6-1.1l-0.6-2.4l-0.4,0.1C91.2,32.9,90.5,33.5,90.4,34z"/>
		<path fill="#FFDD00" d="M89.7,34c0,0-0.2,0-0.4,0c-0.1,0.1-0.1,0.1-0.1,0.1l0.2,2l0.2,0.1c0.1-0.2,0.3-0.5,0.4-0.8L89.7,34z"/>
		<path fill="#FFDD00" d="M99.6,29.1v0.2l-0.8-0.1l-0.3,0l-0.7,1.1l-1.9-1.2l0.9,1.3l0.3,0.6l-0.9-0.4l0.6,1.7l0.1,0.5l0.5,0.6
			l0,1.4c0.3,0.7,1.2,2.6,1.6,4l0.6,3.6c0,0-0.9,1.6-0.8,3.5l-0.6-1.6l-0.8-0.5L93,43.1l-2.3,0.2l0.5,0.3c0,0,1.1,0.6,2,0.6
			l-1.2,0.4c0,0-0.7,0-1.5,0l0,0l-2.9-0.2l-0.6,1.2l0.2-1.4l-0.5-0.5l-0.5,0.6l0-0.9l0.1-0.1l-0.1-1.1c-0.1,0.3-0.2,0.5-0.2,0.5
			l0,2.5l-0.5-1.2l-0.1-3l-0.1-0.6c0,0-0.6,0.5-0.8,1.4l-0.3,1.8l1.7,4.1l1.1,0.4c0,0,0.7,1.8,1.4,2.1l2.4,0.4l0.9-0.1l0.8,0.7
			l1.2-0.4l1.2-0.3l1.2,0.3l1.5-0.1l-0.5,1.5c0.8-0.6,1.4-2.2,1.4-2.2s0.6-2.9,0.7-3.3c0.1-0.4,0.7-1.7,0.7-1.7l-0.1-2.3l-0.5-2.5
			c0-1.2,1.1-5,1.1-5l0.6-2.5c0-1.2-0.8-2.8-0.8-2.8l-0.4-0.7l0.3-0.7l0.4-1.4l-0.7,1.4L99.6,29.1z M97.5,46.7L97.5,46.7l-1.1,0
			l-0.7,1.4c-2-0.8-5.1,0-5.1,0l-0.7,0.6c-0.8-0.8-2.4-0.9-2.4-0.9l0.7-0.3l0.3-0.5L88,47.1l1.5-1.2l2.6-0.7l2.4,0l1.7,0.2l1.6,1.5
			L97.5,46.7z"/>
		<polygon fill="#FFDD00" points="70.3,24.9 70.3,24 69.2,25.4 		"/>
		<path fill="#FFDD00" d="M97.6,28.6l-0.4-0.2c0,0-0.3-0.2-0.5-0.6l0-0.2l-0.4,0.5l-0.1,0.5l0.2,0.1l0,0.1l0.3,0.1l0.8,0.2l0.8-0.4
			l-0.2-0.3C98.2,28.5,98,28.7,97.6,28.6z"/>
		<path fill="#FFDD00" d="M97.2,27.4l0,0.2c0,0,0.1,0.3,0.4,0.3l0.3-0.2l-0.2-0.3L97.2,27.4z"/>
		<polygon fill="#FFDD00" points="70.4,26.2 70.4,25.4 68.8,27.2 		"/>
		<path fill="#FFDD00" d="M70.3,32.5l-1.4,0.8l-0.3-1.6l0-0.1l0,2.8l0.2,0.8l0.6,0.6l0.3,2c0.3,0.3,0.7,0.8,0.9,0.8
			c0.2,0,0.7-0.1,1.1-0.1l0-0.5l-0.9-6.1L70.3,32L70.3,32.5z"/>
		<polygon fill="#FFDD00" points="72.5,5.3 71.9,5.4 71.6,5.6 73,5.4 		"/>
		<polygon fill="#FFDD00" points="62.9,16.2 63.7,15.2 63.1,14.6 63.1,13.3 62.9,12.8 62.5,13.5 62.4,17.6 62.9,17.1 		"/>
		<path fill="#FFDD00" d="M100.9,19.6l-0.4-2.9l-0.7,1.6l0.3-4.3l-0.7-0.3l0.2-0.3L98.7,13l-1.1-1l0.7,2.1l-1,1.5l-1.1,0.8l0.7-1.6
			l-0.3-0.1l-0.8-0.3l-0.9-0.3l-3.1,0.2l-0.5,1.1l4.4,0.6l1,1.2l0.9,0.4l1.8,1.2l-0.1,0l0,0c-0.3,0.3-0.8,0.4-1.2,0.5l0.8,0.3
			l0.4,0.8l-2.6-1l-2.2-0.5l-0.2-0.5l-2.7-0.5c0,0,1.6,0.1,3,0.2l1.7,0l2.4,0.4L97.3,18l-0.7-0.1l-1.3-1.5L90.9,16
			c0,0-1.1,0.8-1.6,1.4l-4.1,0.5l1,0.6c0.9-0.1,2-0.3,2.8-0.3l0.1,0l2.1,0l1.9,0.6l-1.7-0.1l-4.7,0.9l-1,0.6l2.1-0.4l4-0.1l-3.5,0.6
			L86.5,21l-0.1,0.4l-0.8,0.6l1.3,1l-0.2-0.7l0.2-0.2l-0.3-0.4l1.5,0.5l0.4,0.6l0.9,0.5L89.3,23l1.4,1l-0.1,1.1l0.5,0l0.4-0.3l0-1.7
			l-0.2-1.5l2.1,3.5l-0.1,1.8l-0.5,0.7l0.1,1.2l1.4,2.8l0.3,2.3l-0.5,0.8L93,33.1l-0.2,0.3l0.7,1.7l-1.1,1.3l1.2,1.7l0.8,0.1
			l1.6-0.6l-0.2,0.2l0.4-0.1l0.8-2.3l0.1-1.6l-0.6-1.3l0.1,0.1L96.3,32l0,0.1L94.5,29c0,0,0.1-1,0.5-1.9l-0.1-0.6l-0.3,0.3l-0.6-0.6
			l1-1.6l0-1.3l0.5,1.3l1.3-0.4l0.4-0.3l0.5-0.5l1.2-0.4l-0.2,0.3l1.3-0.3l0.5,0.6l0.3-0.9l0,0l0.2-0.8l-0.2-0.3l0.1-0.4l-0.2,0.3
			L100.9,19.6z M89.2,22.3L88.6,21l1.3,1.2l0.4,0.8L89.2,22.3z M91,24.1l-0.2-0.7l-0.1-1.3l0.5,1.4L91,24.1z M94.5,24.7l-1.4-4
			l1,0.5l0.5,1.5L94.5,24.7z M96,23.4l-0.2,0.2l-0.1,0.8l-0.3-1.1l0.6-0.6L96,23.4z M98.8,22.6l-2-0.4l-0.3-1.4l-1-0.6l2.5,0.6
			l1,1.1L98.8,22.6z"/>
		<polygon fill="#FFDD00" points="62.4,27.6 63.9,25.9 66.1,26.5 66.7,26.9 66.3,26.3 63.9,25.3 62.7,26 62.5,23.8 62.6,21.7 
			62.3,21 62.3,21.1 62.5,26.4 61.8,27.7 62.5,31.2 62.2,29.2 		"/>
		<polygon fill="#FFDD00" points="62.5,19.5 62.3,18.9 62.3,18.9 62.3,20.8 62.5,20.2 		"/>
		<polygon fill="#FFDD00" points="80.2,3 78.9,3.4 81,3.3 		"/>
		<path fill="#FFDD00" d="M12.7,92.4l0.8-0.7l0.9-0.2l5.9-2.4c1.2,0.1,2.7,1,4.6,1.8c1.9,0.8,4.1,1.5,4.1,1.5l6.5-0.6l2-1.2
			l-0.5,2.1L36.7,94l-0.2,1.8l0.6,2.1l1.2,0.1l-0.1-5l0.3-4.7l1,0.9l0.9-2.9l-2.2,1.4L38,87.7l-0.1,0.1l-0.1,0.1l0,0l-1.4,0.5
			c0,0-4.3,0.3-5.8-0.2c-0.6-0.2-1.2-0.4-1.6-0.5l0,0l-4.2-0.8l-4.3-0.3l-5.6,3.2l4.1-3.8l3.5-0.9l0-1.7l-2.1-1.7l-2.9,1l3.7-4.3
			l3.8-2.2l4.1-0.5c0,0,0,0,0,0l1.2-0.3l5.5,0.7c-1.2,3,0,7.4,0,7.4l3.4,3l0.4-0.4l2-1.6c0,0,1.3-2,1.7-5.5l-0.8-4.2
			c0,0,0.9-0.6,1.3-1.9l0.9,0l1.4-1.2c2.7-1.7,4.7-5.5,4.7-5.5L49.7,59L46,57l0,0l-5.8,3.7C38.4,66.1,39.5,74,39.5,74l1.7,4.2
			c0,0-2.5-1.4-4.8-2.8c-0.8-0.5-1.8-0.8-2.7-1.1l-4.2-0.4l-2.9,0.5l-0.4-7.5c0,0,1.6-4.7,3.5-7.3l4.5-3.3l8.3-1.5l0.8,0.3l5,1
			l0.2,0l0.5,0.2l0.4,0.1l-0.1,0l4.3,1.5l2.2,3.2l6.9,2.2l-1.2,3l1.6,6.9c2.2,3.2,5.2,4.4,5.2,4.4l-4.9,2.3l-1.7,1.7L60.2,82
			c0.1,0,0.1,0.1,0.2,0.1l-6.1,1.5l-0.4-0.7l-6.2,0.8l-3.3,1l-0.6,1.9l0.5,4.1l3.6-0.8l1.2-4.1l1.2-0.3l-0.1,0.2l0-0.1l-0.5,3.4
			l0.1,2.2l0.4-0.1l0.7,2.9l1.2-0.5L52,91l0.4-4.2l1-2l4.1-1.2l-0.8,2.9l0.4,2.3l1.8-0.2c0,0,1.5-2.3,4.8-4.9l1.5-3.4l3.2-2l10-2.6
			L89.8,74l7.1,0.8l1.7,0.7l0-0.1l5,1.8l5,3.9l2.7,4.9l0-0.1l-1.9-5.1l-1.7-2.2l0,0l-3.6-2l-3-1.1l0,0c-0.8-0.3-2-0.7-2.4-0.9
			c-0.7-0.3-2.3-0.2-2.3-0.2l-0.7-2.6l-2.1-4.3c-0.9-2.2-3.5-4.5-3.5-4.5l-4.2-2.3c0,0,0.5-1.1,0.7-1.9c0.1-0.5,0.6-2.2,0.8-3.1
			l-1.4,0.4l-1.7,4.7l-3.1,6.3l-1.4,5.5l1.8-4.9L83,66l0,0l1.1-1.5l2.3,0.8l4.3,3.3c1.2,2.4,1.3,5.1,1.3,5.1l-1.8-0.3l-3.7,0.1l0,0
			l-8.3,1.1L73.1,76c-0.6-4.4-3.8-9.3-3.8-9.3l-1.6-4l-3-4.1c-0.1-3.5-2.1-7.4-2.1-7.4l-4-2c-1.9,0.2-5.7,1-5.7,1l-1.7-0.2l-3.3,0.7
			l-0.4-0.3l1.4-0.5l-1.9,0.4l-5.8,2.6c-0.9,0.4-3.2,0.6-3.2,0.6l-8.4,3.4L26.4,63l-0.8,9.6l-6.9,7L10,92.9l-0.7,1.5l0.4,0.3
			L12.7,92.4z"/>
		<polygon fill="#FFDD00" points="64.3,11 65.4,9.6 65,11.1 65.2,12.9 66.5,12.9 66.1,12.1 67.3,12.3 68,11.9 67.3,11.2 68.1,9.3 
			69.9,7.8 67.2,8.9 66,8.5 67.5,8.4 68.7,7.5 66.6,8 65.9,8.3 63.8,11.5 64.2,12.2 		"/>
		<polygon fill="#FFDD00" points="56.3,48.4 52.1,49.4 51.6,49.5 52.4,49.5 		"/>
		<path fill="#FFDD00" d="M64.7,48.4l-0.3-3.1c0.2-2.1,1.6-5.8,1.6-5.8l0.8-0.4l0.9,0.4l0.2-1.1l-0.3-1l-0.3,0.9l-1.3,0.6L65.1,38
			l-2.3,6.3l0.5,2.7L64.7,48.4z"/>
		<polygon fill="#FFDD00" points="36.6,117.3 36.9,116.1 36.7,114.3 36.1,109.2 32,110 35.4,115.9 35.5,117.4 35.8,117.4 		"/>
		<polygon fill="#FFDD00" points="62.7,32.3 62.9,33.7 63,33.1 		"/>
		<path fill="#00ADBB" d="M54.2,68.9l0.3,8.6c0,0,1.8,2.9,5.7,4.4l1.2-0.4l1.7-1.7l4.9-2.3c0,0-3-1.2-5.2-4.4l-1.6-6.9l1.2-3
			l-6.9-2.2l-2.2-3.2l-4.3-1.5L46,57l3.7,2.1l0.9,6.9c0,0-2,3.8-4.7,5.5l-1.4,1.2l5.8-0.2L54.2,68.9z"/>
		<polygon fill="#00ADBB" points="48.4,56.1 48.2,56.1 48.9,56.3 		"/>
		<path fill="#00ADBB" d="M90.8,50.6l-2.4-0.4c-0.6-0.3-1.4-2.1-1.4-2.1l-1.1-0.4l-1.7-4.1l0.3-1.8c0.2-1,0.8-1.4,0.8-1.4l0.1,0.6
			l0,0l1.1-1.5l0.3-2.4l0.1-0.1c-0.2-1.4-0.6-2-0.6-2L85,33.3l0.5-0.8l-2,0l-1.4-1.1c-1.3,1.1-1.5,1.7-1.5,1.7l0.2,0.6l1.4,1.4
			c1.3,2,1.4,3.5,1.4,3.5l-1,2.5l-0.9-0.4l-1.2,2c-0.3,0.4,0.1,1.6,0.1,1.6l2.1,7.2l3.5,1.7l0.7-0.1L84,51.9l-1.1-1.3l-0.4-1
			l2.2,0.5l0.5,0.8l2.7,1.5l2.6-0.4l2-0.7l-0.8-0.7L90.8,50.6z"/>
		<polygon fill="#00ADBB" points="87.9,30.9 87.7,30.1 86.7,30.9 86.2,30.7 85.9,30.9 84.7,31.3 84.2,31.3 85.6,32.1 85.4,32.5 
			86.5,32.5 		"/>
		<path fill="#00ADBB" d="M84.2,31.3l-2,0c0,0-0.1,0.1-0.1,0.1l1.4,1.1l2,0l0.2-0.4L84.2,31.3z"/>
		<polygon fill="#00ADBB" points="83.5,29.1 83.2,29.5 85,30.1 85.1,30.1 85.4,28.9 85.1,29 		"/>
		<polygon fill="#00ADBB" points="92.7,26 92.3,27.2 92.4,28.4 93.3,30.8 93.2,32.1 91.7,31 90.9,31.3 90.7,32.6 91.7,32.1 
			92.4,32.8 91.8,32.7 91.6,32.8 92.2,35.2 91.6,36.3 92.3,36.2 92.5,36.5 93.5,35.1 92.8,33.4 93,33.1 94.1,34.7 94.7,33.9 
			94.4,31.6 93,28.8 92.8,27.6 93.3,26.9 93.4,25.1 91.3,21.6 91.5,23.1 91.5,22.9 		"/>
		<polygon fill="#00ADBB" points="96.8,32.4 96.2,30.7 97.1,31 96.8,30.4 95.9,29.2 97.8,30.3 98.6,29.2 97.5,29.4 97.5,29.4 
			97.5,29.4 97.3,29.4 96.8,29.1 96.8,29 96.8,29 96.5,28.8 96.6,28.9 96.2,28.7 96.1,28.6 95.8,28.5 95.5,28.5 95,28.7 95,28.8 
			95,29.4 96.1,31.5 96.3,32 96.6,32.6 96.9,32.9 		"/>
		<path fill="#00ADBB" d="M83.1,16.7L81.2,16l0.2-2.8l1.1-1.6l-0.9-0.2c-0.5,1.3-0.8,2.6-1,3.7l0.4,1.5l3.1,2.3c0,0,1-0.2,2.1-0.4
			l-1-0.6L84.1,18L83.1,16.7z"/>
		<path fill="#00ADBB" d="M85.6,19.1l-2.1,0.8l-3.2-2.3c0,0.3,0,0.5,0,0.5l1.8,1.6c0,0.7-0.2,1.6-0.3,2l0.3-0.1l0.1-0.5l1.1-0.5
			l0.7,0.5l1.2-0.7l0.6-0.1l1-0.6l4.7-0.9l1.7,0.1l-1.9-0.6l-2.1,0l-0.1,0c0.1,0,0.1,0,0.2,0L85.6,19.1z"/>
		<path fill="#00ADBB" d="M85.1,9.9l0.3-2.1l-0.3,0.2l-0.1-0.4l-1.6,0.8c-0.5,0.6-0.9,1.2-1.2,1.9l1.6,0.4L85.1,9.9z"/>
		<polygon fill="#00ADBB" points="83.9,16.7 85.5,17 85.7,17 85.1,16.5 		"/>
		<path fill="#00ADBB" d="M85.5,11.8l-0.3-0.6l-1.7,0.6l-0.7-0.2c-0.1,0.3-0.2,0.6-0.2,0.9l2.6-0.3L85.5,11.8z"/>
		<path fill="#00ADBB" d="M82.5,12.7c-0.1,0.4-0.2,0.8-0.2,1.2l0.4,1.2l2.2,0.2l2-0.3l-1.1-1.7l0.7,0.3l-0.1-0.1l-0.4-0.9l-1,0.7
			L82.5,12.7z"/>
		<polygon fill="#00ADBB" points="87.9,14.3 86.4,13.6 87.6,14.9 88.9,14.7 91.3,13.5 90.7,13.4 		"/>
		<polygon fill="#00ADBB" points="96.9,14.5 95.9,14.2 95.2,14.1 96,14.6 95.7,14.5 96.5,14.8 96.8,14.9 96.9,14.8 		"/>
		<path fill="#00ADBB" d="M91.4,13.9l-2.5,1.7l-1.4,0.3c0.2,0.3,0.3,0.7,0.5,1l1.5-0.1l1.7-1.4l0,0l0.5-1.1l3.1-0.2l-0.1,0
			L91.4,13.9z"/>
		<polygon fill="#00ADBB" points="85.7,13.3 86.9,15 87.6,14.9 86.4,13.6 		"/>
		<polygon fill="#00ADBB" points="93.1,20.7 94.5,24.7 94.6,22.7 94.1,21.2 		"/>
		<polygon fill="#00ADBB" points="84.2,21.3 84.5,21.1 85.7,22.1 86.4,21.4 86.5,21 88.4,20.3 91.9,19.7 87.8,19.8 85.7,20.2 
			84.1,21.2 		"/>
		<polygon fill="#00ADBB" points="83.9,21 84.1,21.2 85.7,20.2 85.1,20.3 		"/>
		<polygon fill="#00ADBB" points="95.6,20.2 96.6,20.8 96.9,22.2 98.8,22.6 99.1,21.9 98.1,20.8 		"/>
		<path fill="#00ADBB" d="M96.2,18.2l-1.7,0c0.6,0.1,1.1,0.1,1.5,0.2l0.4,0.3l1.7,0.7c0.4-0.1,0.9-0.2,1.2-0.5l0,0l-0.6-0.3
			L96.2,18.2z"/>
		<path fill="#00ADBB" d="M98.2,38.8l0.2,1.2l-0.2,1.8l-0.6-3.2l-0.9-0.9L96.5,38l-0.1,0l0.5,2l-0.1-1.4l0.5,0.7l0.1,0.9l0.4,1
			l0.2,1.5l-0.4-1L97,41.2l-0.1,0.1l-0.6-0.2l0.2,0.2l0.7,0.8l1.1,2.2l-0.1-0.1l0.6,1.6c-0.1-1.9,0.8-3.5,0.8-3.5L99,38.8
			c-0.4-1.4-1.3-3.3-1.6-4l0,1.2L98.2,38.8z"/>
		<polygon fill="#00ADBB" points="95.8,39.5 95.7,38.2 95.4,38.2 95.2,38.4 95.6,40.1 		"/>
		<polygon fill="#00ADBB" points="88.4,40 88,41.1 88.6,40.5 88.4,42.1 87.9,42.5 87,43.5 87,43.5 87.5,43 88,42.9 88.1,42.5 
			90.1,41.5 92.5,40.8 93.7,40.6 93.2,40.5 91.3,40.9 89.7,41.6 91.3,39.7 90.4,40.1 89.3,41.5 88.7,42 88.6,41.3 88.8,40.2 
			89.4,39.8 91.2,38.9 92.4,38.1 92.4,38.1 92.1,37.9 90.5,38.3 89.7,39 		"/>
		<path fill="#00ADBB" d="M89.4,43.7l1.2,0.9c0.8,0,1.5,0,1.5,0l1.2-0.4c-0.9,0-2-0.6-2-0.6l-0.5-0.3l-0.4,0L89.4,43.7z"/>
		<path fill="#00ADBB" d="M87.2,41.9l0-1.3c-0.4,0.6-0.8,1.2-1,1.6l0.1,1.1L87,42L87.2,41.9z"/>
		<polygon fill="#00ADBB" points="62.6,32.1 62.7,32.3 62.5,31.2 		"/>
		<polygon fill="#00ADBB" points="62.9,33.7 62.9,33.8 63,33.8 		"/>
		<polygon fill="#00ADBB" points="65.9,31.6 65,32.6 65.7,33.8 66.3,34.1 65.7,32.5 		"/>
		<polygon fill="#00ADBB" points="63.1,34 63.4,34.8 65.2,36.7 66.4,36.7 67.4,35.8 67.3,35.1 67,34.9 65.4,34.4 65.1,34.9 
			64.7,34.4 64.8,33.8 63.9,32.7 64.3,30.6 64.9,30 65.4,30.8 65.8,30.4 64.8,28.7 63.5,29.6 63.2,31.8 62.7,31.2 62.5,29.2 
			63.7,26.9 66.5,28.4 66.7,28.9 67.7,30.7 67.1,32.3 67.3,33.5 68.3,31 68.2,30.1 67.6,28.1 66.7,26.9 66.1,26.5 63.9,25.9 
			62.4,27.6 62.2,29.2 62.5,31.2 62.7,32.3 63,33.1 62.9,33.7 63,33.8 		"/>
		<polygon fill="#00ADBB" points="95.8,12.6 96.4,12.5 95.8,12 		"/>
		<polygon fill="#00ADBB" points="86,7.3 86.4,7.7 86.5,9.1 86.7,9.1 87.1,7 85.8,7.1 85.4,7.3 85.3,7.7 		"/>
		<polygon fill="#00ADBB" points="90.3,9 90.6,8.4 91.9,9.2 91.5,8.5 92.6,9.2 92.1,8.5 92.1,8.4 90.8,7.9 90.3,8.3 89.7,7 
			89.5,7.6 		"/>
		<polygon fill="#00ADBB" points="88.8,6.5 88.8,6.5 88.8,6.5 		"/>
		<polygon fill="#00ADBB" points="94.6,11.4 93.9,11 93.3,10.1 94.3,12.6 94,12.9 94.7,12.7 		"/>
		<polygon fill="#00ADBB" points="85.3,7.7 85.4,7.3 84.9,7.5 85.1,7.9 		"/>
		<polygon fill="#00ADBB" points="100.8,23.6 100.7,24 100.9,24 100.7,22.7 100.7,22.8 		"/>
		<polygon fill="#00ADBB" points="100.4,23.6 99.9,23 98.6,23.3 98.5,23.3 99.6,23.3 99.9,23.7 99.7,23.8 100.1,24.2 100.5,24.1 
			100.7,24 100.8,23.6 100.7,22.8 100.7,22.7 100.7,22.7 		"/>
		<polygon fill="#00ADBB" points="95.7,27.2 95.6,27.5 95.8,27.3 		"/>
		<polygon fill="#00ADBB" points="99.5,26.8 99.5,26.9 99.5,26.9 99.8,27.3 99.6,27.5 99.3,28.5 99.4,28.7 99.8,28.4 100.4,27.2 
			100.5,26.5 100,26.7 		"/>
		<polygon fill="#00ADBB" points="85.1,27.2 85.1,27.2 84.4,27.4 83.9,28.1 84.3,28.3 84.6,27.7 		"/>
		<polygon fill="#00ADBB" points="96.3,27.6 95.8,28.1 96,28.3 96.3,28.6 96.4,28.1 96.7,27.6 96.7,27.5 		"/>
		<polygon fill="#00ADBB" points="95.8,28.5 96.1,28.6 95.9,28.4 		"/>
		<path fill="#00ADBB" d="M92.5,46L88.7,47l-0.3,0.5l-0.7,0.3c0,0,1.5,0.2,2.4,0.9l0.7-0.6c0,0,3.1-0.8,5.1,0l0.7-1.4l1.1,0.1
			l-0.1,0l-1.6-0.5L92.5,46z"/>
		<polygon fill="#00ADBB" points="49.3,56.4 48.9,56.3 49.2,56.4 		"/>
		<path fill="#00ADBB" d="M48.2,56.1l-5-1l1.7,0.5l-8.3,1.2c0,0-3.8,2.8-4.7,4.4c0,0-0.6,8.2,1.9,13.1l-0.1,0
			c0.9,0.2,1.9,0.6,2.7,1.1c2.4,1.3,4.8,2.8,4.8,2.8L39.5,74c0,0-1.1-7.8,0.7-13.3l5.8-3.7l0,0l-0.7-0.4L48.2,56.1z"/>
		<polygon fill="#00ADBB" points="48.9,56.3 48.2,56.1 45.2,56.6 46,57 49.2,56.4 		"/>
		<polygon fill="#00ADBB" points="68,111.2 70.9,110.5 70.9,110.3 72.3,106.4 69.4,108.8 		"/>
		<path fill="#00ADBB" d="M77.2,108c0,0,1.8,0.3,4.1,0.7l-2.4-2.5l-4.8-1.4l1.1,2.9l-1,4l1.1,0.5L77.2,108z"/>
		<path fill="#00ADBB" d="M86.5,73.6l3.7-0.1l1.8,0.3c0,0-0.1-2.7-1.3-5.1l-4.3-3.3l-2.3-0.8L83,66l2.9,4.5L86.5,73.6z"/>
		<polygon fill="#00ADBB" points="38,87.7 38.1,87.6 37.9,87.8 		"/>
		<path fill="#00ADBB" d="M35.8,83.3c0,0-1.1-4.4,0-7.4l-5.5-0.7l-1.2,0.3c-0.1,0.2-2,2.5-2.6,3.5c0,0-0.8,4.3,0.2,6.8l2.2,1.7
			c0.4,0.1,1,0.3,1.6,0.5c1.5,0.5,5.8,0.2,5.8,0.2l1.4-0.5l1.3-1.5L35.8,83.3z"/>
		<path fill="#00ADBB" d="M37.4,90.5l-2,1.2l-6.5,0.6c0,0-2.2-0.7-4.1-1.5c-1.9-0.8-3.4-1.7-4.6-1.8l-5.9,2.4l5.4-1.5L19,93.5l4.6,1
			l5.8,1l7.2-1.6l0,0.2l0.3-1.4L37.4,90.5z"/>
		<path fill="#00ADBB" d="M8.3,96.6l1-2.2L9,94.2l-2.1,4.3l-0.3,1.5c0,0.2,0.2,0.4,0.4,0.7l3.3-1.4L8.3,96.6z"/>
		<polygon fill="#00ADBB" points="10.2,99.3 10.4,99.2 13.2,95.9 15.6,93.7 13.2,93.9 8.5,96.3 12.7,92.4 9.7,94.7 9.3,94.4 
			8.3,96.6 		"/>
		<polygon fill="#00ADBB" points="103.5,103.8 103.3,103.2 103.1,103.4 103.2,103.4 103,103.6 102.7,103.8 102.6,103.9 100.2,105.9 
			102.5,104.9 103.2,104.9 103,104.4 		"/>
		<path fill="#00ADBB" d="M41.2,106.1l-1.2-2.8l-0.7-4.7c-0.6-2.9-0.5-8.8-0.5-8.8l0.9,4.8l0.8-1.2L40,90.3l0.9-3l0.3,3l0.9,2.8
			l7-1.6l-0.2-2.1l1.4-3.6l0.1-0.2l-1.2,0.3L48,89.9l-3.6,0.8l-0.5-4.1l0.6-1.9l-3.2,1l-0.9,0.6l-0.9,2.9l-1-0.9l-0.3,4.7l0.1,5
			l-1.2-0.1l1.6,5.8L41.2,106.1z"/>
		<path fill="#00ADBB" d="M54.7,96.5l-1.2-4.1l-0.3-3.6l2.5-0.5l0.3,3.3L57,96l-0.3-5.9l0.6-0.6l1.3,6.2l6.6-2.2l7.7-0.5l-0.7-1
			l-5.4-0.5l-3.1,0.5l-2-1.8l8.2-2.6l3.8,0l1,1.6l0.1-2.4l1.3-2.2L76,86.7l0.2,2.7l0.6-2.9l1.1-1l-0.5,1.5l0.5,2.4l3.8,1
			c0,0,3.7,0.5,5.8,0.1c0,0,0.2,0,0.4,0.1l-0.5-2.7c0.2-2.1,1.8-3.4,1.8-3.4l5.9-0.2l2.3,2.3L95,82.3l4.1,3.4l0.3-7l-0.8-3.3
			l-1.7-0.7L89.8,74l-11.4,1.5l-10,2.6l-3.2,2l-1.5,3.4c-3.3,2.6-4.8,4.9-4.8,4.9l-1.8,0.2l-0.4-2.3l0.8-2.9l-4.1,1.2l-1,2L52,91
			l0.2,2.6l-1.2,0.5l0.8,3.4L54.7,96.5z"/>
		<path fill="#00ADBB" d="M99.5,99.2L98,99.7l-1.1,3.6l3.4-2.2c2.4-4.1,2.3-6.2,2.3-6.2l-3.1-6.6l-1.9-1.8l1.7,2.9
			C99.3,89.5,101.3,95.4,99.5,99.2z"/>
		<polygon fill="#00ADBB" points="89.7,102.5 89.7,106.4 90.6,106.3 		"/>
		<polygon fill="#00ADBB" points="91.1,102.1 92,106.3 92.7,106.3 		"/>
		<polygon fill="#00ADBB" points="88.5,106.6 87.8,102.4 87.2,102.3 86.7,104.6 87.8,106.7 		"/>
		<polygon fill="#00ADBB" points="93.1,102.5 94.3,105.9 95.5,105.3 95.5,104.6 93.9,102.8 		"/>
		<polygon fill="#00ADBB" points="85.2,106.2 86,104.9 85.5,101.5 84.1,100.8 82.5,105.1 84.5,103.8 		"/>
		<polygon fill="#00ADBB" points="99,87.6 99.1,85.7 95,82.3 97.6,86.6 99.4,88.4 		"/>
		<polygon fill="#00ADBB" points="88.1,97.7 80.4,95 74.8,95.2 84.4,98.6 86.6,98.8 		"/>
		<path fill="#00ADBB" d="M101.5,66.2l1.3-4.7c0,0,0.1-0.2,0.2-0.4l-0.5,0.2l-2.8,4.3L99.4,68c0,1.1,0.4,3.5,0.4,3.5l0.2,0.4
			l0.8-4.9L101.5,66.2z"/>
		<polygon fill="#00ADBB" points="105,65.7 105.4,69.5 107.1,65.4 110.2,60 111.9,57.9 109.8,59.6 107.3,62.5 106,62.6 105.8,62.9 
					"/>
		<path fill="#00ADBB" d="M101.5,66.2l4.2-4.7l2-0.9l0,0l0.6-0.4c-0.8-0.4-2.7-0.1-2.7-0.1l-2.6,0.9c-0.2,0.2-0.2,0.4-0.2,0.4
			L101.5,66.2z"/>
		<path fill="#00ADBB" d="M110,57.5c0.4-0.7,0.4-1.5,0.4-1.5s0.2-0.2,0.6-0.5l-0.7,0.3l-1.4,2.3l-0.1,1.3l0,0
			C108.8,59.4,109.7,58.2,110,57.5z"/>
		<path fill="#00ADBB" d="M111.2,57.7l1.9-2.2l0.9-0.3l0,0l0,0l0.1,0l0.1-0.2c0.1,0,0.2,0,0.4,0l0.1,0c0,0-1.4-0.2-2.3-0.1l-1.3,0.6
			c-0.3,0.3-0.6,0.5-0.6,0.5s0,0.8-0.4,1.5s-1.2,1.9-1.2,1.9l0,0l0,0.1L111.2,57.7z"/>
		<path fill="#00ADBB" d="M135.9,74.1c-0.2-1.2-2-3.4-2-3.4l-2.4-2.7c0,0,0.1,1.7-0.6,2.3l-2.7-1.4l-6.1-5.6l-2.6-5.7
			c0,0-2.2-2.3-4.9-2.7l-0.5,0.1l0,0.1l0.4,0.5l-3.6,5.1l-0.5,3.1l2.4,3.2l9.7,8.6l4,1.1L131,75l2.2-1l-0.2-1.2l0.9,0.8l0-2l0.8,2
			l0.8-0.1l0.6,3.2C136,76.3,136,75.1,135.9,74.1z"/>
		<path fill="#00ADBB" d="M114.2,55l-0.1,0.2l0.5-0.1C114.4,55,114.3,55,114.2,55z"/>
		<path fill="#00ADBB" d="M126.9,80.7l-4.9,5.6l0.5,0.4l0.8-0.6l3.9-0.3l0-1.6l3.7-4.5c-1.3-0.1-2.8-0.1-3.6-0.2L126.9,80.7z"/>
		<polygon fill="#00ADBB" points="119,94.7 120.3,94.7 124.2,87.9 123.1,87.9 		"/>
		<polygon fill="#00ADBB" points="105.2,101.1 105.4,103.6 104,105 105.3,105.1 106,104.3 107.3,101.3 110,100.6 107.8,98.2 		"/>
		<polygon fill="#00ADBB" points="103.5,103.8 103,104.4 103.2,104.9 104,105 		"/>
		<path fill="#2F1A45" d="M88.3,40.2L88.3,40.2c-0.1,0-0.1,0-0.2,0l0,0C88.2,40.2,88.2,40.2,88.3,40.2z"/>
		<path fill="#2F1A45" d="M14.5,105.5l-2.8-3.9l-4.2,0c0,0-0.4-0.5-0.7-1l0,0l1.8,2.8l4.5,3.4l4.6,2.8l8.5,1.5L32,110l-1.1-1.9
			L14.5,105.5z"/>
		<polygon fill="#2F1A45" points="14.3,91.4 13.4,91.7 12.7,92.4 13.5,91.8 		"/>
		<polygon fill="#2F1A45" points="35.9,107.7 40.3,107.3 36.4,104.6 36.3,97.8 37.1,97.9 36.5,95.8 36.7,94 36.4,95.3 29.5,99.8 
			18.2,96.2 16.8,94.1 12.2,101.6 11.7,101.6 14.5,105.5 30.9,108.2 32,110 36.1,109.2 		"/>
		<polygon fill="#2F1A45" points="40.7,107.2 41.7,107.1 41.6,107 		"/>
		<polygon fill="#2F1A45" points="41.7,107.1 42.1,108 42.6,107.9 		"/>
		<polygon fill="#2F1A45" points="29.5,95.4 23.7,94.5 19,93.5 19.7,90 14.3,91.4 13.5,91.8 18.1,92 16.8,94.1 18.2,96.2 29.5,99.8 
			36.4,95.3 36.7,94 36.7,93.8 		"/>
		<path fill="#2F1A45" d="M11.7,101.6l-1.6-2.3l-3.3,1.4c0.3,0.5,0.7,1,0.7,1L11.7,101.6z"/>
		<polygon fill="#2F1A45" points="13.6,92.9 13.5,91.8 12.7,92.4 8.5,96.3 13.2,93.9 15.6,93.7 13.2,95.9 10.4,99.2 10.2,99.3 
			11.7,101.6 12.2,101.6 16.8,94.1 16.3,93.2 		"/>
		<polygon fill="#2F1A45" points="13.5,91.8 13.6,92.9 16.3,93.2 16.8,94.1 18.1,92 		"/>
		<polygon fill="#2F1A45" points="41.6,107 41.2,106.1 38.6,103.7 37.1,97.9 36.3,97.8 36.4,104.6 40.3,107.3 40.7,107.2 		"/>
		<polygon fill="#2F1A45" points="42.9,106.6 42,106.8 43,107.8 42.6,107.9 43.4,108.6 44.8,108.2 44.7,108.1 43.9,108.2 		"/>
		<path fill="#2F1A45" d="M42.9,106.6l-0.4-0.6l-2.1-3.6L39.3,95l0.3-0.5l-0.9-4.8c0,0-0.2,5.9,0.5,8.8l0.7,4.7l1.2,2.8l0.8,0.8
			L42.9,106.6z"/>
		<polygon fill="#2F1A45" points="43,107.8 42,106.8 41.6,107 41.7,107.1 42.6,107.9 		"/>
		<polygon fill="#2F1A45" points="41.2,106.1 41.6,107 42,106.8 		"/>
		<polygon fill="#2F1A45" points="51,104.2 43.6,106.4 44.7,108.1 48.9,107.9 54.4,106.3 51,105.1 		"/>
		<polygon fill="#2F1A45" points="51.2,100.6 51.1,100.6 51.2,101 		"/>
		<polygon fill="#2F1A45" points="49.9,92.1 49.9,92.4 50.4,95.7 50.5,94.3 51.1,94.1 50.4,91.2 50,91.3 50,92 		"/>
		<polygon fill="#2F1A45" points="43.6,106.4 51,104.2 51.2,101 51.1,100.6 50.1,99.8 50.4,95.7 49.9,92.4 49.9,92.1 49.1,92.5 
			49.1,91.5 42.1,93 41.2,90.3 41,87.3 40,90.3 40.5,93.4 39.7,94.5 41.2,102.7 		"/>
		<polygon fill="#2F1A45" points="50.4,95.7 51.1,100.6 51.2,100.6 51.4,97.7 51.8,97.5 51.1,94.1 50.5,94.3 		"/>
		<polygon fill="#2F1A45" points="51.1,100.6 50.4,95.7 50.1,99.8 		"/>
		<polygon fill="#2F1A45" points="42.9,106.6 43.9,108.2 44.7,108.1 43.6,106.4 		"/>
		<polygon fill="#2F1A45" points="40.4,102.4 42.5,106 42.9,106.6 43.6,106.4 41.2,102.7 39.7,94.5 39.3,95 		"/>
		<polygon fill="#2F1A45" points="49.8,91.3 50,91.3 49.9,89.1 50.4,85.7 50.3,85.7 49.5,89.3 		"/>
		<polygon fill="#2F1A45" points="49.1,91.5 49.8,91.3 49.5,89.3 50.3,85.7 48.9,89.4 		"/>
		<polygon fill="#2F1A45" points="49.9,92.1 50,92 50,91.3 49.8,91.3 		"/>
		<polygon fill="#2F1A45" points="49.9,92.1 49.8,91.3 49.1,91.5 49.1,92.5 		"/>
		<polygon fill="#2F1A45" points="37.8,87.8 37.9,87.8 37.8,87.8 		"/>
		<path fill="#2F1A45" d="M44.8,83.5l-0.3,1.2l3.3-1l6.2-0.8l0.4,0.7l6.1-1.5c-0.1,0-0.1,0-0.2-0.1l-0.7,0.2L53,79.5l0-6.9l-3.7,1.5
			l-5.5-1l0.7-0.6l-0.9,0c-0.4,1.3-1.3,1.9-1.3,1.9l0.8,4.2c-0.4,3.6-1.7,5.5-1.7,5.5l-2,1.6l-0.4,0.4l0.2,0.2l-1.2,1.1l2.2-1.4
			l0.2-0.6L44.8,83.5z"/>
		<path fill="#2F1A45" d="M49.2,74.1l3.7-1.5l0,6.9l6.6,2.7l0.7-0.2c-4-1.5-5.7-4.4-5.7-4.4l-0.3-8.6l-3.9,3.5l-5.8,0.2l-0.7,0.6
			L49.2,74.1z"/>
		<polygon fill="#2F1A45" points="39.1,86.3 37.8,87.8 37.9,87.8 38.1,87.6 39.3,86.5 		"/>
		<polygon fill="#2F1A45" points="44.5,84.6 44.8,83.5 40.5,85.6 40.3,86.2 41.2,85.6 		"/>
		<path fill="#2F1A45" d="M29.6,64.8l2.8-6.2l5.1-2.5l5.1-1.1l0.6,0.1l-0.8-0.3l-8.3,1.5l-4.5,3.3c-1.8,2.6-3.5,7.3-3.5,7.3l0.4,7.5
			l2.9-0.5l4.2,0.4c-1.7-0.4-3.1-0.6-3.1-0.6L29.6,64.8z"/>
		<path fill="#2F1A45" d="M31.8,61.2c0.9-1.6,4.7-4.4,4.7-4.4l8.3-1.2l-1.7-0.5L42.6,55l-5.1,1.1l-5.1,2.5l-2.8,6.2l0.9,9
			c0,0,1.4,0.1,3.1,0.6l0.1,0C31.3,69.4,31.8,61.2,31.8,61.2z"/>
		<path fill="#2F1A45" d="M25.1,84.3l0-4.6l2.6-3.7l1.5-0.4c0,0,0,0,0,0L25,76.1l-3.8,2.2l-3.7,4.3l2.9-1l2.1,1.7l0,1.7l-3.5,0.9
			l-4.1,3.8l5.6-3.2l4.3,0.3l4.2,0.8l0,0c-0.6-0.2-1-0.3-1-0.3L25.1,84.3z"/>
		<path fill="#2F1A45" d="M26.5,79.1c0.7-1,2.5-3.4,2.6-3.5L27.6,76l-2.6,3.7l0,4.6l2.8,3c0,0,0.4,0.1,1,0.3l-2.2-1.7
			C25.7,83.4,26.5,79.1,26.5,79.1z"/>
		<path fill="#2F1A45" d="M83.2,92.6l-4.4,1l10.4,1.6l0.6-2.2l5.6,1l0,0c-2-1.6-6-2.9-7.3-3.3l0,0.2L83.2,92.6z"/>
		<polygon fill="#2F1A45" points="80.4,99.4 76.3,98.3 72.6,94.9 66.9,96.1 55.3,103.3 56.8,105.6 54.4,106.3 56.1,106.9 
			64.1,105.8 70.6,101.4 75.1,100.6 79.4,101.5 79,101.1 		"/>
		<path fill="#2F1A45" d="M55.3,103.3l11.6-7.2l5.6-1.2l0,0l4.2-1.7l2.1,0.3l4.4-1l4.9-1.7l0-0.2c-0.3-0.1-0.4-0.1-0.4-0.1
			c-2.2,0.4-5.8-0.1-5.8-0.1l-3.8-1l-0.5-2.4l0.5-1.5l-1.1,1l-0.6,2.9L76,86.7l0.1-2.1l-1.3,2.2l-0.1,2.4l-1-1.6l-3.8,0l-8.2,2.6
			l2,1.8l3.1-0.5l5.4,0.5l0.7,1l-7.7,0.5l-6.6,2.2l-1.3-6.2l-0.6,0.6L57,96l-0.9-4.4l-0.3-3.3l-2.5,0.5l0.3,3.6l1.2,4.1l-2.9,1
			l0.3,1.1L55.3,103.3z"/>
		<polygon fill="#2F1A45" points="80.4,99.4 81.1,98.4 84.4,98.6 74.8,95.2 80.4,95 88.1,97.7 88.6,97.3 89.2,95.1 78.8,93.5 
			72.6,94.9 76.3,98.3 		"/>
		<polygon fill="#2F1A45" points="76.7,93.2 72.5,94.9 72.6,94.9 78.8,93.5 		"/>
		<polygon fill="#2F1A45" points="51.6,104 51,104.2 51,105.1 54.4,106.3 56.8,105.6 55.3,103.3 55,103.5 51.2,100.6 51.2,101 		"/>
		<polygon fill="#2F1A45" points="51.2,101 51,104.2 51.6,104 		"/>
		<polygon fill="#2F1A45" points="55.3,103.3 52.1,98.6 51.8,97.5 51.4,97.7 51.2,100.6 55,103.5 		"/>
		<polygon fill="#2F1A45" points="81.6,103.5 83.1,100.1 82.7,100 80.2,101.7 79.4,101.5 80.4,102.6 81.1,102.7 		"/>
		<path fill="#2F1A45" d="M90.2,93.8l-1.4,4.1l-0.1,0l-0.5,2.5l-1.7-0.1l3.2,0.6l7.4-1l0.8-0.3l0.1-0.3l-0.9-2.9l-1.1-3.3L95.3,94
			c0.1,0.1,0.3,0.2,0.4,0.4L90.2,93.8z"/>
		<polygon fill="#2F1A45" points="89.7,100.9 86.5,100.3 83.5,100.2 83.1,100.1 81.6,103.5 82.5,105.1 84.1,100.8 85.5,101.5 
			86,104.9 86.6,104.2 86.7,104.6 87.2,102.3 87.8,102.4 88.5,106.6 89.7,106.4 89.7,102.5 90.6,106.3 90.9,106.2 92,106.3 
			91.1,102.1 92.7,106.3 93.2,106.3 94.3,105.9 93.1,102.5 93.9,102.8 95.5,104.6 95.5,104.2 96.9,103.3 98,99.7 97.2,99.9 		"/>
		<polygon fill="#2F1A45" points="86.5,100.3 88.2,100.4 88.7,97.9 88.1,97.7 86.6,98.8 84.4,98.6 84.6,98.7 82.7,100 83.1,100.1 
			83.2,99.8 		"/>
		<polygon fill="#2F1A45" points="86.5,100.3 83.2,99.8 83.1,100.1 83.5,100.2 		"/>
		<path fill="#2F1A45" d="M88.7,97.9L88.7,97.9l1.4-4.1l5.6,0.5c-0.1-0.1-0.3-0.2-0.4-0.4l0,0l-5.6-1l-0.6,2.2l0.2,0L88.7,97.9z"/>
		<polygon fill="#2F1A45" points="82.7,100 80.4,99.4 79,101.1 79.4,101.5 80.2,101.7 		"/>
		<polygon fill="#2F1A45" points="84.4,98.6 81.1,98.4 80.4,99.4 82.7,100 84.6,98.7 		"/>
		<polygon fill="#2F1A45" points="88.1,97.7 88.7,97.9 89.3,95.2 89.2,95.1 88.6,97.3 		"/>
		<path fill="#2F1A45" d="M101.3,73.3l-0.7,0.4l-0.7-1.8l0,0.1l1.2,3.5c0.4,0.2,0.7,0.3,0.7,0.3L101.3,73.3z"/>
		<polygon fill="#2F1A45" points="105.7,62.6 106,62.6 107.7,60.7 106.4,61.6 		"/>
		<path fill="#2F1A45" d="M104,76.6l3.6,2l0,0l-1.4-1.7l-0.4-3.8l1.1,2.5l-0.3-1.7l2.5,4.5l0.6,0.2l0.6,1.7l7.2,4.9l3.8-1.6l3.8-3.1
			l1.4-1.5l0.9-0.6l-0.3,0.9l4.1-0.4l-0.6,0.7c0.8,0,1.6,0.1,2.1,0.1l1-1.1l0.1,1.2c0.1-0.3,1.9-3,1.9-3l0-0.1c0,0.1,0,0.1,0,0.1
			l-8.4,0.9l-4.5,0.2l-7.2-4.8l-6.3-7.9l0.7-3.8l-1.7,7.7l-3.1,1.9l-4,2.3l0.5,2.4c0,0-0.3-0.1-0.7-0.3l0,0L104,76.6z"/>
		<polygon fill="#2F1A45" points="114.1,55.2 114,55.2 114,55.2 111.9,57.9 112.8,57.2 110.2,61.4 111.7,59.1 		"/>
		<polygon fill="#2F1A45" points="101.3,73.3 100.6,69.6 101.5,66.2 100.7,67.1 99.9,71.9 100.6,73.7 		"/>
		<polygon fill="#2F1A45" points="111.9,57.9 110.2,60 107.1,65.4 105.4,69.5 105,65.7 105.8,62.9 106,62.6 105.7,62.6 106.4,61.6 
			107.7,60.7 107.7,60.7 105.7,61.5 101.5,66.2 100.6,69.6 101.3,73.3 105.4,71.1 108.4,69.1 110.2,61.4 112.8,57.2 		"/>
		<polygon fill="#2F1A45" points="114,55.2 114,55.2 114,55.2 		"/>
		<path fill="#2F1A45" d="M134.5,73.6l-0.8-2l0,2l-0.9-0.8l0.2,1.2l-2.2,1l-4.5,1.8l-4-1.1l-9.7-8.6l-2.4-3.2l0.5-3.1l3.6-5.1
			l-0.4-0.5l-2.4,3.9l-1.5,2.3l-0.7,3.8l6.3,7.9l7.2,4.8l4.5-0.2l8.4-0.9c0,0,0-0.1,0-0.1l-0.6-3.2L134.5,73.6z"/>
		<path fill="#2F1A45" d="M130.9,79.7l0.6-0.7l-4.1,0.4l-0.1,0.2C128.1,79.6,129.5,79.6,130.9,79.7z"/>
		<polygon fill="#2F1A45" points="110.4,91 110.4,91 111.5,92.2 114.6,94.4 118.7,95.2 118.7,95.2 117.4,94.9 118.1,94.7 
			117.9,94.6 120,88.7 121.9,85.3 126.3,79.7 125.3,80.6 121.8,84.4 117.4,85.8 110.9,81.5 110.5,80.4 110.2,80.1 109.2,78.5 
			108.2,78.1 107.1,75.6 107.7,78.6 109.4,80.8 111.3,85.8 111.3,85.9 111.4,86.1 		"/>
		<path fill="#2F1A45" d="M119,94.7l4.1-6.7l-0.6,0l-0.7-0.7l0.7-0.5l-0.5-0.4l4.9-5.6l0.3-1.1c-0.4,0-0.7,0-0.7,0l-0.3,0.2
			l-4.5,5.6l-1.9,3.3l-2.1,6l0.2,0l0.1,0L119,94.7z"/>
		<polygon fill="#2F1A45" points="126.6,79.4 127.3,79.3 127.6,78.4 126.7,79 125.3,80.6 126.3,79.7 		"/>
		<polygon fill="#2F1A45" points="105.9,73.1 106.3,76.9 107.7,78.6 107.1,75.6 		"/>
		<polygon fill="#2F1A45" points="110.5,80.4 109.9,78.7 109.2,78.5 110.2,80.1 		"/>
		<path fill="#2F1A45" d="M126.3,79.7l0.3-0.2c0,0,0.3,0,0.7,0l0.1-0.2l-0.7,0.1L126.3,79.7z"/>
		<polygon fill="#2F1A45" points="103,102 102.8,101.7 103.3,101.2 101,103.5 101.4,103.5 		"/>
		<polygon fill="#2F1A45" points="101,87.2 106.5,91.8 103.7,100.7 105,99.1 105.1,100.1 107.3,96.8 108.6,91.2 110.1,91 
			111.3,85.9 108.6,81 103.6,77.1 98.5,75.3 98.6,75.4 103.6,77.4 		"/>
		<polygon fill="#2F1A45" points="103.1,103.4 103.3,103.2 103,102 101.4,103.5 		"/>
		<polygon fill="#2F1A45" points="102.7,103.8 103,103.6 102.6,103.9 		"/>
		<polygon fill="#2F1A45" points="99.1,85.7 101,87.2 103.6,77.4 98.6,75.4 99.4,78.7 		"/>
		<path fill="#2F1A45" d="M99.4,88.4l3.1,6.6c0,0,0.2,2.1-2.3,6.2l-3.4,2.2l0,0.1l-1.3,1.2l-0.1-0.1l0,0.7l4.4-1.9l1.1,0l2.3-2.3
			l0.4-0.5l2.9-8.9l-5.5-4.6l-0.6,2.2L99.4,88.4z"/>
		<polygon fill="#2F1A45" points="99.4,88.4 100.4,89.4 101,87.2 99.1,85.7 99,87.6 		"/>
		<polygon fill="#2F1A45" points="107.8,98.2 107.2,97.5 107.3,96.8 105.1,100.1 105.2,101.1 		"/>
		<polygon fill="#2F1A45" points="95.5,104.6 95.6,104.7 96.9,103.4 96.9,103.3 95.5,104.2 		"/>
		<polygon fill="#2F1A45" points="110.4,91 111.4,86.1 111.3,85.9 110.1,91 		"/>
		<polygon fill="#2F1A45" points="128.7,86.7 128.4,87.5 128.2,87.8 128.4,87.8 131.6,84.6 134.1,80.7 134.1,80.6 132.2,83.4 		"/>
		<path fill="#2F1A45" d="M134,79.9c0,0-0.4-0.1-1.1-0.1l-5,5.9l-0.8,0.1l0,0.5l-2.5,0.9l-0.4,0.8l1.4,0l0.2-0.3l2.6-0.7l-0.8,1
			l0.5,0l0.2-0.3l0.3-0.8l3.5-3.3l1.9-2.8L134,79.9C134,79.9,134,79.9,134,79.9z"/>
		<polygon fill="#2F1A45" points="122.5,86.7 123.4,87.5 123.1,87.9 124.2,87.9 124.7,87.1 127.2,86.3 127.2,85.8 123.3,86.1 		"/>
		<path fill="#2F1A45" d="M134.1,79.9l-0.1-1.2l-1,1.1C133.7,79.8,134.1,79.9,134.1,79.9C134,79.9,134,79.9,134.1,79.9z"/>
		<polygon fill="#2F1A45" points="122.5,87.9 123.1,87.9 123.4,87.5 122.5,86.7 121.8,87.2 		"/>
		<polygon fill="#2F1A45" points="120.3,94.7 120.1,95.1 118.9,94.9 118.7,95.2 121.5,96 127.7,87.8 125.6,87.8 121.1,94.7 		"/>
		<polygon fill="#2F1A45" points="120.1,95.1 120.3,94.7 119,94.7 118.9,94.9 		"/>
		<polygon fill="#2F1A45" points="118.1,94.7 117.4,94.9 118.7,95.2 118.9,94.9 		"/>
		<polygon fill="#2F1A45" points="119,94.7 118.2,94.6 118.1,94.7 118.9,94.9 		"/>
		<polygon fill="#2F1A45" points="128.4,86.8 125.8,87.5 125.6,87.8 127.7,87.8 		"/>
		<polygon fill="#2F1A45" points="50.9,49.4 49.1,50 51.6,49.5 		"/>
		<path fill="#2F1A45" d="M88.9,54l-1.4,0.8c0,0-0.1,0.3-0.2,0.7l4.8-1.2l2.4-0.1l1-0.5l1.7-1.4l0,0c0,0-0.1,0.1-0.1,0.1
			C96.2,52.8,88.9,54,88.9,54z"/>
		<polygon fill="#2F1A45" points="62.2,46.1 62.8,44.3 62.7,43.9 62,45.3 58.3,47.8 56.3,48.4 59.8,47.6 		"/>
		<path fill="#2F1A45" d="M48.1,50.8l3.3-0.7l1.7,0.2c0,0,3.8-0.8,5.7-1l4,2c0,0,2.1,3.9,2.1,7.4l3,4.1l1.6,4c0,0,3.1,4.9,3.8,9.3
			l5.1-1.2l-0.7,0.1l1.4-0.6l0.7-1.8l1.4-5.5l3.1-6.3l1.7-4.7l1.4-0.4c0.1-0.4,0.2-0.7,0.2-0.7l1.4-0.8c0,0,7.3-1.2,8.2-1.7
			c0,0,0.1-0.1,0.1-0.1l0.5-1.5l-1.5,0.1L95,50.5l-1.2,0.3l-1.2,0.4l0.2,0.2l-7,3L81.3,52l-0.1-0.4c-2.2-0.9-5.8-2.7-7.2-4.4
			c-0.4-0.4-0.6-0.9-0.9-1.3l-2.7-2.5L70,40.6l-1.8-1.8l-0.1-0.4l-0.2,1.1l-0.9-0.4l-0.8,0.4c0,0-1.5,3.7-1.6,5.8l0.3,3.1L63.3,47
			l-0.5-2.7l-0.7,1.8l-2.4,1.5l-3.5,0.8l-3.9,1.1l-0.9-0.1L49.1,50l-1.4,0.5L48.1,50.8z"/>
		<path fill="#2F1A45" d="M68.8,35.1l0.5,2.2c0,0,0.1,0.2,0.3,0.4l-0.3-2L68.8,35.1z"/>
		<path fill="#2F1A45" d="M87.8,52.3l-2.7-1.5l-0.5-0.8l-2.2-0.5l0.4,1l1.1,1.3l2.9,1.2l-0.7,0.1l-3.5-1.7l0.2,0.7
			c0,0-0.7-0.3-1.8-0.7l0.1,0.4l4.4,2.5l7-3l-0.2-0.2l-2,0.7L87.8,52.3z"/>
		<polygon fill="#2F1A45" points="78.3,74.8 86.5,73.6 86.5,73.6 85.5,73.6 83.7,70.3 82.3,66.9 83,66 83,66 81.5,67.6 79.6,72.4 
			79.1,74.6 		"/>
		<polygon fill="#2F1A45" points="83.7,70.3 85.5,73.6 86.5,73.6 85.8,70.4 83,66 82.3,66.9 		"/>
		<polygon fill="#2F1A45" points="77.6,74.9 78.3,74.8 79.1,74.6 79.6,72.4 79,74.3 		"/>
		<polygon fill="#2F1A45" points="82.6,8.7 83.2,8.3 82.8,8.5 		"/>
		<path fill="#2F1A45" d="M80.9,50.7l-2.8-8.5l1.2-9.8l2.2-1.6l0.1-0.6l-0.3,0.1l-1.3-1.8l0.6-5.6l0.7-0.1l0-0.2l-1.6-0.1l-1.3-3.8
			l0-4.8l2.1-3.5l-2,1.1l0,1.8c0,0-3.7,2.7-5.8,4.2L71,22.9l0.2,0l-0.4,0.5l-0.1,0.2l-0.1,0L70.3,24l0.1,0.8l0.7-0.3l-0.7,0.8
			l0.1,0.8l1.1-0.7l0,6.1l-0.7,0.3l0.9,6.1l0,0.5c0.3-0.1,0.4-0.1,0.4-0.1l0.2,2.4l-0.8,0l0,0.8c0,0,0.2,2.1,1.5,4.3l2.4,2.2
			L80.9,50.7z"/>
		<path fill="#2F1A45" d="M81.4,31.4l0.1-0.6l-2.2,1.6l-1.2,9.8l2.8,8.5l1.8,0.9l-2.1-7.2c0,0-0.4-1.2-0.1-1.6l1.2-2l0.9,0.4l1-2.5
			c0,0-0.1-1.5-1.4-3.5l-1.4-1.4l-0.2-0.6c0,0,0.2-0.6,1.5-1.7L82,31.4L81.4,31.4z"/>
		<path fill="#2F1A45" d="M82,31.4l0.1,0.1c0,0,0.1-0.1,0.1-0.1L82,31.4z"/>
		<path fill="#2F1A45" d="M81.7,21.6c0.1-0.5,0.4-1.3,0.3-2L80.3,18c0,0,0-0.2,0-0.5L80,17.3l0.1-4.2l0.5,1.9c0.2-1.1,0.5-2.4,1-3.7
			l-0.2-0.1l0.6-1l0.1,0c0.3-0.7,0.8-1.3,1.2-1.9l-0.2,0.1l-0.5,0.3L81.5,10l-0.8,0.5l-2.1,3.5l0,4.8l1.3,3.8l1.6,0.1l0.1-0.9
			L81.7,21.6z"/>
		<path fill="#2F1A45" d="M75.5,48l-2.4-2.2c0.3,0.4,0.6,0.9,0.9,1.3c1.4,1.7,5,3.5,7.2,4.4l-0.3-0.9L75.5,48z"/>
		<path fill="#2F1A45" d="M82.7,51.5l-1.8-0.9l0.3,0.9c1,0.4,1.8,0.7,1.8,0.7L82.7,51.5z"/>
		<polygon fill="#2F1A45" points="66.3,31.1 66.2,30.9 66.2,31.3 65.9,31.6 65.7,32.5 66.3,34.1 66.4,34.1 67.2,34.9 67.1,34 
			67.3,33.5 67.1,32.3 67.7,30.7 66.7,28.9 67.1,30.3 		"/>
		<polygon fill="#2F1A45" points="67,34.9 67.3,35.1 67.3,35 		"/>
		<polygon fill="#2F1A45" points="66.6,28.7 66.7,28.9 66.5,28.4 63.7,26.9 62.5,29.2 62.7,31.2 63.2,31.8 63.5,29.6 64.8,28.7 
			65.8,30.4 66.2,30 		"/>
		<polygon fill="#2F1A45" points="66.2,30 66.2,30 66.2,30.9 66.3,31.1 67.1,30.3 66.7,28.9 66.6,28.7 		"/>
		<polygon fill="#2F1A45" points="66.3,34.1 65.7,33.8 65,32.6 65.9,31.6 66,30.7 65.8,30.4 65.4,30.8 64.9,30 64.3,30.6 63.9,32.7 
			64.8,33.8 64.7,34.4 65.1,34.9 65.4,34.4 67,34.9 66.5,34.6 		"/>
		<polygon fill="#2F1A45" points="66.2,30.9 66,30.7 65.9,31.6 66.2,31.3 		"/>
		<polygon fill="#2F1A45" points="67.2,34.9 66.4,34.1 66.3,34.1 66.5,34.6 67,34.9 67.3,35 		"/>
		<polygon fill="#2F1A45" points="66.1,30.3 66.2,30 65.8,30.4 66,30.7 		"/>
		<polygon fill="#2F1A45" points="66.2,30 66.2,30 66.1,30.3 66,30.7 66.2,30.9 		"/>
		<polygon fill="#2F1A45" points="64.8,37 63.9,36.4 63.5,35.5 63.2,35.1 63.1,34.5 62.9,34.2 62.9,33.8 62.6,33.5 62.8,34.6 
			63.5,36.5 64.2,37.3 65.1,38 65.2,37.6 		"/>
		<polygon fill="#2F1A45" points="63.2,35.1 63.5,35.5 63.1,34.5 		"/>
		<polygon fill="#2F1A45" points="67.5,38.2 67.8,37.3 67.6,36.7 65.9,37.9 64.8,37 65.2,37.6 65.1,38 66.2,38.9 		"/>
		<polygon fill="#2F1A45" points="63.1,34.5 63,33.8 62.9,33.8 62.9,34.2 		"/>
		<polygon fill="#2F1A45" points="63.9,36.4 64.8,37 63.5,35.5 		"/>
		<polygon fill="#2F1A45" points="67.4,35.8 66.4,36.7 65.2,36.7 63.4,34.8 63.1,34 63,33.8 63.1,34.5 63.5,35.5 64.8,37 65.9,37.9 
			67.6,36.7 67.5,36.4 		"/>
		<path fill="#2F1A45" d="M87.6,44L87,43.5l0,0l-0.1,0.2l0.5,0.5l-0.2,1.4l0.6-1.2l2.9,0.2l0,0c-0.4,0-0.9-0.1-1.3-0.1L87.6,44z"/>
		<path fill="#2F1A45" d="M97.3,42.9l-0.9-1.4l-0.6-0.5l0.6,0.2l-0.6-0.4c-0.3,0.3-1.2,0.6-1.2,0.6l1-0.1c0.6,0.4,0.8,0.9,0.8,0.9
			l-1.9,0.2l-1.5-0.5l-1.2,0l1.1-0.9L91,41.7c-0.9,0.3-2.2,1.1-2.2,1.1L88,42.9l-0.2,0.5l2.5-0.4l0.5,0.3l2.3-0.2l4.4,0.6l0.8,0.5
			l0-0.1L97.3,42.9z"/>
		<polygon fill="#2F1A45" points="97.3,42.1 96.6,41.3 96.3,41.1 95.8,40.9 96.4,41.4 97.3,42.9 98.2,44.1 98.2,44.2 98.4,44.3 		
			"/>
		<path fill="#2F1A45" d="M87.8,43.5l0.2-0.5L87.5,43L87,43.5l0.5,0.6l1.8,0.4c0.4,0.1,0.8,0.1,1.3,0.1l-1.2-0.9l0.9-0.3l0.4,0
			l-0.5-0.3L87.8,43.5z"/>
		<polygon fill="#2F1A45" points="87,43.5 87,43.5 87,43.4 86.5,44 86.4,43.2 86.3,43.3 86.4,44.3 86.9,43.6 86.9,43.6 		"/>
		<polygon fill="#2F1A45" points="87.2,41.9 87.2,42.2 87.8,41.9 88,41.1 87.5,41.8 		"/>
		<polygon fill="#2F1A45" points="87,43.4 87,43.5 87.9,42.5 88.4,42.1 88.6,40.5 88,41.1 87.8,41.9 87.2,42.2 87.2,41.9 87,42 
			86.4,43.2 86.5,44 		"/>
		<polygon fill="#2F1A45" points="86.9,43.6 86.9,43.6 87,43.5 		"/>
		<polygon fill="#2F1A45" points="96.5,40.2 95.6,40.3 95,38.5 94.1,38.7 92.6,38.2 92.5,38.2 92.8,38.7 93.8,40.1 94.2,40.5 
			93.7,40.6 94.4,40.8 94.9,40.6 96.3,40.5 97,41.2 97.4,41 		"/>
		<polygon fill="#2F1A45" points="95.8,39.5 95.6,40.1 95.2,38.4 95.1,38.5 95,38.5 95.6,40.3 96.5,40.2 97.4,41 97,41.2 97.5,41.7 
			98,42.7 97.8,41.2 97.3,40.2 97.3,39.4 96.8,38.7 96.8,40.1 96.3,38.1 95.7,38.2 		"/>
		<polygon fill="#2F1A45" points="93.8,40.1 92.8,38.7 92.5,38.2 92.4,38.1 92.4,38.1 91.2,38.9 89.4,39.8 88.8,40.2 88.6,41.3 
			88.7,42 89.3,41.5 90.4,40.1 91.3,39.7 89.7,41.6 91.3,40.9 93.2,40.5 93.7,40.6 94.2,40.5 		"/>
		<path fill="#2F1A45" d="M91.4,36.8l0.1-0.2l-1.6,0.4l-0.5-0.5c0,0,0-0.1,0.1-0.2l-0.2-0.1l-0.2-2c0,0,0,0,0.1-0.1
			c-0.2,0-0.3,0-0.5,0.1l1.4-1l0.2-3l0.2-0.8l-2.4,0.4l-0.2,0.1l0.8,2l-1.2,4.1l-0.7,1c0,0.4,0.1,0.7,0.1,1.2l0.1,1.7l0.2-0.4l0,1.1
			c0.4-0.5,0.8-1.1,1.3-1.6l2-0.6l1.6-1.2l0.4,1l1.8,0.4l0.6-0.1l0,0l0.4-0.1l0.4-0.3l0.2-0.1l0.2-0.2l-1.6,0.6l-0.8-0.1l-1.2-1.7
			l-0.3,0.4L91.4,36.8z"/>
		<path fill="#2F1A45" d="M86.5,41.1l-0.8,1.3L85.5,41l0-0.1l0.1,3l0.5,1.2l0-2.5c0,0,0.1-0.2,0.2-0.5l-0.1-0.4L86.5,41.1z"/>
		<path fill="#2F1A45" d="M91.6,36.4l0.1-0.1l-0.2,0C91.5,36.3,91.5,36.4,91.6,36.4z"/>
		<path fill="#2F1A45" d="M85.7,42.4l0.8-1.3l0.6-1.3L87,38.1c0-0.5,0-0.8-0.1-1.2L86.8,37l-0.3,2.4l-1.1,1.5l0,0l0,0.1L85.7,42.4z"
			/>
		<path fill="#2F1A45" d="M91.6,36.3l-0.1,0.1c0.1,0,0.1,0.1,0.2,0.1l-0.3,0.1l-0.1,0.2l0.8,0l0.3-0.4l-0.2-0.3L91.6,36.3z"/>
		<polygon fill="#2F1A45" points="90.6,29.1 90.4,30 90.2,33 91.5,32.5 92,32.6 91.8,32.7 92.4,32.8 91.7,32.1 90.7,32.6 90.9,31.3 
			91.7,31 93.2,32.1 93.3,30.8 92.4,28.4 92.4,28.8 		"/>
		<polygon fill="#2F1A45" points="95.2,38.4 95.4,38.2 95.3,38.2 95.3,38.2 94.9,38.3 94.9,38.3 95.2,38.3 		"/>
		<polygon fill="#2F1A45" points="92.4,38.1 92.5,38.1 92.1,37.1 90.5,38.3 92.1,37.9 		"/>
		<path fill="#2F1A45" d="M87.2,39.4l-0.2,0.4l0,0.3l-0.6,1l-0.3,0.6l0.1,0.4c0.2-0.4,0.5-1,1-1.6L87.2,39.4z"/>
		<polygon fill="#2F1A45" points="87.1,40.1 87.1,39.8 86.5,41.1 		"/>
		<polygon fill="#2F1A45" points="92.6,38.2 94.1,38.7 95,38.5 94.9,38.3 94.3,38.5 92.5,38.1 92.5,38.2 		"/>
		<polygon fill="#2F1A45" points="95.1,38.5 95.2,38.4 95.2,38.3 94.9,38.3 95,38.5 		"/>
		<polygon fill="#2F1A45" points="92.5,38.2 92.5,38.1 92.4,38.1 		"/>
		<path fill="#2F1A45" d="M95.7,38.1L95.7,38.1L95.7,38.1l0.6-0.2L97,36l0.2-1.5c0,0,0,0.1,0.1,0.2l0-1.4l-0.5-0.6l0,0.2l-0.3-0.5
			l-0.1-0.1l0.6,1.3L97,35.3l-0.8,2.3l-0.4,0.1l-0.4,0.3L95.7,38.1z"/>
		<polygon fill="#2F1A45" points="96.9,32.9 96.6,32.6 96.9,33.1 		"/>
		<polygon fill="#2F1A45" points="95.7,38.2 95.7,38.1 95.5,38.1 95.4,38.2 		"/>
		<path fill="#2F1A45" d="M97,36l-0.7,1.8l-0.6,0.2l0.6-0.1l0,0.1l0.1,0l0.1-0.3l0.9,0.9l0.6,3.2l0.2-1.8l-0.2-1.2L97.4,36l0-1.2
			c-0.1-0.2-0.1-0.2-0.1-0.2L97,36z"/>
		<polygon fill="#2F1A45" points="95.7,38.1 95.7,38.1 95.7,38.1 		"/>
		<polygon fill="#2F1A45" points="96.3,38.1 96.3,38 95.7,38.1 95.7,38.1 95.7,38.2 		"/>
		<polygon fill="#2F1A45" points="95.3,38.2 95.5,38.1 95.9,37.8 95.7,37.9 		"/>
		<polygon fill="#2F1A45" points="95.4,38.2 95.5,38.1 95.3,38.2 95.3,38.2 		"/>
		<polygon fill="#2F1A45" points="83.2,30.8 84.5,30.7 82.5,30 82.5,29.9 82.1,30.1 82.2,30.3 82.2,30.3 		"/>
		<polygon fill="#2F1A45" points="90,28.1 88,28.7 87.9,28.6 85.1,30.1 85,30.4 84.6,30.6 85.3,30.6 86.2,30.7 87.9,29.7 87.8,29.4 
			90.7,28.5 91.7,24.7 91.5,23.1 91.4,24.8 91.1,25.1 91.3,25.1 		"/>
		<polygon fill="#2F1A45" points="82.2,30.3 82.2,30.3 82.2,31 83.2,30.8 		"/>
		<polygon fill="#2F1A45" points="84.5,30.7 83.2,30.8 84.2,31.3 84.7,31.3 85.9,30.9 86.2,30.7 85.3,30.6 84.6,30.6 84.6,30.7 		
			"/>
		<path fill="#2F1A45" d="M82.2,31l0,0.4c0,0,0,0,0,0l2,0l-0.9-0.5L82.2,31z"/>
		<polygon fill="#2F1A45" points="83.2,29.5 83.1,29.8 82.5,29.9 82.5,30 84.5,30.7 84.6,30.6 85,30.4 85.1,30.1 85,30.1 		"/>
		<polygon fill="#2F1A45" points="84.6,30.7 84.6,30.6 84.5,30.7 		"/>
		<polygon fill="#2F1A45" points="90.7,28.5 92.2,28.1 92.4,28.4 92.3,27.2 92.7,26 91.5,22.9 91.5,23.1 91.7,24.7 		"/>
		<polygon fill="#2F1A45" points="82.1,30.1 81.6,30.2 81.5,30.8 82.2,30.3 		"/>
		<polygon fill="#2F1A45" points="82,31.4 81.6,31.1 82.2,31 82.2,30.3 81.5,30.8 81.4,31.4 		"/>
		<path fill="#2F1A45" d="M82.2,31l-0.6,0.1l0.4,0.3l0.2,0c0,0,0,0,0,0L82.2,31z"/>
		<polygon fill="#2F1A45" points="90.6,29.1 90.7,28.5 87.8,29.4 87.9,29.7 88.1,29.6 		"/>
		<polygon fill="#2F1A45" points="92.4,28.8 92.4,28.4 92.2,28.1 90.7,28.5 90.6,29.1 		"/>
		<polygon fill="#2F1A45" points="88.3,27.3 88.2,27.3 88.3,27.4 		"/>
		<polygon fill="#2F1A45" points="82.9,28.5 83.7,28.5 82.8,28.2 83.6,26.5 85.7,26.6 85.4,26.9 86.1,26.7 85.3,24.8 81.7,23.9 
			82.1,29.1 82.7,29.3 		"/>
		<path fill="#2F1A45" d="M88.3,27.4l0.1,0.3l-0.3-0.2L88,27.5l-0.2,0.1c0,0.1,0,0.2,0,0.2l-1.4,0.7c-0.1,0-0.2-0.1-0.2-0.1l-0.1,0
			l-1.3,0l-0.5-0.2l-0.2,0.3l1.4,0.1l-0.1,0.2l2.3-0.5l0.2,0.2l1.4-0.7l1.2-2.3l0.5-0.4l-0.5,0l0,0.2L88.3,27.4z"/>
		<polygon fill="#2F1A45" points="83.7,28.5 82.9,28.5 82.7,29.3 83.2,29.5 83.5,29.1 85.1,29 85.4,28.9 85.5,28.7 84.1,28.6 
			84.1,28.7 		"/>
		<polygon fill="#2F1A45" points="84.4,27.4 85.1,27.2 85.1,27 85.4,26.9 85.7,26.6 83.6,26.5 82.8,28.2 83.7,28.5 84.1,28.6 
			84.3,28.3 83.9,28.1 		"/>
		<polygon fill="#2F1A45" points="84.1,28.7 84.1,28.6 83.7,28.5 		"/>
		<polygon fill="#2F1A45" points="82.1,29.1 81.7,23.9 81.4,23.8 81.4,22.8 80.7,22.9 80.1,28.5 81.4,30.3 81.6,30.2 81.8,29 		"/>
		<polygon fill="#2F1A45" points="82.7,29.3 82.1,29.1 82.1,30.1 82.5,29.9 		"/>
		<polygon fill="#2F1A45" points="89.4,27.9 87.9,28.6 88,28.7 90,28.1 91.3,25.1 91.1,25.1 90.5,25.5 		"/>
		<polygon fill="#2F1A45" points="83.1,29.8 83.2,29.5 82.7,29.3 82.5,29.9 		"/>
		<polygon fill="#2F1A45" points="82.1,29.1 81.8,29 81.6,30.2 82.1,30.1 		"/>
		<path fill="#2F1A45" d="M87.3,26.5l-1,0.2l0,0l-1.1,0.4l0,0l0,0.4c0,0,0.4,0.5,1,0.8l1.6-0.8c0-0.1,0-0.3,0-0.5l-0.1-0.2
			L87.3,26.5z M86.2,27.6c-0.3,0-0.5-0.3-0.5-0.3l0.1-0.3l0.5-0.1l0.2,0.3L86.2,27.6z"/>
		<polygon fill="#2F1A45" points="85.1,27.2 85.2,27.1 85.1,27.2 		"/>
		<polygon fill="#2F1A45" points="85.2,27.1 86.3,26.8 86.3,26.8 86.1,26.8 86.1,26.7 85.4,26.9 		"/>
		<path fill="#2F1A45" d="M86.4,28.5l1.4-0.7c0,0,0-0.1,0-0.2l-1.6,0.8C86.2,28.4,86.3,28.5,86.4,28.5z"/>
		<polygon fill="#2F1A45" points="85.1,27 85.1,27.2 85.2,27.1 85.4,26.9 		"/>
		<path fill="#2F1A45" d="M86.2,26.7l1-0.2l0.5,0.4c0,0.1,0,0.1,0,0.2l0.2,0.4l0,0l0.2-0.2l-0.3-0.8l0.3,0.5l0,0.3l2.2-2.2l0,0
			l0.1-1.1l-1.4-1l0.3,0.4l-0.9-0.5l-0.4-0.6l-1.5-0.5l0.3,0.4l-0.2,0.2l0.2,0.7l-1.3-1l-0.5,0.4L86.2,26.7z M88.1,25.2l-1-0.2
			l-0.8-0.8L88.1,25.2z"/>
		<polygon fill="#2F1A45" points="82.3,22.6 81.6,22.6 81.6,22.8 84.9,22.5 83.6,21.5 83.5,21.5 		"/>
		<path fill="#2F1A45" d="M81.6,22.6l0.7,0l1.2-1.1l0.1,0l-0.2-0.2l0.5-0.3l-0.7-0.5L82.1,21L82,21.5l-0.3,0.1
			c-0.1,0.3-0.1,0.4-0.1,0.4L81.6,22.6z"/>
		<polygon fill="#2F1A45" points="84.2,21.3 84.1,21.2 83.6,21.5 84.9,22.5 85.1,22.4 85.1,22.5 85.7,22.1 84.5,21.1 		"/>
		<polygon fill="#2F1A45" points="83.6,21.5 84.1,21.2 83.9,21 83.4,21.4 		"/>
		<polygon fill="#2F1A45" points="81.6,22.6 81.5,22.6 81.4,22.8 81.6,22.8 		"/>
		<path fill="#2F1A45" d="M81.6,22.1c0,0,0.1-0.2,0.1-0.4l-0.2,0.1l-0.1,0.9l0.1,0L81.6,22.1z"/>
		<polygon fill="#2F1A45" points="88.3,27.3 88.3,27.4 88.2,27.3 88,27.5 88,27.5 88.1,27.6 88.4,27.8 88.3,27.4 90.5,25.2 
			90.5,25.1 90.5,25.1 		"/>
		<polygon fill="#2F1A45" points="81.7,23.9 85.3,24.8 86.1,26.7 86.2,26.7 85.1,22.5 85,22.6 84.9,22.5 81.6,22.8 		"/>
		<polygon fill="#2F1A45" points="85.1,22.5 85.1,22.4 84.9,22.5 85,22.6 		"/>
		<polygon fill="#2F1A45" points="81.7,23.9 81.6,22.8 81.4,22.8 81.4,23.8 		"/>
		<path fill="#2F1A45" d="M87.3,26.5l0.5,0.4l0.1,0.2c0-0.1,0-0.1,0-0.2L87.3,26.5l-1,0.2l0,0.1L87.3,26.5z"/>
		<polygon fill="#2F1A45" points="86.1,26.8 86.3,26.8 86.2,26.7 86.1,26.7 		"/>
		<polygon fill="#2F1A45" points="90.8,23.5 91,24.1 91.1,23.5 90.6,22.1 		"/>
		<polygon fill="#2F1A45" points="88.6,21 89.2,22.3 90.2,23 89.8,22.2 		"/>
		<path fill="#2F1A45" d="M94.8,29.4l0-0.5l0-0.1l0,0l0.2-0.8l0.3-0.1l0-0.1l0,0l0.2-0.9l0.2,0l0.4-2.1l0.4-0.4l0.3-0.2l-1.3,0.4
			l-0.5-1.3l0,1.3l-1,1.6l0.6,0.6l0.3-0.3l0.1,0.6c-0.4,0.8-0.5,1.9-0.5,1.9l1.8,3.2l0-0.1l-0.2-0.3L94.8,29.4z"/>
		<polygon fill="#2F1A45" points="95,29.4 95,28.8 95,28.7 94.9,28.8 94.8,28.9 94.8,29.4 96.1,31.7 96.3,32 96.1,31.5 		"/>
		<polygon fill="#2F1A45" points="95.6,27.5 95.7,27.2 95.6,27.1 95.6,26.9 95.5,26.9 95.3,27.8 95.3,27.8 95.4,27.7 		"/>
		<polygon fill="#2F1A45" points="96.3,28.6 96.3,28.7 96.5,28.8 96.5,28.7 		"/>
		<polygon fill="#2F1A45" points="95.6,28 95.3,28.1 95.3,28 95.2,28.3 95.3,28.2 95.3,28.2 		"/>
		<polygon fill="#2F1A45" points="97.7,27.2 97,27.3 96.9,27.4 		"/>
		<polygon fill="#2F1A45" points="96.1,28.6 96.2,28.7 96.6,28.9 96.5,28.8 96.3,28.7 		"/>
		<polygon fill="#2F1A45" points="95.2,28.3 95,28.7 95.5,28.5 95.8,28.5 95.3,28.2 		"/>
		<polygon fill="#2F1A45" points="99.5,26.9 99.5,26.9 99.5,26.8 99.4,26.8 		"/>
		<polygon fill="#2F1A45" points="95.8,28.1 96.3,27.6 96.7,27.5 96.7,27.4 96.9,27.4 97,27.3 96.6,27.4 95.6,28 95.3,28.2 
			95.3,28.2 95.6,28 96.3,28.7 96.3,28.6 96,28.3 		"/>
		<polygon fill="#2F1A45" points="95.6,28 95.3,28.2 95.8,28.5 95.9,28.4 96.1,28.6 96.3,28.7 		"/>
		<polygon fill="#2F1A45" points="95.2,28.3 95.3,28 95.3,27.9 95.1,28 94.8,28.8 94.9,28.8 95,28.4 		"/>
		<polygon fill="#2F1A45" points="95,28.4 94.9,28.8 95,28.7 95.2,28.3 		"/>
		<polygon fill="#2F1A45" points="100.7,24.4 100.7,25.9 101,25.1 101,25.6 101,25 100.9,24 100.9,24 101,24.2 		"/>
		<polygon fill="#2F1A45" points="95.8,26.9 96.6,26.8 97.2,27 97.1,27.2 98.9,26.9 99,26.8 99,26.6 100.2,26.1 100.5,26.2 
			100.7,25.9 100.7,24.4 100.1,25.1 98.8,24 98.3,23.3 98.6,23.3 98.8,23 97.6,23.4 97.1,23.9 96.7,24.2 96.7,24.2 		"/>
		<polygon fill="#2F1A45" points="95.5,27.8 95.4,27.8 95.9,27.6 		"/>
		<polygon fill="#2F1A45" points="100.7,24.4 101,24.2 100.9,24 100.7,24 		"/>
		<polygon fill="#2F1A45" points="98.8,24 100.1,25.1 100.7,24.4 100.7,24 100.5,24.1 100.1,24.2 99.7,23.8 99.9,23.7 99.6,23.3 
			98.5,23.3 98.6,23.3 98.3,23.3 		"/>
		<polygon fill="#2F1A45" points="95.8,27.3 95.6,27.5 95.5,27.6 95.5,27.8 95.9,27.6 95.9,27.6 96.6,26.8 95.8,26.9 95.7,27.2 		
			"/>
		<polygon fill="#2F1A45" points="99.3,26.8 99.5,26.8 99.5,26.8 100,26.7 100.5,26.5 100.5,26.4 100.5,26.2 100.2,26.1 99,26.6 
			99,26.8 99.3,26.8 		"/>
		<polygon fill="#2F1A45" points="96.6,27.3 97.1,27.2 97.2,27 96.6,26.8 96,27.5 		"/>
		<polygon fill="#2F1A45" points="96,27.5 96.6,26.8 95.9,27.6 		"/>
		<polygon fill="#2F1A45" points="96.1,24.8 95.6,26.9 95.8,26.9 96.7,24.2 96.7,24.2 96.4,24.4 		"/>
		<polygon fill="#2F1A45" points="95.5,27.8 95.3,27.8 95.3,27.9 95.4,27.8 		"/>
		<polygon fill="#2F1A45" points="95.7,27.2 95.8,26.9 95.6,26.9 95.6,27.1 		"/>
		<polygon fill="#2F1A45" points="95.5,27.6 95.6,27.5 95.4,27.7 95.3,27.8 95.5,27.8 		"/>
		<polygon fill="#2F1A45" points="95.6,28 95.9,27.6 95.9,27.6 95.4,27.8 95.3,28 95.3,28.1 		"/>
		<polygon fill="#2F1A45" points="97.7,27.2 98.9,26.9 97.1,27.2 97,27.3 		"/>
		<polygon fill="#2F1A45" points="95.9,27.6 95.9,27.6 95.9,27.6 		"/>
		<polygon fill="#2F1A45" points="99.5,26.8 99.5,26.8 99.3,26.8 99.4,26.8 		"/>
		<polygon fill="#2F1A45" points="96,27.5 96,27.6 95.9,27.6 95.6,28 96.6,27.4 97,27.3 97.1,27.2 96.6,27.3 		"/>
		<polygon fill="#2F1A45" points="96,27.6 96,27.5 95.9,27.6 95.9,27.6 		"/>
		<polygon fill="#2F1A45" points="95.4,27.8 95.3,27.9 95.3,28 		"/>
		<polygon fill="#2F1A45" points="95.8,24.4 95.9,23.6 96,23.4 96.2,22.6 95.5,23.3 		"/>
		<path fill="#2F1A45" d="M99.1,28.7C99.1,28.7,99.1,28.7,99.1,28.7l0.2-1L99.1,27l-1,0.2l-1.3,0.2l-0.1,0.1l0,0.2
			c0.2,0.3,0.5,0.6,0.5,0.6l0.4,0.2c0.4,0.1,0.6-0.1,0.6-0.1l0.2,0.3l0,0L99.1,28.7z M97.6,27.9c-0.3,0-0.4-0.3-0.4-0.3l0-0.2
			l0.4-0.1l0.2,0.3L97.6,27.9z"/>
		<polygon fill="#2F1A45" points="99.6,27.5 99.8,27.3 99.5,26.9 99.1,27 99.3,27.7 99.1,28.7 99.1,28.7 99.3,28.7 99.4,28.7 
			99.3,28.5 		"/>
		<polygon fill="#2F1A45" points="96.7,27.5 96.7,27.6 96.9,27.4 96.8,27.5 		"/>
		<polygon fill="#2F1A45" points="99,26.9 97.7,27.2 96.9,27.4 96.9,27.4 98.1,27.3 99.1,27 99.1,26.9 		"/>
		<polygon fill="#2F1A45" points="99.4,26.8 99.1,26.9 99.1,27 99.5,26.9 		"/>
		<polygon fill="#2F1A45" points="96.7,27.4 96.7,27.5 96.8,27.5 96.9,27.4 96.9,27.4 		"/>
		<polygon fill="#2F1A45" points="99,26.8 98.9,26.9 99.1,26.9 		"/>
		<polygon fill="#2F1A45" points="99.3,26.8 99.3,26.8 99,26.8 99.1,26.9 		"/>
		<polygon fill="#2F1A45" points="99,26.9 99.1,26.9 99.1,26.9 98.9,26.9 97.7,27.2 		"/>
		<polygon fill="#2F1A45" points="99.3,26.8 99.1,26.9 99.1,26.9 99.4,26.8 		"/>
		<polygon fill="#2F1A45" points="100.7,26.4 100.8,27 100.8,27.2 100.9,26.9 101,25.6 100.9,26.4 		"/>
		<path fill="#2F1A45" d="M100.7,26.4L100.7,26.4l-0.4,1.4c0,0-1,1.2-1.1,1.2c0,0-0.1-0.1-0.1-0.2l-0.7,0.1l-0.1-0.1l-0.8,0.4
			L96.8,29l0.7,0.4l0,0l1.2-0.4l-0.2,0.3l0.3,0l0.8,0.1v-0.2l0.5-0.5l0.7-1.4l0.1-0.2L100.7,26.4z"/>
		<polygon fill="#2F1A45" points="98.7,29 97.5,29.4 98.6,29.2 		"/>
		<polygon fill="#2F1A45" points="96.8,29.1 97.3,29.4 97.5,29.4 96.8,29 96.8,29 		"/>
		<path fill="#2F1A45" d="M100.4,27.2l-0.5,1.2l-0.5,0.3l0,0.1l-0.3,0c0,0.1,0.1,0.2,0.1,0.2c0.1-0.1,1.1-1.2,1.1-1.2l0.3-1.3
			l-0.2,0.1L100.4,27.2z"/>
		<polygon fill="#2F1A45" points="100.7,25.9 100.7,26.1 100.7,26.4 100.9,26.4 101,25.6 101,25.1 		"/>
		<polygon fill="#2F1A45" points="100.7,26.3 100.6,26.5 100.7,26.4 100.7,26.1 100.7,25.9 100.5,26.2 		"/>
		<polygon fill="#2F1A45" points="100.5,26.2 100.5,26.4 100.5,26.5 100.6,26.5 100.7,26.3 		"/>
		<path fill="#2F1A45" d="M98.4,28.8L98.4,28.8l0,0.1l0.7-0.1c0,0,0-0.1,0-0.1L98.4,28.8z"/>
		<path fill="#2F1A45" d="M99.4,28.7L99.4,28.7l-0.3,0.1c0,0,0,0,0,0.1l0.3,0L99.4,28.7z"/>
		<polygon fill="#2F1A45" points="94.5,45.1 92.1,45.2 89.5,45.9 88,47.1 88.7,47 89.1,46.3 90.1,46.2 90.7,46 91.9,45.7 92.2,45.3 
			95,45.2 96.4,45.8 97.5,46.7 97.7,46.8 96.1,45.3 		"/>
		<polygon fill="#2F1A45" points="95,45.2 92.2,45.3 91.9,45.7 90.7,46 90.1,46.2 89.1,46.3 88.7,47 92.5,46 95.9,46.2 97.5,46.7 
			96.4,45.8 		"/>
		<polygon fill="#2F1A45" points="67.9,28.3 67.8,27.5 68.6,29.7 68.6,29.9 69.1,31.2 68.6,31.4 68.6,31.6 68.6,31.7 68.9,33.3 
			70.3,32.5 70.3,32 70.8,31.8 70.7,30.9 70.4,26.2 68.8,27.2 70.4,25.4 70.3,24.9 69.2,25.4 70.3,24 70.2,23.3 69.6,23.1 
			66.6,23.5 65.9,23.9 64.2,23 65.2,22.8 63.8,22.1 63,22.4 62.6,21.7 62.5,23.8 62.7,26 63.9,25.3 66.3,26.3 66.7,26.9 67.5,27.4 
					"/>
		<polygon fill="#2F1A45" points="67.5,27.4 66.7,26.9 67.6,28.1 68.2,30.1 67.9,28.3 		"/>
		<polygon fill="#2F1A45" points="68.6,29.9 68.6,31.4 69.1,31.2 		"/>
		<polygon fill="#2F1A45" points="70.8,31.8 71.5,31.6 71.5,25.5 70.4,26.2 70.7,30.9 		"/>
		<polygon fill="#2F1A45" points="71.2,22.9 71,22.9 70.8,23.4 		"/>
		<polygon fill="#2F1A45" points="71,24.5 70.3,24.9 70.4,25.4 		"/>
		<polygon fill="#2F1A45" points="70.3,24 70.7,23.5 70.2,23.3 		"/>
		<path fill="#2F1A45" d="M64.7,20.4l1.5-0.3l0.1,0.6l-2,0.4l2.3,0.2L65,22.2l1,0.5l-0.9,0.2l1.2,0.7l0.3,0l1.7-0.9l1.2,0.5l0.6-0.1
			l-0.4-6.1c-0.2-0.1-0.3-0.2-0.3-0.2l-0.6,0.3l-0.6,1.6l-1.5,0.6l1.1-1.8l-0.5,0.2l-1.3,1.7L64.9,19l0.7,0.6L64.7,20.4z"/>
		<path fill="#2F1A45" d="M69.8,16.9l0.4,6.1l0.8-0.1l1.9-5.2c-0.9,0.6-1.5,1.1-1.5,1C71.5,18.5,70.3,17.4,69.8,16.9z"/>
		<polygon fill="#2F1A45" points="70.7,23.5 70.8,23.4 70.7,23.5 		"/>
		<polygon fill="#2F1A45" points="65.2,22.8 64.2,23 65.9,23.9 66.6,23.5 66.4,23.5 		"/>
		<polygon fill="#2F1A45" points="69.6,23.1 70.2,23.3 70.2,23 		"/>
		<polygon fill="#2F1A45" points="70.2,23.3 70.7,23.5 70.8,23.4 71,22.9 70.2,23 		"/>
		<polygon fill="#2F1A45" points="62.2,20.9 62.3,21 62.3,20.8 		"/>
		<polygon fill="#2F1A45" points="63.5,11 63.8,10.1 63.1,10.6 62.6,12 62.9,12.8 63.8,11.5 		"/>
		<polygon fill="#2F1A45" points="70.4,5.8 66,7.6 66.4,8 66.6,8 71.6,5.6 		"/>
		<polygon fill="#2F1A45" points="61.9,18 61.4,19.1 61.7,20.1 61.9,19.2 62.3,18.9 62.4,17.6 		"/>
		<polygon fill="#2F1A45" points="73.9,4.5 73.2,4.6 71.6,5 72.5,5.3 74.4,4.7 		"/>
		<polygon fill="#2F1A45" points="62.7,21.4 63.8,22.1 65,21.7 64,21.4 64.9,20.7 64.2,20.8 64.9,19 68.3,16.9 68,17.3 68.9,16.9 
			69.1,16.5 70.4,16 77.5,11.6 77,9.5 73.8,7.3 75.2,7 74.5,6.2 74.9,6 74.4,5.7 75.6,4.8 75,5 74.4,4.7 72.5,5.3 73,5.4 71.6,5.6 
			66.6,8 68.7,7.5 67.5,8.4 66,8.5 67.2,8.9 69.9,7.8 68.1,9.3 67.3,11.2 68,11.9 67.3,12.3 66.1,12.1 66.5,12.9 65.2,12.9 65,11.1 
			65.4,9.6 64.3,11 64.2,12.2 63.8,11.5 62.9,12.8 63.1,13.3 63.1,14.6 63.7,15.2 62.9,16.2 62.9,17.1 62.4,17.6 62.3,18.9 
			62.3,18.9 62.5,19.5 62.5,20.2 62.3,20.8 62.3,21 62.6,21.7 		"/>
		<path fill="#2F1A45" d="M72.9,17.7c2.1-1.5,5.8-4.2,5.8-4.2l0-1.8l-1.1,0.6l-0.1-0.6L70.4,16l3.6-1.3L72.9,17.7z"/>
		<polygon fill="#2F1A45" points="63.8,22.1 62.7,21.4 62.6,21.7 63,22.4 		"/>
		<path fill="#2F1A45" d="M69.8,16.9l0-0.5l0.7-0.4l-1.4,0.5l-0.1,0.4l0.6-0.3C69.6,16.6,69.7,16.7,69.8,16.9z"/>
		<polygon fill="#2F1A45" points="67.5,17.5 68,17.3 68.3,16.9 64.9,19 66.1,19.2 		"/>
		<path fill="#2F1A45" d="M69.8,16.9c0.5,0.5,1.7,1.7,1.6,1.8c0,0,0.6-0.4,1.5-1l1.1-3L70.4,16l-0.7,0.4L69.8,16.9z"/>
		<polygon fill="#2F1A45" points="88,8.5 87.3,10.5 86.3,10.8 85.5,11.8 85.9,12.6 87.7,11.4 89.5,7.6 89.2,7.2 		"/>
		<path fill="#2F1A45" d="M85.1,12.2l-2.6,0.3c0,0.1,0,0.1,0,0.2l2.4,0.6l1-0.7l-0.4-0.8L85.1,12.2z"/>
		<polygon fill="#2F1A45" points="88.7,6.7 89,6.9 88.6,6.9 88,8.5 89.2,7.2 89.5,7.6 89.7,7 89.6,6.8 89.6,6.9 89.5,6.8 89.1,7 
			89.1,6.6 88.8,6.5 88.8,6.5 		"/>
		<polygon fill="#2F1A45" points="87.2,9.8 87.2,9.5 87.1,9.6 86.6,9.7 86.5,9.1 85.1,9.9 85,10.7 85.2,11.2 86.3,10.8 		"/>
		<path fill="#2F1A45" d="M82.8,11.6l0.7,0.2l1.7-0.6L85,10.7l0.1-0.9l-1.4,0.7l-1.6-0.4c-0.2,0.4-0.3,0.7-0.5,1.1l0.9,0.2l0.5-0.7
			C83,10.8,82.9,11.1,82.8,11.6z"/>
		<polygon fill="#2F1A45" points="88.8,6.5 88.8,6.5 88.1,6.2 88.5,6.5 		"/>
		<polygon fill="#2F1A45" points="86.5,9.1 86.6,9.7 87.1,9.6 87.2,9.5 87.6,7 87.1,7 86.7,9.1 		"/>
		<path fill="#2F1A45" d="M82,10.2l-0.6,1l0.2,0.1C81.7,10.9,81.9,10.5,82,10.2L82,10.2z"/>
		<polygon fill="#2F1A45" points="86.3,10.8 87.3,10.5 88,8.5 87.2,9.5 87.2,9.8 		"/>
		<polygon fill="#2F1A45" points="88.6,6.9 87.6,7 87.2,9.5 88,8.5 		"/>
		<polygon fill="#2F1A45" points="88.8,6.5 88.5,6.5 88.7,6.7 		"/>
		<path fill="#2F1A45" d="M76.6,7.3l2.2,1.6l-0.1,2l4.9-3c-0.1,0.1-0.2,0.2-0.3,0.4l1.5-0.9l-0.3-1.1l1.8,0l-0.3,0v0l-1.9,0
			l-1.3-0.4l-1.5-0.1l-2.2,0.5L78,6.6L76.6,7.3z"/>
		<path fill="#2F1A45" d="M84.9,7.5l-0.1-0.2l-1.5,0.9c0,0,0,0,0,0L84.9,7.5z"/>
		<polygon fill="#2F1A45" points="85.4,7.3 85.8,7.1 87.1,7 87.3,6.3 86.3,6.2 84.5,6.2 84.9,7.3 85.5,6.9 		"/>
		<polygon fill="#2F1A45" points="85.4,7.3 85.5,6.9 84.9,7.3 84.9,7.5 		"/>
		<path fill="#2F1A45" d="M82.6,8.7l0.1-0.1l0.4-0.2l0.2-0.1c0.1-0.1,0.2-0.2,0.3-0.4l-4.9,3l0,0.7l2-1.1l0.6-0.9L82.6,8.7z"/>
		<path fill="#2F1A45" d="M83.3,8.3C83.3,8.3,83.3,8.2,83.3,8.3l-0.2,0.1L83.3,8.3z"/>
		<polygon fill="#2F1A45" points="82.6,8.7 81.2,9.5 80.7,10.5 81.5,10 		"/>
		<polygon fill="#2F1A45" points="78.8,8.9 76.6,7.3 75.7,7.7 75.2,7 73.8,7.3 77,9.5 77.5,11.6 78.7,10.9 		"/>
		<polygon fill="#2F1A45" points="78.7,11.6 78.7,10.9 77.5,11.6 77.7,12.2 		"/>
		<polygon fill="#2F1A45" points="89,6.9 88.7,6.7 88.6,6.9 		"/>
		<polygon fill="#2F1A45" points="87.9,6.1 87.9,6.1 88.1,6.1 		"/>
		<polygon fill="#2F1A45" points="87.7,6.5 88.5,6.5 88.1,6.2 88.1,6.1 87.9,6.1 88,6.4 87.3,6.3 87.1,7 87.6,7 		"/>
		<polygon fill="#2F1A45" points="88.7,6.7 88.5,6.5 87.7,6.5 87.6,7 88.6,6.9 		"/>
		<polygon fill="#2F1A45" points="83.2,1.3 82.6,1.7 81,1.8 82.1,2.4 80.3,2.4 78.8,3.1 80,2.9 80.2,3 84.9,1.6 		"/>
		<polygon fill="#2F1A45" points="87,0 84.6,0.5 83.9,1 85.7,0.8 		"/>
		<polygon fill="#2F1A45" points="76.5,4.1 78.9,3.4 78.1,3.4 76.6,3 76.4,2.3 77.7,2 76.5,1.5 74.9,3.1 75.2,3.5 76.4,3.9 		"/>
		<polygon fill="#2F1A45" points="76.7,4.6 76.4,4.7 76.6,4.9 79.5,4.2 78.5,5.3 77.1,5 74.9,6 76,6.8 79.1,6.1 80.9,5.3 79.6,5.1 
			81.8,4.8 80.5,4.5 83.3,4.5 81.8,3.9 83.8,4.3 82.7,3.6 84.4,2.8 85.5,4 84.9,2.7 85.1,1.8 85,1.6 84.9,1.6 80.2,3 81,3.3 
			78.9,3.4 76.5,4.1 		"/>
		<polygon fill="#2F1A45" points="74.9,6 74.5,6.2 75.2,7 76,6.8 		"/>
		<polygon fill="#2F1A45" points="78,6.6 79.1,6.1 76,6.8 76.6,7.3 		"/>
		<polygon fill="#2F1A45" points="76.6,7.3 76,6.8 75.2,7 75.7,7.7 		"/>
		<polygon fill="#2F1A45" points="85.1,1.6 85.5,1.7 85.3,1.4 85.9,1.7 86,1.8 89.3,2.5 89.3,2.4 87.9,1.6 87.4,1.8 86.8,1.4 
			87.3,1.3 86.4,0.8 85.7,0.8 85.2,1.2 		"/>
		<polygon fill="#2F1A45" points="81.7,1.1 83.2,1.3 83.9,1 		"/>
		<polygon fill="#2F1A45" points="87.8,2.8 87.9,5.9 87.9,5.9 88.9,6.1 88.9,6.3 89.1,6.3 88.9,3 89.3,2.5 86,1.8 86.2,2.1 		"/>
		<polygon fill="#2F1A45" points="85.1,1.7 85.4,1.7 85.6,1.8 85.5,1.7 85.1,1.6 85.1,1.6 		"/>
		<polygon fill="#2F1A45" points="88.8,6.5 89.1,6.5 89.1,6.3 88.9,6.3 88.8,6.5 		"/>
		<polygon fill="#2F1A45" points="89.1,6.5 88.8,6.5 89.1,6.6 		"/>
		<polygon fill="#2F1A45" points="89.6,6.8 89.6,6.7 89.5,6.8 89.6,6.9 		"/>
		<polygon fill="#2F1A45" points="88.1,6.1 88.6,6.1 88.9,6.3 88.9,6.1 87.9,5.9 87.9,6 		"/>
		<polygon fill="#2F1A45" points="88.1,6.1 88.1,6.2 88.8,6.5 88.9,6.3 88.6,6.1 		"/>
		<polygon fill="#2F1A45" points="88.1,6.1 87.9,6 87.9,6.1 88.1,6.1 		"/>
		<polygon fill="#2F1A45" points="88.1,6.2 88.1,6.1 88.1,6.1 		"/>
		<polygon fill="#2F1A45" points="85,1.6 84.8,1.3 85.1,1.6 85.1,1.6 85.2,1.2 85.7,0.8 83.9,1 83.2,1.3 84.9,1.6 		"/>
		<polygon fill="#2F1A45" points="84.9,1.6 85,1.6 85,1.6 		"/>
		<polygon fill="#2F1A45" points="85.1,1.6 85.1,1.6 85.1,1.6 		"/>
		<polygon fill="#2F1A45" points="86.1,5.2 86.2,5.7 87.3,5.9 87.4,5.8 87.9,5.9 87.9,5.9 87.4,3.7 86.2,2.1 85.6,1.8 86.7,3.5 
			86.7,4.7 86.3,3.4 85.1,1.7 85.1,1.6 85.1,1.8 86.2,4.4 		"/>
		<polygon fill="#2F1A45" points="87.9,6 87.9,5.9 87.4,5.8 87.3,5.9 87.9,5.9 		"/>
		<polygon fill="#2F1A45" points="87.3,5.9 86.2,5.7 86.3,6.1 86,6.1 86,6.1 86.3,6.2 87.3,6.1 		"/>
		<polygon fill="#2F1A45" points="87.3,6.1 86.3,6.2 87.3,6.3 		"/>
		<polygon fill="#2F1A45" points="87.9,6.1 87.9,6.1 87.9,6.1 87.9,6 87.9,5.9 87.3,5.9 87.3,6.1 		"/>
		<polygon fill="#2F1A45" points="87.9,6.1 87.3,6.1 87.3,6.3 88,6.4 		"/>
		<polygon fill="#2F1A45" points="85,1.6 85.1,1.8 85.1,1.6 		"/>
		<polygon fill="#2F1A45" points="85.9,1.7 85.3,1.4 85.5,1.7 86,1.8 		"/>
		<polygon fill="#2F1A45" points="87.9,5.9 87.9,5.9 87.9,5.9 		"/>
		<polygon fill="#2F1A45" points="85.1,1.6 85.1,1.7 85.1,1.6 		"/>
		<polygon fill="#2F1A45" points="86.2,2.1 86,1.8 85.5,1.7 85.6,1.8 		"/>
		<polygon fill="#2F1A45" points="87.9,6 87.9,5.9 87.9,5.9 87.9,6 		"/>
		<polygon fill="#2F1A45" points="87.9,6 87.9,6.1 87.9,6.1 87.9,6 		"/>
		<polygon fill="#2F1A45" points="85.1,1.6 84.8,1.3 85,1.6 85,1.6 		"/>
		<polygon fill="#2F1A45" points="85.1,1.6 85.1,1.6 85,1.6 85,1.6 85,1.6 85.1,1.6 		"/>
		<polygon fill="#2F1A45" points="82.7,4.9 83.6,5.2 81.4,5.2 82.8,5.7 84.7,5.8 85.6,5.6 86.1,5.7 86.1,5.2 86,4.5 85.5,4 
			85.8,4.7 83.8,4.3 84.6,4.8 		"/>
		<polygon fill="#2F1A45" points="85.6,5.6 84.7,5.8 82.8,5.7 84.1,6.1 86,6.1 86.1,5.7 		"/>
		<polygon fill="#2F1A45" points="85.5,4 84.4,2.8 82.7,3.6 83.8,4.3 85.8,4.7 		"/>
		<polygon fill="#2F1A45" points="86.1,5.2 86.1,5.7 86.2,5.7 		"/>
		<polygon fill="#2F1A45" points="86.2,5.7 86.1,5.7 86,6.1 86.3,6.1 		"/>
		<polygon fill="#2F1A45" points="92.6,9.2 93.3,10.1 93,9.4 		"/>
		<polygon fill="#2F1A45" points="93.7,13.3 94,12.9 93.8,13 91.1,11 91.6,12 93.2,13.7 94.1,13.9 95.7,13.4 95.8,12.6 95.6,12.7 		
			"/>
		<polygon fill="#2F1A45" points="95,10.2 95.3,10.5 95.5,9.3 95.3,9.2 95.4,9.1 94.4,8.5 94.4,8.5 93.8,8.5 		"/>
		<polygon fill="#2F1A45" points="92.6,9.2 93,9.4 93.3,10.1 93.9,11 94.6,11.4 94.7,12.7 94,12.9 93.7,13.3 95.6,12.7 95.8,12.6 
			95.8,12 95.1,11.5 95.3,10.5 95,10.2 93.8,8.5 92.5,8.7 92.4,8.3 92.4,8.5 92.1,8.4 92.1,8.5 		"/>
		<polygon fill="#2F1A45" points="97.3,11.1 97.1,10.6 97.2,11.2 		"/>
		<polygon fill="#2F1A45" points="97.3,11.1 97.2,11.2 97.5,14 96.8,11.6 97.2,11.2 97.1,10.6 96,9.7 95.9,11.2 96.8,12.4 
			96.4,12.5 96.5,12.5 96.9,14.5 97.1,14.6 97.2,15 96.8,14.9 96.1,16.5 97.2,15.7 98.2,14.2 97.6,12.1 97.5,12 		"/>
		<polygon fill="#2F1A45" points="97.1,14.6 96.9,14.5 96.9,14.8 96.8,14.9 97.2,15 		"/>
		<polygon fill="#2F1A45" points="96.4,12.5 96.8,12.4 95.9,11.2 95.8,12 		"/>
		<polygon fill="#2F1A45" points="95.3,10.5 95.9,11.2 96,9.7 95.5,9.3 		"/>
		<polygon fill="#2F1A45" points="95.1,11.5 95.8,12 95.9,11.2 95.3,10.5 		"/>
		<polygon fill="#2F1A45" points="99.1,10 100,12.1 100.9,15.7 101.5,17.6 101,20.7 100.9,21.2 101.1,20.9 102.1,16.2 101.7,15 
			101.6,15.9 101.4,16.3 101.3,13.8 101.2,13.4 101,13.8 100.7,12.3 100.9,11.9 100.5,10.2 100.2,11.4 		"/>
		<polygon fill="#2F1A45" points="96.5,4.6 96.5,5.6 97.5,6.3 98.7,9.2 99.2,8.5 99.1,8.4 98.9,6.4 98.2,5.1 97.5,5.5 97.2,4 
			94.8,4.1 95.3,4.6 		"/>
		<polygon fill="#2F1A45" points="101.5,17.6 100.9,15.7 100,12.1 99.1,10 98.6,9.4 98.7,9.2 97.5,6.3 96.5,5.6 96.7,8.1 96.5,8.2 
			96.6,8.6 96.2,9.3 97.8,10.5 97.3,11.1 97.6,12.1 98.7,13 99.5,13.4 99.3,13.7 100.1,14 99.8,18.3 100.5,16.7 100.9,19.6 
			100.6,21.4 100.9,21.2 101,20.7 		"/>
		<polygon fill="#2F1A45" points="95.5,9.3 95.6,9.2 95.4,9.1 95.3,9.2 		"/>
		<polygon fill="#2F1A45" points="97.5,12 97.6,12.1 97.3,11.1 97.3,11.1 		"/>
		<polygon fill="#2F1A45" points="96,9.5 96,9.7 97.1,10.6 97.3,11.1 97.8,10.5 96.2,9.3 96.1,9.5 		"/>
		<polygon fill="#2F1A45" points="97.3,11.1 97.3,11.1 97.1,10.6 		"/>
		<polygon fill="#2F1A45" points="95.5,9.3 96,9.7 96,9.5 95.6,9.2 		"/>
		<polygon fill="#2F1A45" points="95.3,4.6 95,4.6 95.7,5.1 		"/>
		<polygon fill="#2F1A45" points="91.6,3 91.6,2.8 91.8,3 91.8,3 92,3.1 91.9,2.7 91.2,2.8 91.3,2.9 		"/>
		<polygon fill="#2F1A45" points="92.8,3.2 92.9,3.3 93.4,3.3 93.7,3.8 94.3,4.2 94.2,4.1 94.8,4.1 93.7,2.7 92.4,2.7 92.7,3.2 		
			"/>
		<polygon fill="#2F1A45" points="95.2,7.5 94.3,4.8 94,4.9 94.1,5.9 94.4,6.5 94.8,8.3 95.9,8.7 96.5,8.2 96,5.5 95.7,5.1 95,4.6 
			94.5,4.6 94.3,4.2 93.7,3.8 95,5.8 		"/>
		<polygon fill="#2F1A45" points="91.9,3.2 92,3.2 92,3.1 91.8,3 		"/>
		<polygon fill="#2F1A45" points="91.6,3 91.3,2.9 91.3,3.2 91.6,3.2 		"/>
		<polygon fill="#2F1A45" points="92.9,3.3 92.8,3.2 92.7,3.2 92.7,3.3 		"/>
		<polygon fill="#2F1A45" points="94.4,8.5 94.4,8.5 95.4,9.1 95.6,9 95.6,8.9 95.6,8.9 95.9,8.7 94.8,8.3 94.8,8.4 		"/>
		<polygon fill="#2F1A45" points="95.6,8.9 95.6,9 95.6,8.9 		"/>
		<polygon fill="#2F1A45" points="94.3,4.2 95,4.6 95.3,4.6 94.8,4.1 94.2,4.1 		"/>
		<polygon fill="#2F1A45" points="95,4.6 94.3,4.2 94.5,4.6 		"/>
		<polygon fill="#2F1A45" points="96.1,8.7 96,9.2 96.2,9.3 96.6,8.6 96.5,8.2 95.9,8.7 		"/>
		<polygon fill="#2F1A45" points="95.6,9 95.4,9.1 95.6,9.2 		"/>
		<polygon fill="#2F1A45" points="96,9.2 96.1,8.7 95.9,8.7 95.6,8.9 		"/>
		<polygon fill="#2F1A45" points="96,9.5 96.1,9.5 96.2,9.3 96,9.2 		"/>
		<polygon fill="#2F1A45" points="95.6,9 95.6,9.2 96,9.5 96,9.2 95.6,8.9 		"/>
		<polygon fill="#2F1A45" points="91.8,2.6 91.9,2.7 92.4,2.7 92,1.9 91.1,1.8 91.2,2.3 		"/>
		<polygon fill="#2F1A45" points="94.4,8.1 94.1,5.9 92.7,3.3 92,3.2 92.9,5.6 92.2,4.4 91.9,3.2 91.6,3.2 91.8,4.8 92.6,6.8 
			92.3,6.8 91.5,4.7 91.4,3.5 91.1,4.9 91.8,6.7 92.2,7.4 		"/>
		<polygon fill="#2F1A45" points="92.3,7.5 93.4,7.9 93.8,8.5 94.4,8.5 94.4,8.1 92.2,7.4 92.3,7.4 		"/>
		<polygon fill="#2F1A45" points="92.3,7.5 92.4,8.3 92.5,8.7 93.8,8.5 93.4,7.9 		"/>
		<polygon fill="#2F1A45" points="91.8,3 91.6,2.8 91.6,3 91.8,3 		"/>
		<polygon fill="#2F1A45" points="92,3.1 92.7,3.2 92.4,2.7 91.9,2.7 		"/>
		<polygon fill="#2F1A45" points="91.9,3.2 91.8,3 91.6,3 91.6,3.2 		"/>
		<polygon fill="#2F1A45" points="92.7,3.3 92.7,3.2 92,3.1 92,3.2 		"/>
		<polygon fill="#2F1A45" points="94.8,8.3 94.4,6.5 94.1,5.9 94.4,8.1 		"/>
		<polygon fill="#2F1A45" points="94.4,8.5 94.8,8.4 94.8,8.3 94.4,8.1 		"/>
		<polygon fill="#2F1A45" points="89.1,1.3 89.6,1.8 89.3,2.4 89.4,2.5 90.1,2.7 90.1,2.5 90.1,2.7 91,2.9 91,2.8 91.2,2.8 
			91.2,2.3 90.5,2.1 90.4,1.7 91.1,1.8 91.1,1.5 89.3,0.6 87.3,1.3 87.9,1.6 		"/>
		<polygon fill="#2F1A45" points="90.7,5.8 90.1,6.1 90.2,6.4 89.9,6.5 89.9,6.7 90.5,7 92,7.5 91.8,6.7 91.3,6.2 90.8,4.6 
			91.3,3.4 91.3,3.2 91.2,3.2 91,2.9 90.1,2.7 89.9,4.2 		"/>
		<polygon fill="#2F1A45" points="89.6,6.3 90.1,6.1 89.7,4.2 90.1,2.7 89.4,2.5 89.6,2.6 		"/>
		<polygon fill="#2F1A45" points="89.9,6.5 89.9,6.5 90.2,6.4 90.1,6.1 89.6,6.3 89.6,6.5 		"/>
		<polygon fill="#2F1A45" points="90.3,8.3 90.8,7.9 92.1,8.4 92.1,7.7 92,7.5 90.5,7 89.9,6.7 89.7,7 		"/>
		<polygon fill="#2F1A45" points="89.9,6.7 89.9,6.5 89.7,6.7 		"/>
		<polygon fill="#2F1A45" points="89.6,6.5 89.6,6.6 89.7,6.7 89.9,6.5 89.9,6.5 		"/>
		<polygon fill="#2F1A45" points="89.5,6.8 89.1,6.6 89.1,7 		"/>
		<polygon fill="#2F1A45" points="89.6,6.7 89.6,6.8 89.7,7 89.9,6.7 89.7,6.7 		"/>
		<polygon fill="#2F1A45" points="89.7,6.7 89.6,6.6 89.6,6.7 		"/>
		<polygon fill="#2F1A45" points="89.3,2.4 89.3,2.5 89.4,2.5 		"/>
		<polygon fill="#2F1A45" points="87.4,1.8 87.9,1.6 87.3,1.3 86.8,1.4 		"/>
		<polygon fill="#2F1A45" points="89.1,6.3 89.4,6.5 89.5,6.5 89.4,6.4 89.6,6.3 89.6,2.6 89.4,2.5 89.3,2.5 88.9,3 		"/>
		<polygon fill="#2F1A45" points="89.6,6.3 89.4,6.4 89.5,6.5 89.6,6.5 		"/>
		<polygon fill="#2F1A45" points="89.4,6.5 89.1,6.3 89.1,6.5 		"/>
		<polygon fill="#2F1A45" points="89.6,6.6 89.6,6.5 89.5,6.5 89.5,6.6 		"/>
		<polygon fill="#2F1A45" points="89.5,6.5 89.4,6.5 89.5,6.6 		"/>
		<polygon fill="#2F1A45" points="89.6,6.7 89.6,6.7 89.6,6.8 		"/>
		<polygon fill="#2F1A45" points="89.6,6.6 89.5,6.6 89.6,6.7 89.6,6.7 		"/>
		<polygon fill="#2F1A45" points="89.1,6.6 89.5,6.8 89.6,6.7 89.5,6.6 89.4,6.5 89.1,6.5 		"/>
		<polygon fill="#2F1A45" points="92.4,8.3 92.1,7.7 92.1,8.4 92.4,8.5 		"/>
		<polygon fill="#2F1A45" points="91.2,2.8 91,2.8 91,2.9 91.3,2.9 		"/>
		<polygon fill="#2F1A45" points="91.3,3.2 91.3,2.9 91,2.9 91.2,3.2 		"/>
		<polygon fill="#2F1A45" points="90.5,2.1 91.2,2.3 91.1,1.8 90.4,1.7 		"/>
		<polygon fill="#2F1A45" points="92.1,7.3 92.2,7.4 91.8,6.7 92,7.5 92.1,7.5 		"/>
		<polygon fill="#2F1A45" points="92.1,7.5 92,7.5 92.1,7.7 		"/>
		<polygon fill="#2F1A45" points="92.3,7.4 92.2,7.4 92.1,7.3 92.1,7.5 92.3,7.5 		"/>
		<polygon fill="#2F1A45" points="92.3,7.5 92.1,7.5 92.1,7.7 92.4,8.3 		"/>
		<polygon fill="#2F1A45" points="100.5,10.2 101,8 100.1,3.9 97.5,2.9 96.3,3.5 97.4,3.2 99.3,5 99.4,8 99.2,8.5 100.4,9.8 		"/>
		<polygon fill="#2F1A45" points="99.1,10 100.2,11.4 100.5,10.2 100.4,9.8 99.2,8.5 98.7,9.2 		"/>
		<polygon fill="#2F1A45" points="99.1,10 98.7,9.2 98.6,9.4 		"/>
		<polygon fill="#2F1A45" points="101.6,12.5 101.5,10.6 101,9.6 101.2,11.2 100.9,11.9 101.2,13.4 		"/>
		<polygon fill="#2F1A45" points="101,13.8 101.2,13.4 100.9,11.9 100.7,12.3 		"/>
		<polygon fill="#2F1A45" points="75.8,4.3 76,4.2 75.2,3.5 73.5,2.8 70.1,3.8 69.6,5.6 70.2,4.8 72.8,4 73.9,4.5 74.5,4.4 		"/>
		<polygon fill="#2F1A45" points="76,4.2 75.8,4.3 76,4.3 		"/>
		<polygon fill="#2F1A45" points="76.2,4.5 75.6,4.8 76.4,4.7 		"/>
		<polygon fill="#2F1A45" points="75.8,4.3 74.5,4.4 73.9,4.5 74.4,4.7 		"/>
		<polygon fill="#2F1A45" points="76,4.3 75.8,4.3 74.4,4.7 75,5 75.6,4.8 76.2,4.5 		"/>
		<polygon fill="#2F1A45" points="76.5,4.1 76.4,3.9 75.2,3.5 76,4.2 		"/>
		<polygon fill="#2F1A45" points="76.5,4.2 76.2,4.5 76.4,4.7 76.7,4.6 76.5,4.1 76,4.2 76,4.3 		"/>
		<polygon fill="#2F1A45" points="76,4.3 76.2,4.5 76.5,4.2 		"/>
		<path fill="#2F1A45" d="M42.9,114c0,0,5.7-0.4,7.6-0.2c0.8,0.1,2.6,0.4,3.8,0.6l2.5-1.8l0.6-1l0.7,0.1l5.2-3.7l9.1-1.9l-0.1,0.3
			l0.4-0.3l-19.3,1.7l-5.3,1.9l-2.5,0l-1.8,0.8l-1.5-2.5l-6,1.2l0.6,5.1l0.2,1.8l1.1-4.4L42.9,114z"/>
		<polygon fill="#2F1A45" points="36.6,117.3 35.8,117.4 36.6,117.5 		"/>
		<path fill="#2F1A45" d="M56.7,112.7l-2.5,1.8c0.7,0.1,1.3,0.3,1.3,0.3L56.7,112.7z"/>
		<polygon fill="#2F1A45" points="68,111.2 69.4,108.8 72.3,106.4 72.4,106.1 63.2,108 58.1,111.7 63.4,112.4 		"/>
		<polygon fill="#2F1A45" points="41.7,107.1 40.7,107.2 40.4,107.3 40.3,107.3 35.9,107.7 36.1,109.2 42.1,108 		"/>
		<polygon fill="#2F1A45" points="40.7,107.2 40.3,107.3 40.4,107.3 		"/>
		<polygon fill="#2F1A45" points="80.5,105.1 80.7,105.4 81.4,103.8 80.4,102.6 75.1,101.8 71.1,102.2 68.9,104.5 73.1,104.5 
			74,104.8 73.9,104.5 		"/>
		<path fill="#2F1A45" d="M81.1,106l1.8,2.9c2.2,0.3,4.5,0.5,5.7,0.3c1-0.2,3.7-1.1,5-1.6l-8.3,0.7L81.1,106z"/>
		<polygon fill="#2F1A45" points="98.6,105.9 99.6,105.1 99.9,104.8 99.5,105 		"/>
		<path fill="#2F1A45" d="M81.2,108.7c0.5,0.1,1.1,0.2,1.7,0.2l-1.8-2.9l-0.5-0.3l0.1-0.3l-0.2-0.4l-6.6-0.6l0.1,0.3l4.8,1.4
			L81.2,108.7z"/>
		<polygon fill="#2F1A45" points="103.2,103.4 103.1,103.4 103,103.6 		"/>
		<polygon fill="#2F1A45" points="99.9,104.8 99.6,105.1 98.6,105.9 98.1,106.4 100.2,105.9 100.2,105.9 102.6,103.9 		"/>
		<path fill="#2F1A45" d="M94.4,106.3l-1.5,0.6l-0.2-0.6l-0.7,0l0.2,0.9l-1.4,0.4l-0.3-1.3l-0.9,0.1l0,0.3l-0.9,1.3l-0.2-1.4
			l-0.7,0.1l-1-2.1l-0.4,2.2l-0.3-1.9l-0.9,1.3l-0.6-2.4l-2,1.3l-1.1-1.2l-0.7,1.6l0.4,0.6l4.4,2.3l8.3-0.7c0.4-0.2,0.7-0.3,0.7-0.3
			l3.5-0.9l0.7-0.6l0.9-0.9l-4.1,1.4l0-1.1l-1.2,0.5L94.4,106.3z"/>
		<polygon fill="#2F1A45" points="80.6,105.8 81.1,106 80.7,105.4 		"/>
		<polygon fill="#2F1A45" points="98.1,106.4 98.6,105.9 97.9,106.4 		"/>
		<polygon fill="#2F1A45" points="81.6,103.5 81.1,102.7 80.4,102.6 81.4,103.8 		"/>
		<polygon fill="#2F1A45" points="86.7,104.6 86.6,104.2 86,104.9 86.4,106.8 		"/>
		<polygon fill="#2F1A45" points="81.6,103.5 81.4,103.8 82.5,105.1 		"/>
		<polygon fill="#2F1A45" points="89.7,106.7 89.7,106.4 88.5,106.6 88.7,108 		"/>
		<polygon fill="#2F1A45" points="94.4,106.3 94.3,105.9 93.2,106.3 92.7,106.3 92.9,106.9 		"/>
		<polygon fill="#2F1A45" points="92.2,107.2 92,106.3 90.9,106.2 90.6,106.3 90.8,107.6 		"/>
		<polygon fill="#2F1A45" points="99.9,104.8 101.4,103.5 101,103.5 99.5,105 		"/>
		<polygon fill="#2F1A45" points="99.9,104.8 102.6,103.9 103,103.6 103.1,103.4 101.4,103.5 		"/>
		<polygon fill="#2F1A45" points="99.5,105 101,103.5 99.9,103.5 95.5,105.3 95.4,106.4 		"/>
		<polygon fill="#2F1A45" points="104.7,102.6 104.7,101.7 103.7,102.8 103.8,103.5 		"/>
		<polygon fill="#2F1A45" points="103.5,103.8 103.8,103.5 103.7,102.8 103.3,103.2 		"/>
		<polygon fill="#2F1A45" points="103.8,103.5 104,105 104,105 105.4,103.6 105.2,101.1 104.7,101.7 104.7,102.6 		"/>
		<polygon fill="#2F1A45" points="103.8,103.5 103.5,103.8 104,105 104,105 		"/>
		<polygon fill="#2F1A45" points="103.3,101.2 102.8,101.7 103,102 103.6,101.5 103.7,102.8 104.7,101.7 104.7,100.7 105.1,100.1 
			105,99.1 103.7,100.7 103.6,100.8 		"/>
		<polygon fill="#2F1A45" points="103.7,102.8 103.6,101.5 103,102 103.3,103.2 		"/>
		<polygon fill="#2F1A45" points="103.6,100.8 103.7,100.7 103.3,101.2 		"/>
		<polygon fill="#2F1A45" points="104.7,101.7 105.2,101.1 105.1,100.1 104.7,100.7 		"/>
		<path fill="#2F1A45" d="M109.2,96.7l-0.6,0.6l2.2,3.1l-0.8,0.2l0,0.1l2.3,0.5l-4.3,0.5l-2.1,3.5l4.4,0.4c0,0,2.2-2.4,3.1-2.8
			c0.8-0.4,2.8-0.7,4.3-0.9l1.6-1.1l3.7-3.6l-1.4-0.4L114,95l-2.5-2.9l-1.1-0.8L109.2,96.7z"/>
		<polygon fill="#2F1A45" points="110,100.6 110.8,100.4 108.6,97.3 107.8,98.2 		"/>
		<polygon fill="#2F1A45" points="110.4,91 110.3,91.4 111.5,92.2 110.4,91 		"/>
		<polygon fill="#2F1A45" points="108.6,97.3 109.2,96.7 110.3,91.4 110.1,91.2 110.1,91 108.6,91.2 107.3,96.8 107.8,96.1 		"/>
		<polygon fill="#2F1A45" points="107.8,98.2 108.6,97.3 107.8,96.1 107.3,96.8 107.2,97.5 		"/>
		<polygon fill="#2F1A45" points="110.3,91.4 110.4,91 110.1,91 110.1,91.2 		"/>
		<path fill="#2F1A45" d="M91.2,32.7c-1,0.5-1.7,1.1-2,1.3c0.2,0,0.4,0,0.4,0l0.2,1.4c0,0.3-0.2,0.6-0.4,0.8l0.3,0.2l1.5-0.2
			c-0.5-0.3-0.9-0.7-0.9-0.7L90.4,34c0.1-0.5,0.8-1.1,0.8-1.1l0.4-0.1l0-0.1L91.2,32.7z"/>
		<polygon fill="#2F1A45" points="91.6,32.8 91.8,32.7 91.6,32.7 		"/>
		<path fill="#2F1A45" d="M89.9,36.5l-0.3-0.2c-0.1,0.1-0.1,0.2-0.1,0.2l0.5,0.5l1.6-0.4l0.1-0.2c-0.1,0-0.1-0.1-0.2-0.1L89.9,36.5z
			"/>
		<path fill="#2F1A45" d="M91.6,32.7l-0.1-0.2L90.2,33l-1.4,1c0.1,0,0.3-0.1,0.5-0.1c0.3-0.2,1-0.8,2-1.3L91.6,32.7z"/>
		<polygon fill="#2F1A45" points="91.5,32.5 91.6,32.7 91.8,32.7 92,32.6 		"/>
		<path fill="#2F1A45" d="M91.8,36.5c-0.1,0-0.1-0.1-0.2-0.1l-0.1,0.2L91.8,36.5z"/>
		<path fill="#2F1A45" d="M89.3,17.1l-1.1,0.2c0,0-0.1-0.2-0.2-0.4L85.7,17l0.2,0.2L85,17.7l0.3,0.2l4.1-0.5
			c0.5-0.6,1.6-1.4,1.6-1.4l4.4,0.4l1.3,1.5l0.7,0.1l1.3,0.5l0.1,0l0.5,0.3l0.1,0l-1.8-1.2l-0.9-0.4l-1-1.2l-4.4-0.6L91,15.7
			L89.3,17.1z"/>
		<polygon fill="#2F1A45" points="85.9,17.2 85.7,17 85.5,17 83.9,16.7 83.4,16.8 83.1,16.7 84.1,18 85.2,17.9 85,17.7 		"/>
		<path fill="#2F1A45" d="M89.4,16.8L88,16.9c0.1,0.2,0.2,0.4,0.2,0.4l1.1-0.2l1.7-1.4l0.1-0.2l0,0L89.4,16.8z"/>
		<polygon fill="#2F1A45" points="98.6,18.6 99.2,18.8 98.7,18.6 		"/>
		<path fill="#2F1A45" d="M85.1,16.5l2.4-0.5c-0.1-0.1-0.1-0.2-0.2-0.3l-2.4,0.6L85.1,16.5z"/>
		<polygon fill="#2F1A45" points="94.8,14.2 95.7,14.5 95,14.2 		"/>
		<polygon fill="#2F1A45" points="94.1,13.9 93.9,13.9 95.2,14.1 95,14 		"/>
		<polygon fill="#2F1A45" points="91.4,13.5 91.3,13.5 92.9,13.8 93.3,13.8 93.2,13.7 		"/>
		<path fill="#2F1A45" d="M86.9,15l-2,0.3l-2.2-0.2l-0.4-1.2c0-0.3,0.1-0.7,0.2-1.2l-0.6-0.1l0.7-0.1c0.1-0.3,0.2-0.7,0.2-0.9
			l-0.3-0.1l-1.1,1.6L81.2,16l1.9,0.8L83,16.6l0.9,0.1l1.2-0.3l-0.2-0.2l2.4-0.6c0,0,0,0,0,0L86.9,15z"/>
		<path fill="#2F1A45" d="M95.2,14.1l-1.3-0.2l-0.4,0.1l-0.2-0.2l-0.4-0.1l-1.6-0.3l-2.4,1.2l-1.3,0.2l0.5,0.6l-0.7,0.2
			c0,0,0.1,0.1,0.2,0.3l1.4-0.3l2.5-1.7l3.3,0.2l0.1,0l0.1,0l0.8,0.3l0.2,0.1L95.2,14.1z"/>
		<path fill="#2F1A45" d="M87.3,15.6C87.3,15.6,87.3,15.6,87.3,15.6l0.8-0.2l-0.5-0.6L86.9,15L87.3,15.6z"/>
		<path fill="#2F1A45" d="M81.9,12.6l0.6,0.1c0-0.1,0-0.1,0-0.2L81.9,12.6z"/>
		<path fill="#2F1A45" d="M83,10.8l-0.5,0.7l0.3,0.1C82.9,11.1,83,10.8,83,10.8z"/>
		<polygon fill="#2F1A45" points="93.2,13.7 93.3,13.8 93.9,13.9 94.1,13.9 		"/>
		<polygon fill="#2F1A45" points="93.5,14.1 93.9,13.9 93.3,13.8 		"/>
		<polygon fill="#2F1A45" points="83.1,16.7 83.4,16.8 83.9,16.7 83,16.6 		"/>
		<path fill="#2F1A45" d="M89,18.2c-0.8,0-1.8,0.1-2.8,0.3l0.2,0.1L89,18.2z"/>
		<path fill="#2F1A45" d="M81,16.5L80.6,15c-0.2,1.1-0.2,2-0.3,2.5l3.2,2.3l2.1-0.8l3.6-0.8c-0.1,0-0.1,0-0.2,0l-2.6,0.4l-0.2-0.1
			c-1.1,0.2-2.1,0.4-2.1,0.4L81,16.5z"/>
		<path fill="#2F1A45" d="M80,17.3l0.3,0.2c0-0.5,0.1-1.4,0.3-2.5l-0.5-1.9L80,17.3z"/>
		<path fill="#2F1A45" d="M95.3,18.7l-1.7-0.6l0.9,0c-1.4-0.2-3-0.2-3-0.2l2.7,0.5l0.2,0.5l2.2,0.5l2.6,1l-0.4-0.8L98,19.3
			c-0.3,0.1-0.5,0.1-0.5,0.1L95.3,18.7z"/>
		<path fill="#2F1A45" d="M95.9,18.4c-0.4-0.1-0.9-0.2-1.5-0.2l-0.9,0l1.7,0.6l2.2,0.7c0,0,0.2,0,0.5-0.1l-1.7-0.7L95.9,18.4z"/>
		<polygon fill="#2F1A45" points="68.2,35.8 67.8,36.5 67.8,37 67.8,37.3 68.1,38.3 68.5,36.1 		"/>
		<path fill="#2F1A45" d="M71.6,40.8l0.1-2.3c-0.4,0.1-0.9,0.2-1.1,0.1c-0.2,0-0.6-0.5-0.9-0.8l0.4,2.8l0.3,0.3L71.6,40.8z"/>
		<polygon fill="#2F1A45" points="68.6,31.6 68.5,31.4 68.3,31.6 68,33 68.1,33.9 68.7,35.1 68.8,35.1 68.6,34.4 		"/>
		<polygon fill="#2F1A45" points="67.8,36.5 68.2,35.8 68.2,35.7 68.1,33.7 68.1,33.9 68,33 68.3,31.6 68.5,31.4 68.2,30.1 68.3,31 
			67.3,33.5 67.7,35.3 67.3,35.1 67.4,35.8 67.6,35.7 		"/>
		<path fill="#2F1A45" d="M69.3,37.3l-0.5-2.2l-0.1-0.1l-0.5-1.2l0.3,1.6l-0.2,0.3l0.3,0.3l-0.5,2.2l0.1,0.4l1.8,1.8l-0.4-2.8
			C69.4,37.5,69.3,37.3,69.3,37.3z"/>
		<polygon fill="#2F1A45" points="68.2,35.7 68.2,35.8 68.4,35.5 68.1,33.9 68.1,33.7 		"/>
		<path fill="#2F1A45" d="M72.4,40.7l-0.2-2.4c0,0-0.2,0-0.4,0.1l-0.1,2.3L72.4,40.7z"/>
		<polygon fill="#2F1A45" points="67.3,33.5 67.1,34 67.2,34.9 67.5,35.1 67.3,35 67.3,35.1 67.7,35.3 		"/>
		<polygon fill="#2F1A45" points="67.5,35.1 67.2,34.9 67.3,35 		"/>
		<polygon fill="#2F1A45" points="67.8,36.5 67.7,36.6 67.6,36.7 67.8,37.3 67.8,37 		"/>
		<polygon fill="#2F1A45" points="67.8,36.5 67.6,35.7 67.4,35.8 67.5,36.4 67.6,36.7 67.7,36.6 		"/>
		<polygon fill="#2F1A45" points="68.6,31.4 68.5,31.4 68.6,31.6 		"/>
		<polygon fill="#2F1A45" points="67.8,27.5 67.9,28.3 68.6,29.9 68.6,29.7 		"/>
		<polygon fill="#2F1A45" points="68.6,31.4 68.6,29.9 67.9,28.3 68.2,30.1 68.5,31.4 		"/>
		<polygon fill="#F3E4B2" points="35.7,117.4 35.8,117.4 35.5,117.4 35.6,118.3 		"/>
		<polygon fill="#F3E4B2" points="104,105 104,105 104,105 		"/>
		<polygon fill="#F3E4B2" points="104,105 104,105 104,105 		"/>
	</g>
	<g>
		<g>
			<g>
				<g>
					<path fill="#00ADBB" d="M16.2,135.4c0.4,0.2,0.5-0.3,0.6-0.8v-7.8c0-0.2,0-0.4,0-0.5c-0.1-0.2-0.1-0.3-0.1-0.5
						c0-0.1,0-0.2,0-0.3c-0.1-0.6-0.3-1.1-0.6-1.5c-0.2,0-0.3-0.1-0.5-0.1c-0.5-0.2-0.7-0.8-1.3-1c-0.5-0.1-1-0.2-1.5-0.2
						c-0.4,0-0.9,0-1.3,0c-1.8,0.1-3,0.1-5.1,0.2c-0.5,0-1,0.1-1.5,0.2c-0.2,0.2-0.5,0.3-0.8,0.5c-0.9,0.5-1.4,0.9-1.7,1.8
						c-0.1,0.4-0.3,0.8-0.5,1.2c0,0.3-0.1,0.6-0.1,0.9v39.1c0,1.6,0.5,2.8,1.4,3.6c0.5,0.2,1,0.5,1.7,0.6c1,0.3,1.8-0.2,2.7-0.1
						c0.5,0.1,1.1,0.2,1.6,0.3c0.9,0,1.9-0.1,3.1-0.1c0.3,0,0.5,0,0.7-0.1c0.5-0.2,1.1-0.3,1.6-0.5c1.4-0.7,2.2-2.1,2.2-4.2v-23.4
						c-0.5,0.2-1.1,0.3-1.6,0c-0.5-0.4-0.8-0.3-1.3-0.3c-0.4,0.2-0.8,0.2-1.2,0.1c-0.2,0.1-0.3,0.2-0.3,0.3c0,3.4,0,20,0,23.5
						c-2.4,0.1-3.6,0.2-6,0.2v-39.1c2.4,0,3.6-0.1,6-0.2c0,3.5,0,5.3,0,8.7c0.1,0.2,0.3,0.3,0.5,0.3c0.1,0,0.1,0,0.2,0
						c0.2,0,0.4-0.1,0.7-0.2c0.6-0.2,1.6,0,2-0.4C15.9,135.3,16.1,135.3,16.2,135.4z"/>
				</g>
				<g>
					<path fill="#00ADBB" d="M34.8,121.4c-0.7,0-1.5-0.2-2.3-0.3c-0.2,0-0.4,0-0.6-0.1c-2.4,0.3-3.6,0.4-6,0.6c-0.1,0-0.2,0-0.3,0
						c-0.2,0.1-0.4,0.1-0.7,0.1c0,0-0.1,0-0.1,0c-0.4,0.1-0.8,0.3-1.2,0.5c-0.4,0.3-0.8,0.8-1.2,1.3c-0.3,0.4-0.6,0.7-0.9,1.1
						c-0.2,0.5-0.2,1.1-0.2,1.8V170c0.9,0.2,2-0.9,2.9-0.6c0.3,0.1,0.5,0.3,0.8,0.4c0.1,0,0.3,0,0.5,0c0.1-0.1,0.2-0.2,0.3-0.4
						c0,0,0-0.1,0.1-0.1v-23.6c2.4-0.2,3.6-0.4,6-0.6v23.5c0.4,0.1,0.8,0.2,1.1,0c0.3-0.2,0.5-0.3,0.8-0.4c0.3-0.1,0.6-0.2,0.9,0
						c0.3,0.2,0.5,0.5,0.7,0.6c0.1,0,0.2,0,0.3,0c0.1-0.1,0.2-0.1,0.3-0.3c0.1-0.2,0.3-0.4,0.4-0.6c0-14.3,0-28.5,0-42.8
						C36.4,123.1,35.8,122,34.8,121.4z M31.9,140.5c-2.4,0.3-3.6,0.4-6,0.6v-15c2.4-0.2,3.6-0.4,6-0.6V140.5z"/>
				</g>
				<g>
					<path fill="#00ADBB" d="M50.9,118.4c-0.8,0.2-1.6,0.4-2.5,0.3c-1.2,0.2-2.3,0.3-3.8,0.6c-0.4,0.2-0.9,0.5-1.5,0.6
						c-0.9,0.3-1.5,0.6-2.1,1.1c-0.7,0.8-1,1.9-1,3.4c0,6,0,9,0,15.1c0,3,1.5,4.3,4.5,3.9c2.4-0.3,3.6-0.5,6-0.9v19.5
						c-2.4,0.4-3.6,0.6-6,0.9c0-2.9,0-10.4,0-12.8c-0.2-0.2-0.4-0.4-0.5-0.8c-0.3-0.9-0.4-0.6-1.2-0.5c-0.9,0.1-2.2-0.3-2.9,0.3
						c0,3.4,0,10.9,0,14.4c0,2.2,0.8,3.5,2.5,3.9c1.3,0.1,2.6,0,3.7-0.3c1-0.2,1.9-0.7,2.9-0.4c0,0,0,0,0.1,0
						c0.4-0.1,0.9-0.1,1.4-0.2c0.3,0,0.6-0.1,0.8-0.2c0.4-0.2,0.8-0.4,1.2-0.6c0.7-0.2,1.1-0.8,1.6-1.3c0.5-0.8,0.8-1.8,0.9-3.1
						v-19.5c0-3-1.5-4.3-4.5-3.8c-2.4,0.4-3.6,0.6-6,0.9c0-6,0-9,0-15c2.4-0.3,3.6-0.5,6-0.9v8.8c0.5-0.1,0.9-0.2,1.4-0.4
						c0.5-0.2,1,0.1,1.5,0.2c0.2,0,0.4-0.1,0.6-0.1c0.5-0.2,0.8-0.6,1-1.1v-8c0-1.1-0.2-2-0.6-2.6C53.5,118.6,52.2,118,50.9,118.4z"
						/>
				</g>
				<g>
					<path fill="#00ADBB" d="M72.7,115.5c-0.2-0.1-0.4-0.2-0.7-0.2c-0.7-0.2-1,0-1.7,0.1c-0.6,0.1-1.3,0-1.9-0.1
						c-0.8,0.1-1.4,0.2-2.1,0.4c0,0.1-0.1,0.2-0.2,0.3c-1.4,0.7-2.6,0.3-4.1,0.8c-1.2,0.4-1.9,1.4-2.6,2.3c-0.3,0.7-0.4,1.4-0.4,2.3
						c0,14.4,0,28.8,0,43.2c0.7,0.2,1.5-0.5,2.2-0.4c0.9,0.1,1.8,0.3,2.3-0.4v-23.6c2.4-0.4,3.6-0.6,6-1v23.4c0.8,0,1.5-0.3,2.3-0.3
						c0.3,0,0.6,0.1,1,0.2c0.6,0.2,0.9,0,1.2-0.6c0,0,0,0,0,0v-43.1C74.1,117.2,73.7,116.1,72.7,115.5z M69.6,134.6
						c-2.4,0.4-3.6,0.6-6,1v-15c2.4-0.4,3.6-0.6,6-1V134.6z"/>
				</g>
				<g>
					<path fill="#00ADBB" d="M92.4,113.1c-0.6-0.8-1.7-0.6-2.5-1.1c-0.7-0.4-1-0.4-1.8-0.1c-0.3,0.1-0.5,0.1-0.8,0.1
						c-0.1,0-0.2,0-0.3-0.1c-0.8,0.1-1.6,0.3-2.3,0.4c0,0.1-0.1,0.2-0.3,0.2c-1.2,0.2-2.3,0.7-3.4,0.9c-0.2,0-0.5,0-0.8,0
						c-0.5,0.3-0.9,0.6-1.2,0.9c-0.2,0.4-0.4,0.7-0.6,1c-0.4,0.7-0.5,1.6-0.5,2.6v43.1c0.3-0.2,0.8-0.1,1.3,0
						c0.3,0.1,0.6,0.2,0.8,0.2c0.1,0,0.1,0,0.2,0c0.2-0.1,0.4-0.4,0.7-0.4c0.2-0.1,0.4,0.1,0.6,0.2c0,0,0.1,0,0.1,0
						c0.1,0,0.2,0,0.2,0c0.3-0.2,0.4-0.9,0.4-1.1c0-0.1,0.1-0.2,0.1-0.2c0-14.1,0-28.3,0-42.4c2.4-0.4,3.6-0.6,6-1v43.2
						c0.2-0.1,0.3-0.2,0.5-0.2c0.6-0.1,1-0.5,1.6-0.6c0.3-0.1,0.7,0.1,0.9,0.3c0.6,0.4,1.1,0.2,1.4-0.2v-43.3
						C92.9,114.5,92.7,113.7,92.4,113.1z"/>
				</g>
				<g>
					<path fill="#00ADBB" d="M110.9,109.8c-0.4-0.2-0.8-0.4-1.2-0.7c-0.8-0.5-1.7-0.2-2.6-0.1c-0.6,0.1-1.2,0-1.8-0.1
						c-0.5,0.1-0.9,0.1-1.3,0.2c-1.3,0.3-2.6,0.3-3.9,1c-0.4,0.2-0.8,0.2-1.2,0.2c-1.6,0.9-2.4,2.4-2.4,4.4v39.1c0,0,0,0.1,0,0.1
						c0.5,0.9,0.8,1.9,1,3c0.3,0.3,0.7,0.5,1.2,0.7c0.6-0.2,1.1-0.4,1.7-0.2c0.7,0.2,1.3,0.2,2-0.1c0.4-0.2,0.7-0.2,1.1-0.1
						c0,0,0,0,0.1,0c0,0,0,0,0.1,0c2-0.7,4.1-0.1,5.8-1.7c0.5-0.5,1.2-1.1,1.7-1.8c0.2-0.6,0.3-1.2,0.3-2v-39.1
						C111.6,111.4,111.3,110.5,110.9,109.8z M101.1,153.2v-39.1c2.4-0.4,3.6-0.5,6-0.9c0,13,0,26.1,0,39.1
						C104.7,152.6,103.5,152.8,101.1,153.2z"/>
				</g>
				<g>
					<path fill="#00ADBB" d="M128.3,106.6c-0.6-0.1-0.7-0.5-1.4-0.1c-0.7,0.3-1.4,0.2-2,0.5c-1,9.1-2,18.2-3,27.3
						c-0.9-8.3-1.8-16.5-2.7-24.8c-0.2-0.1-0.4-0.2-0.5-0.4c-0.2-0.4-0.3-1.8-0.9-1.4c-0.5,0.3-1.1,0.5-1.7,0.5
						c-0.8,0-1.3-0.1-1.7,0.5c1.6,14.8,3.3,29.6,4.9,44.3c0.3,0.5,0.5,1.1,0.8,1.7c0.7-0.1,1.4-0.1,2.1,0c0.9,0.2,1.4,0,2-0.5
						c1.7-15.8,3.4-31.6,5.1-47.5C129.1,106.6,128.7,106.6,128.3,106.6z"/>
				</g>
				<g>
					<path fill="#00ADBB" d="M146.6,108.3c-0.1-0.2-0.3-0.4-0.4-0.6c-0.3-0.5-0.6-0.8-1.1-1c-0.6-0.2-1.2-0.5-1.4-1
						c-0.4-0.1-0.8-0.1-1.3-0.1c-1.7,0-2.8,0.1-4.2,0.1c-0.7,0.2-1.4,0.5-2.1,0.5c-0.9,0.1-1.8-0.2-2.6,0.4
						c-0.2,0.2-0.4,0.3-0.6,0.4c-0.7,0.8-1.1,1.9-1.1,3.4v42.9c0.2,0.2,0.4,0.4,0.7,0.6c0,0,0,0,0,0c0.6,0,1.1-0.1,1.6-0.1
						c0.3-0.2,0.6-0.3,0.9-0.4c0.4-0.1,0.7,0,0.9,0.1c0.1-0.2,0.3-0.3,0.4-0.5v-23.4c2.4-0.1,3.6-0.2,6-0.2c0,7.9,0,15.8,0,23.7
						c0.2,0,0.4,0.1,0.6,0.2c0.6,0.2,1.2-0.3,1.8-0.4c0.6,0,1.4,0.6,1.9,0.2c0.1-0.1,0.2-0.1,0.3-0.1V110
						C146.8,109.3,146.7,108.8,146.6,108.3z M142.3,125.1c-2.4,0-3.6,0.1-6,0.2v-15c2.4-0.1,3.6-0.2,6-0.2V125.1z"/>
				</g>
			</g>
		</g>
		<g>
			<g>
				<g>
					<path fill="#F2EBD1" d="M14.4,134.8c0.4,0.2,0.5-0.3,0.6-0.8v-7.8c0-0.2,0-0.4,0-0.5c-0.1-0.2-0.1-0.3-0.1-0.5
						c0-0.1,0-0.2,0-0.3c-0.1-0.6-0.3-1.1-0.6-1.5c-0.2,0-0.3-0.1-0.5-0.1c-0.5-0.2-0.7-0.8-1.3-1c-0.5-0.1-1-0.2-1.5-0.2
						c-0.4,0-0.9,0-1.3,0c-1.8,0.1-3,0.1-5.1,0.2c-0.5,0-1,0.1-1.5,0.2c-0.2,0.2-0.5,0.3-0.8,0.5c-0.9,0.5-1.4,0.9-1.7,1.8
						c-0.1,0.4-0.3,0.8-0.5,1.2c0,0.3-0.1,0.6-0.1,0.9v39.1c0,1.6,0.5,2.8,1.4,3.6c0.5,0.2,1,0.5,1.7,0.6c1,0.3,1.8-0.2,2.7-0.1
						c0.5,0.1,1.1,0.2,1.6,0.3c0.9,0,1.9-0.1,3.1-0.1c0.3,0,0.5,0,0.7-0.1c0.5-0.2,1.1-0.3,1.6-0.5c1.4-0.7,2.2-2.1,2.2-4.2v-23.4
						c-0.5,0.2-1.1,0.3-1.6,0c-0.5-0.4-0.8-0.3-1.3-0.3c-0.4,0.2-0.8,0.2-1.2,0.1c-0.2,0.1-0.3,0.2-0.3,0.3c0,3.4,0,20,0,23.5
						c-2.4,0.1-3.6,0.2-6,0.2v-39.1c2.4,0,3.6-0.1,6-0.2c0,3.5,0,5.3,0,8.7c0.1,0.2,0.3,0.3,0.5,0.3c0.1,0,0.1,0,0.2,0
						c0.2,0,0.4-0.1,0.7-0.2c0.6-0.2,1.6,0,2-0.4C14.1,134.8,14.2,134.7,14.4,134.8z"/>
				</g>
				<g>
					<path fill="#F2EBD1" d="M33,120.8c-0.7,0-1.5-0.2-2.3-0.3c-0.2,0-0.4,0-0.6-0.1c-2.4,0.3-3.6,0.4-6,0.6c-0.1,0-0.2,0-0.3,0
						c-0.2,0.1-0.4,0.1-0.7,0.1c0,0-0.1,0-0.1,0c-0.4,0.1-0.8,0.3-1.2,0.5c-0.4,0.3-0.8,0.8-1.2,1.3c-0.3,0.4-0.6,0.7-0.9,1.1
						c-0.2,0.5-0.2,1.1-0.2,1.8v43.5c0.9,0.2,2-0.9,2.9-0.6c0.3,0.1,0.5,0.3,0.8,0.4c0.1,0,0.3,0,0.5,0c0.1-0.1,0.2-0.2,0.3-0.4
						c0,0,0-0.1,0.1-0.1v-23.6c2.4-0.2,3.6-0.4,6-0.6v23.5c0.4,0.1,0.8,0.2,1.1,0c0.3-0.2,0.5-0.3,0.8-0.4c0.3-0.1,0.6-0.2,0.9,0
						c0.3,0.2,0.5,0.5,0.7,0.6c0.1,0,0.2,0,0.3,0c0.1-0.1,0.2-0.1,0.3-0.3c0.1-0.2,0.3-0.4,0.4-0.6c0-14.3,0-28.5,0-42.8
						C34.6,122.6,34,121.4,33,120.8z M30.1,139.9c-2.4,0.3-3.6,0.4-6,0.6v-15c2.4-0.2,3.6-0.4,6-0.6V139.9z"/>
				</g>
				<g>
					<path fill="#F2EBD1" d="M49.1,117.8c-0.8,0.2-1.6,0.4-2.5,0.3c-1.2,0.2-2.3,0.3-3.8,0.6c-0.4,0.2-0.9,0.5-1.5,0.6
						c-0.9,0.3-1.5,0.6-2.1,1.1c-0.7,0.8-1,1.9-1,3.4c0,6,0,9,0,15.1c0,3,1.5,4.3,4.5,3.9c2.4-0.3,3.6-0.5,6-0.9v19.5
						c-2.4,0.4-3.6,0.6-6,0.9c0-2.9,0-10.4,0-12.8c-0.2-0.2-0.4-0.4-0.5-0.8c-0.3-0.9-0.4-0.6-1.2-0.5c-0.9,0.1-2.2-0.3-2.9,0.3
						c0,3.4,0,10.9,0,14.4c0,2.2,0.8,3.5,2.5,3.9c1.3,0.1,2.6,0,3.7-0.3c1-0.2,1.9-0.7,2.9-0.4c0,0,0,0,0.1,0
						c0.4-0.1,0.9-0.1,1.4-0.2c0.3,0,0.6-0.1,0.8-0.2c0.4-0.2,0.8-0.4,1.2-0.6c0.7-0.2,1.1-0.8,1.6-1.3c0.5-0.8,0.8-1.8,0.9-3.1
						v-19.5c0-3-1.5-4.3-4.5-3.8c-2.4,0.4-3.6,0.6-6,0.9c0-6,0-9,0-15c2.4-0.3,3.6-0.5,6-0.9v8.8c0.5-0.1,0.9-0.2,1.4-0.4
						c0.5-0.2,1,0.1,1.5,0.2c0.2,0,0.4-0.1,0.6-0.1c0.5-0.2,0.8-0.6,1-1.1v-8c0-1.1-0.2-2-0.6-2.6C51.7,118,50.4,117.4,49.1,117.8z"
						/>
				</g>
				<g>
					<path fill="#F2EBD1" d="M70.9,114.9c-0.2-0.1-0.4-0.2-0.7-0.2c-0.7-0.2-1,0-1.7,0.1c-0.6,0.1-1.3,0-1.9-0.1
						c-0.8,0.1-1.4,0.2-2.1,0.4c0,0.1-0.1,0.2-0.2,0.3c-1.4,0.7-2.6,0.3-4.1,0.8c-1.2,0.4-1.9,1.4-2.6,2.3c-0.3,0.7-0.4,1.4-0.4,2.3
						c0,14.4,0,28.8,0,43.2c0.7,0.2,1.5-0.5,2.2-0.4c0.9,0.1,1.8,0.3,2.3-0.4v-23.6c2.4-0.4,3.6-0.6,6-1V162c0.8,0,1.5-0.3,2.3-0.3
						c0.3,0,0.6,0.1,1,0.2c0.6,0.2,0.9,0,1.2-0.6c0,0,0,0,0,0v-43.1C72.3,116.6,71.8,115.5,70.9,114.9z M67.8,134.1
						c-2.4,0.4-3.6,0.6-6,1v-15c2.4-0.4,3.6-0.6,6-1V134.1z"/>
				</g>
				<g>
					<path fill="#F2EBD1" d="M90.5,112.5c-0.6-0.8-1.7-0.6-2.5-1.1c-0.7-0.4-1-0.4-1.8-0.1c-0.3,0.1-0.5,0.1-0.8,0.1
						c-0.1,0-0.2,0-0.3-0.1c-0.8,0.1-1.6,0.3-2.3,0.4c0,0.1-0.1,0.2-0.3,0.2c-1.2,0.2-2.3,0.7-3.4,0.9c-0.2,0-0.5,0-0.8,0
						c-0.5,0.3-0.9,0.6-1.2,0.9c-0.2,0.4-0.4,0.7-0.6,1c-0.4,0.7-0.5,1.6-0.5,2.6v43.1c0.3-0.2,0.8-0.1,1.3,0
						c0.3,0.1,0.6,0.2,0.8,0.2c0.1,0,0.1,0,0.2,0c0.2-0.1,0.4-0.4,0.7-0.4c0.2-0.1,0.4,0.1,0.6,0.2c0,0,0.1,0,0.1,0
						c0.1,0,0.2,0,0.2,0c0.3-0.2,0.4-0.9,0.4-1.1c0-0.1,0.1-0.2,0.1-0.2c0-14.1,0-28.3,0-42.4c2.4-0.4,3.6-0.6,6-1v43.2
						c0.2-0.1,0.3-0.2,0.5-0.2c0.6-0.1,1-0.5,1.6-0.6c0.3-0.1,0.7,0.1,0.9,0.3c0.6,0.4,1.1,0.2,1.4-0.2v-43.3
						C91,113.9,90.9,113.1,90.5,112.5z"/>
				</g>
				<g>
					<path fill="#F2EBD1" d="M109,109.3c-0.4-0.2-0.8-0.4-1.2-0.7c-0.8-0.5-1.7-0.2-2.6-0.1c-0.6,0.1-1.2,0-1.8-0.1
						c-0.5,0.1-0.9,0.1-1.3,0.2c-1.3,0.3-2.6,0.3-3.9,1c-0.4,0.2-0.8,0.2-1.2,0.2c-1.6,0.9-2.4,2.4-2.4,4.4v39.1c0,0,0,0.1,0,0.1
						c0.5,0.9,0.8,1.9,1,3c0.3,0.3,0.7,0.5,1.2,0.7c0.6-0.2,1.1-0.4,1.7-0.2c0.7,0.2,1.3,0.2,2-0.1c0.4-0.2,0.7-0.2,1.1-0.1
						c0,0,0,0,0.1,0c0,0,0,0,0.1,0c2-0.7,4.1-0.1,5.8-1.7c0.5-0.5,1.2-1.1,1.7-1.8c0.2-0.6,0.3-1.2,0.3-2V112
						C109.8,110.8,109.5,109.9,109,109.3z M99.3,152.6v-39.1c2.4-0.4,3.6-0.5,6-0.9c0,13,0,26.1,0,39.1
						C102.9,152,101.7,152.2,99.3,152.6z"/>
				</g>
				<g>
					<path fill="#F2EBD1" d="M126.5,106c-0.6-0.1-0.7-0.5-1.4-0.1c-0.7,0.3-1.4,0.2-2,0.5c-1,9.1-2,18.2-3,27.3
						c-0.9-8.3-1.8-16.5-2.7-24.8c-0.2-0.1-0.4-0.2-0.5-0.4c-0.2-0.4-0.3-1.8-0.9-1.4c-0.5,0.3-1.1,0.5-1.7,0.5
						c-0.8,0-1.3-0.1-1.7,0.5c1.6,14.8,3.3,29.6,4.9,44.3c0.3,0.5,0.5,1.1,0.8,1.7c0.7-0.1,1.4-0.1,2.1,0c0.9,0.2,1.4,0,2-0.5
						c1.7-15.8,3.4-31.6,5.1-47.5C127.3,106,126.9,106,126.5,106z"/>
				</g>
				<g>
					<path fill="#F2EBD1" d="M144.8,107.7c-0.1-0.2-0.3-0.4-0.4-0.6c-0.3-0.5-0.6-0.8-1.1-1c-0.6-0.2-1.2-0.5-1.4-1
						c-0.4-0.1-0.8-0.1-1.3-0.1c-1.7,0-2.8,0.1-4.2,0.1c-0.7,0.2-1.4,0.5-2.1,0.5c-0.9,0.1-1.8-0.2-2.6,0.4
						c-0.2,0.2-0.4,0.3-0.6,0.4c-0.7,0.8-1.1,1.9-1.1,3.4v42.9c0.2,0.2,0.4,0.4,0.7,0.6c0,0,0,0,0,0c0.6,0,1.1-0.1,1.6-0.1
						c0.3-0.2,0.6-0.3,0.9-0.4c0.4-0.1,0.7,0,0.9,0.1c0.1-0.2,0.3-0.3,0.4-0.5v-23.4c2.4-0.1,3.6-0.2,6-0.2c0,7.9,0,15.8,0,23.7
						c0.2,0,0.4,0.1,0.6,0.2c0.6,0.2,1.2-0.3,1.8-0.4c0.6,0,1.4,0.6,1.9,0.2c0.1-0.1,0.2-0.1,0.3-0.1v-43.1
						C145,108.7,144.9,108.2,144.8,107.7z M140.5,124.5c-2.4,0-3.6,0.1-6,0.2v-15c2.4-0.1,3.6-0.2,6-0.2V124.5z"/>
				</g>
			</g>
		</g>
	</g>
</g>
</svg>
