<?xml version="1.0" encoding="utf-8"?>
<!-- Generator: Adobe Illustrator 18.0.0, SVG Export Plug-In . SVG Version: 6.00 Build 0)  -->
<!DOCTYPE svg PUBLIC "-//W3C//DTD SVG 1.1//EN" "http://www.w3.org/Graphics/SVG/1.1/DTD/svg11.dtd">
<svg version="1.1" id="Layer_1" xmlns="http://www.w3.org/2000/svg" xmlns:xlink="http://www.w3.org/1999/xlink" x="0px" y="0px"
	 viewBox="0 0 19.9 16.2" enable-background="new 0 0 19.9 16.2" xml:space="preserve">
<path fill="#FF6C0C" d="M19.9,1.9c-0.7,0.3-1.5,0.5-2.3,0.6c0.8-0.5,1.5-1.3,1.8-2.3c-0.8,0.5-1.7,0.8-2.6,1C16,0.5,14.9,0,13.8,0
	c-2.3,0-4.1,1.8-4.1,4.1c0,0.3,0,0.6,0.1,0.9C6.4,4.8,3.4,3.2,1.4,0.7C1,1.4,0.8,2.1,0.8,2.8c0,1.4,0.7,2.7,1.8,3.4
	C2,6.2,1.3,6,0.8,5.7v0.1c0,2,1.4,3.6,3.3,4C3.7,9.8,3.4,9.9,3,9.9c-0.3,0-0.5,0-0.8-0.1c0.5,1.6,2,2.8,3.8,2.8
	c-1.4,1.1-3.2,1.7-5.1,1.7c-0.3,0-0.7,0-1-0.1c1.8,1.2,4,1.8,6.3,1.8c7.5,0,11.6-6.2,11.6-11.6c0-0.2,0-0.4,0-0.5
	C18.7,3.5,19.3,2.7,19.9,1.9z"/>
</svg>
