<?xml version="1.0" encoding="utf-8"?>
<!-- Generator: Adobe Illustrator 19.0.0, SVG Export Plug-In . SVG Version: 6.00 Build 0)  -->
<svg version="1.1" id="Layer_1" xmlns="http://www.w3.org/2000/svg" xmlns:xlink="http://www.w3.org/1999/xlink" x="0px" y="0px"
	 viewBox="-311 321 433 250" style="enable-background:new -311 321 433 250;" xml:space="preserve">
<style type="text/css">
	.st0{fill:#F7F0DC;}
</style>
<g>
	<g>
		<g>
			<path class="st0" d="M-128,368.5h-2.2l-4.1-9.2h2.5l2.7,6.8l2.8-6.8h2.5L-128,368.5z"/>
			<path class="st0" d="M-111.3,365c-0.1,0.6-0.5,1.9-1.9,2.9c-0.6,0.4-1.8,0.9-3.6,0.9c-2.7,0-4.2-1.1-4.8-2.1
				c-0.3-0.4-0.8-1.4-0.8-2.8c0-2.1,1-3.2,1.7-3.7c1-0.8,2.3-1.1,3.6-1.1c1.1,0,2.5,0.1,3.5,0.6c0.1,0.1,0.4,0.2,0.7,0.4
				c0.3,0.2,0.5,0.4,0.7,0.7c0.4,0.5,1,1.5,1,3C-111.2,364-111.2,364.5-111.3,365z M-114.3,361.7c-0.6-0.7-1.6-1-2.6-1
				c-0.2,0-0.8,0.1-1.3,0.3c-1.7,0.8-1.8,2.4-1.8,3c0,0.2,0,0.8,0.2,1.3c0.1,0.2,0.1,0.3,0.4,0.6c0.1,0.1,0.2,0.3,0.5,0.5
				c0.4,0.3,1.1,0.7,2.2,0.7c0.2,0,0.8,0,1.3-0.2c1.8-0.7,2-2.4,2-3C-113.5,363.5-113.6,362.5-114.3,361.7z"/>
			<path class="st0" d="M-108.3,368.5v-9.2h2.3v7.5h5.1v1.7H-108.3z"/>
			<path class="st0" d="M-97.9,368.5v-1.9h2.1v1.9H-97.9z"/>
			<path class="st0" d="M-89.4,368.5v-6.8c-0.1,0.1-0.2,0.1-0.4,0.2c-0.7,0.4-1.4,0.5-2.2,0.6v-1.6c0.4-0.1,1.6-0.2,2.5-1.1
				c0.1-0.1,0.2-0.2,0.3-0.3h2.1v9.1H-89.4z"/>
		</g>
	</g>
	<g>
		<path class="st0" d="M-109.2,398.7c-20,0-36.3-16.3-36.3-36.3s16.3-36.3,36.3-36.3s36.3,16.3,36.3,36.3S-89.2,398.7-109.2,398.7z
			 M-109.2,329c-18.4,0-33.3,15-33.3,33.3s15,33.3,33.3,33.3s33.3-15,33.3-33.3S-90.9,329-109.2,329z"/>
	</g>
</g>
<g>
	<path class="st0" d="M-206,423.6l15.8-2.7c0.3,0,0.5,0,0.6-0.1c7.9-1.3,12.4,1.2,13.4,7.5c0.2,1.3,0.3,2.7,0.2,4.3l-0.4,9.8
		c-0.2,4.5-1.9,7.8-5.3,9.9c2.4,0.7,3.9,2.5,4.3,5.3c0.2,0.9,0.2,1.9,0.2,3l-0.4,9.8c-0.4,9.5-5.4,15-14.9,16.6l-0.7,0.1l-15.7,2.7
		L-206,423.6z M-207.7,488.6l14.7-2.5l0.7-0.1c8.8-1.5,13.3-6.6,13.7-15.3l0.4-9.8c0-0.7,0-1.4-0.1-2c-0.5-2.9-2.5-4.9-5.9-6
		c4.3-2.7,6.6-6.1,6.8-10.1l0.4-9.8c0.1-1.5,0-2.8-0.2-4c-1-5.8-5.1-8.1-12.4-6.9c-0.2,0-0.4,0.1-0.7,0.1l-14.6,2.5L-207.7,488.6z
		 M-193.5,458.4c1.5-0.3,2.5-0.3,3.1-0.2c1.7,0.3,2.6,1.3,2.9,2.8c0.1,0.4,0.1,0.8,0.1,1.3l-0.4,9.8c-0.2,3.3-1.9,5.3-5.3,5.9
		l-5.1,0.9l0.9-19.8L-193.5,458.4z M-196.2,460l-0.7,17.5l4-0.7c2.6-0.4,4-2,4.1-4.5l0.4-9.8c0-0.4,0-0.7,0-1c-0.2-1.2-1-2-2.2-2.2
		c-0.5-0.1-1.4,0-2.7,0.2L-196.2,460z M-191,430.3c2.8-0.5,4.4,0.4,4.7,2.6c0.1,0.5,0.1,1,0.1,1.5l-0.4,9.8
		c-0.1,2.3-1.2,4.1-3.4,5.2c-0.6,0.3-1.6,0.6-3.1,0.9l-3.8,0.6l0.9-19.8L-191,430.3z M-195.1,432.1l-0.8,17.5l2.7-0.5
		c1.4-0.2,2.3-0.5,2.8-0.7c1.6-0.9,2.5-2.2,2.6-4l0.4-9.8c0-0.4,0-0.8-0.1-1.1c-0.3-1.7-1.5-2.4-3.7-2L-195.1,432.1z"/>
	<path class="st0" d="M-139,454.5l2.4,23.2l-11.5,1.9l-1.4-13.5l-9.6,1.6l-2.6,14.2l-11.4,1.9l4.4-24.2l9.2-43.8l15-2.5L-139,454.5z
		 M-145.4,414.6l-13.2,2.2l-9,42.8l-4.3,22.9l9.3-1.6l2.7-14.2l11.4-1.9l1.4,13.5l9.3-1.6l-2.3-21.9L-145.4,414.6z M-158.4,458.4
		l5.9-32.2l3.2,30.6L-158.4,458.4z M-150.5,456l-2.3-22.1l-4.3,23.2L-150.5,456z"/>
	<path class="st0" d="M-130.4,476.7l2.8-66.2l11.4-1.9l-2.4,55.8l16.4-2.8l-0.5,10.4L-130.4,476.7z M-103.6,471l0.3-8.1l-16.4,2.8
		l2.4-55.8l-9.2,1.5l-2.8,64L-103.6,471z"/>
	<path class="st0" d="M-65.6,442.2l2.4,23.2l-11.5,1.9l-1.4-13.5l-9.6,1.6l-2.6,14.2l-11.4,1.9l4.4-24.2l9.2-43.8l15-2.5
		L-65.6,442.2z M-72,402.2l-13.2,2.2l-9,42.8l-4.3,22.9l9.3-1.6l2.7-14.2l11.4-1.9l1.4,13.5l9.3-1.6l-2.3-21.9L-72,402.2z
		 M-85,446.1l5.9-32.2l3.2,30.6L-85,446.1z M-77.1,443.6l-2.3-22.1l-4.3,23.2L-77.1,443.6z"/>
	<path class="st0" d="M-54.1,398.1l15.8-2.7c0.3,0,0.5,0,0.6-0.1c7.9-1.3,12.4,1.2,13.4,7.5c0.2,1.3,0.3,2.7,0.2,4.3l-1.6,37.7
		c-0.4,9.5-5.4,15-14.9,16.6l-0.7,0.1l-15.7,2.7L-54.1,398.1z M-55.8,463l14.7-2.5l0.7-0.1c8.8-1.5,13.3-6.6,13.7-15.3l1.6-37.7
		c0.1-1.5,0-2.8-0.2-4c-1-5.8-5.1-8.1-12.4-6.9c-0.2,0-0.4,0.1-0.7,0.1L-53,399L-55.8,463z M-39.1,404.8c2.8-0.5,4.4,0.4,4.7,2.6
		c0.1,0.5,0.1,1,0.1,1.5l-1.6,37.7c-0.2,3.3-1.9,5.3-5.3,5.9l-5.1,0.9l2.1-47.7L-39.1,404.8z M-43.2,406.6l-1.9,45.4l4-0.7
		c2.6-0.4,4-2,4.1-4.5l1.6-37.7c0-0.4,0-0.8-0.1-1.1c-0.3-1.7-1.5-2.4-3.7-2L-43.2,406.6z"/>
	<path class="st0" d="M13.3,428.9l2.4,23.2L4.2,454l-1.4-13.5l-9.6,1.6l-2.6,14.2l-11.4,1.9l4.4-24.2l9.2-43.8l15-2.5L13.3,428.9z
		 M6.8,389l-13.2,2.2l-9,42.8l-4.3,22.9l9.3-1.6l2.7-14.2l11.4-1.9l1.4,13.5l9.3-1.6l-2.3-21.9L6.8,389z M-6.1,432.8l5.9-32.2
		L3,431.3L-6.1,432.8z M1.7,430.4l-2.3-22.1l-4.3,23.2L1.7,430.4z"/>
</g>
<g>
	<g>
		<g>
			<path class="st0" d="M-284.1,551.8c-0.1,6-3.4,9.6-9.9,10.8c-6.5,1.2-9.7-1.3-9.6-7.3l0.4-26.4c0.1-6,3.4-9.6,9.9-10.8
				c6.5-1.2,9.7,1.3,9.6,7.3l-0.1,5.8l-6.8,1.2l0.1-5.8c0-1.9-0.9-2.7-2.9-2.4l0,0c-2,0.3-2.9,1.5-3,3.4l-0.4,26.4
				c0,1.9,0.9,2.7,2.9,2.4c2-0.4,3-1.5,3-3.4l0.1-5.8l6.8-1.2L-284.1,551.8z"/>
			<path class="st0" d="M-260,540.5l2,14.9l-6.9,1.2l-1.2-8.9l-6.9,1.2l-1.5,9.4l-6.8,1.2l2.5-15.6l5.3-28.7l9.3-1.7L-260,540.5z
				 M-266.9,541.8l-2.3-17.5l-2.9,18.4L-266.9,541.8z"/>
			<path class="st0" d="M-239.4,538.6l8.4-30.9l6.8-1.2l-0.7,43.1l-6.5,1.2l0.4-24.2l-6.2,25.2l-4.6,0.8l-5.6-23.1l-0.4,24.2
				l-6.6,1.2l0.7-43.1l6.8-1.2L-239.4,538.6z"/>
			<path class="st0" d="M-218.5,505.4l9.9-1.8c6-1.1,9,1.4,8.9,7.5l-0.1,6.5c-0.1,4.5-2.3,7.7-6.7,9.8c-1.1,0.5-2.6,0.9-4.6,1.3
				l-1.1,0.2l-0.3,18.5l-6.8,1.2L-218.5,505.4z M-211.8,510.3l-0.2,12.3l1.6-0.3c0.9-0.2,1.6-0.3,1.9-0.5c1.2-0.7,1.9-1.7,1.9-3.1
				l0.1-6.5c0-2-0.9-2.8-2.9-2.4L-211.8,510.3z"/>
			<path class="st0" d="M-195,501.3l17.6-3.1l-0.1,6.1l-10.8,1.9l-0.2,12.3l9.3-1.7l-0.1,6.2l-9.3,1.7l-0.2,12.3l10.8-1.9l-0.1,6.1
				l-17.6,3.1L-195,501.3z"/>
			<path class="st0" d="M-154.1,528.7c-0.1,6-3.4,9.6-9.9,10.8c-6.5,1.2-9.7-1.3-9.6-7.3l0.4-26.4c0.1-6,3.4-9.6,9.9-10.8
				c6.5-1.2,9.7,1.3,9.6,7.3L-154.1,528.7z M-163.5,493.9l-3.8,0.7l3.5-6.9l5.3-0.9L-163.5,493.9z M-160.5,503.5
				c0-1.9-0.9-2.7-2.9-2.4l0,0c-2,0.3-2.9,1.5-3,3.4l-0.4,26.4c0,1.9,0.9,2.7,2.9,2.4c2-0.4,3-1.5,3-3.4L-160.5,503.5z"/>
			<path class="st0" d="M-148,492.9l6.8-1.2l6,23.8l0.4-25l6.3-1.1l-0.7,43.1l-6.8,1.2l-5.8-23.1l-0.4,24.2l-6.5,1.2L-148,492.9z"/>
			<path class="st0" d="M-111.1,486.3l17.6-3.1l-0.1,6.1l-10.8,1.9l-0.2,12.3l9.3-1.7l-0.1,6.2l-9.3,1.7l-0.2,12.3l10.8-1.9
				l-0.1,6.1l-17.6,3.1L-111.1,486.3z"/>
			<path class="st0" d="M-88.9,482.4l6.8-1.2l6,23.8l0.4-25l6.3-1.1L-70,522l-6.8,1.2l-5.8-23.1l-0.4,24.2l-6.5,1.2L-88.9,482.4z"/>
			<path class="st0" d="M-45.1,502.3l2,14.9l-6.9,1.2l-1.2-8.9l-6.9,1.2l-1.5,9.4l-6.8,1.2l2.5-15.6l5.3-28.7l9.3-1.7L-45.1,502.3z
				 M-52,503.6l-2.3-17.5l-2.9,18.4L-52,503.6z"/>
			<path class="st0" d="M-24.5,500.4l8.4-30.9l6.8-1.2l-0.7,43.1l-6.5,1.2l0.4-24.2l-6.2,25.2l-4.6,0.8l-5.6-23.1l-0.4,24.2
				l-6.6,1.2l0.7-43.1l6.8-1.2L-24.5,500.4z"/>
			<path class="st0" d="M14.9,498.7c-0.1,6-3.4,9.6-9.9,10.8c-6.5,1.2-9.7-1.3-9.6-7.3l0.4-26.4c0.1-6,3.4-9.6,9.9-10.8
				c6.5-1.2,9.7,1.3,9.6,7.3L14.9,498.7z M8.5,473.5c0-1.9-0.9-2.7-2.9-2.4l0,0c-2,0.3-2.9,1.5-3,3.4l-0.4,26.4
				c0,1.9,0.9,2.7,2.9,2.4c2-0.4,3-1.5,3-3.4L8.5,473.5z"/>
			<path class="st0" d="M20.7,462.9l9.9-1.8c6-1.1,9,1.4,8.9,7.5l-0.1,6.5c-0.1,3.8-1.9,6.6-5.5,8.5l7.3,18.7l-7.4,1.3L28,485.7
				l-0.9,0.3l-0.3,18.8L20,506L20.7,462.9z M27.4,467.8l-0.2,12.3l1.6-0.3c0.9-0.2,1.6-0.3,1.9-0.5c1.2-0.7,1.9-1.7,1.9-3.1l0.1-6.5
				c0-2-0.9-2.8-2.9-2.4L27.4,467.8z"/>
			<path class="st0" d="M63.8,483l2,14.9l-6.9,1.2l-1.2-8.9l-6.9,1.2l-1.5,9.4l-6.8,1.2l2.5-15.6l5.3-28.7l9.3-1.7L63.8,483z
				 M56.9,484.2l-2.3-17.5l-2.9,18.4L56.9,484.2z"/>
			<path class="st0" d="M70,454.1l10.5-1.9c6-1.1,9,1.4,8.9,7.5l-0.4,25c-0.1,6-3.3,9.6-9.6,10.7l-10,1.8L70,454.1z M76.7,459
				l-0.5,30.8l3-0.5c2-0.3,3-1.5,3-3.4l0.4-25c0-2-0.9-2.8-2.9-2.4L76.7,459z"/>
			<path class="st0" d="M113.3,481.2c-0.1,6-3.4,9.6-9.9,10.8c-6.5,1.2-9.7-1.3-9.6-7.3l0.4-26.4c0.1-6,3.4-9.6,9.9-10.8
				c6.5-1.2,9.7,1.3,9.6,7.3L113.3,481.2z M107,456c0-1.9-0.9-2.7-2.9-2.4l0,0c-2,0.3-2.9,1.5-3,3.4l-0.4,26.4
				c0,1.9,0.9,2.7,2.9,2.4c2-0.4,3-1.5,3-3.4L107,456z"/>
		</g>
	</g>
	<g>
		<path class="st0" d="M-251.5,471.4c-2.4,7.5-5.7,15.7-10.7,20.7c3.4,1.2,6.6,2.3,8.8,2.1c6.5-0.7,13-11.2,12.4-16.7
			c-0.2-1.7-1.6-2.7-2.6-2.6c-3.1,0.3-5.2,4.1-6.1,6.2c-0.2,0.4-0.5,0.3-0.3-0.2c0.8-2.5,3.1-6.3,6.3-6.7c1.7-0.2,3.5,1.9,3.8,4.6
			c0.9,8.3-4.2,14.9-11.8,15.8c-4.2,0.5-7.7-0.6-11-1.9c-2.4,2.1-5,3.6-8,4c-3,0.3-5.7-0.7-5.9-3.2c-0.3-2.8,1.6-3.9,3.2-4.1
			c2.8-0.3,6.2,0.8,9.5,2c3.5-4.9,5.3-12.7,7-18.5c-6,0.5-12.2-1.7-13.2-9.9c-0.9-8.3,4.5-12.7,9.9-13.3c3.3-0.4,7,1.1,8.5,2.8
			c0.4,0.3,0.2,0.6-0.1,0.3c-1.9-1.2-5-2.8-8.1-2.5c-4.7,0.5-8.9,5.2-8.1,12.5c0.8,7.2,4.8,10,11.2,9.3c4.3-14.1,13.8-26.5,18.3-27
			c1.6-0.2,3,1.1,3.3,3.6C-234.4,456-242.5,467.4-251.5,471.4z M-273.5,489.9c-1.4,0.2-3.1,1.4-2.9,3.3c0.2,2.1,3.1,3,5.4,2.8
			c2.6-0.3,4.8-1.8,6.5-3.9C-267.7,490.8-270.6,489.6-273.5,489.9z M-238.3,446c-3.8,0.4-9.4,13.2-12.9,24.5
			c8.6-4.2,16.2-15,15.5-21.6C-236,446.6-237.1,445.9-238.3,446z"/>
		<path class="st0" d="M-227.1,491.5c-1.2,0.1-2.5-1.3-2.8-4c0-0.4-0.1-0.9-0.1-1.4c-1.5,3-2.9,6.2-4.9,6.4c-1.8,0.2-3-2.9-3.3-5.6
			c-0.9-8.2,6.1-15.2,9.8-15.6c1.1-0.1,2.7,0.6,2.9,2.3l1.2-2.7l4.5-0.5l-7.4,18.2c-0.2,0.3-0.4,1-0.3,1.5c0,0.4,0.3,0.5,0.6,0.5
			c2.6-0.3,5.8-5.7,8.8-11.5l0.4,0.3C-220.2,484.8-223.9,491.2-227.1,491.5z M-227.5,472.1c-0.5,0.1-1.3,0.7-1.8,1.8
			c-2.3,4.9-5,11.4-6.3,15c-0.2,0.7-0.4,1.5-0.4,1.8c0.1,0.8,0.6,1.3,1,1.2c2.1-0.2,3.6-4.5,5.3-8.2l3.1-7.3
			c0.5-1.2,0.4-1.8,0.4-2.6C-226.2,473-226.7,472-227.5,472.1z"/>
	</g>
	<g>
		<path class="st0" d="M35.3,445.6c-0.2,0.3-0.4,1-0.3,1.5c0.1,0.4,0.3,0.5,0.6,0.5c2.6-0.3,5.9-5.8,8.7-11.6l0.4,0.3
			c-2.6,5.3-5.6,11.6-9.2,12.1c-1.5,0.2-2.5-1.7-2.8-4.3c0-0.4-0.1-0.8-0.1-1.2c-1.5,3-2.8,6.3-4.9,6.5c-1.8,0.2-3-2.9-3.3-5.6
			c-1-8.2,6-15.2,9.7-15.7c1.1-0.1,2.7,0.6,2.9,2.3l9.7-22.6l4.5-0.5L35.3,445.6z M34.9,429c-0.5,0.1-1.3,0.7-1.8,1.8
			c-2.3,4.9-4.9,11.5-6.2,15c-0.2,0.7-0.4,1.5-0.4,1.8c0.1,0.8,0.6,1.3,1.1,1.2c2.1-0.3,4-5.7,4.2-6.2l4.2-9.8
			c0.2-0.5,0.3-1.4,0.2-2.2C36.2,429.9,35.7,429,34.9,429z"/>
		<path class="st0" d="M47.5,447.2c-1.9,0.2-3.5-0.9-4-5.2c-0.9-7.2,5.4-15.8,9.3-16.3c1.4-0.2,2.9,1.1,3.2,3.4
			c0.6,5-3.7,8.2-6.8,8.6c-0.3,0-0.8,0-0.8,0l-2.6,6.1c-0.2,0.4-0.3,0.9-0.2,1.6c0.1,1.2,1.2,1.3,2,1.2c2.5-0.3,6-3.7,10-12.1
			l0.4,0.3C54.1,443.5,50.6,446.8,47.5,447.2z M53.9,426.6c-0.3,0-0.6,0.2-0.9,0.7c-1.4,2.6-2.9,6.1-4.2,9.6c2.7-0.3,6.5-4.6,6-9
			C54.7,427.1,54.3,426.6,53.9,426.6z"/>
		<path class="st0" d="M64.6,427.7c-3.2,8-5.2,13.9-5.1,15.1c0.2,1.3,1,2.3,1.8,2.2c2.2-0.3,6.6-7.9,8.5-12l0.4,0.3
			c-1.8,4.4-5.9,12.1-8.9,12.5c-2.2,0.3-3.9-2.8-4.4-6.5c-1-8.2,15.2-39.6,20.1-40.2c1-0.1,1.8,0.7,1.9,2
			C80.1,409.1,71.4,422.6,64.6,427.7z M77.7,399.7c-2.6,0.3-8.1,15.3-12.8,27c7.2-6,14.5-19.1,13.8-25.5
			C78.7,400.4,78.2,399.6,77.7,399.7z"/>
	</g>
</g>
</svg>
